<svg id="flat" height="512" viewBox="0 0 512 512" width="512" xmlns="http://www.w3.org/2000/svg"><path d="m336 464h-160l2.232-3.348c18.408-27.612 20.609-62.97 5.768-92.652h144c-14.841 29.682-12.64 65.04 5.768 92.652z" fill="#5c9ee6"/><path d="m484 384h-456c-11.046 0-20-8.954-20-20v-296c0-11.046 8.954-20 20-20h456c11.046 0 20 8.954 20 20v296c0 11.046-8.954 20-20 20z" fill="#5c9ee6"/><path d="m484 384h-456c-11.046 0-20-8.954-20-20v-28h496v28c0 11.046-8.954 20-20 20z" fill="#25405d"/><g><path d="m400 472h-288c-4.418 0-8-3.582-8-8s3.582-8 8-8h288c4.418 0 8 3.582 8 8s-3.582 8-8 8z" fill="#25405d"/></g><path d="m201.724 127.311c-12.978-32.414-44.675-55.311-81.724-55.311v88z" fill="#e6625c"/><path d="m120 72c-48.601 0-88 39.399-88 88h88z" fill="#e6b55c"/><path d="m32 160c0 48.601 39.399 88 88 88 19.812 0 38.094-6.549 52.802-17.598l-52.802-70.402z" fill="#aa4844"/><path d="m208 160c0-11.552-2.23-22.583-6.276-32.689l-81.724 32.689 52.802 70.402c21.372-16.054 35.198-41.613 35.198-70.402z" fill="#25405d"/><path d="m448 72h32v128h-32z" fill="#25405d" transform="matrix(-1 0 0 -1 928 272)"/><path d="m392 104h32v96h-32z" fill="#e6b55c" transform="matrix(-1 0 0 -1 816 304)"/><path d="m336 136h32v64h-32z" fill="#aa4844" transform="matrix(-1 0 0 -1 704 336)"/><g><path d="m303.993 320.001c-1.271 0-2.559-.303-3.758-.943-3.898-2.079-5.373-6.925-3.294-10.823l25.6-48c1.266-2.375 3.641-3.953 6.32-4.201 2.682-.248 5.304.867 6.985 2.968l18.247 22.809 26.16-45.78c1.188-2.08 3.247-3.518 5.609-3.918 2.364-.401 4.778.279 6.586 1.851l31.17 27.104 34.724-34.724c3.125-3.124 8.189-3.124 11.314 0 3.124 3.124 3.124 8.189 0 11.313l-40 40c-2.973 2.973-7.737 3.137-10.906.38l-29.442-25.602-27.162 47.534c-1.314 2.3-3.683 3.801-6.324 4.006-2.641.213-5.213-.909-6.869-2.978l-18.012-22.514-19.883 37.281c-1.439 2.7-4.205 4.237-7.065 4.237z" fill="#552422"/></g><g><path d="m464 264c-4.418 0-8-3.582-8-8v-16h-16c-4.418 0-8-3.582-8-8s3.582-8 8-8h24c4.418 0 8 3.582 8 8v24c0 4.418-3.582 8-8 8z" fill="#552422"/></g><path d="m142.4 284.8h32v48h-32z" fill="#aa4844" transform="matrix(.8 .6 -.6 .8 216.96 -33.28)"/><path d="m88.8 309.6h48v120h-48z" fill="#e6b55c" transform="matrix(.8 .6 -.6 .8 244.32 6.24)"/><circle cx="216" cy="232" fill="#3c6897" r="80"/><circle cx="216" cy="232" fill="#25405d" r="56"/><g><path d="m416 80h-192c-4.418 0-8-3.582-8-8s3.582-8 8-8h192c4.418 0 8 3.582 8 8s-3.582 8-8 8z" fill="#25405d"/></g><g><path d="m360 104h-136c-4.418 0-8-3.582-8-8s3.582-8 8-8h136c4.418 0 8 3.582 8 8s-3.582 8-8 8z" fill="#25405d"/></g><g><path d="m304 128h-80c-4.418 0-8-3.582-8-8s3.582-8 8-8h80c4.418 0 8 3.582 8 8s-3.582 8-8 8z" fill="#25405d"/></g><g><path d="m480 320h-96c-4.418 0-8-3.582-8-8s3.582-8 8-8h96c4.418 0 8 3.582 8 8s-3.582 8-8 8z" fill="#552422"/></g><g><path d="m480 296h-32c-4.418 0-8-3.582-8-8s3.582-8 8-8h32c4.418 0 8 3.582 8 8s-3.582 8-8 8z" fill="#552422"/></g><g><path d="m304 368h-96c-4.418 0-8-3.582-8-8s3.582-8 8-8h96c4.418 0 8 3.582 8 8s-3.582 8-8 8z" fill="#e6b55c"/></g><g><path d="m400 368h-16c-4.418 0-8-3.582-8-8s3.582-8 8-8h16c4.418 0 8 3.582 8 8s-3.582 8-8 8z" fill="#e6b55c"/></g><g><path d="m440 368h-16c-4.418 0-8-3.582-8-8s3.582-8 8-8h16c4.418 0 8 3.582 8 8s-3.582 8-8 8z" fill="#e6b55c"/></g><g><path d="m480 368h-16c-4.418 0-8-3.582-8-8s3.582-8 8-8h16c4.418 0 8 3.582 8 8s-3.582 8-8 8z" fill="#e6b55c"/></g></svg>