<svg id="Layer_1" enable-background="new 0 0 66 66" height="512" viewBox="0 0 66 66" width="512" xmlns="http://www.w3.org/2000/svg"><g><g><path d="m1.86 13.08v39.99c0 2.21 1.79 4 4 4h45.99c2.21 0 4-1.79 4-4v-39.99z" fill="#e5e5e5"/><path d="m46.79 57.07 9.06-9.06v-19.21c-.55.31-1.07.69-1.53 1.15l-23.15 23.15-1.14 3.98h16.76z" opacity=".1"/><path d="m51.85 2.08h-45.99c-2.21 0-4 1.79-4 4v7h53.99v-7c0-2.21-1.79-4-4-4z" fill="#658c99"/><path d="m32.18 42.42h29.08v9.85h-29.08z" fill="#4f7ce7" transform="matrix(.707 -.707 .707 .707 -19.798 46.902)"/><path d="m32.95 54.14-2.81 9.78 9.78-2.81z" fill="#ffd683"/><path d="m31.37 59.67-1.23 4.25 4.26-1.22z" fill="#0e4b5c"/><path d="m62.7 31.36c-1.92-1.92-5.04-1.92-6.97 0l-2.22 2.22 6.97 6.97 2.22-2.22c1.93-1.92 1.93-5.04 0-6.97z" fill="#0e4b5c"/><g fill="#fff"><circle cx="8.86" cy="7.58" r="2"/><circle cx="16.21" cy="7.58" r="2"/><circle cx="23.56" cy="7.58" r="2"/></g><circle cx="16.97" cy="28.2" fill="#ff7146" r="11.12"/><path d="m5.86 43.97h22.63v9.11h-22.63z" fill="#ffc040"/><path d="m22.43 27.28-7.04-4.89c-.92-.55-2.21-.01-2.21.92v9.78c0 .93 1.29 1.47 2.21.92l7.04-4.89c.76-.45.76-1.38 0-1.84z" fill="#fff"/></g><g fill="#0d4353"><path d="m63.23 30.83c-1.07-1.07-2.5-1.66-4.01-1.66s-2.94.59-4.01 1.66l-22.79 22.78c-.09.09-.14.19-.17.3 0 .01-.01.02-.02.03l-2.81 9.78c-.08.26 0 .54.19.74.14.14.33.22.53.22.07 0 .14-.01.21-.03l9.78-2.81c.01 0 .02-.01.03-.02.11-.04.21-.09.3-.17l22.78-22.78c2.21-2.22 2.21-5.82-.01-8.04zm-31.99 32 2.08-7.25 5.17 5.17zm8.68-2.78-5.91-5.91 19.5-19.5 5.91 5.91zm22.25-22.25-1.69 1.69-5.91-5.91 1.69-1.69c.79-.79 1.84-1.22 2.95-1.22s2.17.43 2.95 1.22c1.64 1.63 1.64 4.28.01 5.91z"/><path d="m8.86 4.83c-1.52 0-2.75 1.23-2.75 2.75s1.23 2.75 2.75 2.75 2.75-1.23 2.75-2.75-1.24-2.75-2.75-2.75zm0 4c-.69 0-1.25-.56-1.25-1.25s.56-1.25 1.25-1.25 1.25.56 1.25 1.25-.56 1.25-1.25 1.25z"/><path d="m16.21 4.83c-1.52 0-2.75 1.23-2.75 2.75s1.23 2.75 2.75 2.75 2.75-1.23 2.75-2.75-1.23-2.75-2.75-2.75zm0 4c-.69 0-1.25-.56-1.25-1.25s.56-1.25 1.25-1.25 1.25.56 1.25 1.25-.56 1.25-1.25 1.25z"/><path d="m23.56 4.83c-1.52 0-2.75 1.23-2.75 2.75s1.23 2.75 2.75 2.75 2.75-1.23 2.75-2.75-1.23-2.75-2.75-2.75zm0 4c-.69 0-1.25-.56-1.25-1.25s.56-1.25 1.25-1.25 1.25.56 1.25 1.25-.56 1.25-1.25 1.25z"/><path d="m13.41 34.68c.35.2.75.3 1.15.3.43 0 .87-.12 1.26-.35l6.99-4.86c.59-.35.94-.94.94-1.56s-.34-1.2-.91-1.55l-7.06-4.9c-.71-.43-1.64-.44-2.37-.03-.61.35-.98.94-.98 1.59v9.78c0 .64.36 1.23.98 1.58zm.52-11.37c0-.14.14-.24.22-.28.12-.07.29-.11.45-.11.13 0 .26.03.37.09l7.03 4.88c.01.01.03.02.04.03.13.08.21.18.21.28s-.08.2-.25.31l-6.99 4.86c-.29.18-.64.13-.86.01-.08-.05-.22-.14-.22-.29z"/><path d="m16.97 40.07c6.54 0 11.87-5.32 11.87-11.87s-5.32-11.87-11.87-11.87-11.86 5.33-11.86 11.87 5.32 11.87 11.86 11.87zm0-22.24c5.72 0 10.37 4.65 10.37 10.37s-4.65 10.37-10.37 10.37-10.36-4.65-10.36-10.37 4.65-10.37 10.36-10.37z"/><path d="m51.08 20.29h-18.22c-.41 0-.75.34-.75.75s.34.75.75.75h18.22c.41 0 .75-.34.75-.75s-.34-.75-.75-.75z"/><path d="m51.08 24.33h-18.22c-.41 0-.75.34-.75.75s.34.75.75.75h18.22c.41 0 .75-.34.75-.75s-.34-.75-.75-.75z"/><path d="m51.83 29.04c0-.41-.34-.75-.75-.75h-18.22c-.41 0-.75.34-.75.75s.34.75.75.75h18.22c.41 0 .75-.33.75-.75z"/><path d="m32.86 32.34c-.41 0-.75.34-.75.75s.34.75.75.75h7.49c.41 0 .75-.34.75-.75s-.34-.75-.75-.75z"/><path d="m5.11 53.07c0 .41.34.75.75.75h22.63c.41 0 .75-.34.75-.75v-9.11c0-.41-.34-.75-.75-.75h-22.63c-.41 0-.75.34-.75.75zm1.5-8.35h21.13v7.61h-21.13z"/><path d="m29.74 57.07c0-.41-.34-.75-.75-.75h-23.13c-1.79 0-3.25-1.46-3.25-3.25v-39.24h52.49v13.84c0 .41.34.75.75.75s.75-.34.75-.75v-21.59c0-2.62-2.13-4.75-4.75-4.75h-45.99c-2.62 0-4.75 2.13-4.75 4.75v46.99c0 2.62 2.13 4.75 4.75 4.75h23.13c.41 0 .75-.33.75-.75zm-27.13-50.99c0-1.79 1.46-3.25 3.25-3.25h45.99c1.79 0 3.25 1.46 3.25 3.25v6.25h-52.49z"/><path d="m55.85 48.68c-.41 0-.75.34-.75.75v3.64c0 1.79-1.46 3.25-3.25 3.25h-3.64c-.41 0-.75.34-.75.75s.34.75.75.75h3.64c2.62 0 4.75-2.13 4.75-4.75v-3.64c0-.41-.34-.75-.75-.75z"/><path d="m38.39 54.61c-.29.29-.29.77 0 1.06.15.15.34.22.53.22s.38-.07.53-.22l15-15c.29-.29.29-.77 0-1.06s-.77-.29-1.06 0z"/></g></g></svg>