<svg clip-rule="evenodd" fill-rule="evenodd" height="512" stroke-linejoin="round" stroke-miterlimit="2" viewBox="0 0 64 64" width="512" xmlns="http://www.w3.org/2000/svg"><g transform="translate(-576 -64)"><g id="Icon"><path d="m628 72c0-2.209-1.791-4-4-4-7.664 0-24.336 0-32 0-2.209 0-4 1.791-4 4v48c0 2.209 1.791 4 4 4h32c2.209 0 4-1.791 4-4 0-10.308 0-37.691 0-48z" fill="#e0e0e0"/><g transform="translate(0 -4)"><path d="m608.828 120c.531 0 1.04-.211 1.415-.586 3.781-3.781 24.585-24.586 24.585-24.586 1.561-1.561 1.561-4.095 0-5.656s-4.095-1.561-5.656 0c0 0-20.805 20.804-24.586 24.585-.375.375-.586.884-.586 1.415v3.828c0 .265.105.52.293.707.187.188.442.293.707.293z" fill="#ffce4b"/></g><path d="m627.172 87.172 5.656 5.656 2-2c1.561-1.561 1.561-4.095 0-5.656s-4.095-1.561-5.656 0z" fill="#ff6c5c"/><path d="m610.243 115.414-5.657-5.657c-.375.375-.586.884-.586 1.415v3.828c0 .265.105.52.293.707.187.188.442.293.707.293h3.828c.531 0 1.04-.211 1.415-.586z" fill="#ffdcb6"/><path d="m604 113v2c0 .265.105.52.293.707.187.188.442.293.707.293h2z" fill="#505050"/><g transform="translate(256 -32)"><path d="m340 112c0-2.209-1.791-4-4-4h-8c-2.209 0-4 1.791-4 4v8c0 2.209 1.791 4 4 4h8c2.209 0 4-1.791 4-4z" fill="#1397e1"/></g><g transform="matrix(.954 0 0 .954 515.109 35.109)"><circle cx="76.383" cy="76.383" fill="#ff6c5c" r="8.383"/></g><g transform="translate(513 32)"><path d="m75.109 72.336c-.613-.409-1.402-.447-2.053-.099-.65.348-1.056 1.025-1.056 1.763v4c0 .738.406 1.415 1.056 1.763.651.348 1.44.31 2.053-.099l3-2c.557-.371.891-.995.891-1.664s-.334-1.293-.891-1.664z" fill="#e0e0e0"/></g><g transform="translate(532)"><path d="m104 70c0-1.105-.895-2-2-2-3.074 0-8.926 0-12 0-1.105 0-2 .895-2 2v8c0 1.105.895 2 2 2h12c1.105 0 2-.895 2-2 0-2.22 0-5.78 0-8z" fill="#f9b32f"/></g><g transform="translate(532)"><path d="m90 68c-.881 0-1.659.577-1.914 1.42-.256.844.071 1.755.805 2.244l6 4c.671.448 1.547.448 2.218 0l6-4c.734-.489 1.061-1.4.805-2.244-.255-.843-1.033-1.42-1.914-1.42z" fill="#ffce4b"/></g><g transform="matrix(-1.329 0 0 1.25 955.015 -2)"><path d="m252 91.2c0-1.767-1.347-3.2-3.009-3.2h-6.017c-1.662 0-3.009 1.433-3.009 3.2v6.4c0 1.767 1.347 3.2 3.009 3.2h6.017c1.662 0 3.009-1.433 3.009-3.2z" fill="#ff926b"/></g><g transform="translate(296 -128)"><path d="m324 243h5v2h-5z" fill="#ffb28c"/></g><g transform="translate(308 -128)"><path d="m323 243h5v2h-5z" fill="#ffb28c"/></g><path d="m600 77h16c.552 0 1-.448 1-1s-.448-1-1-1h-16c-.552 0-1 .448-1 1s.448 1 1 1z" fill="#c0c0c0"/><g transform="translate(0 4)"><path d="m600 77h4c.552 0 1-.448 1-1s-.448-1-1-1h-4c-.552 0-1 .448-1 1s.448 1 1 1z" fill="#c0c0c0"/></g><g transform="translate(0 4)"><path d="m608 77h8c.552 0 1-.448 1-1s-.448-1-1-1h-8c-.552 0-1 .448-1 1s.448 1 1 1z" fill="#c0c0c0"/></g><g transform="translate(0 8)"><path d="m600 77h20c.552 0 1-.448 1-1s-.448-1-1-1h-20c-.552 0-1 .448-1 1s.448 1 1 1z" fill="#c0c0c0"/></g><g transform="translate(0 12)"><path d="m600 77h20c.552 0 1-.448 1-1s-.448-1-1-1h-20c-.552 0-1 .448-1 1s.448 1 1 1z" fill="#c0c0c0"/></g><g transform="translate(0 16)"><path d="m600 77h16c.552 0 1-.448 1-1s-.448-1-1-1h-16c-.552 0-1 .448-1 1s.448 1 1 1z" fill="#c0c0c0"/></g><g transform="matrix(-1 0 0 1 744 40)"><circle cx="116" cy="76" fill="#ffc29b" r="4"/></g><g transform="translate(128)"><path d="m456 81h4c.552 0 1-.448 1-1s-.448-1-1-1h-4c-.552 0-1 .448-1 1s.448 1 1 1z" fill="#e0e0e0"/></g><g transform="translate(128 4)"><path d="m456 81h8c.552 0 1-.448 1-1s-.448-1-1-1h-8c-.552 0-1 .448-1 1s.448 1 1 1z" fill="#e0e0e0"/></g><g transform="translate(128 8)"><path d="m456 81h8c.552 0 1-.448 1-1s-.448-1-1-1h-8c-.552 0-1 .448-1 1s.448 1 1 1z" fill="#e0e0e0"/></g></g></g></svg>