<svg id="Icon_Set" enable-background="new 0 0 256 256" viewBox="0 0 256 256" xmlns="http://www.w3.org/2000/svg"><g><g><circle cx="128" cy="128" fill="#f1c48b" r="103.873"/></g><g><path d="m108.007 137.119-14.2-14.2-30.595 30.595 11.709 11.709 8.685 15.9 29.123 29.046c.21.294.44.578.704.842l11.385 11.385c2.583 2.583 6.77 2.583 9.352 0 2.581-2.581 2.582-6.765.004-9.348 2.583 2.578 6.767 2.577 9.347-.004 2.581-2.581 2.582-6.764.005-9.347 2.583 2.577 6.766 2.575 9.346-.005 2.581-2.581 2.583-6.763.005-9.347 2.583 2.577 6.766 2.576 9.347-.005 2.583-2.583 2.583-6.77 0-9.353l-11.386-11.385-32.954-32.744z" fill="#fff"/></g><g><g><path d="m129.928 217.287-11.385-11.385c-.264-.264-.494-.548-.704-.842l-29.123-29.046-8.685-15.9-11.709-11.709-5.11 5.11 11.709 11.709 8.685 15.9 29.123 29.046c.21.294.44.578.704.842l11.385 11.385c2.583 2.583 6.77 2.583 9.352 0 .943-.944 1.538-2.102 1.792-3.317-2.111.44-4.395-.154-6.034-1.793z" fill="#d3e6f8"/></g></g><g><path d="m162.193 113.649-14.201 14.351h-19.143c-2.97 0-5.818 1.028-7.917 3.128l-8.004 7.929 4.959 1.84 32.954 32.725 10.157 10.147 10.309-10.313 8.084-15.963 13.399-13.324z" fill="#fff"/></g><g><path d="m185.092 140.86-9.963 9.963c-1.081 1.081-1.948 2.355-2.557 3.757l-5.752 13.246c-.645 1.485-1.579 2.826-2.748 3.944l-7.698 7.367 4.624 4.623 10.309-10.308 8.084-15.96 10.874-10.874z" fill="#d3e6f8"/></g><g><path d="m129.494 227.333c-2.567 0-4.981-1-6.798-2.814l-11.385-11.387c-.303-.302-.587-.632-.865-1.002l-28.958-28.883c-.204-.203-.377-.434-.515-.686l-8.479-15.522-11.404-11.404c-.563-.563-.879-1.325-.879-2.121s.316-1.559.879-2.121l30.595-30.595c1.172-1.172 3.07-1.172 4.242 0l13.745 13.744 9.275 3.512c.395.149.753.38 1.052.678l32.954 32.744 11.393 11.392c1.816 1.815 2.816 4.229 2.816 6.798s-1 4.982-2.816 6.798c-1.756 1.756-4.072 2.749-6.545 2.812-.063 2.376-.999 4.732-2.808 6.54-1.756 1.756-4.071 2.749-6.545 2.813-.063 2.375-.999 4.731-2.807 6.539-1.756 1.756-4.071 2.749-6.545 2.812-.063 2.376-.998 4.732-2.807 6.54-1.813 1.813-4.227 2.813-6.795 2.813zm-43.463-48.028 28.815 28.74c.118.117.227.245.323.38.135.188.26.341.384.465l11.385 11.386c1.365 1.362 3.745 1.364 5.11 0 1.407-1.407 1.408-3.698.002-5.107-1.17-1.172-1.169-3.069.002-4.24 1.172-1.171 3.07-1.173 4.24-.002 1.366 1.363 3.743 1.361 5.107-.002 1.406-1.407 1.408-3.698.003-5.107-1.169-1.172-1.168-3.069.003-4.239 1.172-1.171 3.068-1.172 4.24-.003 1.364 1.362 3.741 1.361 5.105-.002 1.407-1.407 1.408-3.698.003-5.106-1.169-1.172-1.168-3.069.003-4.24s3.067-1.172 4.24-.003c.682.681 1.588 1.056 2.552 1.056.965 0 1.872-.376 2.555-1.059s1.059-1.59 1.059-2.555-.376-1.873-1.059-2.556l-11.386-11.385-32.494-32.286-9.279-3.514c-.397-.15-.758-.384-1.059-.685l-12.08-12.079-26.353 26.353 9.588 9.588c.202.202.375.432.512.683z" fill="#4c4372"/></g><g><path d="m160.997 186.77c-.768 0-1.534-.292-2.12-.878l-10.157-10.147-32.486-32.26-4.351-1.614c-.96-.356-1.672-1.178-1.889-2.179-.216-1.002.094-2.044.821-2.765l8.005-7.93c2.573-2.574 6.139-3.997 10.028-3.997h17.892l13.319-13.286c.562-.566 1.325-.714 2.123-.714h.01c.794 0 1.557.14 2.119.7l30.596 30.434c.564.563.882 1.285.881 2.082-.001.798-.319 1.541-.885 2.103l-13.056 12.972-7.865 15.526c-.144.283-.331.538-.555.763l-10.309 10.312c-.585.586-1.353.878-2.121.878zm-42.619-48.89.552.205c.401.148.766.382 1.07.684l32.954 32.725 8.041 8.034 7.851-7.854 7.867-15.535c.146-.285.334-.546.562-.771l11.263-11.2-26.331-26.268-12.081 12.211c-.563.569-1.332.89-2.133.89h-19.144c-2.287 0-4.346.799-5.796 2.249z" fill="#4c4372"/></g><g><g><path d="m188.495 148.127-30.27-30.269c-2.9-2.9-2.9-7.602 0-10.502l21.959-21.959 40.772 40.772-21.959 21.959c-2.9 2.899-7.602 2.899-10.502-.001z" fill="#fd919e"/></g></g><g><g><path d="m188.495 148.127-3.933-3.933 27.21-27.21 9.184 9.184-21.959 21.959c-2.9 2.9-7.602 2.9-10.502 0z" fill="#e8677d"/></g></g><g><g><path d="m67.505 157.548 30.269-30.269c2.9-2.9 2.9-7.602 0-10.502l-21.958-21.96-40.772 40.772 21.959 21.959c2.9 2.9 7.602 2.9 10.502 0z" fill="#d3e6f8"/></g></g><g><g><path d="m67.505 157.548 3.933-3.933-27.21-27.21-9.184 9.184 21.959 21.958c2.9 2.901 7.602 2.901 10.502.001z" fill="#a4cff2"/></g></g><g><g><path d="m99.271 182.754-11.386 11.385c-2.583 2.583-6.77 2.583-9.352 0-2.583-2.583-2.583-6.77 0-9.352l11.386-11.385c2.581-2.581 6.764-2.583 9.348-.005 2.586 2.582 2.588 6.773.004 9.357z" fill="#fff"/></g></g><g><g><path d="m108.622 192.106-11.385 11.385c-2.583 2.583-6.77 2.583-9.352 0-2.583-2.582-2.583-6.77 0-9.352l11.385-11.385c2.581-2.581 6.765-2.583 9.348-.005 2.587 2.582 2.589 6.772.004 9.357z" fill="#fff"/></g></g><g><g><path d="m117.974 201.457-11.385 11.385c-2.583 2.583-6.77 2.583-9.352 0-2.583-2.583-2.583-6.77 0-9.352l11.385-11.385c2.581-2.581 6.764-2.583 9.348-.005 2.587 2.582 2.589 6.773.004 9.357z" fill="#fff"/></g></g><g><g><path d="m127.326 210.809-11.386 11.386c-2.583 2.583-6.77 2.583-9.352 0-2.583-2.583-2.583-6.77 0-9.353l11.385-11.385c2.581-2.581 6.765-2.583 9.348-.005 2.587 2.582 2.589 6.773.005 9.357z" fill="#fff"/></g></g><g><g><path d="m83.209 199.076c-2.567 0-4.981-1-6.797-2.815-3.748-3.748-3.748-9.847 0-13.595l11.385-11.386c1.815-1.816 4.229-2.816 6.798-2.816 2.563 0 4.976.998 6.79 2.81 1.819 1.814 2.822 4.229 2.823 6.8s-.999 4.985-2.816 6.803l-11.386 11.385c-1.816 1.814-4.23 2.814-6.797 2.814zm11.386-24.612c-.966 0-1.873.376-2.556 1.059l-11.385 11.386c-1.408 1.409-1.408 3.701 0 5.11 1.365 1.363 3.744 1.363 5.109 0l11.386-11.386c.683-.684 1.059-1.591 1.059-2.557-.001-.966-.378-1.874-1.062-2.556-.682-.681-1.588-1.056-2.551-1.056z" fill="#4c4372"/></g></g><g><g><path d="m92.561 208.428c-2.567 0-4.981-1-6.797-2.815-1.816-1.814-2.816-4.229-2.816-6.797s1-4.982 2.816-6.798l11.386-11.385c1.814-1.815 4.229-2.816 6.797-2.816 2.564 0 4.977.998 6.791 2.81 1.819 1.815 2.821 4.23 2.822 6.8s-.999 4.984-2.816 6.802l-11.385 11.385c-1.817 1.814-4.231 2.814-6.798 2.814zm11.385-24.612c-.965 0-1.872.376-2.554 1.059l-11.386 11.385c-.683.683-1.059 1.591-1.059 2.556s.376 1.872 1.059 2.554c1.365 1.366 3.745 1.364 5.11 0l11.385-11.385c.683-.684 1.059-1.591 1.059-2.557s-.377-1.873-1.061-2.556c-.683-.681-1.589-1.056-2.553-1.056z" fill="#4c4372"/></g></g><g><g><path d="m101.913 217.78c-2.568 0-4.982-1-6.798-2.816-3.747-3.748-3.747-9.847-.001-13.595l11.387-11.385c1.814-1.815 4.229-2.816 6.797-2.816 2.563 0 4.976.998 6.791 2.809 1.818 1.815 2.821 4.23 2.822 6.8s-.998 4.985-2.815 6.802l-11.386 11.386c-1.815 1.815-4.23 2.815-6.797 2.815zm11.385-24.612c-.965 0-1.872.376-2.554 1.059l-11.387 11.385c-1.408 1.409-1.408 3.701.001 5.11 1.362 1.364 3.743 1.366 5.109 0l11.386-11.386c.683-.683 1.059-1.591 1.058-2.557 0-.966-.377-1.873-1.061-2.556-.682-.68-1.588-1.055-2.552-1.055z" fill="#4c4372"/></g></g><g><g><path d="m111.265 227.132c-2.567 0-4.981-1-6.798-2.814-3.748-3.75-3.748-9.849 0-13.596l11.386-11.386c1.815-1.816 4.229-2.816 6.798-2.816 2.563 0 4.976.998 6.79 2.81 1.818 1.814 2.821 4.229 2.822 6.8.001 2.569-.998 4.985-2.815 6.802l-11.386 11.386c-1.816 1.814-4.23 2.814-6.797 2.814zm11.385-24.612c-.966 0-1.873.376-2.556 1.059l-11.386 11.386c-1.408 1.409-1.408 3.701.001 5.11 1.362 1.362 3.743 1.364 5.109 0l11.386-11.386c.683-.683 1.059-1.591 1.058-2.557 0-.966-.377-1.874-1.061-2.557-.681-.68-1.588-1.055-2.551-1.055z" fill="#4c4372"/></g></g><g><g><path d="m135.636 134.978-20.78 20.78c-2.583 2.583-6.77 2.583-9.352 0-2.583-2.583-2.583-6.77 0-9.353l11.561-11.561" fill="#fff"/></g></g><g><g><path d="m110.18 160.689c-2.461 0-4.923-.937-6.797-2.81-3.748-3.75-3.748-9.849 0-13.596l15.428-15.428c1.172-1.172 3.07-1.172 4.242 0 1.172 1.171 1.172 3.071 0 4.242l-15.428 15.428c-1.408 1.409-1.408 3.701.001 5.11 1.407 1.408 3.702 1.408 5.109-.001l11.121-11.121c1.17-1.172 3.07-1.172 4.242 0 1.172 1.171 1.172 3.07 0 4.242l-11.121 11.122c-1.873 1.876-4.335 2.812-6.797 2.812z" fill="#4c4372"/></g></g><g><g><path d="m193.746 153.303c-2.785 0-5.403-1.085-7.373-3.055l-30.269-30.27c-1.97-1.969-3.055-4.588-3.055-7.372 0-2.785 1.085-5.403 3.055-7.373l21.959-21.958c1.172-1.172 3.07-1.172 4.242 0l40.771 40.771c1.172 1.171 1.172 3.071 0 4.242l-21.959 21.959c-1.968 1.971-4.587 3.056-7.371 3.056zm-13.561-63.664-19.838 19.838c-.836.836-1.297 1.947-1.297 3.13 0 1.182.461 2.294 1.297 3.13l30.27 30.27c.836.836 1.947 1.297 3.13 1.297 1.182 0 2.294-.461 3.13-1.297l19.838-19.838z" fill="#4c4372"/></g></g><g><g><path d="m62.254 162.724c-2.784 0-5.403-1.085-7.372-3.055l-21.959-21.958c-.563-.563-.879-1.325-.879-2.121s.316-1.559.879-2.121l40.771-40.772c1.125-1.125 3.117-1.125 4.242 0l21.959 21.959c1.97 1.969 3.055 4.588 3.055 7.372 0 2.785-1.085 5.403-3.055 7.373l-30.27 30.269c-1.968 1.969-4.586 3.054-7.371 3.054zm-22.968-27.134 19.838 19.837c.836.836 1.948 1.297 3.13 1.297 1.183 0 2.294-.461 3.129-1.297l30.271-30.27c.836-.836 1.297-1.947 1.297-3.13 0-1.182-.461-2.294-1.297-3.13l-19.839-19.837z" fill="#4c4372"/></g></g><g><path d="m94.498 49.572v2.392c0 21.477 8.139 42.156 22.777 57.872l8.236 8.843 8.236-8.843c14.638-15.716 22.777-36.395 22.777-57.872v-2.392l-31.013-17.905z" fill="#a0d1f2"/></g><g><path d="m125.511 121.679c-.833 0-1.628-.346-2.195-.955l-8.236-8.843c-15.207-16.327-23.582-37.606-23.582-59.916v-2.393c0-1.072.572-2.063 1.5-2.598l31.013-17.905c.928-.537 2.072-.537 3 0l31.013 17.905c.928.535 1.5 1.525 1.5 2.598v2.393c0 22.311-8.375 43.589-23.581 59.916l-8.236 8.843c-.568.609-1.363.955-2.196.955zm-28.013-70.374v.66c0 20.788 7.803 40.614 21.972 55.826l6.041 6.486 6.041-6.486c14.169-15.212 21.972-35.038 21.972-55.826v-.66l-28.013-16.174z" fill="#4c4372"/></g><g><path d="m124.682 87.497c-.772 0-1.518-.298-2.078-.836l-14.69-14.104c-1.194-1.147-1.233-3.047-.086-4.242 1.147-1.196 3.047-1.232 4.242-.086l12.357 11.865 18.943-22.95c1.054-1.276 2.944-1.46 4.224-.403 1.277 1.055 1.458 2.945.403 4.224l-21.002 25.443c-.531.644-1.307 1.036-2.14 1.085-.058.002-.116.004-.173.004z" fill="#4c4372"/></g></g></svg>