<svg id="Flat" height="512" viewBox="0 0 512 512" width="512" xmlns="http://www.w3.org/2000/svg"><path d="m280 24h208v304h-208z" fill="#e9eef2"/><g fill="#d0d2d4"><path d="m456 64h-144a8 8 0 0 1 0-16h144a8 8 0 0 1 0 16z"/><path d="m456 96h-144a8 8 0 0 1 0-16h144a8 8 0 0 1 0 16z"/><path d="m368 128h-56a8 8 0 0 1 0-16h56a8 8 0 0 1 0 16z"/><path d="m368 160h-56a8 8 0 0 1 0-16h56a8 8 0 0 1 0 16z"/><path d="m368 192h-56a8 8 0 0 1 0-16h56a8 8 0 0 1 0 16z"/><path d="m400 120h56v64h-56z"/></g><path d="m472 488a15.947 15.947 0 0 1 -11.313-4.687l-168-168a16 16 0 1 1 22.627-22.626l168 168a16 16 0 0 1 -11.314 27.313z" fill="#d13330"/><path d="m248 24h-24a8 8 0 0 0 0 16h7.355l-19.2 24h-36.155a8 8 0 0 0 -5.657 2.343l-45.656 45.657h-68.687a8 8 0 0 0 -5.657 2.343l-32 32a8 8 0 0 0 11.314 11.314l29.656-29.657h68.687a8 8 0 0 0 5.657-2.343l45.656-45.657h36.687a8 8 0 0 0 6.247-3l17.753-22.194v1.194a8 8 0 0 0 16 0v-24a8 8 0 0 0 -8-8z" fill="#3dc285"/><circle cx="128" cy="120" fill="#35a872" r="16"/><circle cx="56" cy="120" fill="#35a872" r="16"/><path d="m88 168h32v80h-32z" fill="#2d85cc"/><path d="m24 176h32v72h-32z" fill="#2d85cc"/><circle cx="176" cy="72" fill="#35a872" r="16"/><path d="m216 96h32v152h-32z" fill="#2d85cc"/><path d="m216 376a80 80 0 0 1 -80 80v-80h-80a80 80 0 0 1 160 0z" fill="#2d85cc"/><path d="m216 376a80 80 0 0 1 -80 80v-80l-56.57-56.57a80 80 0 0 1 136.57 56.57z" fill="none"/><path d="m136 376h-80a79.789 79.789 0 0 1 23.43-56.57z" fill="#3dc285"/><path d="m104 408v80a80 80 0 0 1 -80-80z" fill="#d0d2d4"/><path d="m152 152h32v96h-32z" fill="#2d85cc"/><circle cx="296" cy="304" fill="#eb423f" r="120"/><circle cx="296" cy="304" fill="#e9eef2" r="88"/><path d="m296 368a64.072 64.072 0 0 1 -64-64 8 8 0 0 1 16 0 48.054 48.054 0 0 0 48 48 8 8 0 0 1 0 16z" fill="#d0d2d4"/></svg>