<svg id="Layer_1" enable-background="new 0 0 68 68" height="512" viewBox="0 0 68 68" width="512" xmlns="http://www.w3.org/2000/svg"><g><g><g><g><path d="m48.8887901 9.3106213v31.3712292c0 1.6533127-1.3378677 2.9913788-2.9913826 2.9913788h-40.9060254c-1.6535165-.0000001-2.9913821-1.3380662-2.9913821-2.9913789v-31.3712291z" fill="#fdc72e"/></g><g><path d="m48.8887901 9.3079166v-4.3097057c0-1.6533136-1.3378677-2.9913821-2.9913826-2.9913821l-40.9060254-.0081144c-1.6535165 0-2.9913821 1.3461829-2.9913821 2.9909764v4.3182259h46.8887901z" fill="#ed524e"/></g><g><g><g><path d="m12.6510525 5.6533155c0 .720633-.5767708 1.2974038-1.2974043 1.2974038-.7210732 0-1.2976246-.5767708-1.2976246-1.2974038 0-.7210736.5765514-1.2974043 1.2976246-1.2974043.7206335.0000001 1.2974043.5763307 1.2974043 1.2974043z" fill="#e9e9ff"/></g><g><path d="m8.073842 5.6533155c0 .720633-.5855694 1.2974038-1.2974043 1.2974038-.7208533 0-1.306643-.5767708-1.306643-1.2974038 0-.7210736.5857897-1.2974043 1.306643-1.2974043.711835.0000001 1.2974043.5763307 1.2974043 1.2974043z" fill="#e9e9ff"/></g><g><path d="m17.2370605 5.6533155c0 .720633-.5855694 1.2974038-1.3064222 1.2974038-.7118349 0-1.2974043-.5767708-1.2974043-1.2974038 0-.7210736.5855694-1.2974043 1.2974043-1.2974043.7208529.0000001 1.3064222.5763307 1.3064222 1.2974043z" fill="#e9e9ff"/></g></g><g><path d="m28.2560177 4.7182646c-.5130253 0-.935051.4153666-.935051.935051 0 .5193667.4220257.9350505.935051.9350505h16.221426c.5195236 0 .9415512-.4156837.9415512-.9350505 0-.5196843-.4220276-.935051-.9415512-.935051z" fill="#e9e9ff"/></g></g></g></g><g><path d="m66 31.6386757v31.3712273c0 1.6533127-1.3378677 2.9913864-2.9913826 2.9913864h-40.9060249c-1.6535149 0-2.9913807-1.3380737-2.9913807-2.9913864v-31.3712273z" fill="#e9e9ff"/></g><g><path d="m66 31.6359711v-4.3097057c0-1.6533127-1.3378677-2.9913807-2.9913826-2.9913807l-40.9060249-.0081158c-1.6535149 0-2.9913807 1.3461838-2.9913807 2.9909763v4.3182259z" fill="#70c1f9"/></g><g><g><g><path d="m29.7622643 27.9813709c0 .7206326-.5767708 1.2974033-1.2974052 1.2974033-.7210732 0-1.2976246-.5767708-1.2976246-1.2974033 0-.7210732.5765514-1.2974052 1.2976246-1.2974052.7206344 0 1.2974052.5763321 1.2974052 1.2974052z" fill="#e9e9ff"/></g><g><path d="m25.1850529 27.9813709c0 .7206326-.5855694 1.2974033-1.2974033 1.2974033-.7208538 0-1.3066425-.5767708-1.3066425-1.2974033 0-.7210732.5857887-1.2974052 1.3066425-1.2974052.7118339 0 1.2974033.5763321 1.2974033 1.2974052z" fill="#e9e9ff"/></g><g><path d="m34.3482704 27.9813709c0 .7206326-.5855675 1.2974033-1.3064194 1.2974033-.7118378 0-1.2974052-.5767708-1.2974052-1.2974033 0-.7210732.5855675-1.2974052 1.2974052-1.2974052.7208519 0 1.3064194.5763321 1.3064194 1.2974052z" fill="#e9e9ff"/></g></g><g><path d="m45.3672295 27.04632c-.5130272 0-.935051.4153671-.935051.935051 0 .5193672.4220238.935051.935051.935051h16.2214241c.5195274 0 .9415512-.4156837.9415512-.935051 0-.5196838-.4220238-.935051-.9415512-.935051z" fill="#e9e9ff"/></g></g><g><g><g><g><path d="m63.896759 17.6247616c-.4418945 0-.7998047-.3581543-.7998047-.8000488v-3.3088388c0-2.3916016-1.9462891-4.3371582-4.3378906-4.3371582h-4.4414063c-.4418945 0-.7998047-.3581543-.7998047-.8000488s.3579102-.8000488.7998047-.8000488h4.4414063c3.2739258 0 5.9375 2.6635742 5.9375 5.9372559v3.3088388c0 .4418944-.3579101.8000487-.7998047.8000487z" fill="#4f5d99"/></g></g><g><g><path d="m57.1716614 11.4011278c-.1713867 0-.3442383-.0549316-.4902344-.1682129l-2.8574219-2.2197266c-.1948242-.1513672-.309082-.3842773-.309082-.6308594-.0004883-.2468262.1132813-.4797363.3076172-.6315918l2.8574219-2.2299805c.3476563-.2712402.8510742-.2102051 1.1230469.1384277.2714844.3483887.2094727.8510742-.1386719 1.1228027l-2.0473633 1.5979004 2.0458984 1.5893555c.3491211.2709961.4121094.7736816.1411133 1.1225586-.1577148.2031251-.394043.3093263-.6323242.3093263z" fill="#4f5d99"/></g></g></g><g><g><g><path d="m15.5767517 61.8484802c-.0000095-.4419136-.3581696-.7998238-.8000612-.7998047l-3.3088207.0001297c-2.3915882.0000916-4.3371758-1.9461975-4.3372273-4.3378906l-.0000949-4.4415817c-.0000091-.4419098-.3581691-.7998199-.8000612-.7998009-.4418921.0000153-.8000369.3579521-.8000278.7998657l.0000949 4.4415779c.0000701 3.2740555 2.6636872 5.9376297 5.9373507 5.9375l3.3088207-.0001297c.4418916-.0000152.8000363-.3579559.8000268-.7998657z" fill="#4f5d99"/></g></g><g><g><path d="m9.3530092 55.1233635c-.0000038-.1713943-.0549393-.3442497-.1682224-.4902458l-2.2197762-2.8574486c-.1513705-.1948242-.3842816-.3090782-.6308627-.3090706-.2468247-.0004768-.4797311.113308-.6315818.3076553l-2.2299073 2.8576202c-.2712314.347683-.2101858.8511162.1384509 1.123085.3483927.2714806.8510742.2094498 1.1227937-.1387215l1.5978484-2.0475044 1.5893903 2.0459175c.2710023.3491211.7736869.4120941 1.1225562.1410713.2031202-.1577261.3093157-.3940695.3093109-.6323584z" fill="#4f5d99"/></g></g></g></g><g><g><g><g><g><path d="m43.0556908 48.3209686c-1.1268997-1.1269264-1.7470856-2.62537-1.7467575-4.2208862.0004845-1.5972252.6231842-3.100647 1.7533646-4.233345l3.5929642-3.6002007c2.3330841-2.3381157 6.1294327-2.3478622 8.4625397-.0216866.0020142.002018.0043411.0043411.0065117.0065155 1.1253471 1.12537 1.7451477 2.6235809 1.7454376 4.2200317-.0001717 1.5981522-.6224098 3.1017303-1.7518921 4.2340393l-3.593277 3.6002045c-2.3330803 2.3381119-6.1294289 2.3478622-8.4625359.0216827-.0020142-.002014-.0041848-.0041846-.0063553-.0063552zm10.3537368-10.3549766c-.0012398-.0012436-.0024834-.0024834-.0038757-.0038795-1.3865318-1.38237-3.6446953-1.3745842-5.0336609.0175247l-3.5930405 3.6002808c-.6736259.6748886-1.0446739 1.5700264-1.0449181 2.5207481-.0000877.9490128.3653564 1.8261566 1.0403633 2.5093956 1.386528 1.3823738 3.6446953 1.3745842 5.0336571-.0175209l3.5930443-3.5999718c.6729279-.6744995 1.0435905-1.5698738 1.0436783-2.5210571-.0000686-.9482422-.3677597-1.8380204-1.0352478-2.5055199z" fill="#ed524e"/></g></g><g><g><path d="m29.9881401 61.3885994c-1.1267433-1.12677-1.7470856-2.62537-1.7466812-4.2206535.0004845-1.5972252.6231861-3.100647 1.7534447-4.2334213l3.5928879-3.6001244c2.3330803-2.3381157 6.1294289-2.3478622 8.4625359-.0216866.0020142.002018.0043411.0043411.0065117.0065155 1.1253471 1.12537 1.7451477 2.6235809 1.7454414 4.2200317-.0000191 1.5979958-.6222572 3.1015778-1.7518959 4.2340393l-3.5931969 3.6001282c-2.3330803 2.3381119-6.1294289 2.3478622-8.4625359.0216827-.0020161-.0020179-.0043411-.004341-.0065117-.0065116zm10.3538132-10.354744c-.0012398-.0012436-.0024796-.0024834-.0038757-.0038795-1.386528-1.38237-3.6446953-1.3745842-5.0336571.0175247l-3.5929642 3.6002007c-.6736279.6748886-1.044754 1.5701065-1.04492 2.5207481-.0001659.9472351.3677616 1.8367805 1.0364895 2.5055237.0012398.0012398.0024796.0024796.0038757.0038757 1.386528 1.38237 3.6446953 1.3745842 5.0336571-.0175209l3.5929642-3.5998955c.673008-.6745796 1.0435905-1.5698738 1.0436783-2.5210571-.0000649-.9482422-.3677597-1.8380203-1.0352478-2.5055199z" fill="#fdc72e"/></g></g></g><g><g><path d="m39.2883568 53.0543938-.9662666-.9662895c-.2067146-.2067184-.2067108-.5418816.0000076-.7486038l6.7534866-6.7536888c.2067184-.2067261.5418739-.2067299.7485886-.0000114l.9662666.9662895c.2067146.2067184.2067108.5418816-.0000076.7486038l-6.7534866 6.7536888c-.2067185.206726-.541874.2067298-.7485886.0000114z" fill="#70c1f9"/></g></g></g><g><g><g><path d="m35.5014191 41.0158272 2.6685944 2.6684456c.0785027.0784988.0809746.2075615.0024719.2860641l-.4633522.463356c-.0785027.0785027-.210041.0785065-.2885437.0000076l-2.6685944-2.6684494c-.0785027-.0784988-.0760307-.2075615.0024719-.2860641l.4633522-.4633522c.0785027-.0785026.2050972-.0785065.2835999-.0000076z" fill="#4f5d99"/></g><g><g><path d="m32.3808823 44.8455315 3.7736702-.000164c.1110077-.0000038.2040024.0895042.2039871.2005196l-.0000839.6552467c-.0000153.1110115-.0930328.2040253-.2040443.2040291l-3.7736664.000164c-.1110115.0000038-.2005081-.0929985-.2004929-.2040138l.0000839-.6552467c.0000153-.1110154.0895348-.2005311.2005463-.2005349z" fill="#4f5d99"/></g><g><path d="m38.5817032 38.6446762-.0000496 3.7735786c-.0000038.1110077.0895081.2039948.2005272.2039757l.655262-.000103c.1110191-.0000191.2040291-.0930367.2040291-.2040443l.0000496-3.7735748c.0000038-.1110077-.0930061-.2005005-.2040253-.2004814l-.655262.000103c-.1110153.000019-.200531.0895385-.200531.2005462z" fill="#4f5d99"/></g></g></g><g><g><path d="m50.3604164 55.8747482-2.6684608-2.6685791c-.0784988-.0785027-.2075615-.0809746-.2860641-.0024719l-.4633522.4633522c-.0785027.0785065-.0785065.2100449-.0000076.2885437l2.6684647 2.6685829c.0784988.0785027.2075615.0760269.2860641-.0024757l.4633484-.4633522c.0785025-.0785027.0785064-.2050972.0000075-.2835999z" fill="#4f5d99"/></g><g><g><path d="m46.5307274 58.9953079.000145-3.7736702c.0000038-.1110115-.0895042-.2040062-.2005196-.2039909l-.6552467.0000916c-.1110115.0000153-.2040253.0930328-.2040291.2040405l-.0001411 3.7736702c-.0000038.1110115.0929985.2005081.2040138.2004929l.6552467-.0000916c.1110153-.0000115.2005272-.0895348.200531-.2005425z" fill="#4f5d99"/></g><g><path d="m52.7315483 52.7944489-3.7735748.0000725c-.1110077 0-.2039986-.0895081-.2039795-.2005272l.0000992-.655262c.0000191-.1110191.0930367-.2040291.2040443-.2040329l3.7735748-.0000687c.1110077-.0000038.2005005.0930061.2004814.2040215l-.000103.6552658c-.0000152.1110153-.0895347.200531-.2005424.200531z" fill="#4f5d99"/></g></g></g></g></g><g><g><path d="m45.4189949 12.7624025v.6364622c0 .2660427-.2184944.4845371-.4940491.4845371h-38.9611044c-.2755527 0-.4940467-.2184944-.4940467-.4845371v-.6364622c0-.2755527.2184939-.4940462.4940467-.4940462h38.9611053c.2755538 0 .4940482.2184935.4940482.4940462z" fill="#e9e9ff"/></g><g><path d="m45.4189949 16.8037891v.6364613c0 .2660427-.2184944.4845371-.4940491.4845371h-26.7833023c-.2755527 0-.4940472-.2184944-.4940472-.4845371v-.6364613c0-.2755527.2184944-.4940472.4940472-.4940472h26.7833023c.2755547.0000001.4940491.2184945.4940491.4940472z" fill="#e9e9ff"/></g><g><path d="m13.9838276 16.8037891v.6364613c0 .2660427-.2184944.4845371-.4940472.4845371h-7.525939c-.2755527 0-.4940467-.2184944-.4940467-.4845371v-.6364613c0-.2755527.2184939-.4940472.4940467-.4940472h7.525939c.2755528.0000001.4940472.2184945.4940472.4940472z" fill="#e9e9ff"/></g><g><path d="m13.9838276 24.7463017v.6364613c0 .2660427-.2184944.4845371-.4940472.4845371h-7.525939c-.2755527 0-.4940467-.2184944-.4940467-.4845371v-.6364613c0-.2755527.2184939-.4940472.4940467-.4940472h7.525939c.2755528 0 .4940472.2184944.4940472.4940472z" fill="#e9e9ff"/></g><g><path d="m45.4189949 20.8451748v.6364613c0 .2660427-.2184944.4845371-.4940491.4845371h-16.998209c-.2755527 0-.4940453-.2184944-.4940453-.4845371v-.6364613c0-.2755547.2184925-.4940472.4940453-.4940472h16.998209c.2755547 0 .4940491.2184925.4940491.4940472z" fill="#e9e9ff"/></g><g><path d="m23.4583893 20.8454399v.6364632c0 .2660427-.2184925.4845352-.4940453.4845352h-17.0005026c-.2755527 0-.4940467-.2184925-.4940467-.4845352v-.6364632c0-.2755527.2184939-.4940472.4940467-.4940472h17.0005026c.2755528 0 .4940453.2184945.4940453.4940472z" fill="#e9e9ff"/></g></g></g></svg>