<svg height="512pt" viewBox="0 0 512 512" width="512pt" xmlns="http://www.w3.org/2000/svg"><path d="m497.769531 395.148438h-483.539062c-7.859375 0-14.230469-6.371094-14.230469-14.234376v-366.683593c0-7.859375 6.371094-14.230469 14.230469-14.230469h483.535156c7.859375 0 14.230469 6.371094 14.230469 14.230469v366.683593c.003906 7.863282-6.367188 14.234376-14.226563 14.234376zm0 0" fill="#6770e6"/><path d="m497.769531 0h-483.539062c-7.859375 0-14.230469 6.371094-14.230469 14.230469v14c0-7.859375 6.371094-14.230469 14.230469-14.230469h483.539062c7.859375 0 14.230469 6.371094 14.230469 14.230469v-14c0-7.859375-6.371094-14.230469-14.230469-14.230469zm0 0" fill="#8f95e6"/><path d="m30 350.914062v-301.722656c0-10.597656 8.59375-19.191406 19.191406-19.191406h413.617188c10.597656 0 19.191406 8.59375 19.191406 19.191406v301.722656c0 7.863282-6.371094 14.234376-14.230469 14.234376h-423.539062c-7.859375 0-14.230469-6.371094-14.230469-14.234376zm0 0" fill="#ffefe4"/><path d="m89.304688 270.308594v94.839844h111.113281v-150.53125zm0 0" fill="#6770e6"/><path d="m200.417969 214.617188v150.53125h111.113281v-206.222657zm0 0" fill="#d476e2"/><path d="m311.53125 365.148438h111.109375v-261.917969l-111.109375 55.695312zm0 0" fill="#69ebfc"/><path d="m457.140625 98.839844c.050781-.269532.105469-.539063.144531-.808594.050782-.332031.082032-.671875.113282-1.007812.027343-.289063.058593-.578126.070312-.867188.011719-.316406.007812-.636719.007812-.957031 0-.304688.003907-.605469-.011718-.90625-.015625-.308594-.054688-.617188-.085938-.929688-.03125-.308593-.058594-.613281-.101562-.914062-.046875-.304688-.113282-.605469-.171875-.910157-.0625-.304687-.121094-.613281-.199219-.914062-.074219-.289062-.164062-.578125-.253906-.863281-.09375-.3125-.1875-.625-.300782-.933594-.097656-.269531-.207031-.53125-.316406-.796875-.136718-.320312-.269531-.640625-.417968-.953125-.050782-.101563-.085938-.207031-.136719-.308594-.082031-.160156-.175781-.304687-.261719-.460937-.15625-.292969-.320312-.585938-.492188-.867188-.164062-.269531-.332031-.535156-.507812-.792968-.164062-.246094-.335938-.488282-.511719-.722657-.203125-.273437-.410156-.535156-.621093-.792969-.179688-.210937-.363282-.421874-.546876-.625-.230468-.253906-.464843-.5-.703124-.738281-.203126-.199219-.40625-.390625-.617188-.578125-.242188-.21875-.488281-.433594-.742188-.640625-.230468-.1875-.464843-.367187-.707031-.542969-.25-.1875-.503906-.367187-.761719-.539062-.261718-.171875-.523437-.332031-.789062-.492188-.265625-.160156-.53125-.308593-.804688-.453124-.269531-.144532-.542968-.28125-.820312-.414063-.296875-.136719-.59375-.265625-.894531-.390625-.265625-.109375-.53125-.210938-.804688-.3125-.339843-.121094-.683593-.226562-1.03125-.332031-.15625-.046875-.300781-.105469-.457031-.148438l-72.859375-19.523437c-10.144531-2.71875-20.566406 3.300781-23.28125 13.445312-2.71875 10.140625 3.296875 20.566406 13.441406 23.285156l24.542969 6.574219-320.304688 160.546875c-9.386718 4.707032-13.183593 16.128906-8.476562 25.515625 3.332031 6.652344 10.042969 10.496094 17.011719 10.496094 2.863281 0 5.769531-.648437 8.503906-2.019531l327.183594-163.992188-8.566407 31.972656c-2.71875 10.140626 3.296876 20.566407 13.441407 23.285157 1.648437.441406 3.304687.652343 4.933593.652343 8.394532 0 16.074219-5.601562 18.351563-14.097656l19.523437-72.855468c.027344-.105469.039063-.207032.0625-.3125.089844-.347657.160157-.703126.226563-1.058594zm0 0" fill="#ff8354"/><path d="m196.277344 395.148438h121.894531v76.871093h-121.894531zm0 0" fill="#5861c7"/><path d="m375.808594 512h-236.601563c-11.039062 0-19.988281-8.949219-19.988281-19.988281 0-11.042969 8.949219-19.992188 19.988281-19.992188h236.601563c11.042968 0 19.992187 8.949219 19.992187 19.992188 0 11.039062-8.949219 19.988281-19.992187 19.988281zm0 0" fill="#6770e6"/><path d="m375.808594 498h-236.601563c-8.574219 0-15.863281-5.40625-18.703125-12.988281-.820312 2.179687-1.289062 4.53125-1.289062 7 0 11.039062 8.949218 19.988281 19.992187 19.988281h236.601563c11.039062 0 19.988281-8.949219 19.988281-19.988281 0-2.46875-.46875-4.820313-1.285156-7-2.835938 7.582031-10.128907 12.988281-18.703125 12.988281zm0 0" fill="#5861c7"/><path d="m504.929688 504.953125c-9.394532 9.394531-24.628907 9.394531-34.023438 0l-99.53125-99.53125 34.019531-34.023437 99.535157 99.539062c9.390624 9.390625 9.390624 24.621094 0 34.015625zm0 0" fill="#ff8354"/><path d="m437.761719 331.894531c0 58.484375-47.410157 105.894531-105.894531 105.894531-58.484376 0-105.894532-47.410156-105.894532-105.894531s47.410156-105.894531 105.894532-105.894531c58.484374 0 105.894531 47.410156 105.894531 105.894531zm0 0" fill="#ff8354"/><path d="m406.746094 331.894531c0 41.351563-33.523438 74.878907-74.878906 74.878907-41.351563 0-74.878907-33.527344-74.878907-74.878907 0-41.355469 33.527344-74.878906 74.878907-74.878906 41.355468 0 74.878906 33.523437 74.878906 74.878906zm0 0" fill="#a1f1fc"/><path d="m409.355469 443.398438 61.550781 61.554687c9.394531 9.394531 24.628906 9.394531 34.023438 0 9.390624-9.394531 9.390624-24.625 0-34.019531l-61.554688-61.554688zm0 0" fill="#6770e6"/><path d="m509.773438 477.945312c-1.160157 2.535157-2.757813 4.921876-4.84375 7.007813-4.683594 4.683594-10.816407 7.027344-16.957032 7.042969v.003906h-30.019531l12.953125 12.953125c9.394531 9.394531 24.628906 9.394531 34.023438 0 7.304687-7.304687 8.902343-18.132813 4.84375-27.007813zm0 0" fill="#5861c7"/><g fill="#d476e2"><path d="m116.40625 141.765625c-3.367188 0-6.585938-.484375-9.667969-1.429687-3.074219-.957032-5.890625-2.378907-8.453125-4.285157-2.566406-1.902343-4.792968-4.226562-6.695312-6.980469-.410156-.59375-.804688-1.210937-1.183594-1.847656-2.28125-3.886718-.378906-8.917968 3.816406-10.566406 3.382813-1.332031 7.308594-.074219 9.113282 3.082031.859374 1.503907 1.886718 2.859375 3.082031 4.070313 2.554687 2.589844 5.925781 3.894531 10.101562 3.894531 1.535157 0 3.019531-.207031 4.449219-.605469 1.429688-.402344 2.707031-.984375 3.84375-1.753906s2.027344-1.742188 2.691406-2.914062c.660156-1.167969.980469-2.53125.980469-4.066407 0-1.464843-.25-2.777343-.765625-3.949219-.511719-1.171874-1.367188-2.269531-2.574219-3.296874-1.207031-1.019532-2.789062-2.011719-4.730469-2.96875-1.9375-.949219-4.332031-1.929688-7.191406-2.957032l-4.828125-1.761718c-2.125-.730469-4.269531-1.714844-6.425781-2.96875-2.160156-1.242188-4.117188-2.742188-5.871094-4.496094-1.757812-1.757813-3.207031-3.824219-4.34375-6.210938-1.136718-2.378906-1.699218-5.066406-1.699218-8.070312 0-3.074219.597656-5.945313 1.808593-8.625 1.214844-2.664063 2.929688-5.011719 5.164063-7.023438 2.234375-2.007812 4.90625-3.582031 8.015625-4.71875 3.109375-1.132812 6.570312-1.707031 10.378906-1.707031 3.957031 0 7.371094.535156 10.269531 1.589844 2.894532 1.066406 5.34375 2.421875 7.355469 4.066406.738281.601563 1.792969 1.589844 2.890625 2.839844 3.210938 3.65625 1.867188 9.40625-2.621094 11.289062-2.890625 1.214844-6.195312.371094-8.230468-2.015625-.449219-.523437-.9375-1.027344-1.476563-1.511718-1.941406-1.761719-4.601563-2.636719-7.964844-2.636719-3.226562 0-5.898437.75-8.015625 2.25-2.128906 1.503906-3.191406 3.460937-3.191406 5.875 0 2.339843 1.027344 4.34375 3.074219 5.988281 2.054687 1.640625 5.308593 3.234375 9.777343 4.769531l4.941407 1.65625c3.148437 1.097657 6.027343 2.359375 8.625 3.789063 2.59375 1.421875 4.828125 3.128906 6.695312 5.101562 1.867188 1.976563 3.296875 4.230469 4.28125 6.757813.992188 2.519531 1.484375 5.433593 1.484375 8.730469 0 4.105468-.824218 7.632812-2.464844 10.589843-1.644531 2.96875-3.753906 5.410157-6.320312 7.3125-2.566406 1.902344-5.453125 3.324219-8.667969 4.28125-3.234375.949219-6.382812 1.433594-9.457031 1.433594zm0 0"/><path d="m168.425781 75.429688v18.222656h24.484375c3.882813 0 7.03125 3.148437 7.03125 7.03125 0 3.882812-3.148437 7.03125-7.03125 7.03125h-24.484375v18.230468h27.996094c3.882813 0 7.03125 3.148438 7.03125 7.03125 0 3.882813-3.148437 7.03125-7.03125 7.03125h-36.121094c-3.703125 0-6.703125-3-6.703125-6.703124v-65.234376c0-3.699218 3-6.699218 6.703125-6.699218h36.121094c3.882813 0 7.03125 3.148437 7.03125 7.027344 0 3.882812-3.148437 7.03125-7.03125 7.03125zm0 0"/><path d="m249.664062 141.765625c-5.855468 0-11.289062-1.066406-16.300781-3.191406-5.023437-2.117188-9.359375-5.03125-13.023437-8.730469-3.65625-3.695312-6.535156-8.054688-8.617188-13.066406-2.089844-5.015625-3.125-10.378906-3.125-16.089844s1.035156-11.074219 3.125-16.085938c2.082032-5.015624 4.960938-9.378906 8.617188-13.078124 3.664062-3.691407 8-6.601563 13.023437-8.722657 5.011719-2.125 10.445313-3.1875 16.300781-3.1875 5.863282 0 11.296876 1.0625 16.308594 3.1875 5.015625 2.121094 9.359375 5.035157 13.011719 8.722657 3.664063 3.699218 6.535156 8.0625 8.625 13.078124 2.082031 5.011719 3.128906 10.375 3.128906 16.085938s-1.046875 11.074219-3.128906 16.089844c-2.089844 5.011718-4.960937 9.375-8.625 13.066406-3.65625 3.699219-8 6.613281-13.011719 8.730469-5.011718 2.125-10.445312 3.191406-16.308594 3.191406zm0-14.0625c3.664063 0 7.089844-.660156 10.269532-1.976563 3.191406-1.320312 5.96875-3.152343 8.347656-5.496093 2.378906-2.339844 4.246094-5.171875 5.605469-8.507813 1.347656-3.332031 2.027343-7.003906 2.027343-11.035156 0-4.035156-.679687-7.707031-2.027343-11.039062-1.359375-3.335938-3.226563-6.167969-5.605469-8.507813-2.378906-2.34375-5.15625-4.175781-8.347656-5.496094-3.179688-1.316406-6.605469-1.976562-10.269532-1.976562-3.65625 0-7.078124.660156-10.269531 1.976562-3.183593 1.320313-5.960937 3.152344-8.339843 5.496094-2.382813 2.339844-4.253907 5.171875-5.601563 8.507813-1.359375 3.332031-2.027344 7.003906-2.027344 11.039062 0 4.03125.667969 7.703125 2.027344 11.035156 1.347656 3.335938 3.21875 6.167969 5.601563 8.507813 2.378906 2.34375 5.15625 4.175781 8.339843 5.496093 3.191407 1.316407 6.617188 1.976563 10.269531 1.976563zm0 0"/></g></svg>