<svg id="Layer_1" enable-background="new 0 0 68 68" height="512" viewBox="0 0 68 68" width="512" xmlns="http://www.w3.org/2000/svg"><g><g><g><g><g><g><g><path d="m54.0042343 8.3300781v51.3300781c0 3.5-2.8300781 6.3398438-6.3300781 6.3398438h-30.8299542c-3.500001 0-6.3399668-2.8398438-6.3399668-6.3398438v-51.3300781c0-3.5 2.8399658-6.3300781 6.3399668-6.3300781h30.8299541c3.5000001 0 6.3300782 2.8300781 6.3300782 6.3300781z" fill="#304056"/></g></g></g></g><g><g><g><g><path d="m17.3040409 58.8300781c-.9940052 0-1.7998056-.8058014-1.7998056-1.7998047v-47.0703125c0-.9886112.8014288-1.7900391 1.79004-1.7900391h29.91992c.9886131 0 1.7900391.8014278 1.7900391 1.7900391v47.0707359c0 .9896584-.8097191 1.7993813-1.7993813 1.7993813z" fill="#dbdbdb"/></g></g></g></g><g><g><g><g><path d="m37.2540321 62.8784485h-10c-.2763672 0-.5-.2236328-.5-.5s.2236328-.5.5-.5h10c.2763672 0 .5.2236328.5.5s-.2236328.5-.5.5z"/></g></g></g></g><g><g><g><g><path d="m37.673954 5.4199533h-6.875c-.2763672 0-.5-.2236328-.5-.5s.2236328-.5.5-.5h6.875c.2763672 0 .5.2236328.5.5s-.2236328.5-.5.5z"/></g></g></g></g><g><g><g><g><path d="m28.4659462 5.4199533h-1.6318359c-.2763672 0-.5-.2236328-.5-.5s.2236328-.5.5-.5h1.6318359c.2763672 0 .5.2236328.5.5s-.2236328.5-.5.5z"/></g></g></g></g></g></g><g><g><g><g><g><g><g><g><g><path d="m60.6505775 43.9453697c-.163517.4794083-.357296.9443054-.5789871 1.3939285-.1720886.3490257-.1324844.7651215.0901604 1.0842781l.9938202 1.4246216c.3010025.4314766.2494659 1.0166473-.1223106 1.3888741l-2.625267 2.6284332c-.3722382.3726883-.9582443.4245377-1.3901405.1230011l-1.4297714-.9982262c-.3182983-.222229-.7331314-.2623444-1.0818062-.0916862-.4463081.2184448-.9085426.4094315-1.384407.5714111-.3678246.125206-.6334839.4474411-.7016907.8299599l-.3069878 1.7216454c-.0923805.5180931-.542923.8954048-1.069191.8954048h-3.7156525c-.5269241 0-.9778328-.378231-1.0694962-.8971252l-.3045921-1.7242317c-.0676384-.3828773-.3331108-.7054901-.701004-.8312798-.4733543-.1618538-.9342194-.3525314-1.3795357-.570488-.3485451-.1705971-.7632179-.1306534-1.0815048.0913353l-1.4398308 1.0042114c-.431675.301075-1.0171013.2493095-1.3892517-.1228447l-2.6287956-2.6288376c-.3724747-.3724785-.4239578-.9585419-.1221275-1.390255l1.0061417-1.4390945c.2228203-.3186989.2627563-.7343063.0915756-1.0834656-.2176895-.4440193-.408123-.9027977-.5697708-1.3748398-.1257324-.3671684-.447731-.6321602-.8298378-.7001038l-1.731205-.3078232c-.5183372-.0921631-.8959274-.5428162-.8959274-1.0692825v-3.7103348c0-.5270195.3783646-.9779739.8973694-1.0695381l1.7277489-.3048096c.3830376-.0675735.7059784-.333149.831604-.7012558.161808-.4741249.3524742-.9339066.5704575-1.3786316.1709709-.3488197.1311188-.7639694-.0912209-1.0825157l-1.0076103-1.4435997c-.3014526-.4318924-.2495689-1.0178261.1230812-1.390028l2.6279984-2.624836c.3724327-.3719807.9580002-.4233437 1.3894997-.1218758l1.434742 1.0023785c.3189278.2228184.734726.2625446 1.0839272.0910244.4461517-.2191391.9082146-.4116974 1.3838882-.5745411.367321-.1257515.6321297-.4483013.6997643-.830616l.3042336-1.7196693c.091774-.5187683.5426254-.8968582 1.0694466-.8968582h3.7104111c.5266266 0 .9773712.3778191 1.0693588.8963509l.3033752 1.7101059c.0678749.382597.3331528.7053566.7009811.8306141.4803352.1635704.946949.3574219 1.3974991.5791492.3492432.1718674.7654114.1317806 1.0843925-.0912819l1.4240074-.9957924c.4317169-.3018932 1.0178337-.2504349 1.3903389.1220665l2.6245308 2.6244926c.3719444.3719368.4238853.956955.1232948 1.388607l-.9948082 1.4285431c-.2222404.3191414-.2617035.7349319-.0895462 1.0836487.2215385.4487305.4151955.9146233.5786209 1.3944702.1252251.3676758.4478531.6328583.8302765.7008095l1.7061119.3031502c.5183983.0921097.8960571.5427895.8960571 1.0693054v3.7112923c0 .5265465-.377697.9772415-.8961296 1.0693207l-1.7061539.3030396c-.3822558.067894-.7048266.3328438-.8301547.7002945z" fill="#488ff7"/></g></g></g></g><g><g><g><g><g><g><g><path d="m49.1828575 48.2916145c-4.5625305 0-8.2743912-3.7118607-8.2743912-8.274395s3.7118607-8.2747059 8.2743912-8.2747059c4.5631638 0 8.2750244 3.7121754 8.2750244 8.2747059s-3.7118606 8.274395-8.2750244 8.274395z" fill="#fff"/></g></g></g></g></g></g></g></g><g><g><g><g><g><path d="m45.7238922 39.8699074c-.2020569-.0792007-.4716187-.1597557-.8019295-.2394104-.2434616-.0558014-.4374161-.108902-.5769234-.1579552-.1255531-.0441017-.2308578-.1062012-.3127594-.1845055-.067955-.0652542-.1012573-.1498566-.1012573-.2592087 0-.1728096.0756035-.2988129.2371597-.3969154.1800079-.1089058.4212189-.164257.716877-.164257.3226624 0 .6399269.0535507.9364853.1557045.0576019.022953.1066551.0346527.1494064.0346527.1143036 0 .21241-.0445518.2835121-.1287041.0666008-.0783043.1003532-.1683083.1003532-.2673111 0-.1813583-.093605-.3150139-.2619095-.3753166-.3780136-.1399536-.8050804-.2106056-1.2694969-.2106056-.3546143 0-.6642265.061203-.9207382.1818047-.2614594.1228561-.4635162.292511-.6003227.5040207-.1368027.2119598-.2061081.4509163-.2061081.7101288 0 .3006096.0864029.5472183.257412.7317276.1611061.1746063.3555145.3069115.5787201.3942146.209259.0814514.4846687.1665039.8194809.2533569.244812.0643539.4351692.1201553.566124.1656075.1179047.0409508.2164574.096756.2943115.1660576.0625496.0558014.0918007.1201553.0918007.2034073 0 .2434578-.0972023.5674706-.935585.5674706-.4086151 0-.7960777-.0805511-1.1533928-.2398567-.1552544-.067955-.3415642-.0369034-.4554176.0855026-.0697517.0765038-.1066551.1714554-.1066551.2745094 0 .0810051.0247536.157505.0738029.2295074.0477028.0684052.1089058.1183548.1818085.1489563.4698181.2029572.9792366.3055611 1.5147591.3055611.3280602 0 .6228218-.0553513.877533-.1647034.2592087-.1116066.4644165-.2709122.6093216-.4725189.1476059-.2052078.2223091-.4396667.2223091-.6975288 0-.3105087-.0823517-.5643196-.2452583-.7533264-.1557084-.1800081-.3451654-.315014-.5634233-.4000665z"/></g></g></g></g><g><g><g><g><path d="m49.9900551 38.5351563c.1098022 0 .2052078-.0373497.283062-.1120529.0778503-.0747032.1188049-.1728058.1188049-.2835121 0-.1107025-.0405045-.2088089-.1170044-.2853088-.0769539-.0765038-.1755066-.1170044-.2848625-.1170044h-2.4606934c-.1147537 0-.2169075.0432014-.2956619.125103-.077404.0801048-.1183548.1827087-.1183548.2952118v3.7247925c0 .1138535.0414009.215107.1197052.2938614.0787544.0787506.1804581.1206055.2943115.1206055h2.4606934c.1098022 0 .2052078-.0378036.2826118-.1120567.0783005-.0742531.1192551-.1728058.1192551-.2839584 0-.1102562-.0405045-.2088089-.1170044-.2853127-.0769539-.0765038-.1755066-.1170044-.2848625-.1170044h-2.0403786v-1.0854416h1.8194199c.1098061 0 .2052078-.0377998.283062-.1125031.0778503-.0747032.1192551-.1728058.1192551-.2835121 0-.1098022-.0405045-.2088089-.1174545-.2853088-.0769539-.0765038-.1755066-.1170044-.2848625-.1170044h-1.8194199v-1.0795937h2.0403785z"/></g></g></g></g><g><g><g><g><path d="m55.0180969 38.8137169c-.1899071-.3550644-.4590187-.636322-.8010292-.8365822-.3415642-.2002563-.7438812-.3010597-1.1956978-.3010597-.4522667 0-.855484.1008034-1.1988449.3006096-.3447151.2007103-.6138229.4815178-.8005791.8343315-.1858597.3492165-.2839622.7542305-.292511 1.2087479.0085487.4491158.1066513.8541336.292511 1.2033463.1867561.3528137.4563141.6331749.8005791.8338814.3429146.1998062.7461281.3010597 1.1988449.3010597.4522667 0 .8545837-.1012535 1.1956978-.3015099.3420105-.1998062.6111221-.4815178.8010292-.836132.1876564-.3519135.2866592-.7555771.2952118-1.2060471-.0085525-.4450646-.1075554-.8487321-.2952118-1.2006455zm-1.996727 2.7464561c-.3033104 0-.5670204-.0675049-.7834778-.2002602-.216011-.1332016-.3838654-.3168106-.4981689-.5454178-.1165543-.2335587-.1755066-.5022202-.1755066-.7974319 0-.2961121.0589523-.5643196.1755066-.7974281.1143036-.2290611.2821579-.4126663.4981689-.5454216.2160072-.1332054.4797173-.2007103.7834778-.2007103.3001633 0 .562973.0675049.7807808.2011604.2178078.1327553.3865623.3159103.5008698.5449715.1165543.2331085.1755066.5013161.1755066.7974281 0 .2952118-.0589523.5638733-.1755066.7969818-.1161041.2322083-.279911.4104156-.5008698.5449715-.2182579.1332016-.4810676.2011566-.7807808.2011566z"/></g></g></g></g></g></g></g></g><g><g><g><g><g><g><g><g><path d="m24.4221745 27.2251415c-.1271629.3728199-.2778587.7343578-.4502602 1.0840187-.1338291.2714272-.1030331.5950127.0701122.843214l.7728691 1.1078873c.2340794.3355484.1940022.7906189-.0951195 1.0800896l-2.0415974 2.0440598c-.2894802.2898293-.7451992.3301506-1.0810719.0956535l-1.1118946-.7762947c-.2475319-.1728172-.570137-.2040176-.8412914-.0713005-.3470802.1698799-.7065487.3184052-1.0766144.4443741-.286047.0973663-.4926434.3479576-.5456848.6454315l-.2387352 1.3388786c-.0718441.4029083-.4222183.696331-.8314819.696331h-2.8895597c-.4097757 0-.7604332-.2941399-.8317175-.6976662l-.2368736-1.3408928c-.052599-.2977524-.2590504-.5486374-.5451517-.6464615-.3681135-.1258698-.7265158-.2741508-1.0728245-.4436531-.2710543-.1326675-.5935345-.1016045-.8410578.0710297l-1.1197147.7809487c-.3357038.2341385-.7909737.193882-1.0803823-.0955315l-2.0443439-2.0443745c-.2896628-.2896671-.329699-.7454319-.0949731-1.0811634l.7824488-1.1191444c.1732793-.2478447.2043376-.5710487.0712142-.8425827-.1692897-.3453007-.3173863-.7020817-.4430944-1.0691738-.0977802-.2855377-.3481884-.4916134-.6453428-.5444508l-1.3463092-.2393856c-.4030962-.0716724-.6967385-.4221325-.6967385-.8315525v-2.8854218c0-.4098492.2942431-.7605457.6978586-.8317509l1.3436232-.2370415c.2978773-.0525513.5490189-.2590828.6467156-.5453491.125834-.3687115.2741094-.7262726.4436274-1.0721245.1329598-.271265.1019688-.5941162-.0709376-.8418407l-.7835913-1.1226501c-.2344313-.3358688-.1940842-.7915325.095716-1.0809841l2.0437236-2.0412617c.289629-.2892799.7450075-.3292227 1.080574-.09478l1.1157598.7795229c.2480211.1732788.5713739.2041731.8429403.0707865.3469582-.1704178.7062912-.3201656 1.0762091-.446805.2856569-.0977926.4915915-.3486309.5441895-.6459465l.2365913-1.3373394c.071372-.4034309.4219856-.6974611.8316813-.6974611h2.8854828c.409544 0 .7600746.2938185.8316116.6970673l.2359257 1.3299017c.052784.2975349.2590847.5485363.5451355.6459455.3735428.1272039.736412.2779579 1.0867958.450387.271595.1336575.5952377.1024828.8433018-.0709867l1.1074104-.7743988c.3357334-.2347755.7915401-.1947575 1.0812283.0949268l2.0410233 2.0409946c.2892513.2892456.3296452.7441978.0958824 1.0798817l-.773632 1.110939c-.1728325.2481861-.2035217.5715351-.0696392.8427219.1722851.3489666.3228855.7112789.4499779 1.0844421.0973835.2859287.3482838.4921551.6456833.5449982l1.3267956.2357521c.4031429.0716324.6968403.4221134.6968403.8315697v2.8861694c0 .4094791-.293726.7599716-.6968956.8315811l-1.3268299.2356644c-.2972681.0527993-.5481226.2588445-.6455881.5446015z" fill="#488ff7"/></g></g></g></g><g><g><g><g><g><g><g><path d="m15.504076 29.8908081c-3.1543036 0-5.7204933-2.5661907-5.7204933-5.7204933s2.5661898-5.7207108 5.7204933-5.7207108c3.1547375 0 5.7209282 2.5664082 5.7209282 5.7207108s-2.5661907 5.7204933-5.7209282 5.7204933z" fill="#fff"/></g></g></g></g></g></g></g></g></g></g></g></g></g></svg>