<svg clip-rule="evenodd" fill-rule="evenodd" height="512" image-rendering="optimizeQuality" shape-rendering="geometricPrecision" text-rendering="geometricPrecision" viewBox="0 0 4335 4335" width="512" xmlns="http://www.w3.org/2000/svg"><g id="Layer_x0020_1"><g id="_355199976"><g><path d="m4260 3264v-2543h-1807-2379v2543c0 58 47 105 105 105h3977c57 0 104-47 104-105z" fill="#f5f5f5"/><path d="m4114 3460h-3894c-121 0-220-99-220-221v-2549c0-33 26-60 59-60h4216c33 0 60 27 60 60v2549c0 122-99 221-221 221zm-3996-2711v2490c0 56 46 102 102 102h3894c56 0 102-46 102-102v-2490z" fill="#64798a"/><path d="m2380 749-235-446c-9-18-9-41 2-58 11-18 30-29 51-29h1841c163 0 296 133 296 296v237z" fill="#2a3e4d"/><path d="m0 749v-307c0-201 164-365 366-365h1758c22 0 43 12 53 31l323 613c4 9 6 19 6 28z" fill="#3a556a"/><g fill="#2a3e4d"><path d="m514 616c-96 0-174-78-174-174s78-174 174-174 174 78 174 174-78 174-174 174z"/><path d="m946 616c-96 0-174-78-174-174s78-174 174-174 174 78 174 174-78 174-174 174z"/><path d="m1378 616c-96 0-174-78-174-174s78-174 174-174 174 78 174 174-78 174-174 174z"/></g><path d="m514 558c-64 0-116-52-116-116s52-116 116-116 116 52 116 116-52 116-116 116z" fill="#fcd462"/><path d="m946 558c-64 0-116-52-116-116s52-116 116-116 116 52 116 116-52 116-116 116z" fill="#27a2db"/><path d="m1378 558c-64 0-116-52-116-116s52-116 116-116 116 52 116 116-52 116-116 116z" fill="#44c4a1"/></g><path d="m1171 2854c-33 0-60-26-60-59v-595h-111c-95 0-175-54-212-141-36-87-17-182 50-249l343-343c89-89 234-89 323 0l343 343c66 67 85 162 49 249s-117 141-211 141h-112v448c0 33-27 59-59 59-16 0-30-6-41-16l-244 104c1 33-26 59-58 59z" fill="#ef5350"/><path d="m3163 2941c-2 0-3 0-5-1-33-2-57-31-54-64 0-3 0-7 0-10v-7l-262-305c-7 3-15 4-22 4-33 0-60-26-60-59v-743h-112c-94 0-175-53-211-141-36-87-17-182 50-249l342-343c90-89 235-89 324 0l342 343c67 67 86 162 50 249-36 88-117 141-211 141h-112v1110c0 7 0 14-1 20-1 31-27 55-58 55z" fill="#44c4a1"/><path d="m3323 4258h-2311c-342 0-620-278-620-619 0-321 251-590 566-617 80-258 317-434 592-434 109 0 214 28 308 81 148-195 378-311 626-311 388 0 718 287 778 665 20-3 40-3 60-3 342 0 619 278 619 619s-277 619-618 619z" fill="#6cbff8"/><g fill="#f5f5f5"><path d="m1468 3972c-136 0-246-111-246-247 0-33 26-59 59-59s59 26 59 59c0 71 58 128 128 128 71 0 129-57 129-128s-58-128-129-128c-135 0-246-111-246-247 0-135 111-246 246-246 136 0 247 110 247 246 0 33-26 60-59 60s-60-27-60-60c0-70-57-128-128-128-70 0-128 58-128 128 0 71 58 128 128 128 136 0 247 111 247 247s-111 247-247 247z"/><path d="m2295 3972h-388c-33 0-59-27-59-60v-749c0-33 26-59 59-59h388c32 0 59 26 59 59s-27 59-59 59h-329v631h329c32 0 59 26 59 59s-27 60-59 60z"/><path d="m2295 3597h-388c-33 0-59-27-59-59 0-33 26-60 59-60h388c32 0 59 27 59 60 0 32-27 59-59 59z"/><path d="m2800 3972c-173 0-313-141-313-314v-241c0-173 140-313 313-313 172 0 313 140 313 313v241c0 173-141 314-313 314zm0-750c-107 0-195 87-195 195v241c0 108 88 195 195 195s195-87 195-195v-241c0-108-88-195-195-195z"/></g></g></g></svg>