<svg id="color" enable-background="new 0 0 24 24" height="512" viewBox="0 0 24 24" width="512" xmlns="http://www.w3.org/2000/svg"><path d="m21 1h-18c-1.654 0-3 1.346-3 3v16c0 1.654 1.346 3 3 3h18c1.654 0 3-1.346 3-3v-16c0-1.654-1.346-3-3-3z" fill="#607d8b"/><path d="m21 21h-18c-.551 0-1-.448-1-1v-14h20v14c0 .552-.449 1-1 1z" fill="#fff"/><path d="m12 1h-9c-1.654 0-3 1.346-3 3v16c0 1.654 1.346 3 3 3h9v-2h-9c-.551 0-1-.448-1-1v-14h10z" fill="#546d79"/><path d="m12 6h-10v14c0 .552.449 1 1 1h9z" fill="#dedede"/><g fill="#2196f3"><circle cx="3.75" cy="16.25" r=".75"/><path d="m20.25 17h-2c-.965 0-1.75-.785-1.75-1.75v-2.5c0-.965.785-1.75 1.75-1.75h2c.414 0 .75.336.75.75s-.336.75-.75.75h-2c-.138 0-.25.112-.25.25v.5h2.25c.414 0 .75.336.75.75v2.25c0 .414-.336.75-.75.75zm-2.25-2.25v.5c0 .138.112.25.25.25h1.25v-.75z"/><path d="m8.25 17h-.5c-.965 0-1.75-.785-1.75-1.75v-2.5c0-.965.785-1.75 1.75-1.75h.5c.965 0 1.75.785 1.75 1.75v2.5c0 .965-.785 1.75-1.75 1.75zm-.5-4.5c-.138 0-.25.112-.25.25v2.5c0 .138.112.25.25.25h.5c.138 0 .25-.112.25-.25v-2.5c0-.138-.112-.25-.25-.25z"/><path d="m11.75 17c-.414 0-.75-.336-.75-.75v-4.5c0-.414.336-.75.75-.75h1.625c1.172 0 2.125.953 2.125 2.125s-.953 2.125-2.125 2.125h-.875v1c0 .414-.336.75-.75.75zm.75-3.25h.875c.345 0 .625-.28.625-.625s-.28-.625-.625-.625h-.875z"/><path d="m13.53 13.97 1.75 1.75c.293.293.293.768 0 1.061s-.768.293-1.061 0l-1.75-1.75c-.292-.294.915-1.208 1.061-1.061z"/></g><path d="m18.25 15.5c-.138 0-.25-.112-.25-.25v-.5h1.5v.75zm2.749-1.546h-4.499v1.296c0 .965.785 1.75 1.75 1.75h2c.414 0 .75-.336.75-.75v-2.25c0-.015 0-.031-.001-.046z" fill="#1d83d4"/><path d="m10 13.954h-1.5v1.296c0 .138-.112.25-.25.25h-.5c-.138 0-.25-.112-.25-.25v-1.296h-1.5v1.296c0 .965.785 1.75 1.75 1.75h.5c.965 0 1.75-.785 1.75-1.75z" fill="#1d83d4"/><path d="m13.476 13.954h-2.476v2.296c0 .414.336.75.75.75s.75-.336.75-.75v-1h.189l-.22-.22c-.269-.269.731-1.064 1.007-1.076zm1.856 0h-1.844c.018.001.033.006.042.016l.962.962c.372-.23.667-.572.84-.978z" fill="#1d83d4"/><path d="m13.488 13.954h-.012c-.276.012-1.276.807-1.006 1.076l.22.22 1.53 1.53c.146.146.338.22.53.22s.384-.073.53-.22c.293-.293.293-.768 0-1.061l-.788-.788-.962-.961c-.009-.01-.024-.015-.042-.016z" fill="#1d83d4"/></svg>