<svg id="Layer_1" enable-background="new 0 0 53 53" height="512" viewBox="0 0 53 53" width="512" xmlns="http://www.w3.org/2000/svg"><g id="_x31_44"><g><g><g><path d="m46.7803497 19.3963776v26.1099854h-40.5599961v-26.1099854c0-1.6568546 1.3431454-3 2.9999995-3h34.5599976c1.6568556 0 2.999999 1.3431453 2.999999 3z" fill="#474646"/></g></g><g><g><path d="m46.7761497 19.3985691v26.1099873h-40.5600605v-1.7700195h35.7900391c1.6599121 0 3-1.3399658 3-3v-23.1099873c0-.3699951-.0700684-.7199707-.1899414-1.039978 1.1499043.4199829 1.9599628 1.5199584 1.9599628 2.8099975z" fill="#2d2c2c"/></g></g><g><g><path d="m9.6203861 41.1062737v-20.3100605c0-.5522842.4477158-1 1-1h31.7602558c.5522842 0 1 .4477158 1 1v20.3100605c0 .5522842-.4477158 1-1 1h-31.7602558c-.5522842 0-1-.4477158-1-1z" fill="#e4e3ff"/></g></g><g><g><path d="m43.3761253 20.7985325v.3900146h-31.3599872c-.5500488 0-1 .4500122-1 1v19.9199849h-.4000244c-.5499268 0-1-.4499512-1-1v-20.3099995c0-.5499878.4500732-1 1-1h31.7600117c.5599365 0 .9999999.4500122.9999999 1z" fill="#d0d0f7"/></g></g><g><g><path d="m50.3950424 46.9991035-.6453629 1.4101257c-.5855522 1.2906532-1.8642426 2.1271133-3.2863312 2.1271133h-39.9406299c-1.4101987 0-2.7007775-.8364601-3.2863302-2.1271133l-.6334002-1.4101257c-.3465323-.7648354.2150965-1.6491432 1.0635931-1.6491432h45.6648674c.8484946 0 1.4101248.8843079 1.0635939 1.6491432z" fill="#474646"/></g></g><g><g><path d="m50.3961449 46.9985466-.6500244 1.4100342c-.5800781 1.289978-1.8599854 2.1300049-3.2800293 2.1300049h-39.9399434c-1.3300781 0-2.5600586-.75-3.1700439-1.9200439.5100098.2900391 1.0899658.4400024 1.6900635.4400024h39.9399414c1.4299316 0 2.6999512-.8299561 3.2900391-2.1199951l.6499023-1.4099731c.0300293-.0599976.0500488-.1199951.0600586-.1799927h.3500977c.8398456-.0000001 1.409914.8899535 1.0599384 1.6499633z" fill="#2d2c2c"/></g></g><g><g><path d="m31.2986088 47.3968811c0 .5068016-.4102726.9170761-.9169769.9170761h-7.7710266c-.5067043 0-.9169769-.4102745-.9169769-.9170761s.4102726-.9170761.9169769-.9170761h7.7710266c.5067043 0 .9169769.4102745.9169769.9170761z" fill="#d0d0f7"/></g></g></g><g><g><g><path d="m37.3092499 19.6819515c-.2028503.6684952-.461216 1.3099709-.7772293 1.9200459-.1970406.3803959-.1872139.8326893.0571709 1.1845455l.5771065.8308964c.2820625.4061089.2791328.9585094-.0354156 1.3400135-.6370468.772646-1.3566093 1.4765263-2.1476746 2.0950642-.3870201.3026161-.9356308.2928104-1.3338547.0050926l-.7044106-.5089397c-.3600731-.2601528-.8306198-.2693901-1.2219353-.0591431-.5808125.3120594-1.1934109.5692196-1.8297234.7735176-.4104767.1317883-.7228851.4650993-.7943726.8902454l-.1358814.8081036c-.0853443.5075607-.5037212.8856583-1.0156021.9393368-.4803181.0503693-.9670258.07798-1.4576626.07798-.4858093 0-.963871-.0232162-1.4341869-.0720234-.5128098-.053215-.9321785-.4316521-1.0176697-.9400787l-.1367569-.8133183c-.0714874-.4251461-.3838959-.7584572-.7943726-.8902454-.6363258-.2042999-1.2489376-.4614658-1.8297825-.7735329-.3913155-.2102394-.8618603-.2009926-1.2219276.059164l-.7047977.5092354c-.3980122.2875729-.9460716.2973785-1.3332386-.0046349-.7933655-.6188755-1.5171642-1.3232136-2.1520472-2.0964012-.3128939-.3810558-.3141508-.9320793-.0328817-1.3370419l.580719-.8360977c.2433681-.3503933.2553101-.8009167.0599689-1.1801853-.3146954-.611002-.5766401-1.2535076-.7814751-1.9231167-.1272993-.4161453-.4611712-.735054-.8900547-.8088207l-1.0568504-.1817741c-.5065536-.0871258-.8826742-.5057468-.9358559-1.0169811-.0490313-.4713345-.0723505-.9504509-.0723505-1.4373493 0-.4917784.0277576-.9795637.0783472-1.4609365.053628-.5102978.4294291-.9279146.935112-1.0148907l1.0479078-.1802368c.4307871-.0740948.7641926-.3956509.8911314-.8139257.20292-.6686382.4678841-1.3102236.7840118-1.9204102.1959057-.3781357.1845951-.8279705-.0571918-1.1785488l-.581212-.8427296c-.2771511-.4018564-.2775984-.9467673.0289316-1.3266897.6297321-.780508 1.3497162-1.4882598 2.1432438-2.1093054.3869514-.3028426.9357758-.2929831 1.3340664-.0052171l.7094059.5125484c.3574448.2582541.8249226.2708549 1.2142372.0637407.5883255-.3129878 1.2061367-.5751266 1.8472614-.7822828.4079762-.1318226.7189865-.4622254.7918873-.8847275l.141985-.8228907c.0873375-.5061693.5058861-.8819883 1.0167675-.9352379.4704151-.0490317.9470959-.0723519 1.4276676-.0723519.4880047 0 .972126.0234296 1.4475288.0726972.51124.0529819.9300461.4287252 1.0174522.9352181l.1419563.8225887c.0729103.4224892.3839149.7528791.7918816.8846979.6413784.2072368 1.2594242.4694991 1.8479595.7826486.3889523.2069559.8559704.194592 1.2133465-.0630889l.7002144-.5048852c.3979149-.286912.9454689-.2964067 1.3323097.0052719.7934837.618803 1.5142441 1.3214593 2.1483612 2.0996151.3096733.3800163.3108177.9276147.0325089 1.3311667l-.5768355.8364181c-.2427788.3520374-.2519722.8036232-.0543709 1.182869.3174515.6092758.5788269 1.2498474.7797852 1.9173899.1261864.4191771.4603767.7414303.8917999.8156338l1.0466728.1800241c.5056839.0869761.881485.5045929.935112 1.0148907.0505905.4813728.0783463.9691582.0783463 1.4609365 0 .4868984-.0233192.9660149-.0723495 1.4373493-.0531807.5112343-.4293022.9298553-.9358559 1.0169811l-1.0555992.1815605c-.4295274.0738774-.7641831.3934937-.8907395.8105526z" fill="#fc6559"/></g></g><g opacity=".3"><g><g><path d="m21.0900669 7.9591937c-.2763672 0-.5-.2236328-.5-.5s.2236328-.5.5-.5c.2758789 0 .5537109-.0703125.8027344-.2026367.5615234-.2983398 1.1552734-.550293 1.765625-.7480469.5947266-.1918945 1.027832-.6801758 1.1308594-1.2749023l.1416016-.8232424c.0463867-.2719727.3085938-.4550781.5771484-.4082031.2724609.046875.4550781.3051758.4082031.5771487l-.1416016.8242188c-.1665039.9624023-.8598633 1.75-1.8081055 2.0561523-.5546875.1796875-1.0942383.4086914-1.6040039.6796875-.3935546.2094725-.833496.3198241-1.2724609.3198241z" fill="#fff"/></g></g></g><g opacity=".3"><g><g><path d="m15.6950483 18.3864403c-.0283203 0-.0566406-.0024414-.0854492-.0073242l-1.0566406-.1821289c-.2832031-.0483398-.4941406-.2802734-.5239258-.5776367-.0458984-.4433594-.0693359-.909668-.0693359-1.3837891 0-.4594736.0253906-.9335947.0761719-1.4086924.0292969-.2939453.2397461-.5263672.5234375-.574707l1.0463867-.1801758c.6069326-.1040039 1.0991201-.5488281 1.2851553-1.1611328.1894531-.6235352.4414063-1.2407227.7495117-1.8354492.1274414-.2451172.4291992-.3398438.6738281-.2138672.2451172.1269531.3408203.4287109.2138672.6738281-.2797852.5405273-.5087891 1.1010742-.6801758 1.6655273-.2963867.9775391-1.0908203 1.6884766-2.072753 1.8564453l-.7695313.1328125c-.0307617.3544922-.0458984.7045898-.0458984 1.0454111 0 .3486328.0136719.6918945.0405273 1.0239258l.7792969.1342773c.2719717.046875.4545889.3056641.4077139.5776367-.0419921.2431642-.2534169.4150392-.4921865.4150392zm-.6713867-.8701172c0 .0004883 0 .0009766.0004883.0014648-.0004883-.0004882-.0004883-.0009765-.0004883-.0014648zm-.3017578-.3046875h.0014648c-.0004882 0-.0009765 0-.0014648 0zm.3085938-2.2822275c0 .0009766-.0004883.0024414-.0004883.003418 0-.0009766.0004883-.0024415.0004883-.003418z" fill="#fff"/></g></g></g><g><g><path d="m19.4895306 25.716711c.4799805.2600098.9799805.4800415 1.5.6600342-.3200073-.0800171-.6599731-.0300293-.9299927.1699829l-.710022.5100098c-.3999634.289978-.9500122.2999878-1.3299561 0-.25-.2000122-.5-.4000244-.7400513-.6199951.1000366-.0400391.2000122-.0900269.2900391-.1500244l.7000122-.5100098c.3599854-.2600098.8299561-.2699585 1.2199708-.0599976z" fill="#f05543"/></g></g><g><g><path d="m27.1695232 2.6967528c-.0100098-.0800171-.0299683-.1500244-.0700073-.2200317.2800293.0100098.5599976.0300293.8400269.0599976.5100098.0499878.9299927.4299927 1.0199585.9299927l.1400146.8300169c.0400391.2600098.1799927.4899902.3800049.6599731-.4400024-.2199707-.8999634-.3999634-1.3800049-.5499878-.3999634-.1300049-.7199707-.4699705-.789978-.8900144z" fill="#f05543"/></g></g><g><g><path d="m31.8595257 26.2867184c.0499878.039978.0999756.0700073.1600323.0900269-.1000347.0199585-.2000103.0599976-.3000469.1099854-.5799561.3099976-1.1900024.5700073-1.8299561.7799683-.4100342.1300049-.7200317.460022-.7900391.8900146l-.1400146.7999878c-.0799561.5100098-.5.8900146-1.0099487.9400024-.4800415.0500488-.9700317.0800171-1.460022.0800171s-.960022-.0200195-1.4299927-.0700073c-.4400024-.039978-.8099976-.3200073-.9500122-.7199707.2000122.0199585.4000244.0199585.5999756.0199585.4900513 0 .9700317-.0299683 1.4500122-.0799561.5100098-.0500488.9299927-.4299927 1.0200195-.9400024l.1300049-.8099976c.0800171-.4200439.3900146-.75.7999878-.8900146.6300049-.2000122 1.25-.460022 1.8300171-.7700195.3900146-.2099609.8599854-.2000122 1.2199707.0599976z" fill="#f05543"/></g></g><g><g><path d="m33.9295311 5.2467403c.3499756-.1300049.75-.0800171 1.0499878.1499634.7999878.6199951 1.5200195 1.3200073 2.1500244 2.1000366.3099976.3800049.3099976.9299927.0299683 1.3299561l-.5700073.8400269c-.25.3499756-.2599487.7999878-.0599976 1.1799927.3200073.6099854.5800171 1.25.7800293 1.9199829.0200195.0800171.0499878.1500244.0899658.210022l-.9799805-.1699829c-.4299927-.0700073-.7700195-.4000244-.8900146-.8200073-.1999512-.6600342-.4699707-1.2999878-.7799683-1.9100342-.2000122-.3799438-.1900024-.8299561.0499878-1.1900024l.5800171-.8299561c.2799683-.4100342.2799683-.9500122-.0300293-1.3300171-.4400024-.5299684-.9099731-1.0299684-1.4199829-1.4799806z" fill="#f05543"/></g></g><g><g><path d="m40.2595482 16.2367306c0 .4899902-.0200195.960022-.0700073 1.4400024-.0499878.5100098-.4299927.9299927-.9299927 1.0100098l-1.0599976.1799927c-.4299927.0800171-.7600098.3999634-.8900146.8200073-.2000122.6599731-.460022 1.3099976-.7800293 1.9199829-.1900024.3800049-.1799927.8300171.0599976 1.1799927l.5800171.8300171c.2800293.4099731.2800293.9599609-.039978 1.3399658-.6400146.7700195-1.3599854 1.4800415-2.1500244 2.1000366-.3800049.2999878-.9299927.289978-1.3300171 0l-.6999512-.5100098c-.0400391-.0300293-.0800171-.0599976-.1300049-.0800171.1300049-.039978.2600098-.0999756.3800049-.1900024.789978-.6199951 1.5099487-1.3200073 2.1499634-2.0899658.3099976-.3800049.3099976-.9400024.0300293-1.3400269l-.5800171-.8300171c-.2399902-.3499756-.25-.8099976-.0499878-1.1900024.3099976-.6099854.5700073-1.25.7700195-1.9199829.1299438-.4099731.4699707-.7299805.8999634-.8099976l1.0499878-.1799927c.5100098-.0900269.8800049-.5100098.9400024-1.0200195.0499878-.4699707.0700073-.9499512.0700073-1.4299927 0-.5-.0299683-.9799805-.0800171-1.4599609-.0099487-.1500244-.0599976-.2900391-.1199951-.4200439l.9700317.1700439c.5100098.0899658.8800049.5099487.9400024 1.0199585.0499879.4800415.0700074.9700317.0700074 1.460022z" fill="#f05543"/></g></g><g><g><path d="m32.8195457 16.2266331c0 3.4868641-2.8396168 6.3133411-6.3264809 6.3133411s-6.313343-2.8264771-6.313343-6.3133411c0-3.5000057 2.826479-6.3264828 6.313343-6.3264828s6.3264809 2.826477 6.3264809 6.3264828z" fill="#fff"/></g></g><g><g><path d="m31.4887962 12.3483839c-1.0715256-.8343353-2.4129925-1.3250914-3.8771229-1.3250914-3.48452 0-6.3146324 2.8219738-6.3146324 6.3228188 0 1.4559937.490757 2.797411 1.3250923 3.8689365-1.4886932-1.1533031-2.445694-2.9610138-2.445694-4.9895382 0-3.5008459 2.8301125-6.3228188 6.3146305-6.3228188 2.0285264.0000001 3.8444253.9569999 4.9977265 2.4456931z" fill="#e4e3ff"/></g></g></g><g><g><g><g><path d="m21.1380577 36.6064186c.3206921.3591347.474617.8465881.474617 1.4495277 0 .4874573-.1410847.9363937-.4234123 1.3340454-.2821712.3848152-.6670628.6926651-1.167202.897953-.474617.2052078-1.039114.3206902-1.6548157.3206902-1.0134315 0-1.9755058-.1924477-2.8605366-.5772591-.1410856-.0641251-.26933-.1667671-.359211-.3078499-.1025648-.1410866-.1539259-.2950134-.1539259-.4617767 0-.2052879.0768843-.3976555.2181263-.5515785.2308102-.2437286.6028614-.320694.9235525-.1796074.6542206.2950096 1.3726444.4489365 2.1294308.4489365 1.6803379 0 1.6803379-.7311859 1.6803379-1.000515 0-.1411629-.0513592-.2437286-.1539249-.3335304-.1410847-.1154823-.3206902-.2180481-.5259762-.2950096-.2436504-.0898056-.6028614-.1924477-1.0517979-.30793-.6285419-.1667671-1.1416779-.3206902-1.5394096-.474617-.4230995-.1667671-.7951508-.4232559-1.1030016-.7567863-.3335304-.3463707-.500453-.8209877-.500453-1.3982468 0-.5002975.141242-.9620705.3977318-1.359726.2564907-.4104919.6542225-.7311859 1.1545181-.9749146.4874573-.2180462 1.0646381-.3462906 1.7445393-.3462906.8721924 0 1.6676559.1410847 2.3859215.4104156.3335323.1154823.5259781.3848915.5259781.7568626 0 .1924477-.0642014.3719749-.1924458.5387421-.205286.2308846-.4617767.359211-.8851891.1924438-1.0389576-.359211-2.3472443-.4104919-3.0271454.0128403-.2821712.1667671-.4105721.3848152-.4105721.6798248 0 .1924438.0513592.3335304.1667652.4361725.1410847.1410866.3335304.2565689.564497.3335304.2436504.0898056.6028614.1923676 1.0646362.2950134.6285419.153923 1.1159992.2950096 1.5008907.4489326.4232561.1667674.7823107.4233363 1.0774767.769707z" fill="#00d67f"/></g></g><g><g><path d="m15.5709085 35.8111115c-.0770407-.0769615-.1540813-.1667671-.205286-.2694092.1924467.1539268.4232559.2822495.6542215.3719749.3975754.1540031.9107132.3079262 1.5392551.4746933.4489346.115406.8081455.2180481 1.051796.3078499.2054424.0769653.3848915.1795273.5261345.2950096.1024075.0898056.1537685.1924477.1537685.3335342v.0384407c-.0128403 0-.0128403-.0127602-.0256805-.0127602-.2436504-.0898056-.6028614-.1924477-1.0517979-.30793-.6285419-.1667671-1.1416779-.3206902-1.5394096-.474617-.4230995-.166767-.7951507-.4232558-1.1030016-.7567862z" fill="#00c179"/></g></g><g><g><path d="m16.2763348 34.1050148c-.1154041-.1026421-.1667652-.2437286-.1667652-.4361763 0-.2950096.1284008-.5130577.4105721-.679821.6799011-.423336 1.9881897-.3719749 3.0273018-.0128403.4232559.1667633.6797466.0385208.8850327-.1924477.1282444-.166687.1924458-.3462906.1924458-.5387383 0-.051281 0-.115406-.0256805-.1539268.0513611.0128403.1027222.0385208.1539249.0512848.3335323.1154823.5259781.3848915.5259781.7568626 0 .1924477-.0642014.3719749-.1924458.5387421-.205286.2308846-.4617767.359211-.8851891.1924438-1.0389576-.359211-2.3472443-.4104919-3.0271454.0128403-.2821712.1667671-.4105721.3848152-.4105721.6798248 0 .0256805 0 .0641212.0128403.0898018-.2051297-.0769614-.3720532-.1796035-.5002976-.3078498z" fill="#00c179"/></g></g><g><g><path d="m21.6126747 38.0559464c0 .4874573-.1410847.9363937-.4234123 1.3340454-.2821712.3848152-.6670628.6926651-1.167202.897953-.474617.2052078-1.039114.3206902-1.6548157.3206902-1.0134315 0-1.9755058-.1924477-2.8605366-.5772591-.1410856-.0641251-.26933-.1667671-.359211-.3078499-.0642014-.0898056-.1154051-.1796074-.1282454-.2822495.833828.3463707 1.7445402.513134 2.6937723.513134.6157017 0 1.1801987-.1154823 1.6548138-.3206902.5002975-.2052078.8850327-.513134 1.167202-.8979492.2823277-.3976517.4234123-.8465881.4234123-1.3340454 0-.5131378-.1155605-.9363937-.3463707-1.2699242.1924458.1282463.3720512.2950096.5259762.474617.3206922.3591348.4746171.8465882.4746171 1.4495279z" fill="#00c179"/></g></g></g><g><g><path d="m28.5779915 39.1078224c.1669235.1539268.2438068.3591347.2438068.5771828 0 .2309647-.0897236.4233322-.2438068.5772591-.1537685.153923-.3463707.2308884-.5643406.2308884h-4.6052322c-.2179699 0-.4230995-.0898056-.5900211-.2437286-.1537685-.1667671-.2436504-.3719749-.2436504-.590023v-6.9526331c0-.2308884.0898819-.4360962.2436504-.6028633.1540813-.1667633.359211-.256567.5900211-.256567h4.6052322c.2179699 0 .4105721.0898037.5643406.2437267.1540833.1539268.2438068.3592148.2438068.5772629 0 .2180443-.0897236.4233322-.2438068.5772591-.1537685.1410828-.3463707.2180443-.5643406.2180443h-3.7455692v1.898468h3.3221569c.2309666 0 .4234123.0769615.5773373.2308884.1539268.1540031.2438068.359211.2438068.5772591 0 .2308846-.08988.4233322-.2438068.5772591-.1539249.1410828-.359211.2308884-.5773373.2308884h-3.3221569v1.8984642h3.7455692c.2179699-.0000001.410572.0770377.5643406.2309645z" fill="#f9b938"/></g></g><g><g><path d="m24.2680817 38.2483139c-.3472195 0-.6286964-.2814751-.6286964-.6286964v-.6410675c0-.3472214.281477-.6287003.6286964-.6287003h2.6936169c.2181263 0 .4234104-.0898018.5773373-.2308884.1539249-.153923.2438068-.3463707.2438068-.5772591 0-.051281 0-.1026421-.0128403-.1667633.1537685.0385208.2821693.1026421.3975735.2180481.1539268.1540031.2438068.359211.2438068.5772591 0 .2308846-.08988.4233322-.2438068.5772591-.1539249.1410828-.359211.2308884-.5773373.2308884h-3.3221569z" fill="#ecb021"/></g></g><g><g><path d="m28.5779915 39.1078224c.1669235.1539268.2438068.3591347.2438068.5771828 0 .2309647-.0897236.4233322-.2438068.5772591-.1537685.153923-.3463707.2308884-.5643406.2308884h-4.6052322c-.2179699 0-.4230995-.0898056-.5900211-.2437286-.1025658-.115406-.1794491-.2564926-.2179699-.3976555.0642014 0 .1154041.0128403.1794491.0128403h4.6052322c.2179699 0 .4105721-.0769615.5643425-.2308884.1540813-.153923.2438049-.3463707.2438049-.5772591 0-.051281 0-.1025658-.0128403-.1667633.1539269.0385207.2821713.102642.3975754.2181243z" fill="#ecb021"/></g></g><g><g><path d="m24.2680817 34.7335548c-.3472195 0-.6286964-.2814751-.6286964-.6286964v-.6410675c0-.3472214.281477-.6287003.6286964-.6287003h3.1170273c.2179699 0 .4105721-.0769615.5643425-.2180481.1540813-.1540031.2438049-.359211.2438049-.5772591 0-.0513611 0-.1026421-.0128403-.1667652.1539268.0256805.2821712.102644.3975754.2180462.1540833.1539268.2438068.3592148.2438068.5772629 0 .2180443-.0897236.4233322-.2438068.5772591-.1537685.1410828-.3463707.2180443-.5643406.2180443h-3.7455692z" fill="#ecb021"/></g></g><g><g><g><path d="m37.4419327 33.899807c-.3590546-.6799011-.8595085-1.2058029-1.5137329-1.5906944-.6413803-.3848114-1.4108505-.577179-2.2576752-.577179-.8593521 0-1.6289787.1923676-2.270359.577179-.6542225.3848915-1.1673584.9107933-1.5265694 1.5778542-.3463707.6669846-.53866 1.4238472-.5515003 2.2961197.0128403.8466644.2051296 1.6034508.5515003 2.2705154.359211.6669846.8723469 1.2057991 1.5265694 1.577774.6413803.3848114 1.4110069.5772591 2.270359.5772591.8468246 0 1.6162949-.1924477 2.2576752-.5772591.6542244-.3848152 1.1546783-.9107895 1.5137329-1.5906143.359211-.6542244.5516548-1.423851.5644951-2.2705154-.0128403-.846592-.2052842-1.6162949-.5644951-2.2704392zm-3.7714081-.5516587c.5389748 0 1.0262756.1283226 1.4240074.3720512s.6927414.5772591.9107094.9876747c.2052879.4361763.3206902.9236298.3206902 1.4623718 0 .5388145-.1154022 1.039032-.3206902 1.462368-.217968.4233322-.5129776.7440224-.9107094.987751-.8081474.4874573-2.0780716.4874573-2.8605385 0-.3977318-.2437286-.6927433-.5644188-.9107132-.987751-.2054424-.423336-.3206902-.9235535-.3206902-1.462368 0-.5387421.1152477-1.0390358.3206902-1.4623718.2179699-.4232559.5129814-.7439461.9107132-.9876747.3975754-.2437286.8721924-.3720512 1.4365311-.3720512z" fill="#a2a2f9"/></g></g></g><g><g><g><path d="m37.4426727 33.9006157c-.2667999-.5080338-.6139946-.9320107-1.0489464-1.2719116.1571808.1973801.2996788.4093437.4203186.643261.3581696.654213.5518875 1.4254074.5664787 2.26968-.0145912.8479347-.2083092 1.6191025-.5664787 2.2733192-.3581696.6797981-.8589287 1.2061005-1.5131187 1.5898781-.6396027.3837585-1.4107742.5774536-2.258728.5774536-.8588829 0-1.6263981-.1936951-2.2696571-.5774536-.1754265-.0986862-.3398781-.2119865-.4934444-.3326035.3106995.387413.6835041.7090454 1.1220703.9575729.6396008.387413 1.4107723.5774727 2.269659.5774727.8479538 0 1.6154671-.1900597 2.2587242-.5774727.6541939-.3837585 1.154953-.9100609 1.5131226-1.589859.3581696-.654213.5518875-1.4217491.5628624-2.26968-.010975-.8479309-.2046929-1.6154442-.5628625-2.2696571z" fill="#7979f7"/></g></g></g></g></g></svg>