<svg clip-rule="evenodd" fill-rule="evenodd" height="512" image-rendering="optimizeQuality" shape-rendering="geometricPrecision" text-rendering="geometricPrecision" viewBox="0 0 1706.66 1706.66" width="512" xmlns="http://www.w3.org/2000/svg" xmlns:xodm="http://www.corel.com/coreldraw/odm/2003"><g id="Layer_x0020_1"><path d="m1629.28 1385.06h-1104.64c-13.56 0-23.03-13.52-18.42-26.26l75.28-207.82c-1.69-1.81-5.98-4.31-9.86-4.31h-289.5c-13.63 0-23.12-13.69-18.35-26.45l48.72-130.31c11.97-32.03-20.52-98.26-52.5-33.66-9.11 18.43-37.14 11.95-37.14-8.68v-674.25c0-42.66 34.7-77.37 77.36-77.37h1329.04c42.66 0 77.38 34.7 77.38 77.37v1034.37c-.01 42.66-34.72 77.36-77.38 77.36z" fill="#335f8c"/><path d="m983.53 385.39h-554.73c-25.79 0-25.79-39.18 0-39.18h554.73c25.79 0 25.79 39.18 0 39.18z" fill="#294d71"/><path d="m1246.45 430.17c-10.81 0-19.59-8.78-19.59-19.59v-89.57c0-25.78 39.18-25.78 39.18 0v89.57c.02 10.83-8.77 19.59-19.59 19.59z" fill="#fa3c48"/><path d="m1373.57 430.17c-10.81 0-19.59-8.78-19.59-19.59v-89.57c0-25.78 39.18-25.78 39.18 0v89.57c0 10.83-8.77 19.59-19.59 19.59z" fill="#4cc949"/><path d="m1500.7 430.17c-10.81 0-19.59-8.78-19.59-19.59v-89.57c0-25.78 39.18-25.78 39.18 0v89.57c0 10.83-8.78 19.59-19.59 19.59z" fill="#fc0"/><path d="m1667.45 535.63h-1405.4v359.8c54.15-27.85 111.08 44.19 87.16 108.18l-38.82 103.86h261.27c28.97 0 57.71 26.43 47.31 55.16l-66.4 183.24h1076.7c21.06 0 38.18-17.13 38.18-38.17z" fill="#e9f1ff"/><path d="m460.72 1510.69h-291.25c-10.81 0-19.59-8.79-19.59-19.59l.97-370.14c15.33-46.83 56.65-149.13 77.87-189.58 49.85-94.97 151.69-11.21 120.5 72.22l-38.82 103.86h261.27c28.97 0 57.71 26.42 47.31 55.16l-110.94 306.27c-3.75 10.33-15.15 41.79-47.31 41.79z" fill="#ffaa83"/><g fill="#ffb800"><path d="m472.65 1013.05c-11.65 0-20.89-10.29-19.44-22.01l11.58-93.24-64.17-68.63c-10.48-11.22-4.52-29.7 10.6-32.61l92.24-17.8 45.45-82.23c7.43-13.46 26.85-13.47 34.28 0l45.44 82.23 92.24 17.8c15.1 2.93 21.1 21.37 10.6 32.61l-64.17 68.63 11.59 93.24c1.88 15.19-13.89 26.64-27.75 20.17l-85.1-39.84c-13.63 6.38-84.28 41.69-93.39 41.69z"/><path d="m871.36 938.66c-11.65 0-20.91-10.27-19.46-22.01l11.59-93.24-64.17-68.63c-10.52-11.26-4.48-29.7 10.59-32.61l92.24-17.8 45.45-82.25c7.46-13.48 26.87-13.46 34.3 0l45.44 82.25 92.23 17.8c15.09 2.92 21.11 21.38 10.61 32.61l-64.17 68.63 11.58 93.24c1.88 15.2-13.88 26.65-27.74 20.17l-85.09-39.83c-13.67 6.39-84.26 41.67-93.42 41.67z"/><path d="m1456.87 1013.05c-9.09 0-79.78-35.32-93.4-41.7l-85.1 39.85c-13.86 6.48-29.61-4.96-27.74-20.17l11.59-93.24-64.18-68.63c-10.49-11.23-4.48-29.7 10.61-32.61l92.24-17.79 45.43-82.24c7.44-13.46 26.86-13.47 34.3 0l45.44 82.24 92.24 17.79c15.1 2.93 21.1 21.38 10.61 32.61l-64.18 68.63 11.59 93.24c1.45 11.75-7.8 22.02-19.45 22.02z"/></g><path d="m134.43 1510.69h-114.84c-10.81 0-19.59-8.79-19.59-19.59v-364.04c0-10.81 8.78-19.59 19.59-19.59h114.84c10.81 0 19.59 8.79 19.59 19.59v364.04c0 10.81-8.76 19.59-19.59 19.59z" fill="#fa3c48"/></g></svg>