<svg height="512" viewBox="0 0 64 64" width="512" xmlns="http://www.w3.org/2000/svg"><g id="_11-Business" data-name="11-Business"><path d="m57 2h-32a5 5 0 0 0 -5 5v22a5 5 0 0 0 5 5h11v5a1 1 0 0 0 .55.89 1 1 0 0 0 1.05-.09l7.73-5.8h11.67a5 5 0 0 0 5-5v-22a5 5 0 0 0 -5-5z" fill="#68b1fc"/><path d="m15 20a9 9 0 0 0 -9 9v10a9 9 0 0 0 18 0v-10a9 9 0 0 0 -9-9z" fill="#e7eaef"/><path d="m15 20a8.76 8.76 0 0 0 -2 .23 9 9 0 0 1 7 8.77v10a9 9 0 0 1 -7 8.77 8.76 8.76 0 0 0 2 .23 9 9 0 0 0 9-9v-10a9 9 0 0 0 -9-9z" fill="#d8dbe0"/><rect fill="#e7eaef" height="8" rx="1" width="6" x="12" y="50"/><path d="m17 50h-2a1 1 0 0 1 1 1v6a1 1 0 0 1 -1 1h2a1 1 0 0 0 1-1v-6a1 1 0 0 0 -1-1z" fill="#d8dbe0"/><g fill="#68b1fc"><path d="m6 38v1a9 9 0 0 0 18 0v-1z"/><path d="m13 34a1 1 0 0 1 -1 1h-6v-2h6a1 1 0 0 1 1 1z"/><path d="m13 29a1 1 0 0 1 -1 1h-6v-1a8.26 8.26 0 0 1 .06-1h5.94a1 1 0 0 1 1 1z"/><path d="m24 33v2h-6a1 1 0 0 1 0-2z"/><path d="m24 29v1h-6a1 1 0 0 1 0-2h5.94a8.26 8.26 0 0 1 .06 1z"/></g><path d="m20 33h4v2h-4z" fill="#539ffb"/><path d="m24 29v1h-4v-1a8.26 8.26 0 0 0 -.06-1h4a8.26 8.26 0 0 1 .06 1z" fill="#539ffb"/><path d="m22 56h-14a3 3 0 0 0 -3 3v2a1 1 0 0 0 1 1h18a1 1 0 0 0 1-1v-2a3 3 0 0 0 -3-3z" fill="#68b1fc"/><path d="m22 56h-4a3 3 0 0 1 3 3v2a1 1 0 0 1 -1 1h4a1 1 0 0 0 1-1v-2a3 3 0 0 0 -3-3z" fill="#539ffb"/><path d="m15 52a13 13 0 0 1 -13-13 1 1 0 0 1 2 0 11 11 0 0 0 22 0 1 1 0 0 1 2 0 13 13 0 0 1 -13 13z" fill="#68b1fc"/><path d="m20 38v1a9 9 0 0 1 -7 8.77 8.76 8.76 0 0 0 2 .23 9 9 0 0 0 9-9v-1z" fill="#539ffb"/><path d="m62 7v22a5 5 0 0 1 -5 5h-4a5 5 0 0 0 5-5v-22a5 5 0 0 0 -5-5h4a5 5 0 0 1 5 5z" fill="#539ffb"/><rect fill="#fc6067" height="8" rx="1" width="6" x="29" y="22"/><path d="m34 22h-2a1 1 0 0 1 1 1v6a1 1 0 0 1 -1 1h2a1 1 0 0 0 1-1v-6a1 1 0 0 0 -1-1z" fill="#fb4b5b"/><rect fill="#fc6067" height="11" rx="1" width="6" x="37" y="19"/><path d="m42 19h-2a1 1 0 0 1 1 1v9a1 1 0 0 1 -1 1h2a1 1 0 0 0 1-1v-9a1 1 0 0 0 -1-1z" fill="#fb4b5b"/><rect fill="#fc6067" height="14" rx="1" width="6" x="45" y="16"/><path d="m50 16h-2a1 1 0 0 1 1 1v12a1 1 0 0 1 -1 1h2a1 1 0 0 0 1-1v-12a1 1 0 0 0 -1-1z" fill="#fb4b5b"/><path d="m50 12a1 1 0 0 1 -1-1v-3h-3a1 1 0 0 1 0-2h4a1 1 0 0 1 1 1v4a1 1 0 0 1 -1 1z" fill="#e7eaef"/><path d="m30 20a1 1 0 0 1 -.71-.29 1 1 0 0 1 0-1.42l8-8a1 1 0 0 1 1.42 0l3.29 3.3 7.29-7.3a1 1 0 1 1 1.42 1.42l-8 8a1 1 0 0 1 -1.42 0l-3.29-3.3-7.29 7.3a1 1 0 0 1 -.71.29z" fill="#e7eaef"/></g></svg>