<svg height="512pt" viewBox="0 0 512 512" width="512pt" xmlns="http://www.w3.org/2000/svg"><path d="m17.65625 0h476.6875c9.75 0 17.65625 7.90625 17.65625 17.65625v476.6875c0 9.75-7.90625 17.65625-17.65625 17.65625h-476.6875c-9.75 0-17.65625-7.90625-17.65625-17.65625v-476.6875c0-9.75 7.90625-17.65625 17.65625-17.65625zm0 0" fill="#b0d3f0"/><path d="m17.65625 0h476.6875c9.75 0 17.65625 7.90625 17.65625 17.65625v52.964844h-512v-52.964844c0-9.75 7.90625-17.65625 17.65625-17.65625zm0 0" fill="#285680"/><path d="m0 441.378906h512v52.964844c0 9.75-7.90625 17.65625-17.65625 17.65625h-476.6875c-9.75 0-17.65625-7.90625-17.65625-17.65625zm0 0" fill="#285680"/><path d="m44.136719 35.308594c0 4.878906-3.949219 8.828125-8.828125 8.828125-4.875 0-8.824219-3.949219-8.824219-8.828125 0-4.875 3.949219-8.824219 8.824219-8.824219 4.878906 0 8.828125 3.949219 8.828125 8.824219zm0 0" fill="#f0c419"/><path d="m79.449219 35.308594c0 4.878906-3.953125 8.828125-8.828125 8.828125s-8.828125-3.949219-8.828125-8.828125c0-4.875 3.953125-8.824219 8.828125-8.824219s8.828125 3.949219 8.828125 8.824219zm0 0" fill="#ff5364"/><path d="m114.757812 35.308594c0 4.878906-3.953124 8.828125-8.828124 8.828125s-8.828126-3.949219-8.828126-8.828125c0-4.875 3.953126-8.824219 8.828126-8.824219s8.828124 3.949219 8.828124 8.824219zm0 0" fill="#46b29d"/><path d="m123.585938 406.070312c0-73.132812 59.285156-132.414062 132.414062-132.414062s132.414062 59.28125 132.414062 132.414062zm0 0" fill="#fff"/><path d="m211.863281 414.898438c-4.875 0-8.828125-3.953126-8.828125-8.828126.027344-29.242187 23.726563-52.9375 52.964844-52.96875 3.558594.003907 7.105469.359376 10.59375 1.0625 3.089844.628907 5.609375 2.859376 6.609375 5.851563s.324219 6.292969-1.765625 8.652344c-2.09375 2.363281-5.285156 3.425781-8.375 2.796875-2.324219-.46875-4.691406-.703125-7.0625-.707032-19.5 0-35.308594 15.808594-35.308594 35.3125 0 2.339844-.933594 4.585938-2.585937 6.242188-1.65625 1.652344-3.902344 2.585938-6.242188 2.585938zm0 0" fill="#bdc3c7"/><path d="m415.1875 361.929688c-3.804688 0-7.179688-2.4375-8.378906-6.046876-4.160156-12.507812-9.871094-24.445312-16.992188-35.539062-1.832031-2.652344-2.070312-6.09375-.625-8.976562 1.449219-2.878907 4.351563-4.742188 7.574219-4.859376 3.21875-.117187 6.25 1.53125 7.898437 4.300782 7.925782 12.328125 14.273438 25.601562 18.902344 39.503906.894532 2.695312.445313 5.652344-1.214844 7.953125-1.660156 2.300781-4.324218 3.667969-7.164062 3.664063zm0 0" fill="#e64c3c"/><path d="m378.316406 300.136719c-2.4375.003906-4.765625-1.003907-6.4375-2.78125-7.253906-7.730469-15.257812-14.71875-23.894531-20.867188-3.972656-2.828125-4.902344-8.339843-2.074219-12.3125 2.828125-3.976562 8.339844-4.902343 12.3125-2.074219 9.585938 6.824219 18.472656 14.582032 26.527344 23.160157 2.414062 2.566406 3.070312 6.320312 1.671875 9.554687-1.398437 3.230469-4.585937 5.324219-8.105469 5.320313zm0 0" fill="#d25627"/><path d="m256 414.898438c-4.023438.003906-7.542969-2.714844-8.554688-6.609376-1.011718-3.894531.738282-7.980468 4.253907-9.933593l79.449219-44.140625c2.757812-1.53125 6.121093-1.476563 8.828124.144531 2.703126 1.621094 4.339844 4.558594 4.289063 7.714844-.050781 3.152343-1.78125 6.039062-4.535156 7.570312l-79.449219 44.140625c-1.308594.726563-2.78125 1.109375-4.28125 1.113282zm0 0" fill="#e64c3c"/><g fill="#4482c3"><path d="m176.550781 370.757812c0 4.875-3.953125 8.828126-8.828125 8.828126s-8.824218-3.953126-8.824218-8.828126 3.949218-8.828124 8.824218-8.828124 8.828125 3.953124 8.828125 8.828124zm0 0"/><path d="m203.035156 335.449219c0 4.875-3.953125 8.828125-8.828125 8.828125s-8.828125-3.953125-8.828125-8.828125 3.953125-8.828125 8.828125-8.828125 8.828125 3.953125 8.828125 8.828125zm0 0"/><path d="m238.34375 308.964844c0 4.875-3.949219 8.828125-8.828125 8.828125-4.875 0-8.824219-3.953125-8.824219-8.828125s3.949219-8.828125 8.824219-8.828125c4.878906 0 8.828125 3.953125 8.828125 8.828125zm0 0"/><path d="m291.308594 308.964844c0 4.875-3.949219 8.828125-8.824219 8.828125-4.878906 0-8.828125-3.953125-8.828125-8.828125s3.949219-8.828125 8.828125-8.828125c4.875 0 8.824219 3.953125 8.824219 8.828125zm0 0"/><path d="m326.621094 335.449219c0 4.875-3.953125 8.828125-8.828125 8.828125s-8.828125-3.953125-8.828125-8.828125 3.953125-8.828125 8.828125-8.828125 8.828125 3.953125 8.828125 8.828125zm0 0"/></g><path d="m44.136719 105.929688h105.933593c4.875 0 8.828126 3.953124 8.828126 8.828124v70.621094c0 4.875-3.953126 8.828125-8.828126 8.828125h-105.933593c-4.875 0-8.828125-3.953125-8.828125-8.828125v-70.621094c0-4.875 3.953125-8.828124 8.828125-8.828124zm0 0" fill="#f3d55b"/><path d="m150.070312 203.035156h-105.933593c-9.75 0-17.652344-7.90625-17.652344-17.65625v-70.621094c0-9.75 7.902344-17.65625 17.652344-17.65625h105.933593c9.75 0 17.652344 7.90625 17.652344 17.65625v70.621094c0 9.75-7.902344 17.65625-17.652344 17.65625zm-105.933593-88.277344v70.621094h105.933593v-70.621094zm0 0" fill="#f29c1f"/><path d="m207.554688 141.242188h255.789062c7.371094 0 13.347656 5.976562 13.347656 13.347656v61.582031c0 7.371094-5.976562 13.34375-13.347656 13.34375h-255.789062c-7.371094 0-13.347657-5.972656-13.347657-13.34375v-61.582031c0-7.371094 5.976563-13.347656 13.347657-13.347656zm0 0" fill="#fff"/><path d="m476.691406 114.757812h-282.484375c-4.875 0-8.828125-3.953124-8.828125-8.828124s3.953125-8.828126 8.828125-8.828126h282.484375c4.875 0 8.824219 3.953126 8.824219 8.828126s-3.949219 8.828124-8.824219 8.828124zm0 0" fill="#2c3e50"/><path d="m150.070312 238.34375h-114.761718c-4.875 0-8.824219-3.949219-8.824219-8.828125 0-4.875 3.949219-8.824219 8.824219-8.824219h114.761718c4.875 0 8.828126 3.949219 8.828126 8.824219 0 4.878906-3.953126 8.828125-8.828126 8.828125zm0 0" fill="#2c3e50"/><path d="m150.070312 273.65625h-114.761718c-4.875 0-8.824219-3.953125-8.824219-8.828125s3.949219-8.828125 8.824219-8.828125h114.761718c4.875 0 8.828126 3.953125 8.828126 8.828125s-3.953126 8.828125-8.828126 8.828125zm0 0" fill="#2c3e50"/><path d="m114.757812 308.964844h-79.449218c-4.875 0-8.824219-3.953125-8.824219-8.828125s3.949219-8.828125 8.824219-8.828125h79.449218c4.875 0 8.828126 3.953125 8.828126 8.828125s-3.953126 8.828125-8.828126 8.828125zm0 0" fill="#2c3e50"/><path d="m105.929688 344.277344h-70.621094c-4.875 0-8.824219-3.953125-8.824219-8.828125s3.949219-8.828125 8.824219-8.828125h70.621094c4.875 0 8.828124 3.953125 8.828124 8.828125s-3.953124 8.828125-8.828124 8.828125zm0 0" fill="#2c3e50"/><path d="m88.277344 167.722656c-2.34375 0-4.585938-.929687-6.242188-2.585937l-8.828125-8.828125c-3.34375-3.460938-3.296875-8.96875.109375-12.375 3.402344-3.402344 8.910156-3.449219 12.371094-.105469l3.710938 3.707031 20.460937-13.636718c4.054687-2.707032 9.539063-1.613282 12.242187 2.445312 2.707032 4.054688 1.613282 9.535156-2.445312 12.242188l-26.480469 17.65625c-1.453125.964843-3.15625 1.480468-4.898437 1.480468zm0 0" fill="#ff5364"/><path d="m406.070312 414.898438h-300.140624c-4.875 0-8.828126-3.953126-8.828126-8.828126s3.953126-8.828124 8.828126-8.828124h300.140624c4.875 0 8.828126 3.953124 8.828126 8.828124s-3.953126 8.828126-8.828126 8.828126zm0 0" fill="#2c3e50"/></svg>