<svg height="512" viewBox="0 0 58 52" width="512" xmlns="http://www.w3.org/2000/svg"><g id="Page-1" fill="none" fill-rule="evenodd"><g id="092---API" fill-rule="nonzero"><g id="Layer_11" transform="translate(0 6)"><path id="Shape" d="m43 0h9c2.209139 0 4 1.790861 4 4v34h-54v-34c0-2.209139 1.790861-4 4-4z" fill="#90bae1"/><path id="Shape" d="m52.92.11c-11.45.65-50.92 5.11-50.92 35.89v-32c0-2.209139 1.790861-4 4-4h46c.3099319.00025207.6187453.03717542.92.11z" fill="#b0d3f0"/><path id="Shape" d="m52 46h-46c-3.3137085 0-6-2.6862915-6-6v-3c0-.5522847.44771525-1 1-1h56c.5522847 0 1 .4477153 1 1v3c0 3.3137085-2.6862915 6-6 6z" fill="#547580"/><path id="Shape" d="m19 36h20v2c0 1.6568542-1.3431458 3-3 3h-14c-1.6568542 0-3-1.3431458-3-3z" fill="#3f5c6c"/><path id="Shape" d="m14 41h-3c-.5522847 0-1-.4477153-1-1s.4477153-1 1-1h3c.5522847 0 1 .4477153 1 1s-.4477153 1-1 1z" fill="#3f5c6c"/><circle id="Oval" cx="5" cy="40" fill="#65ddb9" r="1"/><circle id="Oval" cx="8" cy="40" fill="#f3d55b" r="1"/></g><g id="Icons" transform="translate(6)"><g fill="#3b97d3"><path id="Shape" d="m36.5 29.5c-.4043959-.0000863-.7689341-.2437275-.923678-.6173454-.1547439-.373618-.0692299-.8036603.216678-1.0896546l4.5-4.5c.1874927-.1875494.4418052-.2929434.707-.293h3c.5522847 0 1 .4477153 1 1s-.4477153 1-1 1h-2.586l-4.207 4.207c-.1874927.1875494-.4418052.2929434-.707.293z"/><path id="Shape" d="m13.879 17.16c-.2164407.0004356-.4271088-.0697871-.6-.2l-6.879-5.16c-.25180584-.1888544-.4-.4852427-.4-.8v-6c0-.55228475.44771525-1 1-1s1 .44771525 1 1v5.5l6.48 4.86c.3443443.2582582.4847973.7078856.3486833 1.1162278-.136114.4083421-.5182529.6837722-.9486833.6837722z"/><path id="Shape" d="m23 17c-.5522847 0-1-.4477153-1-1v-10c0-.55228475.4477153-1 1-1s1 .44771525 1 1v10c0 .5522847-.4477153 1-1 1z"/><path id="Shape" d="m9.5 21.5c-.26519481-.0000566-.51950727-.1054506-.707-.293l-4.207-4.207h-2.586c-.55228475 0-1-.4477153-1-1s.44771525-1 1-1h3c.26519481.0000566.51950727.1054506.707.293l4.5 4.5c.2859079.2859943.3714219.7160366.216678 1.0896546-.1547439.3736179-.5192821.6172591-.923678.6173454z"/><path id="Shape" d="m9.5 29.5c-.26519481-.0000566-.51950727-.1054506-.707-.293l-4.207-4.207h-1.586c-.55228475 0-1-.4477153-1-1s.44771525-1 1-1h2c.26519481.0000566.51950727.1054506.707.293l4.5 4.5c.2859079.2859943.3714219.7160366.216678 1.0896546-.1547439.3736179-.5192821.6172591-.923678.6173454z"/><path id="Shape" d="m32.761 16.68c-.4304304 0-.8125693-.2754301-.9486833-.6837722-.136114-.4083422.004339-.8579696.3486833-1.1162278l5.839-4.38v-4.5c0-.55228475.4477153-1 1-1s1 .44771525 1 1v5c0 .3147573-.1481942.6111456-.4.8l-6.24 4.679c-.1726974.129974-.382858.2004954-.599.201z"/><path id="Shape" d="m36 22c-.4043959-.0000863-.7689341-.2437275-.923678-.6173454-.1547439-.373618-.0692299-.8036603.216678-1.0896546l5-5c.1874927-.1875494.4418052-.2929434.707-.293h3c.5522847 0 1 .4477153 1 1s-.4477153 1-1 1h-2.586l-4.707 4.707c-.1874927.1875494-.4418052.2929434-.707.293z"/><path id="Shape" d="m12 38c-.5522847 0-1-.4477153-1-1v-9c0-.5522847.4477153-1 1-1s1 .4477153 1 1v9c0 .5522847-.4477153 1-1 1z"/><path id="Shape" d="m23 38c-.5522847 0-1-.4477153-1-1v-8c0-.5522847.4477153-1 1-1s1 .4477153 1 1v8c0 .5522847-.4477153 1-1 1z"/><path id="Shape" d="m34 38c-.5522847 0-1-.4477153-1-1v-10c0-.5522847.4477153-1 1-1s1 .4477153 1 1v10c0 .5522847-.4477153 1-1 1z"/></g><rect id="Rectangle-path" fill="#e64c3c" height="16" rx="2" width="30" x="8" y="14"/><path id="Shape" d="m15.937 17.648c-.1458609-.3912402-.5194545-.6506706-.937-.6506706s-.7911391.2594304-.937.6506706l-3 8c-.1932996.5174908.0695092 1.0937003.587 1.287.5174908.1932996 1.0937003-.0695092 1.287-.587l.506-1.348h3.114l.506 1.352c.1467373.3901885.5201322.6484168.937.648.1197749-.0004117.2385583-.0217318.351-.063.2488487-.0929529.4504871-.2810988.5604248-.5229244.1099378-.2418256.1191396-.5174562.0255752-.7660756zm-1.744 5.352.807-2.152.807 2.152z" fill="#fff"/><path id="Shape" d="m24 17h-2c-.5522847 0-1 .4477153-1 1v8c0 .5522847.4477153 1 1 1s1-.4477153 1-1v-3h1c1.6568542 0 3-1.3431458 3-3s-1.3431458-3-3-3zm0 4h-1v-2h1c.5522847 0 1 .4477153 1 1s-.4477153 1-1 1z" fill="#fff"/><path id="Shape" d="m34 25h-1v-6h1c.5522847 0 1-.4477153 1-1s-.4477153-1-1-1h-4c-.5522847 0-1 .4477153-1 1s.4477153 1 1 1h1v6h-1c-.5522847 0-1 .4477153-1 1s.4477153 1 1 1h4c.5522847 0 1-.4477153 1-1s-.4477153-1-1-1z" fill="#fff"/><circle id="Oval" cx="7" cy="4" fill="#f3d55b" r="4"/><circle id="Oval" cx="12" cy="37" fill="#f3d55b" r="2"/><circle id="Oval" cx="23" cy="37" fill="#f3d55b" r="2"/><circle id="Oval" cx="34" cy="37" fill="#f3d55b" r="2"/><circle id="Oval" cx="44" cy="16" fill="#f3d55b" r="2"/><circle id="Oval" cx="44" cy="24" fill="#f3d55b" r="2"/><circle id="Oval" cx="2" cy="16" fill="#f3d55b" r="2"/><circle id="Oval" cx="2" cy="24" fill="#f3d55b" r="2"/><circle id="Oval" cx="39" cy="4" fill="#f3d55b" r="4"/><circle id="Oval" cx="23" cy="4" fill="#f3d55b" r="4"/></g></g></g></svg>