<svg id="Layer_2" enable-background="new 0 0 512 512" height="512" viewBox="0 0 512 512" width="512" xmlns="http://www.w3.org/2000/svg"><g><g><g><path d="m466 438.5h-420v-272c0-4.418 3.582-8 8-8h404c4.418 0 8 3.582 8 8z" fill="#6e83b7"/><path d="m134 106.5h244v384h-244z" fill="#80d6fb" transform="matrix(0 1 -1 0 554.5 42.5)"/><path d="m251 223.5h10v384h-10z" fill="#46bee8" transform="matrix(0 1 -1 0 671.5 159.5)"/><path d="m251 233.5h10v420h-10z" fill="#466089" transform="matrix(0 1 -1 0 699.5 187.5)"/></g><g><path d="m475 498.5h-438c-14.912 0-27-12.088-27-27v-23h492v23c0 14.912-12.088 27-27 27z" fill="#6e83b7"/><path d="m293.5 468.5h-75l-12.5-20h100z" fill="#466089"/></g></g><g><path d="m396 393.5h-280c-5.523 0-10-4.477-10-10v-180c0-5.523 4.477-10 10-10h280c5.523 0 10 4.477 10 10v180c0 5.523-4.477 10-10 10z" fill="#edeff1"/><path d="m406 228.5h-300v-25c0-5.523 4.477-10 10-10h280c5.523 0 10 4.477 10 10z" fill="#6e83b7"/><g><circle cx="129.5" cy="211" fill="#ffb0aa" r="8"/><circle cx="156.5" cy="211" fill="#ffe352" r="8"/><circle cx="183.5" cy="211" fill="#98ca69" r="8"/></g><g><path d="m142.5 256h92v110h-92z" fill="#d3d3d3"/><path d="m170.681 281.556 45.639 29.444-45.639 29.445z" fill="#6e83b7"/></g><g><path d="m362.5 256h-101c-3.866 0-7 3.134-7 7v71c0 3.866 3.134 7 7 7h38v25l25-25h38c3.866 0 7-3.134 7-7v-71c0-3.866-3.134-7-7-7z" fill="#6e83b7"/><g fill="#edeff1"><path d="m272 316h80v8h-80z"/><path d="m272 273h80v8h-80z"/><path d="m272 294.5h80v8h-80z"/></g></g></g><g><path d="m256 13.5c-49.706 0-90 40.294-90 90s40.294 90 90 90 90-40.294 90-90-40.294-90-90-90z" fill="#edeff1"/><g fill="#6e83b7"><path d="m256 146c-15.729 0-29.86-8.644-37.208-21.929l12.719 4.597 3.399-9.404-27.928-10.094-9.832 28.503 9.453 3.262 3.882-11.253c9.194 15.971 26.397 26.318 45.515 26.318 21.309 0 40.352-12.718 48.514-32.401l-9.236-3.83c-6.61 15.934-22.027 26.231-39.278 26.231z"/><path d="m305.396 66.066-3.881 11.252c-9.193-15.971-26.396-26.318-45.515-26.318-21.308 0-40.351 12.718-48.514 32.401l9.237 3.83c6.609-15.934 22.026-26.231 39.277-26.231 15.728 0 29.86 8.644 37.207 21.929l-12.719-4.597-3.398 9.404 27.928 10.094 9.831-28.504z"/></g></g></g></svg>