<?xml version="1.0" encoding="iso-8859-1"?>
<!-- Generator: Adobe Illustrator 19.0.0, SVG Export Plug-In . SVG Version: 6.00 Build 0)  -->
<svg version="1.1" id="Capa_1" xmlns="http://www.w3.org/2000/svg" xmlns:xlink="http://www.w3.org/1999/xlink" x="0px" y="0px"
	 viewBox="0 0 512 512" style="enable-background:new 0 0 512 512;" xml:space="preserve">
<path style="fill:#EAEAEA;" d="M486.425,94.565L423.76,31.9c-20.346-20.346-47.943-31.777-76.717-31.777
	c-24.405,0-236.731-0.579-221.819,0.771c-9.416,2.517-16.361,11.082-16.361,21.292v70.427h2.129v147.975h-2.129v41.939
	c0,0.01,0,0.019,0,0.029c0,19.615,0,121.529,0,207.38c0,12.185,9.878,22.062,22.063,22.062c17.489,0,343.67,0,358.713,0
	c12.185,0,22.062-9.878,22.062-22.062c0-121.687,0-288.458,0-334.349C511.702,132.7,502.609,110.75,486.425,94.565z"/>
<path style="fill:#DDDDDD;" d="M139.762,489.937c0-85.852,0-187.766,0-207.38c0-0.009,0-0.019,0-0.029v-41.939h2.129V92.613h-2.129
	V22.186c0-12.401,10.165-22.063,22.063-22.063c-32.222,0-31.845-0.118-34.371,0.3c-10.522,1.664-18.592,10.759-18.592,21.764v70.427
	h2.129v147.976h-2.129v41.939c0,0.01,0,0.019,0,0.029c0,19.615,0,121.529,0,207.38c0,12.185,9.878,22.062,22.063,22.062
	c2.876,0,14.095,0,30.9,0C149.641,512,139.762,502.122,139.762,489.937z"/>
<path style="fill:#F94A46;" d="M328.322,240.589H18.355c-9.972,0-18.057-8.085-18.057-18.057V110.671
	c0-9.972,8.085-18.057,18.057-18.057h309.967c9.972,0,18.057,8.085,18.057,18.057v111.862
	C346.378,232.505,338.294,240.589,328.322,240.589z"/>
<path style="fill:#EA3939;" d="M62.098,222.532V110.671c0-9.972,8.085-18.057,18.057-18.057h-61.8
	c-9.972,0-18.057,8.085-18.057,18.057v111.862c0,9.972,8.085,18.057,18.057,18.057h61.8
	C70.182,240.589,62.098,232.505,62.098,222.532z"/>
<path style="fill:#EFEFEF;" d="M477.002,119.842c-55.328,0-68.878,0.29-68.66-0.771h0.001c-9.417-2.517-16.361-11.082-16.361-21.292
	V45.458c-0.015-2.829-1.08-45.334-52.141-45.334c2.655,0.595,30.03-3.397,61.107,14.374c21.369,12.236,30.73,26.951,45.356,39.946
	l0,0l40.121,40.121c15.125,15.125,24.403,35.796,25.187,57.999C510.105,125.684,488.511,120.621,477.002,119.842z"/>
<path style="fill:#DDDDDD;" d="M342.612,0.17C363,0.809,374.97,8.473,381.996,17.332l0,0c13.139,16.562,9.616,29.666,9.986,80.446
	c0,10.209,6.945,18.775,16.361,21.292h-0.001c-0.155,0.751,6.595,0.825,30.178,0.804c-9.042-2.755-15.639-11.122-15.639-21.066
	c-0.173-54.777,1.518-58.579-4.075-71.529C381.966-4.018,344.482,0.47,342.612,0.17z"/>
<g>
	<path style="fill:#F9F9F9;" d="M67.848,134.795c-4.953,0-6.277-7.384-3.898-11.882c1.982-3.755,4.868-1.607,25.558-2.228
		c3.266,0,7.055,1.53,7.055,5.074v57.8c0,18.914-10.994,28.343-28.467,28.343c-30.224,0-32.717-26.879-27.601-30.88
		c2.598-2.03,8.403-1.947,11.573-0.494c4.268,1.964,1.115,7.498,5.198,12.996c4.243,5.733,15.215,5.474,19.804,0.805
		c2.268-2.309,3.404-5.898,3.404-10.768v-48.764L67.848,134.795L67.848,134.795z"/>
	<path style="fill:#F9F9F9;" d="M108.195,209.303c-1.807-1.052-3.466-2.729-3.466-4.827c0-0.878,0.527-1.887,24.136-79.088
		c2.231-7.346,18.447-7.286,20.67,0c23.742,77.639,24.135,78.207,24.135,79.088c0,5.739-13.771,9.877-15.595,3.466l-4.704-16.462
		h-28.343c-4.951,16.093-4.194,17.669-6.621,18.937C117.456,210.912,111.045,210.968,108.195,209.303z M149.906,178.856
		l-10.767-37.998l-10.768,37.998H149.906z"/>
	<path style="fill:#F9F9F9;" d="M171.194,127.368c0-4.957,9.336-8.207,13.677-5.94c2.685,1.402,0.8-0.016,20.856,69.557
		c20.064-70.046,18.032-68.152,20.731-69.557c3.21-1.68,9.516-0.474,12.686,3.279c1.283,1.527,1.016,2.805,0.743,3.898
		c-25.921,82.082-22.305,79.681-27.601,81.997c-5.538,2.424-14.926,1.705-16.956-4.146
		C171.587,128.819,171.194,128.238,171.194,127.368z"/>
	<path style="fill:#F9F9F9;" d="M238.648,207.198c-2.272-2.829-2.513,2.451,23.145-81.811c2.227-7.332,18.444-7.299,20.67,0
		c23.731,77.606,24.135,78.208,24.135,79.088c0,0.991-0.331,1.878-0.991,2.662c-3.182,3.783-9.489,4.949-12.686,3.28
		c-2.433-1.269-1.726-3.018-6.621-18.937h-28.343c-4.951,16.093-4.194,17.669-6.621,18.937
		C248.028,212.14,241.456,210.718,238.648,207.198z M282.834,178.856l-10.767-37.998l-10.768,37.998H282.834z"/>
</g>
<g>
	<path style="fill:#7E7F7F;" d="M252.313,372.851c-31.031-32.091-33.69-31.274-33.69-36.89c0-5.616,2.668-4.808,33.69-36.889
		c3.017-3.016,7.909-3.016,10.924,0c3.017,3.017,3.017,7.908,0,10.925l-25.965,25.964l25.965,25.965
		c3.017,3.017,3.017,7.908,0,10.925C260.22,375.867,255.33,375.866,252.313,372.851z"/>
	<path style="fill:#7E7F7F;" d="M357.327,372.851c-3.017-3.017-3.017-7.908,0-10.925l25.965-25.965l-25.965-25.964
		c-3.017-3.017-3.017-7.908,0-10.925c3.016-3.016,7.908-3.016,10.924,0c31.031,32.091,33.69,31.273,33.69,36.889
		s-2.668,4.808-33.69,36.89C365.233,375.867,360.343,375.866,357.327,372.851z"/>
	<path style="fill:#7E7F7F;" d="M291.258,394.983c-0.877,0-1.769-0.151-2.642-0.467c-4.009-1.459-6.076-5.892-4.618-9.901
		l35.296-96.976c1.459-4.008,5.895-6.078,9.901-4.617c4.009,1.459,6.076,5.892,4.618,9.901l-35.296,96.976
		C297.376,393.034,294.413,394.983,291.258,394.983z"/>
</g>
<g>
</g>
<g>
</g>
<g>
</g>
<g>
</g>
<g>
</g>
<g>
</g>
<g>
</g>
<g>
</g>
<g>
</g>
<g>
</g>
<g>
</g>
<g>
</g>
<g>
</g>
<g>
</g>
<g>
</g>
</svg>
