<svg clip-rule="evenodd" fill-rule="evenodd" height="7.111in" image-rendering="optimizeQuality" shape-rendering="geometricPrecision" text-rendering="geometricPrecision" viewBox="0 0 7111 7111" width="7.111in" xmlns="http://www.w3.org/2000/svg"><g id="Layer_x0020_1"><path d="m4744 4021c-10 0-20-1-30-4-396-117-763-358-1034-678-277-327-429-710-429-1079v-1205c0-42 25-80 63-97 438-186 1024-497 1359-811 40-38 103-38 143 0 334 314 921 625 1358 811 39 17 64 55 64 97v1205c0 799-701 1539-1464 1757-10 3-20 4-30 4z" fill="#335f8c"/><path d="m4744 3545c-11 0-22-1-33-5-557-182-1066-723-1066-1308v-896c0-42 24-79 62-96 226-101 653-310 971-569 38-32 94-32 132 0 317 260 744 468 971 569 37 17 62 54 62 96v896c0 586-506 1122-1066 1308-11 4-22 5-33 5z" fill="#5684b9"/><path d="m4382 2602c-45 0-86-30-100-73l-136-429c-17-55 13-114 68-131s114 13 132 68l90 284 770-611c46-36 111-28 147 17s28 111-17 147l-889 705c-19 15-42 23-65 23z" fill="#fff"/><path d="m1902 6351c-86 0-124-115-44-164l-674-1194c-111 62-190-96-90-151 588-328 987-613 1093-781 140-219 415-308 842-270 352 31 759 140 1153 246 289 78 563 151 788 186 123 19 224 66 292 133 284-203 732-550 987-876 167-213 384-285 579-192 203 96 322 346 271 568-58 258-299 758-1246 1400-692 469-1346 912-2279 608-3-1-6-3-10-4-450-206-1125 185-1617 479-14 8-30 12-45 12z" fill="#ffc3a1"/><path d="m1045 6992c-106 0-209-55-265-153l-739-1279c-85-146-34-334 112-418l645-373c147-84 334-34 419 112l738 1279c85 147 34 334-112 419l-645 372c-48 28-101 41-153 41z" fill="#2882b0"/><path d="m841 5702c-206 0-357-195-303-395 71-268 434-317 574-75 121 210-34 470-271 470z" fill="#24759e"/><g fill="#ffb091"><path d="m5765 5146c-692 469-1347 911-2279 608-3-1-6-3-10-4-420-192-1036 135-1516 418 24 45 36 93 36 141 487-289 1133-648 1568-449 4 1 7 3 10 4 933 304 1587-139 2279-608 947-642 1188-1142 1246-1400 40-174-25-366-152-487 66 112 93 249 64 377-59 258-299 758-1246 1400z"/><path d="m5191 4301c26 16 50 35 71 55 23-16 47-33 72-52 5 8 9 18 12 28 1 2 170 620-736 588-791-28-1425-88-1427-89-48-4-84-47-79-95 4-49 47-84 95-80 2 1 632 61 1416 88 670 24 561-367 561-368-7-27-1-54 15-75z"/></g></g></svg>