<svg id="Icons" height="512" viewBox="0 0 60 60" width="512" xmlns="http://www.w3.org/2000/svg"><path d="m38.91 8a.978.978 0 0 1 .09.41v6.22l-11.25 38.37h-24.75a2.006 2.006 0 0 1 -2-2v-48a2.006 2.006 0 0 1 2-2h28.59a.978.978 0 0 1 .41.09z" fill="#e2eff7"/><path d="m49.729 46.35 8.8 8.8a1.589 1.589 0 0 1 0 2.26l-1.12 1.12a1.589 1.589 0 0 1 -2.26 0l-8.8-8.8z" fill="#8f5c4a"/><circle cx="34" cy="34" fill="#b1cbdd" r="20"/><circle cx="34" cy="34" fill="#3b7ac8" r="16"/><path d="m38.91 8h-4.91a2.006 2.006 0 0 1 -2-2v-4.91a1.078 1.078 0 0 1 .29.2l6.42 6.42a1.078 1.078 0 0 1 .2.29z" fill="#9fbace"/><path d="m34 51a17 17 0 0 1 0-34 1 1 0 0 1 0 2 14.993 14.993 0 1 0 4.687.749 1 1 0 1 1 .626-1.9 17 17 0 0 1 -5.313 33.151z" fill="#30649d"/><g fill="#9fbace"><path d="m27 7h-20a1 1 0 0 1 0-2h20a1 1 0 0 1 0 2z"/><path d="m27 12h-20a1 1 0 0 1 0-2h20a1 1 0 0 1 0 2z"/><path d="m18 17h-11a1 1 0 0 1 0-2h11a1 1 0 0 1 0 2z"/><path d="m13 22h-6a1 1 0 0 1 0-2h6a1 1 0 0 1 0 2z"/><path d="m11 27h-4a1 1 0 0 1 0-2h4a1 1 0 0 1 0 2z"/><path d="m10 32h-3a1 1 0 0 1 0-2h3a1 1 0 0 1 0 2z"/><path d="m10 37h-3a1 1 0 0 1 0-2h3a1 1 0 0 1 0 2z"/><path d="m11 42h-4a1 1 0 0 1 0-2h4a1 1 0 0 1 0 2z"/><path d="m13 47h-6a1 1 0 0 1 0-2h6a1 1 0 0 1 0 2z"/></g><path d="m31 41a1 1 0 0 1 -.707-.293l-3-3a1 1 0 0 1 1.414-1.414l2.185 2.185 8.308-11.078a1 1 0 0 1 1.6 1.2l-9 12a1 1 0 0 1 -.729.4z" fill="#fff"/></svg>