<svg id="Layer_1" enable-background="new 0 0 468 468" height="512" viewBox="0 0 468 468" width="512" xmlns="http://www.w3.org/2000/svg"><g><g><path d="m456.475 247.424c-4.333-8.608-4.341-18.794-.034-27.416 15.98-31.991 15.654-72.457-4.287-107.242-21.874-38.156-61.426-59.142-100.407-57.43-9.922.436-19.497-4.081-25.505-11.99-19.844-26.122-53.825-43.346-92.419-43.346-38.682 0-72.73 17.303-92.553 43.526-6.003 7.941-15.591 12.48-25.538 12.077-38.869-1.573-78.253 19.404-100.062 57.447-20 34.888-20.27 75.491-4.145 107.527 4.333 8.608 4.341 18.794.034 27.416-15.98 31.991-15.654 72.457 4.287 107.242 21.874 38.156 61.426 59.142 100.407 57.43 9.922-.436 19.497 4.081 25.505 11.99 19.843 26.121 53.825 43.345 92.419 43.345 38.682 0 72.73-17.303 92.553-43.526 6.003-7.941 15.591-12.48 25.538-12.077 38.87 1.573 78.253-19.404 100.062-57.447 20-34.888 20.27-75.491 4.145-107.526z" fill="#f5f9ff"/><circle cx="267.27" cy="53.831" fill="#95bffe" opacity=".6" r="7"/><circle cx="69.957" cy="146.932" fill="#ff8a80" opacity=".6" r="7"/><path d="m408.845 193.524 5.81 1.231-6.719 1.906c-3.539 1.004-6.241 3.869-7.035 7.461l-1.246 5.633-1.246-5.633c-.794-3.592-3.496-6.457-7.035-7.461l-6.719-1.906 5.81-1.231c3.762-.797 6.733-3.681 7.643-7.417l1.547-6.352 1.547 6.352c.91 3.736 3.881 6.62 7.643 7.417z" fill="#95bffe" opacity=".6"/><path d="m289.19 130.701 5.81 1.231-6.719 1.906c-3.539 1.004-6.241 3.869-7.035 7.461l-1.246 5.633-1.246-5.633c-.794-3.592-3.496-6.457-7.035-7.461l-6.719-1.906 5.81-1.231c3.762-.797 6.733-3.681 7.643-7.417l1.547-6.352 1.547 6.352c.91 3.736 3.881 6.62 7.643 7.417z" fill="#ad9cdb" opacity=".5"/></g><g><g><path d="m20.009 91.728c1.64-16.28 15.479-28.991 32.31-28.991 1.225 0 2.431.073 3.621.204 2.204-19.483 18.847-34.629 39.06-34.629s36.856 15.146 39.06 34.629c1.189-.131 2.396-.204 3.621-.204 16.831 0 30.67 12.712 32.31 28.991h.706c7.9 0 14.303 6.485 14.303 14.484 0 7.999-6.404 14.484-14.303 14.484h-151.394c-7.9 0-14.303-6.485-14.303-14.484 0-7.999 6.404-14.484 14.303-14.484z" fill="#e6f3ff"/><path d="m170.697 125.695h-151.394c-10.644 0-19.303-8.74-19.303-19.484 0-9.497 6.766-17.429 15.688-19.142 3.621-16.805 18.41-29.069 36.06-29.328 4.438-19.926 22.267-34.429 43.252-34.429s38.814 14.503 43.252 34.429c17.65.26 32.439 12.523 36.06 29.329 8.922 1.713 15.688 9.644 15.688 19.141 0 10.744-8.659 19.484-19.303 19.484zm-151.394-28.967c-5.13 0-9.303 4.254-9.303 9.484 0 5.229 4.173 9.483 9.303 9.483h151.394c5.13 0 9.303-4.254 9.303-9.483s-4.173-9.484-9.303-9.484h-.706c-2.567 0-4.717-1.944-4.975-4.499-1.407-13.963-13.159-24.493-27.336-24.493-.989 0-2.023.059-3.074.174-2.748.292-5.206-1.67-5.515-4.408-1.947-17.211-16.603-30.19-34.091-30.19s-32.145 12.979-34.091 30.19c-.31 2.738-2.773 4.706-5.515 4.408-14.914-1.643-28.895 9.288-30.41 24.318-.257 2.554-2.407 4.499-4.975 4.499h-.706z" fill="#bdbdcc"/></g><g><g><g><path d="m336.109 421.375h-313.002v-226.727c0-11.956 9.715-21.648 21.699-21.648h269.604c11.984 0 21.699 9.692 21.699 21.648z" fill="#95bffe"/><path d="m58.806 173h-14c-11.984 0-21.699 9.692-21.699 21.647v226.728h14v-226.728c0-11.955 9.715-21.647 21.699-21.647z" fill="#bdd8ff"/></g><g><path d="m55.761 205.02h247.695v184.334h-247.695z" fill="#efefef"/><path d="m55.761 205.02h14v184.334h-14z" fill="#fff"/><g><path d="m302.941 389.54c-5.219-14.528-19.239-24.937-35.205-24.937-.431 0-.857.018-1.284.033.015-.436.033-.871.033-1.31 0-20.657-16.417-37.403-36.668-37.403-6.967 0-13.48 1.982-19.026 5.423-6.393-10.965-18.119-18.316-31.533-18.316s-25.141 7.351-31.533 18.316c-5.547-3.441-12.06-5.423-19.026-5.423-20.251 0-36.668 16.746-36.668 37.403 0 .439.018.874.032 1.31-.427-.015-.854-.033-1.284-.033-15.955 0-29.53 10.394-34.572 24.906" fill="#cce3ff"/><path d="m100.776 375.603c.431 0 .857.018 1.284.033-.015-.436-.032-.871-.032-1.31 0-20.657 16.417-37.403 36.668-37.403 6.967 0 13.48 1.982 19.026 5.423 6.393-10.965 18.119-18.316 31.533-18.316 7.969 0 15.331 2.609 21.344 7.015-6.431-10.795-18.056-18.015-31.344-18.015-13.415 0-25.141 7.352-31.533 18.316-5.547-3.441-12.06-5.423-19.026-5.423-20.251 0-36.668 16.746-36.668 37.403 0 .439.018.874.032 1.31-.427-.015-.854-.033-1.284-.033-15.955 0-29.53 10.394-34.572 24.906l16.042.002c6.723-8.482 17.005-13.908 28.53-13.908z" fill="#fff"/></g></g><g><path d="m354.216 421.375h-349.216v21.625c0 11.046 8.954 20 20 20h309.216c11.046 0 20-8.954 20-20z" fill="#cce3ff"/><path d="m21 443v-21.625h-16v21.625c0 11.046 8.954 20 20 20h16c-11.046 0-20-8.954-20-20z" fill="#ebf5ff"/></g><g><g><path id="XMLID_52_" d="m84.608 297.412v27.271" fill="#fff"/><path d="m84.608 329.684c-2.761 0-5-2.238-5-5v-27.271c0-2.762 2.239-5 5-5s5 2.238 5 5v27.271c0 2.761-2.239 5-5 5z" fill="#5b5b7f"/></g><g><path id="XMLID_50_" d="m84.608 273.317v5.095" fill="#fff"/><path d="m84.608 283.412c-2.761 0-5-2.238-5-5v-5.096c0-2.762 2.239-5 5-5s5 2.238 5 5v5.096c0 2.762-2.239 5-5 5z" fill="#5b5b7f"/></g></g><g><g><path id="XMLID_48_" d="m274.608 297.412v27.271" fill="#fff"/><path d="m274.608 329.684c-2.761 0-5-2.238-5-5v-27.271c0-2.762 2.239-5 5-5s5 2.238 5 5v27.271c0 2.761-2.239 5-5 5z" fill="#5b5b7f"/></g><g><path id="XMLID_47_" d="m274.608 273.317v5.095" fill="#fff"/><path d="m274.608 283.412c-2.761 0-5-2.238-5-5v-5.096c0-2.762 2.239-5 5-5s5 2.238 5 5v5.096c0 2.762-2.239 5-5 5z" fill="#5b5b7f"/></g></g></g><g id="XMLID_194_"><g><path d="m200.122 294.192c-1.886-5.138 1.256-10.479 7.006-11.294 12.981-1.84 18.979 23.926 18.979 23.926.222-.474.436-.948.642-1.42 11.153-25.511-.957-56.416-28.342-63.219-1.512-.376-2.96-1.034-4.494-1.493-39.984-11.975-76.714 27.175-60.353 64.712.206.472.42.945.642 1.42 0 0 5.868-25.209 18.558-23.976 6.454.627 8.223 6.896 6.652 12.469-4.528 19.075 3.652 38.875 20.476 49.562l.19.12c16.723-11.327 24.668-31.456 20.049-50.793z" fill="#fff099"/><g fill="#fffae6"><path d="m172.412 301.317c1.571-5.573-.198-11.842-6.652-12.469-2.157-.21-4.113.358-5.88 1.423.169 1.631.005 3.369-.468 5.047-4.528 19.074 3.652 38.875 20.476 49.562l.19.121c1.072-.726 2.106-1.489 3.105-2.285-10.074-11.101-14.314-26.472-10.771-41.399z"/><path d="m187.576 239.217c-37.4-6.336-69.509 30.644-54.016 66.187.206.472.42.946.642 1.42 0 0 2.777-11.927 8.64-18.972 2.418-22.338 21.347-40.955 44.735-43.129v-5.506z"/></g></g><g><path id="XMLID_199_" d="m127.895 150.403 12.547-9.433 21.226 60.493-1.125.182c-29.462 4.775-55.288 21.919-70.642 46.894-7.404-37.081 7.3-75.06 37.994-98.136z" fill="#ff8a80"/><path d="m138.895 159.403 6.341-4.768-4.795-13.665-12.547 9.433c-30.694 23.076-45.398 61.055-37.994 98.137 2.73-4.441 5.798-8.63 9.152-12.55.757-29.696 15.099-57.984 39.843-76.587z" fill="#ffa8a4"/></g><g><path id="XMLID_198_" d="m232.414 150.403-12.547-9.433-21.226 60.493.552.086c29.7 4.621 55.777 21.827 71.215 46.991 7.404-37.082-7.3-75.061-37.994-98.137z" fill="#ff8a80"/><path d="m232.414 150.403-12.547-9.433-5.072 14.456 6.619 4.976c24.449 18.38 38.737 46.218 39.804 75.524 3.37 3.938 6.451 8.147 9.19 12.613 7.404-37.081-7.3-75.06-37.994-98.136z" fill="#ffa8a4"/></g><g><path id="XMLID_197_" d="m243.186 117.609c-1.581-13.782-5.1-41.655-24.196-71.379-12.886-20.056-27.963-33.329-38.476-41.23-10.515 7.94-25.54 21.223-38.436 41.23-19.28 29.909-22.914 57.953-24.5 71.379-7.319 61.96 22.813 111.283 34.172 129.102h57.265c11.538-18.234 41.25-67.404 34.171-129.102z" fill="#efefef"/><path d="m144.366 68.052c-3.823-2.065-7.433-4.395-10.753-6.935 1.184-2.378 2.459-4.782 3.828-7.206-15.247 26.952-18.415 51.43-19.864 63.699-7.319 61.96 22.814 111.283 34.172 129.102h14c-11.358-17.819-41.491-67.142-34.172-129.102 1.191-10.08 3.537-28.398 12.789-49.558z" fill="#fff"/></g><g><path d="m227.412 61.118c-2.408-4.871-5.187-9.851-8.422-14.888-12.886-20.056-27.963-33.329-38.476-41.23-10.515 7.94-25.54 21.223-38.436 41.23-3.246 5.036-6.04 10.017-8.464 14.886 12.703 9.722 29.574 16.451 46.9 16.451 17.325 0 34.195-6.728 46.898-16.449z" fill="#ff8a80"/><path d="m144.366 68.052c3.072-7.026 6.905-14.366 11.711-21.822 10.253-15.905 21.843-27.547 31.451-35.647-.578-.486-1.148-.957-1.712-1.418-.089-.073-.179-.146-.268-.219-.505-.411-1.003-.812-1.494-1.203-.212-.168-.42-.332-.629-.496-.382-.301-.763-.601-1.135-.889-.604-.466-1.2-.923-1.777-1.357-10.515 7.94-25.54 21.223-38.436 41.23-.74 1.148-1.45 2.292-2.144 3.434-.171.282-.338.563-.507.844-.58.968-1.146 1.933-1.694 2.895-.096.169-.195.339-.291.508-1.369 2.424-2.644 4.829-3.828 7.206 3.32 2.539 6.93 4.868 10.753 6.934z" fill="#ffa8a4"/></g><g><circle id="XMLID_46_" cx="180.522" cy="131.932" fill="#fff" r="24"/><path d="m180.521 160.932c-15.991 0-29-13.009-29-29s13.009-29 29-29 29 13.009 29 29-13.009 29-29 29zm0-48c-10.477 0-19 8.523-19 19s8.523 19 19 19 19-8.523 19-19-8.523-19-19-19z" fill="#5b5b7f"/></g></g></g><g><g><path d="m302.947 350.945h152.105v112.055h-152.105z" fill="#fff099"/><path d="m302.947 350.945h14v112.055h-14z" fill="#fffae6"/></g><g><path d="m295 313.745h168v37.201h-168z" fill="#ad9cdb"/><path d="m295 313.745h15v37.201h-15z" fill="#c7c1e8"/></g><g><path d="m403.682 415.857-24.682-26.654-24.682 26.654v-64.912h49.364z" fill="#fffae6"/><path d="m368.318 350.945h-14v64.912l14-15.118z" fill="#fff"/></g></g><g><g><path d="m463 98.097v-26.023l-18.481-4.518c-1.349-4.766-3.239-9.303-5.596-13.547l9.906-16.317-18.401-18.401-16.271 9.879c-4.236-2.369-8.768-4.273-13.529-5.636l-4.531-18.534h-26.023l-4.518 18.481c-4.766 1.349-9.303 3.24-13.547 5.596l-16.317-9.906-18.401 18.401 9.879 16.271c-2.369 4.236-4.273 8.768-5.636 13.529l-18.534 4.531v26.023l18.481 4.518c1.349 4.766 3.239 9.303 5.596 13.547l-9.906 16.317 18.401 18.401 16.272-9.879c4.236 2.369 8.768 4.273 13.529 5.636l4.53 18.534h26.023l4.518-18.481c4.766-1.349 9.303-3.239 13.547-5.596l16.317 9.906 18.401-18.401-9.879-16.271c2.369-4.236 4.273-8.768 5.636-13.529z" fill="#ffd0cc"/><path d="m395.926 170h-26.023c-2.304 0-4.31-1.575-4.857-3.813l-3.859-15.785c-3.141-1.048-6.211-2.327-9.179-3.823l-13.842 8.404c-1.969 1.196-4.501.891-6.13-.738l-18.401-18.401c-1.629-1.629-1.934-4.161-.738-6.13l8.437-13.896c-1.488-2.971-2.759-6.046-3.798-9.19l-15.723-3.844c-2.238-.547-3.812-2.553-3.812-4.857v-26.024c0-2.304 1.575-4.31 3.812-4.857l15.785-3.859c1.048-3.141 2.327-6.211 3.823-9.179l-8.404-13.842c-1.196-1.969-.891-4.501.738-6.13l18.401-18.401c1.63-1.629 4.162-1.935 6.13-.738l13.896 8.437c2.971-1.488 6.046-2.759 9.19-3.798l3.844-15.723c.548-2.238 2.554-3.813 4.858-3.813h26.023c2.304 0 4.31 1.575 4.857 3.813l3.859 15.785c3.141 1.048 6.211 2.327 9.179 3.823l13.842-8.404c1.968-1.197 4.501-.892 6.13.738l18.401 18.401c1.629 1.629 1.934 4.161.738 6.13l-8.437 13.896c1.488 2.971 2.759 6.046 3.798 9.19l15.723 3.844c2.238.547 3.813 2.553 3.813 4.857v26.023c0 2.304-1.575 4.31-3.813 4.857l-15.785 3.859c-1.048 3.141-2.327 6.211-3.823 9.179l8.404 13.842c1.196 1.969.891 4.501-.738 6.13l-18.401 18.401c-1.629 1.629-4.162 1.935-6.13.738l-13.896-8.437c-2.971 1.488-6.046 2.759-9.19 3.798l-3.844 15.723c-.548 2.239-2.554 3.814-4.858 3.814zm-22.098-10h18.173l3.586-14.668c.428-1.749 1.763-3.133 3.495-3.624 4.326-1.225 8.524-2.959 12.48-5.156 1.57-.872 3.488-.834 5.022.097l12.962 7.869 12.851-12.85-7.842-12.917c-.935-1.54-.969-3.463-.09-5.035 2.208-3.95 3.956-8.143 5.192-12.465.494-1.726 1.876-3.055 3.62-3.481l14.723-3.598v-18.173l-14.668-3.586c-1.749-.428-3.133-1.763-3.624-3.495-1.225-4.326-2.959-8.524-5.156-12.48-.872-1.57-.835-3.487.097-5.022l7.869-12.962-12.85-12.851-12.917 7.842c-1.539.936-3.463.969-5.035.09-3.95-2.208-8.143-3.956-12.465-5.192-1.726-.494-3.055-1.876-3.481-3.62l-3.598-14.723h-18.173l-3.586 14.668c-.428 1.749-1.763 3.133-3.495 3.624-4.326 1.225-8.524 2.959-12.48 5.156-1.57.873-3.487.836-5.022-.097l-12.962-7.869-12.851 12.85 7.842 12.917c.935 1.54.969 3.463.09 5.035-2.208 3.95-3.956 8.143-5.192 12.465-.494 1.726-1.876 3.055-3.62 3.481l-14.723 3.598v18.173l14.668 3.586c1.749.428 3.133 1.763 3.624 3.495 1.225 4.326 2.959 8.524 5.156 12.48.872 1.57.835 3.487-.097 5.022l-7.869 12.962 12.85 12.851 12.917-7.842c1.539-.935 3.463-.97 5.035-.09 3.95 2.208 8.143 3.956 12.465 5.192 1.726.494 3.055 1.876 3.481 3.62z" fill="#bdbdcc"/></g><g><circle cx="383" cy="85" fill="#fff" r="31.169"/><path d="m383 121.169c-19.944 0-36.169-16.225-36.169-36.169s16.225-36.169 36.169-36.169 36.169 16.225 36.169 36.169-16.225 36.169-36.169 36.169zm0-62.338c-14.43 0-26.169 11.739-26.169 26.169s11.739 26.169 26.169 26.169 26.169-11.739 26.169-26.169-11.739-26.169-26.169-26.169z" fill="#bdbdcc"/></g></g><g fill="#5b5b7f"><g><path d="m399.655 293.886c-2.761 0-5-2.238-5-5v-33.271c0-2.762 2.239-5 5-5s5 2.238 5 5v33.271c0 2.761-2.238 5-5 5z"/><path d="m399.655 240.615c-2.761 0-5-2.238-5-5v-5.095c0-2.761 2.239-5 5-5s5 2.239 5 5v5.095c0 2.762-2.238 5-5 5z"/></g><g><path d="m369.655 266.886c-2.761 0-5-2.238-5-5v-33.271c0-2.761 2.239-5 5-5s5 2.239 5 5v33.271c0 2.761-2.238 5-5 5z"/><path d="m369.655 213.615c-2.761 0-5-2.239-5-5v-5.095c0-2.761 2.239-5 5-5s5 2.239 5 5v5.095c0 2.761-2.238 5-5 5z"/></g><g><path d="m429.655 266.886c-2.761 0-5-2.238-5-5v-33.271c0-2.761 2.239-5 5-5s5 2.239 5 5v33.271c0 2.761-2.238 5-5 5z"/><path d="m429.655 213.615c-2.761 0-5-2.239-5-5v-5.095c0-2.761 2.239-5 5-5s5 2.239 5 5v5.095c0 2.761-2.238 5-5 5z"/></g></g></g><path d="m463 308.744h-121.891v-114.097c0-14.693-11.977-26.647-26.699-26.647h-57.542c-2.711-3.651-5.669-7.156-8.885-10.48 1.634-13.607 1.701-27.132.169-40.48-5.3-46.196-27.141-87.859-64.635-116.037-1.782-1.339-4.237-1.336-6.017.007-21.092 15.928-36.508 36.075-48.973 59.109-14.42 29.583-19.717 64.433-15.88 97.075-3.339 3.421-6.403 7.037-9.204 10.806h-58.637c-14.722 0-26.698 11.954-26.698 26.647v221.728h-13.108c-2.761 0-5 2.238-5 5v21.625c0 13.785 11.215 25 25 25h430.053c2.761 0 5-2.238 5-5v-107.055h2.947c2.761 0 5-2.238 5-5v-37.201c0-2.762-2.239-5-5-5zm-148.59-130.744c9.208 0 16.699 7.468 16.699 16.647v114.097h-22.653v-103.723c0-2.761-2.239-5-5-5h-30.485c-2.295-7.649-5.487-15.038-9.523-22.021zm-47.291 57.194c-8.825-11-19.833-20.144-32.436-26.926 1.063-2.626 2.105-5.331 3.106-8.122 3.569-9.959 6.293-19.924 8.198-29.861 15.08 18.364 22.592 41.503 21.132 64.909zm-86.598-223.879c16.673 13.154 30.684 29.678 40.599 48.479-11.772 8.254-26.033 12.773-40.606 12.773-14.572 0-28.831-4.518-40.603-12.769 9.974-18.77 23.963-35.291 40.61-48.483zm-57.979 106.881c1.081-9.152 3.289-27.764 12.942-49.332 26.88 18.053 63.142 18.069 90.033.027 9.5 21.467 11.647 40.112 12.7 49.288 4.621 40.276-6.146 81.824-31.984 123.532h-51.717c-25.974-41.632-36.739-83.175-31.974-123.515zm72.777 177.409c3.789 16.263-2.191 32.877-15.338 43.271-13.181-9.811-19.458-26.42-15.726-42.313 2.283-8.278-1.694-17.789-11.012-18.693-8.703-.846-14.656 6.026-18.458 13.184-1.867-16.709 7.199-31.297 18.594-39.344h54.745c12.774 8.136 19.32 23.765 17.416 39.357-3.896-7.351-10.063-14.416-19.113-13.12-8.288 1.174-13.857 9.596-11.108 17.658zm-80.703-125.661c2.415 12.678 6.212 25.405 11.386 38.153-12.759 6.804-23.896 16.012-32.812 27.114-1.48-23.571 6.143-46.842 21.426-65.267zm183.331 288.056h-272.947c-8.271 0-15-6.729-15-15v-16.625h287.947zm0-41.625h-269.84v-221.728c0-9.18 7.491-16.647 16.698-16.647h52.058c-4.039 6.983-7.238 14.371-9.534 22.021h-31.568c-2.761 0-5 2.239-5 5v184.334c0 2.762 2.239 5 5 5h242.187v22.02zm.509-107.631h-3.456c-2.761 0-5 2.238-5 5v37.201c0 2.762 2.239 5 5 5h2.947v16.464c-7.007-7.163-16.408-11.769-26.609-12.651-2.203-26.784-29.766-45.659-55.434-36.412-2.598.937-3.945 3.801-3.009 6.399s3.801 3.943 6.399 3.009c20.603-7.424 42.19 9.124 42.19 30.572 0 3.91 2.372 6.276 6.251 6.276 11.006 0 21.105 5.717 27.025 14.752h-230.547c5.755-9.044 15.704-14.752 26.563-14.752 3.936 0 6.251-2.41 6.251-6.276 0-21.457 21.599-37.999 42.197-30.57 2.598.935 5.463-.411 6.399-3.009.937-2.598-.411-5.463-3.008-6.399-25.662-9.244-53.24 9.615-55.441 36.414-10.181.899-19.524 5.588-26.413 12.873v-162.614h24.117c-2.489 12.866-2.525 26.251.12 39.498.871 4.359 6.858 5.389 9.163 1.64 8.724-14.19 21.049-25.798 35.822-33.837 4.286 9.369 9.308 18.746 15.072 28.118-19.207 15.105-25.768 41.303-15.381 63.505 1.97 4.209 8.344 3.541 9.398-.986 1.527-6.561 6.967-20.754 13.205-20.134 3.319.323 2.784 4.161 2.271 6.339-5.002 21.072 4.104 43.149 22.652 54.932 1.731.981 3.928 1.234 5.682.045 18.565-12.575 27.244-34.594 22.108-56.095-.605-2.476-.372-4.74 2.841-5.196 6.297-.876 11.841 13.439 13.407 20.109 1.054 4.527 7.427 5.194 9.398.986 10.11-21.611 5.038-49.464-14.651-63.948 3.729-6.06 9.28-15.581 14.726-27.499 14.607 8.03 26.796 19.575 35.435 33.657 2.29 3.733 8.292 2.737 9.165-1.636 2.643-13.239 2.606-26.627.115-39.498h23.029v98.723zm1.544 10h158v27.201h-158zm98.683 37.201v47.153l-16.014-17.293c-2.446-2.137-4.891-2.137-7.337 0l-16.014 17.293v-47.153zm51.37 102.055h-142.106v-102.055h41.37v59.912c0 4.457 5.64 6.666 8.668 3.397l21.015-22.691 21.014 22.692c3.13 3.378 8.668.979 8.668-3.397v-59.912h41.37v102.054z" fill="#5b5b7f"/></g></svg>