<svg id="object" height="512" viewBox="0 0 100 100" width="512" xmlns="http://www.w3.org/2000/svg"><g id="_05" data-name="05"><g fill="#d7579e"><path d="m87.538 63.431a1 1 0 0 1 -1-1v-1.642a1 1 0 0 1 2 0v1.642a1 1 0 0 1 -1 1z"/><path d="m87.538 68.937a1 1 0 0 1 -1-1v-1.637a1 1 0 0 1 2 0v1.642a1 1 0 0 1 -1 .995z"/><path d="m91.112 65.363h-1.641a1 1 0 0 1 0-2h1.641a1 1 0 0 1 0 2z"/><path d="m85.606 65.363h-1.642a1 1 0 0 1 0-2h1.642a1 1 0 0 1 0 2z"/></g><path d="m68.779 86.148a1 1 0 0 1 -1-1v-1.642a1 1 0 0 1 2 0v1.642a1 1 0 0 1 -1 1z" fill="#aae14e"/><path d="m68.779 91.654a1 1 0 0 1 -1-1v-1.641a1 1 0 0 1 2 0v1.641a1 1 0 0 1 -1 1z" fill="#aae14e"/><path d="m72.353 88.081h-1.642a1 1 0 0 1 0-2h1.642a1 1 0 0 1 0 2z" fill="#aae14e"/><path d="m66.847 88.081h-1.642a1 1 0 0 1 0-2h1.642a1 1 0 0 1 0 2z" fill="#aae14e"/><path d="m12.462 86.148a1 1 0 0 1 -1-1v-1.642a1 1 0 0 1 2 0v1.642a1 1 0 0 1 -1 1z" fill="#e80707"/><path d="m12.462 91.654a1 1 0 0 1 -1-1v-1.641a1 1 0 0 1 2 0v1.641a1 1 0 0 1 -1 1z" fill="#e80707"/><path d="m16.036 88.081h-1.642a1 1 0 0 1 0-2h1.642a1 1 0 0 1 0 2z" fill="#e80707"/><path d="m10.529 88.081h-1.641a1 1 0 0 1 0-2h1.641a1 1 0 0 1 0 2z" fill="#e80707"/><path d="m27.633 69.131a1 1 0 0 1 -1-1v-1.642a1 1 0 0 1 2 0v1.642a1 1 0 0 1 -1 1z" fill="#f4ed08"/><path d="m27.633 74.637a1 1 0 0 1 -1-1v-1.637a1 1 0 0 1 2 0v1.641a1 1 0 0 1 -1 .996z" fill="#f4ed08"/><path d="m31.207 71.063h-1.642a1 1 0 1 1 0-2h1.642a1 1 0 1 1 0 2z" fill="#f4ed08"/><path d="m25.7 71.063h-1.641a1 1 0 1 1 0-2h1.641a1 1 0 1 1 0 2z" fill="#f4ed08"/><rect fill="#d6d6d6" height="51.007" rx="5.427" width="78.829" x="10.529" y="6.012"/><path d="m89.358 11.439v.395h-78.829v-.395a5.427 5.427 0 0 1 5.427-5.427h67.975a5.427 5.427 0 0 1 5.427 5.427z" fill="#aaa"/><path d="m33.139 11.834h-22.61v-.395a5.427 5.427 0 0 1 5.427-5.427h10.48a6.055 6.055 0 0 1 5.364 3.25z" fill="#52abdb"/><rect fill="#fff" height="6.294" rx="3.147" width="47.786" x="26.281" y="20.554"/><path d="m21.834 45.723h-7.5a1 1 0 0 1 0-2h7.5a1 1 0 1 1 0 2z" fill="#555"/><path d="m25.054 49.291h-10.722a1 1 0 0 1 0-2h10.722a1 1 0 1 1 0 2z" fill="#555"/><path d="m29.788 52.859h-15.456a1 1 0 0 1 0-2h15.456a1 1 0 1 1 0 2z" fill="#555"/><path d="m84.785 30.328a1 1 0 0 1 -1-1v-9.193a1 1 0 0 1 2 0v9.193a1 1 0 0 1 -1 1z" fill="#efefef"/><path d="m84.785 37.642a1 1 0 0 1 -1-1v-3.673a1 1 0 1 1 2 0v3.673a1 1 0 0 1 -1 1z" fill="#efefef"/><rect fill="#aaa" height="6.609" rx="3.305" width="22.081" x="38.903" y="61.059"/><path d="m58.281 50.168h-16.674l-11.819 10.891h11.819 16.674 11.819z" fill="#d7579e"/><path d="m58.281 61.059h-16.674v-11.768a19.928 19.928 0 0 1 6.893-15.073l1.445-1.249 1.444 1.249a19.929 19.929 0 0 1 6.893 15.073z" fill="#52abdb"/><path d="m44.588 81.438a3.113 3.113 0 0 1 -3.109-3.109 1 1 0 0 1 2 0 1.109 1.109 0 0 0 2.218 0v-7.629a1 1 0 0 1 2 0v7.629a3.113 3.113 0 0 1 -3.109 3.109z" fill="#555"/><path d="m48.3 94.988a2.881 2.881 0 0 1 -2.878-2.879 1 1 0 0 1 2 0 .878.878 0 1 0 1.756 0v-21.409a1 1 0 0 1 2 0v21.409a2.881 2.881 0 0 1 -2.878 2.879z" fill="#555"/><path d="m55.53 86.507a2.881 2.881 0 0 1 -2.878-2.878v-12.929a1 1 0 0 1 2 0v12.929a.878.878 0 1 0 1.756 0 1 1 0 0 1 2 0 2.881 2.881 0 0 1 -2.878 2.878z" fill="#555"/><rect fill="#5d58d6" height="10.89" rx="2.836" width="5.673" x="47.107" y="44.723"/></g></svg>