<svg height="496pt" viewBox="0 0 496 496" width="496pt" xmlns="http://www.w3.org/2000/svg"><path d="m394.878906 169.519531 22.640625-22.640625-6.160156-10.878906h76.640625v64h-112v-39.601562c.558594-.238282 1.039062-.476563 1.601562-.71875zm0 0" fill="#b4dd7f"/><path d="m293.121094 169.519531 17.277344-9.839843c.5625.242187 1.042968.480468 1.601562.71875v39.601562h-304v-64h268.640625l-6.160156 10.878906zm0 0" fill="#b4dd7f"/><path d="m8 200h304v72l32 48 32-48v-72h112v288h-480zm0 0" fill="#e6e9ed"/><g fill="#fcd770"><path d="m432 80v32l-19.199219 5.28125c-1.359375 4.238281-3.039062 8.398438-5.121093 12.320312l3.601562 6.398438h.078125l6.160156 10.878906-22.640625 22.640625-17.277344-9.839843c-.5625.242187-1.042968.480468-1.601562.71875v7.601562h-64v-7.601562c-.558594-.238282-1.039062-.476563-1.601562-.71875l-17.277344 9.839843-22.640625-22.640625 6.160156-10.878906h.078125l3.601562-6.398438c-2.082031-3.921874-3.761718-8.082031-5.121093-12.320312l-19.199219-5.28125v-32l19.199219-5.28125c1.359375-4.238281 3.039062-8.398438 5.121093-12.320312l-9.839843-17.277344 22.640625-22.640625 17.277344 9.839843c3.921874-2.082031 8.082031-3.761718 12.320312-5.121093l5.28125-19.199219h32l5.28125 19.199219c4.238281 1.359375 8.398438 3.039062 12.320312 5.121093l17.277344-9.839843 22.640625 22.640625-9.839843 17.277344c2.082031 3.921874 3.761718 8.082031 5.121093 12.320312zm-48 16c0-22.078125-17.921875-40-40-40s-40 17.921875-40 40 17.921875 40 40 40 40-17.921875 40-40zm0 0"/><path d="m344 168v104h-32v-104zm0 0"/><path d="m376 200v72h-32v-104h32zm0 0"/></g><path d="m376 272-32 48-32-48zm0 0" fill="#969faa"/><path d="m296 360h96v96h-96zm0 0" fill="#fcd770"/><path d="m176 268.800781v91.199219h-96v-96h96zm0 0" fill="#ff826e"/><path d="m344 144c26.472656 0 48-21.527344 48-48s-21.527344-48-48-48-48 21.527344-48 48 21.527344 48 48 48zm0-80c17.648438 0 32 14.351562 32 32s-14.351562 32-32 32-32-14.351562-32-32 14.351562-32 32-32zm0 0"/><path d="m417.265625 128c.605469-1.375 1.214844-2.761719 1.734375-4.152344l21-5.734375v-44.21875l-21-5.742187c-.6875-1.839844-1.457031-3.671875-2.28125-5.480469l10.800781-18.917969-31.261719-31.265625-18.921874 10.800781c-1.808594-.832031-3.632813-1.59375-5.480469-2.28125l-5.742188-21.007812h-44.21875l-5.742187 21c-1.839844.6875-3.671875 1.457031-5.480469 2.28125l-18.917969-10.800781-31.265625 31.261719 10.800781 18.921874c-.832031 1.808594-1.59375 3.632813-2.28125 5.480469l-21.007812 5.742188v44.21875l21 5.742187c.519531 1.390625 1.128906 2.769532 1.734375 4.152344h-270.734375v368h496v-368zm62.734375 64h-96v-19.480469l12.246094 6.992188 31.265625-31.265625-2.421875-4.246094h54.910156zm-118.945312 88-17.054688 25.574219-17.054688-25.574219zm6.945312-16h-16v-88h16zm-104-158.113281v-19.78125l17.542969-4.808594 1.289062-4.191406c1.152344-3.714844 2.6875-7.402344 4.566407-10.953125l2.074218-3.886719-9.039062-15.839844 13.980468-13.984375 15.84375 9.039063 3.886719-2.074219c3.550781-1.878906 7.238281-3.421875 10.953125-4.566406l4.191406-1.289063 4.824219-17.550781h19.78125l4.808594 17.542969 4.191406 1.289062c3.714844 1.152344 7.402344 2.6875 10.953125 4.566407l3.886719 2.074218 15.839844-9.039062 13.984375 13.980468-9.039063 15.84375 2.074219 3.886719c1.878906 3.550781 3.421875 7.238281 4.566406 10.953125l1.289063 4.191406 17.550781 4.824219v19.78125l-17.542969 4.808594-1.289062 4.191406c-1.144531 3.699219-2.679688 7.386719-4.574219 10.960938l-2.066406 3.878906 9.039062 15.839844-13.980468 13.984375-12.027344-6.847656-4.238282-1.992188-9.320312 4.785156v4.496094h-48v-4.496094l-9.734375-4.976562-15.839844 9.039062-13.984375-13.980468 9.039063-15.84375-2.066407-3.878907c-1.894531-3.574219-3.4375-7.261719-4.574218-10.960937l-1.289063-4.191406zm-1.089844 38.113281-2.421875 4.246094 31.265625 31.265625 12.246094-6.992188v19.480469h-288v-48zm-246.910156 336v-272h304v-32h16v88h-16v-40h-16v50.425781l40 60 40-60v-66.425781h96v272zm0 0"/><path d="m32 160h16v16h-16zm0 0"/><path d="m64 160h16v16h-16zm0 0"/><path d="m96 160h16v16h-16zm0 0"/><path d="m184 271.359375 30.503906-42.710937-13.015625-9.296876-26.175781 36.648438h-103.3125v112h112zm-96 80.640625v-80h75.878906l-36.902344 51.664062-17.320312-17.320312-11.3125 11.3125 30.679688 30.679688 38.976562-54.566407v58.230469zm0 0"/><path d="m288 464h112v-112h-112zm16-96h80v80h-80zm0 0"/><path d="m362.34375 378.34375-18.34375 18.34375-18.34375-18.34375-11.3125 11.3125 18.34375 18.34375-18.34375 18.34375 11.3125 11.3125 18.34375-18.34375 18.34375 18.34375 11.3125-11.3125-18.34375-18.34375 18.34375-18.34375zm0 0"/><path d="m32 384h16v16h-16zm0 0"/><path d="m64 384h160v16h-160zm0 0"/><path d="m32 416h192v16h-192zm0 0"/><path d="m32 448h160v16h-160zm0 0"/><path d="m208 448h16v16h-16zm0 0"/></svg>