<?xml version="1.0" encoding="iso-8859-1"?>
<!-- Generator: Adobe Illustrator 19.0.0, SVG Export Plug-In . SVG Version: 6.00 Build 0)  -->
<svg version="1.1" id="Capa_1" xmlns="http://www.w3.org/2000/svg" xmlns:xlink="http://www.w3.org/1999/xlink" x="0px" y="0px"
	 viewBox="0 0 512 512" style="enable-background:new 0 0 512 512;" xml:space="preserve">
<rect y="51.2" style="fill:#FFFFFF;" width="512" height="460.8"/>
<rect style="fill:#91D3D9;" width="512" height="25.6"/>
<rect y="25.6" style="fill:#E6E5E5;" width="512" height="25.597"/>
<rect x="44.375" y="33.28" style="fill:#FFFFFF;" width="423.27" height="10.235"/>
<rect y="12.8" style="fill:#F68360;" width="44.375" height="12.8"/>
<rect x="44.375" y="12.8" style="fill:#E6E5E5;" width="105.805" height="12.8"/>
<rect x="150.19" y="12.8" style="fill:#D9D8D7;" width="105.805" height="12.8"/>
<g>
	<rect x="25.249" y="33.28" style="fill:#CCCBCA;" width="10.23" height="10.235"/>
	<rect x="8.891" y="33.28" style="fill:#CCCBCA;" width="10.237" height="10.235"/>
	<rect x="492.877" y="33.28" style="fill:#CCCBCA;" width="10.237" height="10.235"/>
	<rect x="476.518" y="33.28" style="fill:#CCCBCA;" width="10.24" height="10.235"/>
</g>
<rect x="44.375" y="115.2" style="fill:#E6E5E5;" width="423.27" height="396.8"/>
<rect x="44.375" y="472.627" style="fill:#656A73;" width="423.27" height="39.36"/>
<g>
	<rect x="124.68" y="483.533" style="fill:#CCCBCA;" width="44.265" height="1.71"/>
	<rect x="124.68" y="488.832" style="fill:#CCCBCA;" width="44.265" height="1.708"/>
	<rect x="135.731" y="499.379" style="fill:#CCCBCA;" width="22.134" height="1.713"/>
	<rect x="124.68" y="494.106" style="fill:#CCCBCA;" width="44.265" height="1.71"/>
	<rect x="197.478" y="483.533" style="fill:#CCCBCA;" width="44.265" height="1.71"/>
	<rect x="197.478" y="488.832" style="fill:#CCCBCA;" width="44.265" height="1.708"/>
	<rect x="208.538" y="499.379" style="fill:#CCCBCA;" width="22.134" height="1.713"/>
	<rect x="197.478" y="494.106" style="fill:#CCCBCA;" width="44.265" height="1.71"/>
	<rect x="270.259" y="483.533" style="fill:#CCCBCA;" width="44.265" height="1.71"/>
	<rect x="270.259" y="488.832" style="fill:#CCCBCA;" width="44.265" height="1.708"/>
	<rect x="281.344" y="499.379" style="fill:#CCCBCA;" width="22.134" height="1.713"/>
	<rect x="270.259" y="494.106" style="fill:#CCCBCA;" width="44.265" height="1.71"/>
	<rect x="343.066" y="483.533" style="fill:#CCCBCA;" width="44.265" height="1.71"/>
	<rect x="343.066" y="488.832" style="fill:#CCCBCA;" width="44.265" height="1.708"/>
	<rect x="354.125" y="499.379" style="fill:#CCCBCA;" width="22.134" height="1.713"/>
	<rect x="343.066" y="494.106" style="fill:#CCCBCA;" width="44.265" height="1.71"/>
</g>
<rect x="44.375" y="51.2" style="fill:#656A73;" width="423.27" height="39.36"/>
<rect x="55.127" y="60.641" style="fill:#FFB959;" width="107.853" height="20.48"/>
<g>
	<rect x="285.363" y="67.046" style="fill:#FFFFFF;" width="60.244" height="7.68"/>
	<rect x="354.765" y="67.046" style="fill:#FFFFFF;" width="60.244" height="7.68"/>
</g>
<rect x="424.192" y="67.046" style="fill:#FFB959;" width="32.694" height="7.68"/>
<rect x="44.375" y="90.547" style="fill:#CCCBCA;" width="423.27" height="24.64"/>
<g>
	<rect x="104.62" y="90.547" style="fill:#474F59;" width="60.244" height="24.64"/>
	<rect x="55.127" y="101.312" style="fill:#474F59;" width="38.733" height="3.136"/>
	<rect x="175.616" y="101.312" style="fill:#474F59;" width="38.733" height="3.136"/>
	<rect x="235.853" y="101.312" style="fill:#474F59;" width="38.733" height="3.136"/>
	<rect x="296.115" y="101.312" style="fill:#474F59;" width="38.733" height="3.136"/>
</g>
<rect x="44.375" y="139.84" style="fill:#F2F2F2;" width="423.27" height="135.491"/>
<rect x="44.375" y="165.35" style="fill:#656A73;" width="118.605" height="84.48"/>
<rect x="65.283" y="186.214" style="fill:#FFB959;" width="76.795" height="10.54"/>
<g>
	<rect x="65.283" y="204.314" style="fill:#FFFFFF;" width="76.795" height="3.174"/>
	<rect x="65.283" y="215.04" style="fill:#FFFFFF;" width="76.795" height="3.174"/>
	<rect x="65.283" y="225.792" style="fill:#FFFFFF;" width="38.385" height="3.174"/>
</g>
<rect x="346.547" y="165.35" style="fill:#FF9978;" width="89.6" height="51.2"/>
<g>
	<rect x="256" y="230.63" style="fill:#656A73;" width="180.147" height="19.2"/>
	<rect x="256" y="165.35" style="fill:#656A73;" width="76.795" height="5.338"/>
</g>
<g>
	<rect x="256" y="180.634" style="fill:#CCCBCA;" width="76.795" height="5.338"/>
	<rect x="256" y="195.917" style="fill:#CCCBCA;" width="76.795" height="5.338"/>
	<rect x="256" y="211.2" style="fill:#CCCBCA;" width="38.397" height="5.338"/>
</g>
<g>
	<rect x="44.375" y="299.981" style="fill:#F2F2F2;" width="130.555" height="172.672"/>
	<rect x="190.72" y="299.981" style="fill:#F2F2F2;" width="130.555" height="172.672"/>
	<rect x="337.075" y="299.981" style="fill:#F2F2F2;" width="130.555" height="172.672"/>
</g>
<rect x="69.555" y="408.243" style="fill:#656A73;" width="80.205" height="8.899"/>
<g>
	<rect x="69.555" y="425.293" style="fill:#CCCBCA;" width="80.205" height="2.824"/>
	<rect x="69.555" y="434.611" style="fill:#CCCBCA;" width="80.205" height="2.826"/>
	<rect x="89.07" y="443.93" style="fill:#CCCBCA;" width="41.165" height="2.826"/>
</g>
<g>
	<rect x="81.644" y="325.862" style="fill:#656A73;" width="56.023" height="56.026"/>
	<rect x="215.885" y="408.243" style="fill:#656A73;" width="80.205" height="8.899"/>
</g>
<g>
	<rect x="215.885" y="425.293" style="fill:#CCCBCA;" width="80.205" height="2.824"/>
	<rect x="215.885" y="434.611" style="fill:#CCCBCA;" width="80.205" height="2.826"/>
	<rect x="235.418" y="443.93" style="fill:#CCCBCA;" width="41.165" height="2.826"/>
</g>
<rect x="227.994" y="325.862" style="fill:#FF9978;" width="56.023" height="56.026"/>
<rect x="362.24" y="408.243" style="fill:#656A73;" width="80.205" height="8.899"/>
<g>
	<rect x="362.24" y="425.293" style="fill:#CCCBCA;" width="80.205" height="2.824"/>
	<rect x="362.24" y="434.611" style="fill:#CCCBCA;" width="80.205" height="2.826"/>
	<rect x="381.773" y="443.93" style="fill:#CCCBCA;" width="41.165" height="2.826"/>
</g>
<rect x="374.349" y="325.862" style="fill:#FFB959;" width="56.023" height="56.026"/>
<g>
</g>
<g>
</g>
<g>
</g>
<g>
</g>
<g>
</g>
<g>
</g>
<g>
</g>
<g>
</g>
<g>
</g>
<g>
</g>
<g>
</g>
<g>
</g>
<g>
</g>
<g>
</g>
<g>
</g>
</svg>
