<svg id="Layer_1" height="512" viewBox="0 0 64 64" width="512" xmlns="http://www.w3.org/2000/svg" data-name="Layer 1"><path d="m15 9h34v28h-34z" fill="#4f73a6"/><path d="m41 18.37-.824-.139a15.034 15.034 0 0 1 -8.176-4.231 15.034 15.034 0 0 1 -8.176 4.231l-.824.139a17.848 17.848 0 0 0 7.489 12.52l1.511 1.11 1.885-1.458a17.818 17.818 0 0 0 7.115-12.16z" fill="#ffcb52"/><path d="m31.584 27a.993.993 0 0 1 -.6-.2l-2.584-1.929 1.2-1.6 1.709 1.275 3.3-5.348 1.7 1.051-3.875 6.277a1 1 0 0 1 -.851.475z" fill="#5a6c80"/><g fill="#90aacc"><path d="m31 2h2v4h-2z"/><path d="m53 22h4v2h-4z"/><path d="m7 22h4v2h-4z"/><path d="m10 4h2v4h-2z" transform="matrix(.707 -.707 .707 .707 -1.021 9.536)"/><path d="m51 5h4v2h-4z" transform="matrix(.707 -.707 .707 .707 11.281 39.234)"/></g><path d="m60.324 39.707-.234-.207a1.982 1.982 0 0 0 -2.635 0l-9.33 8.323a9.935 9.935 0 0 1 -2.907 1.8l-7.124 2.877a1.982 1.982 0 0 1 -2.147-.443l-2.057-2.07 7.723-3.265a5.665 5.665 0 0 0 1.97-1.982 2 2 0 0 0 -2.05-3l-10.714 1.9a9.91 9.91 0 0 0 -3.545 1.369l-3.9 2.453a9.9 9.9 0 0 1 -5.274 1.522h-7.1v11.016l8.058-.811a9.9 9.9 0 0 1 3.724.335l3.8 1.092a9.926 9.926 0 0 0 2.73.384h5.409a9.9 9.9 0 0 0 4.116-.9l9.823-4.489a9.953 9.953 0 0 0 3.63-2.831l8.269-10.316a2.01 2.01 0 0 0 -.235-2.757z" fill="#ffc780"/><path d="m10 62h-7v-15h7a1 1 0 0 1 1 1v13a1 1 0 0 1 -1 1z" fill="#6c8099"/><path d="m6 56h2v2h-2z" fill="#485666"/></svg>