<svg id="OBJECT" height="512" viewBox="0 0 512 512" width="512" xmlns="http://www.w3.org/2000/svg"><path d="m271.15 271.16 176.78 176.77 56.57-14.14-197.99-197.99z" fill="#ffee80"/><path d="m276.2 306.51-20.2 20.2 177.79 177.79 14.14-56.57-176.78-176.77-15.15 15.15z" fill="#ff7d97"/><path d="m412.93 432.93 16-4 19 19-14.14 56.57-31-31z" fill="#ff5d7d"/><path d="m439.93 389.22-143.42-143.42 10-10 198 198-56.57 14.14-19-19a23.68 23.68 0 0 0 10.99-39.72z" fill="#ffea60"/><path d="m240.85 271.16-176.78 176.77-56.57-14.14 197.99-197.99z" fill="#ffee80"/><path d="m235.8 306.51 20.2 20.2-177.79 177.79-14.14-56.57 176.78-176.77 15.15 15.15z" fill="#ff7d97"/><path d="m99.07 432.93-16-4-19 19 14.14 56.57 31-31z" fill="#ff5d7d"/><path d="m72.07 389.22 143.42-143.42-10-10-198 198 56.57 14.14 19-19a23.68 23.68 0 0 1 -10.99-39.72z" fill="#ffea60"/><circle cx="256" cy="217.5" fill="#80b6ff" r="210"/><path d="m256 7.5a209.44 209.44 0 0 0 -155.8 69.2 209.25 209.25 0 0 1 140.8-54.2c116 0 210 94 210 210a209.25 209.25 0 0 1 -54.2 140.8 209.44 209.44 0 0 0 69.2-155.8c0-115.98-94-210-210-210z" fill="#60a4ff"/><circle cx="256" cy="217.5" fill="#faf7f5" r="170"/><path d="m256 47.5a169.61 169.61 0 0 0 -127.47 57.5 170 170 0 0 1 239.94 240 170 170 0 0 0 -112.47-297.5z" fill="#f5eeec"/><path d="m265.29 98.29 29.06 59.07a10.36 10.36 0 0 0 7.8 5.68l65 9.47a10.4 10.4 0 0 1 5.74 17.73l-47 46a10.39 10.39 0 0 0 -3 9.2l11.11 64.89a10.36 10.36 0 0 1 -15 10.95l-58.11-30.65a10.34 10.34 0 0 0 -9.64 0l-58.11 30.65a10.36 10.36 0 0 1 -15-10.95l11.09-64.92a10.39 10.39 0 0 0 -3-9.2l-47-46a10.4 10.4 0 0 1 5.74-17.73l65-9.47a10.36 10.36 0 0 0 7.8-5.68l29.06-59.07a10.35 10.35 0 0 1 18.46.03z" fill="#ffee80"/><g fill="#ffea60"><path d="m322.87 245.41a10.38 10.38 0 0 1 1.62-7.54l-13.64 13.34a10.39 10.39 0 0 0 -3 9.2l10.34 60.49.72.38a10.36 10.36 0 0 0 15-10.95z"/><path d="m194.85 178a10.36 10.36 0 0 0 7.8-5.68l4.38-8.91-62.15 9.06a10.42 10.42 0 0 0 -8.2 14z"/><path d="m367.12 172.51-65-9.47a10.36 10.36 0 0 1 -7.8-5.68l-29.03-59.07a10.35 10.35 0 0 0 -18.58 0l-4.57 9.28a10.2 10.2 0 0 1 8.15 5.72l29.06 59.07a10.36 10.36 0 0 0 7.8 5.68l65 9.47a10.39 10.39 0 0 1 7.1 16.07l13.64-13.34a10.4 10.4 0 0 0 -5.77-17.73z"/></g><path d="m509.8 428.49-80.08-80.08a217.52 217.52 0 0 0 -327.52-284.71 217.56 217.56 0 0 0 -19.92 284.71l-80.08 80.08a7.49 7.49 0 0 0 3.48 12.57l52.2 13.06 13.06 52.2a7.49 7.49 0 0 0 5.27 5.41 7.59 7.59 0 0 0 2 .27 7.47 7.47 0 0 0 5.3-2.2l90.67-90.66a219 219 0 0 0 163.64 0l90.67 90.66a7.47 7.47 0 0 0 5.3 2.2 7.59 7.59 0 0 0 2-.27 7.49 7.49 0 0 0 5.27-5.41l13.06-52.2 52.2-13.06a7.49 7.49 0 0 0 3.48-12.57zm-487.63 1.24 69.61-69.61q5 5.73 10.42 11.18 7 7 14.58 13.31l-55 55zm60.1 60.1-9.9-39.6 56.34-56.33a216.26 216.26 0 0 0 30.84 18.66zm-28.77-272.33c0-111.66 90.84-202.5 202.5-202.5s202.5 90.84 202.5 202.5-90.84 202.5-202.5 202.5-202.5-90.84-202.5-202.5zm376.23 272.33-77.28-77.27a216.26 216.26 0 0 0 30.84-18.66l56.34 56.33zm20.5-50.2-55-55q7.53-6.3 14.58-13.31 5.43-5.44 10.42-11.18l69.61 69.61z"/><path d="m256 40c-97.87 0-177.5 79.63-177.5 177.5s79.63 177.5 177.5 177.5 177.5-79.63 177.5-177.5-79.63-177.5-177.5-177.5zm0 340c-89.6 0-162.5-72.9-162.5-162.5s72.9-162.5 162.5-162.5 162.5 72.9 162.5 162.5-72.9 162.5-162.5 162.5z"/><path d="m382.61 177.25a17.77 17.77 0 0 0 -14.41-12.16l-65-9.47a2.85 2.85 0 0 1 -2.15-1.57l-29.05-59.05a17.85 17.85 0 0 0 -32 0l-29.08 59a2.84 2.84 0 0 1 -2.15 1.58l-65 9.47a17.9 17.9 0 0 0 -9.9 30.51l47 46a2.9 2.9 0 0 1 .83 2.57l-11.1 64.91a17.87 17.87 0 0 0 25.92 18.86l58.12-30.65a2.8 2.8 0 0 1 2.64 0l58.12 30.65a17.87 17.87 0 0 0 25.92-18.86l-11.1-64.91a2.9 2.9 0 0 1 .83-2.57l47-46a17.8 17.8 0 0 0 4.56-18.31zm-15 7.63-47 46a17.92 17.92 0 0 0 -5.13 15.82l11.1 64.92a2.8 2.8 0 0 1 -1.15 2.85 2.75 2.75 0 0 1 -3 .21l-58.11-30.68a17.83 17.83 0 0 0 -16.64 0l-58.11 30.65a2.73 2.73 0 0 1 -3-.21 2.8 2.8 0 0 1 -1.15-2.85l11.1-64.92a17.92 17.92 0 0 0 -5.13-15.82l-47-46a2.83 2.83 0 0 1 -.73-3 2.8 2.8 0 0 1 2.31-2l65-9.47a17.85 17.85 0 0 0 13.44-9.79l29.06-59.07a2.85 2.85 0 0 1 5.12 0l29.06 59.07a17.85 17.85 0 0 0 13.44 9.79l65 9.47a2.8 2.8 0 0 1 2.31 2 2.83 2.83 0 0 1 -.78 3.03z"/></svg>