<svg id="Fill_Outline" height="512" viewBox="0 0 64 64" width="512" xmlns="http://www.w3.org/2000/svg"><g id="Color"><g><g><circle cx="32" cy="29" fill="#fd9" r="14"/><path d="m32 43c5.968 0 11.05-3.741 13.064-9h-5.064c-8.837 0-16.321-5.738-18.967-13.686-1.894 2.388-3.033 5.401-3.033 8.686 0 7.732 6.268 14 14 14z" fill="#ffc857"/><g><path d="m41 34-9 5-9-5v-10l9-5 9 5z" fill="#a2bdcd"/><path d="m23 24.498v9.502l9 5 9-5h-1c-7.19 0-13.475-3.807-17-9.502z" fill="#769fb6"/><path d="m31 35 5-6 5 5-9 5z" fill="#83ae9b"/><path d="m32.923 32.693-1.923 2.307 1 4 9-5h-1c-2.495 0-4.876-.471-7.077-1.307z" fill="#61947d"/><path d="m28 27-5 7 9 5 4.533-2.518z" fill="#a9c7b9"/><path d="m33.23 32.811c-2.447-.885-4.668-2.234-6.565-3.942l-3.665 5.131 9 5 4.533-2.518z" fill="#83ae9b"/><circle cx="33" cy="24" fill="#ffc857" r="2"/><circle cx="33" cy="24" fill="#ffb41f" r="1"/></g></g><g><path d="m3 61h15v-12h-15l3 6z" fill="#769fb6"/><path d="m8 54.603v-2.603c0-1.094-.298-2.117-.809-3h10.809v12h-15l2.087-1.252c1.807-1.085 2.913-3.038 2.913-5.145z" fill="#608ea9"/><path d="m18 61v-5h-8z" fill="#4f7992"/><path d="m61 61h-15v-12h15l-3 6z" fill="#769fb6"/><path d="m56 54.603v-2.603c0-1.094.298-2.117.809-3h-10.809v12h15l-2.087-1.252c-1.807-1.085-2.913-3.038-2.913-5.145z" fill="#608ea9"/><path d="m10 40h44v16h-44z" fill="#a2bdcd"/><path d="m24 48c-4.632 0-8.443-3.501-8.941-8h-5.059v16h44v-8z" fill="#769fb6"/><path d="m46 61v-5h8z" fill="#4f7992"/></g><path d="m32 3 1.317 2.669 2.946.428-2.132 2.078.504 2.934-2.635-1.386-2.635 1.386.504-2.934-2.132-2.078 2.946-.428z" fill="#fd9"/><path d="m32 3 .317 4.669 3.946-1.572-2.132 2.078.504 2.934-2.635-1.386-2.635 1.386.504-2.934-2.132-2.078 2.946-.428z" fill="#ffc857"/><path d="m32.317 7.669-2.952 3.44.504-2.934-2.132-2.078z" fill="#ffb41f"/><path d="m16.589 8.059 2.644 1.369 2.626-1.401-.486 2.937 2.144 2.064-2.942.446-1.301 2.678-1.334-2.662-2.948-.41 2.119-2.09z" fill="#fd9"/><path d="m16.589 8.059 3.024 3.573 2.246-3.605-.486 2.937 2.144 2.064-2.942.446-1.301 2.678-1.334-2.662-2.948-.41 2.119-2.09z" fill="#ffc857"/><path d="m19.613 11.632-.339 4.52-1.334-2.662-2.948-.41z" fill="#ffb41f"/><path d="m7.441 20.465 2.953-.368 1.372-2.642 1.263 2.696 2.936.487-2.173 2.034.443 2.944-2.606-1.439-2.662 1.332.563-2.923z" fill="#fd9"/><path d="m7.441 20.465 4.514 1.233-.189-4.243 1.263 2.696 2.936.487-2.173 2.034.443 2.944-2.606-1.439-2.662 1.332.563-2.923z" fill="#ffc857"/><path d="m11.955 21.698 2.28 3.918-2.606-1.439-2.662 1.332z" fill="#ffb41f"/><path d="m47.411 8.059-.522 2.931 2.119 2.09-2.948.41-1.334 2.662-1.301-2.678-2.942-.446 2.144-2.064-.486-2.937 2.626 1.401z" fill="#fd9"/><path d="m47.411 8.059-2.512 3.949 4.109 1.072-2.948.41-1.334 2.662-1.301-2.678-2.942-.446 2.144-2.064-.486-2.937 2.626 1.401z" fill="#ffc857"/><path d="m44.899 12.008-4.416 1.02 2.144-2.064-.486-2.937z" fill="#ffb41f"/><path d="m56.559 20.465-2.089 2.121.563 2.923-2.662-1.332-2.606 1.439.443-2.944-2.173-2.034 2.936-.487 1.263-2.696 1.372 2.642z" fill="#fd9"/><path d="m56.559 20.465-4.306 1.833 2.78 3.211-2.662-1.332-2.606 1.439.443-2.944-2.173-2.034 2.936-.487 1.263-2.696 1.372 2.642z" fill="#ffc857"/><path d="m52.253 22.298-4.218-1.66 2.936-.487 1.263-2.696z" fill="#ffb41f"/></g></g><g id="Outline_copy"><g fill="#464a51"><path d="m59.118 55 2.776-5.553c.155-.31.139-.678-.044-.973s-.503-.474-.85-.474h-6v-8c0-.553-.447-1-1-1h-10.862c2.465-2.73 3.862-6.255 3.862-10 0-3.259-1.033-6.364-2.989-8.979-.331-.442-.956-.534-1.399-.202-.442.331-.533.957-.202 1.399 1.694 2.267 2.59 4.958 2.59 7.782 0 3.894-1.726 7.523-4.731 10h-6.21l7.427-4.126c.317-.176.514-.511.514-.874v-10c0-.363-.197-.698-.515-.874l-9-5c-.301-.168-.67-.168-.971 0l-9 5c-.483.269-.657.877-.389 1.359s.878.658 1.359.389l8.516-4.73 1.711.951c-.229-.057-.465-.095-.711-.095-1.654 0-3 1.346-3 3s1.346 3 3 3 3-1.346 3-3c0-.831-.34-1.583-.888-2.127l4.888 2.716v6.997l-3.293-3.293c-.198-.199-.473-.314-.752-.292-.281.013-.544.143-.724.359l-2.241 2.69-4.247-4.719c-.203-.225-.48-.342-.8-.329-.303.017-.581.17-.757.417l-3.186 4.461v-2.88c0-.553-.447-1-1-1s-1 .447-1 1v6c0 .363.197.698.515.874l7.426 4.126h-6.218c-3-2.494-4.723-6.124-4.723-10 0-7.168 5.832-13 13-13 2.824 0 5.515.896 7.781 2.591.442.332 1.069.239 1.399-.202.331-.442.24-1.068-.202-1.399-2.614-1.957-5.718-2.99-8.978-2.99-8.271 0-15 6.729-15 15 0 3.735 1.397 7.26 3.864 10h-10.864c-.553 0-1 .447-1 1v8h-6c-.347 0-.668.18-.851.475s-.199.663-.044.973l2.777 5.552-2.776 5.553c-.155.31-.139.678.044.973s.503.474.85.474h15c.553 0 1-.447 1-1v-4h3c.553 0 1-.447 1-1s-.447-1-1-1h-11v-14h42v14h-27c-.553 0-1 .447-1 1s.447 1 1 1h19v4c0 .553.447 1 1 1h11c.553 0 1-.447 1-1s-.447-1-1-1h-7.513l5.044-3.152c.291-.183.469-.503.469-.848v-6h4.382l-2.276 4.553c-.141.281-.141.613 0 .895l3 6c.175.35.528.552.895.552.15 0 .303-.034.446-.105.494-.247.694-.848.447-1.342zm-26.118-30c-.552 0-1-.448-1-1s.448-1 1-1 1 .448 1 1-.448 1-1 1zm3.067 5.481 3.288 3.288-2.612 1.451-2.402-2.669zm-7.977-1.886 6.86 7.622-2.95 1.639-7.535-4.187zm-21.195 26.852c.141-.281.141-.613 0-.895l-2.277-4.552h4.382v6c0 .345.178.665.47.848l5.044 3.152h-9.896zm10.105 3.748-3.513-2.195h3.513zm33.513-2.195-3.513 2.196v-2.196z"/><path d="m16 43h-2c-.553 0-1 .447-1 1v8c0 .553.447 1 1 1h2c1.654 0 3-1.346 3-3 0-.771-.301-1.468-.78-2 .48-.532.78-1.229.78-2 0-1.654-1.346-3-3-3zm-1 2h1c.552 0 1 .448 1 1s-.448 1-1 1h-1zm1 6h-1v-2h1c.552 0 1 .448 1 1s-.448 1-1 1z"/><path d="m25 52c0 .553.447 1 1 1s1-.447 1-1v-2c0-.771-.301-1.468-.78-2 .48-.532.78-1.229.78-2 0-1.654-1.346-3-3-3h-2c-.553 0-1 .447-1 1v8c0 .553.447 1 1 1s1-.447 1-1v-3h1c.552 0 1 .448 1 1zm-2-5v-2h1c.552 0 1 .448 1 1s-.448 1-1 1z"/><path d="m34 53c.553 0 1-.447 1-1v-6c0-1.654-1.346-3-3-3s-3 1.346-3 3v6c0 .553.447 1 1 1s1-.447 1-1v-2h2v2c0 .553.447 1 1 1zm-3-5v-2c0-.552.448-1 1-1s1 .448 1 1v2z"/><path d="m39 52v-3.764l2.105 4.211c.172.345.523.553.895.553.076 0 .153-.009.229-.026.452-.108.771-.51.771-.974v-8c0-.553-.447-1-1-1s-1 .447-1 1v3.764l-2.105-4.211c-.207-.416-.676-.631-1.124-.526-.452.107-.771.509-.771.973v8c0 .553.447 1 1 1s1-.447 1-1z"/><path d="m48 53c1.654 0 3-1.346 3-3v-4c0-1.654-1.346-3-3-3h-2c-.553 0-1 .447-1 1v8c0 .553.447 1 1 1zm-1-8h1c.552 0 1 .448 1 1v4c0 .552-.448 1-1 1h-1z"/><path d="m28.794 8.524-.414 2.415c-.064.375.09.754.397.978.31.225.719.254 1.053.076l2.17-1.14 2.17 1.14c.146.077.306.115.465.115.207 0 .414-.064.588-.191.308-.224.462-.603.397-.978l-.414-2.415 1.755-1.711c.272-.266.37-.663.253-1.024-.117-.362-.431-.626-.808-.681l-2.425-.354-1.085-2.197c-.336-.684-1.457-.684-1.793 0l-1.085 2.197-2.425.354c-.377.055-.69.318-.808.681-.117.361-.02.759.253 1.024zm2.032-1.866c.326-.047.607-.252.753-.547l.421-.851.421.852c.146.295.427.5.753.547l.94.138-.681.663c-.235.229-.343.561-.287.885l.16.938-.842-.442c-.145-.079-.304-.117-.464-.117s-.319.038-.465.115l-.842.442.16-.938c.056-.324-.052-.655-.287-.885l-.681-.663z"/><path d="m40.256 13.975 2.425.354 1.082 2.199c.168.342.516.559.896.559h.001c.38 0 .728-.216.896-.557l1.087-2.197 2.426-.351c.377-.054.69-.317.809-.68.117-.361.02-.759-.253-1.025l-1.753-1.712.416-2.415c.064-.375-.089-.755-.396-.979s-.716-.252-1.054-.077l-2.17 1.139-2.169-1.143c-.336-.177-.744-.147-1.053.075-.309.224-.463.603-.398.978l.412 2.416-1.757 1.709c-.272.266-.371.663-.254 1.025s.43.627.807.682zm2.975-2.349c.236-.229.344-.561.288-.885l-.159-.936.841.443c.29.154.639.153.931.001l.841-.441-.161.937c-.056.324.051.655.287.886l.68.663-.94.137c-.326.047-.607.251-.754.546l-.421.852-.42-.853c-.146-.296-.427-.5-.753-.548l-.94-.138z"/><path d="m47.048 20.297c-.109.364-.002.76.277 1.019l1.795 1.669-.356 2.424c-.056.376.107.752.421.968.17.118.369.178.568.178.167 0 .335-.042.486-.126l2.142-1.191 2.195 1.088c.341.171.748.132 1.051-.101.303-.231.448-.613.375-.987l-.472-2.405 1.714-1.752c.267-.272.354-.672.229-1.031-.126-.358-.445-.615-.823-.661l-2.433-.294-1.137-2.172c-.177-.337-.536-.536-.909-.536-.381.009-.724.233-.884.579l-1.032 2.224-2.416.409c-.376.062-.683.333-.791.698zm4.059.774c.325-.056.602-.267.74-.565l.4-.861.44.842c.152.291.438.489.766.529l.943.113-.664.68c-.23.235-.33.568-.267.892l.183.933-.852-.422c-.295-.147-.642-.138-.931.021l-.83.462.139-.939c.048-.325-.067-.654-.309-.878l-.696-.647z"/><path d="m14.931 13.982 2.426.351 1.087 2.197c.169.341.517.557.896.557h.001c.381 0 .729-.217.896-.559l1.082-2.199 2.425-.354c.377-.055.689-.319.807-.681.117-.362.019-.76-.254-1.025l-1.757-1.709.412-2.416c.064-.375-.09-.754-.398-.978-.307-.223-.715-.252-1.053-.075l-2.169 1.143-2.17-1.139c-.337-.174-.743-.147-1.054.077-.308.224-.461.604-.396.979l.416 2.415-1.753 1.712c-.272.267-.37.664-.253 1.025.118.362.432.626.809.679zm2.97-2.352c.236-.23.343-.562.287-.886l-.161-.937.841.441c.293.153.642.153.931-.001l.841-.443-.159.937c-.056.324.052.655.288.885l.682.663-.94.138c-.326.048-.607.252-.753.548l-.42.853-.421-.852c-.146-.295-.428-.499-.754-.546l-.94-.137z"/><path d="m8.47 22.831-.472 2.405c-.073.374.072.756.375.987.304.232.711.271 1.051.101l2.195-1.088 2.142 1.191c.151.084.319.126.486.126.199 0 .398-.06.568-.178.313-.216.477-.592.421-.968l-.356-2.424 1.795-1.669c.279-.259.387-.654.277-1.019-.108-.365-.415-.636-.791-.7l-2.416-.409-1.032-2.224c-.16-.346-.503-.57-.884-.579-.379-.007-.733.199-.909.536l-1.137 2.172-2.433.294c-.378.046-.697.303-.823.661-.126.359-.038.759.229 1.031zm2.076-1.815c.327-.04.613-.238.766-.529l.44-.842.4.861c.139.299.415.51.74.565l.937.158-.696.647c-.241.224-.356.553-.309.878l.139.939-.83-.462c-.151-.084-.318-.126-.486-.126-.152 0-.304.034-.444.104l-.852.422.183-.933c.063-.323-.036-.656-.267-.892l-.664-.68z"/></g></g></svg>