<?xml version="1.0" encoding="iso-8859-1"?>
<!-- Generator: Adobe Illustrator 19.0.0, SVG Export Plug-In . SVG Version: 6.00 Build 0)  -->
<svg version="1.1" id="Layer_1" xmlns="http://www.w3.org/2000/svg" xmlns:xlink="http://www.w3.org/1999/xlink" x="0px" y="0px"
	 viewBox="0 0 511.882 511.882" style="enable-background:new 0 0 511.882 511.882;" xml:space="preserve">
<path style="fill:#5D9CEC;" d="M511.882,405.235c0,5.89-4.781,10.669-10.654,10.669H10.669C4.78,415.904,0,411.125,0,405.235
	V106.647c0-5.889,4.78-10.669,10.669-10.669h490.559c5.873,0,10.654,4.78,10.654,10.669L511.882,405.235L511.882,405.235z"/>
<polygon style="fill:#E6E9ED;" points="42.662,266.611 91.408,185.348 140.163,266.611 "/>
<polygon style="fill:#F5F7FA;" points="83.285,266.611 148.286,152.855 213.286,266.611 "/>
<g>
	<path style="fill:#434A54;" d="M373.257,330.595h85.309c5.889,0,10.67-4.779,10.67-10.669s-4.781-10.669-10.67-10.669h-85.309
		c-5.904,0-10.67,4.779-10.67,10.669S367.353,330.595,373.257,330.595z"/>
	<path style="fill:#434A54;" d="M458.566,351.92H287.933c-5.889,0-10.654,4.779-10.654,10.669s4.766,10.653,10.654,10.653h170.633
		c5.889,0,10.67-4.764,10.67-10.653S464.455,351.92,458.566,351.92z"/>
</g>
<g>
</g>
<g>
</g>
<g>
</g>
<g>
</g>
<g>
</g>
<g>
</g>
<g>
</g>
<g>
</g>
<g>
</g>
<g>
</g>
<g>
</g>
<g>
</g>
<g>
</g>
<g>
</g>
<g>
</g>
</svg>
