<svg id="Layer_1" enable-background="new 0 0 468 468" height="512" viewBox="0 0 468 468" width="512" xmlns="http://www.w3.org/2000/svg"><g><g><g><path d="m3.908 136.871c-.913 0-1.737-.629-1.948-1.557-.6-2.639-1.069-5.36-1.393-8.088-.13-1.097.653-2.091 1.75-2.222 1.1-.112 2.092.653 2.222 1.751.308 2.588.752 5.169 1.321 7.672.281 1.235-.687 2.444-1.952 2.444zm-1.894-15.858h.037c1.104-.021 1.983-.932 1.963-2.036-.045-2.604.034-5.209.23-7.806.083-1.102-.741-2.063-1.843-2.146-1.115-.081-2.062.741-2.146 1.843-.207 2.721-.292 5.452-.241 8.181.02 1.092.912 1.964 2 1.964zm1.193-15.934c-1.215 0-2.173-1.123-1.976-2.323.43-2.63.98-5.317 1.636-7.988.263-1.073 1.347-1.726 2.419-1.466 1.073.263 1.729 1.346 1.466 2.419-.63 2.569-1.16 5.154-1.573 7.682-.161.98-1.01 1.676-1.972 1.676zm3.786-15.526c-1.336 0-2.313-1.343-1.904-2.613.811-2.521 1.732-5.096 2.738-7.65.404-1.027 1.566-1.535 2.593-1.129 1.028.405 1.533 1.566 1.128 2.594-.975 2.477-1.867 4.97-2.652 7.41-.272.847-1.058 1.388-1.903 1.388zm5.839-14.885c-1.438 0-2.415-1.536-1.815-2.838 1.107-2.4 2.313-4.845 3.583-7.266.514-.978 1.724-1.355 2.701-.841.978.513 1.354 1.722.841 2.7-1.239 2.36-2.414 4.743-3.492 7.082-.338.733-1.062 1.163-1.818 1.163z" fill="#bcbcbc"/></g><g><g><path d="m22.971 36.439v20.381l20.298.08 34.184-54.9z" fill="#cc91f2"/></g><g><path d="m67.559 8.255-30.275 48.622 5.985.023 34.184-54.9z" fill="#fff"/></g></g><path d="m43.269 56.9 34.184-54.9-18.93 69.745z" fill="#fff"/><g><path d="m22.971 36.439 54.482-34.439-68.826 18.352z" fill="#fff"/><path d="m79.44 2.203c.138-1.362-1.171-2.494-2.502-2.135l-68.826 18.351c-1.414.376-1.955 2.167-.978 3.264l13.837 15.519v19.618c0 1.102.891 1.995 1.992 2l19.489.078 14.675 14.281c1.078 1.049 2.934.534 3.325-.91l18.932-69.745c.027-.101.046-.218.056-.321zm-14.124 5.103-41.98 26.537-11.053-12.396zm-40.344 30.236 46.166-29.184-28.977 46.538-17.189-.068zm32.51 30.4-11.663-11.352 26.14-41.981z" fill="#333"/></g></g><g><g><path d="m464.092 136.871c-1.264 0-2.233-1.208-1.952-2.443.57-2.506 1.015-5.087 1.322-7.672.13-1.098 1.123-1.869 2.222-1.751 1.097.131 1.88 1.125 1.75 2.222-.323 2.725-.792 5.446-1.393 8.088-.211.927-1.036 1.556-1.949 1.556zm1.895-15.858c-.012 0-.024 0-.037 0-1.104-.021-1.983-.932-1.963-2.036.045-2.604-.034-5.209-.231-7.806-.083-1.102.741-2.062 1.843-2.146 1.096-.08 2.062.741 2.146 1.843.207 2.721.292 5.452.242 8.181-.02 1.092-.912 1.964-2 1.964zm-1.194-15.934c-.962 0-1.811-.696-1.971-1.677-.414-2.527-.943-5.112-1.573-7.682-.263-1.073.393-2.156 1.466-2.419 1.075-.26 2.157.393 2.419 1.466.655 2.671 1.206 5.358 1.636 7.988.196 1.201-.761 2.324-1.977 2.324zm-3.786-15.526c-.845 0-1.63-.54-1.903-1.389-.786-2.44-1.678-4.934-2.652-7.41-.405-1.027.101-2.188 1.128-2.594s2.189.102 2.593 1.129c1.006 2.555 1.927 5.129 2.738 7.65.409 1.27-.567 2.614-1.904 2.614zm-5.838-14.884c-.756 0-1.48-.431-1.817-1.162-1.081-2.342-2.255-4.725-3.493-7.082-.513-.979-.137-2.188.841-2.7.977-.516 2.186-.138 2.701.841 1.269 2.418 2.475 4.862 3.583 7.266.601 1.302-.377 2.837-1.815 2.837z" fill="#bcbcbc"/></g><g><g><path d="m445.029 36.439v20.381l-20.298.08-34.184-54.9z" fill="#ff80a4"/></g><g><path d="m402.09 9.297-11.543-7.297 34.184 54.9 6.983-.027z" fill="#fff"/></g></g><path d="m424.731 56.9-34.184-54.9 18.93 69.745z" fill="#fff"/><g><path d="m445.029 36.439-54.482-34.439 68.826 18.352z" fill="#fff"/><path d="m461.289 19.778c-.199-.665-.729-1.18-1.401-1.358l-68.826-18.352c-1.467-.387-2.835.998-2.445 2.456l18.931 69.744c.391 1.444 2.247 1.959 3.325.91l14.675-14.281 19.489-.078c1.102-.005 1.992-.898 1.992-2v-19.617l13.837-15.519c.462-.519.622-1.239.423-1.905zm-50.771 48.164-14.477-53.333 26.14 41.981zm15.321-13.046-28.977-46.538 46.167 29.183v17.286zm18.825-21.053-41.98-26.537 53.033 14.141z" fill="#333"/></g></g><g><g id="XMLID_21_"><g><g><path d="m254.185 256h-40.37c-5.523 0-10-4.477-10-10v-29.614h60.37v29.614c0 5.523-4.477 10-10 10z" fill="#eaeaea"/></g><g><path d="m254.185 256.049h-40.37c-5.523 0-10-4.477-10-10v-29.614h60.37v29.614c0 5.522-4.477 10-10 10z" fill="#eaeaea"/></g><g><path d="m260.185 250.049h-46.37c-2.209 0-4-1.791-4-4v-29.614h-6v29.614c0 5.523 4.477 10 10 10h40.37c4.329 0 8.004-2.756 9.396-6.604-1.062.383-2.202.604-3.396.604z" fill="#fff"/></g></g><g id="XMLID_28_"><g><path d="m234 29.091c-44.115 0-79.877 36.18-79.877 80.811 0 24.041 10.38 45.625 26.851 60.425 13.004 11.684 21.228 27.929 22.294 45.516h61.466c1.066-17.588 9.29-33.832 22.293-45.516 16.471-14.8 26.851-36.384 26.851-60.425-.001-44.631-35.763-80.811-79.878-80.811z" fill="#ffdc83"/></g></g><g id="XMLID_22_"><g id="XMLID_27_"><path d="m233.803 13.635c-1.104 0-2-.896-2-2v-9.635c0-1.104.896-2 2-2s2 .896 2 2v9.635c0 1.105-.895 2-2 2z" fill="#333"/></g><g id="XMLID_26_"><path d="m154.146 46.878c-.513 0-1.025-.196-1.416-.588l-6.795-6.813c-.78-.781-.778-2.048.003-2.828.782-.78 2.048-.778 2.829.004l6.795 6.813c1.226 1.228.329 3.412-1.416 3.412z" fill="#333"/></g><g id="XMLID_25_"><path d="m134.61 101.406h-9.61c-1.104 0-2-.896-2-2s.896-2 2-2h9.61c1.104 0 2 .896 2 2s-.896 2-2 2z" fill="#333"/></g><g id="XMLID_24_"><path d="m343 101.011h-9.61c-1.104 0-2-.896-2-2s.896-2 2-2h9.61c1.104 0 2 .896 2 2s-.896 2-2 2z" fill="#333"/></g><g id="XMLID_23_"><path d="m313.576 46.6c-1.745 0-2.641-2.184-1.416-3.412l6.795-6.813c.78-.781 2.047-.785 2.828-.004.782.78.784 2.046.004 2.828l-6.795 6.813c-.39.392-.903.588-1.416.588z" fill="#333"/></g></g><g><g><path d="m264.717 205.038h-61.433c-7.478 0-13.54 6.062-13.54 13.54 0 7.478 6.062 13.54 13.54 13.54h61.433c7.478 0 13.54-6.062 13.54-13.54 0-7.478-6.062-13.54-13.54-13.54z" fill="#eaeaea"/></g><g><path d="m265.717 226.119h-61.433c-7.21 0-13.087-5.639-13.5-12.745-.668 1.603-1.04 3.36-1.04 5.205 0 7.478 6.062 13.54 13.54 13.54h61.433c7.478 0 13.54-6.062 13.54-13.54 0-.268-.025-.53-.04-.795-2.04 4.893-6.867 8.335-12.5 8.335z" fill="#fff"/></g></g></g></g><g><g><g><g><path d="m291.462 404.673s5.321-47.845-34.431-51.402c0 0-61.76-6.841-74.998 13.616-9.292 14.358-5.795 52.423 0 59.231l103.975-.379z" fill="#6ad8db"/></g><g><path d="m188.033 366.887c7.528-11.633 30.745-14.438 49.375-14.693-19.288-.258-47.012 1.77-55.375 14.693-9.292 14.358-5.795 52.423 0 59.231l5.984-.022c-5.786-6.859-9.267-44.864.016-59.209z" fill="#fff"/></g></g><g fill="#ffcdbd"><path d="m234 377.247c-7.916 0-14.333-6.417-14.333-14.333v-30.726h28.667v30.726c-.001 7.916-6.418 14.333-14.334 14.333z"/><ellipse cx="234" cy="322.449" rx="28.636" ry="32.306"/></g></g><g><g><path d="m176.939 466h114.724c3.314 0 6-2.686 6-6v-68.081c0-3.318-2.694-6.007-6.012-6l-114.724.23c-3.309.007-5.988 2.691-5.988 6v67.851c0 3.314 2.686 6 6 6z" fill="#fff"/></g><g><path d="m234 438.172c-6.734 0-12.212-5.479-12.212-12.212s5.478-12.212 12.212-12.212 12.212 5.479 12.212 12.212-5.478 12.212-12.212 12.212zm0-20.424c-4.528 0-8.212 3.684-8.212 8.212s3.684 8.212 8.212 8.212 8.212-3.684 8.212-8.212-3.684-8.212-8.212-8.212z" fill="#333"/></g></g></g><g><g><g><path d="m459.35 245.729s5.714-51.162-36.975-54.965c0 0-66.322-7.315-80.539 14.56-9.978 15.354-6.223 56.057 0 63.337l111.656-.405z" fill="#cc91f2"/></g><g><path d="m348.151 205.324c8.093-12.454 33.072-15.445 53.09-15.713-20.71-.271-50.432 1.907-59.404 15.713-9.978 15.354-6.223 56.057 0 63.337l6.297-.023c-6.213-7.335-9.952-47.975.017-63.314z" fill="#fff"/></g></g><path d="m397.671 223.074-.048.034c-9.451-7.021-15.015-18.053-15.015-29.77v-14.888h30.784v14.341c0 12.024-5.857 23.305-15.721 30.283z" fill="#ffcdbd"/><g><path d="m336 322h124c3.314 0 6-2.686 6-6v-73.633c0-3.318-2.694-6.007-6.012-6l-124 .248c-3.309.007-5.988 2.691-5.988 6v73.385c0 3.314 2.686 6 6 6z" fill="#fff"/><g><path d="m398 292.104c-7.159 0-12.982-5.796-12.982-12.92s5.824-12.92 12.982-12.92 12.982 5.796 12.982 12.92-5.823 12.92-12.982 12.92zm0-21.84c-4.953 0-8.982 4.001-8.982 8.92s4.029 8.92 8.982 8.92 8.982-4.001 8.982-8.92-4.029-8.92-8.982-8.92z" fill="#333"/></g></g><ellipse cx="397.643" cy="155.455" fill="#ffcdbd" rx="30.751" ry="34.546"/></g><g><g><g><path d="m131.362 245.729s5.715-51.162-36.982-54.965c0 0-66.335-7.315-80.554 14.56-9.98 15.354-6.225 56.057 0 63.337l111.677-.405z" fill="#ff80a4"/></g><g><path d="m21.149 205.324c8.025-12.346 32.649-15.393 52.58-15.706-20.732-.311-50.859 1.792-59.903 15.706-9.98 15.354-6.225 56.057 0 63.337l7.303-.026c-6.212-7.344-9.949-47.974.02-63.311z" fill="#fff"/></g></g><path d="m54.605 197.548h30.79v40.74h-30.79z" fill="#fff"/><g><path d="m8 322h124c3.314 0 6-2.686 6-6v-73.633c0-3.318-2.694-6.007-6.012-6l-124 .248c-3.309.007-5.988 2.691-5.988 6v73.385c0 3.314 2.686 6 6 6z" fill="#fff"/></g><ellipse cx="69.643" cy="155.455" fill="#ffcdbd" rx="30.757" ry="34.546"/></g><g><path d="m142.718 462h-122.718c-3.314 0-6-2.686-6-6v-18c0-3.314 2.686-6 6-6h122.718z" fill="#6ad8db"/><g><path d="m61.359 439.941h60v14.118h-60z" fill="#fff"/></g><g><circle cx="35.359" cy="447.352" fill="#fff" r="6"/></g></g><g><g><path d="m141.984 402h-122c-3.314 0-6-2.686-6-6v-18c0-3.314 2.686-6 6-6h122z" fill="#cc91f2"/></g><g><path d="m61.098 379.941h59.638v14.118h-59.638z" fill="#fff"/></g><g><circle cx="35.232" cy="387.352" fill="#fff" r="6"/></g></g><g><g><g><path d="m130 432h-122c-3.314 0-6-2.686-6-6v-18c0-3.314 2.686-6 6-6h122z" fill="#ff80a4"/></g></g><g><path d="m49.114 409.941h59.638v14.118h-59.638z" fill="#fff"/></g><g><circle cx="23.248" cy="417.352" fill="#fff" r="6"/></g></g><g fill="#333"><path d="m70 291.396c-6.734 0-12.212-5.479-12.212-12.212s5.478-12.212 12.212-12.212 12.212 5.479 12.212 12.212-5.478 12.212-12.212 12.212zm0-20.424c-4.528 0-8.212 3.684-8.212 8.212s3.684 8.212 8.212 8.212 8.212-3.684 8.212-8.212-3.684-8.212-8.212-8.212z"/><path d="m297.315 386.258c-1.396-1.395-3.19-2.215-5.164-2.319-4.718-21.838-19.689-31.66-40.892-33.178 6.213-4.768 10.791-12.022 12.562-20.48 7.317-10.733 8.472-25.067 2.931-36.818 2.607-21.898-24.752-33.402-39.493-17.979-9.835 10.287-20.478.823-20.926.417-1.066-.78-2.05-.687-2.952.279-6.018 8.059-7.471 15.029-6.1 21.764-4.034 12.615-.899 26.81 8.044 36.57 2.273 6.751 6.416 12.461 11.692 16.419-15.334 1.491-30.58 5.469-36.663 14.869-2.994 4.626-4.726 11.332-5.542 18.645-3.38.936-5.873 4.033-5.873 7.703v67.85c0 4.411 3.589 8 8 8h114.725c4.411 0 8-3.589 8-8v-68.081c0-2.139-.834-4.149-2.349-5.661zm-89.951-63.809c0-2.122.195-4.193.561-6.194 15.64 10.5 35.485-2.947 44.117-16.076 15.919 16.709 8.157 52.577-18.042 52.577-14.687 0-26.636-13.596-26.636-30.307zm38.969 31.395v9.071c0 6.801-5.533 12.333-12.333 12.333s-12.333-5.532-12.333-12.333v-9.088c7.712 3.818 16.946 3.838 24.666.017zm-62.621 14.131c5.341-8.255 19.5-11.77 33.955-13.093v8.033c0 9.006 7.327 16.333 16.333 16.333s16.333-7.327 16.333-16.333v-8.186c19.231 1.274 33.083 9.281 37.675 29.198l-16.726.034v-8.442c0-1.104-.896-2-2-2s-2 .896-2 2v8.45l-66.564.134v-8.584c0-1.104-.896-2-2-2s-2 .896-2 2v8.592l-17.733.036c.755-6.508 2.249-12.344 4.727-16.172zm111.952 92.025c0 2.206-1.794 4-4 4h-114.725c-2.206 0-4-1.794-4-4v-67.85c0-2.201 1.791-3.995 3.992-4l114.724-.23c2.023 0 4.009 2.02 4.009 4z"/><path d="m465.651 236.704c-1.162-1.159-2.619-1.913-4.2-2.201-.892-13.915-5.499-28.696-16.899-37.578-.228-3.947-1.759-7.735-4.353-10.738 6.748-7.812 5.397-19.956-2.832-26.149 3.213-5.418 3.298-12.296.24-17.801-.823-21.222-18.428-38.237-39.963-38.237-10.591 0-24.964 4.075-27.37 16.022-9.889-2.31-12.633 17.655-12.633 23.776-2.277 5.216-1.922 11.325.992 16.24-8.229 6.193-9.58 18.337-2.832 26.149-2.166 2.507-3.594 5.563-4.141 8.8-4.936 2.332-8.967 5.348-11.499 9.246-5.361 8.249-6.407 21.928-6.467 30.725-3.289.994-5.694 4.051-5.694 7.657v73.385c0 4.411 3.589 8 8 8h124c4.411 0 8-3.589 8-8v-73.633c0-2.139-.834-4.151-2.349-5.663zm-90.317-101.724c2.974 5.241 7.274 10.203 11.333 13.667 9.948 8.49 26.119 15.115 39.352 12.031-2.214 15.471-14.092 27.323-28.375 27.323-15.854 0-28.751-14.601-28.751-32.547-.001-7.758 2.422-14.878 6.441-20.474zm36.058 53.617c.222 12.465-3.49 24.119-13.738 32.004-9.797-7.939-13.316-19.463-13.046-31.643 8.421 4.099 18.466 3.958 26.784-.361zm-67.878 17.816c1.809-2.784 4.57-5.057 7.967-6.921 1.384 16.029 22.518 22.203 32.442 9.504 2.708 6.156 6.985 11.616 12.506 15.717.736.546 1.67.426 2.399-.009 5.787-4.094 10.269-9.62 13.104-15.901 9.146 12.02 28.945 7.793 32.228-6.969 8.902 8.22 12.397 20.803 13.228 32.538l-19.5.039v-11.304c0-1.104-.896-2-2-2s-2 .896-2 2v11.312l-71.777.144v-11.456c0-1.104-.896-2-2-2s-2 .896-2 2v11.463l-20.487.041c.113-10.943 1.784-21.88 5.89-28.198zm120.486 109.587c0 2.206-1.794 4-4 4h-124c-2.206 0-4-1.794-4-4v-73.385c0-2.201 1.791-3.995 3.992-4l124-.248c2.023 0 4.008 2.02 4.008 4z"/><path d="m137.651 236.704c-1.16-1.157-2.613-1.91-4.19-2.2-1.07-16.715-7.756-34.277-23.807-41.823v-52.719c0-7.417-4.814-16.389-9.442-21.835-.929-.875-1.886-.936-2.872-.183.58-9.91-20.665-13.944-27.696-13.944-18.554 0-40.011 15.852-40.011 35.963v52.654c-7.656 2.53-13.988 6.239-17.483 11.617-5.361 8.247-6.408 21.93-6.468 30.728-3.283.997-5.682 4.052-5.682 7.653v73.385c0 4.411 3.589 8 8 8h124c4.411 0 8-3.589 8-8v-73.633c0-2.139-.834-4.151-2.349-5.663zm-18.354-31.562c7.234 8.838 9.497 20.663 10.105 29.231l-19.507.039v-11.304c0-1.104-.896-2-2-2s-2 .896-2 2v11.312l-18.5.037v-42.262c12.04.807 23.819 3.073 31.902 12.947zm-35.902-8.619c0 7.405-6.009 13.431-13.395 13.431s-13.395-6.025-13.395-13.431v-7.563c8.419 4.099 18.475 3.955 26.79-.36zm-13.395 17.43c5.383 0 10.202-2.464 13.395-6.324v26.835l-26.79.054v-26.889c3.193 3.86 8.012 6.324 13.395 6.324zm-25.257-52.726c18.757 1.615 38.103-10.189 47.216-26.251 4.02 5.597 6.441 12.72 6.441 20.479 0 17.946-12.9 32.547-28.757 32.547-14.284 0-26.154-11.853-28.371-27.321 1.091.253 2.246.44 3.471.546zm-29.24 45.186c8.119-12.49 24.882-10.523 37.102-14.58v42.693l-18.5.037v-11.456c0-1.104-.896-2-2-2s-2 .896-2 2v11.464l-20.492.041c.113-10.944 1.784-21.881 5.89-28.199zm120.497 109.587c0 2.206-1.794 4-4 4h-124c-2.206 0-4-1.794-4-4v-73.385c0-2.201 1.791-3.995 3.992-4l124-.248c2.023 0 4.008 2.02 4.008 4z"/><path d="m142.718 430h-10.718v-26h9.984c1.104 0 2-.896 2-2v-30c0-1.104-.896-2-2-2h-122c-4.411 0-8 3.589-8 8v18c0 1.458.398 2.822 1.082 4h-5.066c-4.411 0-8 3.589-8 8v18c0 4.411 3.589 8 8 8h5.082c-.684 1.178-1.082 2.542-1.082 4v18c0 4.411 3.589 8 8 8h122.718c1.104 0 2-.896 2-2v-30c0-1.104-.896-2-2-2zm-126.734-34v-18c0-2.206 1.794-4 4-4h120v26h-120c-2.206 0-4-1.794-4-4zm-11.984 30v-18c0-2.206 1.794-4 4-4h120v26h-120c-2.206 0-4-1.794-4-4zm136.718 34h-120.718c-2.206 0-4-1.794-4-4v-18c0-2.206 1.794-4 4-4h120.718z"/><path d="m264.717 203.038h-17.961v-73.708h10.363c7.786 0 14.365-6.599 14.363-14.394-.001-7.919-6.445-14.36-14.363-14.36-7.919 0-14.363 6.443-14.363 14.362v10.392h-17.677v-10.474c0-7.874-6.406-14.28-14.28-14.28s-14.28 6.406-14.28 14.28v.194c0 7.874 6.406 14.279 14.28 14.279h10.28v73.708h-17.795c-8.569 0-15.541 6.972-15.541 15.54 0 8.074 6.19 14.724 14.072 15.467v11.956c0 6.617 5.383 12 12 12h40.37c6.617 0 12-5.383 12-12v-11.955c7.882-.743 14.072-7.393 14.072-15.467 0-8.568-6.971-15.54-15.54-15.54zm-17.961-88.099c0-5.714 4.649-10.362 10.363-10.362 5.713 0 10.361 4.647 10.363 10.389.001 5.655-4.708 10.365-10.363 10.365h-10.363zm-35.957 10.391c-5.668 0-10.28-4.611-10.28-10.279v-.194c0-5.669 4.612-10.28 10.28-10.28s10.28 4.611 10.28 10.28v10.474h-10.28zm14.28 4h17.677v73.708h-17.677zm37.106 116.67c0 4.411-3.589 8-8 8h-40.37c-4.411 0-8-3.589-8-8v-11.881h56.37zm2.532-15.881h-61.434c-6.363 0-11.541-5.178-11.541-11.541s5.177-11.54 11.541-11.54h61.434c6.363 0 11.541 5.177 11.541 11.54s-5.178 11.541-11.541 11.541z"/></g><g><g><g><path d="m402.698 426.401 23.509 22.997-8.162-31.858c-6.722-26.24-20.295-50.285-39.587-69.3-7.23-7.126-13.667-11.962-16.587-10.276-2.921 1.686-1.951 9.678.605 19.503 6.821 26.215 20.858 49.992 40.222 68.934z" fill="#bcbcbc"/></g><g><path d="m418.899 438.739c-.691 0-1.364-.358-1.734-1l-44.118-76.414c-.552-.957-.225-2.18.732-2.732s2.18-.225 2.732.732l44.118 76.414c.552.957.225 2.18-.732 2.732-.314.182-.658.268-.998.268z" fill="#aaa"/></g></g><g><g><path d="m425.379 426.401-23.509 22.997 8.162-31.858c6.722-26.24 20.296-50.285 39.587-69.3 7.23-7.126 13.667-11.962 16.588-10.276s1.951 9.678-.605 19.503c-6.822 26.215-20.859 49.992-40.223 68.934z" fill="#bcbcbc"/></g><g><path d="m409.178 438.739c-.339 0-.683-.086-.998-.268-.957-.553-1.284-1.775-.732-2.732l44.118-76.414c.552-.957 1.775-1.284 2.732-.732.957.553 1.284 1.775.732 2.732l-44.118 76.414c-.37.641-1.043 1-1.734 1z" fill="#aaa"/></g></g><g><g><path d="m405.178 416.347 8.861 31.671 8.861-31.671c7.298-26.086 7.566-53.696.367-79.81-2.698-9.787-5.855-17.193-9.227-17.193-3.373 0-6.529 7.406-9.227 17.193-7.202 26.114-6.934 53.724.365 79.81z" fill="#d6d6d6"/></g><g><path d="m414.039 435.4c-1.104 0-2-.896-2-2v-88.235c0-1.104.896-2 2-2s2 .896 2 2v88.235c0 1.104-.896 2-2 2z" fill="#bcbcbc"/></g></g><g><g><path d="m401.235 468h25.606c4.766 0 8.87-3.364 9.806-8.037l8.391-41.926h-62l8.391 41.926c.936 4.673 5.04 8.037 9.806 8.037z" fill="#ff80a4"/></g><g><path d="m450.039 420.036h-72c-1.104 0-2-.896-2-2s.896-2 2-2h72c1.104 0 2 .896 2 2s-.896 2-2 2z" fill="#333"/></g></g></g></g></svg>