<svg height="512" viewBox="0 0 512 512" width="512" xmlns="http://www.w3.org/2000/svg"><g id="Flat"><rect fill="#e0e0de" height="432" rx="32" width="240" x="136" y="56"/><path d="m136 104h240v320h-240z" fill="#348fd9"/><path d="m160.231 486.94a31.715 31.715 0 0 0 7.769 1.06h176a32 32 0 0 0 32-32v-32h-189.041z" fill="#d6d6d4"/><path d="m344 56h-.767l-20.384 48h53.151v-16a32 32 0 0 0 -32-32z" fill="#d6d6d4"/><path d="m186.959 424h189.041v-320h-53.151z" fill="#3086cd"/><path d="m232 376v-48a32 32 0 0 0 -32-32h-16l8-32-56 32v112h64a32 32 0 0 0 32-32z" fill="#3086cd"/><path d="m248 448h16v16h-16z" fill="#a3a3a1"/><path d="m428.211 283.682-52.211-67.682v128l-36-36a28.284 28.284 0 0 0 -40 40l52 52-3.585 5.378a70.053 70.053 0 0 0 3.585 82.622h96v-151.644a80 80 0 0 0 -19.789-52.674z" fill="#fec9a3"/><path d="m200 184h-64l8 40-56-40h-32a32 32 0 0 1 -32-32v-96a32 32 0 0 1 32-32h144a32 32 0 0 1 32 32v96a32 32 0 0 1 -32 32z" fill="#ffb531"/><path d="m152 200h64a32 32 0 0 0 32-32v-64h-112v118.857l24 17.143z" fill="#3086cd"/><path d="m184 280h-16l8-32-56 32h-64a32 32 0 0 0 -32 32v48a32 32 0 0 0 32 32h128a32 32 0 0 0 32-32v-48a32 32 0 0 0 -32-32z" fill="#60d1e0"/><path d="m184 280h-1.54c-32.73 49.255-78.785 87.388-114.2 112h115.74a32 32 0 0 0 32-32v-48a32 32 0 0 0 -32-32z" fill="#5ac6d4"/><g fill="#3fb7c7"><path d="m48 312h88v16h-88z"/><path d="m152 312h40v16h-40z"/><path d="m48 344h144v16h-144z"/></g><path d="m408 384a7.971 7.971 0 0 1 -5.656-2.344l-32-32a8 8 0 0 1 11.312-11.312l32 32a8 8 0 0 1 -5.656 13.656z" fill="#f7a468"/><path d="m220.834 31.894c-55.398 69.149-132.834 112.106-188.622 141.327a31.792 31.792 0 0 0 23.788 10.779h32l56 40-8-40h64a32 32 0 0 0 32-32v-96a31.781 31.781 0 0 0 -11.166-24.106z" fill="#ffa912"/><path d="m80 96h64v48h-64z" fill="#f35244"/><circle cx="92" cy="76" fill="#de4132" r="20"/><circle cx="132" cy="76" fill="#de4132" r="20"/><path d="m144 112 32-16v48l-32-16z" fill="#de4132"/><path d="m376 216v83.692l40.519-31.168z" fill="#fec093"/><path d="m488 120v96a32 32 0 0 1 -32 32h-40l-56 40 8-40h-72a31.98 31.98 0 0 1 -32-32v-96a32 32 0 0 1 32-32h160a31.974 31.974 0 0 1 32 32z" fill="#4db7e5"/><path d="m488 120v96a32 32 0 0 1 -32 32h-40l-56 40 8-40h-72a31.9 31.9 0 0 1 -15.81-4.17c74.72-35.38 141.88-84.74 191.73-151.6a32 32 0 0 1 16.08 27.77z" fill="#48add9"/><circle cx="392" cy="144" fill="#f35244" r="24"/><path d="m488 216a32 32 0 0 1 -32 32h-40l-56 40 8-40h-72a31.98 31.98 0 0 1 -32-32l64-48 36.38 27.28 27.62 20.72 48-32z" fill="#7eb457"/><path d="m488 216a32 32 0 0 1 -32 32h-40l-56 40 8-40h-72a31.9 31.9 0 0 1 -15.81-4.17 581.47 581.47 0 0 0 84.19-48.55l27.62 20.72 48-32z" fill="#77ad50"/></g></svg>