<svg id="Layer_1" enable-background="new 0 0 1700 1700" height="512" viewBox="0 0 1700 1700" width="512" xmlns="http://www.w3.org/2000/svg"><g><g><g><g><g id="XMLID_1_"><path d="m966.54 862.35-57.75-57.75-57.74-57.75h-.01l-18.35-18.36 113.4-113.4 189.52 189.52-113.4 113.4z" fill="#fedd61"/><path d="m677.81 573.61-57.74-57.74h-.01l-55.67-55.67 113.4-113.4 189.52 189.52-113.4 113.4-18.35-18.36h-.01l-57.74-57.74z" fill="#fedd61"/><path d="m699.71 861.47-135.46 56.69 56.68-135.46z" fill="#ffc4b0"/><path d="m1124.14 380.97c15.48 15.48 15.48 40.59 0 56.07l-41.86 41.86-78.77-78.77 41.85-41.86c15.49-15.48 40.59-15.48 56.08 0z" fill="#f06b77"/><path d="m1082.28 478.9-136.19 136.19-113.4 113.4-132.98 132.98-78.78-78.77 132.98-132.98 113.4-113.4 136.2-136.19z" fill="#60b7ff"/><path d="m1164.2 1499.27h-628.4c0-33.08 13.41-63.03 35.08-84.71 21.68-21.67 51.63-35.08 84.71-35.08h80.93 226.96 80.93c66.16 0 119.79 53.63 119.79 119.79z" fill="#445a66"/><path d="m923.48 1225.91 40 153.57h-226.96l40-153.57v-.01h146.96z" fill="#587280"/><path d="m1594 1064.08v121.82c0 22.1-17.91 40-40 40h-630.52-146.96-630.52c-22.09 0-40-17.9-40-40v-121.82z" fill="#445a66"/><path d="m1594 240.73v823.35h-1488v-823.35c0-22.09 17.91-40 40-40h1408c22.09 0 40 17.91 40 40zm-571.79 677.28 113.4-113.4-189.52-189.52 136.19-136.19 41.86-41.86c15.48-15.48 15.48-40.59 0-56.07l-22.7-22.7c-15.49-15.48-40.59-15.48-56.08 0l-41.85 41.86-136.2 136.19-189.52-189.52-113.4 113.4 55.67 55.67h.01l57.74 57.74v.01l57.74 57.74h.01l18.35 18.36-132.98 132.98-56.68 135.46 135.46-56.69 132.98-132.98 18.35 18.36h.01l57.74 57.75 57.75 57.75z" fill="#bbecff"/></g></g></g></g><g><g><g><g><path d="m736.54 1403.49c-2 0-4.04-.25-6.07-.78-12.83-3.34-20.52-16.45-17.18-29.27l40-153.58c3.34-12.83 16.45-20.52 29.27-17.18 12.83 3.34 20.52 16.45 17.18 29.27l-40 153.58c-2.81 10.8-12.54 17.96-23.2 17.96z" fill="#212121"/></g><g><path d="m963.46 1403.49c-10.66 0-20.4-7.16-23.21-17.96l-40-153.58c-3.34-12.83 4.35-25.93 17.18-29.27 12.82-3.34 25.93 4.35 29.27 17.18l40 153.58c3.34 12.83-4.35 25.93-17.18 29.27-2.02.53-4.05.78-6.06.78z" fill="#212121"/></g></g></g><g><path d="m1164.2 1523.27h-628.4c-13.25 0-24-10.75-24-24 0-79.28 64.5-143.79 143.79-143.79h388.83c79.28 0 143.79 64.5 143.79 143.79-.01 13.25-10.75 24-24.01 24zm-601.36-48h574.31c-10.68-41.24-48.21-71.79-92.74-71.79h-388.82c-44.54 0-82.07 30.55-92.75 71.79z" fill="#212121"/></g><g><path d="m1554 1249.9h-1408c-35.29 0-64-28.71-64-64v-945.17c0-35.29 28.71-64 64-64h1408c35.29 0 64 28.71 64 64v945.17c0 35.29-28.71 64-64 64zm-1408-1025.17c-8.82 0-16 7.18-16 16v945.17c0 8.82 7.18 16 16 16h1408c8.82 0 16-7.18 16-16v-945.17c0-8.82-7.18-16-16-16z" fill="#212121"/></g><g><path d="m1594 1088.08h-1488c-13.25 0-24-10.75-24-24s10.75-24 24-24h1488c13.25 0 24 10.75 24 24s-10.75 24-24 24z" fill="#212121"/></g><g><g><g><g><path d="m699.71 885.47c-6.37 0-12.47-2.53-16.97-7.03l-78.77-78.77c-9.37-9.37-9.37-24.57 0-33.94l382.57-382.57c4.5-4.5 10.61-7.03 16.97-7.03s12.47 2.53 16.97 7.03l78.77 78.77c9.37 9.37 9.37 24.57 0 33.94l-382.57 382.57c-4.5 4.5-10.61 7.03-16.97 7.03zm-44.83-102.77 44.83 44.83 348.63-348.63-44.83-44.83z" fill="#212121"/></g><g><path d="m564.26 942.16c-6.25 0-12.38-2.44-16.98-7.03-6.89-6.89-8.93-17.25-5.17-26.24l56.68-135.46c3.09-7.38 9.65-12.74 17.5-14.28s15.95.92 21.61 6.58l78.77 78.77c5.66 5.66 8.12 13.76 6.58 21.61s-6.9 14.41-14.28 17.5l-135.46 56.68c-2.99 1.26-6.13 1.87-9.25 1.87zm65-117.19-20.27 48.45 48.45-20.27z" fill="#212121"/></g><g><path d="m1082.28 502.9c-6.37 0-12.47-2.53-16.97-7.03l-78.77-78.77c-9.37-9.37-9.37-24.57 0-33.94l41.85-41.85c12.02-12.02 28.01-18.64 45.01-18.64s32.99 6.62 45.01 18.64l22.7 22.69c12.02 12.02 18.64 28.01 18.64 45.01s-6.62 32.99-18.64 45.01l-41.85 41.85c-4.51 4.5-10.61 7.03-16.98 7.03zm-44.83-102.77 44.83 44.83 24.88-24.88c2.96-2.96 4.58-6.89 4.58-11.07s-1.63-8.11-4.58-11.07l-22.7-22.7c-2.96-2.96-6.89-4.58-11.07-4.58s-8.11 1.63-11.07 4.58z" fill="#212121"/></g></g></g><g><g><path d="m753.91 673.72c-6.14 0-12.28-2.34-16.97-7.03l-18.09-18.09c-.09-.09-.18-.18-.28-.27l-115.21-115.22c-.09-.09-.18-.18-.27-.27l-55.67-55.67c-9.37-9.37-9.37-24.57 0-33.94l113.4-113.4c4.5-4.5 10.61-7.03 16.97-7.03s12.47 2.53 16.97 7.03l189.52 189.52c9.37 9.37 9.37 24.57 0 33.94s-24.57 9.37-33.94 0l-172.55-172.55-79.46 79.46 38.43 38.43c.09.09.18.18.27.27l115.22 115.22.27.27 18.36 18.36c9.37 9.37 9.37 24.57 0 33.94-4.68 4.69-10.82 7.03-16.97 7.03z" fill="#212121"/></g><g><path d="m1022.21 942.01c-6.14 0-12.28-2.34-16.97-7.03l-55.38-55.38c-.1-.09-.19-.19-.29-.28l-115.2-115.2c-.1-.1-.2-.19-.3-.29l-18.36-18.36c-9.37-9.37-9.37-24.57 0-33.94s24.57-9.37 33.94 0l18.07 18.08c.1.09.19.19.29.28l115.2 115.21c.1.09.19.19.29.29l38.7 38.7 79.46-79.46-172.55-172.55c-9.37-9.37-9.37-24.57 0-33.94s24.57-9.37 33.94 0l189.52 189.52c4.5 4.5 7.03 10.61 7.03 16.97s-2.53 12.47-7.03 16.97l-113.4 113.4c-4.68 4.67-10.82 7.01-16.96 7.01z" fill="#212121"/></g><g><g><path d="m620.06 539.87c-6.14 0-12.28-2.34-16.97-7.03-9.37-9.37-9.37-24.57 0-33.94l44.46-44.46c9.37-9.37 24.57-9.37 33.94 0s9.37 24.57 0 33.94l-44.46 44.46c-4.68 4.69-10.82 7.03-16.97 7.03z" fill="#212121"/></g><g><path d="m677.81 597.62c-6.14 0-12.28-2.34-16.97-7.03-9.37-9.37-9.37-24.57 0-33.94l31.65-31.65c9.37-9.37 24.57-9.37 33.94 0s9.37 24.57 0 33.94l-31.65 31.65c-4.69 4.68-10.83 7.03-16.97 7.03z" fill="#212121"/></g><g><path d="m908.79 828.6c-6.14 0-12.28-2.34-16.97-7.03-9.37-9.37-9.37-24.57 0-33.94l31.65-31.65c9.37-9.37 24.57-9.37 33.94 0s9.37 24.57 0 33.94l-31.65 31.65c-4.68 4.68-10.83 7.03-16.97 7.03z" fill="#212121"/></g><g><path d="m966.54 886.34c-6.14 0-12.28-2.34-16.97-7.03-9.37-9.37-9.37-24.57 0-33.94l44.46-44.46c9.37-9.37 24.57-9.37 33.94 0s9.37 24.57 0 33.94l-44.46 44.46c-4.69 4.69-10.83 7.03-16.97 7.03z" fill="#212121"/></g></g></g></g></g></g></svg>