<svg clip-rule="evenodd" fill-rule="evenodd" height="512" stroke-linejoin="round" stroke-miterlimit="2" viewBox="0 0 64 64" width="512" xmlns="http://www.w3.org/2000/svg"><circle cx="32" cy="32" fill="#446aa9" r="18.75"/><circle cx="32" cy="32" fill="#e9ecfe" r="14.029"/><path d="m28.743 32.597c-.002.021-.002.041-.002.062 0 1.516 1.23 2.747 2.746 2.747.028 0 .055-.002.082-.005l7.153-.784c1.058-.024 1.913-.892 1.913-1.958 0-1.068-.857-1.937-1.919-1.958.006 0-4.683-.514-4.683-.514s-.588-7.148-.588-7.148c-.017-1.064-.888-1.924-1.958-1.924s-1.941.861-1.958 1.928c.001-.004-.786 9.554-.786 9.554z" fill="#f05558"/><path d="m51.083 15.404c-.889.241-1.635.925-1.912 1.873-.422 1.448.411 2.966 1.859 3.388 0 0 4.988 1.454 4.988 1.454.715.208 1.485.115 2.13-.257.646-.373 1.111-.993 1.288-1.717 0 0 1.235-5.046 1.235-5.046.359-1.465-.539-2.945-2.004-3.304-1.217-.298-2.445.272-3.031 1.313-.735-.856-1.516-1.67-2.34-2.44-2.319-2.166-4.949-3.999-7.85-5.36-1.038-.518-2.313-.096-2.841.948-.531 1.049-.111 2.331.937 2.861 2.378 1.295 4.532 2.965 6.371 4.934.407.436.797.887 1.17 1.353z" fill="#5cca7a"/><path d="m48.596 51.083c-.241-.889-.925-1.635-1.873-1.912-1.448-.422-2.966.411-3.388 1.859 0 0-1.454 4.988-1.454 4.988-.208.715-.115 1.485.257 2.13.373.646.993 1.111 1.717 1.288 0 0 5.046 1.235 5.046 1.235 1.465.359 2.945-.539 3.304-2.004.298-1.217-.272-2.445-1.313-3.031.856-.735 1.67-1.516 2.44-2.34 2.166-2.319 3.999-4.949 5.36-7.85.518-1.038.096-2.313-.948-2.841-1.049-.531-2.331-.111-2.861.937-1.295 2.378-2.965 4.532-4.934 6.371-.436.407-.887.797-1.353 1.17z" fill="#5cca7a"/><path d="m12.917 48.596c.889-.241 1.635-.925 1.912-1.873.422-1.448-.411-2.966-1.859-3.388 0 0-4.988-1.454-4.988-1.454-.715-.208-1.485-.115-2.13.257-.646.373-1.111.993-1.288 1.717 0 0-1.235 5.046-1.235 5.046-.359 1.465.539 2.945 2.004 3.304 1.217.298 2.445-.272 3.031-1.313.735.856 1.516 1.67 2.34 2.44 2.319 2.166 4.949 3.999 7.85 5.36 1.038.518 2.313.096 2.841-.948.531-1.049.111-2.331-.937-2.861-2.378-1.295-4.532-2.965-6.371-4.934-.407-.436-.797-.887-1.17-1.353z" fill="#5cca7a"/><path d="m15.404 12.917c.241.889.925 1.635 1.873 1.912 1.448.422 2.966-.411 3.388-1.859 0 0 1.454-4.988 1.454-4.988.208-.715.115-1.485-.257-2.13-.373-.646-.993-1.111-1.717-1.288 0 0-5.046-1.235-5.046-1.235-1.465-.359-2.945.539-3.304 2.004-.298 1.217.272 2.445 1.313 3.031-.856.735-1.67 1.516-2.44 2.34-2.166 2.319-3.999 4.949-5.36 7.85-.518 1.038-.096 2.313.948 2.841 1.049.531 2.331.111 2.861-.937 1.295-2.378 2.965-4.532 4.934-6.371.436-.407.887-.797 1.353-1.17z" fill="#5cca7a"/><g fill="#32384d"><path d="m32 17.971c-7.743 0-14.029 6.286-14.029 14.029s6.286 14.029 14.029 14.029 14.029-6.286 14.029-14.029-6.286-14.029-14.029-14.029zm0 1.5c6.915 0 12.529 5.614 12.529 12.529s-5.614 12.529-12.529 12.529-12.529-5.614-12.529-12.529 5.614-12.529 12.529-12.529z"/><path d="m28.743 32.597c-.002.021-.002.041-.002.062 0 1.516 1.23 2.747 2.746 2.747.028 0 .055-.002.082-.005l7.153-.784c1.058-.024 1.913-.892 1.913-1.958 0-1.068-.857-1.937-1.919-1.958.006 0-4.683-.514-4.683-.514s-.588-7.148-.588-7.148c-.017-1.064-.888-1.924-1.958-1.924s-1.941.861-1.958 1.928c.001-.004-.786 9.554-.786 9.554zm1.498.089.786-9.551c.001-.02.002-.041.002-.061 0-.253.206-.459.458-.459.253 0 .459.206.459.459 0 .02.001.041.002.061l.641 7.791c.03.358.309.645.666.684l5.339.586c.028.003.055.005.082.005.253 0 .459.205.459.458s-.206.458-.459.458c-.027 0-.054.002-.082.005l-7.143.783c-.662-.02-1.193-.553-1.21-1.213z"/><path d="m32 13.25c-10.348 0-18.75 8.402-18.75 18.75s8.402 18.75 18.75 18.75 18.75-8.402 18.75-18.75-8.402-18.75-18.75-18.75zm0 1.5c9.521 0 17.25 7.729 17.25 17.25s-7.729 17.25-17.25 17.25-17.25-7.729-17.25-17.25 7.729-17.25 17.25-17.25z"/><path d="m51.083 15.404c-.889.241-1.635.925-1.912 1.873-.422 1.448.411 2.966 1.859 3.388 0 0 4.988 1.454 4.988 1.454.715.208 1.485.115 2.13-.257.646-.373 1.111-.993 1.288-1.717 0 0 1.235-5.046 1.235-5.046.359-1.465-.539-2.945-2.004-3.304-1.217-.298-2.445.272-3.031 1.313-.735-.856-1.516-1.67-2.34-2.44-2.319-2.166-4.949-3.999-7.85-5.36-1.038-.518-2.313-.096-2.841.948-.531 1.049-.111 2.331.937 2.861 2.378 1.295 4.532 2.965 6.371 4.934.407.436.797.887 1.17 1.353zm1.065 1.457-.008-.002c-.653-.191-1.338.185-1.529.838-.19.653.186 1.338.839 1.528 0 0 4.987 1.454 4.987 1.454.323.094.67.052.961-.116.292-.168.501-.448.581-.775 0 0 1.235-5.046 1.235-5.046.162-.66-.243-1.328-.904-1.49s-1.328.244-1.49.904l-.163.668c-.069.279-.29.494-.571.555-.281.06-.571-.045-.748-.271-.935-1.193-1.96-2.311-3.066-3.344-2.205-2.059-4.705-3.804-7.463-5.098-.007-.003-.013-.006-.02-.01-.31-.157-.689-.032-.846.278s-.032.689.277.846c.007.003.014.006.02.01 2.534 1.379 4.819 3.149 6.769 5.237.81.867 1.556 1.791 2.237 2.763.16.23.18.529.051.777-.122.232-.354.384-.614.402l-.052.002c-.113 0-.223-.026-.322-.074z"/><path d="m48.596 51.083c-.241-.889-.925-1.635-1.873-1.912-1.448-.422-2.966.411-3.388 1.859 0 0-1.454 4.988-1.454 4.988-.208.715-.115 1.485.257 2.13.373.646.993 1.111 1.717 1.288 0 0 5.046 1.235 5.046 1.235 1.465.359 2.945-.539 3.304-2.004.298-1.217-.272-2.445-1.313-3.031.856-.735 1.67-1.516 2.44-2.34 2.166-2.319 3.999-4.949 5.36-7.85.518-1.038.096-2.313-.948-2.841-1.049-.531-2.331-.111-2.861.937-1.295 2.378-2.965 4.532-4.934 6.371-.436.407-.887.797-1.353 1.17zm-1.457 1.065.002-.008c.191-.653-.185-1.338-.838-1.529-.653-.19-1.338.186-1.528.839 0 0-1.454 4.987-1.454 4.987-.094.323-.052.67.116.961.168.292.448.501.775.581 0 0 5.046 1.235 5.046 1.235.66.162 1.328-.243 1.49-.904s-.244-1.328-.904-1.49l-.668-.163c-.279-.069-.494-.29-.555-.571-.06-.281.045-.571.271-.748 1.193-.935 2.311-1.96 3.344-3.066 2.059-2.205 3.804-4.705 5.098-7.463.003-.007.006-.013.01-.02.157-.31.032-.689-.278-.846s-.689-.032-.846.277c-.003.007-.006.014-.01.02-1.379 2.534-3.149 4.819-5.237 6.769-.867.81-1.791 1.556-2.763 2.237-.23.16-.529.18-.777.051-.232-.122-.384-.354-.402-.614l-.002-.052c0-.113.026-.223.074-.322z"/><path d="m12.917 48.596c.889-.241 1.635-.925 1.912-1.873.422-1.448-.411-2.966-1.859-3.388 0 0-4.988-1.454-4.988-1.454-.715-.208-1.485-.115-2.13.257-.646.373-1.111.993-1.288 1.717 0 0-1.235 5.046-1.235 5.046-.359 1.465.539 2.945 2.004 3.304 1.217.298 2.445-.272 3.031-1.313.735.856 1.516 1.67 2.34 2.44 2.319 2.166 4.949 3.999 7.85 5.36 1.038.518 2.313.096 2.841-.948.531-1.049.111-2.331-.937-2.861-2.378-1.295-4.532-2.965-6.371-4.934-.407-.436-.797-.887-1.17-1.353zm-1.065-1.457.008.002c.653.191 1.338-.185 1.529-.838.19-.653-.186-1.338-.839-1.528 0 0-4.987-1.454-4.987-1.454-.323-.094-.67-.052-.961.116-.292.168-.501.448-.581.775 0 0-1.235 5.046-1.235 5.046-.162.66.243 1.328.904 1.49s1.328-.244 1.49-.904l.163-.668c.069-.279.29-.494.571-.555.281-.06.571.045.748.271.935 1.193 1.96 2.311 3.066 3.344 2.205 2.059 4.705 3.804 7.463 5.098.007.003.013.006.02.01.31.157.689.032.846-.278s.032-.689-.277-.846c-.007-.003-.014-.006-.02-.01-2.534-1.379-4.819-3.149-6.769-5.237-.81-.867-1.556-1.791-2.237-2.763-.16-.23-.18-.529-.051-.777.122-.232.354-.384.614-.402l.052-.002c.113 0 .223.026.322.074z"/><path d="m15.404 12.917c.241.889.925 1.635 1.873 1.912 1.448.422 2.966-.411 3.388-1.859 0 0 1.454-4.988 1.454-4.988.208-.715.115-1.485-.257-2.13-.373-.646-.993-1.111-1.717-1.288 0 0-5.046-1.235-5.046-1.235-1.465-.359-2.945.539-3.304 2.004-.298 1.217.272 2.445 1.313 3.031-.856.735-1.67 1.516-2.44 2.34-2.166 2.319-3.999 4.949-5.36 7.85-.518 1.038-.096 2.313.948 2.841 1.049.531 2.331.111 2.861-.937 1.295-2.378 2.965-4.532 4.934-6.371.436-.407.887-.797 1.353-1.17zm1.457-1.065-.002.008c-.191.653.185 1.338.838 1.529.653.19 1.338-.186 1.528-.839 0 0 1.454-4.987 1.454-4.987.094-.323.052-.67-.116-.961-.168-.292-.448-.501-.775-.581 0 0-5.046-1.235-5.046-1.235-.66-.162-1.328.243-1.49.904s.244 1.328.904 1.49l.668.163c.279.069.494.29.555.571.06.281-.045.571-.271.748-1.193.935-2.311 1.96-3.344 3.066-2.059 2.205-3.804 4.705-5.098 7.463-.003.007-.006.013-.01.02-.157.31-.032.689.278.846s.689.032.846-.277c.003-.007.006-.014.01-.02 1.379-2.534 3.149-4.819 5.237-6.769.867-.81 1.791-1.556 2.763-2.237.23-.16.529-.18.777-.051.232.122.384.354.402.614l.002.052c0 .113-.026.223-.074.322z"/></g></svg>