<svg id="Capa_1" enable-background="new 0 0 512 512" height="512" viewBox="0 0 512 512" width="512" xmlns="http://www.w3.org/2000/svg"><g><g><g><path d="m228.1 283.9v108.56c0 46.21-37.6 83.81-83.81 83.81h-108.56v-108.56c0-46.21 37.6-83.81 83.81-83.81z" fill="#00c2f3"/><path d="m512 383.42v128.58h-128.58c-54.88 0-99.52-44.64-99.52-99.52v-128.58h128.58c54.88 0 99.52 44.64 99.52 99.52z" fill="#09eaa3"/><path d="m228.1 99.52v128.58h-128.58c-54.88 0-99.52-44.64-99.52-99.52v-128.58h128.58c54.88 0 99.52 44.64 99.52 99.52z" fill="#fbdf63"/><path d="m438.96 73.04v81.03c0 40.82-33.21 74.03-74.03 74.03h-81.03v-81.03c0-40.82 33.21-74.03 74.03-74.03z" fill="#ff6b81"/></g><path d="m35.73 476.27 192.37-192.37v108.56c0 46.21-37.6 83.81-83.81 83.81z" fill="#1e90ff"/><path d="m438.96 73.04v81.03c0 40.82-33.21 74.03-74.03 74.03h-81.03z" fill="#ed2061"/></g><path d="m228.1 99.52v128.58l-228.1-228.1h128.58c54.88 0 99.52 44.64 99.52 99.52z" fill="#f7b521"/><path d="m512 383.42v128.58l-228.1-228.1h128.58c54.88 0 99.52 44.64 99.52 99.52z" fill="#14bb87"/></g></svg>