<svg id="Layer_1" enable-background="new 0 0 512 512" height="512" viewBox="0 0 512 512" width="512" xmlns="http://www.w3.org/2000/svg"><g><g clip-rule="evenodd" fill-rule="evenodd"><path d="m122 71.1h297.5v400.3h-297.5z" fill="#808080"/><path d="m91.7 40.6h297.5v400.3h-297.5z" fill="#e6e6e6"/><path d="m91.7 268.3v-143.7h10.3c5.7 0 10.4 4.7 10.4 10.4v2.2l92.9-49.8v-1.5c0-5.4 4.4-9.8 9.8-9.8 5.4 0 9.8 4.4 9.8 9.8v58.8c12.9 6.2 21.9 19.4 21.9 34.7s-8.9 28.5-21.9 34.7v58.8c0 5.4-4.4 9.8-9.8 9.8-5.4 0-9.8-4.4-9.8-9.8v-1.5l-92.9-49.8v2.2c0 5.7-4.7 10.4-10.4 10.4h-5.6l-3.4 34.1zm165.1-122.8c-2.4 1.6-5.6 1-7.3-1.3-1.6-2.4-1-5.6 1.3-7.3l15.7-10.9c2.4-1.6 5.6-1.1 7.3 1.3s1.1 5.6-1.3 7.3zm-6 75.7c-2.4-1.6-2.9-4.9-1.3-7.3s4.9-2.9 7.3-1.3l13.1 9.1c2.4 1.6 3 4.9 1.3 7.3-1.6 2.4-4.9 2.9-7.3 1.3zm15.3-36.7c-2.9 0-5.2-2.4-5.2-5.2s2.3-5.2 5.2-5.2h15.2c2.9 0 5.2 2.3 5.2 5.2s-2.4 5.2-5.2 5.2z" fill="#808080"/><path d="m389.2 118v322.9h-297.5v-86c112-44.3 211.2-123.2 297.5-236.9z" fill="#d0d0cf"/><path d="m28.5 109h66.4c5.7 0 10.3 4.6 10.3 10.3v87.8c0 5.7-4.6 10.3-10.3 10.3h-66.4c-12.4 0-22.5-10.1-22.5-22.5v-63.4c0-12.4 10.1-22.5 22.5-22.5z" fill="#b45a35"/><path d="m28.5 109h66.4c5.7 0 10.3 4.6 10.3 10.3v59.9h-55.2c-12.4 0-22.5-10.1-22.5-22.5v-47.7z" fill="#dd6e42"/><path d="m105.2 121.5 91.8-49.2v90.9 90.9l-91.8-49.2v-41.7z" fill="#fdb614"/><path d="m197 212.8v41.3l-91.8-49.2v-25.7z" fill="#cd962b"/><path d="m216.4 128.9c12.8 6.1 21.6 19.2 21.6 34.3s-8.8 28.2-21.6 34.3z" fill="#fdb614"/><path d="m69.5 217.4c-27 32.8 10.7 72.4-24.4 72.3-8.7 0-18.8 1.4-17.4-9.2l8-63z" fill="#80311a"/></g><path d="m257.1 168.1c-2.7 0-5-2.2-5-5s2.2-5 5-5h15c2.7 0 5 2.2 5 5 0 2.7-2.2 5-5 5zm-9.3-38.6c-2.3 1.6-5.4 1-6.9-1.2-1.6-2.3-1-5.4 1.2-6.9l15.5-10.8c2.3-1.6 5.4-1 6.9 1.2 1.6 2.3 1 5.4-1.2 6.9zm-5.7 74.9c-2.3-1.6-2.8-4.7-1.2-6.9 1.6-2.3 4.7-2.8 6.9-1.2l13 9c2.3 1.6 2.8 4.7 1.2 7-1.6 2.2-4.7 2.8-6.9 1.2z" fill="#fff"/><path clip-rule="evenodd" d="m206.7 61.1c-5.3 0-9.7 4.4-9.7 9.7v184.8c0 5.3 4.4 9.7 9.7 9.7 5.3 0 9.7-4.3 9.7-9.7v-184.8c0-5.3-4.4-9.7-9.7-9.7z" fill="#dd6e42" fill-rule="evenodd"/><path clip-rule="evenodd" d="m80.7 217.4-3.4 33.7h-18.3v-.1c-.3-10.8 1.4-22.5 10.5-33.5h11.2z" fill="#cd962b" fill-rule="evenodd"/><path clip-rule="evenodd" d="m386.9 133.8c-65.8 0-119.1 53.3-119.1 119.1s53.3 119.1 119.1 119.1c16.2 0 31.6-3.2 45.7-9.1l51.8 30.6-21.5-49c26.3-21.9 43-54.8 43-91.6.1-65.8-53.2-119.1-119-119.1z" fill="#fcb13b" fill-rule="evenodd"/><path clip-rule="evenodd" d="m388.8 343.8c51.2 0 92.9-41.7 92.9-92.9s-41.7-92.9-92.9-92.9-92.9 41.7-92.9 92.9 41.8 92.9 92.9 92.9z" fill="#e6a624" fill-rule="evenodd"/><path clip-rule="evenodd" d="m343.3 184c3-2 6.1-3.9 9.2-5.6 13-6.9 27.8-10.7 43.4-10.7 9 0 17.7 1.3 25.9 3.7 7.7 2.2 15 5.4 21.7 9.4 3 1.8 5.9 3.7 8.7 5.9 5.4 4.1 10.3 8.8 14.7 13.9 0 .1.1.1.1.1s-.1-.1-.1-.1c-4.3-6.6-9.4-12.6-15.1-17.9-1.5-1.4-3.1-2.7-4.6-4-7.5-6-15.9-10.9-25-14.5-10.3-4-21.5-6.2-33.3-6.2s-22.9 2.2-33.3 6.2c-9.1 3.5-17.5 8.4-25 14.5-1.6 1.3-3.1 2.6-4.6 4-5.8 5.3-10.8 11.3-15.1 17.9-9.4 14.5-14.9 31.8-14.9 50.4 0 22.8 8.2 43.7 21.9 59.8-9.3-14.5-14.8-31.7-14.8-50.3-.1-31.7 15.9-59.7 40.2-76.5z" fill="#a67a2c" fill-rule="evenodd"/><path d="m140.7 408.9c-2.2 0-4-1.8-4-4s1.8-4 4-4h201.3c2.2 0 4 1.8 4 4s-1.8 4-4 4zm0-35.2c-2.2 0-4-1.8-4-4s1.8-4 4-4h145.9c2.2 0 4 1.8 4 4s-1.8 4-4 4zm0-35.2c-2.2 0-4-1.8-4-4s1.8-4 4-4h118.8c2.2 0 4 1.8 4 4s-1.8 4-4 4zm0-35.2c-2.2 0-4-1.8-4-4s1.8-4 4-4h104.5c2.2 0 4 1.8 4 4s-1.8 4-4 4z" fill="#808080"/><path d="m134.1 402.4c-2.2 0-4-1.8-4-4s1.8-4 4-4h201.3c2.2 0 4 1.8 4 4s-1.8 4-4 4zm0-35.2c-2.2 0-4-1.8-4-4s1.8-4 4-4h145.9c2.2 0 4 1.8 4 4s-1.8 4-4 4zm0-35.1c-2.2 0-4-1.8-4-4s1.8-4 4-4h118.9c2.2 0 4 1.8 4 4s-1.8 4-4 4zm0-35.2c-2.2 0-4-1.8-4-4s1.8-4 4-4h104.5c2.2 0 4 1.8 4 4s-1.8 4-4 4z" fill="#fff"/><path d="m370.3 322.5v-12.6h7c4.3 0 7.1-.7 8.6-2 1.4-1.4 2.2-4.5 2.2-9.3v-41.2c0-4.9-.7-8-2.2-9.3-1.4-1.3-4.3-2-8.6-2h-7v-12.6h40.7v65.1c0 4.8.7 7.9 2.2 9.2 1.4 1.4 4.3 2.1 8.7 2.1h5.7v12.6zm13.6-119.6c0-3.9 1.4-7.2 4-9.9 2.7-2.7 6-4.1 9.9-4.1 4 0 7.3 1.4 10.1 4.1 2.7 2.7 4.1 6 4.1 9.9s-1.3 7.3-4.1 10c-2.7 2.7-6.1 4.1-10.1 4.1-3.9 0-7.2-1.4-9.9-4.1s-4-6.1-4-10z" fill="#a67a2c"/><path d="m360.2 315v-12.6h7c4.3 0 7.1-.7 8.6-2 1.4-1.4 2.2-4.5 2.2-9.3v-41.2c0-4.9-.7-7.9-2.2-9.3-1.4-1.3-4.3-2-8.6-2h-7v-12.6h40.7v65c0 4.8.7 7.9 2.2 9.2 1.4 1.4 4.3 2.1 8.7 2.1h5.7v12.7zm13.6-119.6c0-3.9 1.4-7.2 4-9.9s6-4.1 9.9-4.1c4 0 7.3 1.4 10.1 4.1 2.7 2.7 4.1 6 4.1 9.9s-1.3 7.3-4.1 10c-2.7 2.7-6.1 4.1-10.1 4.1-3.9 0-7.2-1.4-9.9-4.1s-4-6.1-4-10z" fill="#fff"/></g></svg>