<svg id="Layer_1" enable-background="new 0 0 53 53" height="512" viewBox="0 0 53 53" width="512" xmlns="http://www.w3.org/2000/svg"><g id="_x37_3"><g><g><path d="m2.5 10.7735252v35.3020096c0 1.3803673 1.1190181 2.4993248 2.4993887 2.4993248h43.0012627c1.3803711 0 2.4993286-1.1189575 2.4993286-2.4993248v-35.3020096z" fill="#deddff"/></g><g><path d="m50.5 12.3210716v-5.3965435c0-1.3803706-1.1190186-2.4993887-2.4993286-2.4993887h-43.0013247c-1.3803096 0-2.4993277 1.1190181-2.4993277 2.4993887v5.3965435z" fill="#c6c6f7"/></g><g><path d="m50.4999962 10.7735252v-3.8490133c0-1.3803506-1.1189957-2.4993458-2.4993439-2.4993458h-43.0012851c-1.3803506 0-2.4993458 1.1189952-2.4993458 2.4993458v3.8490133z" fill="#312e4b"/></g><g><g><path d="m8.7340517 7.5993838c0 .6622872-.5373497 1.1996369-1.1997132 1.1996369-.6498542 0-1.1872044-.5373497-1.1872044-1.1996369 0-.6623631.5373502-1.1997132 1.1872044-1.1997132.6623635 0 1.1997132.5373502 1.1997132 1.1997132z" fill="#deddff"/></g><g><path d="m13.3422203 7.5993838c0 .6622872-.5373507 1.1996369-1.1997137 1.1996369-.6498537 0-1.1872044-.5373497-1.1872044-1.1996369 0-.6623631.5373507-1.1997132 1.1872044-1.1997132.6623631 0 1.1997137.5373502 1.1997137 1.1997132z" fill="#deddff"/></g></g><g><g><path d="m45.7503853 8.5018139c.4982719 0 .9025002-.4042273.9025002-.9024391 0-.4982696-.4042282-.9024968-.9025002-.9024968h-14.3255749c-.4888592 0-.8930855.4042273-.8930855.9024968 0 .4982119.4042263.9024391.8930855.9024391z" fill="#deddff"/></g></g></g><g><path d="m35.3964233 15.7734222v24.5214386c0 .244915-.1948051.4452896-.4452934.4452896-.244915 0-.4452934-.2003746-.4452934-.4452896v-24.5214386c0-.244916.2003784-.4452925.4452934-.4452925.2504883.0000001.4452934.2003766.4452934.4452925z" fill="#fcb73e"/></g><g><path d="m15.1107512 37.5256424 22.7784958.0000038c.244915 0 .4452934.1948051.4452934.4452934 0 .244915-.2003784.4452934-.4452934.4452934l-22.7784958-.0000038c-.244916 0-.4452925-.2003784-.4452925-.4452934 0-.2504883.2003765-.4452934.4452925-.4452934z" fill="#fcb73e"/></g><g><path d="m18.4899673 15.7734222v24.5214386c0 .244915-.1948032.4452896-.4452915.4452896-.2449169 0-.4452934-.2003746-.4452934-.4452896v-24.5214386c0-.244916.2003765-.4452925.4452934-.4452925.2504883.0000001.4452915.2003766.4452915.4452925z" fill="#fcb73e"/></g><g><path d="m15.1107512 18.2330303 22.7784958.0000019c.244915 0 .4452934.1948051.4452934.4452934 0 .244915-.2003784.4452915-.4452934.4452915l-22.7784958-.0000019c-.244916 0-.4452925-.2003765-.4452925-.4452934 0-.2504882.2003765-.4452915.4452925-.4452915z" fill="#fcb73e"/></g><g><path d="m34.8196373 22.8517742-7.7386932-4.4618874c-.3602047-.2091427-.801754-.2091427-1.1619587 0l-7.7386227 4.4618874c-.3602047.2092152-.5809803.5926113-.5809803 1.0108986v8.923914c0 .4182892.2207756.8017578.5809803 1.0109024l7.7386227 4.4618835c.3602047.2091446.801754.2091446 1.1619587 0l7.7386932-4.4618835c.3602028-.2091446.5809784-.5926132.5809784-1.0109024v-8.923914c0-.4182873-.2207756-.8016834-.5809784-1.0108986zm-2.9048996 7.9245739c0 .4183598-.2207756.8017559-.5809803 1.0109005l-4.2528133 2.4517879c-.3602047.2091446-.801754.2091446-1.1619587 0l-4.2527428-2.4517879c-.3602047-.2091446-.5809803-.5925407-.5809803-1.0109005v-4.9034367c0-.4182873.2207756-.801754.5809803-1.0108986l4.2527428-2.4517899c.3602047-.2091446.801754-.2091446 1.1619587 0l4.2528133 2.4517899c.3602047.2091446.5809803.5926113.5809803 1.0108986z" fill="#e83d62"/></g><g><path d="m19.4854469 32.7865868v-8.923914c0-.4182873.2207737-.8016834.5809784-1.0108986l7.3784885-4.2527428-.3602753-.2091446c-.3602047-.2091427-.8016853-.2091427-1.1619606 0l-7.7386208 4.4618874c-.3602047.2092152-.5809803.5926113-.5809803 1.0108986v8.923914c0 .4182892.2207756.8017578.5809803 1.0109024l7.7386208 4.4618835c.3602753.2091446.8017559.2091446 1.1619606 0l.3602753-.2091446-7.3784885-4.252739c-.3602047-.2091445-.5809784-.5926132-.5809784-1.0109023z" fill="#ce2955"/></g><g><path d="m6.5596981 16.1141777c-.8655133.8445168-2.3161283.2450504-2.3161283-.9605932 0-1.2074728 1.4502945-1.8055477 2.3161283-.9605932.5257535.5386705.5263248 1.3818521 0 1.9211864z" fill="#e83d62"/></g><g><path d="m6.7835703 15.8209c-.7605777 1.2460804-2.5400004.6718349-2.5400004-.6659336 0-.4576912.2191634-.8970642.6894574-1.1845369-.6459322 1.2204351.636301 2.4931115 1.850543 1.8504705z" fill="#ce2955"/></g><g><path d="m9.7368059 16.5090122c-.7484474 0-1.355463-.6070166-1.355463-1.3554277 0-1.2074728 1.4502945-1.8055477 2.3161278-.9605932.8423595.8630552.2494859 2.3160209-.9606648 2.3160209z" fill="#46cc6b"/></g><g><path d="m10.9206018 15.8209c-.2862625.4679546-.7276917.6894932-1.1845369.6894932-.7484465 0-1.355463-.6070156-1.355463-1.3554268 0-.4576912.2191629-.8970642.6894579-1.1845369-.6459322 1.2204351.636301 2.4931115 1.850542 1.8504705z" fill="#179c5f"/></g><g><path d="m13.8745785 16.5090122c-.7484465 0-1.355463-.6070166-1.355463-1.3554277 0-1.2104483 1.4526186-1.8032799 2.3161278-.9605932.8423604.8630552.2494868 2.3160209-.9606648 2.3160209z" fill="#65b9ff"/></g><g><path d="m15.0576344 15.8209c-.2867241.468708-.7295866.6894932-1.1845379.6894932-.7484465 0-1.3554621-.6070156-1.3554621-1.3554268 0-.4576912.2191629-.8970642.6894569-1.1845369-.6451444 1.2189473.6355524 2.4935083 1.8505431 1.8504705z" fill="#3e7fff"/></g><g><g><path d="m47.9968719 18.5866375-8.1744308 11.9501553-3.9006844-2.6411305 8.1744309-11.9501572z" fill="#46cc6b"/></g><g><path d="m46.0465279 17.2660713-8.1744309 11.9501572-1.9503403-1.3205662 8.1744309-11.9501572z" fill="#34ba5d"/></g><g><path d="m49.4004517 16.5139465-.8020439 1.1843948-3.9006844-2.6411313.8020439-1.1843948c.7273865-1.0741434 2.1927834-1.3598251 3.2710457-.6297379 1.0778389.7297964 1.3594971 2.193078.6296387 3.2708692z" fill="#312e4b"/></g><g><path d="m39.8224411 30.5367928-5.093029 3.3202896 1.1923446-5.9614201z" fill="#ffaf93"/></g><g><path d="m35.1858597 31.5749569-.4564476 2.2821255 1.9496918-1.2710572z" fill="#312e4b"/></g><g><path d="m45.811 14.467h1.073v4.711h-1.073z" fill="#deddff" transform="matrix(.561 -.828 .828 .561 6.431 45.766)"/></g></g><g><g><path d="m21.1827393 42.4105721c-.0864601-.0508919-.193716-.0503426-.2812729-.0005455l-1.4988441.8640633c-.0875549.0514412-.140089.1428261-.140089.2440643v1.7281303c0 .1001396.0536289.193718.1406364.2440605l1.4977493.8635178c.0437794.0257225.0924816.0383072.1411839.0383072.0481567 0 .096859-.0125847.140089-.0377579l1.4988461-.8646126c.0864601-.0503464.140089-.1439209.140089-.243515v-1.7281303c0-.0995941-.0536289-.1931725-.140089-.2440643zm.9740581 1.4413871v1.0605202c0 .070591-.036665.1340675-.0979538.1696358l-.9193344.530262c-.060194.0361176-.1351643.0350227-.1953583 0l-.9193363-.530262c-.0612888-.0355682-.0979519-.0990448-.0979519-.1696358v-1.0605202c0-.0700455.0377579-.1351624.0979519-.1696396l.9198837-.5308075c.0295486-.0175095.0634766-.0262642.0968571-.0262642.0339279 0 .0678558.0087547.0979538.0268135l.9193344.5302582c.0601959.0344773.0979538.0995942.0979538.1696396z" fill="#e83d62"/></g><g><path d="m26.6407452 42.4105721c-.086462-.0514374-.1948128-.0508919-.2812729-.0005455l-1.4988441.8640633c-.0875568.0514412-.1395435.1428261-.1395435.2440643v1.7281303c0 .1001396.0536289.193718.140089.2440605l1.4982986.8640671c.0432301.0251732.0919323.0377579.1406364.0377579.0487022 0 .096859-.0125847.140089-.0377579l1.4982967-.8640671c.0870094-.0503426.1406364-.1439209.1406364-.2440605v-1.7281303c0-.1012383-.0525341-.1926231-.140089-.2440643zm.9740562 1.4413871v1.0605202c0 .070591-.0366631.1340675-.0974045.1696358l-.9198837.530262c-.060194.0361176-.1351643.0350227-.1953583 0l-.918787-.5297127c-.0607414-.0355682-.0985012-.1006889-.0985012-.1701851v-1.0605202c0-.0700455.0377598-.1351624.0979538-.1696396l.9193344-.5302582c.0306454-.0180588.0645733-.0268135.0979538-.0268135s.066761.0087547.0974045.0268135l.9198837.5302582c.0596466.0344773.0974045.0995942.0974045.1696396z" fill="#46cc6b"/></g><g><path d="m33.5975952 43.2740898-1.4988441-.8640633c-.0864639-.0503464-.1942654-.0503464-.2807274 0l-1.4988441.8640633c-.0875549.0514412-.140089.1428261-.140089.2440643v1.7281303c0 .1001396.053627.193718.1406364.2440605l1.4977493.8635178c.043232.0257225.0919342.0383072.1406364.0383072.0487041 0 .0974064-.0125847.1406384-.0377579l1.4988441-.8646126c.0859146-.0497971.1395416-.1433754.1395416-.243515v-1.7281303c0-.1012382-.0519867-.1926231-.1395416-.2440643zm-.5242424.5778694v1.0605202c0 .0694962-.0377579.1346169-.09795.1696358l-.9193382.530262c-.060194.0350227-.1351624.0350227-.1953564 0l-.9193363-.5297127c-.0612888-.0361176-.0979519-.0995941-.0979519-.1701851v-1.0605202c0-.0700455.0377579-.1351624.0974045-.1696396l.9204292-.5308075c.030098-.0175095.0634785-.0262642.096859-.0262642s.0673084.0087547.0979519.0268135l.9193382.5302582c.0601921.0344773.09795.0995942.09795.1696396z" fill="#65b9ff"/></g></g></g></svg>