<svg height="512" viewBox="0 0 48 48" width="512" xmlns="http://www.w3.org/2000/svg"><g id="_03-Graphic_tool" data-name="03-Graphic tool"><path d="m47 7v38a2.006 2.006 0 0 1 -2 2h-42a2.006 2.006 0 0 1 -2-2v-38z" fill="#adfff1"/><path d="m47 3v4h-46v-4a2.006 2.006 0 0 1 2-2h42a2.006 2.006 0 0 1 2 2z" fill="#1674cf"/><path d="m21 36h6v5h-6z" fill="#005db5"/><path d="m27 33v3h-6v-3h3z" fill="#c45329"/><circle cx="37" cy="30" fill="#fdc300" r="2"/><circle cx="11" cy="30" fill="#fdc300" r="2"/><path d="m43 13v4h-4v-2-2z" fill="#005db5"/><path d="m9 15v2h-4v-4h4z" fill="#005db5"/><path d="m24 15 7 14-4 4h-3-3l-4-4z" fill="#ffeb95"/><path d="m47 7v38a2.006 2.006 0 0 1 -2 2h-42a2.006 2.006 0 0 1 -2-2v-38z" fill="#7cfce6"/><path d="m47 3v4h-46v-4a2.006 2.006 0 0 1 2-2h42a2.006 2.006 0 0 1 2 2z" fill="#1674cf"/><path d="m46 7v37.05a1.938 1.938 0 0 1 -1.913 1.95h-40.174a1.938 1.938 0 0 1 -1.913-1.95v-37.05h-1v38a2.006 2.006 0 0 0 2 2h42a2.006 2.006 0 0 0 2-2v-38z" fill="#40a1ff"/><path d="m45 1h-42a2.006 2.006 0 0 0 -2 2v4h1v-3.333a1.808 1.808 0 0 1 1.913-1.667h40.174a1.808 1.808 0 0 1 1.913 1.667v3.333h1v-4a2.006 2.006 0 0 0 -2-2z" fill="#0e569b"/><path d="m47 39.975v-32.975h-38.378a39.966 39.966 0 0 0 38.378 32.975z" fill="#c7fff5"/><path d="m47 7v-4a2.006 2.006 0 0 0 -2-2h-36.975a40.161 40.161 0 0 0 .6 6z" fill="#5cafff"/><path d="m46 39.95c.331.016.667.017 1 .025v-32.975h-1z" fill="#40a1ff"/><path d="m44.087 2a1.808 1.808 0 0 1 1.913 1.667v3.333h1v-4a2.006 2.006 0 0 0 -2-2h-36.975c.008.333.009.669.025 1z" fill="#005db5"/><circle cx="5" cy="4" fill="#00c4a2" r="1"/><circle cx="9" cy="4" fill="#ffdd7d" r="1"/><circle cx="13" cy="4" fill="#b36a8e" r="1"/><circle cx="43" cy="4" fill="#adb5d5" r="1"/><path d="m5 5a.985.985 0 0 1 -.847-.5.977.977 0 0 0 -.153.5 1 1 0 0 0 2 0 .977.977 0 0 0 -.153-.5.985.985 0 0 1 -.847.5z" fill="#005db5"/><g fill="#1674cf"><path d="m9 5a.985.985 0 0 1 -.847-.5.977.977 0 0 0 -.153.5 1 1 0 0 0 2 0 .977.977 0 0 0 -.153-.5.985.985 0 0 1 -.847.5z"/><path d="m13 5a.985.985 0 0 1 -.847-.5.977.977 0 0 0 -.153.5 1 1 0 0 0 2 0 .977.977 0 0 0 -.153-.5.985.985 0 0 1 -.847.5z"/><path d="m43 5a.985.985 0 0 1 -.847-.5.977.977 0 0 0 -.153.5 1 1 0 0 0 2 0 .977.977 0 0 0 -.153-.5.985.985 0 0 1 -.847.5z"/></g><ellipse cx="5" cy="3.5" fill="#27f5d1" rx=".847" ry=".5"/><ellipse cx="9" cy="3.5" fill="#fff8db" rx=".847" ry=".5"/><ellipse cx="13" cy="3.5" fill="#d9a7bd" rx=".847" ry=".5"/><ellipse cx="43" cy="3.5" fill="#f6fafd" rx=".847" ry=".5"/><rect fill="#40a1ff" height="1" rx=".5" width="16" x="23" y="2"/><rect fill="#40a1ff" height="1" rx=".5" width="2" x="40" y="2"/><rect fill="#edfffc" height="1" rx=".5" width="20" x="22" y="7"/><rect fill="#8dc7ff" height="16" rx=".5" width="1" x="46" y="10"/><rect fill="#8dc7ff" height="2" rx=".5" width="1" x="46" y="7"/><rect fill="#1985ed" height="16" rx=".5" width="1" x="1" y="29"/><rect fill="#1985ed" height="1" rx=".5" width="16" x="3" y="46"/><path d="m43 13v4h-4v-2-2z" fill="#005db5"/><path d="m9 15v2h-4v-4h4z" fill="#005db5"/><path d="m9 14h30v2h-30z" fill="#004078"/><path d="m39 13 4 4v-4z" fill="#1985ed"/><path d="m5 13 4 4v-4z" fill="#1985ed"/><path d="m24 14a14.015 14.015 0 0 0 -14 14v2h2v-2a12 12 0 0 1 24 0v2h2v-2a14.015 14.015 0 0 0 -14-14z" fill="#004078"/><path d="m21 36h6v5h-6z" fill="#1985ed"/><path d="m27 33v3h-6v-3h3z" fill="#b13609"/><path d="m24 15 7 14-4 4h-3-3l-4-4z" fill="#ffeb95"/><path d="m24 21v-6l-7 14h2z" fill="#fbb40a"/><path d="m19 29h-2l4 4 1-2z" fill="#f37124"/><path d="m26 31 1 2 4-4h-2z" fill="#fbb40a"/><path d="m24 31h-2l-1 2h3 3l-1-2z" fill="#f29410"/><path d="m24 21 5 8h2l-7-14z" fill="#ffd869"/><path d="m22 31h2v-10l-5 8z" fill="#ffdd7d"/><path d="m26 31 3-2-5-8v10z" fill="#ffeb95"/><path d="m22 24h4v2h-4z" fill="#f37124"/><path d="m23 26h2v7h-2z" fill="#f37124"/><path d="m23 31h2v2h-2z" fill="#e15d26"/><path d="m23 26h2v1h-2z" fill="#e15d26"/><path d="m24 27h1v4h-1z" fill="#f29410"/><path d="m21 33h6v1h-6z" fill="#992a1d"/><path d="m24 34h3v2h-3z" fill="#c45329"/><path d="m21 36h3v5h-3z" fill="#005db5"/><circle cx="37" cy="30" fill="#fdc300" r="2"/><circle cx="11" cy="30" fill="#fdc300" r="2"/><path d="m9 14h30v1h-30z" fill="#0e569b"/><circle cx="11" cy="30" fill="#f29410" r="1"/><circle cx="37" cy="30" fill="#f29410" r="1"/><path d="m39 16v1h4l-4-4v1 1z" fill="#1985ed"/><path d="m43 13h-4l4 4z" fill="#40a1ff"/><path d="m39 15h-15l.5 1 .013.026a12 12 0 0 1 11.487 11.974v.279a1.932 1.932 0 0 1 2 0v-.279a13.991 13.991 0 0 0 -6.826-12h7.826z" fill="#004989"/><path d="m10.913 15c.136.335.274.669.419 1h5.494a14.1 14.1 0 0 0 -3.826 3.373c.35.632.719 1.252 1.1 1.862a11.987 11.987 0 0 1 9.389-5.209l.011-.026.5-1z" fill="#004989"/><path d="m23.487 16.026c.171-.007.34-.026.513-.026h-.5z" fill="#fbb40a"/><path d="m18.172 26.656q.671.75 1.376 1.467l2.452-3.923v-.2h.125l1.875-3v-5c-.173 0-.342.019-.513.026z" fill="#ffcb64"/><path d="m23.5 16h.5v-1z" fill="#ffcb64"/><path d="m26 31 1 2 4-4h-2z" fill="#ffd869"/><path d="m25 31v1.727c.128.091.254.184.384.273h1.616l-1-2z" fill="#fbb40a"/><path d="m22.712 31c.095.077.193.15.288.226v-.226z" fill="#f29410"/><path d="m22 24.2-2.452 3.923a40.288 40.288 0 0 0 3.164 2.877h.288v-5h-1z" fill="#ffeb95"/><path d="m22.125 24h1.875v-3z" fill="#ffeb95"/><path d="m24 21v3h1.875z" fill="#fff4c4"/><path d="m26 24.2v1.8h-1v1 4h1l3-2z" fill="#fff4c4"/><path d="m23 27h1v4h-1z" fill="#f29410"/><path d="m25 31h-2v.226q.975.782 2 1.5z" fill="#f37124"/><path d="m24 26h-1v1h1 1v-1z" fill="#f37124"/><path d="m24 21 5 8h2l-7-14z" fill="#ffeb95"/><path d="m24 27h1v4h-1z" fill="#fbb40a"/><path d="m27 34.053v-.053h-.082c.027.017.054.036.082.053z" fill="#c45329"/><path d="m38 28.279a1.932 1.932 0 0 0 -2 0 2 2 0 1 0 2 0zm-1 2.721a1 1 0 1 1 1-1 1 1 0 0 1 -1 1z" fill="#ffd869"/><path d="m24 14h-13.481c.126.336.26.668.394 1h28.087v-1z" fill="#005db5"/><circle cx="37" cy="30" fill="#fbb40a" r="1"/><path d="m22 24h4v2h-4z" fill="#f29410"/><ellipse cx="43" cy="37" fill="#f6fafd" rx="1.65" ry="2.297" transform="matrix(.707 -.707 .707 .707 -13.567 41.262)"/><ellipse cx="40" cy="38" fill="#f6fafd" rx=".825" ry="1.148" transform="matrix(.707 -.707 .707 .707 -15.154 39.433)"/><ellipse cx="36.746" cy="35.5" fill="#f6fafd" rx=".413" ry=".574" transform="matrix(.707 -.707 .707 .707 -14.34 36.399)"/></g></svg>