<svg id="Layer_1" enable-background="new 0 0 53 53" height="512" viewBox="0 0 53 53" width="512" xmlns="http://www.w3.org/2000/svg"><g id="_x35_1"><g><g><path d="m50.4976082 10.7439566v35.8818254c0 1.5635452-1.2628021 2.8263512-2.8262749 2.8263512h-42.3330169c-1.5634744 0-2.8383164-1.262806-2.8383164-2.8263512v-35.8818254z" fill="#deddff"/></g><g><path d="m50.5 12.4937162v-6.1141176c0-1.5639176-1.2678146-2.8317308-2.8316612-2.8317308h-42.331461c-1.5638483 0-2.8316615 1.2678132-2.8316615 2.8317308v6.1141176z" fill="#c6c6f7"/></g><g><path d="m50.4999962 10.7403946v-4.3608141c0-1.5638947-1.2677879-2.831682-2.8316841-2.831682h-42.3314109c-1.5638947 0-2.831682 1.2677872-2.831682 2.831682v4.3608141z" fill="#312e4b"/></g><g><g><path d="m8.3655005 7.1441898c0 .750351-.6088014 1.3591518-1.3592386 1.3591518-.7362647 0-1.3450661-.6088009-1.3450661-1.3591518 0-.7504373.6088014-1.3592386 1.3450661-1.3592386.7504372 0 1.3592386.6088014 1.3592386 1.3592386z" fill="#deddff"/></g><g><path d="m13.5864143 7.1441898c0 .750351-.6088018 1.3591518-1.3592386 1.3591518-.7362652 0-1.3450661-.6088009-1.3450661-1.3591518 0-.7504373.6088009-1.3592386 1.3450661-1.3592386.7504368 0 1.3592386.6088014 1.3592386 1.3592386z" fill="#deddff"/></g><g><path d="m18.8073273 7.1441898c0 .750351-.6088009 1.3591518-1.3592377 1.3591518-.7362652 0-1.3450661-.6088009-1.3450661-1.3591518 0-.7504373.6088009-1.3592386 1.3450661-1.3592386.7504368 0 1.3592377.6088014 1.3592377 1.3592386z" fill="#deddff"/></g></g><g><g><path d="m45.1188354 8.1666155c.5645218 0 1.0224991-.4579773 1.0224991-1.0224361 0-.5645242-.4579773-1.0225015-1.0224991-1.0225015h-15.0277557c-.5538635 0-1.0118408.4579773-1.0118408 1.0225015 0 .5644588.4579773 1.0224361 1.0118408 1.0224361z" fill="#deddff"/></g></g></g><g><g><g><path d="m36.2495956 35.7682953-17.2887687-17.228632-4.2353344 4.2169113 17.2980175 17.2377949z" fill="#ce2955"/></g><g><path d="m34.1365547 37.8813324-17.2934379-17.2332134-2.1176243 2.1084556 17.2980175 17.2377949z" fill="#e83d62"/></g><g><path d="m40.3029213 39.8261032-1.280468-1.2859993-4.235302 4.2169113 1.280468 1.2860031c1.161293 1.1663132 3.0554123 1.1748199 4.2261543.0091591 1.1702996-1.1652145 1.174366-3.0558204.0091477-4.2260742z" fill="#312e4b"/></g><g><path d="m18.960804 18.5396595-7.1349516-2.9305296 2.8996496 7.1474409z" fill="#ffaf93"/></g><g><path d="m12.9358826 18.3452835-1.1100302-2.7361536 2.7313728 1.12185z" fill="#312e4b"/></g></g><g><g><path d="m33.998291 42.5921669c-.2662544-.2662506-.2634087-.6985435.0028458-.964798l3.862587-3.8568459c.2633858-.2633896.6956978-.2605247.9590874.0028648.2662544.2662506.2662544.695694 0 .9619484l-3.8625679 3.8568306c-.2662545.2662545-.6985665.2633897-.9619523.0000001z" fill="#c6c6f7"/></g><g><path d="m33.0334702 41.6273537c-.2662544-.2662544-.2634048-.6985435.0028458-.964798l3.862587-3.8568497c.2633896-.2633858.6956978-.2605209.9590874.0028648.2662544.2662544.2662544.6956978 0 .9619522l-3.8625679 3.8568306c-.2662546.2662507-.6985628.2633858-.9619523.0000001z" fill="#c6c6f7"/></g><g><path d="m32.0686493 40.6625404c-.2662525-.2662544-.2634048-.6985474.0028496-.964798l3.862587-3.8568497c.2633858-.2633896.6956978-.2605209.9590874.0028648.2662506.2662544.2662544.6956978 0 .9619484l-3.8625679 3.8568306c-.2662545.2662545-.6985665.2633897-.9619561.0000039z" fill="#c6c6f7"/></g></g></g><g><g><g><path d="m35.209549 25.5418472-19.320406 19.3201104c-1.1010742 1.1010551-2.8874912 1.1010323-3.9885149.0000038-1.1012707-1.1012764-1.1010962-2.8873711.000042-3.9884911l19.3204041-19.3201084z" fill="#65b9ff"/></g><g><path d="m35.2110519 25.5420017-.8394585.839447c-1.7392426-1.7392483-4.5622368-1.7392445-6.3015156.0000076-16.7835788 16.9505444-16.4808558 16.0906659-16.8691596 17.3231335-.3072271-.9621887-.0588675-2.0741692.6985836-2.8316078l19.3214188-19.3211231z" fill="#3e7fff"/></g><g><path d="m37.046463 25.689909c-.4646835.4646759-1.2228279.4646778-1.6875.0000019l-4.2859516-4.2859631c-.464674-.464674-.4646664-1.2228127.0000172-1.6874886.4646626-.4646549 1.222805-.4646969 1.6875-.0000019l4.2859497 4.2859631c.4646721.464674.4646301 1.2228508-.0000153 1.6874886z" fill="#fcb73e"/></g><g><path d="m33.4031677 23.7316704-2.3309326-2.3309422c-.4635906-.4635906-.463583-1.2174606-.0000095-1.6810265.4712658-.4712582 1.2270145-.4627285 1.6854-.0043392l2.3309364 2.3309422c-.4551392-.4551411-1.2117348-.4779968-1.6897392.0000019-.4635735.4635658-.4592438 1.2217713.0043449 1.6853638z" fill="#fd982e"/></g><g><g><path d="m40.0066147 22.0498352-3.3409157 1.5718021-3.5158272-3.5158348 1.5718689-3.3408489c.2577782-.4701805.757309-.7397003 1.2935181-.7397022 1.8332825-.0000095 3.3167992-.7164555 3.9825287-1.102088.2310867-.1338587.5213394-.097209.7101707.0916252l1.0489197 1.0489206c.1888351.1888371.2254791.4790916.0916138.7101765-.3856506.6657162-1.1021233 2.1491966-1.1021538 3.9824581-.0000115.5362034-.2695351 1.0357266-.7397232 1.2934914z" fill="#5b5e8b"/></g></g><g><g><path d="m41.7565804 16.0629673c-.1906357-.181963-.4766312-.21663-.7019119-.0866575-.6672173.3899202-2.1533165 1.1048384-3.9817009 1.1048155-.5372429 0-1.0398216.2686462-1.2954369.7408867l-1.5728073 3.3404503-1.0571518-1.0571556 1.5728073-3.3404503c.2599258-.4679298.758194-.7408867 1.2954369-.7408886 1.832695.0043354 3.3144798-.7148943 3.9817009-1.1048136.2339554-.1299734.5199242-.0953321.710556.0953035z" fill="#312e4b"/></g></g><g><path d="m38.4333916 19.6460457c-.3639297.363924-.9531593.363924-1.3171082-.0000248-.3596115-.3596134-.363945-.9531784-.0000153-1.3171043.2253075-.2253036.5416107-.3076248.8318901-.2512722l2.9115715-2.9115295.7451935.7451944-2.9202194 2.9201765c.0563202.2816295-.0260009.5892543-.2513122.8145599z" fill="#deddff"/></g></g></g><g><g opacity=".87"><circle cx="46.314" cy="31.521" fill="#e83d62" r="2.984"/></g><g opacity=".87"><circle cx="42.519" cy="31.521" fill="#fcb73e" r="2.984"/></g><g opacity=".87"><circle cx="44.417" cy="27.686" fill="#3e7fff" r="2.984"/></g></g><g><g><path d="m12.42661 33.4781303h-6.0097652c-.1655273 0-.2998047-.1342773-.2998047-.2998047v-.5048828h-.5048828c-.1655273 0-.2998047-.1342773-.2998047-.2998047v-6.0092773c0-.1655273.1342773-.2998047.2998047-.2998047h.5048828v-.5053711c0-.1655273.1342773-.2998047.2998047-.2998047h6.0097652c.1655273 0 .2998047.1342773.2998047.2998047v.5053711h.5048828c.1655273 0 .2998047.1342773.2998047.2998047v6.0092773c0 .1655273-.1342773.2998047-.2998047.2998047h-.5048828v.5048828c0 .1655274-.1342774.2998047-.2998047.2998047zm-5.7099605-.5996093h5.4101558v-.5048828c0-.1655273.1342773-.2998047.2998047-.2998047h.5048828v-5.409668h-.5048828c-.1655273 0-.2998047-.1342773-.2998047-.2998047v-.5053711h-5.4101558v.5053711c0 .1655273-.1342773.2998047-.2998047.2998047h-.5048828v5.409668h.5048828c.1655273 0 .2998047.1342773.2998047.2998047z" fill="#312e4b"/></g><g><path d="m6.4168448 26.6641655h-1.6098632c-.1655273 0-.2998047-.1342773-.2998047-.2998047v-1.6103516c0-.1655273.1342773-.2998047.2998047-.2998047h1.6098633c.1655273 0 .2998047.1342773.2998047.2998047v1.6103516c-.0000001.1655274-.1342774.2998047-.2998048.2998047zm-1.3100585-.5996094h1.0102539v-1.0107422h-1.0102539z" fill="#312e4b"/></g><g><path d="m14.0364733 26.6641655h-1.6098633c-.1655273 0-.2998047-.1342773-.2998047-.2998047v-1.6103516c0-.1655273.1342773-.2998047.2998047-.2998047h1.6098633c.1655273 0 .2998047.1342773.2998047.2998047v1.6103516c0 .1655274-.1342774.2998047-.2998047.2998047zm-1.3100586-.5996094h1.0102539v-1.0107422h-1.0102539z" fill="#312e4b"/></g><g><path d="m14.0364733 34.2833061h-1.6098633c-.1655273 0-.2998047-.1342773-.2998047-.2998047v-1.6098633c0-.1655273.1342773-.2998047.2998047-.2998047h1.6098633c.1655273 0 .2998047.1342773.2998047.2998047v1.6098633c0 .1655274-.1342774.2998047-.2998047.2998047zm-1.3100586-.5996094h1.0102539v-1.0102539h-1.0102539z" fill="#312e4b"/></g><g><path d="m6.4168448 34.2833061h-1.6098632c-.1655273 0-.2998047-.1342773-.2998047-.2998047v-1.6098633c0-.1655273.1342773-.2998047.2998047-.2998047h1.6098633c.1655273 0 .2998047.1342773.2998047.2998047v1.6098633c-.0000001.1655274-.1342774.2998047-.2998048.2998047zm-1.3100585-.5996094h1.0102539v-1.0102539h-1.0102539z" fill="#312e4b"/></g></g></g></svg>