<svg id="Layer_1" height="512" viewBox="0 0 512 512" width="512" xmlns="http://www.w3.org/2000/svg" data-name="Layer 1"><path d="m116.092 176.304h41.826v72.619h-41.826z" fill="#006fed"/><path d="m131.045 176.304h26.872v72.619h-26.872z" fill="#057aff"/><g fill-rule="evenodd"><path d="m316.08 203.995 126.442 73.001v146.003l-126.442 73.001-126.441-73.001v-146.003l69.222-39.966z" fill="#adc8f0"/><path d="m316.08 220.161-112.442 64.918v129.837l112.442 64.918 112.442-64.918v-129.837z" fill="#dbebff"/><path d="m316.08 89.621h-31.754v93.771h31.754c21.716-4.556 38.023-23.815 38.023-46.885s-16.307-42.329-38.023-46.885z" fill="#ffe177"/><path d="m316.08 89.621v93.771c3.162-.663 6.208-1.64 9.106-2.894v-87.983c-2.899-1.253-5.945-2.23-9.106-2.893z" fill="#ffd064"/><path d="m331.769 362.685c-3.699 4.568-9.353 7.488-15.688 7.488-11.143 0-20.176-9.033-20.176-20.176s9.033-20.176 20.176-20.176l48.756-7.973z" fill="#3b96ff"/><path d="m331.769 362.685c-1.821 2.249-4.117 4.098-6.734 5.397-.357.019-.717.029-1.079.029-11.143 0-20.176-9.033-20.176-20.176 0-7.928 4.573-14.786 11.224-18.084.357-.019.716-.029 1.077-.029l48.756-7.973-33.068 40.837z" fill="#57a4ff"/><path d="m241.166 81.335v110.344s-131.121 0-131.121 0c-30.344 0-55.172-24.827-55.172-55.172s24.827-55.172 55.172-55.172z" fill="#006fed"/><path d="m241.166 81.335v110.344s-110.121 0-110.121 0c-30.344 0-55.172-24.827-55.172-55.172 0-30.344 24.825-55.17 55.168-55.172h110.124z" fill="#057aff"/><path d="m316.08 257.013c-43.044-5.048-85.328-34.431-113.163-65.335v-110.343c27.836-30.904 70.119-60.286 113.163-65.335z" fill="#3b96ff"/><path d="m228.75 208.376v-113.062c15.741-20.286 42.153-38.872 87.329-54.564v208.388c-31.259-3.666-62.115-20.167-87.329-40.762z" fill="#57a4ff"/><path d="m404.178 87.036c-3.337 1.933-7.61.794-9.543-2.543s-.794-7.61 2.543-9.543l45.898-26.499c3.337-1.933 7.61-.794 9.543 2.543s.794 7.61-2.543 9.543zm-7.05 56.471c-3.866 0-7-3.134-7-7s3.134-7 7-7h52.999c3.866 0 7 3.134 7 7s-3.134 7-7 7zm.05 54.557c-3.337-1.933-4.476-6.206-2.543-9.543s6.206-4.476 9.543-2.543l45.898 26.499c3.337 1.933 4.476 6.206 2.543 9.543s-6.206 4.476-9.543 2.543z" fill="#ffd064"/><path d="m196.608 272.973 19.797 11.43c3.337 1.918 4.488 6.178 2.57 9.516s-6.178 4.488-9.516 2.57l-19.821-11.443v-8.048l6.969-4.024zm238.931-.008 6.984 4.032v8.063l-19.794 11.428c-3.337 1.933-7.61.794-9.543-2.543s-.794-7.61 2.543-9.543l19.81-11.438zm6.984 141.986v8.048l-6.97 4.024-19.797-11.43c-3.337-1.918-4.488-6.178-2.57-9.516 1.918-3.337 6.178-4.488 9.516-2.57zm-119.442 77.008-7 4.041-7-4.042v-22.855c0-3.866 3.134-7 7-7s7 3.134 7 7zm-126.472-64.936-6.97-4.024v-8.048l19.821-11.443c3.337-1.918 7.598-.767 9.516 2.57s.767 7.598-2.57 9.516l-19.797 11.43z" fill="#adc8f0"/><path d="m280.754 46.901c3.488-1.646 7.651-.153 9.297 3.336s.153 7.651-3.336 9.297c-11.674 5.499-19.931 10.388-27.268 15.767-7.392 5.418-14.024 11.462-22.311 19.155-2.824 2.627-7.243 2.468-9.871-.355-2.627-2.824-2.468-7.243.355-9.871 8.635-8.016 15.569-14.33 23.569-20.194 8.053-5.903 17.015-11.222 29.566-17.134z" fill="#dbebff"/><path d="m113.833 123.194h43.436v26.625h-43.436c-7.322 0-13.312-5.99-13.312-13.312 0-7.322 5.99-13.313 13.312-13.313z" fill="#dbebff"/></g></svg>