<svg id="Layer_1" height="512" viewBox="0 0 64 64" width="512" xmlns="http://www.w3.org/2000/svg" data-name="Layer 1"><path d="m60.40434 48.77195h-56.81a1.00075 1.00075 0 0 1 -.91-1.42l6.07-13a1.00534 1.00534 0 0 1 .91-.58h9.66a.99206.99206 0 0 0 .94-.66l3.52-9.68a.99223.99223 0 0 1 .94-.66h14.58a1.01351 1.01351 0 0 1 .95.68l1.54 4.64a1.0136 1.0136 0 0 0 .95.68h8.66a1.00291 1.00291 0 0 1 .9.55l9 18a1.00221 1.00221 0 0 1 -.9 1.45z" fill="#168fd6"/><g fill="#ccdde7"><path d="m49.02433 10.772h-3a1.00019 1.00019 0 0 1 .00007-2h2.99993a1.00019 1.00019 0 0 1 0 2z"/><path d="m45.1801 5.98435a1.00342 1.00342 0 0 1 -.34224-1.93995l2.8188-1.0264a1 1 0 0 1 .68451 1.879c-.17662.04484-3.06503 1.17426-3.16107 1.08735z"/><path d="m47.99894 16.58689c-.08771.08854-2.99286-1.04611-3.16113-1.08739a1.00006 1.00006 0 0 1 .68463-1.8789l2.81879 1.0264a1.00343 1.00343 0 0 1 -.34229 1.93989z"/></g><path d="m44.66435 47.592c0 .4-.02.79-.05 1.18h-24.81a12.45809 12.45809 0 1 1 24.86-1.18z" opacity=".1"/><path d="m44.66288 48.59269a12.45674 12.45674 0 0 1 -12.45627 12.45721c-16.523-.65614-16.51829-24.26078.00011-24.91444a12.45674 12.45674 0 0 1 12.45616 12.45723z" fill="#044388"/><path d="m32.20662 39.12818a9.46411 9.46411 0 0 0 -9.46381 9.46448c.49847 12.55453 18.431 12.551 18.92763-.00008a9.46416 9.46416 0 0 0 -9.46382-9.4644zm.00018 16.929a7.47289 7.47289 0 0 1 -7.46387-7.46436c.35072-9.87977 14.57851-9.87723 14.92775.00013a7.47287 7.47287 0 0 1 -7.46388 7.46425z" fill="#ccdde7"/><path d="m32.2068 53.12137a4.529 4.529 0 0 1 .0001-9.05754 4.529 4.529 0 0 1 -.0001 9.05754z" fill="#ccdde7"/><g fill="#42210b" opacity=".1"><path d="m45.73512 37.0572h-3v-3a1.00019 1.00019 0 0 0 -2 .00006v3.5932l-9.23535 9.23535a.99989.99989 0 0 0 1.41406 1.41407l9.24268-9.24268h3.57861a1.00019 1.00019 0 0 0 0-2z"/><path d="m49.73512 33.0572h-3v-3a1.00019 1.00019 0 0 0 -2 .00006v3.99994a.99974.99974 0 0 0 1 1h4a1.00019 1.00019 0 0 0 0-2z"/></g><path d="m45.73512 38.0572h-3v-3a1.00019 1.00019 0 0 0 -2 .00006v3.5932l-9.23535 9.23535a.99989.99989 0 0 0 1.41406 1.41407l9.24268-9.24268h3.57861a1.00019 1.00019 0 0 0 0-2z" fill="#fff"/><path d="m49.73512 34.0572h-3v-3a1.00019 1.00019 0 0 0 -2 .00006v3.99994a.99974.99974 0 0 0 1 1h4a1.00019 1.00019 0 0 0 0-2z" fill="#fff"/><g fill="#ccdde7"><path d="m41.74437 9.772a.98171.98171 0 0 1 -.25.58l-6.5 7.16c-.01 0-2.23005 2.45-2.23005 2.45a1.02271 1.02271 0 0 1 -1.48 0c-1.61007-1.77687-7.02862-7.73815-8.73-9.61a1.03813 1.03813 0 0 1 -.15-1.15c.95638-1.439 2.45936-3.667 3.33-4.99a.99522.99522 0 0 1 .83-.44h10.92a.99662.99662 0 0 1 .83.44c.47.71 1.16 1.75 1.84 2.76.48044.918 1.57602 1.8756 1.59005 2.8z"/><path d="m41.74437 9.772a.98171.98171 0 0 1 -.25.58l-6.5 7.16c-.46829.42163-2.31076 2.76924-2.71 2.73.65231-1.85385 2.9645-8.50068 3.65-10.47z"/><path d="m35.93437 9.772c-.69869 2.007-2.98558 8.58136-3.65 10.47a.82016.82016 0 0 1 -.44.02c-.67971-1.92692-2.98274-8.45642-3.7-10.49z"/><path d="m31.84434 20.26194a.98641.98641 0 0 1 -.56-.3l-2.45-2.7-6.28-6.91a.981.981 0 0 1 -.25-.58h5.84c.73003 2.06978 3.00851 8.52969 3.7 10.49z"/></g><path d="m41.74437 9.772a.98171.98171 0 0 1 -.25.58l-6.5 7.16c-.46829.42163-2.31076 2.76924-2.71 2.73.65231-1.85385 2.9645-8.50068 3.65-10.47z" fill="#168fd6"/><path d="m31.84434 20.26194a.98641.98641 0 0 1 -.56-.3l-2.45-2.7-6.28-6.91a.981.981 0 0 1 -.25-.58h5.84c.73003 2.06978 3.00851 8.52969 3.7 10.49z" fill="#168fd6"/><g fill="#ccdde7"><path d="m28.14433 9.772h-5.84c.03452-.97073 1.09855-1.85185 1.58981-2.80006a23.50636 23.50636 0 0 1 2.18018-3.06994z"/><path d="m32.00438 3.772-3.86 6-2.07-5.87c.02334-.26441 5.69996-.07778 5.93-.13z"/><path d="m37.97435 3.902-2.04 5.87h-.08l-3.85-6c.2425.053 5.93851-.13567 5.97.13z"/></g><path d="m32.00438 3.772-3.86 6-2.07-5.87c.02334-.26441 5.69996-.07778 5.93-.13z" fill="#168fd6"/><path d="m37.97435 3.902-2.04 5.87h-.08l-3.85-6c.2425.053 5.93851-.13567 5.97.13z" fill="#168fd6"/><g fill="#ccdde7"><path d="m41.74437 9.772h-5.81l2.04-5.87a23.49509 23.49509 0 0 1 2.18009 3.06992c.48008.91822 1.57605 1.87559 1.58991 2.80008z"/><path d="m35.854 9.772h-7.71l3.86-6z"/></g></svg>