<svg id="Layer_1" height="512" viewBox="0 0 64 64" width="512" xmlns="http://www.w3.org/2000/svg" data-name="Layer 1"><path d="m32 11.5a1 1 0 0 0 -1 1v12.5h-5v2h5v13h2v-26.5h5v-2z" fill="#90aacc"/><path d="m37 1h26v23h-26z" fill="#bde3f7"/><path d="m55.613 7.02a8.22 8.22 0 0 0 -1.148-3.926l-1.965 1.245c.016.024 1.5 2.493.382 4l.928.705.821.829c.87-.875 3.32-.6 4.369-.329l.579-2.273a11.038 11.038 0 0 0 -3.966-.251z" fill="#58baaf"/><path d="m54.633 7.972c-.965-1.8-3.357-2.066-4.767-1.9l.263 2.328c.019 0 1.671-.141 2.318.528a12.9 12.9 0 0 0 -2.225 5.047l2.274.474a10.351 10.351 0 0 1 1.804-4.116c.984.424 1.558 1.97 1.565 1.987l2.191-.773c-.406-1.196-1.556-3.122-3.423-3.575z" fill="#4b9d93"/><path d="m58.284 20.811a4.149 4.149 0 0 0 .421-1.8c0-3.241-3.9-5.868-8.7-5.868s-8.7 2.627-8.7 5.868a4.149 4.149 0 0 0 .421 1.8z" fill="#a87e54"/><path d="m1 15h26v22h-26z" fill="#bde3f7"/><path d="m3 33.178 4.867-7.472a.464.464 0 0 1 .788 0l3.427 5.261v-.006l5.353-8.274a.459.459 0 0 1 .783 0l6.782 10.487z" fill="#4b9d93"/><path d="m12.081 30.961-1.43 2.213h-7.651l4.864-7.468a.469.469 0 0 1 .8 0z" fill="#438c83"/><path d="m38.537 42.48h3v2h-3z" fill="#7e95b3" transform="matrix(.987 -.159 .159 .987 -6.41 6.927)"/><path d="m36.479 39.051h3v1.999h-3z" fill="#7e95b3" transform="matrix(.605 -.796 .796 .605 -16.887 46.071)"/><path d="m25.333 63v-10a2.222 2.222 0 0 1 2.223-2.222h8.888a2.222 2.222 0 0 1 2.223 2.222v10z" fill="#5993de"/><circle cx="32" cy="46.889" fill="#e6b374" r="3.889"/><path d="m56.964 19.012a4.156 4.156 0 0 1 -.425 1.8h1.745a4.149 4.149 0 0 0 .421-1.8c0-3.241-3.9-5.868-8.7-5.868-.294 0-.584.011-.871.03 4.395.294 7.83 2.795 7.83 5.838z" fill="#99734d"/><path d="m61.884 19.637c-1.95 0-1.95-1.095-3.9-1.095s-1.95 1.095-3.9 1.095-1.95-1.095-3.9-1.095-1.95 1.095-3.9 1.095-1.95-1.095-3.9-1.095-1.95 1.095-3.9 1.095a3.334 3.334 0 0 1 -1.484-.3v4.663h26v-4.525a3.53 3.53 0 0 1 -1.116.162z" fill="#6f9fde"/><circle cx="10.5" cy="21.322" fill="#d9777b" r="2.5"/></svg>