<svg height="512" viewBox="0 0 28 28" width="512" xmlns="http://www.w3.org/2000/svg"><g id="Layer_2" data-name="Layer 2"><path d="m7.882 20.118 2.193-8.77 5.259-1.315 2.633 2.633-1.315 5.259z" fill="#a6e4ff"/><path d="m14.459 10.252 1.096-2.192 4.385 4.385-2.192 1.096" fill="#ff9225"/><path d="m12.591 15.957-3.978 3.978-.731.183.183-.731 3.978-3.978a1.162 1.162 0 1 1 .548.548z" fill="#f5f9fa"/><path d="m24.5 24.5h-21v-21h21zm-20-1h19v-19h-19z" fill="#d1d3d4"/><g fill="#51acdb"><path d="m2 2h4v4h-4z"/><path d="m12 2h4v4h-4z"/><path d="m22 2h4v4h-4z"/><path d="m22 12h4v4h-4z"/><path d="m22 22h4v4h-4z"/><path d="m2 22h4v4h-4z"/><path d="m2 12h4v4h-4z"/><path d="m12 22h4v4h-4z"/></g></g></svg>