<svg enable-background="new 0 0 512 512" height="512" viewBox="0 0 512 512" width="512" xmlns="http://www.w3.org/2000/svg"><g id="_x31_10_Contribution"><g><g><g><path d="m86.897 316.463 60.907 132.053c3.152 6.834.183 14.887-6.651 18.04l-50.374 23.234c-6.944 3.203-14.998.234-18.15-6.6l-60.908-132.053c-3.152-6.834-.183-14.887 6.762-18.09l50.374-23.234c6.834-3.153 14.888-.184 18.04 6.65z" fill="#92e6fd"/><path d="m501.495 234.471c0 3.553-1.045 7.209-3.239 10.553l-66.449 99.778c-38.344 52.135-98.524 83.793-163.197 86.091l-127.569 2.926-47.433-102.705 38.867-32.18c33.433-27.582 81.18-29.672 116.808-5.119h68.538c8.88 0 17.343 2.299 24.866 6.478l83.792-70.001c16.821-13.583 38.867-18.911 59.971-14.418 9.299 1.985 15.045 10.029 15.045 18.597z" fill="#fed480"/></g><path d="m205.049 227.534 85.568-85.568-85.587-85.588c-47.244 47.243-47.249 123.867.019 171.156z" fill="#92e6fd"/><path d="m205.03 56.378 85.588 85.588v-121.02c-30.982-.009-61.959 11.803-85.588 35.432z" fill="#fed480"/><path d="m290.618 141.966-85.568 85.568c.007.007.012.013.019.02 47.25 47.25 123.888 47.25 171.138 0s47.25-123.888 0-171.138c-23.64-23.64-54.616-35.462-85.588-35.47v121.02z" fill="#f59977"/></g><g fill="#021938"><path d="m487.554 210.785c-22.783-4.857-46.25.765-64.402 15.549l-81.203 67.797c-7.409-3.506-15.578-5.497-24.093-5.497h-66.932c-37.292-24.824-87.134-22.324-121.763 6.306l-33.621 27.792-3.896-8.447c-4.442-9.634-15.724-13.514-24.967-9.213l-50.393 23.232c-9.468 4.377-13.652 15.6-9.305 25.018l60.902 132.048c4.356 9.457 15.624 13.514 25.079 9.162l50.373-23.232c9.456-4.359 13.583-15.511 9.213-24.967l-3.454-7.489 119.728-2.765c66.677-2.306 127.62-34.435 167.34-88.359l66.493-99.766c9.473-14.196 1.668-33.56-15.099-37.169zm-348.588 251.026-50.373 23.232c-4.306 1.99-9.254.224-11.223-4.04l-60.902-132.048c-1.969-4.265-.122-9.173 4.193-11.162l50.393-23.232c4.269-1.979 9.18-.064 11.101 4.091l54.083 117.264c.003.005.006.011.008.018l6.811 14.766c1.948 4.234.115 9.166-4.091 11.111zm354.995-219.652-66.351 99.561c-37.68 51.138-95.684 81.716-159.096 83.91l-124.192 2.87-44.255-95.952 35.746-29.548c31.456-26.028 76.921-28.018 110.54-4.836.877.592 1.908.918 2.969.918h68.534c17.008 0 32.548 9.326 40.547 24.334 2.943 5.521-1.03 12.152-7.295 12.152h-123.242c-2.887 0-5.224 2.336-5.224 5.224s2.337 5.224 5.224 5.224h123.243c14.148 0 23.148-15.083 16.519-27.518-4.009-7.515-9.613-13.788-16.195-18.678l78.362-65.426c15.611-12.733 35.854-17.651 55.576-13.386 9.427 2.013 14.055 12.933 8.59 21.151z"/><path d="m59.923 335.436c-11.274 0-20.447 9.122-20.447 20.324 0 11.264 9.173 20.437 20.447 20.437s20.447-9.173 20.447-20.437c0-11.203-9.173-20.324-20.447-20.324zm0 30.313c-5.51 0-9.999-4.479-9.999-9.989 0-5.448 4.489-9.877 9.999-9.877s9.999 4.428 9.999 9.877c0 5.51-4.489 9.989-9.999 9.989z"/><path d="m379.901 231.252c49.22-49.22 49.22-129.314 0-178.533-23.845-23.845-55.556-36.986-89.287-36.996-.01 0-.031 0-.041 0-33.711 0-65.402 13.131-89.236 36.966-49.209 49.209-49.199 129.303.02 178.543.007.008.017.01.024.017l-.004.004c49.194 49.191 129.304 49.22 178.524-.001zm-85.599-85.587c.983-.981 1.537-2.344 1.537-3.7v-115.539c28.966 1.293 56.042 13.047 76.676 33.68 45.149 45.149 45.149 118.611 0 163.759-43.909 43.878-114.511 44.983-159.89 3.487zm-8.912-119.382v103.071l-72.803-72.803c20.11-18.405 45.569-29.079 72.803-30.268zm-80.277 37.568 78.115 78.115-78.094 78.104c-40.334-44.118-40.344-112.132-.021-156.219z"/></g></g></g></svg>