<svg enable-background="new 0 0 512 512" height="512" viewBox="0 0 512 512" width="512" xmlns="http://www.w3.org/2000/svg"><g id="_x31_1_Object"><g><path d="m256 248.732v170.286l-124.031-77.876v-170.285z" fill="#d7e9ff"/><path d="m380.032 170.857v170.285l-124.032 77.876v-170.286z" fill="#d7e9ff"/><path d="m380.046 170.866-124.048 77.863-124.049-77.863 124.049-77.864z" fill="#94c1ff"/><path d="m256 248.732v170.286l-124.031-77.876v-170.285z" fill="#d7e9ff"/><path d="m176.162 316.708v-65.923l35.647 22.381v65.925z" fill="#fff"/><path d="m300.192 273.166 35.647-22.381v65.923l-35.647 22.383z" fill="#fff"/><path d="m215.072 170.865 40.926-25.688 40.924 25.688-40.924 25.69z" fill="#fff"/><g fill="#116fff"><path d="m214.419 269.009-35.647-22.381c-3.253-2.05-7.521.294-7.521 4.157v65.923c0 1.69.868 3.261 2.299 4.157l35.647 22.384c3.242 2.041 7.521-.279 7.521-4.157v-65.925c.001-1.691-.867-3.261-2.299-4.158zm-7.521 61.202-25.826-16.217v-54.329l25.826 16.215z"/><path d="m380.049 260.905c-2.712 0-4.91 2.199-4.91 4.91v16.45c0 2.712 2.199 4.91 4.91 4.91 2.712 0 4.91-2.199 4.91-4.91v-16.45c.001-2.711-2.198-4.91-4.91-4.91z"/><path d="m384.96 170.853c0-2.853-2.014-3.808-2.511-4.279-76.659-48.117-47.215-29.635-123.84-77.731-1.597-1.002-3.625-1.002-5.222 0l-124.049 77.863c-1.193.749-2.299 2.321-2.299 4.16 0 .717.021 169.541.022 170.277 0 1.69.868 3.261 2.299 4.157l124.03 77.875c1.633 1.027 3.792.901 5.241-.005l124.03-77.875c1.431-.897 2.299-2.467 2.299-4.157v-39.133c0-2.712-2.199-4.91-4.91-4.91-2.712 0-4.91 2.199-4.91 4.91v36.419l-114.21 71.708v-158.69c11.711-7.352-42.348 26.585 114.21-71.698v43.107c0 2.712 2.199 4.91 4.91 4.91 2.712 0 4.91-2.199 4.91-4.91zm-128.962-72.053 114.807 72.061c-157.332 98.765-103.017 64.669-114.807 72.07-150.586-94.546-106.434-66.825-114.797-72.076zm-4.908 311.336-114.21-71.708v-158.669c19.951 12.523 77.471 48.628 114.21 71.688z"/><path d="m333.228 246.628-35.647 22.381c-1.431.897-2.299 2.467-2.299 4.157v65.925c0 3.877 4.277 6.199 7.521 4.157l35.647-22.384c1.431-.897 2.299-2.467 2.299-4.157v-65.923c0-3.852-4.251-6.206-7.521-4.156zm-2.3 67.366-25.826 16.217v-54.331l25.826-16.215z"/><path d="m212.46 175.025 40.926 25.69c1.579.991 3.613 1.01 5.222 0l40.924-25.69c3.062-1.923 3.063-6.395 0-8.32l-40.924-25.687c-1.597-1.002-3.625-1.002-5.222 0l-40.926 25.687c-3.061 1.924-3.063 6.396 0 8.32zm43.538-24.05 31.688 19.89-31.688 19.892-31.691-19.892z"/><path d="m260.908 47.948v-22.727c0-2.712-2.199-4.91-4.91-4.91-2.712 0-4.91 2.199-4.91 4.91v22.726c0 2.712 2.199 4.91 4.91 4.91 2.711.001 4.91-2.198 4.91-4.909z"/><path d="m251.087 464.052v22.726c0 2.712 2.199 4.91 4.91 4.91 2.712 0 4.91-2.199 4.91-4.91v-22.726c0-2.712-2.199-4.91-4.91-4.91s-4.91 2.199-4.91 4.91z"/><path d="m415.711 89.341-16.068 16.071c-1.918 1.918-1.918 5.028 0 6.943 1.918 1.918 5.025 1.918 6.943 0l16.068-16.071c1.918-1.918 1.918-5.028 0-6.943-1.918-1.918-5.025-1.918-6.943 0z"/><path d="m89.344 422.654c1.918 1.918 5.025 1.918 6.943 0l16.068-16.071c1.918-1.918 1.918-5.028 0-6.943-1.918-1.918-5.025-1.918-6.943 0l-16.068 16.071c-1.918 1.918-1.918 5.027 0 6.943z"/><path d="m459.14 256c0 2.712 2.199 4.91 4.91 4.91h22.726c2.712 0 4.91-2.199 4.91-4.91 0-2.712-2.199-4.91-4.91-4.91h-22.726c-2.712 0-4.91 2.198-4.91 4.91z"/><path d="m25.224 260.905h22.726c2.712 0 4.91-2.199 4.91-4.91s-2.199-4.91-4.91-4.91h-22.726c-2.712 0-4.91 2.199-4.91 4.91s2.198 4.91 4.91 4.91z"/><path d="m399.642 399.642c-1.918 1.918-1.918 5.028 0 6.943l16.071 16.068c1.918 1.918 5.025 1.918 6.943 0s1.918-5.028 0-6.943l-16.071-16.068c-1.918-1.918-5.025-1.918-6.943 0z"/><path d="m89.349 89.341c-1.918 1.916-1.918 5.025 0 6.943l16.068 16.071c1.918 1.918 5.025 1.918 6.943 0 1.918-1.916 1.918-5.025 0-6.943l-16.068-16.071c-1.918-1.918-5.025-1.918-6.943 0z"/></g></g></g></svg>