<svg id="Capa_1" enable-background="new 0 0 510 510" height="512" viewBox="0 0 510 510" width="512" xmlns="http://www.w3.org/2000/svg" xmlns:xlink="http://www.w3.org/1999/xlink"><linearGradient id="SVGID_1_" gradientUnits="userSpaceOnUse" x1="214.579" x2="511.458" y1="69.657" y2="366.535"><stop offset="0" stop-color="#d8ecfe"/><stop offset=".1216" stop-color="#d4eafe"/><stop offset=".259" stop-color="#c6e4fe"/><stop offset=".4043" stop-color="#afdafe"/><stop offset=".555" stop-color="#8fcdfd"/><stop offset=".7099" stop-color="#67bcfd"/><stop offset=".8659" stop-color="#36a8fd"/><stop offset="1" stop-color="#0593fc"/></linearGradient><linearGradient id="lg1"><stop offset="0" stop-color="#7bacdf" stop-opacity="0"/><stop offset="1" stop-color="#024c67"/></linearGradient><linearGradient id="SVGID_00000093166542563248265680000013366098235088340390_" gradientUnits="userSpaceOnUse" x1="359.311" x2="305.314" xlink:href="#lg1" y1="270.3" y2="463.79"/><linearGradient id="SVGID_00000137834698523513942630000009767184497734290853_" gradientUnits="userSpaceOnUse" x1="312.134" x2="745.612" xlink:href="#lg1" y1="164.199" y2="237.696"/><linearGradient id="SVGID_00000106115869642467088390000014724923561721798327_" gradientUnits="userSpaceOnUse" x1="349.935" x2="349.935" xlink:href="#lg1" y1="423.365" y2="535.63"/><linearGradient id="SVGID_00000124153652187508531770000006234699228302501767_" gradientUnits="userSpaceOnUse" x1="236.19" x2="426.68" xlink:href="#lg1" y1="232.487" y2="460.476"/><linearGradient id="SVGID_00000013151057623355606950000014453975131954663552_" gradientUnits="userSpaceOnUse" x1="-49.038" x2="298.451" y1="95.884" y2="443.373"><stop offset="0" stop-color="#80d261"/><stop offset=".1607" stop-color="#7ccf63"/><stop offset=".3424" stop-color="#6ec469"/><stop offset=".5343" stop-color="#57b373"/><stop offset=".7334" stop-color="#389b80"/><stop offset=".936" stop-color="#107c91"/><stop offset="1" stop-color="#017297"/></linearGradient><linearGradient id="lg2"><stop offset="0" stop-color="#026841" stop-opacity="0"/><stop offset="1" stop-color="#3e5959"/></linearGradient><linearGradient id="SVGID_00000014603648138262498140000005552184105627066299_" gradientUnits="userSpaceOnUse" x1="162.296" x2="-52.194" xlink:href="#lg2" y1="173.575" y2="250.071"/><linearGradient id="SVGID_00000166639045018333699900000002217541525364602791_" gradientTransform="matrix(1 0 0 -1 0 329)" gradientUnits="userSpaceOnUse" x1="162.298" x2="-52.192" xlink:href="#lg2" y1="-7.425" y2="69.071"/><linearGradient id="SVGID_00000017508059221166888820000004268146155151467941_" gradientUnits="userSpaceOnUse" x1="160.065" x2="160.065" xlink:href="#lg2" y1="423.365" y2="535.63"/><linearGradient id="SVGID_00000026159895641077213250000017343851052749886604_" gradientUnits="userSpaceOnUse" x1="140.808" x2="408.885" xlink:href="#lg2" y1="121.776" y2="434.532"/><linearGradient id="SVGID_00000147185552286718650000000000485629366666945670_" gradientUnits="userSpaceOnUse" x1="154.631" x2="264.695" xlink:href="#lg2" y1="131.156" y2="356.733"/><linearGradient id="SVGID_00000149378034661453258780000004366535374702140594_" gradientUnits="userSpaceOnUse" x1="196.016" x2="313.728" y1="196.016" y2="313.728"><stop offset="0" stop-color="#ffe177"/><stop offset=".1672" stop-color="#ffdd73"/><stop offset=".3563" stop-color="#ffd065"/><stop offset=".5559" stop-color="#ffbc4e"/><stop offset=".7629" stop-color="#fea02f"/><stop offset=".9738" stop-color="#fe7c06"/><stop offset="1" stop-color="#fe7701"/></linearGradient><g><g><path d="m444.991 255c40.424 45.115 65.009 104.73 65.009 170.098 0 18.125-1.888 35.803-5.48 52.849-2.817 13.367-13.206 23.755-26.573 26.573-17.045 3.593-34.724 5.48-52.849 5.48-65.368 0-124.983-24.585-170.098-65.009-34.343-30.78-60.301-70.713-73.999-115.992-7.094-23.408-10.903-48.254-10.903-73.999s3.809-50.591 10.903-73.999c13.698-45.279 39.656-85.213 73.999-115.992 45.115-40.424 104.73-65.009 170.098-65.009 18.125 0 35.804 1.888 52.849 5.48 13.367 2.817 23.755 13.206 26.573 26.573 3.593 17.045 5.48 34.724 5.48 52.849 0 65.368-24.585 124.983-65.009 170.098z" fill="url(#SVGID_1_)"/><path d="m444.99 255c40.43 45.12 65.01 104.73 65.01 170.1 0 18.12-1.89 35.8-5.48 52.85-1.41 6.68-4.71 12.62-9.33 17.24l-314.19-314.19c13.7-45.28 39.66-85.21 74-115.99 45.12-40.43 104.73-65.01 170.1-65.01 18.12 0 35.8 1.89 52.85 5.48 13.36 2.82 23.75 13.21 26.57 26.57 3.59 17.05 5.48 34.73 5.48 52.85 0 65.37-24.58 124.98-65.01 170.1z" fill="url(#SVGID_00000093166542563248265680000013366098235088340390_)"/><path d="m170.098 255c0 25.75 3.81 50.59 10.9 74l314.19-314.19c-4.62-4.62-10.56-7.92-17.24-9.33-17.05-3.59-34.73-5.48-52.85-5.48-65.37 0-124.98 24.58-170.1 65.01-34.34 30.78-60.3 70.71-74 115.99-7.09 23.41-10.9 48.25-10.9 74z" fill="url(#SVGID_00000137834698523513942630000009767184497734290853_)"/><path d="m255 444.991c45.115 40.424 104.73 65.009 170.098 65.009 18.125 0 35.803-1.888 52.849-5.48 13.367-2.817 23.755-13.206 26.573-26.573 3.593-17.045 5.48-34.724 5.48-52.849 0-24.815-3.551-48.798-10.158-71.477h-309.972c14.753 35.157 37.158 66.301 65.13 91.37z" fill="url(#SVGID_00000106115869642467088390000014724923561721798327_)"/><path d="m328.999 181.001c-23.408-7.094-48.254-10.903-73.999-10.903s-50.591 3.809-73.999 10.903c-45.279 13.698-85.213 39.656-115.992 73.999 30.78 34.343 70.713 60.301 115.992 73.999 23.408 7.094 48.254 10.903 73.999 10.903s50.591-3.809 73.999-10.903c45.279-13.698 85.212-39.656 115.992-73.999-30.779-34.343-70.713-60.301-115.992-73.999z" fill="url(#SVGID_00000124153652187508531770000006234699228302501767_)"/><path d="m339.902 255c0 25.745-3.809 50.591-10.903 73.999-13.698 45.279-39.656 85.212-73.999 115.992-45.115 40.424-104.73 65.009-170.098 65.009-18.125 0-35.804-1.888-52.849-5.48-13.367-2.817-23.755-13.206-26.573-26.573-3.592-17.045-5.48-34.724-5.48-52.849 0-65.368 24.585-124.983 65.009-170.098-40.424-45.115-65.009-104.73-65.009-170.098 0-18.125 1.888-35.803 5.48-52.849 2.818-13.367 13.206-23.755 26.573-26.573 17.045-3.592 34.724-5.48 52.849-5.48 65.368 0 124.983 24.585 170.098 65.009 34.343 30.78 60.301 70.713 73.999 115.992 7.094 23.408 10.903 48.254 10.903 73.999z" fill="url(#SVGID_00000013151057623355606950000014453975131954663552_)"/><path d="m339.9 255c0 25.75-3.81 50.59-10.9 74l-314.19-314.19c4.62-4.62 10.56-7.92 17.24-9.33 17.05-3.59 34.73-5.48 52.85-5.48 65.37 0 124.98 24.58 170.1 65.01 34.34 30.78 60.3 70.71 74 115.99 7.09 23.41 10.9 48.25 10.9 74z" fill="url(#SVGID_00000014603648138262498140000005552184105627066299_)"/><path d="m339.902 255c0-25.75-3.81-50.59-10.9-74l-314.19 314.19c4.62 4.62 10.56 7.92 17.24 9.33 17.05 3.59 34.73 5.48 52.85 5.48 65.37 0 124.98-24.58 170.1-65.01 34.34-30.78 60.3-70.71 74-115.99 7.09-23.41 10.9-48.25 10.9-74z" fill="url(#SVGID_00000166639045018333699900000002217541525364602791_)"/><path d="m10.158 353.622c-6.607 22.678-10.158 46.661-10.158 71.476 0 18.124 1.888 35.803 5.48 52.849 2.817 13.367 13.206 23.755 26.573 26.573 17.045 3.593 34.724 5.48 52.849 5.48 65.368 0 124.983-24.585 170.098-65.009 27.972-25.069 50.377-56.213 65.13-91.37h-309.972z" fill="url(#SVGID_00000017508059221166888820000004268146155151467941_)"/></g><path d="m328.999 328.999c7.094-23.408 10.903-48.254 10.903-73.999s-3.809-50.591-10.903-73.999c-13.698-45.279-39.656-85.213-73.999-115.992-34.343 30.78-60.301 70.713-73.999 115.992-7.094 23.408-10.903 48.254-10.903 73.999s3.809 50.591 10.903 73.999c13.698 45.279 39.656 85.212 73.999 115.992 34.343-30.779 60.301-70.713 73.999-115.992z" fill="url(#SVGID_00000026159895641077213250000017343851052749886604_)"/><path d="m328.999 181.001c-23.408-7.094-48.254-10.903-73.999-10.903s-50.591 3.809-73.999 10.903c-45.279 13.698-85.213 39.656-115.992 73.999 30.78 34.343 70.713 60.301 115.992 73.999 23.408 7.094 48.254 10.903 73.999 10.903s50.591-3.809 73.999-10.903c7.094-23.408 10.903-48.254 10.903-73.999s-3.809-50.591-10.903-73.999z" fill="url(#SVGID_00000147185552286718650000000000485629366666945670_)"/><path d="m328.999 181.001c-23.408-7.094-48.254-10.903-73.999-10.903s-50.591 3.809-73.999 10.903c-7.094 23.408-10.903 48.254-10.903 73.999s3.809 50.591 10.903 73.999c23.408 7.094 48.254 10.903 73.999 10.903s50.591-3.809 73.999-10.903c7.094-23.408 10.903-48.254 10.903-73.999s-3.809-50.591-10.903-73.999z" fill="url(#SVGID_00000149378034661453258780000004366535374702140594_)"/></g></svg>