<svg height="512" viewBox="0 0 24 24" width="512" xmlns="http://www.w3.org/2000/svg"><g id="_01" data-name="01"><path d="m12 22a10 10 0 1 1 10-10 10 10 0 0 1 -10 10z" fill="#e4cfa2"/><path d="m6 14.893a.75.75 0 0 1 -.75-.75v-4.286a.75.75 0 0 1 1.5 0v4.286a.75.75 0 0 1 -.75.75z" fill="#1d9b61"/><path d="m9 16.321a.75.75 0 0 1 -.75-.75v-7.142a.75.75 0 0 1 1.5 0v7.142a.75.75 0 0 1 -.75.75z" fill="#ef7a1b"/><path d="m12 17.75a.75.75 0 0 1 -.75-.75v-10a.75.75 0 0 1 1.5 0v10a.75.75 0 0 1 -.75.75z" fill="#1d9b61"/><path d="m15 16.321a.75.75 0 0 1 -.75-.75v-7.142a.75.75 0 0 1 1.5 0v7.142a.75.75 0 0 1 -.75.75z" fill="#ef7a1b"/><path d="m18 14.893a.75.75 0 0 1 -.75-.75v-4.286a.75.75 0 0 1 1.5 0v4.286a.75.75 0 0 1 -.75.75z" fill="#1d9b61"/></g></svg>