<svg height="512" viewBox="0 0 32 32" width="512" xmlns="http://www.w3.org/2000/svg"><g id="progress"><g><g><path d="m24.1640625 13.8706055-1.2705078-.2114258c-.1015625-.300293-.2236328-.59375-.3642578-.878418l.7490234-1.0478516c.2841797-.3979492.2392578-.9423828-.1064453-1.2885742l-1.6152344-1.6166992c-.3466797-.3461914-.8925781-.3911133-1.2880859-.1069336l-1.0488281.7495117c-.2851563-.140625-.578125-.262207-.8789063-.3642578l-.2119141-1.2705078c-.0800781-.4819336-.4970703-.8354492-.9863281-.8354492h-2.2851563c-.4892578 0-.90625.3535156-.9863281.8354492l-.211914 1.2705078c-.2998047.1020508-.5927734.2236328-.8779297.3642578l-1.0488281-.7490234c-.3974609-.284668-.9423828-.2407227-1.2880859.1069336l-1.616211 1.6162109c-.3457031.3457031-.390625.890625-.1064453 1.2885742l.7490234 1.0483399c-.140625.284668-.2626953.5776367-.3642578.8779297l-1.2705078.2114258c-.4824219.0800781-.8359375.4975586-.8359375.9863281v2.2861328c0 .4887695.3535156.90625.8359375.9863281l1.2705078.2114258c.1015625.300293.2236328.5932617.3642578.8779297l-.7490234 1.0483398c-.2841797.3979493-.2392578.9428711.1064453 1.2885743l1.6162109 1.6166992c.3457031.3461914.890625.3901367 1.2880859.1069336l1.0488281-.7495117c.2851563.140625.578125.262207.8779297.3642578l.2119141 1.2705078c.0800782.4819336.4970704.8354492.9863282.8354492h2.2851563c.4892578 0 .90625-.3535156.9863281-.8354492l.2119141-1.2705078c.3007813-.1020508.59375-.2236328.8779297-.3642578l1.0488281.7485352c.3964844.2851563.9423828.2407227 1.2880859-.105957l1.6171875-1.6157227c.3457031-.3457031.390625-.8911133.1064453-1.2890625l-.75-1.0483398c.140625-.284668.2626953-.578125.3642578-.878418l1.2705078-.2114258c.4824219-.0800782.8359375-.4975587.8359375-.9863282v-2.2861328c0-.4887695-.3535156-.90625-.8359375-.9863281zm-8.1640625 5.1293945c-1.6542969 0-3-1.3457031-3-3s1.3457031-3 3-3 3 1.3457031 3 3-1.3457031 3-3 3z" fill="#42a5f5"/><path d="m9.8154297 4.5600586c1.8876953-1.0205078 4.0263672-1.5600586 6.1845703-1.5600586 2.4638672 0 4.8496094.7036133 6.9091797 2.0014648h-1.7597656c-.5527344 0-1 .4477539-1 1s.4472656 1 1 1h4.2011719c.5527344 0 1-.4477539 1-1v-4.0014648c0-.5522461-.4472656-1-1-1s-1 .4477539-1 1v1.5644531c-2.459961-1.6557617-5.3544922-2.5644531-8.350586-2.5644531-2.4882813 0-4.9560547.6225586-7.1357422 1.800293-.4853515.2626953-.6669922.8696289-.4042969 1.3554687.2617188.4848633.8681641.6665039 1.3554688.4042969z" fill="#ffca28"/><path d="m7.0019531 10.8505859v-4.2011718c0-.5522461-.4472656-1-1-1h-4.0019531c-.5527344 0-1 .4477539-1 1s.4472656 1 1 1h1.5654297c-1.6572266 2.4599609-2.5654297 5.3540039-2.5654297 8.3505859 0 2.4882813.6230469 4.9555664 1.8007813 7.1357422.1806641.3344727.5253906.5244141.8808594.5244141.1601563 0 .3232422-.0385742.4746094-.1201172.4853516-.2626953.6669922-.8696289.4042969-1.3554688-1.0205079-1.8886719-1.560547-4.0273437-1.560547-6.1845703 0-2.4638672.7041016-4.8505859 2.0019531-6.909668v1.7602539c0 .5522461.4472656 1 1 1s1-.4477539 1-1z" fill="#78909c"/><path d="m22.1845703 27.4394531c-1.8886719 1.0209961-4.0273437 1.5605469-6.1845703 1.5605469-2.4628906 0-4.8496094-.7041016-6.9082031-2.0019531h1.7587891c.5527344 0 1-.4477539 1-1s-.4472656-1-1-1h-4.2011719c-.5527344 0-1 .4477539-1 1v4.0019531c0 .5522461.4472656 1 1 1s1-.4477539 1-1v-1.5644531c2.4599609 1.65625 5.3544922 2.5644531 8.3505859 2.5644531 2.4882813 0 4.9550781-.6225586 7.1357422-1.8007813.4853516-.2626953.6669922-.8696289.4042969-1.3554688-.2617188-.4848632-.8681641-.6669921-1.3554688-.4042968z" fill="#ef5350"/><path d="m30 24.3505859h-1.5654297c1.6572266-2.4599609 2.5654297-5.3540039 2.5654297-8.3505859 0-2.4882813-.6230469-4.9555664-1.8007813-7.1357422-.2617187-.4853515-.868164-.6665039-1.3554687-.4042969-.4853516.2626953-.6669922.8696289-.4042969 1.3554688 1.0205078 1.8886719 1.5605469 4.0273437 1.5605469 6.1845703 0 2.4638672-.7041016 4.8505859-2.0019531 6.909668v-1.7602539c0-.5522461-.4472656-1-1-1s-1 .4477539-1 1v4.2011719c0 .5522461.4472656 1 1 1h4.0019531c.5527344 0 1-.4477539 1-1s-.4472656-1.0000001-1-1.0000001z" fill="#66bb6a"/></g><g opacity=".1"><path d="m24.1601563 13.8701172-1.2705078-.2099609c-.0996094-.300293-.2197266-.590332-.359375-.8803711l.75-1.0498047c.2792969-.3999023.2392578-.9399414-.1103516-1.2900391l-1.6103516-1.6098633c-.3496094-.3500977-.8994141-.3901367-1.2900391-.1098633l-1.0498047.75c-.2900391-.1401367-.5800781-.2602539-.8798828-.3603516l-.2099609-1.2700195c-.0800781-.489746-.5-.8398437-.9902344-.8398437h-1.1396484v6c1.6503906 0 3 1.3500977 3 3s-1.3496094 3-3 3v6h1.1396484c.4902344 0 .9101563-.3500977.9902344-.8398438l.2099609-1.2700195c.2998047-.1000977.5898438-.2202148.8798828-.3603516l1.0498047.75c.390625.2802734.9404297.2402344 1.2900391-.1098633l1.6103516-1.6098633c.3496094-.3500977.3896484-.8901367.1103516-1.2900391l-.75-1.0498047c.1396484-.2900391.2597656-.5800781.359375-.8803711l1.2705078-.2099609c.4902343-.080078.8398437-.4999999.8398437-.989746v-2.2802734c0-.4897461-.3496094-.909668-.8398437-.9897461z"/><path d="m26.3496094 2v4c0 .5498047-.4492188 1-1 1h-4.1992188c-.5507813 0-1-.4501953-1-1s.4492188-1 1-1h1.7597656c-2.0605468-1.2998047-4.4501953-2-6.9101562-2v-2c3 0 5.8896484.9101563 8.3496094 2.5600586v-1.5600586c0-.5498047.4501953-1 1-1 .5507812 0 1 .4501953 1 1z"/><path d="m23.1396484 29.2001953c-2.1796875 1.1796875-4.649414 1.7998047-7.1396484 1.7998047v-2c2.1601563 0 4.2998047-.5400391 6.1796875-1.5600586.4902344-.2597656 1.1005859-.0800781 1.3603516.3999023.2597656.4902344.0800781 1.1000977-.4003907 1.3603516z"/><path d="m30 24.3505859h-1.5654297c1.6572266-2.4599609 2.5654297-5.3540039 2.5654297-8.3505859 0-2.4882813-.6230469-4.9555664-1.8007813-7.1357422-.2617187-.4853515-.868164-.6665039-1.3554687-.4042969-.4853516.2626953-.6669922.8696289-.4042969 1.3554688 1.0205078 1.8886719 1.5605469 4.0273437 1.5605469 6.1845703 0 2.4638672-.7041016 4.8505859-2.0019531 6.909668v-1.7602539c0-.5522461-.4472656-1-1-1s-1 .4477539-1 1v4.2011719c0 .5522461.4472656 1 1 1h4.0019531c.5527344 0 1-.4477539 1-1s-.4472656-1.0000001-1-1.0000001z"/></g></g></g></svg>