<svg id="Capa_1" enable-background="new 0 0 512 512" height="512" viewBox="0 0 512 512" width="512" xmlns="http://www.w3.org/2000/svg"><g><path d="m304 447.749-16 10h-64l-16-10 16-49.159 16-10h36.333l11.667 10z" fill="#0067c5"/><path d="m268.383 418.59h26.126l-6.509-20-11.667-10h-36.333l-16 10-16 49.159 16 10h40l-16-10 6.119-18.802c2.011-6.176 7.768-10.357 14.264-10.357z" fill="#0055a3"/><path d="m485.675 398.59h-459.361c-14.395 0-26.314-11.641-26.314-26.314v-313.422c0-14.579 12.206-26.686 26.696-26.686h458.607c14.491 0 26.696 12.107 26.696 26.686v313.412c.001 17.408-9.784 26.324-26.324 26.324z" fill="#0055a3"/><path d="m51.51 372.276v-313.422c0-14.579 12.206-26.687 26.696-26.687h-51.51c-14.49 0-26.696 12.108-26.696 26.687v313.422c0 14.673 11.919 26.314 26.314 26.314h51.509c-14.394 0-26.313-11.641-26.313-26.314z" fill="#004281"/><path d="m345 479.833h-178c-3.866 0-7-3.134-7-7v-18.084c0-3.866 3.134-7 7-7h178c3.866 0 7 3.134 7 7v18.084c0 3.866-3.134 7-7 7z" fill="#0055a3"/><path d="m160 454.749v18.083c0 3.866 3.134 7 7 7h44.51v-32.083h-44.51c-3.866 0-7 3.134-7 7z" fill="#004281"/><g><g fill="#e9f1ff"><path d="m256 375.538c-4.267 0-7.726-3.459-7.726-7.726 0-4.267 3.459-7.726 7.726-7.726 4.267 0 7.726 3.459 7.726 7.726 0 4.266-3.459 7.726-7.726 7.726z"/><path d="m288 375.538c-4.267 0-7.726-3.459-7.726-7.726 0-4.267 3.459-7.726 7.726-7.726 4.267 0 7.726 3.459 7.726 7.726 0 4.266-3.459 7.726-7.726 7.726z"/><path d="m224 375.538c-4.267 0-7.726-3.459-7.726-7.726 0-4.267 3.459-7.726 7.726-7.726 4.267 0 7.726 3.459 7.726 7.726 0 4.266-3.459 7.726-7.726 7.726z"/></g></g><path d="m480 334.172h-448v-238.172l10-12.251h428l10 12.251z" fill="#62dbfb"/><path d="m480.341 96h-384.341l-54-10v-12.251l54-10h377.074c3.837 0 6.959 3.089 7 6.926z" fill="#e9f1ff"/><path d="m96 96v-32l-56.973-.223c-3.876-.015-7.027 3.123-7.027 7v25.223z" fill="#f75f79"/><path d="m32 96h19.51v238.172h-19.51z" fill="#68b3f3"/><path d="m32 70.777v25.223h19.51v-32.174l-12.482-.049c-3.877-.015-7.028 3.123-7.028 7z" fill="#cf3086"/><path d="m441 192h-370c-3.866 0-7-3.134-7-7v-50c0-3.866 3.134-7 7-7h370c3.866 0 7 3.134 7 7v50c0 3.866-3.134 7-7 7z" fill="#fe9738"/><path d="m249.17 303.979h-178.17c-3.866 0-7-3.134-7-7v-65.99c0-3.866 3.134-7 7-7h178.17c3.866 0 7 3.134 7 7v65.99c0 3.866-3.134 7-7 7z" fill="#fe9738"/><g><g><g><g><path d="m448 231.727s0 0-.001 0l-159.999-.011c-4.267-.001-7.725-3.46-7.725-7.727s3.46-7.726 7.726-7.726h.001l159.999.011c4.267.001 7.725 3.46 7.725 7.727s-3.46 7.726-7.726 7.726z" fill="#e9f1ff"/></g></g><g><g><path d="m448 263.731-160-.01c-4.268 0-7.726-3.46-7.726-7.727s3.46-7.726 7.726-7.726l160 .011c4.268.001 7.726 3.46 7.726 7.727s-3.46 7.725-7.726 7.725z" fill="#e9f1ff"/></g></g><g><g><path d="m448 295.711s0 0-.001 0l-160-.011c-4.267-.001-7.725-3.46-7.725-7.727s3.46-7.726 7.726-7.726h.001l159.999.011c4.267 0 7.725 3.46 7.725 7.727.001 4.267-3.459 7.726-7.725 7.726z" fill="#e9f1ff"/></g></g></g></g></g></svg>