<svg id="Layer_1" enable-background="new 0 0 512 512" height="512" viewBox="0 0 512 512" width="512" xmlns="http://www.w3.org/2000/svg"><g clip-rule="evenodd" fill-rule="evenodd"><path d="m100.27 376.735c-10.728-8.422-24.842-12.41-37.816-6.964-12.656 5.313-19.257 17.681-19.015 31.14.494 27.434 35.899 53.872 57.228 66.42.806.474 1.753.751 2.69.751.932 0 1.843-.261 2.646-.732 21.332-12.532 56.779-39.016 57.273-66.439.242-13.459-6.359-25.827-19.015-31.14-12.959-5.44-27.104-1.476-37.81 6.958l-3.089 2.433zm326.471 8.461-12.806-33.67c-.829-2.239-2.913-3.646-5.291-3.646-2.406 0-4.453 1.422-5.306 3.667l-12.79 33.649-35.94 1.738c-2.417.117-4.386 1.639-5.147 3.931-.762 2.295-.002 4.682 1.872 6.19l28.016 22.539-9.424 34.717c-.632 2.328.202 4.715 2.157 6.131.963.698 2.136 1.09 3.327 1.09 1.111 0 2.175-.35 3.102-.956l30.135-19.698 30.076 19.684c1.989 1.327 4.478 1.275 6.422-.111 1.984-1.414 2.866-3.771 2.221-6.133l-9.478-34.725 28.12-22.561c1.87-1.5 2.553-3.929 1.812-6.199-.747-2.29-2.743-3.771-5.141-3.887zm-407.753-298.585h26.423l.006 4.994c.028 22.712.113 45.439 0 68.151l-.025 4.975h-26.404zm84.369 237.691c46.503 0 84.322 37.852 84.322 84.35 0 46.501-37.813 84.361-84.322 84.361-46.529 0-84.369-37.831-84.369-84.361 0-46.525 37.847-84.35 84.369-84.35zm121.022-128.841c0-17.413 14.184-31.608 31.597-31.608 17.439 0 31.598 14.173 31.598 31.608 0 17.437-14.158 31.601-31.598 31.601-17.413 0-31.597-14.186-31.597-31.601zm251.72-162.504 18.114 10.257-39.238 69.366-18.173-10.257zm16.867 375.694c0 46.501-37.813 84.361-84.323 84.361-46.529 0-84.369-37.831-84.369-84.361 0-46.525 37.847-84.35 84.369-84.35 46.504.001 84.323 37.853 84.323 84.35z" fill="#9bc9ff"/><path d="m197.509 283.152h116.983c-6.873-26.23-30.599-45.071-58.515-45.071s-51.642 18.842-58.468 45.071zm58.468-61.09c14.688 0 26.598-11.931 26.598-26.601 0-14.669-11.91-26.609-26.598-26.609-14.641 0-26.598 11.94-26.598 26.609 0 14.671 11.957 26.601 26.598 26.601zm-74.003 74.45c-1.507-1.69-2.26-3.95-2.024-6.21 3.154-29.04 22.126-52.739 47.876-62.901-8.85-7.81-14.452-19.229-14.452-31.94 0-23.499 19.113-42.62 42.604-42.62s42.65 19.121 42.65 42.62c0 12.71-5.602 24.13-14.452 31.94 25.703 10.162 44.722 33.861 47.829 62.901.235 2.26-.471 4.52-1.977 6.21-1.553 1.69-3.719 2.65-5.979 2.65h-136.144c-2.26 0-4.425-.96-5.931-2.65zm-29.705 104.199c.188-9.71-4.425-17.479-12.287-20.78-9.556-4.01-21.372-.48-30.929 9.22-1.506 1.53-3.578 2.391-5.696 2.391-2.165 0-4.237-.861-5.743-2.391-6.92-7.05-15.064-10.849-22.69-10.849-2.824 0-5.602.53-8.238 1.629-7.862 3.301-12.428 11.07-12.24 20.78.329 17.951 24.338 40.36 48.912 55.38 24.62-15.059 48.581-37.44 48.911-55.38zm16.005.29c-.612 33.4-45.899 62.53-59.739 70.66-1.601.941-3.389 1.421-5.178 1.421s-3.625-.48-5.225-1.442c-13.887-8.15-59.127-37.248-59.692-70.639-.329-16.26 8.144-29.991 22.078-35.84 13.699-5.75 29.564-2.78 42.839 7.641 13.228-10.421 29.14-13.391 42.839-7.641 13.934 5.85 22.361 19.581 22.078 35.84zm14.406 7.65c0 43.76-35.589 79.361-79.323 79.361-43.78 0-79.37-35.601-79.37-79.361 0-43.749 35.589-79.35 79.37-79.35 43.733 0 79.323 35.602 79.323 79.35zm16.052 0c0 52.591-42.792 95.371-95.375 95.371-52.584 0-95.375-42.78-95.375-95.371s42.792-95.371 95.375-95.371c52.584.001 95.375 42.781 95.375 95.371zm249.36-11.39-22.126-1.079c-4.284-.221-8.003-2.93-9.462-6.92l-7.862-20.68-7.862 20.68c-1.506 3.979-5.178 6.699-9.462 6.92l-22.173 1.079 17.277 13.88c3.342 2.65 4.754 7.03 3.625 11.14l-5.79 21.381 18.501-12.12c1.789-1.161 3.813-1.74 5.884-1.74 2.024 0 4.095.579 5.837 1.749l18.548 12.131-5.79-21.381c-1.13-4.139.282-8.51 3.625-11.169zm21.043 3.671-25.562 20.509 8.615 31.561c1.177 4.421-.471 8.92-4.143 11.521-3.625 2.6-8.38 2.679-12.099.199l-27.304-17.868-27.398 17.909c-1.789 1.18-3.813 1.771-5.837 1.771-2.165 0-4.378-.68-6.261-2.041-3.625-2.63-5.225-7.139-4.049-11.489l8.568-31.561-25.468-20.489c-3.531-2.84-4.896-7.411-3.484-11.661 1.412-4.261 5.178-7.141 9.65-7.35l32.671-1.58 11.628-30.59c1.553-4.16 5.461-6.89 9.98-6.89 4.472 0 8.427 2.711 9.98 6.911l11.628 30.569 32.671 1.591c4.472.199 8.238 3.078 9.651 7.33 1.365 4.257.047 8.828-3.437 11.648zm18.831 7.719c0 43.76-35.589 79.361-79.323 79.361-43.78 0-79.37-35.601-79.37-79.361 0-43.749 35.589-79.35 79.37-79.35 43.733 0 79.323 35.602 79.323 79.35zm16.052 0c0 52.591-42.792 95.371-95.375 95.371s-95.375-42.78-95.375-95.371 42.792-95.371 95.375-95.371 95.375 42.781 95.375 95.371zm-480.031-248.92h16.429c.047-9.45.047-29.22 0-68.12h-16.429zm36.108-74.67c-1.271.89-2.495 1.751-3.672 2.601.047 26.009.047 76.02.047 76.529 12.004 10.162 23.82 10.081 46.275 6.471-.612-1.91-.941-3.95-.941-6.07 0-4.57 1.506-8.8 4.095-12.181-2.589-3.389-4.095-7.599-4.095-12.17 0-3.188.753-6.21 2.071-8.889-1.647-1.399-3.107-3.06-4.237-4.91-2.213 1.591-4.284 2.909-6.073 3.929-1.271.73-2.636 1.071-4.001 1.071-2.777 0-5.461-1.44-6.967-4.02-2.165-3.84-.847-8.731 2.966-10.931 4.095-2.359 13.887-8.729 15.77-17.01.895-4.04-.188-8.26-3.389-12.911-2.165-3.179-1.789-7.458.941-10.189 4.049-4.02 5.696-8.33 6.12-10.561v-19.18c0-9.659-6.026-17.928-14.594-21.167v16.068c0 22.13-16.806 33.991-30.316 43.52zm61.857 2.33c-2.213 0-4.143 1.899-4.143 4.15 0 2.309 1.883 4.18 4.143 4.18h30.364c2.259 0 4.143-1.87 4.143-4.18 0-2.251-1.93-4.15-4.143-4.15zm35.495 24.35h-40.626c-2.213 0-4.143 1.899-4.143 4.151 0 2.269 1.93 4.179 4.143 4.179h40.626c2.212 0 4.143-1.91 4.143-4.179 0-2.251-1.93-4.151-4.143-4.151zm-4.378 28.5c0-2.249-1.93-4.148-4.19-4.148h-26.927c-2.213 0-4.143 1.899-4.143 4.148 0 2.251 1.93 4.151 4.143 4.151h26.927c2.26-.001 4.19-1.901 4.19-4.151zm-7.297 24.351c0-2.27-1.883-4.18-4.143-4.18h-19.677c-2.26 0-4.143 1.87-4.143 4.18 0 2.25 1.93 4.15 4.143 4.15h19.677c2.26 0 4.143-1.9 4.143-4.15zm-137.79 3.149v-84.14c0-4.419 3.578-7.999 8.003-7.999h29.799c1.695-1.24 3.39-2.451 5.084-3.63 12.617-8.911 23.538-16.6 23.538-30.43v-25.54c0-4.43 3.578-8.012 8.003-8.012 21.325 0 38.649 17.343 38.649 38.651v19.81c0 .361-.047.719-.094 1.079-.188 1.291-.471 2.611-.847 3.941.612-.061 1.224-.099 1.836-.099h30.364c11.11 0 20.148 9.049 20.148 20.169 0 3.2-.753 6.221-2.071 8.91 4.425 3.711 7.203 9.251 7.203 15.441 0 7.339-3.954 13.779-9.792 17.319.8 2.19 1.271 4.56 1.271 7.03 0 6.901-3.484 13.001-8.803 16.631.989 2.38 1.553 4.989 1.553 7.72 0 11.12-9.086 20.171-20.195 20.171h-19.677c-1.365 0-2.73-.151-4.049-.421l-2.307.401c-13.04 2.26-24.244 4.2-34.365 4.2-13.134 0-24.526-3.24-35.919-13.202h-29.329c-4.425-.001-8.003-3.579-8.003-8zm470.804-115.179c2.354.37 4.566-1.27 4.943-3.681.329-2.38-1.318-4.59-3.672-4.93-2.448-.34-4.66 1.3-4.99 3.68-.33 2.381 1.318 4.591 3.719 4.931zm-204.968-14.95 78.993 48.639c5.366 3.29 10.969 4.081 17.23 2.399l57.244-15.358c2.071-.552 4.284-.261 6.12.8l5.084 2.938 17.465-30.849-28.904-16.729c-8.945-5.16-14.547-6.483-20.007-4.703-2.542.833-5.555 1.921-9.086 3.182-10.168 3.681-22.785 8.25-36.06 10.711-2.024.829-3.672 2.85-3.06 5.239.33 1.21.942 3.42 5.414 2.951 6.261-1.3 12.334-3.021 18.689-4.842 3.013-.859 6.12-1.739 9.321-2.598 4.237-1.151 8.662 1.379 9.792 5.649s-1.365 8.67-5.649 9.81c-3.06.829-6.12 1.699-9.039 2.54-6.826 1.94-13.228 3.781-20.242 5.201-.047.009-.282.049-.329.059l-5.367.881c-9.133 1.451-17.182.029-24.762-4.351l-43.498-25.379c-9.886-5.739-17.983-7.109-20.195-3.423-1.507 2.533-.566 6.352.846 7.233zm169.802 62.819 34.365-60.66 9.415 5.331-34.318 60.669zm-184.395-78.28c5.743-9.538 19.772-15.13 41.991-2.189l41.521 24.21c-.565-9.13 5.272-17.869 14.593-20.901.377-.118.706-.212 1.083-.268 12.145-2.189 24.338-6.591 34.13-10.131 3.484-1.252 6.732-2.439 9.556-3.361 12.664-4.11 23.773.772 32.953 6.073l28.763 16.655.989-1.756c1.883-3.352 4.99-5.753 8.709-6.784 3.719-1.017 7.626-.537 10.922 1.342l12.24 6.92c3.342 1.9 5.79 5 6.826 8.741.989 3.72.518 7.609-1.412 10.951l-35.872 63.388c-2.636 4.691-7.579 7.321-12.569 7.321-2.401 0-4.849-.59-7.061-1.85l-12.24-6.92c-3.295-1.861-5.743-4.941-6.779-8.66-1.036-3.72-.565-7.62 1.318-10.98l1.695-2.981-2.354-1.35-54.043 14.5c-3.483.93-6.873 1.381-10.262 1.381-6.826 0-13.464-1.881-19.489-5.61l-78.993-48.641c-9.181-5.649-12.1-19.238-6.215-29.1zm-163.871 186.861v82.291c0 4.419 3.578 8.01 8.003 8.01s8.003-3.591 8.003-8.01v-82.291c0-4.421-3.578-8.01-8.003-8.01-4.425-.001-8.003 3.589-8.003 8.01zm195.929 191.629h-70.566c-4.425 0-8.05 3.591-8.05 8.01 0 4.421 3.625 8.01 8.05 8.01h70.566c4.425 0 8.003-3.589 8.003-8.01 0-4.419-3.578-8.01-8.003-8.01zm109.357-282.989v173.65c0 4.419 3.578 8.01 8.003 8.01s8.003-3.591 8.003-8.01v-173.65c0-4.43-3.578-8.01-8.003-8.01s-8.003 3.58-8.003 8.01zm-210.993-14.29c0 4.419 3.625 8.011 8.05 8.011h110.44c4.378 0 8.003-3.591 8.003-8.011s-3.625-8.01-8.003-8.01h-110.44c-4.425 0-8.05 3.589-8.05 8.01z" fill="#57a4ff"/></g></svg>