<svg id="Layer_3" enable-background="new 0 0 64 64" height="512" viewBox="0 0 64 64" width="512" xmlns="http://www.w3.org/2000/svg"><g><g><path d="m32 33c-8.822 0-16-7.178-16-16s7.178-16 16-16 16 7.178 16 16c0 6.362-3.769 12.12-9.6 14.668l-.8-1.833c5.103-2.229 8.4-7.268 8.4-12.835 0-7.72-6.28-14-14-14s-14 6.28-14 14 6.28 14 14 14c1.267 0 2.523-.169 3.734-.503l.531 1.928c-1.383.382-2.819.575-4.265.575z" fill="#ba4753"/></g><g fill="#3d54bd"><path d="m36 62v-18h6l-10-10-10 10h6v18"/><path d="m57 62v-10h5l-7-7-7 7h5v10"/><path d="m7 62v-14h-5l7-7 7 7h-5v14"/><path d="m32 16c-1.103 0-2-.897-2-2s.897-2 2-2 2 .897 2 2h2c0-1.858-1.279-3.411-3-3.858v-2.142h-2v2.142c-1.721.447-3 2-3 3.858 0 2.206 1.794 4 4 4 1.103 0 2 .897 2 2s-.897 2-2 2-2-.897-2-2h-2c0 1.858 1.279 3.411 3 3.858v2.142h2v-2.142c1.721-.447 3-2 3-3.858 0-2.206-1.794-4-4-4z"/></g><g><path d="m32 30c-7.168 0-13-5.832-13-13 0-3.204 1.176-6.282 3.311-8.667l1.49 1.334c-1.806 2.018-2.801 4.622-2.801 7.333 0 6.065 4.935 11 11 11s11-4.935 11-11-4.935-11-11-11c-2.319 0-4.538.714-6.416 2.064l-1.168-1.624c2.221-1.596 4.843-2.44 7.584-2.44 7.168 0 13 5.832 13 13s-5.832 13-13 13z" fill="#3d54bd"/></g><g><path d="m32 27c-5.514 0-10-4.486-10-10s4.486-10 10-10c5.105 0 9.378 3.822 9.939 8.89l-1.988.22c-.448-4.053-3.867-7.11-7.951-7.11-4.411 0-8 3.589-8 8s3.589 8 8 8c4.084 0 7.503-3.057 7.951-7.11l1.988.22c-.561 5.068-4.834 8.89-9.939 8.89z" fill="#e1656e"/></g><g><path d="m1 16h27v2h-27z" fill="#787faa"/></g><path d="m2 14 3 3-3 3h5l3-3-3-3z" fill="#4c506e"/><path d="m28 44v8h3c.552 0 1-.448 1-1v-17l-10 10z" fill="#546ded"/><path d="m36 55h-3c-.552 0-1 .448-1 1v3c0 .552.448 1 1 1h3z" fill="#546ded"/><path d="m53 52v6h1c.552 0 1-.448 1-1v-12l-7 7z" fill="#546ded"/><path d="m7 48v9h1c.552 0 1-.448 1-1v-15l-7 7z" fill="#546ded"/></g></svg>