<svg id="Layer_1" enable-background="new 0 0 66 66" height="512" viewBox="0 0 66 66" width="512" xmlns="http://www.w3.org/2000/svg"><g><path d="m1 14.11v46.89c0 2.21 1.79 4 4 4h56c2.21 0 4-1.79 4-4v-46.89z" fill="#bce1f0"/><g fill="#7cb4c1"><path d="m19.83 19.63h-12.92c-.55 0-1 .45-1 1s.45 1 1 1h12.92c.55 0 1-.45 1-1s-.44-1-1-1z"/><path d="m15.32 24.37h-1.58c-.55 0-1 .45-1 1s.45 1 1 1h1.58c.55 0 1-.45 1-1s-.45-1-1-1z"/><path d="m10.34 24.37h-3.43c-.55 0-1 .45-1 1s.45 1 1 1h3.43c.55 0 1-.45 1-1s-.45-1-1-1z"/></g><path d="m65 5c0-2.21-1.79-4-4-4h-56c-2.21 0-4 1.79-4 4v9.11h64z" fill="#3f7e9f"/><path d="m61 1h-2v54c0 2.21-1.79 4-4 4h-54v2c0 2.21 1.79 4 4 4h56c2.21 0 4-1.79 4-4v-56c0-2.21-1.79-4-4-4z" opacity=".12"/><g fill="#caeae9"><path d="m9.28 6.56h-2.11c-.55 0-1 .45-1 1s.45 1 1 1h2.11c.55 0 1-.45 1-1s-.45-1-1-1z"/><path d="m15.06 6.56h-2.11c-.55 0-1 .45-1 1s.45 1 1 1h2.11c.55 0 1-.45 1-1s-.45-1-1-1z"/><path d="m20.83 6.56h-2.11c-.55 0-1 .45-1 1s.45 1 1 1h2.11c.55 0 1-.45 1-1s-.44-1-1-1z"/><path d="m58.67 6.56h-23.68c-.55 0-1 .45-1 1s.45 1 1 1h23.68c.55 0 1-.45 1-1s-.45-1-1-1z"/></g><path d="m41.83 40.67h-4.76c-.55 0-1 .45-1 1v15.75c0 .55.45 1 1 1h4.76c.55 0 1-.45 1-1v-15.75c0-.55-.45-1-1-1z" fill="#ffd404"/><path d="m28.92 37.25h-4.76c-.55 0-1 .45-1 1v19.17c0 .55.45 1 1 1h4.76c.55 0 1-.45 1-1v-19.17c0-.55-.44-1-1-1z" fill="#f56356"/><path d="m16.01 43.98h-4.76c-.55 0-1 .45-1 1v12.44c0 .55.45 1 1 1h4.76c.55 0 1-.45 1-1v-12.44c0-.55-.45-1-1-1z" fill="#595ab6"/><path d="m54.75 32.75h-4.76c-.55 0-1 .45-1 1v23.67c0 .55.45 1 1 1h4.76c.55 0 1-.45 1-1v-23.67c0-.55-.45-1-1-1z" fill="#6e6ece"/><path d="m54.75 32.75h-1v21.67c0 .55-.45 1-1 1h-3.75v2c0 .55.45 1 1 1h4.76c.55 0 1-.45 1-1v-23.67c-.01-.55-.46-1-1.01-1z" opacity=".12"/><path d="m41.83 40.67h-1v13.75c0 .55-.45 1-1 1h-3.75v2c0 .55.45 1 1 1h4.76c.55 0 1-.45 1-1v-15.75c-.01-.55-.46-1-1.01-1z" opacity=".12"/><path d="m29.92 57.42v-19.19c-.01-.54-.45-.98-1-.98h-1.01v17.16c0 .55-.45 1-1 1h-3.75v2c0 .55.45 1 1 1h4.76c.55.01 1-.44 1-.99z" opacity=".12"/><path d="m17 57.42v-12.48c-.02-.53-.45-.96-.99-.96h-1.01v10.44c0 .55-.45 1-1 1h-3.75v2c0 .55.45 1 1 1h4.75c.55 0 1-.45 1-1z" opacity=".12"/><path d="m54.71 19.63h-5.88c-.55 0-1 .45-1 1s.45 1 1 1h3.35l-12.73 11.97-12.23-11.36c-.4-.37-1.01-.35-1.39.03l-12.91 13.1c-.39.39-.38 1.03.01 1.41.2.19.45.29.7.29.26 0 .52-.1.71-.3l12.23-12.41 12.2 11.33c.39.36.98.36 1.37 0l13.57-12.75v3.57c0 .55.45 1 1 1s1-.45 1-1v-5.88c0-.55-.45-1-1-1z" fill="#226180"/></g></svg>