<svg id="Layer_1_1_" enable-background="new 0 0 64 64" height="512" viewBox="0 0 64 64" width="512" xmlns="http://www.w3.org/2000/svg"><g><path d="m30.696 28.715-1.696-1.715-1.696 1.715c-1.24 1.254-2.697 2.266-4.3 2.986l-4.004 1.799.375 3.605c.667 6.409 4.121 12.185 9.424 15.76l.201.135.2-.135c5.303-3.575 8.757-9.351 9.424-15.76l.376-3.605-4.005-1.8c-1.602-.72-3.059-1.732-4.299-2.985z" fill="#5a6d80"/></g><g><path d="m51 28h-12c-1.105 0-2-.895-2-2v-16h12c1.105 0 2 .895 2 2z" fill="#758da6"/></g><g><path d="m49 10h-12v4h14v-2c0-1.105-.895-2-2-2z" fill="#5a6d80"/></g><g><path d="m44 16 1.236 2.633 2.764.423-2 2.05.472 2.894-2.472-1.367-2.472 1.367.472-2.894-2-2.05 2.764-.423z" fill="#ff8088"/></g><g><path d="m28 44c-.265 0-.519-.105-.707-.293l-3-3 1.414-1.414 2.236 2.236 5.297-6.18 1.519 1.301-6 7c-.181.212-.442.338-.721.349-.013.001-.025.001-.038.001z" fill="#adc4e6"/></g><g><path d="m44.018 39h-.018c-.703 0-1.411-.039-2.106-.115l.219-1.988c.622.068 1.257.103 1.887.103z" fill="#adc4e6"/></g><g><path d="m46.145 38.882-.225-1.988c.63-.07 1.263-.178 1.878-.318l.445 1.949c-.688.157-1.394.277-2.098.357z" fill="#adc4e6"/></g><g><path d="m50.292 37.934-.664-1.887c.598-.21 1.19-.456 1.76-.731l.869 1.801c-.637.307-1.298.581-1.965.817z" fill="#adc4e6"/></g><g><path d="m54.121 36.084-1.069-1.689c.537-.34 1.06-.712 1.554-1.106l1.248 1.562c-.552.44-1.135.855-1.733 1.233z" fill="#adc4e6"/></g><g><path d="m57.44 33.431-1.415-1.414c.449-.449.876-.928 1.271-1.422l1.563 1.248c-.441.552-.918 1.086-1.419 1.588z" fill="#adc4e6"/></g><g><path d="m60.093 30.105-1.694-1.062c.34-.542.65-1.104.923-1.67l1.802.869c-.305.632-.652 1.259-1.031 1.863z" fill="#adc4e6"/></g><g><path d="m61.939 26.273-1.888-.66c.208-.598.386-1.214.526-1.832l1.95.443c-.156.692-.354 1.38-.588 2.049z" fill="#adc4e6"/></g><g><path d="m25.48 24.262c-.158-.688-.278-1.394-.359-2.099l1.987-.227c.072.631.18 1.263.321 1.878z" fill="#adc4e6"/></g><g><path d="m62.882 22.125-1.987-.221c.07-.627.105-1.267.105-1.904l2-.072v.072c0 .71-.04 1.426-.118 2.125z" fill="#adc4e6"/></g><g><path d="m25 20.035v-.035c0-.695.038-1.397.113-2.087l1.988.217c-.067.618-.101 1.247-.101 1.87z" fill="#adc4e6"/></g><g><path d="m60.888 18.029c-.073-.631-.183-1.262-.325-1.877l1.948-.451c.159.688.281 1.394.363 2.098z" fill="#adc4e6"/></g><g><path d="m27.415 16.251-1.951-.439c.156-.691.353-1.381.584-2.05l1.89.656c-.208.598-.384 1.215-.523 1.833z" fill="#adc4e6"/></g><g><path d="m60.029 14.325c-.21-.596-.458-1.188-.736-1.758l1.798-.875c.311.638.588 1.299.824 1.965z" fill="#adc4e6"/></g><g><path d="m28.804 12.73-1.804-.863c.305-.638.651-1.266 1.028-1.867l1.695 1.061c-.337.539-.646 1.1-.919 1.669z" fill="#adc4e6"/></g><g><path d="m58.365 10.905c-.34-.536-.713-1.058-1.109-1.55l1.559-1.254c.442.551.859 1.133 1.239 1.731z" fill="#adc4e6"/></g><g><path d="m30.684 9.432-1.566-1.244c.439-.552.915-1.087 1.415-1.591l1.419 1.41c-.45.451-.876.931-1.268 1.425z" fill="#adc4e6"/></g><g><path d="m55.98 7.938c-.448-.445-.927-.871-1.425-1.267l1.243-1.566c.556.441 1.092.917 1.592 1.415z" fill="#adc4e6"/></g><g><path d="m33.368 6.734-1.251-1.561c.552-.442 1.134-.858 1.731-1.237l1.071 1.689c-.535.34-1.057.713-1.551 1.109z" fill="#adc4e6"/></g><g><path d="m52.999 5.574c-.539-.336-1.101-.646-1.671-.919l.864-1.803c.637.305 1.265.65 1.866 1.026z" fill="#adc4e6"/></g><g><path d="m36.583 4.698-.875-1.799c.634-.309 1.295-.585 1.965-.821l.667 1.885c-.599.213-1.191.46-1.757.735z" fill="#adc4e6"/></g><g><path d="m49.565 3.933c-.597-.207-1.213-.383-1.833-.521l.438-1.952c.693.155 1.382.352 2.049.582z" fill="#adc4e6"/></g><g><path d="m40.168 3.433-.448-1.95c.685-.157 1.391-.278 2.098-.36l.229 1.986c-.633.074-1.265.183-1.879.324z" fill="#adc4e6"/></g><g><path d="m45.854 3.1c-.615-.067-1.238-.1-1.854-.1l-.054-2h.054c.687 0 1.382.037 2.068.111z" fill="#adc4e6"/></g><g><g><path d="m16 52h-5-5c-2.209 0-4 1.791-4 4v6h18v-6c0-2.209-1.791-4-4-4z" fill="#83ade6"/></g></g><g><g><circle cx="11" cy="47" fill="#83ade6" r="5"/></g></g><g><g><g><path d="m5 56h1v6h-1z" fill="#7499cc"/></g></g></g><g><g><g><path d="m16 56h1v6h-1z" fill="#7499cc"/></g></g></g></svg>