<svg enable-background="new 0 0 512 512" height="512" viewBox="0 0 512 512" width="512" xmlns="http://www.w3.org/2000/svg"><g id="_x32_88_x2C__Advertise_x2C__Digital_Marketing_x2C__Goal_x2C__Marketing"><g><path d="m81 406c13.81 0 25 11.19 25 25s-11.19 25-25 25c-13.811 0-25-11.19-25-25s11.189-25 25-25z" fill="#fff"/><path d="m443.5 86c9.67 0 17.5 7.84 17.5 17.5s-7.83 17.5-17.5 17.5-17.5-7.84-17.5-17.5 7.83-17.5 17.5-17.5z" fill="#fff"/><path d="m446 256h-50c0-77.32-62.681-140-140-140v-50c104.93 0 190 85.07 190 190z" fill="#98c7fd"/><path d="m256 396v50c-104.931 0-190-85.07-190-190h50c0 77.32 62.68 140 140 140z" fill="#98c7fd"/><path d="m396 256h50c0 104.93-85.07 190-190 190v-50c77.319 0 140-62.68 140-140z" fill="#98c7fd"/><path d="m256 66v50c-77.32 0-140 62.68-140 140h-50c0-104.93 85.069-190 190-190z" fill="#98c7fd"/><path d="m241 306h15v15h-15z" fill="#fff"/><path d="m241 333.5c0 6.9-5.601 12.5-12.5 12.5-6.9 0-12.5-5.6-12.5-12.5v-52.5h25z" fill="#98c7fd"/><path d="m311 186v120l-70-25c0-21.871 0-36.065 0-70z" fill="#98c7fd"/><path d="m201 261v5h-25v-40h25v5z" fill="#fff"/><path d="m201 231h40v30h-40z" fill="#fff"/><path d="m241 211v20h-40v-5-15z" fill="#fff"/><path d="m241 261v20h-25-15v-15-5z" fill="#fff"/><circle cx="463.5" cy="348.5" fill="#1e80cc" r="7.5"/><circle cx="393.5" cy="453.5" fill="#1e80cc" r="7.5"/><circle cx="353.5" cy="48.5" fill="#1e80cc" r="7.5"/><path d="m336 183.5v125c0 6.9-5.601 12.5-12.5 12.5-6.9 0-12.5-5.6-12.5-12.5 0-12.671 0-110.96 0-125 0-6.912 5.6-12.5 12.5-12.5 6.899 0 12.5 5.6 12.5 12.5z" fill="#fff"/><g fill="#1e80cc"><circle cx="173.5" cy="468.5" r="7.5"/><circle cx="88.5" cy="48.5" r="7.5"/><circle cx="58.5" cy="348.5" r="7.5"/><circle cx="48.5" cy="143.5" r="7.5"/><path d="m256 451c-107.523 0-195-87.477-195-195s87.477-195 195-195 195 87.477 195 195-87.477 195-195 195zm0-380c-102.01 0-185 82.991-185 185 0 102.01 82.99 185 185 185s185-82.99 185-185c0-102.009-82.99-185-185-185z"/><path d="m256 401c-79.953 0-145-65.047-145-145s65.047-145 145-145 145 65.047 145 145-65.047 145-145 145zm0-280c-74.439 0-135 60.561-135 135s60.561 135 135 135 135-60.561 135-135-60.561-135-135-135z"/><path d="m256 151c-2.762 0-5-2.239-5-5v-110c0-2.761 2.238-5 5-5s5 2.239 5 5v110c0 2.761-2.238 5-5 5z"/><path d="m256 481c-2.762 0-5-2.238-5-5v-110c0-2.762 2.238-5 5-5s5 2.238 5 5v110c0 2.762-2.238 5-5 5z"/><path d="m476 261h-110c-2.762 0-5-2.238-5-5s2.238-5 5-5h110c2.762 0 5 2.238 5 5s-2.238 5-5 5z"/><path d="m146 261h-110c-2.762 0-5-2.238-5-5s2.238-5 5-5h110c2.761 0 5 2.238 5 5s-2.239 5-5 5z"/><path d="m81 461c-16.542 0-30-13.458-30-30s13.458-30 30-30 30 13.458 30 30-13.458 30-30 30zm0-50c-11.028 0-20 8.972-20 20s8.972 20 20 20c11.027 0 20-8.972 20-20s-8.973-20-20-20z"/><path d="m443.5 126c-12.406 0-22.5-10.093-22.5-22.5s10.094-22.5 22.5-22.5 22.5 10.093 22.5 22.5-10.094 22.5-22.5 22.5zm0-35c-6.893 0-12.5 5.607-12.5 12.5s5.607 12.5 12.5 12.5 12.5-5.607 12.5-12.5-5.607-12.5-12.5-12.5z"/><path d="m323.5 326c-9.649 0-17.5-7.851-17.5-17.5v-2.5c0-2.762 2.238-5 5-5s5 2.238 5 5v2.5c0 4.136 3.364 7.5 7.5 7.5s7.5-3.364 7.5-7.5v-125c0-4.136-3.364-7.5-7.5-7.5-2.005 0-3.889.78-5.304 2.195-1.417 1.417-2.196 3.3-2.196 5.305v2.5c0 2.761-2.238 5-5 5s-5-2.239-5-5v-2.5c0-4.676 1.82-9.071 5.125-12.375 3.304-3.304 7.698-5.125 12.375-5.125 9.649 0 17.5 7.851 17.5 17.5v125c0 9.649-7.851 17.5-17.5 17.5z"/><path d="m201 231c-2.762 0-5-2.239-5-5v-15c0-2.761 2.238-5 5-5h40c2.761 0 5 2.239 5 5s-2.239 5-5 5h-35v10c0 2.761-2.239 5-5 5z"/><path d="m216 286h-15c-2.762 0-5-2.238-5-5v-15c0-2.762 2.238-5 5-5 2.761 0 5 2.238 5 5v10h10c2.761 0 5 2.238 5 5s-2.239 5-5 5z"/><path d="m241 236h-40c-2.762 0-5-2.239-5-5s2.238-5 5-5h40c2.761 0 5 2.239 5 5s-2.239 5-5 5z"/><path d="m241 266h-40c-2.762 0-5-2.238-5-5s2.238-5 5-5h40c2.761 0 5 2.238 5 5s-2.239 5-5 5z"/><path d="m201 271h-25c-2.762 0-5-2.238-5-5v-40c0-2.761 2.238-5 5-5h25c2.761 0 5 2.239 5 5v40c0 2.762-2.239 5-5 5zm-20-10h15v-30h-15z"/><path d="m228.5 351c-9.649 0-17.5-7.851-17.5-17.5v-52.5c0-2.762 2.238-5 5-5h25c2.761 0 5 2.238 5 5v25c0 2.762-2.239 5-5 5-2.762 0-5-2.238-5-5v-20h-15v47.5c0 4.136 3.364 7.5 7.5 7.5s7.5-3.364 7.5-7.5v-12.5c0-2.762 2.238-5 5-5 2.761 0 5 2.238 5 5v12.5c0 9.649-7.851 17.5-17.5 17.5z"/><path d="m256 326h-15c-2.762 0-5-2.238-5-5v-15c0-2.762 2.238-5 5-5h15c2.762 0 5 2.238 5 5v15c0 2.762-2.238 5-5 5zm-10-10h5v-5h-5z"/><path d="m286 276c-2.762 0-5-2.238-5-5v-50c0-2.761 2.238-5 5-5s5 2.239 5 5v50c0 2.762-2.238 5-5 5z"/><path d="m311 311c-.566 0-1.135-.096-1.682-.291l-70-25c-1.99-.711-3.318-2.596-3.318-4.709v-70c0-2.113 1.328-3.998 3.318-4.708l70-25c1.53-.546 3.231-.315 4.562.622 1.329.937 2.12 2.461 2.12 4.087v120c0 1.626-.791 3.15-2.12 4.087-.854.601-1.862.912-2.88.912zm-65-33.523 60 21.429v-105.81l-60 21.428z"/></g></g></g></svg>