<svg enable-background="new 0 0 512 512" height="512" viewBox="0 0 512 512" width="512" xmlns="http://www.w3.org/2000/svg"><g id="_x30_3_Viral_Marketing"><g><path d="m453.622 231.24c-3.983 3.258-8.638 5.845-13.811 7.552l-26.536-81.523c5.224-1.707 10.501-2.327 15.673-2.017 17.122.931 32.744 12.208 38.33 29.537 5.638 17.328-.31 35.588-13.656 46.451z" fill="#d7e9ff"/><path d="m395.201 101.753 62.668 192.577c4.557 14.005-3.132 29.038-17.091 33.581-14.005 4.558-29.023-3.086-33.581-17.091l-62.668-192.577c-4.557-14.004 3.086-29.023 17.092-33.58 6.98-2.271 14.24-1.527 20.322 1.607 6.066 3.087 10.972 8.458 13.258 15.483z" fill="#94c1ff"/><path d="m96.291 249.367 33.04 101.53c4.196 12.895-2.883 26.736-15.737 30.919-12.895 4.196-26.723-2.842-30.919-15.736l-33.04-101.53c-4.196-12.894 2.842-26.722 15.737-30.919 6.427-2.091 13.111-1.406 18.711 1.479 5.587 2.844 10.104 7.789 12.208 14.257z" fill="#94c1ff"/><path d="m407.843 312.711-15.622 2.276-246.947 35.64-15.311 2.225-34.296-105.474 13.605-7.189 220.721-116.491 13.915-7.345z" fill="#d7e9ff"/><path d="m294.449 50.972c0 21.046-17.044 38.09-38.091 38.09-20.999 0-38.09-17.044-38.09-38.09s17.091-38.091 38.09-38.091c21.047 0 38.091 17.045 38.091 38.091z" fill="#d7e9ff"/><path d="m91.133 50.972c0 21.046-17.044 38.09-38.091 38.09-20.999 0-38.09-17.044-38.09-38.09s17.091-38.091 38.09-38.091c21.047 0 38.091 17.045 38.091 38.091z" fill="#94c1ff"/><path d="m497.047 50.972c0 21.046-17.044 38.09-38.091 38.09-20.999 0-38.09-17.044-38.09-38.09s17.091-38.091 38.09-38.091c21.047 0 38.091 17.045 38.091 38.091z" fill="#fff"/><path d="m217.55 461.029c0-21.046 17.044-38.09 38.091-38.09 20.999 0 38.09 17.044 38.09 38.09s-17.091 38.091-38.09 38.091c-21.046 0-38.091-17.045-38.091-38.091z" fill="#fff"/><path d="m420.866 461.029c0-21.046 17.044-38.09 38.091-38.09 20.999 0 38.09 17.044 38.09 38.09s-17.091 38.091-38.09 38.091c-21.047 0-38.091-17.045-38.091-38.091z" fill="#94c1ff"/><path d="m14.952 461.029c0-21.046 17.044-38.09 38.091-38.09 20.999 0 38.09 17.044 38.09 38.09s-17.091 38.091-38.09 38.091c-21.047 0-38.091-17.045-38.091-38.091z" fill="#d7e9ff"/><path d="m53.043 417.765c-23.853 0-43.261 19.408-43.261 43.264s19.408 43.264 43.261 43.264 43.261-19.408 43.261-43.264c0-10.779-3.988-20.627-10.533-28.21l38.33-50.895c7.794-6.016 11.871-14.738 11.46-24.631l42.643-6.16 3.88 23.418c1.994 14.033 15.094 23.879 29.258 21.78l39.144-5.674v27.447c-21.429 2.559-38.109 20.818-38.109 42.927 0 23.856 19.408 43.264 43.261 43.264 23.858 0 43.266-19.408 43.266-43.264 0-22.095-16.66-40.344-38.073-42.921v-28.952l19.933-2.889c14.078-2.007 23.958-15.085 21.782-29.276l-3.789-23.275 30.328-4.381 96.467 104.229c-6.159 7.476-9.863 17.046-9.863 27.466 0 23.856 19.408 43.264 43.266 43.264 23.853 0 43.261-19.408 43.261-43.264s-19.408-43.264-43.261-43.264c-9.714 0-18.66 3.256-25.889 8.681l-91.544-98.909 63.474-9.17c7.344 12.792 22.779 19.215 37.379 14.461 16.685-5.428 25.839-23.416 20.413-40.099l-16.56-50.886c22.132-9.894 33.679-35.031 25.986-58.668-7.73-23.732-31.979-37.124-55.535-32.136l-11.312-34.762 28.136-30.395c7.152 5.228 15.933 8.354 25.451 8.354 23.853 0 43.261-19.408 43.261-43.264s-19.404-43.267-43.258-43.267c-23.858 0-43.266 19.408-43.266 43.264 0 10.618 3.861 20.341 10.232 27.878l-24.218 26.163-1.582-4.862c-5.342-16.4-23.114-25.951-40.104-20.406-14.568 4.738-23.391 19.061-21.778 33.726l-76.701 40.493v-60.07c21.419-2.573 38.083-20.824 38.083-42.923 0-23.856-19.408-43.264-43.266-43.264-23.853 0-43.261 19.408-43.261 43.264 0 22.105 16.674 40.362 38.099 42.925v65.53l-60.301 31.834-104.461-112.812c6.163-7.478 9.871-17.052 9.871-27.476 0-23.856-19.408-43.264-43.261-43.264s-43.262 19.408-43.262 43.264 19.408 43.264 43.261 43.264c9.71 0 18.652-3.255 25.88-8.678l102.504 110.701-83.864 44.274c-7.638-11.447-21.322-15.872-33.791-11.821-15.574 5.067-24.121 21.86-19.059 37.439l33.042 101.53c4.082 12.533 15.751 20.514 28.268 20.514.142 0 .286-.032.427-.033l-28.36 37.657c-7.077-5.05-15.709-8.054-25.046-8.054zm235.517 43.263c0 18.15-14.771 32.918-32.921 32.918s-32.916-14.768-32.916-32.918 14.766-32.918 32.916-32.918 32.921 14.768 32.921 32.918zm203.313 0c0 18.15-14.766 32.918-32.916 32.918s-32.921-14.768-32.921-32.918 14.771-32.918 32.921-32.918 32.916 14.768 32.916 32.918zm-32.916-442.975c18.15 0 32.916 14.768 32.916 32.918s-14.766 32.919-32.916 32.919-32.921-14.768-32.921-32.918 14.771-32.919 32.921-32.919zm-235.517 32.919c0-18.15 14.766-32.918 32.916-32.918s32.921 14.768 32.921 32.918-14.771 32.918-32.921 32.918-32.916-14.768-32.916-32.918zm-203.313 0c0-18.15 14.766-32.918 32.916-32.918s32.916 14.768 32.916 32.918-14.766 32.918-32.916 32.918-32.916-14.768-32.916-32.918zm32.916 442.975c-18.15 0-32.916-14.768-32.916-32.918s14.766-32.918 32.916-32.918 32.916 14.768 32.916 32.918c-.001 18.15-14.766 32.918-32.916 32.918zm287.845-370.173c15.364 47.215 44.892 137.959 60.108 184.719-221.156 31.918-242.089 34.972-267.451 38.636l-31.627-97.198zm-52.369 211.434 3.809 23.399c1.28 8.353-4.569 16.213-13.038 17.42l-69.448 10.065c-8.284 1.238-16.297-4.403-17.534-13.114l-3.865-23.325c10.234-1.478-37.069 5.35 100.076-14.445zm173.858-148.831c5.889 18.092-2.705 37.484-19.366 45.568l-23.11-71.016c17.994-3.237 36.501 7.083 42.476 25.448zm-99.156-96.797c11.506-3.738 23.474 2.746 27.061 13.773 3.423 10.52 56.226 172.804 62.669 192.579 3.662 11.257-2.516 23.396-13.775 27.061-11.235 3.657-23.369-2.506-27.048-13.746-4.957-15.233-56.617-173.984-62.677-192.606-3.663-11.257 2.515-23.396 13.77-27.061zm-275.626 274.899-33.042-101.528c-3.304-10.154 2.268-21.098 12.422-24.401 10.392-3.375 21.141 2.488 24.384 12.385l33.055 101.576c3.304 10.161-2.256 21.078-12.419 24.387-10.17 3.299-21.096-2.268-24.4-12.419z" fill="#116fff"/></g></g></svg>