<svg enable-background="new 0 0 512 512" height="512" viewBox="0 0 512 512" width="512" xmlns="http://www.w3.org/2000/svg"><g id="_x39_6_Analysing"><g><path d="m112.849 281.164h119.652v30.005h-119.652z" fill="#fff" transform="matrix(.707 -.707 .707 .707 -158.846 208.845)"/><path d="m403.513 277.419c-58.582 58.581-153.544 58.581-212.094.031-58.581-58.581-58.581-153.544 0-212.125 58.55-58.55 153.512-58.55 212.093.032 58.55 58.55 58.551 153.512.001 212.062z" fill="#94c1ff"/><path d="m215.05 253.818c-45.452-45.452-45.452-119.408.002-164.862 45.435-45.435 119.377-45.42 164.829.032 45.435 45.435 45.436 119.364.001 164.798-45.454 45.454-119.398 45.467-164.832.032z" fill="#fff"/><path d="m59.761 452.775 114.466-114.465c12.066-12.066 12.066-31.628 0-43.693-12.066-12.066-31.628-12.066-43.693 0l-114.466 114.465c-12.066 12.066-12.066 31.628 0 43.693 12.065 12.066 31.627 12.066 43.693 0z" fill="#d7e9ff"/><path d="m460.116 305.962c0 34.672-28.084 62.757-62.757 62.757-34.623 0-62.707-28.085-62.707-62.757 0-34.623 28.084-62.707 62.707-62.707 34.673 0 62.757 28.085 62.757 62.707z" fill="#d7e9ff"/><path d="m268.41 377.957c0 22.013-17.839 39.891-39.852 39.891-22.052 0-39.891-17.878-39.891-39.891s17.839-39.891 39.891-39.891c22.013 0 39.852 17.878 39.852 39.891z" fill="#d7e9ff"/><path d="m179.427 490.591c-10.424.154-18.021-9.917-14.948-19.879 8.534-27.664 33.985-48.857 63.865-48.937 18.628-.05 35.462 7.471 47.639 19.648 7.655 7.655 13.47 17.151 16.721 27.775 3.002 9.811-4.218 19.785-14.477 19.937z" fill="#94c1ff"/><path d="m259.761 383.718v14.52c0 17.485-14.308 32.62-31.79 32.298-8.418-.155-15.986-3.643-21.514-9.135-5.656-5.693-9.14-13.485-9.14-22.1v-15.583c0-6.206 5.031-11.238 11.238-11.238h39.969c6.205.001 11.237 5.032 11.237 11.238z" fill="#fff"/><path d="m265.098 196.73v28.502c0 2.936-2.38 5.316-5.316 5.316h-23.61c-2.936 0-5.316-2.38-5.316-5.316v-28.502c0-2.936 2.38-5.316 5.316-5.316h23.61c2.936 0 5.316 2.38 5.316 5.316z" fill="#94c1ff"/><path d="m314.58 147.705v77.527c0 2.936-2.38 5.316-5.316 5.316h-23.61c-2.936 0-5.316-2.38-5.316-5.316v-77.527c0-2.936 2.38-5.316 5.316-5.316h23.61c2.936 0 5.316 2.38 5.316 5.316z" fill="#d7e9ff"/><path d="m364.061 180.389v44.843c0 2.936-2.38 5.316-5.316 5.316h-23.61c-2.936 0-5.316-2.38-5.316-5.316v-44.843c0-2.936 2.38-5.316 5.316-5.316h23.61c2.936-.001 5.316 2.38 5.316 5.316z" fill="#94c1ff"/><path d="m263.128 152.289c0 8.406-6.806 15.171-15.171 15.171s-15.13-6.766-15.13-15.171c0-8.364 6.766-15.13 15.13-15.13s15.171 6.766 15.171 15.13z" fill="#d7e9ff"/><path d="m312.609 104.068c0 8.406-6.806 15.171-15.171 15.171s-15.13-6.766-15.13-15.171c0-8.364 6.766-15.13 15.13-15.13 8.365 0 15.171 6.766 15.171 15.13z" fill="#d7e9ff"/><path d="m362.091 142.746c0 8.406-6.806 15.171-15.171 15.171s-15.13-6.766-15.13-15.171c0-8.364 6.766-15.13 15.13-15.13 8.365 0 15.171 6.766 15.171 15.13z" fill="#d7e9ff"/><g fill="#116fff"><path d="m412.836 288.285-24.169 24.169-6.735-6.741c-2.069-2.069-5.421-2.069-7.491 0-2.069 2.069-2.069 5.421 0 7.491l10.481 10.486c2.069 2.069 5.423 2.068 7.491 0l27.914-27.914c2.069-2.069 2.069-5.421 0-7.491-2.069-2.069-5.422-2.069-7.491 0z"/><path d="m504.964 300.69h-25.628c-2.928 0-5.297 2.369-5.297 5.297s2.369 5.297 5.297 5.297h25.628c2.928 0 5.297-2.369 5.297-5.297.001-2.928-2.369-5.297-5.297-5.297z"/><path d="m476.284 282.263c2.069 2.069 5.421 2.069 7.491 0l9.224-9.219c2.069-2.069 2.069-5.421 0-7.491s-5.421-2.069-7.491 0l-9.224 9.219c-2.069 2.07-2.069 5.422 0 7.491z"/><path d="m483.77 329.711c-2.069-2.069-5.421-2.069-7.491 0-2.069 2.069-2.069 5.421 0 7.491l9.218 9.219c2.069 2.069 5.421 2.069 7.491 0 2.069-2.069 2.069-5.421 0-7.491z"/><path d="m259.784 186.116h-23.61c-5.851 0-10.615 4.764-10.615 10.615v28.499c0 5.851 4.764 10.615 10.615 10.615h23.61c5.851 0 10.61-4.764 10.61-10.615v-28.499c0-5.851-4.759-10.615-10.61-10.615zm0 39.134-23.631-.021.021-28.519 23.626.01z"/><path d="m432.499 247.834c34.465-60.663 24.504-136.48-25.26-186.24-60.655-60.655-158.888-60.655-219.542 0-55.574 55.574-60.942 142.579-13.379 204.237l-15.089 15.091c-11.711-2.23-23.776 1.278-32.441 9.949l-114.465 114.466c-14.112 14.112-14.112 37.071 0 51.183 14.113 14.113 37.07 14.113 51.183 0l114.466-114.466c8.722-8.715 12.171-20.814 9.947-32.456l15.144-15.109c34.978 26.883 81.529 38.84 128.478 28.276 7.506 29.41 34.126 51.254 65.818 51.254 37.526 0 68.058-30.532 68.058-68.058-.001-24.642-13.229-46.198-32.918-58.127zm-262.018 86.73-114.466 114.465c-9.984 9.984-26.217 9.984-36.202 0-9.979-9.979-9.979-26.223 0-36.202l114.466-114.466c10.009-10.009 26.192-10.009 36.202 0 10.009 10.01 10.009 26.193 0 36.203zm13.397-35.898c-1.597-2.814-3.555-5.446-5.906-7.795-2.351-2.352-4.984-4.313-7.8-5.91l10.886-10.888c2.038 2.32 4.197 4.669 6.64 7.114 2.257 2.257 4.644 4.449 7.083 6.601zm145.479 7.295c0 2.153.127 4.277.323 6.38-47.77 10.882-98.864-2.966-134.488-38.645-56.674-56.674-56.867-147.75-.005-204.612 56.515-56.515 148.049-56.512 204.561 0 46.486 46.48 55.705 117.355 23.315 173.945-7.328-2.999-15.296-4.715-23.631-4.969 31.393-47.749 25.39-111.632-15.819-152.841-47.512-47.512-124.76-47.595-172.291 0-47.515 47.515-47.515 124.827-.005 172.343 30.86 30.901 76.724 43.548 120.47 30.651-1.536 5.669-2.43 11.6-2.43 17.748zm-110.544-55.89c-43.382-43.387-43.382-113.974 0-157.361 43.366-43.409 113.89-43.42 157.309 0 39.625 39.625 43.541 102.174 9.538 146.326-21.432 3.739-39.413 17.512-48.944 36.32-40.905 15.469-86.988 5.671-117.903-25.285zm178.545 113.353c-31.654 0-57.406-25.778-57.406-57.463 0-31.654 25.752-57.411 57.406-57.411 31.685 0 57.463 25.757 57.463 57.411 0 31.686-25.777 57.463-57.463 57.463z"/><path d="m309.265 137.09h-23.61c-5.851 0-10.615 4.764-10.615 10.615v77.524c0 5.851 4.764 10.615 10.615 10.615h23.61c5.851 0 10.61-4.764 10.61-10.615v-77.524c0-5.851-4.759-10.615-10.61-10.615zm0 88.16-23.631-.021.021-77.545 23.626.01z"/><path d="m247.958 172.759c11.283 0 20.465-9.182 20.465-20.47 0-3.602-1.019-6.94-2.667-9.882l21.3-20.811c3.053 1.824 6.578 2.94 10.382 2.94 4.594 0 8.793-1.578 12.212-4.144l18.442 14.43c-1.031 2.438-1.602 5.114-1.602 7.923 0 11.288 9.167 20.47 20.429 20.47 11.288 0 20.47-9.182 20.47-20.47 0-11.262-9.182-20.423-20.47-20.423-4.617 0-8.834 1.598-12.26 4.192l-18.41-14.406c1.059-2.469 1.654-5.183 1.654-8.036 0-11.262-9.182-20.429-20.465-20.429-11.262 0-20.429 9.167-20.429 20.429 0 3.616 1.022 6.967 2.672 9.918l-21.304 20.817c-3.064-1.827-6.6-2.945-10.42-2.945-11.262 0-20.429 9.167-20.429 20.429.002 11.285 9.169 20.468 20.43 20.468zm98.962-39.844c5.447 0 9.875 4.408 9.875 9.829 0 5.447-4.428 9.875-9.875 9.875-5.421 0-9.834-4.428-9.834-9.875 0-5.421 4.413-9.829 9.834-9.829zm-49.481-38.679c5.442 0 9.87 4.413 9.87 9.834 0 5.442-4.428 9.87-9.87 9.87-5.421 0-9.834-4.428-9.834-9.87 0-5.421 4.413-9.834 9.834-9.834zm-49.481 48.219c5.568 0 9.87 4.591 9.87 9.834 0 5.447-4.428 9.875-9.87 9.875-5.421 0-9.834-4.428-9.834-9.875 0-5.422 4.413-9.834 9.834-9.834z"/><path d="m256.513 422.138c3.915-4.847 6.607-10.58 7.811-16.635 6.038-7.859 9.385-17.556 9.385-27.521 0-24.945-20.248-45.239-45.135-45.239-24.914 0-45.182 20.294-45.182 45.239 0 9.808 3.26 19.404 9.143 27.233 1.032 6.346 3.683 12.291 7.815 17.316-19.236 8.633-34.542 25.849-40.931 46.643-4.009 12.975 5.392 26.724 20.077 26.724l98.796-1.48c13.709-.216 23.519-13.471 19.492-26.781-6.166-19.992-21.011-37.061-41.271-45.499zm-62.42-46.267c1.098-18.119 16.119-32.534 34.481-32.534 18.354 0 33.367 14.442 34.437 32.587-2.797-5.174-8.207-8.739-14.49-8.739h-39.968c-6.259 0-11.653 3.541-14.46 8.686zm60.368 7.848v14.521c0 14.881-12.365 27.394-26.393 26.999-14.099-.26-25.452-11.731-25.452-25.938v-15.581c0-3.275 2.664-5.939 5.939-5.939h39.968c3.274-.001 5.938 2.663 5.938 5.938zm23.672 100.105-98.796 1.48c-7.122.044-11.745-6.679-9.793-13.01 6.018-19.588 21.215-35.376 39.902-41.889 5.789 3.559 12.359 5.434 19.082 5.434 6.761 0 13.282-1.974 18.987-5.626 19.91 6.304 34.404 21.916 40.142 40.518 1.947 6.458-2.778 12.984-9.524 13.093z"/><path d="m369.361 225.23v-44.841c0-5.851-4.764-10.615-10.615-10.615h-23.61c-5.851 0-10.615 4.764-10.615 10.615v44.841c0 5.851 4.764 10.615 10.615 10.615h23.61c5.851 0 10.615-4.765 10.615-10.615zm-34.246 0 .021-44.861 23.631.01-.021 44.872z"/></g></g></g></svg>