<svg id="Layer_1" enable-background="new 0 0 128 128" height="512" viewBox="0 0 128 128" width="512" xmlns="http://www.w3.org/2000/svg"><g><path d="m115.245 63.093h-22.732v-47.554c0-1.654-1.346-3-3-3h-49.907c-.266 0-.52.105-.707.293l-26.8 26.799c-.215.187-.344.461-.344.755v76.075c0 1.654 1.346 3 3 3h100.489c2.757 0 5-2.243 5-5v-46.368c.001-2.756-2.242-5-4.999-5z" fill="#e6e7e8"/><g><g><path d="m47.003 110.461v-46.368c0-2.209 1.791-4 4-4h36.51v-48.554c0-1.105-.895-2-2-2h-49.907l-26.849 26.849-.002-.002v76.076c0 1.105.895 2 2 2h40.247c-2.208-.001-3.999-1.792-3.999-4.001z" fill="#ffd7e5"/><path d="m44.176 20.963h31.749v32.014h-31.749z" fill="#d4fbff"/><path d="m35.604 9.539.002.002v24.847c0 1.105-.895 2-2 2h-24.851z" fill="#fa759e"/></g><g><path d="m111.245 114.461h-60.242c-2.209 0-4-1.791-4-4v-46.368c0-2.209 1.791-4 4-4h60.242c2.209 0 4 1.791 4 4v46.368c0 2.209-1.79 4-4 4z" fill="#d4fbff"/><path d="m111.245 60.093h-60.242c-2.209 0-4 1.791-4 4v3c0-2.209 1.791-4 4-4h60.242c2.209 0 4 1.791 4 4v-3c0-2.209-1.79-4-4-4z" fill="#fff"/><path d="m111.245 114.461h-60.242c-2.209 0-4-1.791-4-4v-8.625h68.242v8.625c0 2.209-1.79 4-4 4z" fill="#6dc9f7"/><path d="m106.078 108.948h-49.908c-.553 0-1-.448-1-1s.447-1 1-1h49.908c.553 0 1 .448 1 1s-.447 1-1 1z" fill="#0089ef"/><circle cx="104.583" cy="107.948" fill="#fa759e" r="2.706"/><path d="m72.976 90.351v-17.352c0-1.154 1.279-1.849 2.247-1.221l13.385 8.676c.885.574.885 1.869 0 2.443l-13.385 8.676c-.968.628-2.247-.067-2.247-1.222z" fill="#0089ef"/><g fill="#3a2c60"><path d="m44.176 19.963c-.553 0-1 .448-1 1v32.014c0 .552.447 1 1 1h31.748c.553 0 1-.448 1-1v-32.014c0-.552-.447-1-1-1zm30.748 2v18.035l-4.402-3.786c-.377-.324-.936-.322-1.311.006l-5.272 4.615-7.994-7.39c-.351-.323-.878-.354-1.264-.077l-9.505 6.857v-18.26zm-29.748 30.014v-9.288l10.012-7.222 8.054 7.445c.375.346.952.355 1.337.018l5.297-4.636 5.049 4.343v9.341h-29.749z"/><path d="m63.235 33.798c2.308 0 4.186-1.877 4.186-4.185s-1.878-4.185-4.186-4.185-4.185 1.877-4.185 4.185 1.877 4.185 4.185 4.185zm0-6.37c1.205 0 2.186.98 2.186 2.185s-.98 2.185-2.186 2.185c-1.204 0-2.185-.98-2.185-2.185s.98-2.185 2.185-2.185z"/><path d="m41.013 82.958h-21c-.553 0-1 .448-1 1s.447 1 1 1h21c.553 0 1-.448 1-1s-.447-1-1-1z"/><path d="m41.013 72.958h-21c-.553 0-1 .448-1 1s.447 1 1 1h21c.553 0 1-.448 1-1s-.447-1-1-1z"/><path d="m41.013 62.958h-21c-.553 0-1 .448-1 1s.447 1 1 1h21c.553 0 1-.448 1-1s-.447-1-1-1z"/><path d="m41.013 92.958h-21c-.553 0-1 .448-1 1s.447 1 1 1h21c.553 0 1-.448 1-1s-.447-1-1-1z"/><path d="m41.013 102.958h-21c-.553 0-1 .448-1 1s.447 1 1 1h21c.553 0 1-.448 1-1s-.447-1-1-1z"/><path d="m87.514 26.395c-.553 0-1 .448-1 1v8.992c0 .552.447 1 1 1s1-.448 1-1v-8.992c0-.552-.447-1-1-1z"/><path d="m73.259 92.509c.367.199.771.298 1.173.298.466 0 .93-.132 1.335-.395l13.386-8.677c.701-.454 1.119-1.225 1.12-2.06 0-.835-.419-1.606-1.12-2.062l-13.386-8.675c-.755-.491-1.715-.527-2.508-.098-.791.43-1.283 1.257-1.283 2.158v17.353c0 .901.491 1.728 1.283 2.158zm.717-19.51c0-.235.149-.352.238-.4.05-.027.127-.058.22-.058.074 0 .158.02.245.077l13.386 8.675c.181.117.208.291.208.383-.001.092-.027.265-.208.382l-13.386 8.677c-.198.128-.376.065-.465.018-.089-.048-.238-.165-.238-.4z"/><path d="m111.245 59.093h-22.731v-18.448c0-.552-.447-1-1-1s-1 .448-1 1v18.448h-35.511c-2.757 0-5 2.243-5 5v46.368c0 1.13.391 2.162 1.026 3h-36.274c-.552 0-1-.449-1-1v-75.073h23.851c1.654 0 3-1.346 3-3v-23.849h48.908c.552 0 1 .449 1 1v11.424c0 .552.447 1 1 1s1-.448 1-1v-11.424c0-1.654-1.346-3-3-3h-49.908c-.266 0-.52.105-.707.293l-26.796 26.795c-.217.187-.348.462-.348.758v76.076c0 1.654 1.346 3 3 3h40.248 60.242c2.757 0 5-2.243 5-5v-46.368c0-2.757-2.243-5-5-5zm-77.639-23.705h-22.435l23.435-23.435v22.435c0 .551-.449 1-1 1zm17.397 25.705h60.242c1.654 0 3 1.346 3 3v36.744h-66.242v-36.744c0-1.654 1.346-3 3-3zm60.242 52.368h-60.242c-1.654 0-3-1.346-3-3v-7.625h66.242v7.625c0 1.655-1.345 3-3 3z"/></g></g></g></g></svg>