<svg id="Layer_1" enable-background="new 0 0 512 512" height="512" viewBox="0 0 512 512" width="512" xmlns="http://www.w3.org/2000/svg"><g><path d="m292.79 33.889c-35.194-20.358-80.197-8.277-100.517 26.984l-182.402 316.53c-20.319 35.261-8.261 80.349 26.933 100.707 35.194 20.358 80.197 8.277 100.517-26.984l182.403-316.53c20.319-35.261 8.26-80.349-26.934-100.707z" fill="#ffc107"/><path d="m292.79 33.889c-16.44-9.509-35.018-11.937-52.223-8.234 7.306 1.576 14.497 4.289 21.317 8.234 35.194 20.358 47.253 65.446 26.933 100.707l-182.402 316.53c-10.828 18.79-28.666 30.994-48.294 35.218 30.394 6.556 62.818-6.791 79.199-35.218l182.402-316.53c20.321-35.261 8.262-80.349-26.932-100.707z" fill="#ffb300"/><ellipse cx="73.506" cy="414.355" fill="#4caf50" rx="73.506" ry="73.645"/><path d="m58.121 486.345c-.004.009-.006.017-.009.025 4.966 1.06 10.112 1.63 15.394 1.63 40.596 0 73.506-32.972 73.506-73.645 0-9.036-1.632-17.688-4.604-25.687l-35.992 62.459c-10.829 18.79-28.667 30.993-48.295 35.218z" fill="#43a047"/><path d="m502.129 377.403-182.402-316.529c-20.319-35.261-65.322-47.342-100.517-26.984-35.194 20.358-47.253 65.446-26.933 100.707l182.403 316.53c20.319 35.261 65.322 47.342 100.517 26.984 35.193-20.358 47.252-65.447 26.932-100.708z" fill="#2196f3"/><path d="m502.129 377.403-182.402-316.529c-16.382-28.427-48.805-41.775-79.199-35.218 19.627 4.224 37.466 16.428 48.294 35.218l182.403 316.53c20.32 35.261 8.261 80.349-26.933 100.707-6.821 3.945-14.011 6.658-21.317 8.234 17.204 3.703 35.783 1.275 52.223-8.234 35.192-20.358 47.251-65.447 26.931-100.708z" fill="#1e88e5"/></g></svg>