<svg id="Capa_1" enable-background="new 0 0 491.886 491.886" height="512" viewBox="0 0 491.886 491.886" width="512" xmlns="http://www.w3.org/2000/svg"><g><path d="m393.174 336.843c-3.52 6.1-9.92 9.5-16.49 9.51-3.22 0-6.49-.83-9.48-2.54l-8.42-4.88c9.06 5.26 12.18 16.88 6.93 25.96-3.52 6.09-9.91 9.5-16.48 9.5-3.22 0-6.49-.82-9.48-2.55l-18.57-10.71c9 5.22 12.07 16.72 6.87 25.73l-.15.26c-5.21 9.02-16.74 12.11-25.76 6.91l-15.95-9.23c8.68 5.05 11.65 16.19 6.62 24.91l-.76 1.32c-5.04 8.73-16.2 11.71-24.92 6.68l-172.45-99.56c-11.74-6.78-21.51-16.52-28.35-28.24l-12.22-20.93 24.163-60.571 40.717-51.819 55.32 31.94 35.56-18.74c8.09-4.26 17.79-4.13 25.76.3l17.56 10.15 10.94 6.32 6.38 3.68c2.62 1.5 5.11 3.2 7.47 5.08l41.44 33.13c5.24 4.18 7.89 10.8 7.01 17.45-.35 2.59-1.19 4.96-2.39 7.04-5.04 8.73-16.58 12.46-26.1 6.97l88.27 50.96c3.07 1.77 5.48 4.28 7.07 7.18 3.17 5.65 3.37 12.77-.11 18.79z" fill="#ffcebf"/><g fill="#ffb09e"><path d="m393.174 336.843c-3.52 6.1-9.92 9.5-16.49 9.51-3.06 0-6.17-.75-9.03-2.3-.15-.08-.3-.15-.45-.24l-8.42-4.88c.14.08.28.17.42.26l-9.31-5.38-.15-.08-8.28-4.8.04.04-90.227-51.687c-3.59-2.07-4.82-6.66-2.75-10.25 2.07-3.58 6.66-4.81 10.25-2.74l109.039 62.454c4.815 2.776 10.963 1.26 13.934-3.437 2.709-4.282 1.926-9.895-1.854-13.269-4.252-3.796-9.313-8.195-10.983-9.161l17.3 9.99c3.07 1.77 5.48 4.28 7.07 7.18 3.171 5.65 3.371 12.77-.109 18.79z"/><path d="m365.714 364.893c-3.52 6.09-9.91 9.5-16.48 9.5-3.22 0-6.49-.82-9.48-2.55l-17.32-10-.37-.21-84.05-48.53c-3.59-2.07-4.81-6.66-2.74-10.25 2.07-3.58 6.65-4.81 10.24-2.74l91.86 53.04c4.79 2.76 10.91 1.15 13.71-3.62.93-1.58 1.38-3.34 1.38-5.09 0-2.54-.95-5.06-2.8-6.98l-8.16-8.49-.04-.04 8.28 4.8.15.08 9.31 5.38c8.74 5.36 11.68 16.76 6.51 25.7z"/><path d="m328.054 386.863-.15.26c-5.21 9.02-16.74 12.11-25.76 6.91l-15.78-9.13c.06.04.12.08.17.12l-1.61-.94-2.11-1.21-13.94-8.07c.1.06.2.12.3.19l-42.51-24.55c-3.66-2.11-4.86-6.82-2.63-10.43 2.15-3.5 6.84-4.46 10.4-2.41l67.48 38.92c5.99 3.45 13.62 0 14.98-6.79.02-.08.03-.17.05-.25.65-3.22-.31-6.55-2.57-8.94-3.1-3.28-7.53-7.68-10.51-9.41l18.2 10.5-.88-.5c9 5.22 12.07 16.72 6.87 25.73z"/><path d="m339.754 371.843-17.69-10.21.37.21z"/><path d="m292.814 409.713-.76 1.32c-5.04 8.73-16.2 11.71-24.92 6.68l-17.32-10c8.72 5.03 19.88 2.05 24.92-6.68l.76-1.32c4.97-8.62 2.13-19.6-6.32-24.72-.1-.07-.2-.13-.3-.19l13.94 8.07 2.11 1.21 1.61.94c8.42 5.12 11.24 16.08 6.28 24.69z"/><path d="m264.134 186.563-67.2 69.25-6.432 4.235c-3.242 2.135-6.929 3.502-10.78 3.996-14.872 1.91-28.604-8.245-31.134-23.024-1.744-10.19 2.275-20.511 10.451-26.839l52.737-39.985c2.057-1.56.644-4.831-1.901-4.404 8.09-4.26 17.79-4.13 25.76.3l17.56 10.15z"/></g><path d="m372.891 154.225 41.386 54.187 23.499 58.197-12.22 20.934c-6.845 11.723-16.611 21.449-28.358 28.243l-3.914 2.26c-.246-.447-.515-.892-.809-1.322-1.551-2.326-3.666-4.35-6.265-5.851l-135.081-77.988-7.24-4.18-49.944 28.835c-9.509 5.49-21.058 1.766-26.098-6.964-1.2-2.078-2.042-4.456-2.391-7.061-.878-6.641 1.78-13.256 7.005-17.427l41.455-33.137c2.3-1.836 4.735-3.519 7.298-4.999l34.667-20.015c8.045-4.645 17.908-4.843 26.133-.516l35.573 18.734z" fill="#ffcebf"/><path d="m282.014 167.423 35.57 18.73-11.54 6.67c-3.6 2.07-8.01 2.16-11.68.22l-29.67-15.62c-8.21-4.32-18.03-4.13-26.06.47l17.25-9.96c8.04-4.64 17.91-4.84 26.13-.51z" fill="#ffb09e"/><path d="m437.774 266.613-12.22 20.93c-6.84 11.72-16.61 21.45-28.36 28.24l-3.91 2.26c-.25-.44-.51-.89-.81-1.32 6.22-5.49 11.55-11.96 15.76-19.18l6.82-11.68c3.34-5.72 3.36-12.8.04-18.53l-59.52-103.11 17.32-10 41.383 54.189z" fill="#ffb09e"/><path d="m142.839 329.536-13.145 22.768c-3.665 6.348-11.779 8.522-18.127 4.857l-9.942-5.74c-.823-.475-1.569-1.022-2.245-1.631-4.566-4.091-5.807-10.962-2.612-16.496l13.145-22.768c2.625-4.547 6.845-7.595 11.544-8.854 1.967-.527 4.01-.745 6.058-.613 2.862.163 5.716.979 8.366 2.509 9.093 5.249 12.208 16.874 6.958 25.968z" fill="#ffcebf"/><path d="m142.844 329.533-13.15 22.77c-3.66 6.35-11.78 8.52-18.13 4.86l-9.94-5.74c-.82-.48-1.57-1.02-2.24-1.63 5.82 1.91 12.39-.46 15.59-5.99l13.14-22.77c3.72-6.44 3.24-14.17-.6-19.97 2.86.16 5.72.97 8.37 2.5 9.09 5.25 12.21 16.88 6.96 25.97z" fill="#ffb09e"/><path d="m175.757 348.541-13.145 22.768c-3.665 6.348-11.779 8.522-18.127 4.857l-9.933-5.735c-.823-.475-1.578-1.027-2.254-1.636-4.561-4.1-5.793-10.966-2.603-16.491l13.145-22.768c2.625-4.547 6.845-7.595 11.544-8.854 1.967-.527 4.01-.745 6.053-.604 2.867.154 5.721.971 8.371 2.501 9.084 5.243 12.199 16.868 6.949 25.962z" fill="#ffcebf"/><path d="m175.754 348.543-13.14 22.77c-3.67 6.34-11.78 8.52-18.13 4.85l-9.93-5.73c-.83-.48-1.58-1.03-2.26-1.64 5.84 1.91 12.41-.46 15.6-5.98l13.14-22.77c3.72-6.45 3.24-14.16-.6-19.97 2.87.16 5.72.97 8.37 2.5 9.09 5.25 12.2 16.87 6.95 25.97z" fill="#ffb09e"/><path d="m206.088 372.045-8.955 15.511c-3.495 6.054-11.227 8.125-17.28 4.63l-11.016-6.36c-.632-.365-1.226-.777-1.758-1.234-4.656-3.855-6.002-10.624-2.872-16.046l8.955-15.511c2.625-4.547 6.845-7.595 11.544-8.854 1.967-.527 4.01-.745 6.058-.613 2.862.163 5.716.979 8.366 2.509 9.093 5.25 12.208 16.875 6.958 25.968z" fill="#ffcebf"/><path d="m206.084 372.043-8.95 15.51c-3.5 6.06-11.23 8.13-17.28 4.63l-11.02-6.36c-.63-.36-1.22-.77-1.76-1.23 5.68 2.11 12.21-.12 15.34-5.54l8.95-15.51c3.72-6.44 3.24-14.17-.6-19.98 2.86.17 5.72.98 8.37 2.51 9.09 5.25 12.2 16.88 6.95 25.97z" fill="#ffb09e"/><path d="m233.306 400.923-1.95 3.377c-3.095 5.361-9.944 7.203-15.304 4.108l-13.51-7.8c-.199-.115-.402-.244-.596-.367-4.895-3.242-6.487-9.784-3.507-14.946l1.95-3.377c2.625-4.547 6.845-7.595 11.544-8.855 1.967-.527 4.01-.745 6.058-.613 2.862.163 5.716.979 8.366 2.509 9.084 5.246 12.199 16.871 6.949 25.964z" fill="#ffcebf"/><path d="m233.304 400.923-1.95 3.38c-3.09 5.36-9.94 7.2-15.3 4.11l-13.51-7.8c-.2-.12-.4-.25-.6-.37 5.26 2.62 11.71.72 14.69-4.44l1.95-3.38c3.72-6.44 3.24-14.16-.59-19.97 2.86.16 5.71.98 8.36 2.51 9.09 5.24 12.2 16.87 6.95 25.96z" fill="#ffb09e"/><g><path d="m220.825 138.17c-1.919 0-3.839-.732-5.304-2.196l-29.017-29.017c-2.929-2.93-2.929-7.678 0-10.607 2.93-2.928 7.678-2.928 10.607 0l29.017 29.017c2.929 2.93 2.929 7.678 0 10.607-1.465 1.464-3.384 2.196-5.303 2.196z" fill="#62dbfb"/></g><g><path d="m245.944 127.766c-4.143 0-7.5-3.357-7.5-7.5v-41.037c0-4.143 3.357-7.5 7.5-7.5s7.5 3.357 7.5 7.5v41.036c0 4.143-3.358 7.501-7.5 7.501z" fill="#62dbfb"/></g><g><path d="m271.063 138.17c-1.919 0-3.839-.732-5.304-2.196-2.929-2.93-2.929-7.678 0-10.607l29.017-29.017c2.93-2.928 7.678-2.928 10.607 0 2.929 2.93 2.929 7.678 0 10.607l-29.017 29.017c-1.464 1.464-3.384 2.196-5.303 2.196z" fill="#62dbfb"/></g><path d="m348.994 289.383-75.39-43.521c-9.806-5.661-21.847-5.826-31.804-.436l-37.816 23.387c-3.52 1.9-8.51 3.03-13.93 3.49-13.84 1.16-25.46-8.05-35.24-17.92l14.84-1.22c5.65 6.82 15.78 9.29 24.29 4.38l49.94-28.84c11.93-6.2 26.4-4.66 36.74 3.93z" fill="#ffb09e"/><path d="m127.157 142.457-86.279 149.44c-1.929 3.341-6.201 4.486-9.543 2.557l-27.841-16.074c-3.341-1.929-4.486-6.201-2.557-9.543l86.279-149.44c1.929-3.341 6.201-4.486 9.543-2.557l27.842 16.074c3.341 1.929 4.486 6.202 2.556 9.543z" fill="#8795de"/><path d="m127.154 142.453-86.28 149.44c-1.92 3.35-6.2 4.49-9.54 2.56l-19.97-11.53c3.34 1.93 7.61.79 9.54-2.56l86.28-149.44c1.91-3.31.81-7.53-2.46-9.49l19.88 11.48c3.34 1.93 4.48 6.2 2.55 9.54z" fill="#6c7fd8"/><path d="m404.67 117.028 86.279 149.44c1.929 3.341.784 7.614-2.557 9.543l-27.842 16.074c-3.341 1.929-7.614.784-9.543-2.557l-86.279-149.44c-1.929-3.341-.784-7.614 2.557-9.543l27.842-16.074c3.342-1.929 7.614-.784 9.543 2.557z" fill="#fedf30"/><path d="m488.394 276.013-19.92 11.5c3.3-1.94 4.42-6.19 2.51-9.51l-86.28-149.45c-1.93-3.34-6.21-4.48-9.55-2.55l19.97-11.53c3.34-1.93 7.62-.79 9.55 2.55l86.28 149.45c1.92 3.34.78 7.61-2.56 9.54z" fill="#fed402"/></g></svg>