<svg enable-background="new 0 0 64 64" height="512" viewBox="0 0 64 64" width="512" xmlns="http://www.w3.org/2000/svg"><g id="Icons"><g><g><path d="m59 30h-2c-.553 0-1-.448-1-1s.447-1 1-1h2c.553 0 1 .448 1 1s-.447 1-1 1z" fill="#c80a50"/></g><g><path d="m56.293 35.707-1.414-1.414c-.391-.391-.391-1.023 0-1.414s1.023-.391 1.414 0l1.414 1.414c.391.391.391 1.023 0 1.414s-1.023.391-1.414 0z" fill="#00a0c8"/></g><g><path d="m54.879 25.121c-.391-.391-.391-1.023 0-1.414l1.414-1.414c.391-.391 1.023-.391 1.414 0s.391 1.023 0 1.414l-1.414 1.414c-.391.391-1.023.391-1.414 0z" fill="#0a5078"/></g></g><g><g><path d="m5 28h2c.553 0 1 .448 1 1s-.447 1-1 1h-2c-.553 0-1-.448-1-1s.447-1 1-1z" fill="#c80a50"/></g><g><path d="m7.707 22.293 1.414 1.414c.391.391.391 1.023 0 1.414s-1.023.391-1.414 0l-1.414-1.414c-.391-.391-.391-1.023 0-1.414s1.023-.391 1.414 0z" fill="#00a0c8"/></g><g><path d="m9.121 32.879c.391.391.391 1.023 0 1.414l-1.414 1.414c-.391.391-1.023.391-1.414 0s-.391-1.023 0-1.414l1.414-1.414c.391-.391 1.023-.391 1.414 0z" fill="#0a5078"/></g></g><g><g><path d="m52 19.24v22.76c-27.408-13.704-17.955-8.978-20-10v-24l18.89 9.45c.68.34 1.11 1.03 1.11 1.79z" fill="#fab400"/></g><g><path d="m46 30c0 2.88-.87 5.57-2.39 7.81l-11.61-5.81v-16c7.81 0 14 6.39 14 14z" fill="#dc9600"/></g><g><path d="m32 8v24c-2.046 1.023 7.409-3.705-20 10v-22.76c0-.76.43-1.45 1.11-1.79z" fill="#00a0c8"/></g><g><path d="m32 16v16l-11.61 5.8c-1.51-2.22-2.39-4.91-2.39-7.8 0-7.75 6.38-14 14-14z" fill="#0082aa"/></g><g><path d="m52 42-.03.01-13.97 6.99-5.11 2.55c-.56.28-1.22.28-1.78 0l-5.11-2.55-11.75-5.87-2.22-1.11-.03-.02 3.61-1.8c.55-.27 1.13-.57 1.74-.87l3.04-1.52 11.56-5.79.05-.02.05.02 11.56 5.78 4.46 2.23c.49.25.98.5 1.5.76z" fill="#c80a50"/></g><g><path d="m43.61 37.8c-.6.91-1.32 1.74-2.12 2.48-1.09 1-1.96 2.19-2.56 3.5s-.93 2.74-.93 4.22v1l-5.11 2.55c-.56.28-1.22.28-1.78 0l-5.11-2.55v-1c0-2.96-1.33-5.73-3.5-7.74-.79-.73-1.5-1.55-2.11-2.45l11.56-5.79.05-.02.05.02z" fill="#a00028"/></g></g><g><path d="m46 29c0 4.04-1.72 7.71-4.51 10.28-1.09 1-1.96 2.19-2.56 3.5s-.93 2.74-.93 4.22h-12c0-2.96-1.33-5.73-3.5-7.74-2.77-2.55-4.5-6.2-4.5-10.26 0-7.75 6.38-14 14-14 7.81 0 14 6.39 14 14z" fill="#f0f0f0"/></g><g><path d="m36.53 32.152-2.644-1.652 2.643-1.652c.469-.293.611-.91.318-1.378s-.91-.61-1.378-.318l-2.469 1.544v-2.696c0-.552-.448-1-1-1s-1 .448-1 1v2.696l-2.47-1.544c-.467-.293-1.084-.15-1.378.318-.292.468-.15 1.085.318 1.378l2.643 1.652-2.643 1.652c-.469.292-.611.909-.318 1.378.295.471.915.609 1.378.317l2.47-1.543v14.696c0 .553.448 1 1 1s1-.447 1-1v-14.696l2.47 1.544c.463.291 1.083.154 1.378-.317.293-.469.151-1.087-.318-1.379z" fill="#d2d2d2"/></g><g><path d="m32 48c-.552 0-1-.447-1-1v-22c0-.552.448-1 1-1s1 .448 1 1v22c0 .553-.448 1-1 1z" fill="#fab400"/></g><g><path d="m28.001 33c-.333 0-.659-.167-.849-.47-.292-.468-.15-1.085.318-1.378l8-5c.468-.292 1.085-.15 1.378.318.292.468.15 1.085-.318 1.378l-8 5c-.165.103-.348.152-.529.152z" fill="#fab400"/></g><g><path d="m35.999 33c-.181 0-.364-.049-.529-.152l-8-5c-.469-.293-.611-.91-.318-1.378.293-.469.911-.611 1.378-.318l8 5c.469.293.611.91.318 1.378-.19.303-.515.47-.849.47z" fill="#fab400"/></g><g><path d="m36 56h-8c-1.105 0-2-.895-2-2v-7h12v7c0 1.105-.895 2-2 2z" fill="#0a5078"/></g></g></svg>