<svg xmlns="http://www.w3.org/2000/svg" xmlns:xlink="http://www.w3.org/1999/xlink" version="1.1" width="256" height="256" viewBox="0 0 256 256" xml:space="preserve">

<defs>
</defs>
<g style="stroke: none; stroke-width: 0; stroke-dasharray: none; stroke-linecap: butt; stroke-linejoin: miter; stroke-miterlimit: 10; fill: none; fill-rule: nonzero; opacity: 1;" transform="translate(1.4065934065934016 1.4065934065934016) scale(2.81 2.81)" >
	<circle cx="45" cy="45" r="45" style="stroke: none; stroke-width: 1; stroke-dasharray: none; stroke-linecap: butt; stroke-linejoin: miter; stroke-miterlimit: 10; fill: rgb(32,196,203); fill-rule: nonzero; opacity: 1;" transform="  matrix(1 0 0 1 0 0) "/>
	<path d="M 54.654 19.773 H 23.802 c -1.011 0 -1.83 0.819 -1.83 1.83 V 74.67 c 0 1.011 0.819 1.83 1.83 1.83 h 38.123 c 1.011 0 1.83 -0.819 1.83 -1.83 V 28.535 L 54.654 19.773 z M 27.402 28.007 h 15.461 v 4.221 H 27.402 V 28.007 z M 58.325 68.655 H 27.402 v -4.221 h 30.923 V 68.655 z M 58.325 61.393 H 27.402 v -4.221 h 30.923 V 61.393 z M 58.325 54.13 H 27.402 v -4.221 h 30.923 V 54.13 z M 58.325 46.868 H 27.402 v -4.221 h 30.923 V 46.868 z M 58.325 39.548 H 27.402 v -4.221 h 30.923 V 39.548 z M 54.654 30.365 c -1.011 0 -1.83 -0.819 -1.83 -1.83 v -6.933 l 9.101 8.763 H 54.654 z" style="stroke: none; stroke-width: 1; stroke-dasharray: none; stroke-linecap: butt; stroke-linejoin: miter; stroke-miterlimit: 10; fill: rgb(27,167,173); fill-rule: nonzero; opacity: 1;" transform=" matrix(1 0 0 1 0 0) " stroke-linecap="round" />
	<path d="M 57.927 16.5 H 27.075 c -1.011 0 -1.83 0.819 -1.83 1.83 v 53.067 c 0 1.011 0.819 1.83 1.83 1.83 h 38.123 c 1.011 0 1.83 -0.819 1.83 -1.83 V 25.263 L 57.927 16.5 z M 30.675 24.735 h 15.461 v 4.221 H 30.675 V 24.735 z M 61.598 65.382 H 30.675 v -4.221 h 30.923 V 65.382 z M 61.598 58.12 H 30.675 v -4.221 h 30.923 V 58.12 z M 61.598 50.858 H 30.675 v -4.221 h 30.923 V 50.858 z M 61.598 43.595 H 30.675 v -4.221 h 30.923 V 43.595 z M 61.598 36.276 H 30.675 v -4.221 h 30.923 V 36.276 z M 57.927 27.093 c -1.011 0 -1.83 -0.819 -1.83 -1.83 V 18.33 l 9.101 8.763 H 57.927 z" style="stroke: none; stroke-width: 1; stroke-dasharray: none; stroke-linecap: butt; stroke-linejoin: miter; stroke-miterlimit: 10; fill: rgb(255,255,255); fill-rule: nonzero; opacity: 1;" transform=" matrix(1 0 0 1 0 0) " stroke-linecap="round" />
</g>
</svg>