<svg id="Layer_1" height="512" viewBox="0 0 48 48" width="512" xmlns="http://www.w3.org/2000/svg"><path d="m19 37h10v7h-10z" fill="#00286f"/><path d="m36.333 42h-24.666c-2.025 0-3.667 1.642-3.667 3.667 0 .736.597 1.333 1.333 1.333h29.333c.736 0 1.333-.597 1.333-1.333 0-2.025-1.642-3.667-3.667-3.667z" fill="#0d3b8d"/><rect fill="#0d3b8d" height="29" rx="5" width="42" x="3" y="10"/><circle cx="24" cy="36" fill="#cfe0f3" r="1.5"/><rect fill="#47caf0" height="20" rx="2" width="36" x="6" y="13"/><path d="m38 29h-28c-.552 0-1-.448-1-1s.448-1 1-1h28c.552 0 1 .448 1 1s-.448 1-1 1z" fill="#20aee1"/><path d="m41.463 5.583-5.796-1.553c-.533-.143-1.082.174-1.225.707l-6.501 24.263h8.282l5.946-22.193c.143-.533-.174-1.082-.707-1.225z" fill="#eff3f9"/><g fill="#cfe0f3"><path d="m41.463 5.583-1.932-.518c.533.143.85.691.707 1.225l-5.549 20.71h-6.212l-.536 2h8.282l5.946-22.193c.143-.534-.174-1.082-.707-1.225z"/><path d="m35.339 9.118-1.932-.518.518-1.932 1.932.518c.533.143.85.691.707 1.225-.143.533-.691.85-1.225.707z"/><path d="m34.045 13.948-1.932-.518.518-1.932 1.932.518c.533.143.85.691.707 1.225-.143.533-.691.85-1.225.707z"/><path d="m32.751 18.777-1.932-.518.518-1.932 1.932.518c.533.143.85.691.707 1.225-.143.533-.691.85-1.225.707z"/><path d="m31.457 23.607-1.932-.518.518-1.932 1.932.518c.533.143.85.691.707 1.225-.143.533-.691.85-1.225.707z"/><path d="m30.163 28.437-1.932-.518.518-1.932 1.932.518c.533.143.85.691.707 1.225-.143.533-.691.85-1.225.707z"/></g><path d="m28.231 27.919 1.932.518c.534.143 1.082-.174 1.225-.707.069-.256.026-.513-.09-.729h-2.821l-.246.919z" fill="#aecee8"/><path d="m13.498 29h6.265l-2.648-11.473c-.006-.024-.013-.049-.02-.073l-.009-.031c-.235-.886-.798-1.625-1.587-2.081-.785-.454-1.702-.572-2.574-.336-.897.238-1.641.812-2.092 1.618-.456.812-.559 1.754-.289 2.66z" fill="#eff3f9"/><path d="m11.935 15.462c-.449.294-.833.68-1.103 1.161-.456.812-.559 1.754-.289 2.66l2.954 9.716h6.265l-.462-2h-4.708l-2.751-9.05c-.25-.837-.205-1.698.093-2.487z" fill="#cfe0f3"/><path d="m11.372 22.007 6.382-1.71-.45-1.95-6.514 1.746z" fill="#cfe0f3"/><path d="m12.365 19.671-1.575.422.582 1.914 1.575-.422z" fill="#aecee8"/><path d="m12.062 15.565c-1.776 0-3.414-1.211-3.903-3.037-.492-1.835-.142-3.331.167-4.65.229-.98.427-1.828.215-2.62-.1-.374.024-.771.319-1.021.294-.25.707-.308 1.06-.148.198.09 4.863 2.244 5.967 6.369.582 2.171-.678 4.402-2.808 4.973-.339.091-.68.134-1.017.134z" fill="#9a4c29"/><path d="m14.058 13.408c-.398.107-.798.158-1.192.158-2.083 0-4.004-1.421-4.578-3.562-.094-.352-.154-.689-.2-1.02-.195 1.043-.287 2.203.072 3.545.489 1.826 2.127 3.037 3.903 3.037.336 0 .677-.043 1.017-.134 1.49-.4 2.537-1.617 2.842-3.052-.523.468-1.144.836-1.864 1.029z" fill="#7d3327"/><path d="m20 29v-17.916c0-.703.124-1.401.365-2.062l2.695-7.365c.32-.875 1.558-.875 1.878 0l2.695 7.365c.242.661.365 1.359.365 2.062v17.916h-8z" fill="#ffa221"/><path d="m28 29v-17.916c0-.703-.124-1.401-.365-2.062l-2.695-7.365c-.16-.438-.55-.656-.939-.656v25.999h-4v2h8z" fill="#ff8200"/><path d="m27.635 9.022-2.695-7.365c-.32-.875-1.558-.875-1.878 0l-2.695 7.365c-.203.556-.303 1.141-.336 1.731.618.215 1.279.338 1.971.338.702 0 1.374-.127 2-.349.626.222 1.298.349 2 .349.691 0 1.353-.123 1.971-.338-.033-.59-.133-1.174-.336-1.731z" fill="#ffcdb4"/><path d="m26 11.09c.691 0 1.353-.123 1.971-.338-.033-.59-.133-1.174-.336-1.731l-2.695-7.365c-.16-.438-.55-.656-.939-.656v9.742c.626.222 1.298.349 2 .349z" fill="#f6a28d"/><path d="m24 6.09c.846 0 1.66-.125 2.436-.343l-1.497-4.091c-.32-.875-1.558-.875-1.878 0l-1.497 4.091c.776.218 1.591.343 2.436.343z" fill="#0d3b8d"/><path d="m26.436 5.747-1.497-4.091c-.16-.438-.55-.656-.939-.656v5.09c.846 0 1.66-.125 2.436-.343z" fill="#00286f"/></svg>