<svg height="512" viewBox="0 0 58 58" width="512" xmlns="http://www.w3.org/2000/svg"><g id="Page-1" fill="none" fill-rule="evenodd"><g id="025---Arrow-and-Target" fill-rule="nonzero"><path id="Shape" d="m40.51 24.1c6.0726498 9.4497259 4.0456036 21.9573738-4.7007571 29.0054636-8.7463606 7.0480899-21.3990329 6.3698164-29.3417779-1.5729286-7.94274498-7.942745-8.62101849-20.5954173-1.57292864-29.3417779 7.04808984-8.7463607 19.55573774-10.7734069 29.00546364-4.7007571z" fill="#e64c3c"/><path id="Shape" d="m35.34 25.48c2.3799444 2.9889072 3.67083 6.6993215 3.66 10.52.0036789 7.926771-5.4689794 14.8050831-13.1938593 16.582706-7.7248798 1.7776228-15.6535179-2.0168291-19.11490351-9.1479245-3.46138562-7.1310954-1.53763764-15.707829 4.63790341-20.6773768 6.175541-4.9695478 14.9652612-5.014098 21.1908594-.1074047z" fill="#f5efca"/><path id="Shape" d="m31.78 29.04c3.6140097 5.0802327 2.7319968 12.0823818-2.0289737 16.1076755s-11.8122965 3.7306044-16.2208014-.6779004c-4.40850479-4.4085049-4.70319414-11.4598309-.6779004-16.2208014 4.0252937-4.7609705 11.0274428-5.6429834 16.1076755-2.0289737z" fill="#e64c3c"/><path id="Shape" d="m28.16 32.66c1.6484256 3.04863.8102821 6.8450545-1.9684653 8.9162896-2.7787473 2.071235-6.6563972 1.7898894-9.1070555-.6607688-2.4506582-2.4506583-2.7320038-6.3283082-.6607688-9.1070555 2.0712351-2.7787474 5.8676596-3.6168909 8.9162896-1.9684653z" fill="#2c3e50"/><path id="Shape" d="m33.664 21.507.685-11.641c.0144292-.24433378.1179666-.47489123.291-.648l8.922-8.918c.2935297-.29408563.738333-.37601909 1.117384-.20582387s.6133646.55705459.588616.97182387l-1 9.84 2.832 2.823 9.84-1c.4147693-.0247486.8016287.209565.9718239.588616s.0882617.8238543-.2058239 1.117384l-8.924 8.925c-.1731088.1730334-.4036662.2765708-.648.291l-11.641.685z" fill="#cf976a"/><path id="Shape" d="m20.586 34.586 25.5-25.5c.6944598-.72878114 1.8100459-.85829509 2.653-.308.4793931.34145932.7846417.87622446.8348897 1.4626436.050248.5864191-.159575 1.1653187-.5738897 1.5833564l-25.59 25.59c-.7809997.7807639-2.0470003.7807639-2.828 0-.7796603-.7821036-.7778696-2.0481051.004-2.828z" fill="#805333"/></g></g></svg>