<svg height="512" viewBox="0 0 60 60" width="512" xmlns="http://www.w3.org/2000/svg"><g id="Page-1" fill="none" fill-rule="evenodd"><g id="002---Mobile-Settings" fill-rule="nonzero" transform="translate(-1)"><path id="Shape" d="m48 51v5c0 1.6568542-1.3431458 3-3 3h-28c-1.6568542 0-3-1.3431458-3-3v-5c0 1.6568542 1.3431458 3 3 3h28c1.6568542 0 3-1.3431458 3-3z" fill="#3f51b5"/><path id="Shape" d="m45 54v2c0 1.6568542-1.3431458 3-3 3h3c1.6568542 0 3-1.3431458 3-3v-5c0 1.6568542-1.3431458 3-3 3z" fill="#283593"/><path id="Shape" d="m44 20-2.9.73v3.09l-3.53 2.61-2.94-.94-1.54 2.56 2.31 2.15-.65 4.35-2.75 1.45.73 2.9h3.09l2.61 3.53-.94 2.94 2.56 1.54 2.15-2.31 4.35.65 1.45 2.75v3c0 1.6568542-1.3431458 3-3 3h-28c-1.6568542 0-3-1.3431458-3-3v-20.13l2.55.38 1.45 2.75 2.9-.73-.05-3.09 3.53-2.61 2.94.94 1.5-2.51-2.22-2.2.65-4.35 2.75-1.45-.73-2.9h-3.09l-2.61-3.53.94-2.94-2.51-1.45-2.2 2.22-4.35-.65-1.45-2.75v-2c0-1.65685425 1.3431458-3 3-3h28c1.6568542 0 3 1.34314575 3 3v19.13l-2.55-.38z" fill="#02a9f4"/><path id="Shape" d="m45 1h-3c1.6568542 0 3 1.34314575 3 3v17.87l.45.88 2.55.38v-19.13c0-1.65685425-1.3431458-3-3-3z" fill="#0377bc"/><path id="Shape" d="m46.55 45.25-4.35-.65-.38.39 1.73.26 1.45 2.75v3c0 1.6568542-1.3431458 3-3 3h3c1.6568542 0 3-1.3431458 3-3v-3z" fill="#0377bc"/><path id="Shape" d="m41 1-2.86 3.05c-.5552143.59345073-1.3274375.93626008-2.14.95h-9.9c-.8375997-.01295328-1.6316336-.37552582-2.19-1l-2.91-3z" fill="#3f51b5"/><path id="Shape" d="m27.25 19.45 2.75-1.45-.73-2.9h-3.09l-2.61-3.53.94-2.94-2.51-1.45-2.2 2.22-4.35-.65-1.45-2.75-2.86.72v3.09l-3.48 2.62-2.94-.94-1.54 2.56 2.22 2.15-.65 4.35-2.75 1.45.73 2.9 3.09-.05 2.61 3.53-.94 2.94 2.56 1.54 2.15-2.26 1.8.27 2.55.38 1.45 2.75 2.9-.73-.05-3.09 3.53-2.61 2.94.94 1.5-2.51-2.22-2.2zm-5.25 4.17c-1.6526765 2.7313543-4.9345015 4.011266-8 3.12-.5700249-.1747939-1.1146679-.4235814-1.62-.74-3.30639341-1.9996649-4.36711737-6.3002278-2.3698011-9.6080405 1.9973162-3.3078128 6.2971246-4.3715907 9.606355-2.3766242s4.3760619 6.2940183 2.3834461 9.6046647z" fill="#9d27b0"/><path id="Shape" d="m22 23.62c-1.6526765 2.7313543-4.9345015 4.011266-8 3.12v-13.48c2.7823896-.8451074 5.7975055.1179887 7.5747766 2.4195548 1.777271 2.301566 1.9465299 5.4622351.4252234 7.9404452z" fill="#02a9f4"/><path id="Shape" d="m57.25 33.45 2.75-1.45-.73-2.9-3.09.05-2.61-3.53.94-2.94-2.51-1.5-2.2 2.22-1.8-.27-2.55-.38-1.45-2.75-2.9.73v3.09l-3.53 2.61-2.94-.94-1.54 2.56 2.31 2.15-.65 4.35-2.75 1.45.73 2.9h3.09l2.61 3.53-.94 2.94 2.56 1.54 2.15-2.31 4.35.65 1.45 2.75 2.86-.72v-3.09l3.53-2.61 2.94.94 1.49-2.52-2.22-2.2zm-5.25 4.17c-1.8899991 3.099001-5.8353199 4.239146-9.0870556 2.6260378-3.2517357-1.6131083-4.7309319-5.4442264-3.4069569-8.8240184 1.323975-3.3797919 5.0118147-5.1868131 8.4940125-4.1620194.5685303.1653423 1.113109.4040157 1.62.71 3.3114773 2.0152822 4.3746525 6.3260557 2.38 9.65z" fill="#9d27b0"/><path id="Shape" d="m51.51 22.72-.94 2.94 2.61 3.53 2.97-.05-2.58-3.48.94-2.94-2.56-1.54-1.1 1.14z" fill="#6a1b9a"/><path id="Shape" d="m57.25 33.45 2.75-1.41-.73-2.9-2.99.05.72 2.85-2.75 1.41-.65 4.35 2.22 2.15-1.06 1.76 2.52.8 1.54-2.56-2.22-2.15z" fill="#6a1b9a"/><path id="Shape" d="m53.43 42.24-2.09-.67-3.53 2.61.05 3.09-.24.06.34.67.04-.01 2.86-.72-.05-3.09z" fill="#6a1b9a"/><path id="Shape" d="m48 27.26v13.48c-2.8526072.7999487-5.8998879-.2825453-7.6085688-2.702813-1.7086808-2.4202676-1.7086808-5.6541064 0-8.074374 1.7086809-2.4202677 4.7559616-3.5027617 7.6085688-2.702813z" fill="#02a9f4"/><path id="Shape" d="m44.47 27.15c.18 0 .36.06.53.11v13.48l-.51.12c1.1614695.2558635 2.3687169.2145901 3.51-.12v-13.48c-1.147493-.340461-2.3635354-.3783547-3.53-.11z" fill="#0377bc"/><g fill="#f5f5f5"><path id="Shape" d="m35 10h-3c-.5522847 0-1-.44771525-1-1s.4477153-1 1-1h3c.5522847 0 1 .44771525 1 1s-.4477153 1-1 1z"/><path id="Shape" d="m44 10h-5c-.5522847 0-1-.44771525-1-1s.4477153-1 1-1h5c.5522847 0 1 .44771525 1 1s-.4477153 1-1 1z"/><path id="Shape" d="m44 14h-9c-.5522847 0-1-.4477153-1-1s.4477153-1 1-1h9c.5522847 0 1 .4477153 1 1s-.4477153 1-1 1z"/><path id="Shape" d="m30 44h-3c-.5522847 0-1-.4477153-1-1s.4477153-1 1-1h3c.5522847 0 1 .4477153 1 1s-.4477153 1-1 1z"/><path id="Shape" d="m23 44h-5c-.5522847 0-1-.4477153-1-1s.4477153-1 1-1h5c.5522847 0 1 .4477153 1 1s-.4477153 1-1 1z"/><path id="Shape" d="m27 48h-9c-.5522847 0-1-.4477153-1-1s.4477153-1 1-1h9c.5522847 0 1 .4477153 1 1s-.4477153 1-1 1z"/></g><path id="Shape" d="m1.76 25.1c.11281553.4571833.52930282.7737136 1 .76h2.58l2 2.7-.81 2.44c-.12414022.4428681.0698109.9133027.47 1.14l2.57 1.54c.3975484.2380964.9065948.171879 1.23-.16l1.79-1.85.44.06v24.27c0 2.209139 1.790861 4 4 4h27.97c2.209139 0 4-1.790861 4-4v-7.23l2.1-.53c.4571833-.1128155.7737136-.5293028.76-1v-2.58l2.7-2 2.46.79c.4319745.1176255.8894917-.0661984 1.12-.45l1.54-2.57c.2380964-.3975484.171879-.9065948-.16-1.23l-1.85-1.79.49-3.33 2.3-1.18c.4098865-.2005197.63205-.6530751.54-1.1l-.73-2.9c-.1128155-.4571833-.5293028-.7737136-1-.76h-2.58l-2-2.7.78-2.44c.1241402-.4428681-.0698109-.9133027-.47-1.14l-2.57-1.54c-.3975484-.2380964-.9065948-.171879-1.23.16l-1.79 1.85-.41-.06v-18.27c0-2.209139-1.790861-4-4-4h-28c-2.209139 0-4 1.790861-4 4v1.23l-2.1.53c-.4571833.11281553-.7737136.52930282-.76 1v2.58l-2.7 2-2.44-.81c-.44286812-.1241402-.91330274.0698109-1.14.47l-1.54 2.54c-.23809645.3975484-.17187903.9065948.16 1.23l1.85 1.79-.49 3.33-2.3 1.18c-.42278517.2033614-.64735606.6732968-.54 1.13zm43.24 32.9h-28c-1.1045695 0-2-.8954305-2-2v-1.56c.6039929.3635516 1.2950401.5570448 2 .56h28c.7049599-.0029552 1.3960071-.1964484 2-.56v1.56c0 1.1045695-.8954305 2-2 2zm4.65-33.61c.3215191.0473073.6459752-.0645741.87-.3l1.6-1.65 1.2.73-.71 2.18c-.097751.306658-.0419238.6416211.15.9l2.62 3.54c.1999437.2490233.5006698.395719.82.4h2.3l.34 1.36-2.05 1.05c-.2878042.149298-.4853637.4288633-.53.75l-.65 4.34c-.0473073.3215191.0645741.6459752.3.87l1.65 1.6-.73 1.2-2.18-.71c-.306658-.097751-.6416211-.0419238-.9.15l-3.54 2.62c-.2575188.19304-.4063892.4982243-.4.82v2.3l-1.36.34-1.05-2.05c-.149298-.2878042-.4288633-.4853637-.75-.53l-4.34-.65h-.11c-.2721876.0010388-.5321912.1129847-.72.31l-1.6 1.65-1.2-.73.71-2.18c.097751-.306658.0419238-.6416211-.15-.9l-2.62-3.54c-.2008324-.2479085-.5010014-.3943324-.82-.4h-2.3l-.34-1.36 2.05-1.05c.2878042-.149298.4853637-.4288633.53-.75l.65-4.34c.0473073-.3215191-.0645741-.6459752-.3-.87l-1.65-1.6.73-1.2 2.18.71c.306658.097751.6416211.0419238.9-.15l3.54-2.62c.2575188-.19304.4063892-.4982243.4-.82v-2.3l1.36-.34 1.05 2.05c.149298.2878042.4288633.4853637.75.53zm-10.96-22.39-1.28 1.37c-.3666957.39030942-.874608.61724897-1.41.63h-9.9c-.5528207.00080487-1.081318-.2272453-1.46-.63l-1.33-1.37zm-21.69 0h3.57l2.56 2.74c.7573641.8055094 1.8143585 1.26160975 2.92 1.26h9.95c1.1056415.00160975 2.1626359-.4544906 2.92-1.26l2.51-2.74h3.57c1.1045695 0 2 .8954305 2 2v18l-.89-.13-1.18-2.3c-.1932262-.4345102-.6657177-.6728466-1.13-.57l-2.9.73c-.4571833.1128155-.7737136.5293028-.76 1v2.58l-2.7 2-2.44-.78c-.4419112-.1399061-.9220416.0422124-1.16.44l-1.54 2.57c-.2380964.3975484-.171879.9065948.16 1.23l1.85 1.79-.49 3.33-2.3 1.18c-.4150162.2099157-.6305286.6782407-.52 1.13l.73 2.9c.1128155.4571833.5293028.7737136 1 .76h2.58l2 2.7-.78 2.44c-.1241402.4428681.0698109.9133027.47 1.14l2.57 1.54c.3975484.2380964.9065948.171879 1.23-.16l1.79-1.85 3.33.49 1.08 2.16v2.68c0 1.1045695-.8954305 2-2 2h-28c-1.1045695 0-2-.8954305-2-2v-19l.89.13 1.18 2.3c.1932262.4345102.6657177.6728466 1.13.57l2.9-.73c.4571833-.1128155.7737136-.5293028.76-1v-2.58l2.7-2 2.46.79c.4389632.1121968.8985127-.084753 1.12-.48l1.54-2.57c.2380964-.3975484.171879-.9065948-.16-1.23l-1.85-1.79.49-3.33 2.3-1.18c.4098865-.2005197.63205-.6530751.54-1.1l-.73-2.9c-.1128155-.4571833-.5293028-.7737136-1-.76h-2.58l-2-2.7.78-2.44c.1241402-.44286812-.0698109-.91330274-.47-1.14l-2.54-1.54c-.3975484-.23809645-.9065948-.17187903-1.23.16l-1.79 1.85-3.33-.49-1.11-2.16v-1.68c0-1.1045695.8954305-2 2-2zm-11.79 19.44c.28780423-.149298.48536373-.4288633.53-.75l.65-4.34c.04730734-.3215191-.06457407-.6459752-.3-.87l-1.65-1.6.73-1.2 2.18.71c.30665801.097751.64162111.0419238.9-.15l3.54-2.62c.2575188-.19304.4063892-.4982243.4-.82v-2.3l1.36-.34 1.05 2.05c.149298.28780423.4288633.48536373.75.53l4.34.65c.3215191.0473073.6459752-.0645741.87-.3l1.6-1.65 1.2.73-.71 2.18c-.097751.306658-.0419238.6416211.15.9l2.62 3.54c.19304.2575188.4982243.4063892.82.4h2.3l.34 1.36-2.05 1c-.2878042.149298-.4853637.4288633-.53.75l-.65 4.34c-.0473073.3215191.0645741.6459752.3.87l1.65 1.6-.73 1.2-2.18-.71c-.306658-.097751-.6416211-.0419238-.9.15l-3.54 2.62c-.2575188.19304-.4063892.4982243-.4.82v2.3l-1.36.34-1-2.05c-.149298-.2878042-.4288633-.4853637-.75-.53l-4.34-.65h-.2c-.2721876.0010388-.5321912.1129847-.72.31l-1.6 1.65-1.2-.73.71-2.18c.09775096-.306658.04192377-.6416211-.15-.9l-2.62-3.54c-.19304003-.2575188-.49822433-.4063892-.82-.4h-2.3l-.34-1.36z" fill="#000"/><path id="Shape" d="m11.87 26.88c.538807.3183856 1.1126163.5734119 1.71.76h.11c.7489152.2294458 1.5267808.3506716 2.31.36 3.0991332-.0542327 5.8880394-1.8938074 7.157875-4.7213657 1.2698355-2.8275582.7920486-6.1341807-1.2262655-8.4866213-2.018314-2.3524405-5.2138881-3.327294-8.2016095-2.502013h-.14c-3.0190091.9375093-5.20283295 3.5648908-5.5725707 6.7044183-.36973775 3.1395276 1.14395757 6.2023607 3.8625707 7.8155817zm7.23-12c2.4775252 1.4847122 3.5456176 4.5239112 2.5416585 7.2321519-1.003959 2.7082407-3.7950124 4.3168341-6.6416585 3.8278481v-11.87c.3297832-.0624047.6643898-.0958654 1-.1 1.0923529-.0008693 2.1642178.2964868 3.1.86zm-8.27 2.02c.5345428-.8718945 1.2810528-1.5943235 2.17-2.1v10.42h-.1c-1.3908886-.8169699-2.3942364-2.1595742-2.7836936-3.7249284-.38945708-1.5653543-.13221508-3.2215909.7136936-4.5950716z" fill="#000"/><path id="Shape" d="m39.12 29.87c-1.0987628 1.822184-1.4263301 4.0070219-.910257 6.0713143.516073 2.0642923 1.8332621 3.8379412 3.660257 4.9286857 1.2470093.7482372 2.6757623 1.1391551 4.13 1.13.7687409-.0079132 1.5326756-.1223351 2.27-.34l.18-.06c3.0108217-.9454144 5.1845293-3.5724707 5.5496177-6.7070466.3650885-3.1345759-1.1466698-6.1908835-3.8596177-7.8029534-.5403071-.3316071-1.1219893-.5905062-1.73-.77h-.07c-3.5241827-1.0824746-7.3317819.383575-9.22 3.55zm3.78 9.3c-2.1046386-1.2416412-3.2460237-3.6355991-2.8856881-6.0524844.3603356-2.4168854 2.150395-4.3737915 4.5256881-4.9475156.4781374-.1147345.9682926-.1718073 1.46-.17.335131.0046423.6694256.0347288 1 .09v11.85c-1.4147737.2419968-2.8694258-.0311939-4.1-.77zm9-6.63c.3896709 1.5499026.1449131 3.1912196-.68 4.56-.5484572.8781501-1.3127576 1.6011371-2.22 2.1v-10.42h.1c1.3856498.831815 2.3771377 2.1874494 2.75 3.76z" fill="#000"/></g></g></svg>