<svg id="Layer_1" enable-background="new 0 0 256 256" height="512" viewBox="0 0 256 256" width="512" xmlns="http://www.w3.org/2000/svg"><g><g><circle cx="197.094" cy="197.094" fill="#526faa" r="54.906"/></g><g><circle cx="197.094" cy="58.906" fill="#8852a8" r="54.906"/></g><g><circle cx="58.906" cy="197.094" fill="#8852a8" r="54.906"/></g><g><path d="m75.737 223.709h-32.45c-5.35 0-9.688-4.337-9.688-9.688v-32.45c0-5.35 4.337-9.688 9.688-9.688h32.45c5.35 0 9.688 4.337 9.688 9.688v32.45c0 5.351-4.338 9.688-9.688 9.688z" fill="#f4efed"/></g><g><circle cx="58.906" cy="58.906" fill="#526faa" r="54.906"/></g><g><path d="m65.154 38.737h6.067v-9.823h-6.067c-7.222 0-13.098 5.876-13.098 13.098v4.718h-9.34v9.823h9.34v30.408h9.823v-30.408h9.341v-9.823h-9.34v-4.718c0-1.806 1.468-3.275 3.274-3.275z" fill="#f4efed"/></g><g><path d="m61.88 88.961h-9.823c-1.104 0-2-.896-2-2v-28.408h-7.341c-1.104 0-2-.896-2-2v-9.824c0-1.104.896-2 2-2h7.341v-2.718c0-8.325 6.772-15.098 15.098-15.098h6.066c1.104 0 2 .896 2 2v9.823c0 1.104-.896 2-2 2h-6.066c-.703 0-1.274.572-1.274 1.274v2.718h7.341c1.104 0 2 .896 2 2v9.824c0 1.104-.896 2-2 2h-7.342v28.408c0 1.105-.896 2.001-2 2.001zm-7.823-4h5.823v-28.408c0-1.104.896-2 2-2h7.341v-5.824h-7.341c-1.104 0-2-.896-2-2v-4.718c0-2.908 2.366-5.274 5.274-5.274h4.066v-5.823h-4.066c-6.119 0-11.098 4.979-11.098 11.098v4.718c0 1.104-.896 2-2 2h-7.341v5.824h7.341c1.104 0 2 .896 2 2v28.407z" fill="#690589"/></g><g><path d="m197.094 4c-1.634 0-3.247.085-4.844.225 28.053 2.454 50.062 25.991 50.062 54.681s-22.009 52.227-50.062 54.681c1.597.14 3.21.225 4.844.225 30.324 0 54.906-24.582 54.906-54.906 0-30.324-24.582-54.906-54.906-54.906z" fill="#6a348a"/></g><g><path d="m197.094 142.188c-1.634 0-3.247.085-4.844.225 28.053 2.454 50.062 25.991 50.062 54.681s-22.009 52.227-50.062 54.681c1.597.14 3.21.225 4.844.225 30.324 0 54.906-24.582 54.906-54.906 0-30.323-24.582-54.906-54.906-54.906z" fill="#34518c"/></g><g><path d="m58.906 252c1.634 0 3.247-.085 4.844-.225-28.053-2.454-50.062-25.991-50.062-54.681s22.009-52.227 50.062-54.681c-1.597-.139-3.21-.225-4.844-.225-30.324 0-54.906 24.582-54.906 54.906s24.582 54.906 54.906 54.906z" fill="#a670c6"/></g><g><path d="m58.906 113.812c1.634 0 3.247-.085 4.844-.225-28.053-2.454-50.062-25.991-50.062-54.681s22.009-52.227 50.062-54.681c-1.598-.14-3.211-.225-4.844-.225-30.324 0-54.906 24.582-54.906 54.906 0 30.323 24.582 54.906 54.906 54.906z" fill="#708dc8"/></g><g><path d="m169.586 75.757s11.278 1.344 15.515-4.761c-6.355-1.246-9.346-7.601-9.346-7.601h3.24s-5.981-3.614-7.85-11.09c4.361 1.121 4.361 1.121 4.361 1.121s-5.234-5.233-1.371-14.704c4.611 7.352 15.202 11.464 21.682 11.713-1.869-10.342 11.339-17.321 19.937-8.847 5.483-1.371 7.103-3.24 7.103-3.24l-1.62 5.981 3.364.498s-1.994 3.24-5.607 5.234c-1.619 12.586-10.974 40.582-49.408 25.696z" fill="#f4efed"/></g><g><path d="m189.431 82.013c-6.14 0-13.01-1.463-20.567-4.39-.939-.364-1.462-1.371-1.218-2.349.243-.978 1.183-1.619 2.175-1.503 2.281.267 7.925.273 11.523-1.962-4.944-2.459-7.281-7.316-7.397-7.562-.292-.62-.246-1.345.121-1.923.07-.11.15-.213.238-.306-1.914-2.036-4.068-5.095-5.102-9.228-.171-.684.031-1.407.531-1.904.464-.462 1.126-.665 1.76-.55-.975-2.866-1.384-7.042.789-12.369.283-.695.932-1.172 1.679-1.237.765-.068 1.469.295 1.867.93 3.841 6.125 12.123 9.625 17.815 10.542.106-4.497 2.627-8.568 6.859-10.803 5.146-2.718 11.228-1.924 15.791 1.973 3.81-1.101 5.076-2.363 5.09-2.377.609-.704 1.606-.872 2.432-.434.823.438 1.214 1.41.971 2.31l-1.032 3.81 1.139.168c.665.099 1.236.524 1.52 1.134.284.609.243 1.32-.109 1.893-.085.139-1.992 3.195-5.463 5.412-.964 6.411-4.328 19.857-15.858 26.717-4.492 2.672-9.69 4.008-15.554 4.008zm-9.638-5.167c9.283 2.112 17.04 1.354 23.146-2.278 10.938-6.508 13.536-20.598 14.072-24.762.081-.632.459-1.188 1.018-1.496 1.083-.597 2.005-1.332 2.745-2.035-.494-.118-.929-.421-1.21-.851-.312-.478-.406-1.067-.257-1.618l.365-1.347c-.959.369-2.094.734-3.432 1.069-.678.167-1.393-.026-1.89-.516-4.092-4.033-8.873-3.715-11.979-2.076-2.754 1.454-5.404 4.619-4.587 9.143.108.596-.061 1.209-.458 1.667s-.967.709-1.587.687c-5.633-.216-14.985-3.282-20.799-9.439-1.069 5.874 1.942 8.98 1.979 9.017.638.637.77 1.622.323 2.405s-1.358 1.169-2.235.946l-.667-.171c2.185 4.332 5.646 6.466 5.688 6.492.769.464 1.134 1.384.893 2.249-.195.702-.751 1.228-1.433 1.402 1.32 1.511 3.32 3.175 5.996 3.7.663.13 1.215.585 1.469 1.211.254.625.175 1.337-.21 1.892-1.705 2.458-4.29 3.889-6.95 4.709z" fill="#690589"/></g><g><path d="m58.906 254c-31.378 0-56.906-25.528-56.906-56.906s25.528-56.906 56.906-56.906 56.905 25.528 56.905 56.906c.001 31.378-25.527 56.906-56.905 56.906zm0-109.812c-29.173 0-52.906 23.734-52.906 52.906s23.733 52.906 52.906 52.906c29.172 0 52.905-23.733 52.905-52.906s-23.733-52.906-52.905-52.906z" fill="#690589"/></g><g><path d="m58.906 115.812c-31.378 0-56.906-25.528-56.906-56.906s25.528-56.906 56.906-56.906 56.905 25.528 56.905 56.906c.001 31.378-25.527 56.906-56.905 56.906zm0-109.812c-29.173 0-52.906 23.733-52.906 52.906s23.733 52.906 52.906 52.906c29.172 0 52.905-23.734 52.905-52.906s-23.733-52.906-52.905-52.906z" fill="#690589"/></g><g><path d="m12.547 61.996c-1.104 0-2-.896-2-2 0-4.139.347-8.289 1.031-12.333.184-1.088 1.212-1.824 2.306-1.639 1.089.185 1.822 1.217 1.638 2.306-.646 3.825-.975 7.75-.975 11.667 0 1.103-.896 1.999-2 1.999z" fill="#690589"/></g><g><path d="m197.094 115.812c-31.378 0-56.905-25.528-56.905-56.906-.001-31.378 25.527-56.906 56.905-56.906s56.906 25.528 56.906 56.906-25.528 56.906-56.906 56.906zm0-109.812c-29.172 0-52.905 23.733-52.905 52.906s23.733 52.906 52.905 52.906c29.173 0 52.906-23.734 52.906-52.906s-23.733-52.906-52.906-52.906z" fill="#690589"/></g><g><path d="m197.094 254c-31.378 0-56.905-25.528-56.905-56.906s25.527-56.906 56.905-56.906 56.906 25.528 56.906 56.906-25.528 56.906-56.906 56.906zm0-109.812c-29.172 0-52.905 23.734-52.905 52.906s23.733 52.906 52.905 52.906c29.173 0 52.906-23.733 52.906-52.906s-23.733-52.906-52.906-52.906z" fill="#690589"/></g><g><path d="m204.336 214.776c-2.652 0-4.803-2.15-4.803-4.803v-16.133h15.015v-11.625h-15.015v-14.428h-11.625v7.422c0 3.869-3.137 7.006-7.006 7.006h-2.435v11.625h9.441v19.292c0 7.328 5.94 13.268 13.268 13.268h4.764c3.355 0 6.678-.658 9.78-1.938v-11.625c-3.102 1.279-6.425 1.938-9.78 1.938h-1.604z" fill="#f4efed"/></g><g><path d="m205.94 228.401h-4.764c-8.419 0-15.269-6.849-15.269-15.268v-17.293h-7.44c-1.104 0-2-.896-2-2v-11.625c0-1.104.896-2 2-2h2.435c2.76 0 5.006-2.246 5.006-5.006v-7.422c0-1.104.896-2 2-2h11.625c1.104 0 2 .896 2 2v12.428h13.015c1.104 0 2 .896 2 2v11.625c0 1.104-.896 2-2 2h-13.015v14.133c0 1.545 1.257 2.803 2.803 2.803h1.604c3.109 0 6.144-.601 9.018-1.787.617-.255 1.32-.185 1.875.187.555.371.888.995.888 1.662v11.625c0 .81-.488 1.54-1.237 1.849-3.361 1.386-6.908 2.089-10.544 2.089zm-25.472-36.561h7.44c1.104 0 2 .896 2 2v19.292c0 6.213 5.055 11.268 11.269 11.268h4.764c2.667 0 5.278-.442 7.78-1.315v-7.425c-2.521.741-5.127 1.115-7.78 1.115h-1.604c-3.751 0-6.803-3.052-6.803-6.803v-16.132c0-1.104.896-2 2-2h13.015v-7.625h-13.015c-1.104 0-2-.896-2-2v-12.428h-7.625v5.422c0 4.966-4.04 9.006-9.006 9.006h-.435z" fill="#690589"/></g><g><path d="m75.737 225.708h-32.45c-6.444 0-11.688-5.243-11.688-11.688v-32.45c0-6.444 5.243-11.688 11.688-11.688h32.45c6.444 0 11.688 5.243 11.688 11.688v32.45c0 6.445-5.243 11.688-11.688 11.688zm-32.45-51.825c-4.239 0-7.688 3.449-7.688 7.688v32.45c0 4.239 3.448 7.688 7.688 7.688h32.45c4.239 0 7.688-3.449 7.688-7.688v-32.45c0-4.239-3.448-7.688-7.688-7.688z" fill="#690589"/></g><g><path d="m59.512 211.638c-7.633 0-13.842-6.209-13.842-13.842s6.209-13.842 13.842-13.842 13.843 6.209 13.843 13.842-6.21 13.842-13.843 13.842zm0-23.684c-5.427 0-9.842 4.415-9.842 9.842s4.415 9.842 9.842 9.842c5.428 0 9.843-4.415 9.843-9.842s-4.416-9.842-9.843-9.842z" fill="#690589"/></g><g><path d="m74.634 179.395c1.811 0 3.279 1.468 3.279 3.279 0 1.811-1.468 3.279-3.279 3.279-1.811 0-3.279-1.468-3.279-3.279-.001-1.811 1.467-3.279 3.279-3.279z" fill="#690589"/></g><g><path d="m194.223 118.182c0-36.575-29.649-66.224-66.223-66.224s-66.224 29.649-66.224 66.224c0 32.666 23.658 59.789 54.771 65.216l3.113 5.392 8.34 14.444 8.339-14.444 3.113-5.392c31.113-5.427 54.771-32.55 54.771-65.216z" fill="#fcc24c"/></g><g><g><path d="m128 51.958c-1.943 0-3.861.101-5.762.265 35.018 2.963 62.521 32.306 62.521 68.091 0 27.106-15.788 50.504-38.663 61.552 27.772-7.875 48.126-33.389 48.126-63.685.001-36.573-29.648-66.223-66.222-66.223z" fill="#dea42e"/></g></g><g><g><path d="m128 51.958c1.943 0 3.861.101 5.762.265-35.019 2.964-62.522 32.307-62.522 68.092 0 27.106 15.788 50.504 38.663 61.552-27.772-7.875-48.127-33.389-48.127-63.685 0-36.574 29.65-66.224 66.224-66.224z" fill="#fce06a"/></g></g><g><path d="m90.137 127.112h6.458v-26.169h-6.458c-7.226 0-13.084 5.858-13.084 13.084 0 7.227 5.858 13.085 13.084 13.085z" fill="#f4efed"/></g><g><path d="m133.412 99.11 34.006-18.019v65.873l-34.006-18.019z" fill="#f4efed"/></g><g><path d="m115.004 165.873c-3.167 0-5.735-2.568-5.735-5.735v-41.943h11.471v41.943c-.001 3.168-2.569 5.735-5.736 5.735z" fill="#f4efed"/></g><g><path d="m115.004 167.874c-4.266 0-7.735-3.47-7.735-7.735v-41.943c0-1.104.896-2 2-2h11.471c1.104 0 2 .896 2 2v41.943c-.001 4.264-3.47 7.735-7.736 7.735zm-3.735-47.679v39.943c0 2.06 1.676 3.735 3.735 3.735s3.735-1.676 3.735-3.735v-39.943z" fill="#690589"/></g><g><path d="m127.999 133.516h-25.991c-2.989 0-5.413-2.424-5.413-5.413v-28.151c0-2.99 2.423-5.413 5.413-5.413h25.991c2.99 0 5.413 2.424 5.413 5.413v28.151c0 2.99-2.423 5.413-5.413 5.413z" fill="#8852a8"/></g><g><path d="m169.759 121.096h-2.341v-14.136h2.341c3.904 0 7.068 3.164 7.068 7.068 0 3.903-3.165 7.068-7.068 7.068z" fill="#f4efed"/></g><g><path d="m169.759 123.096h-2.341c-1.104 0-2-.896-2-2v-14.136c0-1.104.896-2 2-2h2.341c5 0 9.068 4.068 9.068 9.068s-4.068 9.068-9.068 9.068zm-.341-4h.341c2.795 0 5.068-2.273 5.068-5.068s-2.273-5.068-5.068-5.068h-.341z" fill="#690589"/></g><g><path d="m167.418 148.964c-.321 0-.643-.077-.937-.233l-34.006-18.02c-.654-.347-1.063-1.026-1.063-1.767v-29.834c0-.741.409-1.42 1.063-1.767l34.006-18.019c.619-.329 1.367-.309 1.968.054.602.361.969 1.012.969 1.713v65.873c0 .702-.367 1.352-.969 1.713-.316.192-.674.287-1.031.287zm-32.006-21.223 30.006 15.9v-59.226l-30.006 15.899z" fill="#690589"/></g><g><path d="m96.595 129.112h-6.457c-8.318 0-15.085-6.767-15.085-15.084s6.767-15.084 15.085-15.084h6.457c1.104 0 2 .896 2 2v26.168c0 1.104-.896 2-2 2zm-6.457-26.169c-6.112 0-11.085 4.973-11.085 11.084s4.973 11.084 11.085 11.084h4.457v-22.168z" fill="#690589"/></g><g><path d="m127.999 135.516h-25.991c-4.088 0-7.413-3.326-7.413-7.413v-28.15c0-4.088 3.325-7.414 7.413-7.414h25.991c4.088 0 7.413 3.326 7.413 7.414v28.15c0 4.087-3.325 7.413-7.413 7.413zm-25.991-38.977c-1.882 0-3.413 1.531-3.413 3.414v28.15c0 1.882 1.531 3.413 3.413 3.413h25.991c1.882 0 3.413-1.531 3.413-3.413v-28.15c0-1.882-1.531-3.414-3.413-3.414z" fill="#690589"/></g><g><path d="m128 205.235c-.715 0-1.375-.381-1.732-1l-10.988-19.034c-32.218-6.071-55.503-34.106-55.503-67.019 0-37.619 30.605-68.224 68.224-68.224s68.224 30.605 68.224 68.224c0 32.912-23.285 60.948-55.503 67.019l-10.988 19.034c-.359.619-1.019 1-1.734 1zm0-151.277c-35.413 0-64.224 28.811-64.224 64.224 0 31.278 22.338 57.877 53.115 63.246.584.102 1.092.457 1.389.97l9.72 16.836 9.72-16.836c.297-.513.805-.869 1.389-.97 30.777-5.369 53.115-31.968 53.115-63.246 0-35.413-28.811-64.224-64.224-64.224z" fill="#690589"/></g></g></svg>