<svg id="Layer_1" enable-background="new 0 0 512 512" height="512" viewBox="0 0 512 512" width="512" xmlns="http://www.w3.org/2000/svg"><g clip-rule="evenodd" fill-rule="evenodd"><path d="m348.01 242.95h130.99c14.51 0 26.39-11.88 26.39-26.39v-37.9c0-35.38-28.91-64.29-64.29-64.29h-55.16c-35.38 0-64.32 28.91-64.32 64.29v37.9c0 14.52 11.88 26.39 26.39 26.39z" fill="#4596e6"/><path d="m413.52 90.76c25 0 45.38-20.38 45.38-45.38s-20.38-45.38-45.38-45.38-45.38 20.38-45.38 45.38 20.38 45.38 45.38 45.38z" fill="#fbbd80"/><path d="m87.11 242.95h130.99c14.54 0 26.42-11.88 26.42-26.39v-37.9c0-35.38-28.94-64.29-64.32-64.29h-55.16c-35.38 0-64.32 28.91-64.32 64.29v37.9c0 14.52 11.88 26.39 26.39 26.39z" fill="#4596e6"/><path d="m152.62 90.76c25 0 45.38-20.38 45.38-45.38s-20.38-45.38-45.38-45.38-45.38 20.38-45.38 45.38 20.38 45.38 45.38 45.38z" fill="#fbbd80"/><path d="m217.56 285.42h130.99c14.51 0 26.39-11.88 26.39-26.42v-37.9c0-35.35-28.91-64.29-64.29-64.29h-55.16c-35.38 0-64.32 28.94-64.32 64.29v37.9c0 14.54 11.88 26.42 26.39 26.42z" fill="#50b9ff"/><path d="m283.07 133.22c25 0 45.38-20.38 45.38-45.38s-20.38-45.38-45.38-45.38-45.38 20.38-45.38 45.38 20.38 45.38 45.38 45.38z" fill="#fbbd80"/><path d="m41.19 428.68 27.3 5.81c105.9 11.23 161.52 131.47 327.88 10.09l64.12-13.72-27.35-141.11-52.5 11.22c-100.35-57.97-180.6-22.93-254.04-1.02l-28.06-5.98-25.94-5.56z" fill="#ffdaa2"/><g fill="#fbbd80"><path d="m433.14 289.75-52.5 11.22c-44.39-26.9-97.82-39.6-166.85-25.82l-52.81 49.24c-39.66 36.65 28.29 41.05 72.62-3.17 33.22 63.44 117.98 65.4 162.77 123.36l64.12-13.72z"/><path d="m136.92 465.19 26.48-23.36c8.28-7.31 9.07-20.07 1.76-28.37-7.31-8.28-20.07-9.1-28.37-1.79l-26.45 23.36c-8.31 7.31-9.1 20.07-1.79 28.38 7.31 8.27 20.06 9.09 28.37 1.78z"/><path d="m183.72 477.52 26.45-23.33c8.31-7.31 9.1-20.07 1.79-28.38-7.31-8.31-20.07-9.1-28.37-1.79l-26.45 23.33c-8.31 7.31-9.1 20.1-1.79 28.38 7.31 8.31 20.06 9.1 28.37 1.79z"/><path d="m221.64 497.7 26.45-23.36c8.31-7.31 9.1-20.07 1.79-28.38-7.31-8.28-20.07-9.1-28.37-1.79l-26.45 23.36c-8.31 7.31-9.1 20.07-1.79 28.37 7.31 8.29 20.07 9.12 28.37 1.8z"/><path d="m252.63 470.35-7.34 6.49c-8.28 7.31-9.1 20.07-1.79 28.37 7.31 8.31 20.1 9.1 28.37 1.79l7.37-6.49c8.28-7.31 9.07-20.07 1.76-28.38-7.31-8.27-20.07-9.09-28.37-1.78z"/></g><path d="m30.65 279.46 67.89 14.52-30.05 140.51-67.86-14.48z" fill="#0593fc"/><path d="m481.33 279.46-67.87 14.52 30.02 140.51 67.89-14.48z" fill="#0593fc"/><path d="m152.62 0c1.76 0 3.51.11 5.22.31-22.59 2.58-40.17 21.77-40.17 45.07s17.57 42.52 40.17 45.1c-1.7.2-3.46.31-5.22.31-25.06 0-45.38-20.32-45.38-45.41 0-25.06 20.32-45.38 45.38-45.38z" fill="#e2aa73"/><path d="m283.07 42.46c1.76 0 3.51.08 5.22.28-22.59 2.61-40.17 21.8-40.17 45.1s17.57 42.49 40.17 45.07c-1.7.2-3.46.31-5.22.31-25.06 0-45.38-20.32-45.38-45.38s20.32-45.38 45.38-45.38z" fill="#e2aa73"/><path d="m413.52 0c1.76 0 3.52.11 5.22.31-22.59 2.58-40.17 21.77-40.17 45.07s17.57 42.52 40.17 45.1c-1.7.2-3.46.31-5.22.31-25.06 0-45.38-20.32-45.38-45.41 0-25.06 20.32-45.38 45.38-45.38z" fill="#e2aa73"/><path d="m211.52 275.64c-3.69-4.54-5.92-10.35-5.92-16.64v-37.9c0-35.35 28.94-64.29 64.29-64.29h-14.4c-35.38 0-64.32 28.94-64.32 64.29v37.9c0 7.63 3.29 14.54 8.5 19.36 3.92-.97 7.89-1.87 11.85-2.72z" fill="#48a7e6"/><path d="m87.14 242.95h14.4c-14.51 0-26.39-11.88-26.39-26.39v-37.9c0-35.38 28.94-64.29 64.29-64.29h-14.4c-35.38 0-64.32 28.91-64.32 64.29v37.9c0 14.52 11.88 26.39 26.42 26.39z" fill="#3e87cf"/><path d="m338.01 162.96c7.06-27.84 32.4-48.59 62.33-48.59h-14.4c-28.32 0-52.5 18.51-61.03 44.05 4.56 1.05 8.96 2.58 13.1 4.54z" fill="#3e87cf"/><path d="m30.65 279.46 15.36 3.29-30.05 140.52-15.33-3.26z" fill="#0584e3"/></g></svg>