<svg clip-rule="evenodd" fill-rule="evenodd" height="512" image-rendering="optimizeQuality" shape-rendering="geometricPrecision" text-rendering="geometricPrecision" viewBox="0 0 1706.66 1706.66" width="512" xmlns="http://www.w3.org/2000/svg" xmlns:xodm="http://www.corel.com/coreldraw/odm/2003"><g id="Layer_x0020_1"><path d="m40.02 1649.77h1626.62v-52.81h-1626.62z"/><path d="m116.55 1596.98c-11.04 0-20-8.97-20-20v-341.77c0-11.04 8.96-20 20-20h481c25.06 0 26.26 36.26 3.6 39.73v324.1l-3.42 3.33h-461.92c-2.36 8.41-10.09 14.6-19.26 14.6z" fill="#ff5329"/><path d="m1590.11 1596.98c-9.87 0-18.08-7.17-19.71-16.58h-470.48c-1.84 0-3.33-1.5-3.33-3.33v-469.71c-23.22-2.98-22.2-39.8 3.06-39.8h490.47c11.04 0 20 8.97 20 20v489.43c0 11.03-8.96 20-20 20z" fill="#ffb800"/><path d="m357.05 1509.4c-60.57 0-80.63-81.65-41.67-81.65 30.87 0 9.15 41.65 41.67 41.65 28.53 0 28.51-43.32 0-43.32-26.32 0-26.32-40 0-40 28.52 0 28.52-43.32 0-43.32-32.53 0-10.79 41.65-41.67 41.65-38.96 0-18.91-81.65 41.67-81.65 53.59 0 81.48 64.02 45.42 103.32 36.07 39.3 8.16 103.32-45.42 103.32z" fill="#fff"/><path d="m1293.94 1436.65c-16.87 0-26.19-19.83-15.37-32.8 20.69-24.81 76.35-79.92 76.35-103.6 0-42.55-50.19-42.56-50.19 0 0 26.33-40 26.32-40 0 0-95.38 130.22-95.38 130.22 0 0 28.02-24.11 59.91-55.5 95.41 40.77-.9 84.94-10.19 85.57 18.12.25 11.04-8.52 20.18-19.56 20.43z" fill="#fff"/><path d="m1099.63 1596.98c-6.24 0-11.82-2.88-15.49-7.37h-470.78c-10.24 12.62-35.82 8.41-35.82-12.65v-613.08c0-11.04 8.96-20 20-20h502.09c11.04 0 20 8.97 20 20v613.09c.02 11.02-8.96 20-20 20z" fill="#5684b9"/><path d="m1686.64 1689.78h-1666.62c-11.04 0-20-8.97-20-20v-92.82c0-11.04 8.96-20 20-20h1666.62c11.04 0 20 8.97 20 20v92.82c0 11.04-8.96 20-20 20z" fill="#75471a"/><path d="m862.53 1374.82c-11.04 0-20-8.97-20-20v-122.48c-19.98 8.65-37.59-16.98-22.02-32.53 18.71-18.69 32.35-39.42 49.68-32.24 7.47 3.1 12.36 10.39 12.36 18.47v168.76c0 11.04-8.98 20.02-20.02 20.02z" fill="#fff"/><path d="m803.47 837.5c-7.96 0-15.28-4.77-18.41-12.24l-38.24-90.69-75.12 59.9c-15.65 12.46-38.07-3.67-31.26-22.46l83.22-229.26c4.44-12.24 16.4-16.21 27.81-10.77l81.39 36.96c12.69-8.67 34.99.06 31.47 19.93l-41.14 232.1c-1.69 9.54-10 16.52-19.71 16.52z" fill="#db1a1a"/><path d="m903.19 837.5c-9.69 0-18.02-7-19.71-16.52l-41.15-232.11c-2.76-15.52 10.21-24.23 22.07-23.19l83.94-28.41c8.79-10.41 28.5-11.54 34.67 5.46l83.2 229.27c6.84 18.85-15.56 34.98-31.26 22.46l-75.11-59.9-38.24 90.69c-3.15 7.48-10.46 12.24-18.41 12.24z" fill="#db1a1a"/><path d="m853.33 607.34c-24.31 0-43.15-26.41-65.85-49.11-91.13 24.39-89.66 25.17-114.04-65.87-31.65-8.48-92.54-14.36-79.51-63.03l13.65-51.01c-66.88-66.88-66.87-64.79 0-131.67-8.47-31.66-33.81-87.34 14.86-100.37l51-13.67c8.61-32.14 14.75-92.5 63.03-79.52l51.01 13.67c66.53-66.53 65.17-66.5 131.68.02 91.13-24.42 89.67-25.18 114.06 65.86 31.65 8.48 92.54 14.36 79.51 63.03l-13.65 51.01c66.88 66.88 66.87 64.79 0 131.67 8.47 31.66 33.81 87.34-14.86 100.37l-51 13.67c-8.6 32.11-14.76 92.52-63.03 79.51l-51.01-13.65c-22.72 22.71-41.53 49.09-65.84 49.09z" fill="#fb626b"/><path d="m853.33 503.11c-105.1 0-190.62-85.52-190.62-190.61 0-105.1 85.52-190.62 190.62-190.62s190.61 85.52 190.61 190.62-85.52 190.61-190.61 190.61z" fill="#ffd08c"/><path d="m853.33 475.29c-89.76 0-162.8-73.04-162.8-162.8s73.04-162.8 162.8-162.8 162.8 73.04 162.8 162.8-73.04 162.8-162.8 162.8z" fill="#fff"/><g fill="#4a5254"><path d="m853.93 412.11c-11.04 0-20-8.97-20-20v-110.17c-19.34 14.91-43.74-12.05-26.55-29.76 20.87-21.52 36-45.11 54.07-37.81 7.54 3.07 12.49 10.4 12.49 18.54v159.22c-.01 11.02-8.96 20-20.01 20z"/><path d="m884.94 412.11c-39.71 0-82.04 8.13-82.04-20s42.35-20 82.04-20c26.32 0 26.33 40 0 40z"/></g></g></svg>