<svg enable-background="new 0 0 512 512" height="512" viewBox="0 0 512 512" width="512" xmlns="http://www.w3.org/2000/svg"><g id="_x30_4_Customer_satisfaction"><g><path d="m394.212 372.53h99.553c9.308 0 16.856-7.817 16.239-17.105-5.191-78.139-45.689-146.599-105.641-189.691l-76.584 107.054c27.38 19.746 46.334 50.46 50.352 85.698.919 8.067 7.961 14.044 16.081 14.044z" fill="#44b19a"/><path d="m18.235 372.53h99.553c8.12 0 15.162-5.976 16.082-14.044 4.018-35.237 22.971-65.951 50.351-85.697l-76.585-107.054c-59.952 43.092-100.448 111.552-105.639 189.69-.617 9.287 6.93 17.105 16.238 17.105z" fill="#f65e5e"/><path d="m327.778 272.788 76.584-107.054c-41.782-30.031-92.988-47.774-148.362-47.774-55.375 0-106.582 17.743-148.364 47.775l76.585 107.054c20.204-14.571 44.985-23.185 71.779-23.185 26.793 0 51.574 8.613 71.778 23.184z" fill="#fdbb48"/><ellipse cx="256" cy="183.778" fill="#cfe9ff" rx="34.69" ry="34.69" transform="matrix(.707 -.707 .707 .707 -54.97 234.847)"/><g><path d="m255.984 206.887c-5.853 0-11.35-2.277-15.486-6.413-1.163-1.163-1.163-3.047 0-4.21s3.047-1.163 4.21 0c3.012 3.01 7.016 4.669 11.276 4.669h.012c4.268-.004 8.28-1.667 11.296-4.685 1.163-1.163 3.047-1.163 4.21 0s1.163 3.047 0 4.21c-4.14 4.14-9.644 6.423-15.498 6.429-.008 0-.016 0-.02 0z" fill="#626b72"/></g><g><path d="m244.507 177.9h-2.539c-1.644 0-2.977-1.333-2.977-2.977s1.333-2.977 2.977-2.977h2.539c1.644 0 2.977 1.333 2.977 2.977 0 1.643-1.334 2.977-2.977 2.977z" fill="#626b72"/></g><g><path d="m270.032 177.9h-2.539c-1.644 0-2.977-1.333-2.977-2.977s1.333-2.977 2.977-2.977h2.539c1.644 0 2.977 1.333 2.977 2.977 0 1.643-1.333 2.977-2.977 2.977z" fill="#626b72"/></g><ellipse cx="82.003" cy="300.897" fill="#cfe9ff" rx="34.69" ry="34.69" transform="matrix(.707 -.707 .707 .707 -188.748 146.116)"/><g><path d="m81.988 323.996c-5.609 0-11.218-2.132-15.49-6.402-1.163-1.161-1.163-3.047 0-4.21s3.047-1.163 4.21 0c6.225 6.22 16.362 6.214 22.587-.017 1.163-1.163 3.047-1.163 4.21 0s1.163 3.047 0 4.21c-4.279 4.28-9.9 6.419-15.517 6.419z" fill="#626b72"/></g><g><path d="m70.51 295.019h-2.539c-1.644 0-2.977-1.333-2.977-2.977s1.333-2.977 2.977-2.977h2.539c1.644 0 2.977 1.333 2.977 2.977s-1.333 2.977-2.977 2.977z" fill="#626b72"/></g><g><path d="m96.036 295.019h-2.539c-1.644 0-2.977-1.333-2.977-2.977s1.333-2.977 2.977-2.977h2.539c1.644 0 2.977 1.333 2.977 2.977s-1.334 2.977-2.977 2.977z" fill="#626b72"/></g><ellipse cx="429.995" cy="300.897" fill="#cfe9ff" rx="34.69" ry="34.69" transform="matrix(.707 -.707 .707 .707 -86.824 392.183)"/><g><path d="m429.977 324.006c-5.853 0-11.35-2.275-15.486-6.411-1.163-1.163-1.163-3.047 0-4.21s3.047-1.163 4.21 0c3.012 3.01 7.016 4.667 11.276 4.667h.016c4.268-.004 8.28-1.667 11.296-4.685 1.163-1.163 3.047-1.163 4.21 0s1.163 3.047 0 4.21c-4.14 4.14-9.644 6.423-15.501 6.429-.006 0-.013 0-.021 0z" fill="#626b72"/></g><g><path d="m418.503 295.019h-2.543c-1.644 0-2.977-1.333-2.977-2.977s1.333-2.977 2.977-2.977h2.543c1.644 0 2.977 1.333 2.977 2.977s-1.333 2.977-2.977 2.977z" fill="#626b72"/></g><g><path d="m444.029 295.019h-2.543c-1.644 0-2.977-1.333-2.977-2.977s1.333-2.977 2.977-2.977h2.543c1.644 0 2.977 1.333 2.977 2.977s-1.334 2.977-2.977 2.977z" fill="#626b72"/></g><path d="m266.636 391.129c-9.966 5.879-22.796 2.569-28.66-7.371s-2.554-22.771 7.411-28.649c6.643-3.919 80.01-36.356 127.954-57.445 5.868-2.581 10.561 5.374 5.463 9.261-41.647 31.761-105.525 80.285-112.168 84.204z" fill="#4d5760"/><path d="m264.247 373.119c0 4.563-3.695 8.258-8.247 8.258s-8.247-3.695-8.247-8.258c0-4.552 3.695-8.247 8.247-8.247s8.247 3.696 8.247 8.247z" fill="#e6f5ff"/></g></g></svg>