<svg id="Layer_1" enable-background="new 0 0 66 66" height="512" viewBox="0 0 66 66" width="512" xmlns="http://www.w3.org/2000/svg"><g id="XMLID_1322_"><g id="XMLID_1323_"><g id="XMLID_1324_" fill="#515151"><path id="XMLID_1325_" d="m54.316 26.927h-.761c-.21 0-.381.171-.381.381s.17.381.381.381h.761c.21 0 .381-.171.381-.381-.001-.21-.171-.381-.381-.381z"/><path id="XMLID_1326_" d="m42.896 26.927h-1.523c-.21 0-.381.171-.381.381s.17.381.381.381h1.523c.21 0 .381-.171.381-.381s-.17-.381-.381-.381z"/><path id="XMLID_1327_" d="m39.851 26.927h-1.522c-.21 0-.381.171-.381.381s.17.381.381.381h1.522c.21 0 .381-.171.381-.381s-.17-.381-.381-.381z"/><path id="XMLID_1328_" d="m36.806 26.927h-1.523c-.21 0-.381.171-.381.381s.17.381.381.381h1.523c.21 0 .381-.171.381-.381s-.17-.381-.381-.381z"/><path id="XMLID_1329_" d="m48.987 26.927h-1.522c-.21 0-.381.171-.381.381s.17.381.381.381h1.522c.21 0 .381-.171.381-.381s-.171-.381-.381-.381z"/><path id="XMLID_1330_" d="m45.942 26.927h-1.523c-.21 0-.381.171-.381.381s.17.381.381.381h1.523c.21 0 .381-.171.381-.381s-.171-.381-.381-.381z"/><path id="XMLID_1331_" d="m52.032 26.927h-1.523c-.21 0-.381.171-.381.381s.17.381.381.381h1.523c.21 0 .381-.171.381-.381s-.171-.381-.381-.381z"/><path id="XMLID_1332_" d="m33.895 26.952c.161-.329-.196-.685-.531-.488-.091-.396-.629-.388-.731-.017-.324-.176-.69.169-.516.506-.15.052-.258.189-.258.356 0 .21.17.381.381.381h.76.761c.21 0 .381-.171.381-.381 0-.164-.103-.303-.247-.357z"/><path id="XMLID_1334_" d="m36.156 24.847c.152-.144.159-.385.015-.538s-.385-.16-.538-.015l-1.171 1.107c-.152.145-.159.385-.015.538.146.154.386.158.538.015z"/><path id="XMLID_1335_" d="m38.514 22.094c-.144-.152-.385-.16-.538-.015l-1.172 1.107c-.152.145-.159.385-.015.538.146.154.386.159.538.015l1.172-1.107c.152-.144.159-.385.015-.538z"/><path id="XMLID_1336_" d="m44.353 17.097 1.172-1.107c.152-.144.159-.385.015-.538s-.385-.16-.538-.015l-1.172 1.107c-.152.145-.159.385-.015.538.146.153.386.159.538.015z"/><path id="XMLID_1337_" d="m40.317 19.865-1.171 1.107c-.152.144-.159.385-.015.538.146.154.386.159.538.015l1.171-1.107c.152-.144.159-.385.015-.538s-.385-.16-.538-.015z"/><path id="XMLID_1338_" d="m42.659 17.651-1.171 1.107c-.152.145-.159.385-.015.538.147.155.389.157.538.015l1.171-1.107c.152-.145.159-.385.015-.538-.145-.153-.386-.16-.538-.015z"/><path id="XMLID_1339_" d="m47.264 13.821c-.145-.152-.385-.159-.538-.015l-.553.523c-.152.145-.159.385-.015.538.146.155.387.158.538.015l.553-.523c.152-.144.159-.386.015-.538z"/><path id="XMLID_1340_" d="m33 6.759c.21 0 .381-.17.381-.381v-.761c0-.21-.17-.381-.381-.381s-.381.17-.381.381v.761c0 .211.171.381.381.381z"/><path id="XMLID_1341_" d="m33 25.376c.21 0 .381-.171.381-.381v-1.552c0-.21-.17-.381-.381-.381s-.381.171-.381.381v1.552c0 .211.171.381.381.381z"/><path id="XMLID_1342_" d="m33 12.965c.21 0 .381-.17.381-.381v-1.551c0-.21-.17-.381-.381-.381s-.381.17-.381.381v1.551c0 .21.171.381.381.381z"/><path id="XMLID_1343_" d="m33 22.273c.21 0 .381-.17.381-.381v-1.552c0-.21-.17-.381-.381-.381s-.381.171-.381.381v1.552c0 .211.171.381.381.381z"/><path id="XMLID_1344_" d="m33 9.862c.21 0 .381-.171.381-.381v-1.551c0-.21-.17-.381-.381-.381s-.381.17-.381.381v1.551c0 .21.171.381.381.381z"/><path id="XMLID_1345_" d="m33 16.068c.21 0 .381-.171.381-.381v-1.552c0-.21-.17-.381-.381-.381s-.381.171-.381.381v1.552c0 .21.171.381.381.381z"/><path id="XMLID_1346_" d="m33 19.171c.21 0 .381-.171.381-.381v-1.551c0-.21-.17-.381-.381-.381s-.381.17-.381.381v1.551c0 .21.171.381.381.381z"/><path id="XMLID_1347_" d="m24.143 19.31c.149.144.39.143.538-.01.146-.151.141-.392-.01-.538l-1.149-1.107c-.15-.145-.391-.141-.538.01-.146.151-.141.393.01.538z"/><path id="XMLID_1348_" d="m26.98 21.512c.146-.151.141-.392-.01-.538l-1.149-1.107c-.151-.145-.391-.142-.538.01-.146.151-.141.392.01.538l1.149 1.106c.149.146.39.144.538-.009z"/><path id="XMLID_1349_" d="m29.278 23.725c.146-.151.141-.392-.01-.538l-1.149-1.106c-.15-.145-.391-.141-.538.01-.146.152-.141.393.01.538l1.149 1.107c.149.144.39.142.538-.011z"/><path id="XMLID_1350_" d="m30.417 24.293c-.15-.145-.391-.142-.538.01-.146.152-.141.393.01.538l1.149 1.106c.149.144.39.143.538-.01.146-.151.141-.392-.01-.538z"/><path id="XMLID_1351_" d="m21.224 15.442c-.15-.145-.391-.141-.538.01-.146.151-.141.392.01.538l1.149 1.106c.15.145.39.143.538-.01.146-.152.141-.393-.01-.538z"/><path id="XMLID_1352_" d="m20.085 14.874c.146-.151.141-.392-.01-.538l-.549-.528c-.15-.145-.391-.141-.538.01-.146.151-.141.392.01.538l.549.528c.149.145.39.143.538-.01z"/><path id="XMLID_1353_" d="m30.724 26.927h-1.515c-.21 0-.381.171-.381.381s.17.381.381.381h1.515c.21 0 .381-.171.381-.381-.001-.21-.171-.381-.381-.381z"/><path id="XMLID_1354_" d="m27.694 26.927h-1.515c-.21 0-.381.171-.381.381s.17.381.381.381h1.515c.21 0 .381-.171.381-.381s-.17-.381-.381-.381z"/><path id="XMLID_1355_" d="m15.575 26.927h-1.515c-.21 0-.381.171-.381.381s.17.381.381.381h1.515c.21 0 .381-.171.381-.381s-.17-.381-.381-.381z"/><path id="XMLID_1356_" d="m18.605 26.927h-1.515c-.21 0-.381.171-.381.381s.17.381.381.381h1.514c.21 0 .381-.171.381-.381s-.17-.381-.38-.381z"/><path id="XMLID_1357_" d="m24.664 26.927h-1.515c-.21 0-.381.171-.381.381s.17.381.381.381h1.515c.21 0 .381-.171.381-.381s-.171-.381-.381-.381z"/><path id="XMLID_1358_" d="m21.635 26.927h-1.515c-.21 0-.381.171-.381.381s.17.381.381.381h1.515c.21 0 .381-.171.381-.381-.001-.21-.171-.381-.381-.381z"/><path id="XMLID_1359_" d="m12.546 26.927h-.761c-.21 0-.381.171-.381.381s.17.381.381.381h.761c.21 0 .381-.171.381-.381-.001-.21-.171-.381-.381-.381z"/></g><circle id="XMLID_1360_" cx="33" cy="27.308" fill="#ed7161" r="7.247"/><circle id="XMLID_1362_" cx="46.987" cy="14.082" fill="#f06eaa" r="3.49"/><circle id="XMLID_1363_" cx="19.262" cy="14.082" fill="#f06eaa" r="3.49"/><g id="XMLID_1364_"><circle id="XMLID_1365_" cx="53.945" cy="27.308" fill="#88c057" r="4.985"/><circle id="XMLID_1366_" cx="12.055" cy="27.308" fill="#1fadfc" r="4.985"/></g><circle id="XMLID_1367_" cx="33" cy="5.985" fill="#bf8e5f" r="4.985"/></g><g id="XMLID_1368_"><path d="m44.465 36.304c-1.056 0-1.912.856-1.912 1.912v-1.299c0-1.056-.856-1.912-1.912-1.912s-1.912.856-1.912 1.912v-1.108c0-1.056-.856-1.912-1.912-1.912s-1.912.856-1.912 1.912v-9.092c0-1.056-.856-1.912-1.912-1.912s-1.912.856-1.912 1.912v17.491l-1.819-2.187c-.819-.984-2.28-1.118-3.264-.3-.984.819-1.118 2.28-.3 3.264 6.366 7.655 4.785 5.564 7.687 9.977h11.724l1.265-13.243v-3.502c.003-1.057-.853-1.913-1.909-1.913z" fill="#fc6"/><path id="XMLID_1369_" d="m45.371 54.532h-13.063c-.296 0-.536.24-.536.537v3.244c0 .296.24.537.536.537h13.062c.296 0 .537-.241.537-.537v-3.244c0-.297-.24-.537-.536-.537z" fill="#e6e6e6"/><path d="m46.111 56.196h-14.149c-.45 0-.815.365-.815.815v7.174c0 .45.365.815.815.815h14.149c.45 0 .815-.365.815-.815v-7.174c0-.45-.365-.815-.815-.815z" fill="#666"/></g></g></svg>