<svg id="Flat" height="512" viewBox="0 0 128 128" width="512" xmlns="http://www.w3.org/2000/svg"><g id="Color"><rect fill="#03a9f4" height="69" rx="12" width="125" x="1.5" y="57.5"/><rect fill="#eceff1" height="107" rx="6" transform="matrix(0 1 -1 0 156 28)" width="51" x="38.5" y="38.5"/><g fill="#ffb300"><path d="m114.879 11.05-5.657 5.657a3 3 0 1 0 4.242 4.243l5.657-5.657a3 3 0 0 0 -4.242-4.243z"/><path d="m114.879 46.95-5.657-5.657a3 3 0 1 1 4.242-4.243l5.657 5.657a3 3 0 1 1 -4.242 4.243z"/><path d="m13.121 11.05 5.657 5.657a3 3 0 0 1 -4.242 4.243l-5.657-5.657a3 3 0 1 1 4.242-4.243z"/><path d="m13.121 46.95 5.657-5.657a3 3 0 1 0 -4.242-4.243l-5.657 5.657a3 3 0 1 0 4.242 4.243z"/><path d="m69.111 7.31 7.589 12.335a6 6 0 0 0 3.7 2.688l14.075 3.4a6 6 0 0 1 3.159 9.721l-9.389 11.031a6 6 0 0 0 -1.413 4.35l1.112 14.438a6 6 0 0 1 -8.269 6.008l-13.388-5.52a6 6 0 0 0 -4.574 0l-13.388 5.52a6 6 0 0 1 -8.269-6.008l1.112-14.438a6 6 0 0 0 -1.413-4.35l-9.387-11.027a6 6 0 0 1 3.159-9.721l14.075-3.4a6 6 0 0 0 3.7-2.688l7.587-12.339a6 6 0 0 1 10.222 0z"/></g><path d="m78.28 21.35-14.28 19.66v-36.56a5.937 5.937 0 0 1 5.11 2.86l7.59 12.33a6.02 6.02 0 0 0 1.58 1.71z" fill="#ffa000"/><path d="m64 41.01-21.49 29.57a5.939 5.939 0 0 1 -2.45-5.31l1.11-14.44a6 6 0 0 0 -.28-2.31z" fill="#ffa000"/><path d="m97.63 35.46-9.38 11.02a6.045 6.045 0 0 0 -1.14 2.04l-23.11-7.51 34.76-11.3a5.933 5.933 0 0 1 -1.13 5.75z" fill="#ffa000"/><path d="m49.72 21.35 14.28 19.66-34.76-11.3a5.917 5.917 0 0 1 4.29-3.97l14.07-3.41a6.041 6.041 0 0 0 2.12-.98z" fill="#ffa000"/><path d="m85.48 70.58a5.916 5.916 0 0 1 -5.81.7l-13.38-5.52a6.029 6.029 0 0 0 -2.29-.45v-24.3z" fill="#ffa000"/><path d="m58.5 103.5a1.5 1.5 0 0 0 1.5-1.5v-7.5h8v7.5a1.5 1.5 0 0 0 3 0v-14.5a7 7 0 0 0 -14 0v14.5a1.5 1.5 0 0 0 1.5 1.5zm1.5-16a4 4 0 0 1 8 0v4h-8z" fill="#0288d1"/><path d="m98 103.5h4.829a7.179 7.179 0 0 0 7.171-7.171v-8.658a7.179 7.179 0 0 0 -7.171-7.171h-4.829a3 3 0 0 0 -3 3v17a3 3 0 0 0 3 3zm0-20h4.829a4.176 4.176 0 0 1 4.171 4.171v8.658a4.176 4.176 0 0 1 -4.171 4.171h-4.829z" fill="#0288d1"/><path d="m27.724 80.5h-5.724a3 3 0 0 0 -3 3v17a3 3 0 0 0 3 3h5.724a6.283 6.283 0 0 0 6.276-6.276v-.448a6.26 6.26 0 0 0 -2.215-4.776 6.26 6.26 0 0 0 2.215-4.776v-.448a6.283 6.283 0 0 0 -6.276-6.276zm3.276 16.724a3.28 3.28 0 0 1 -3.276 3.276h-5.724v-7h5.724a3.28 3.28 0 0 1 3.276 3.276zm0-10a3.28 3.28 0 0 1 -3.276 3.276h-5.724v-7h5.724a3.28 3.28 0 0 1 3.276 3.276z" fill="#0288d1"/><path d="m77.5 103.5a1.5 1.5 0 0 0 1.5-1.5v-14.887l7.2 15.046a2 2 0 0 0 3.8-.859v-19.3a1.5 1.5 0 0 0 -3 0v14.887l-7.2-15.046a2 2 0 0 0 -3.8.859v19.3a1.5 1.5 0 0 0 1.5 1.5z" fill="#0288d1"/><path d="m38 83.5v18.5a1.5 1.5 0 0 0 3 0v-7.064l8.991 8.174a1.5 1.5 0 0 0 2.018-2.22l-8.129-7.39h2.62a6.5 6.5 0 0 0 0-13h-5.5a3 3 0 0 0 -3 3zm3 0h5.5a3.5 3.5 0 0 1 0 7h-5.5z" fill="#0288d1"/></g></svg>