<svg id="Layer_1" enable-background="new 0 0 64 64" height="512" viewBox="0 0 64 64" width="512" xmlns="http://www.w3.org/2000/svg"><g><path d="m55.71 23.15c-.31 0-.61.04-.89.12v-5.2c.28.08.58.13.89.13 1.89 0 3.42-1.54 3.42-3.43 0-1.88-1.53-3.41-3.42-3.41-.31 0-.61.04-.89.12v-2.62c0-.53-.44-.97-.97-.97h-2.6c.08-.28.12-.58.12-.89 0-1.89-1.53-3.42-3.42-3.42s-3.42 1.53-3.42 3.42c0 .31.04.61.12.89h-5.2c.08-.28.13-.58.13-.89 0-1.89-1.54-3.42-3.43-3.42-1.88 0-3.41 1.53-3.41 3.42 0 .31.04.61.12.89h-2.6c-.53 0-.97.44-.97.97 0 .01.01.02.01.02v4.32c0 .41.25.77.64.91.38.14.8.02 1.07-.29.28-.34.69-.52 1.13-.52.81 0 1.48.66 1.48 1.47 0 .82-.67 1.49-1.48 1.49-.44 0-.84-.19-1.13-.52-.26-.32-.69-.44-1.07-.3-.39.15-.64.5-.64.92v3.35h-10.87c-.53 0-.97.44-.97.97v2.6c-.29-.08-.59-.12-.9-.12-1.88 0-3.42 1.53-3.42 3.41 0 1.89 1.54 3.43 3.42 3.43.31 0 .61-.05.9-.13v2.61c0 .53.44.97.97.97h2.6c-.08.29-.12.59-.12.89 0 1.89 1.53 3.43 3.42 3.43 1.88 0 3.42-1.54 3.42-3.43 0-.3-.04-.6-.12-.89h5.19c-.08.29-.12.59-.12.89 0 1.89 1.53 3.43 3.41 3.43 1.89 0 3.43-1.54 3.43-3.43 0-.3-.05-.6-.13-.89h5.2c-.08.29-.12.59-.12.89 0 1.89 1.53 3.43 3.42 3.43s3.42-1.54 3.42-3.43c0-.3-.04-.6-.12-.89h2.6c.53 0 .97-.44.97-.97v-2.61c.32.08.62.13.93.13 1.89 0 3.42-1.54 3.42-3.42 0-1.89-1.53-3.43-3.42-3.43zm-12.71-13.32h3.36c.41 0 .77-.25.91-.64.14-.38.02-.8-.29-1.07-.34-.28-.52-.68-.52-1.12 0-.81.67-1.48 1.48-1.48s1.48.67 1.48 1.48c0 .44-.19.84-.52 1.13-.31.26-.43.69-.29 1.07.14.39.5.64.91.64h3.36v3.37c0 .41.25.77.64.91.38.14.8.02 1.07-.29.28-.34.69-.52 1.12-.52.81 0 1.48.66 1.48 1.47 0 .82-.67 1.49-1.48 1.49-.44 0-.84-.19-1.12-.52-.25-.32-.69-.44-1.07-.3-.39.15-.64.5-.64.92v3.35h-9.88v-1.63c.29.08.59.13.9.13 1.89 0 3.43-1.54 3.43-3.42 0-1.89-1.54-3.42-3.43-3.42-.31 0-.61.04-.9.12zm-11.79 8.24c.28.08.58.13.89.13 1.89 0 3.42-1.54 3.42-3.43 0-1.88-1.53-3.41-3.42-3.41-.31 0-.61.04-.89.12v-1.65h3.35c.41 0 .77-.25.91-.63.14-.39.02-.81-.29-1.08-.34-.28-.53-.69-.53-1.12 0-.81.66-1.48 1.47-1.48.82 0 1.49.67 1.49 1.48 0 .44-.19.84-.52 1.13-.32.26-.44.69-.3 1.07.15.39.5.64.92.64h3.35v3.37c0 .41.26.78.64.91.39.14.81.02 1.08-.29.28-.34.69-.52 1.13-.52.82 0 1.49.66 1.49 1.48 0 .81-.67 1.48-1.49 1.48-.44 0-.84-.19-1.13-.53-.26-.31-.69-.43-1.08-.29-.38.15-.64.5-.64.91v3.36h-9.85zm-1.3 9.18c-.39.14-.64.49-.64.91v3.36h-3.36c-.41 0-.78.25-.91.64-.14.38-.02.81.29 1.08.33.27.52.68.52 1.12 0 .82-.67 1.49-1.48 1.49-.82 0-1.48-.67-1.48-1.49 0-.45.18-.84.51-1.12.32-.26.44-.7.29-1.08-.14-.39-.49-.64-.91-.64h-3.34v-3.36c0-.42-.26-.78-.64-.91-.39-.15-.81-.03-1.08.28-.28.34-.69.53-1.12.53-.81 0-1.48-.67-1.48-1.49 0-.81.67-1.47 1.48-1.47.44 0 .84.18 1.12.52.26.31.69.43 1.08.29.38-.14.64-.5.64-.91v-3.36h9.87v3.36c0 .41.25.78.64.91.38.14.8.02 1.07-.29.28-.34.69-.52 1.13-.52.81 0 1.48.66 1.48 1.48 0 .81-.67 1.48-1.48 1.48-.44 0-.84-.19-1.13-.52-.26-.32-.69-.44-1.07-.29zm11.79 0c-.38.14-.64.49-.64.9v3.37h-3.35c-.42 0-.78.25-.92.64-.14.38-.02.81.3 1.08.33.27.52.68.52 1.12 0 .82-.67 1.49-1.49 1.49-.81 0-1.47-.67-1.47-1.49 0-.44.18-.84.52-1.12.31-.26.43-.7.29-1.08-.15-.39-.5-.64-.91-.64h-3.35v-1.64c.29.07.59.12.9.12 1.89 0 3.42-1.54 3.42-3.42 0-1.89-1.53-3.42-3.42-3.42-.31 0-.61.04-.89.12v-1.63h9.85v3.35c0 .41.26.78.64.91.39.14.81.02 1.08-.29.28-.34.69-.52 1.13-.52.82 0 1.49.66 1.49 1.47 0 .82-.67 1.49-1.49 1.49-.44 0-.84-.19-1.13-.53-.26-.31-.69-.43-1.08-.28zm14.01.81c-.44 0-.84-.19-1.12-.52-.26-.32-.69-.44-1.07-.29-.39.14-.64.49-.64.91v3.36h-3.36c-.41 0-.78.25-.91.64-.14.38-.02.81.29 1.08.33.27.52.68.52 1.12 0 .82-.67 1.49-1.48 1.49s-1.48-.67-1.48-1.49c0-.45.18-.84.52-1.12.31-.26.43-.7.29-1.08-.15-.39-.5-.64-.91-.64h-3.36v-1.64c.29.08.59.13.9.13 1.89 0 3.43-1.54 3.43-3.43 0-1.88-1.54-3.41-3.43-3.41-.31 0-.61.04-.9.12v-1.63h9.87v3.34c0 .41.25.78.64.91.38.14.81.02 1.07-.29.28-.34.69-.52 1.12-.52.81 0 1.48.66 1.48 1.48.01.81-.66 1.48-1.47 1.48z" fill="#2a2f64"/><path d="m57.19 26.58c0 .81-.67 1.48-1.48 1.48-.44 0-.84-.19-1.12-.52-.26-.32-.69-.44-1.07-.29-.39.14-.64.49-.64.91v3.36h-3.36c-.41 0-.78.25-.91.64-.14.38-.02.81.29 1.08.33.27.52.68.52 1.12 0 .82-.67 1.49-1.48 1.49s-1.48-.67-1.48-1.49c0-.45.18-.84.52-1.12.31-.26.43-.7.29-1.08-.15-.39-.5-.64-.91-.64h-3.36v-1.64c.29.08.59.13.9.13 1.89 0 3.43-1.54 3.43-3.43 0-1.88-1.54-3.41-3.43-3.41-.31 0-.61.04-.9.12v-1.63h9.87v3.34c0 .41.25.78.64.91.38.14.81.02 1.07-.29.28-.34.69-.52 1.12-.52.82-.01 1.49.65 1.49 1.48z" fill="#ececec"/><path d="m33.59 26.58c0 .81-.67 1.48-1.48 1.48-.44 0-.84-.19-1.13-.52-.26-.32-.69-.44-1.07-.29-.39.14-.64.49-.64.91v3.36h-3.36c-.41 0-.78.25-.91.64-.14.38-.02.81.29 1.08.33.27.52.68.52 1.12 0 .82-.67 1.49-1.48 1.49-.82 0-1.48-.67-1.48-1.49 0-.45.18-.84.51-1.12.32-.26.44-.7.29-1.08-.14-.39-.49-.64-.91-.64h-3.34v-3.36c0-.42-.26-.78-.64-.91-.39-.15-.81-.03-1.08.28-.28.34-.69.53-1.12.53-.81 0-1.48-.67-1.48-1.49 0-.81.67-1.47 1.48-1.47.44 0 .84.18 1.12.52.26.31.69.43 1.08.29.38-.14.64-.5.64-.91v-3.36h9.87v3.36c0 .41.25.78.64.91.38.14.8.02 1.07-.29.28-.34.69-.52 1.13-.52.81-.01 1.48.65 1.48 1.48z" fill="#ffdc7c"/><path d="m45.4 26.57c0 .82-.67 1.49-1.49 1.49-.44 0-.84-.19-1.13-.53-.26-.31-.69-.43-1.08-.28-.38.14-.64.49-.64.9v3.37h-3.35c-.42 0-.78.25-.92.64-.14.38-.02.81.3 1.08.33.27.52.68.52 1.12 0 .82-.67 1.49-1.49 1.49-.81 0-1.47-.67-1.47-1.49 0-.44.18-.84.52-1.12.31-.26.43-.7.29-1.08-.15-.39-.5-.64-.91-.64h-3.35v-1.64c.29.07.59.12.9.12 1.89 0 3.42-1.54 3.42-3.42 0-1.89-1.53-3.42-3.42-3.42-.31 0-.61.04-.89.12v-1.63h9.85v3.35c0 .41.26.78.64.91.39.14.81.02 1.08-.29.28-.34.69-.52 1.13-.52.82-.01 1.49.65 1.49 1.47z" fill="#9fd2f1"/><path d="m45.4 14.77c0 .81-.67 1.48-1.49 1.48-.44 0-.84-.19-1.13-.53-.26-.31-.69-.43-1.08-.29-.38.15-.64.5-.64.91v3.36h-9.85v-1.63c.28.08.58.13.89.13 1.89 0 3.42-1.54 3.42-3.43 0-1.88-1.53-3.41-3.42-3.41-.31 0-.61.04-.89.12v-1.65h3.35c.41 0 .77-.25.91-.63.14-.39.02-.81-.29-1.08-.34-.28-.53-.69-.53-1.12 0-.81.66-1.48 1.47-1.48.82 0 1.49.67 1.49 1.48 0 .44-.19.84-.52 1.13-.32.26-.44.69-.3 1.07.15.39.5.64.92.64h3.35v3.37c0 .41.26.78.64.91.39.14.81.02 1.08-.29.28-.34.69-.52 1.13-.52.82-.02 1.49.64 1.49 1.46z" fill="#f16e61"/><path d="m57.19 14.76c0 .82-.67 1.49-1.48 1.49-.44 0-.84-.19-1.12-.52-.25-.32-.69-.44-1.07-.3-.39.15-.64.5-.64.92v3.35h-9.88v-1.63c.29.08.59.13.9.13 1.89 0 3.43-1.54 3.43-3.42 0-1.89-1.54-3.42-3.43-3.42-.31 0-.61.04-.9.12v-1.65h3.36c.41 0 .77-.25.91-.64.14-.38.02-.8-.29-1.07-.34-.28-.52-.68-.52-1.12 0-.81.67-1.48 1.48-1.48s1.48.67 1.48 1.48c0 .44-.19.84-.52 1.13-.31.26-.43.69-.29 1.07.14.39.5.64.91.64h3.36v3.37c0 .41.25.77.64.91.38.14.8.02 1.07-.29.28-.34.69-.52 1.12-.52.81-.02 1.48.64 1.48 1.45z" fill="#f7ae48"/><path d="m26.62 6.13c-.75-1.74-2.76-2.54-4.5-1.78-.28.12-.54.27-.78.46l-1.03-2.39c-.21-.49-.79-.72-1.28-.5l-2.39 1.03c-.04-.3-.12-.59-.24-.87-.36-.84-1.03-1.49-1.88-1.82-.85-.34-1.78-.33-2.62.03-1.74.75-2.53 2.77-1.78 4.5.12.28.27.54.47.78l-2.39 1.02c-.5.21-.72.78-.51 1.27l1.03 2.4c-.29.04-.59.12-.87.24-.83.36-1.48 1.03-1.82 1.88s-.32 1.78.03 2.62c.75 1.74 2.76 2.54 4.5 1.78.28-.12.54-.27.78-.47l1.03 2.39c.1.24.29.43.53.52.12.04.23.07.36.07s.26-.03.38-.08c0 0 9.88-4.27 10.84-4.67.23-.11.43-.29.52-.53.1-.24.09-.5-.01-.75l-1.03-2.39c.29-.04.58-.13.86-.24 1.75-.74 2.55-2.77 1.8-4.5zm-2.56 2.72c-.4.17-.84.16-1.23-.04-.37-.18-.8-.12-1.11.16-.3.27-.39.71-.22 1.09l1.32 3.07c-2.09.9-7.03 3.04-9.06 3.91l-1.33-3.07c-.16-.36-.5-.59-.89-.59-.02 0-.04.01-.06.01-.41.02-.76.3-.87.69-.12.42-.42.76-.81.93-.76.32-1.63-.03-1.95-.78-.16-.36-.16-.77-.02-1.13.15-.37.43-.66.8-.81.4-.17.84-.16 1.23.04.37.18.8.12 1.11-.16.3-.28.39-.72.22-1.09l-1.33-3.09 3.07-1.33c.38-.16.61-.54.59-.95-.03-.41-.3-.76-.7-.87-.42-.13-.74-.42-.92-.82-.32-.75.03-1.63.78-1.95.36-.16.77-.16 1.13-.01.37.15.66.43.81.79.17.4.16.85-.04 1.24-.18.36-.12.8.16 1.1s.71.39 1.09.23l3.08-1.33 1.33 3.08c.16.38.53.62.95.58.41-.02.76-.3.87-.69.12-.42.42-.76.81-.93.76-.32 1.63.03 1.95.78.35.74 0 1.62-.76 1.94z" fill="#2a2f64"/><path d="m24.06 8.85c-.4.17-.84.16-1.23-.04-.37-.18-.8-.12-1.11.16-.3.27-.39.71-.22 1.09l1.32 3.07c-2.09.9-7.03 3.04-9.06 3.91l-1.33-3.07c-.16-.36-.5-.59-.89-.59-.02 0-.04.01-.06.01-.41.02-.76.3-.87.69-.12.42-.42.76-.81.93-.76.32-1.63-.03-1.95-.78-.16-.36-.16-.77-.02-1.13.15-.37.43-.66.8-.81.4-.17.84-.16 1.23.04.37.18.8.12 1.11-.16.3-.28.39-.72.22-1.09l-1.33-3.09 3.07-1.33c.38-.16.61-.54.59-.95-.03-.41-.3-.76-.7-.87-.42-.13-.74-.42-.92-.82-.32-.75.03-1.63.78-1.95.36-.16.77-.16 1.13-.01.37.15.66.43.81.79.17.4.16.85-.04 1.24-.18.36-.12.8.16 1.1s.71.39 1.09.23l3.08-1.33 1.33 3.08c.16.38.53.62.95.58.41-.02.76-.3.87-.69.12-.42.42-.76.81-.93.76-.32 1.63.03 1.95.78.35.74 0 1.62-.76 1.94z" fill="#4dbde5"/><path d="m57.19 26.58c0 .81-.67 1.48-1.48 1.48-.44 0-.84-.19-1.12-.52-.26-.32-.69-.44-1.07-.29-.39.14-.64.49-.64.91v3.36h-3.36c-.41 0-.78.25-.91.64-.14.38-.02.81.29 1.08.33.27.52.68.52 1.12 0 .82-.67 1.49-1.48 1.49-.67 0-1.24-.46-1.42-1.08.13.04.26.06.4.06.81 0 1.48-.67 1.48-1.49 0-.44-.19-.84-.52-1.12-.31-.26-.43-.7-.29-1.08.14-.39.5-.64.91-.64h3.36v-3.36c0-.42.25-.78.64-.91.38-.15.8-.03 1.07.29.28.33.69.52 1.13.52.81 0 1.48-.67 1.48-1.48 0-.15-.02-.28-.06-.41.62.18 1.07.75 1.07 1.43z" fill="#d5d6d5"/><path d="m33.59 26.58c0 .81-.67 1.48-1.48 1.48-.44 0-.84-.19-1.13-.52-.26-.32-.69-.44-1.07-.29-.39.14-.64.49-.64.91v3.36h-3.36c-.41 0-.78.25-.91.64-.14.38-.02.81.29 1.08.33.27.52.68.52 1.12 0 .82-.67 1.49-1.48 1.49-.68 0-1.24-.46-1.42-1.08.13.04.26.06.4.06.81 0 1.48-.67 1.48-1.49 0-.44-.19-.84-.52-1.12-.31-.26-.43-.7-.29-1.08.14-.39.5-.64.91-.64h3.36v-3.36c0-.42.25-.78.64-.91.38-.15.8-.03 1.07.29.28.33.69.52 1.12.52.81 0 1.48-.67 1.48-1.48 0-.15-.02-.28-.06-.41.63.18 1.09.75 1.09 1.43z" fill="#eac05c"/><path d="m45.4 26.57c0 .82-.67 1.49-1.49 1.49-.44 0-.84-.19-1.13-.53-.26-.31-.69-.43-1.08-.28-.38.14-.64.49-.64.9v3.37h-3.35c-.42 0-.78.25-.92.64-.14.38-.02.81.3 1.08.33.27.52.68.52 1.12 0 .82-.67 1.49-1.49 1.49-.67 0-1.23-.46-1.41-1.08.13.04.25.06.39.06.82 0 1.49-.67 1.49-1.49 0-.44-.19-.84-.52-1.12-.32-.26-.44-.7-.3-1.08.15-.39.5-.64.92-.64h3.35v-3.37c0-.41.26-.77.64-.9.39-.15.81-.03 1.08.28.28.34.69.53 1.12.53.82 0 1.49-.67 1.49-1.49 0-.14-.02-.26-.06-.39.63.18 1.09.74 1.09 1.41z" fill="#8cbfd5"/><path d="m45.4 14.77c0 .81-.67 1.48-1.49 1.48-.44 0-.84-.19-1.13-.53-.26-.31-.69-.43-1.08-.29-.38.15-.64.5-.64.91v3.36h-9.85v-1.02h8.83v-3.36c0-.41.26-.77.64-.91.39-.14.81-.02 1.08.29.28.34.69.53 1.12.53.82 0 1.49-.67 1.49-1.48 0-.14-.02-.27-.06-.4.63.18 1.09.75 1.09 1.42z" fill="#e15f5a"/><path d="m57.19 14.76c0 .82-.67 1.49-1.48 1.49-.44 0-.84-.19-1.12-.52-.25-.32-.69-.44-1.07-.3-.39.15-.64.5-.64.92v3.35h-9.88v-1.02h8.85v-3.35c0-.42.25-.78.64-.92.38-.14.81-.02 1.07.3.28.33.69.52 1.13.52.81 0 1.48-.67 1.48-1.49 0-.14-.02-.26-.06-.39.63.17 1.08.75 1.08 1.41z" fill="#ec9b3b"/><path d="m24.06 8.85c-.4.17-.84.16-1.23-.04-.37-.18-.8-.12-1.11.16-.3.27-.39.71-.22 1.09l1.32 3.07c-2.09.9-7.03 3.04-9.06 3.91l-.53-1.23c2.24-.96 6.63-2.86 8.57-3.69l-1.32-3.07c-.16-.38-.08-.81.22-1.09.11-.1.23-.17.36-.21.04.01.09 0 .14 0 .09 0 .17-.02.25-.05.13 0 .24.04.36.1.39.19.83.21 1.23.04.7-.29 1.05-1.07.83-1.76.42.12.78.41.96.83.34.74-.01 1.62-.77 1.94z" fill="#37a7d9"/><path d="m11.6 13.38h-.06c-.02 0-.04.01-.06.01-.41.02-.76.3-.87.69-.12.42-.42.76-.81.93-.76.32-1.63-.03-1.95-.78-.03-.06-.05-.13-.06-.18.32.1.66.08.99-.06.4-.17.7-.51.81-.93.09-.3.33-.54.62-.64.14.01.27 0 .41-.05.35.03.65.25.8.58z" fill="#37a7d9"/><path d="m9.86 12.32c.12.06.23.1.36.1-.29.1-.53.34-.62.64-.12.42-.42.76-.81.93-.33.14-.67.16-.99.06-.11-.31-.08-.64.04-.95.15-.37.43-.66.8-.81.38-.18.83-.17 1.22.03z" fill="#4dbde5"/><path d="m23.05 7.83c-.4.17-.84.16-1.23-.04-.12-.06-.23-.1-.36-.1.29-.1.53-.34.62-.64.12-.42.42-.76.81-.93.33-.14.67-.16.99-.06.21.7-.14 1.48-.83 1.77z" fill="#4dbde5"/><path d="m61 45.89c-1.06-1.69-3.23-2.34-5.04-1.51l-12.45 5.66c0-.04.01-.09.01-.13 0-1.94-1.57-3.51-3.51-3.51h-8.23c-.43 0-.84-.11-1.23-.3l-6.95-3.67c-.65-.34-1.39-.52-2.11-.52h-5.49v-1.49c0-.53-.44-.97-.97-.97h-10.1c-.5 0-.93.39-.97.89l-1.57 20.65c-.02.26.08.53.26.73s.44.31.71.31h11.67c.53 0 .97-.44.97-.97v-1.57h3.94c.31 0 .6.06.89.16l10.85 3.92c.8.29 1.64.43 2.46.43 1.17 0 2.34-.28 3.39-.84l21.96-11.6c1.31-.7 2.12-2.06 2.12-3.54 0-.76-.2-1.5-.61-2.13zm-46.94 14.2h-9.65l1.43-18.7h8.22zm44.53-10.25-21.97 11.61c-1.32.7-2.88.8-4.29.3l-10.85-3.92c-.49-.18-1.02-.28-1.55-.28h-3.93v-13.69h5.48c.42 0 .83.11 1.21.3l6.96 3.67c.66.34 1.4.52 2.12.52h8.23c.86 0 1.57.71 1.57 1.57 0 .53-.25.9-.46 1.12-.1.1-.22.18-.36.26l-.12.06c-.21.09-.43.15-.64.15h-10.6c-1.77 0-3.22 1.44-3.22 3.21 0 .53.44.97.97.97.54 0 .97-.44.97-.97 0-.7.57-1.27 1.28-1.27h10.62c.46 0 .91-.13 1.36-.3.03-.01.07-.01.11-.03l.19-.09 15.1-6.88c.93-.43 2.06-.09 2.6.78.2.33.31.71.31 1.1-.01.75-.42 1.45-1.09 1.81z" fill="#2a2f64"/><path d="m14.06 41.39v18.7h-9.65l1.42-18.7z" fill="#a0c3d8"/><path d="m14.06 41.39v18.7h-9.65l.12-1.61h7.66v-15.48h-6.48l.12-1.61z" fill="#81a5b8"/><path d="m59.67 48.02c0 .77-.42 1.46-1.09 1.82l-21.96 11.61c-1.32.7-2.88.8-4.29.3l-10.85-3.92c-.49-.18-1.02-.28-1.55-.28h-3.93v-13.69h5.48c.42 0 .83.11 1.21.3l6.96 3.67c.66.34 1.4.52 2.12.52h8.23c.86 0 1.57.71 1.57 1.57 0 .53-.25.9-.46 1.12-.1.1-.22.18-.36.26l-.12.06c-.21.09-.43.15-.64.15h-10.6c-1.77 0-3.22 1.44-3.22 3.21 0 .53.44.97.97.97.54 0 .97-.44.97-.97 0-.7.57-1.27 1.28-1.27h10.62c.46 0 .91-.13 1.36-.3.03-.01.07-.01.11-.03l.19-.09 15.1-6.88c.93-.43 2.06-.09 2.6.78.2.32.3.7.3 1.09z" fill="#ffe4aa"/><g fill="#efd299"><path d="m59.67 48.02c0 .77-.42 1.46-1.09 1.82l-21.96 11.61c-1.32.7-2.88.8-4.29.3l-10.85-3.92c-.49-.18-1.02-.28-1.55-.28h-3.93v-1.58h3.94c.53 0 1.06.1 1.55.28l10.85 3.92c1.41.5 2.97.4 4.29-.3l21.97-11.61c.43-.23.76-.59.93-1.03.09.25.14.52.14.79z"/><path d="m41.58 49.92c0 .25-.06.47-.14.64-.24-.55-.8-.94-1.44-.94h-8.23c-.73 0-1.46-.18-2.12-.51l-6.96-3.68c-.38-.19-.8-.3-1.21-.3h-5.48v-1.27h5.48c.42 0 .83.11 1.21.3l6.96 3.67c.66.34 1.4.52 2.12.52h8.23c.58 0 1.1.32 1.36.8.14.23.22.49.22.77z"/></g></g></svg>