<svg enable-background="new 0 0 512 512" height="512" viewBox="0 0 512 512" width="512" xmlns="http://www.w3.org/2000/svg"><g id="_x30_4_Critical_Business_Factor"><g><path d="m500.593 184.185v19.129c0 1.903-1.314 3.536-3.218 3.898l-19.945 4.08c-2.448 13.19-7.615 25.384-14.959 36.037l11.242 16.998c1.088 1.586.861 3.717-.499 5.031l-13.508 13.509c-1.315 1.36-3.445 1.586-5.032.498l-16.998-11.242c-10.652 7.344-22.846 12.511-36.037 14.959l-4.08 19.944c-.363 1.905-1.995 3.219-3.898 3.219h-19.129c-1.904 0-3.536-1.314-3.898-3.219l-4.079-19.944c-13.191-2.448-25.385-7.615-36.037-14.959l-16.998 11.242c-1.587 1.088-3.717.862-5.032-.498l-13.508-13.509c-1.36-1.314-1.586-3.445-.499-5.031l11.242-16.998c-7.343-10.652-12.511-22.846-14.959-36.037l-19.945-4.08c-1.904-.362-3.218-1.995-3.218-3.898v-19.129c0-1.904 1.314-3.536 3.218-3.899l19.945-4.079c2.448-13.191 7.615-25.385 14.959-36.037l-11.242-16.998c-1.088-1.586-.861-3.717.499-5.031l13.508-13.508c1.315-1.36 3.445-1.587 5.032-.499l16.998 11.242c10.652-7.343 22.846-12.511 36.037-14.958l4.079-19.946c.363-1.903 1.995-3.218 3.898-3.218h19.129c1.904 0 3.536 1.315 3.898 3.218l4.08 19.946c13.191 2.447 25.384 7.615 36.037 14.958l16.998-11.242c1.587-1.088 3.717-.861 5.032.499l13.508 13.508c1.36 1.315 1.586 3.445.499 5.031l-11.242 16.998c7.343 10.652 12.511 22.846 14.959 36.037l19.945 4.079c1.904.363 3.218 1.995 3.218 3.899z" fill="#faa629"/><ellipse cx="384.097" cy="193.749" fill="#fff" rx="53.144" ry="53.144" transform="matrix(.29 -.957 .957 .29 87.357 505.22)"/><path d="m262.734 126.617v18.226c0 1.814-1.252 3.369-3.066 3.714l-19.003 3.887c-2.332 12.568-7.256 24.186-14.252 34.335l10.711 16.196c1.036 1.512.821 3.542-.475 4.794l-12.87 12.871c-1.253 1.295-3.282 1.511-4.794.475l-16.196-10.711c-10.149 6.997-21.767 11.92-34.335 14.253l-3.887 19.003c-.346 1.815-1.9 3.067-3.714 3.067h-18.226c-1.814 0-3.369-1.252-3.714-3.067l-3.887-19.003c-12.568-2.332-24.186-7.256-34.336-14.253l-16.196 10.711c-1.512 1.036-3.542.821-4.794-.475l-12.87-12.871c-1.296-1.252-1.512-3.282-.475-4.794l10.711-16.196c-6.997-10.149-11.92-21.768-14.252-34.335l-19.003-3.887c-1.814-.345-3.066-1.901-3.066-3.714v-18.226c0-1.814 1.252-3.369 3.066-3.715l19.003-3.887c2.332-12.568 7.256-24.186 14.252-34.336l-10.713-16.195c-1.036-1.512-.821-3.541.475-4.794l12.87-12.87c1.253-1.296 3.282-1.512 4.794-.476l16.196 10.711c10.149-6.997 21.767-11.92 34.336-14.252l3.887-19.004c.346-1.814 1.9-3.066 3.714-3.066h18.226c1.814 0 3.369 1.253 3.714 3.066l3.887 19.004c12.568 2.332 24.186 7.256 34.335 14.252l16.196-10.711c1.512-1.036 3.542-.82 4.794.476l12.87 12.87c1.296 1.253 1.512 3.282.475 4.794l-10.71 16.196c6.997 10.149 11.92 21.768 14.252 34.336l19.003 3.887c1.815.345 3.067 1.9 3.067 3.714z" fill="#3eb655"/><ellipse cx="151.738" cy="135.73" fill="#fff" rx="50.635" ry="50.635" transform="matrix(.29 -.957 .957 .29 -22.139 241.624)"/><path d="m426.861 162.239c-8.431-5.673-18.579-8.951-29.507-8.951-29.351 0-53.134 23.782-53.134 53.133 0 11.813 3.851 22.742 10.356 31.537-14.259-9.524-23.626-25.813-23.626-44.235 0-29.3 23.783-53.134 53.133-53.134 17.59.001 33.151 8.535 42.778 21.65z" opacity=".1"/><path d="m193.562 106.608c-8.118-5.517-17.954-8.795-28.57-8.795-27.946 0-50.636 22.638-50.636 50.636 0 10.564 3.279 20.452 8.795 28.57-13.322-9.159-22.065-24.511-22.065-41.84 0-27.999 22.69-50.636 50.636-50.636 17.381-.001 32.681 8.742 41.84 22.065z" opacity=".1"/><path d="m500.603 335.014c0 9.992-4.944 19.724-13.999 25.5-41.268 26.28-125.054 78.894-175.221 110.379-25.812 16.184-57.349 20.608-86.596 12.125l-40.019-11.605c-4.84-1.405-9.888-2.133-14.988-2.133h-88.73v-144.518h30.34c10.512 0 20.764-3.279 29.351-9.316l22.794-16.028c19.463-13.739 46.004-11.449 62.813 5.412l2.654 2.602c10.252 10.253 24.147 16.029 38.615 16.029h57.193c14.623 0 26.437 11.813 26.437 26.437 0 7.337-2.966 13.947-7.754 18.734-.572.573-1.197 1.145-1.821 1.666l114.178-61.929c14.207-7.702 31.953-2.914 40.332 10.876 2.964 4.945 4.421 10.357 4.421 15.769z" fill="#ffcbc0"/><path d="m81.05 324.762h15.612v144.517h-15.612z" opacity=".1"/><path d="m81.059 314.835v156.712c0 8.671-7.05 15.72-15.72 15.72h-38.209c-8.671 0-15.721-7.05-15.721-15.72v-156.712c0-8.671 7.05-15.72 15.721-15.72h38.209c8.671 0 15.72 7.05 15.72 15.72z" fill="#246abf"/><g fill="#25294f"><path d="m262.398 184.183v19.129c0 4.404 3.136 8.192 7.379 8.995l16.573 3.392c2.505 11.285 6.912 21.896 13.132 31.634l-9.295 14.052c-2.526 3.692-2.033 8.619 1.113 11.651l13.447 13.45c3.12 3.209 8.04 3.687 11.643 1.217l14.123-9.338c9.732 6.218 20.349 10.622 31.631 13.127l3.375 16.514c.828 4.312 4.62 7.443 9.011 7.443h19.129c4.396 0 8.187-3.131 9-7.382l3.39-16.575c11.287-2.505 21.899-6.909 31.631-13.127l14.047 9.288c3.695 2.531 8.614 2.04 11.658-1.108l13.442-13.442c3.212-3.098 3.705-8.025 1.225-11.648l-9.341-14.121c6.22-9.74 10.627-20.351 13.127-31.634l16.502-3.377c4.32-.818 7.455-4.607 7.455-9.011v-19.129c0-4.399-3.131-8.187-7.379-8.995l-16.578-3.39c-2.5-11.282-6.907-21.896-13.127-31.634l9.29-14.052c2.531-3.687 2.038-8.614-1.108-11.653l-13.447-13.45c-3.1-3.207-8.035-3.7-11.643-1.217l-14.123 9.338c-9.732-6.215-20.349-10.622-31.631-13.127l-3.375-16.517c-.828-4.31-4.62-7.438-9.016-7.438h-19.128c-4.391 0-8.182 3.128-8.995 7.379l-3.39 16.575c-11.282 2.505-21.899 6.912-31.631 13.13l-14.052-9.293c-3.669-2.521-8.609-2.035-11.653 1.11l-13.447 13.445c-3.207 3.103-3.7 8.03-1.22 11.646l9.341 14.123c-6.221 9.737-10.627 20.349-13.132 31.634l-16.507 3.375c-4.315.824-7.446 4.613-7.446 9.011zm10.409 1.007 18.997-3.885c2.079-.424 3.69-2.063 4.076-4.147 2.282-12.296 7.034-23.746 14.128-34.035 1.204-1.748 1.23-4.053.056-5.824l-10.703-16.181 12.106-12.103 16.181 10.7c1.779 1.174 4.076 1.154 5.824-.056 10.286-7.09 21.736-11.844 34.035-14.126 2.084-.389 3.725-2 4.147-4.076l3.883-18.999h17.122l3.883 18.999c.422 2.076 2.063 3.687 4.147 4.076 12.299 2.282 23.749 7.036 34.035 14.126 1.748 1.207 4.045 1.227 5.824.056l16.181-10.7 12.106 12.101-10.703 16.184c-1.174 1.771-1.149 4.076.056 5.824 7.095 10.291 11.846 21.741 14.123 34.032.386 2.084 1.997 3.725 4.076 4.15l19.002 3.885v17.117l-19.002 3.888c-2.079.424-3.69 2.066-4.076 4.15-2.277 12.291-7.029 23.741-14.123 34.032-1.204 1.748-1.23 4.053-.056 5.824l10.703 16.179-12.106 12.103-16.181-10.7c-1.774-1.169-4.081-1.149-5.824.056-10.286 7.092-21.736 11.846-34.035 14.126-2.084.386-3.725 2-4.147 4.076l-3.883 19.002h-17.122l-3.883-19.002c-.422-2.076-2.063-3.69-4.147-4.076-12.299-2.279-23.749-7.034-34.035-14.126-1.748-1.207-4.045-1.225-5.824-.056l-16.181 10.703-12.106-12.103 10.703-16.181c1.174-1.771 1.149-4.076-.056-5.824-7.095-10.289-11.846-21.739-14.128-34.035-.386-2.084-1.997-3.723-4.076-4.147l-18.997-3.888z"/><path d="m384.095 252.096c32.175 0 58.353-26.175 58.353-58.348s-26.179-58.348-58.353-58.348-58.348 26.175-58.348 58.348 26.173 58.348 58.348 58.348zm0-106.288c26.437 0 47.945 21.505 47.945 47.94s-21.508 47.94-47.945 47.94c-26.432 0-47.94-21.505-47.94-47.94s21.508-47.94 47.94-47.94z"/><path d="m42.765 153.655 15.638 3.199c2.384 10.667 6.551 20.707 12.421 29.929l-8.767 13.249c-2.475 3.611-1.987 8.439 1.093 11.417l12.807 12.812c3.039 3.138 7.867 3.621 11.409 1.194l13.32-8.81c9.224 5.867 19.261 10.032 29.929 12.421l3.181 15.566c.808 4.228 4.518 7.298 8.828 7.298h18.23c4.305 0 8.014-3.07 8.807-7.227l3.202-15.638c10.667-2.389 20.705-6.556 29.923-12.421l13.259 8.764c3.608 2.475 8.441 1.992 11.414-1.09l12.807-12.809c3.141-3.039 3.629-7.867 1.199-11.407l-8.812-13.32c5.87-9.224 10.037-19.264 12.421-29.929l15.572-3.184c4.223-.806 7.293-4.518 7.293-8.828v-18.227c0-4.307-3.07-8.02-7.227-8.81l-15.638-3.199c-2.383-10.667-6.551-20.707-12.421-29.929l8.767-13.252c2.475-3.611 1.987-8.439-1.093-11.417l-12.807-12.809c-3.039-3.138-7.872-3.618-11.409-1.194l-13.325 8.812c-9.219-5.867-19.256-10.035-29.923-12.421l-3.186-15.569c-.808-4.228-4.518-7.298-8.823-7.298h-18.23c-4.31 0-8.02 3.07-8.812 7.229l-3.197 15.638c-10.667 2.386-20.705 6.553-29.929 12.421l-13.254-8.767c-3.603-2.467-8.436-1.987-11.414 1.09l-12.808 12.81c-3.141 3.039-3.629 7.867-1.199 11.407l8.812 13.323c-5.87 9.219-10.037 19.259-12.426 29.929l-15.567 3.184c-4.223.806-7.293 4.518-7.293 8.825v18.227c.001 4.308 3.071 8.021 7.228 8.811zm3.181-25.878 17.904-3.664c2.079-.424 3.69-2.063 4.076-4.147 2.165-11.681 6.683-22.557 13.422-32.33 1.204-1.748 1.23-4.056.056-5.827l-10.088-15.248 11.252-11.252 15.246 10.088c1.769 1.171 4.076 1.151 5.824-.056 9.783-6.739 20.659-11.254 32.337-13.419 2.084-.386 3.725-2 4.147-4.076l3.659-17.909h15.907l3.664 17.909c.422 2.079 2.063 3.69 4.147 4.076 11.679 2.165 22.554 6.68 32.332 13.419 1.753 1.204 4.061 1.227 5.824.056l15.251-10.088 11.252 11.249-10.088 15.251c-1.174 1.771-1.149 4.078.056 5.827 6.739 9.775 11.257 20.651 13.417 32.327.386 2.084 1.997 3.725 4.076 4.15l17.909 3.664v15.907l-17.909 3.659c-2.079.427-3.69 2.068-4.076 4.152-2.16 11.674-6.678 22.552-13.417 32.332-1.204 1.748-1.23 4.053-.056 5.824l10.088 15.246-11.252 11.252-15.251-10.085c-1.769-1.169-4.066-1.149-5.824.056-9.778 6.736-20.654 11.252-32.332 13.419-2.084.389-3.725 2-4.147 4.073l-3.664 17.909h-15.907l-3.659-17.907c-.422-2.076-2.063-3.687-4.147-4.076-11.679-2.165-22.554-6.683-32.337-13.422-1.753-1.202-4.061-1.225-5.824-.053l-15.246 10.087-11.252-11.249 10.088-15.249c1.174-1.771 1.149-4.076-.056-5.824-6.739-9.778-11.257-20.656-13.422-32.335-.386-2.084-1.997-3.723-4.076-4.147l-17.904-3.662z"/><path d="m151.735 191.568c30.793 0 55.842-25.047 55.842-55.837s-25.05-55.84-55.842-55.84c-30.787 0-55.837 25.05-55.837 55.84s25.05 55.837 55.837 55.837zm0-101.269c25.055 0 45.434 20.379 45.434 45.432 0 25.05-20.379 45.429-45.434 45.429-25.05 0-45.429-20.379-45.429-45.429 0-25.053 20.38-45.432 45.429-45.432z"/><path d="m27.132 492.472h38.208c10.523 0 19.171-7.835 20.624-17.965h83.829c11.413 0 15.997 3.151 53.52 13.511 30.591 8.863 63.728 4.302 90.853-12.728 47.381-29.733 133.141-83.611 175.221-110.378 16.151-10.273 21.192-31.961 11.237-48.346-9.839-16.197-30.599-21.81-47.253-12.771l-97.643 52.956c.483-2.206.742-4.493.742-6.841 0-17.462-14.204-31.667-31.667-31.667h-57.194c-23.439 0-36.519-16.366-37.557-17.094-18.677-18.679-47.914-21.205-69.513-6.002l-22.803 16.047c-17.465 12.286-32.997 7.121-51.472 8.34v-4.698c0-11.536-9.387-20.923-20.923-20.923h-38.209c-11.541 0-20.928 9.387-20.928 20.923v156.712c0 11.537 9.387 20.924 20.928 20.924zm59.136-162.531c17.59-1.299 36.602 4.44 57.453-10.235l22.803-16.047c17.452-12.289 41.074-10.243 56.167 4.848 2.495 1.736 14.662 20.143 44.916 20.143h57.194c11.724 0 21.258 9.537 21.258 21.258 0 11.719-9.534 21.256-21.258 21.256h-77.66c-2.876 0-5.204 2.33-5.204 5.204s2.328 5.204 5.204 5.204h77.66c7.455 0 14.316-2.589 19.734-6.917l113.794-61.715c11.775-6.391 26.442-2.417 33.4 9.026 7.156 11.778 3.669 26.783-7.933 34.162-42.054 26.752-127.795 80.618-175.16 110.343-24.547 15.406-54.582 19.614-82.427 11.549-36.968-10.121-42.83-13.922-56.417-13.922h-83.524zm-69.656-15.107c0-5.799 4.721-10.515 10.52-10.515h38.208c5.799 0 10.515 4.716 10.515 10.515v156.712c0 5.799-4.716 10.517-10.515 10.517h-38.208c-5.799 0-10.52-4.719-10.52-10.517z"/></g></g></g></svg>