<svg height="512" viewBox="0 0 64 64" width="512" xmlns="http://www.w3.org/2000/svg"><g id="Icons"><g><g><path d="m16 28 16-8 16 8-16 8z" fill="#fab400"/></g><g><path d="m32 36-16-8v20l16-8z" fill="#64c8f0"/></g><g><path d="m16 48 16 8v-16z" fill="#46aad2"/></g><g><path d="m32 36v4l16 8v-20z" fill="#fa6450"/></g><g><path d="m32 56 16-8-16-8z" fill="#dc4632"/></g><g><path d="m34 18.764v-4.764h4l-6-6-6 6h4v4.764l2-1z" fill="#505050"/></g><g><path d="m32 8-6 6h2l5-5z" fill="#3c3c3c"/></g><g><path d="m32 14h-2v4.764l2-1z" fill="#3c3c3c"/></g><g><path d="m4 38 6 6v-4h4v-4h-4v-4z" fill="#505050"/></g><g><path d="m6 38 4-4v-2l-6 6 6 6v-2z" fill="#3c3c3c"/></g><g><path d="m60 38-6-6v4h-4v4h4v4z" fill="#505050"/></g><g><path d="m50 36h2v4h-2z" fill="#3c3c3c"/></g></g></g></svg>