<svg id="Layer_1" viewBox="0 0 512 512" xmlns="http://www.w3.org/2000/svg" data-name="Layer 1"><g fill-rule="evenodd"><path d="m256 11-195.328 65.785c-9.016 3.036-14.827 11.125-14.827 20.638v179.982c0 117.356 122.157 166.067 210.156 223.595 87.998-57.528 210.155-106.239 210.155-223.595v-179.982c0-9.514-5.81-17.602-14.827-20.638z" fill="#0062d9"/><path d="m255.922 463.5c19.033-11.796 38.44-23.007 57.529-34.7 56.614-34.678 121.01-77.339 121.01-151.396v-172.856l-178.461-60.104-178.46 60.103v172.857c0 22.097 5.34 42.201 16.627 61.206 30.899 52.027 106.247 90.95 161.756 124.89z" fill="#4eb1fc"/><path d="m256 463.452c19.008-11.778 38.388-22.975 57.451-34.651 56.614-34.678 121.01-77.339 121.01-151.396v-172.857l-178.461-60.104z" fill="#2a92fa"/><path d="m292.422 198.27h29.137v-40.232c0-36.057-29.502-65.558-65.559-65.558s-65.558 29.501-65.558 65.558v40.232h29.137v-40.233c0-20.031 16.389-36.422 36.422-36.422 20.032 0 36.422 16.389 36.422 36.422v40.233z" fill="#fff"/></g><rect fill="#fdc72e" height="157.355" rx="22.773" width="203.25" x="153.625" y="195.645"/><rect fill="#fcdb35" height="157.355" rx="22.773" width="183" x="153.625" y="195.645"/><g fill-rule="evenodd"><path d="m246.7 240.316c10.577 0 19.152 8.575 19.152 19.152 0 6.507-3.247 12.256-8.208 15.717v27.45c0 6.019-4.924 10.943-10.943 10.943s-10.944-4.924-10.944-10.943v-27.45c-4.961-3.461-8.208-9.21-8.208-15.717 0-10.577 8.574-19.152 19.151-19.152z" fill="#fdc72e"/><path d="m256 240.316c10.577 0 19.152 8.575 19.152 19.152 0 6.507-3.246 12.256-8.208 15.717v27.45c0 6.019-4.924 10.943-10.943 10.943s-10.944-4.924-10.944-10.943v-27.45c-4.961-3.461-8.208-9.21-8.208-15.717 0-10.577 8.574-19.152 19.151-19.152z" fill="#fff"/></g></svg>