<svg id="Capa_1" enable-background="new 0 0 512 512" height="512" viewBox="0 0 512 512" width="512" xmlns="http://www.w3.org/2000/svg"><g><ellipse cx="127.469" cy="289.247" fill="#fff" rx="53.923" ry="53.922" transform="matrix(.973 -.23 .23 .973 -63.045 37.024)"/><g><g><path d="m224.036 383.939c1.863-1.863 4.069-3.248 6.468-4.138l-33.778-33.778c-3.239 3.819-6.787 7.367-10.607 10.606l33.778 33.778c.891-2.399 2.276-4.605 4.139-6.468z" fill="#bfbfbf"/><g fill="#cecece"><path d="m107.947 278.456c2.148-4.683 5.923-8.459 10.606-10.607l-23.521-23.521c-4.007 3.027-7.579 6.599-10.606 10.606z"/><path d="m68.819 218.115-27.181-27.181c-2.327 4.584-6.236 8.229-11.019 10.194l27.594 27.594c3.238-3.82 6.787-7.368 10.606-10.607z"/></g><path d="m127.469 195.572c-50.7 0-91.8 41.101-91.8 91.8s41.1 91.8 91.8 91.8 91.8-41.1 91.8-91.8-41.1-91.8-91.8-91.8zm0 158.723c-36.901 0-66.923-30.021-66.923-66.922s30.021-66.923 66.923-66.923c36.901 0 66.922 30.021 66.922 66.923.001 36.9-30.021 66.922-66.922 66.922z" fill="#26a6fe"/><g><path d="m127.469 355.295c-37.453 0-67.923-30.47-67.923-67.922s30.47-67.923 67.923-67.923 67.922 30.47 67.922 67.923-30.469 67.922-67.922 67.922zm0-120.846c-29.182 0-52.923 23.741-52.923 52.923s23.741 52.922 52.923 52.922 52.922-23.741 52.922-52.922-23.74-52.923-52.922-52.923z" fill="#0593fc"/></g><g fill="#cecece"><path d="m244.068 294.872c-.876-2.339-1.378-4.859-1.378-7.5s.502-5.161 1.378-7.5h-96.492c.876 2.339 1.378 4.859 1.378 7.5s-.502 5.161-1.378 7.5z"/><path d="m350.8 197.576-73.114 73.115c4.076 3.308 6.9 8.078 7.711 13.503l74.623-74.623c-4.368-2.73-7.696-6.967-9.22-11.995z"/></g><g><circle cx="127.469" cy="287.372" fill="#fd6930" r="22.484"/></g><g><path d="m124.985 287.372c0-8.824 5.086-16.457 12.484-20.138-3.013-1.499-6.407-2.346-10-2.346-12.418 0-22.484 10.066-22.484 22.484s10.066 22.484 22.484 22.484c3.593 0 6.987-.847 10-2.346-7.398-3.681-12.484-11.314-12.484-20.138z" fill="#fd5426"/></g><g><circle cx="264.174" cy="287.372" fill="#fd6930" r="22.484"/></g><g><path d="m261.69 287.372c0-8.824 5.086-16.457 12.484-20.138-3.013-1.499-6.407-2.346-10-2.346-12.418 0-22.484 10.066-22.484 22.484s10.066 22.484 22.484 22.484c3.593 0 6.987-.847 10-2.346-7.398-3.681-12.484-11.314-12.484-20.138z" fill="#fd5426"/></g><g><path d="m504.5 279.045c-4.143 0-7.5 3.358-7.5 7.5v19.846l-106.12-106.12c-2.148 4.683-5.924 8.459-10.607 10.607l106.12 106.12h-19.846c-4.143 0-7.5 3.358-7.5 7.5s3.357 7.5 7.5 7.5h37.953c4.143 0 7.5-3.358 7.5-7.5v-37.953c0-4.142-3.357-7.5-7.5-7.5z" fill="#cecece"/><g><circle cx="371.358" cy="191.356" fill="#00f2a6" r="22.484"/></g><g><path d="m368.874 191.356c0-8.824 5.086-16.457 12.484-20.138-3.013-1.499-6.407-2.346-10-2.346-12.418 0-22.484 10.066-22.484 22.484s10.066 22.484 22.484 22.484c3.593 0 6.987-.847 10-2.346-7.398-3.681-12.484-11.314-12.484-20.138z" fill="#05e39c"/></g></g><g><g><circle cx="22.484" cy="181.254" fill="#00f2a6" r="22.484"/></g><g><path d="m20 181.254c0-8.824 5.086-16.457 12.484-20.138-3.013-1.499-6.407-2.346-10-2.346-12.417 0-22.484 10.066-22.484 22.484s10.066 22.484 22.484 22.484c3.593 0 6.987-.847 10-2.346-7.398-3.682-12.484-11.314-12.484-20.138z" fill="#05e39c"/></g></g><g><path d="m327.35 460.366-77.134-77.134c-7.424-7.424-19.463-7.424-26.887 0-7.424 7.425-7.424 19.462 0 26.887l77.135 77.134c3.712 3.712 8.578 5.568 13.443 5.568s9.731-1.856 13.443-5.568c7.426-7.425 7.426-19.462 0-26.887z" fill="#60b7ff"/></g><g><path d="m324.464 487.253-77.135-77.134c-7.424-7.425-7.424-19.462 0-26.887.464-.464.946-.899 1.444-1.305-7.467-6.091-18.483-5.656-25.444 1.305-7.424 7.425-7.424 19.462 0 26.887l77.135 77.134c3.712 3.712 8.578 5.568 13.443 5.568 4.258 0 8.515-1.421 12-4.264-.497-.405-.979-.84-1.443-1.304z" fill="#26a6fe"/></g><g><g><path d="m26.386 490.071v-65.657c0-4.142-3.358-7.5-7.5-7.5s-7.5 3.358-7.5 7.5v65.657z" fill="#fe860a"/><path d="m62.333 490.071v-99.51c0-4.142-3.358-7.5-7.5-7.5s-7.5 3.358-7.5 7.5v99.51z" fill="#05e39c"/><path d="m98.28 490.071v-73.333c0-4.142-3.358-7.5-7.5-7.5s-7.5 3.358-7.5 7.5v73.333z" fill="#fe860a"/><path d="m134.228 490.071v-58.991c0-4.142-3.358-7.5-7.5-7.5s-7.5 3.358-7.5 7.5v58.991z" fill="#fd6930"/><path d="m170.175 490.071v-75.354c0-4.142-3.358-7.5-7.5-7.5s-7.5 3.358-7.5 7.5v75.354z" fill="#05e39c"/><path d="m206.122 490.071v-30.909c0-4.142-3.358-7.5-7.5-7.5s-7.5 3.358-7.5 7.5v30.909z" fill="#fd6930"/></g></g><g><g><g><g><path d="m350.511 94.266c0-48.38-39.793-87.465-88.434-86.312-45.83 1.086-83.187 38.493-84.218 84.325-.922 41.023 26.785 75.707 64.525 85.523 1.45.377 2.701 1.293 3.45 2.59l13.576 23.513c2.117 3.668 7.411 3.668 9.529 0l13.576-23.514c.749-1.297 2-2.213 3.449-2.59 37.129-9.657 64.547-43.383 64.547-83.535z" fill="#ffe177"/></g><g><path d="m302.795 166.904c-45.817 0-82.96-37.142-82.96-82.96 0-33.868 20.306-62.976 49.397-75.866-2.361-.136-4.747-.182-7.155-.125-45.83 1.086-83.187 38.493-84.218 84.325-.922 41.023 26.785 75.707 64.525 85.523 1.45.377 2.701 1.293 3.45 2.59l13.576 23.513c2.117 3.668 7.411 3.668 9.529 0l13.576-23.514c.749-1.297 2-2.213 3.449-2.59 9.205-2.394 17.811-6.272 25.553-11.356-2.867.301-5.776.46-8.722.46z" fill="#ffd15b"/></g><path d="m275.343 86.766h-22.337c-4.821 0-8.744-3.923-8.744-8.745v-4.738c0-4.822 3.923-8.745 8.744-8.745h22.337c4.821 0 8.744 3.923 8.744 8.745 0 4.142 3.357 7.5 7.5 7.5s7.5-3.358 7.5-7.5c0-13.093-10.651-23.745-23.744-23.745h-3.669v-7.391c0-4.142-3.357-7.5-7.5-7.5s-7.5 3.358-7.5 7.5v7.391h-3.668c-13.093 0-23.744 10.652-23.744 23.745v4.738c0 13.093 10.651 23.745 23.744 23.745h22.337c4.821 0 8.744 3.923 8.744 8.745v4.738c0 4.822-3.923 8.745-8.744 8.745h-22.337c-4.821 0-8.744-3.923-8.744-8.745 0-4.142-3.358-7.5-7.5-7.5s-7.5 3.358-7.5 7.5c0 13.093 10.651 23.745 23.744 23.745h3.668v7.391c0 4.142 3.357 7.5 7.5 7.5s7.5-3.358 7.5-7.5v-7.391h3.669c13.093 0 23.744-10.652 23.744-23.745v-4.738c0-13.093-10.651-23.745-23.744-23.745z" fill="#fe860a"/></g></g></g><g><g><g><path d="m506.499 411.957h-132.413c-3.038 0-5.501-2.463-5.501-5.501v-44.01c0-3.038 2.463-5.501 5.501-5.501h132.413c3.038 0 5.501 2.463 5.501 5.501v44.01c0 3.038-2.463 5.501-5.501 5.501z" fill="#00f2a6"/></g><g><path d="m408.584 406.455v-44.01c0-3.038 2.463-5.501 5.501-5.501h-40c-3.038 0-5.501 2.463-5.501 5.501v44.01c0 3.038 2.463 5.501 5.501 5.501h40c-3.038.001-5.501-2.462-5.501-5.501z" fill="#05e39c"/></g><g><path d="m484.055 391.95h-87.525c-4.143 0-7.5-3.358-7.5-7.5s3.357-7.5 7.5-7.5h87.525c4.143 0 7.5 3.358 7.5 7.5s-3.358 7.5-7.5 7.5z" fill="#fff"/></g></g><g><g><path d="m506.499 492.821h-132.413c-3.038 0-5.501-2.463-5.501-5.501v-44.01c0-3.038 2.463-5.501 5.501-5.501h132.413c3.038 0 5.501 2.463 5.501 5.501v44.01c0 3.038-2.463 5.501-5.501 5.501z" fill="#fd6930"/></g><g><path d="m408.584 487.32v-44.01c0-3.038 2.463-5.501 5.501-5.501h-40c-3.038 0-5.501 2.463-5.501 5.501v44.01c0 3.038 2.463 5.501 5.501 5.501h40c-3.038 0-5.501-2.463-5.501-5.501z" fill="#fd5426"/></g><g><path d="m484.055 472.815h-87.525c-4.143 0-7.5-3.358-7.5-7.5s3.357-7.5 7.5-7.5h87.525c4.143 0 7.5 3.358 7.5 7.5s-3.358 7.5-7.5 7.5z" fill="#fff"/></g></g></g></g><path d="m217.508 504.071h-210.008c-4.142 0-7.5-3.358-7.5-7.5s3.358-7.5 7.5-7.5h210.008c4.142 0 7.5 3.358 7.5 7.5s-3.358 7.5-7.5 7.5z" fill="#8ac9fe"/></g></g></svg>