<svg id="Layer_1" enable-background="new 0 0 58 58" height="512" viewBox="0 0 58 58" width="512" xmlns="http://www.w3.org/2000/svg"><path d="m24 5h-21c-1.654 0-3 1.346-3 3v16c0 1.654 1.346 3 3 3h21c1.654 0 3-1.346 3-3v-16c0-1.654-1.346-3-3-3z" fill="#25d985"/><path d="m17.158 14.211-6.764-3.382c-.624-.312-1.353-.28-1.946.087-.594.368-.948 1.004-.948 1.702v6.764c0 .698.354 1.334.949 1.702.323.2.686.3 1.05.3.305 0 .611-.071.896-.213l6.764-3.382c.682-.341 1.105-1.027 1.105-1.789s-.424-1.448-1.106-1.789z" fill="#296cf2"/><path d="m55 5h-21c-1.654 0-3 1.346-3 3v16c0 1.654 1.346 3 3 3h21c1.654 0 3-1.346 3-3v-16c0-1.654-1.346-3-3-3z" fill="#25d985"/><path d="m48.158 14.211-6.764-3.382c-.625-.312-1.353-.28-1.946.087-.594.367-.949 1.003-.949 1.702v6.764c0 .698.354 1.334.949 1.702.323.2.686.3 1.05.3.305 0 .611-.071.896-.213l6.764-3.382c.682-.341 1.105-1.027 1.105-1.789s-.423-1.448-1.105-1.789z" fill="#296cf2"/><path d="m24 31h-21c-1.654 0-3 1.346-3 3v16c0 1.654 1.346 3 3 3h21c1.654 0 3-1.346 3-3v-16c0-1.654-1.346-3-3-3z" fill="#25d985"/><path d="m17.158 40.211-6.764-3.382c-.624-.312-1.353-.28-1.946.087-.594.368-.948 1.004-.948 1.702v6.764c0 .698.354 1.334.949 1.702.323.2.686.3 1.05.3.305 0 .611-.071.896-.213l6.764-3.382c.682-.341 1.105-1.027 1.105-1.789s-.424-1.448-1.106-1.789z" fill="#296cf2"/><path d="m55 31h-21c-1.654 0-3 1.346-3 3v16c0 1.654 1.346 3 3 3h21c1.654 0 3-1.346 3-3v-16c0-1.654-1.346-3-3-3z" fill="#25d985"/><path d="m48.158 40.211-6.764-3.382c-.625-.312-1.353-.28-1.946.087-.594.367-.949 1.003-.949 1.702v6.764c0 .698.354 1.334.949 1.702.323.2.686.3 1.05.3.305 0 .611-.071.896-.213l6.764-3.382c.682-.341 1.105-1.027 1.105-1.789s-.423-1.448-1.105-1.789z" fill="#296cf2"/><g fill="#0b3fa5"><path d="m21 17h13.586l-.293.293c-.391.391-.391 1.023 0 1.414.195.195.451.293.707.293s.512-.098.707-.293l2-2c.092-.092.165-.203.216-.325.101-.245.101-.52 0-.764-.051-.122-.124-.233-.216-.325l-2-2c-.391-.391-1.023-.391-1.414 0s-.391 1.023 0 1.414l.293.293h-13.586c-.552 0-1 .448-1 1s.448 1 1 1z"/><path d="m19.961 38.58c.122.051.252.077.382.077h2.828c.552 0 1-.448 1-1s-.448-1-1-1h-.414l13.95-13.95c.391-.391.391-1.023 0-1.414s-1.023-.391-1.414 0l-13.95 13.95v-.414c0-.552-.448-1-1-1s-1 .448-1 1v2.828c0 .13.027.26.077.382.102.244.297.439.541.541z"/><path d="m37.923 41.618c-.051-.122-.124-.233-.216-.325l-2-2c-.391-.391-1.023-.391-1.414 0s-.391 1.023 0 1.414l.293.293h-13.586c-.552 0-1 .448-1 1s.448 1 1 1h13.586l-.293.293c-.391.391-.391 1.023 0 1.414.195.195.451.293.707.293s.512-.098.707-.293l2-2c.092-.092.165-.203.216-.325.101-.244.101-.52 0-.764z"/></g></svg>