<svg clip-rule="evenodd" fill-rule="evenodd" height="512" image-rendering="optimizeQuality" shape-rendering="geometricPrecision" text-rendering="geometricPrecision" viewBox="0 0 43.3492 43.3492" width="512" xmlns="http://www.w3.org/2000/svg"><g id="Layer_x0020_1"><g id="_360568712" fill-rule="nonzero"><path id="_360569528" d="m28.7271 17.6058c-.308 0-.5577.2504-.5577.5584v7.8919c0 .5599.4557 1.0152 1.0152 1.0152h10.491c.5595 0 1.0151-.4553 1.0151-1.0152v-6.0151c0-.56-.4556-1.0156-1.0151-1.0156h-4.4034c-.2099 0-.3804-.1701-.3804-.38v-.4812c0-.308-.2504-.5584-.5584-.5584zm10.9485 10.2262h-10.491c-.9793 0-1.7755-.7966-1.7755-1.7759v-7.8919c0-.7274.591-1.3188 1.318-1.3188h5.6063c.727 0 1.3192.5914 1.3192 1.3188v.1008h4.023c.9785 0 1.7755.7966 1.7755 1.776v6.0151c0 .9793-.797 1.7759-1.7755 1.7759z"/><path id="_360569432" d="m3.2163 14.3795c-.3072 0-.5576.2504-.5576.558v7.8923c0 .5595.4556 1.0151 1.0147 1.0151h10.4918c.5591 0 1.0148-.4556 1.0148-1.0151v-6.0155c0-.56-.4557-1.0156-1.0148-1.0156h-4.4038c-.2099 0-.38-.1701-.38-.38v-.4812c0-.3076-.2508-.558-.5588-.558h-5.6063zm10.9489 10.2259h-10.4918c-.9781 0-1.7751-.7967-1.7751-1.7756v-7.8923c0-.7269.591-1.3188 1.318-1.3188h5.6063c.727 0 1.3192.5919 1.3192 1.3188v.1008h4.0234c.9789 0 1.7751.7966 1.7751 1.776v6.0155c0 .9789-.7962 1.7756-1.7751 1.7756z"/><path id="_360568640" d="m28.7271.7603c-.308 0-.5577.2505-.5577.558v7.8923c0 .5596.4557 1.0152 1.0152 1.0152h10.491c.5595 0 1.0151-.4556 1.0151-1.0152v-6.0155c0-.5596-.4556-1.0152-1.0151-1.0152h-4.4034c-.2099 0-.3804-.1701-.3804-.3804v-.4812c0-.3075-.2504-.558-.5584-.558h-5.6063zm10.9485 10.2259h-10.491c-.9793 0-1.7755-.7962-1.7755-1.7756v-7.8923c0-.7269.591-1.3184 1.318-1.3184h5.6063c.727 0 1.3192.5915 1.3192 1.3184v.1012h4.023c.9785 0 1.7755.7967 1.7755 1.7756v6.0155c0 .9794-.797 1.7756-1.7755 1.7756z"/><path id="_360568400" d="m28.7271 33.1234c-.308 0-.5577.25-.5577.558v7.8919c0 .5599.4557 1.0155 1.0152 1.0155h10.491c.5595 0 1.0151-.4556 1.0151-1.0155v-6.0151c0-.56-.4556-1.0152-1.0151-1.0152h-4.4034c-.2099 0-.3804-.1705-.3804-.3804v-.4812c0-.308-.2504-.558-.5584-.558zm10.9485 10.2258h-10.491c-.9793 0-1.7755-.7966-1.7755-1.7759v-7.8919c0-.727.591-1.3184 1.318-1.3184h5.6063c.727 0 1.3192.5914 1.3192 1.3184v.1008h4.023c.9785 0 1.7755.7966 1.7755 1.776v6.0151c0 .9793-.797 1.7759-1.7755 1.7759z"/><path id="_360568256" d="m21.6739 38.7963c-.2103 0-.3804-.1705-.3804-.3804v-32.7194c0-.2099.1701-.38.3804-.38.2095 0 .38.1701.38.38v32.7194c0 .2099-.1705.3804-.38.3804z"/><path id="_360568232" d="m27.789 6.0769h-6.1151c-.2103 0-.3804-.1702-.3804-.3804 0-.2099.1701-.38.3804-.38h6.1151c.2099 0 .3804.1701.3804.38 0 .2102-.1705.3804-.3804.3804z"/><path id="_360568592" d="m27.789 22.7605h-6.1151c-.2103 0-.3804-.1705-.3804-.3804s.1701-.38.3804-.38h6.1151c.2099 0 .3804.1701.3804.38s-.1705.3804-.3804.3804z"/><path id="_360568496" d="m21.6739 20.1288h-6.1136c-.2102 0-.3803-.1701-.3803-.38s.1701-.3804.3803-.3804h6.1136c.2095 0 .38.1705.38.3804s-.1705.38-.38.38z"/><path id="_360568904" d="m27.789 38.7963h-6.1151c-.2103 0-.3804-.1705-.3804-.3804s.1701-.3804.3804-.3804h6.1151c.2099 0 .3804.1705.3804.3804s-.1705.3804-.3804.3804z"/></g><path d="m3.6734 23.8449h10.4917c.5592 0 1.0149-.4556 1.0149-1.0151v-3.081-2.9345c0-.56-.4557-1.0156-1.0149-1.0156h-4.4037c-.2099 0-.38-.1701-.38-.38v-.4812c0-.3076-.2508-.558-.5588-.558h-5.6063c-.3072 0-.5576.2504-.5576.558v7.8923c0 .5595.4556 1.0151 1.0147 1.0151z" fill="#fae76d"/><g fill="#61ab97"><path d="m28.1694 18.1642v4.2158 3.676c0 .56.4557 1.0153 1.0152 1.0153h10.491c.5595 0 1.0151-.4553 1.0151-1.0153v-6.015c0-.56-.4556-1.0156-1.0151-1.0156h-4.4034c-.2099 0-.3804-.1701-.3804-.38v-.4812c0-.308-.2504-.5584-.5584-.5584h-5.6063c-.308 0-.5577.2504-.5577.5584z"/><path d="m29.1846 10.2258h10.491c.5595 0 1.0151-.4556 1.0151-1.0152v-6.0155c0-.5596-.4556-1.0152-1.0151-1.0152h-4.4034c-.2099 0-.3804-.1701-.3804-.3803v-.4813c0-.3075-.2504-.558-.5584-.558h-5.6063c-.308 0-.5577.2505-.5577.558v4.3781 3.5142c0 .5596.4557 1.0152 1.0152 1.0152z"/><path d="m34.3334 33.1234h-5.6063c-.308 0-.5577.25-.5577.558v4.7345 3.1574c0 .5599.4557 1.0156 1.0152 1.0156h10.491c.5595 0 1.0151-.4557 1.0151-1.0156v-6.0152c0-.5599-.4556-1.0151-1.0151-1.0151h-4.4034c-.2099 0-.3804-.1705-.3804-.3804v-.4812c0-.308-.2504-.558-.5584-.558z"/></g></g></svg>