<?xml version="1.0" encoding="iso-8859-1"?>
<!-- Generator: Adobe Illustrator 19.0.0, SVG Export Plug-In . SVG Version: 6.00 Build 0)  -->
<svg version="1.1" id="Capa_1" xmlns="http://www.w3.org/2000/svg" xmlns:xlink="http://www.w3.org/1999/xlink" x="0px" y="0px"
	 viewBox="0 0 512 512" style="enable-background:new 0 0 512 512;" xml:space="preserve">
<path style="fill:#5A5A5A;" d="M309.101,68.101c-6,5.7-15.3,5.7-21.301,0l-16.8-16.8V105c0,8.401-6.599,15-15,15s-15-6.599-15-15
	V51.301l-16.8,16.8c-6,5.7-15.3,5.7-21.301,0c-5.7-6-5.7-15.3,0-21.301L245.5,4.501C248.2,1.5,252.1,0,256,0s7.8,1.5,10.499,4.501
	L309.101,46.8C314.801,52.8,314.801,62.1,309.101,68.101z"/>
<path style="fill:#444444;" d="M512,405c0-8.291-6.709-15-15-15s-15,6.709-15,15v23.789l-64.395-64.395
	c-5.859-5.859-15.352-5.859-21.211,0s-5.859,15.352,0,21.211L460.789,450H437c-8.291,0-15,6.709-15,15s6.709,15,15,15h60
	c8.307,0,15-6.835,15-15V405z"/>
<path style="fill:#5A5A5A;" d="M116.605,364.395c-5.859-5.859-15.352-5.859-21.211,0L30,428.789V405c0-8.291-6.709-15-15-15
	s-15,6.709-15,15v60c0,8.165,6.693,15,15,15h60c8.291,0,15-6.709,15-15s-6.709-15-15-15H51.211l65.395-64.395
	C122.465,379.746,122.465,370.254,116.605,364.395z"/>
<path style="fill:#3AAAFF;" d="M421,225L265.3,508.7c-2.701,2.098-6,3.3-9.3,3.3s-6.599-1.201-9.3-3.3l-150-122
	C93.1,384,91,379.499,91,375V225c0-5.101,1.5-6.301,3.6-9h322.8C419.2,218.399,421,219.6,421,225z"/>
<path style="fill:#444444;" d="M256,120V0c3.9,0,7.8,1.5,10.499,4.501L309.101,46.8c5.7,6,5.7,15.3,0,21.301
	c-6,5.7-15.3,5.7-21.301,0l-16.8-16.8V105C271,113.401,264.401,120,256,120z"/>
<path style="fill:#FD3018;" d="M421,225v150c0,4.499-2.1,9-5.7,11.7l-150,122c-2.701,2.098-6,3.3-9.3,3.3V204.6L417.4,216
	C419.2,218.399,421,219.6,421,225z"/>
<path style="fill:#54E360;" d="M417.4,216L256,345L94.6,216c2.701-3.9,148.5-119.7,152.1-122.701c2.701-2.1,6-3.3,9.3-3.3
	s6.599,1.199,9.3,3.3C268.9,96,414.699,212.399,417.4,216z"/>
<path style="fill:#00CC71;" d="M417.4,216L256,345V90c3.3,0,6.599,1.199,9.3,3.3C268.9,96,414.699,212.399,417.4,216z"/>
<g>
</g>
<g>
</g>
<g>
</g>
<g>
</g>
<g>
</g>
<g>
</g>
<g>
</g>
<g>
</g>
<g>
</g>
<g>
</g>
<g>
</g>
<g>
</g>
<g>
</g>
<g>
</g>
<g>
</g>
</svg>
