<svg id="Layer_1" enable-background="new 0 0 512 512" height="512" viewBox="0 0 512 512" width="512" xmlns="http://www.w3.org/2000/svg"><g clip-rule="evenodd" fill-rule="evenodd"><g><path d="m306.437 390.755c4.751-17.453-5.674-35.676-23.128-40.427l-110.94-30.195c-14.725-1.949-28.093 1.616-39.885 10.648l-43.774 33.522 31.635 118.062c22.006-21.197 41.558-25.425 62.905-20.531l63.545 14.568c14.469 3.317 28.069 2.036 40.928-5.388l158.911-91.745c14.18-8.186 19.081-26.485 10.895-40.667-8.185-14.18-26.487-19.084-40.666-10.898l-110.667 63.891c.084-.279.164-.559.241-.84z" fill="#ffd6bd"/><path d="m266.011 413.882c17.478 4.757 35.668-5.65 40.426-23.127.155-.568.293-1.137.415-1.707-7.969 9.902-21.356 14.749-34.35 11.212l-59.262-16.13c-3.94-1.072-8.041 1.274-9.113 5.214-1.071 3.934 1.279 8.042 5.214 9.113z" fill="#f9c6aa"/><path d="m89.791 344.85 38.27 142.824c.934 3.485-1.152 7.098-4.636 8.031l-26.397 7.073c-3.484.933-7.096-1.152-8.03-4.637l-38.27-142.824c-.934-3.485 1.152-7.097 4.636-8.031l26.397-7.073c3.483-.933 7.096 1.152 8.03 4.637z" fill="#4294ff"/></g><g><path d="m276.909 260.755v-33.426h-81.996v38.231h-16v-46.231c0-4.418 3.582-8 8-8h89.996v-37.518h16v37.518h89.996c4.418 0 8 3.582 8 8v46.231h-16v-38.231h-81.996v33.426z" fill="#9ba7af"/><path d="m186.912 251.001c12.444 0 22.532 10.088 22.532 22.532s-10.088 22.532-22.532 22.532-22.532-10.088-22.532-22.532c.001-12.445 10.089-22.532 22.532-22.532zm195.993 0c12.444 0 22.531 10.088 22.531 22.532s-10.088 22.532-22.531 22.532c-12.444 0-22.532-10.088-22.532-22.532 0-12.445 10.088-22.532 22.532-22.532zm-97.996 0c12.444 0 22.532 10.088 22.532 22.532s-10.088 22.532-22.532 22.532-22.532-10.088-22.532-22.532c0-12.445 10.088-22.532 22.532-22.532z" fill="#ffe600"/><path d="m213.676 183.567c-30.744 0-55.898-25.154-55.898-55.898 0-27.31 20.039-50.813 46.983-55.179-.003-.24-.009-.479-.009-.719 0-34.668 28.103-62.771 62.771-62.771 20.83 0 39.286 10.149 50.704 25.768 5.419-3.703 11.971-5.87 19.03-5.87 18.652 0 33.772 15.12 33.772 33.772 0 3.733-.607 7.324-1.726 10.681 24.447 5.958 42.737 28.104 42.737 54.318 0 30.744-25.154 55.898-55.898 55.898z" fill="#4294ff"/></g></g></svg>