<svg id="Icons" height="512" viewBox="0 0 60 60" width="512" xmlns="http://www.w3.org/2000/svg"><g fill="#f9c82b"><path d="m31.042 1.66 1.584 3.181 3.391.588c.938.163 1.311 1.36.644 2.066l-2.412 2.553.512 3.544c.142.98-.835 1.72-1.686 1.277l-3.075-1.603-3.075 1.603c-.851.443-1.827-.296-1.686-1.277l.512-3.544-2.412-2.553c-.667-.706-.294-1.903.644-2.066l3.391-.588 1.584-3.181c.438-.88 1.646-.88 2.084 0z"/><path d="m13.042 9.66 1.584 3.181 3.391.588c.938.163 1.311 1.36.644 2.066l-2.412 2.553.512 3.544c.142.98-.835 1.72-1.686 1.277l-3.075-1.603-3.075 1.603c-.851.443-1.827-.296-1.686-1.277l.512-3.544-2.412-2.553c-.667-.706-.294-1.903.644-2.066l3.391-.588 1.584-3.181c.438-.88 1.646-.88 2.084 0z"/><path d="m49.042 9.66 1.584 3.181 3.391.588c.938.163 1.311 1.36.644 2.066l-2.412 2.553.512 3.544c.142.98-.835 1.72-1.686 1.277l-3.075-1.603-3.075 1.603c-.851.443-1.827-.296-1.686-1.277l.512-3.544-2.412-2.553c-.667-.706-.294-1.903.644-2.066l3.391-.588 1.584-3.181c.438-.88 1.646-.88 2.084 0z"/></g><path d="m19.4 43.4c-2.72 2.72-4.4 6.46-4.4 10.6 0 .55-.45 1-1 1h-12c-.55 0-1-.45-1-1 0-8 3.25-15.24 8.5-20.5h1s8.5 8.5 8.5 8.5z" fill="#d7342c"/><path d="m30 25 1 1v12l-1 1c-4.14 0-7.88 1.68-10.6 4.4l-9.9-9.9c5.26-5.25 12.5-8.5 20.5-8.5z" fill="#e99e32"/><path d="m50.5 33.5.5 1.5-9 9-1.4-.6c-2.72-2.72-6.46-4.4-10.6-4.4v-14c8 0 15.24 3.25 20.5 8.5z" fill="#f9c82b"/><path d="m59 54c0 .55-.45 1-1 1h-12c-.55 0-1-.45-1-1 0-4.14-1.68-7.88-4.4-10.6l9.9-9.9c5.25 5.26 8.5 12.5 8.5 20.5z" fill="#2aa869"/><path d="m33.72 56.46c4.8-2.6 12.35-7.08 18.05-10.49 1.04-.63.31-2.2-.83-1.81-6.29 2.16-14.57 5.05-19.65 7.06z" fill="#0a365e"/><circle cx="30" cy="55" fill="#06293f" r="4"/></svg>