<svg id="Layer_1" enable-background="new 0 0 256 256" viewBox="0 0 256 256" xmlns="http://www.w3.org/2000/svg"><g id="XMLID_102_"><path id="XMLID_305_" d="m141.795 128.59v70.99c0 2.76-2.24 5-5 5h-46.82v31.77h14.22c2.75 0 5 2.25 5 5v5.37c0 2.75-2.25 5-5 5h-61.31c-2.75 0-5-2.25-5-5v-5.37c0-2.75 2.25-5 5-5h14.22v-31.77h-46.81c-2.77 0-5-2.24-5-5v-70.99c0-2.76 2.23-5 5-5h126.5c2.76 0 5 2.24 5 5z" fill="#d8d6d7"/><path id="XMLID_295_" d="m141.795 128.59v70.99c0 2.76-2.24 5-5 5h-46.82v31.77h14.22c2.75 0 5 2.25 5 5v5.37c0 2.75-2.25 5-5 5h-45.41c-2.75 0-5-2.25-5-5v-5.37c0-2.75 2.25-5 5-5h14.23v-31.77h-46.82c-2.76 0-5-2.24-5-5v-70.99c0-2.76 2.24-5 5-5h110.6c2.76 0 5 2.24 5 5z" fill="#fff"/><path id="XMLID_178_" d="m150.005 67.45c-.58 11.59-9.82 21.1-21.39 21.99-8.61.67-16.32-3.36-20.86-9.79-.87-1.22-2.7-1.24-3.6-.04-4.49 6-11.51 9.99-19.48 10.38-.43.03-.86.04-1.3.04-.59 0-1.17-.02-1.75-.06-4.75-.32-9.14-1.91-12.85-4.44-.87-.6-2.03-.53-2.79.2-3.75 3.58-8.78 5.85-14.34 6.04-.26.02-.53.02-.79.02-14.57 0-25.81-14.19-20.66-29.5 1.82-5.41 5.81-9.83 10.93-12.22 1.19-.55 1.72-1.97 1.21-3.18-1.13-2.69-2.69-7.6-2.26-13.92 1.07-15.64 15.14-28.71 30.82-28.69 2.74 0 5.39.37 7.91 1.04 9.39 2.5 17.02 9.33 20.62 18.22.55 1.35 2.15 1.91 3.44 1.23 2.97-1.56 6.35-2.44 9.94-2.44 11.38 0 20.75 8.9 21.37 20.21.06.96.62 1.84 1.52 2.21 8.77 3.65 14.83 12.5 14.31 22.7z" fill="#d8d6d7"/><path id="XMLID_175_" d="m150.005 67.45c-.58 11.59-9.82 21.1-21.39 21.99-8.61.67-16.32-3.36-20.86-9.79-.87-1.22-2.7-1.24-3.6-.04-4.49 6-11.51 9.99-19.48 10.38-.43.03-.86.04-1.3.04-.59 0-1.17-.02-1.75-.06-4.75-.32-9.14-1.91-12.85-4.44-.87-.6-2.03-.53-2.79.2-3.75 3.58-8.78 5.85-14.34 6.04-7.47-5.66-11.4-15.77-7.82-26.4 1.91-5.69 6.12-10.34 11.51-12.86 1.26-.59 1.81-2.08 1.27-3.36-1.18-2.83-2.83-8-2.38-14.66.95-13.78 11.49-25.67 24.58-29.17 9.39 2.5 17.02 9.33 20.62 18.22.55 1.35 2.15 1.91 3.44 1.23 2.97-1.56 6.35-2.44 9.94-2.44 11.38 0 20.75 8.9 21.37 20.21.06.96.62 1.84 1.52 2.21 8.77 3.65 14.83 12.5 14.31 22.7z" fill="#fff"/><path id="XMLID_316_" d="m114.745 52.68c0 7.16-2.97 13.62-7.76 18.22-4.54 4.36-10.71 7.05-17.5 7.05-.32 0-.64-.01-.96-.02-6.42-.24-12.22-2.88-16.55-7.03-4.78-4.6-7.76-11.06-7.76-18.22s2.98-13.62 7.76-18.22c4.35-4.18 10.2-6.82 16.66-7.03.28-.02.57-.02.85-.02 6.79 0 12.96 2.69 17.5 7.05 4.79 4.6 7.76 11.06 7.76 18.22z" fill="#1c868e"/><path id="XMLID_307_" d="m114.745 52.68c0 7.16-2.97 13.62-7.76 18.22-4.54 4.36-10.71 7.05-17.5 7.05-.32 0-.64-.01-.96-.02-1.4-1.06-2.7-2.27-3.89-3.63-4.79-5.44-7.76-13.1-7.76-21.58s2.97-16.14 7.76-21.58c1.22-1.39 2.56-2.64 4-3.71.28-.02.57-.02.85-.02 6.79 0 12.96 2.69 17.5 7.05 4.79 4.6 7.76 11.06 7.76 18.22z" fill="#40c4df"/><path id="XMLID_234_" d="m250.705 19.61v91.58c0 2.76-2.24 5-5 5h-47.67c-2.76 0-5-2.24-5-5v-91.58c0-2.76 2.24-5 5-5h47.67c2.76 0 5 2.24 5 5z" fill="#fff"/><path id="XMLID_96_" d="m239.628 100.059h-35.514c-2.761 0-5-2.239-5-5v-64.022c0-2.761 2.239-5 5-5h35.514c2.761 0 5 2.239 5 5v64.021c0 2.762-2.238 5.001-5 5.001z" fill="#40c4df"/><path id="XMLID_95_" d="m230.12 20.958h-16.338c-.946 0-1.817-.513-2.276-1.341l-2.775-5.008h26.28l-2.585 4.951c-.448.859-1.337 1.398-2.306 1.398z" fill="#d8d6d7"/><path id="XMLID_245_" d="m236.635 148.92v85.85c0 2.76-2.24 5-5 5h-65.04c-2.76 0-5-2.24-5-5v-85.85c0-2.76 2.24-5 5-5h65.04c2.76 0 5 2.24 5 5z" fill="#d8d6d7"/><path id="XMLID_92_" d="m225.899 224.549h-53.568c-2.761 0-5-2.239-5-5v-63.788c0-2.761 2.239-5 5-5h53.568c2.761 0 5 2.239 5 5v63.788c0 2.761-2.239 5-5 5z" fill="#40c4df"/><path id="XMLID_1440_" d="m125.954 193.997h-104.827c-2.761 0-5-2.239-5-5v-49.83c0-2.761 2.239-5 5-5h104.827c2.761 0 5 2.239 5 5v49.83c0 2.762-2.239 5-5 5z" fill="#40c4df"/><path id="XMLID_298_" d="m21.195 134.17v59.83h-.07c-2.76 0-5-2.24-5-5v-49.83c0-2.76 2.24-5 5-5z" fill="#1c868e"/><g id="XMLID_235_" fill="#491352"><path id="XMLID_241_" d="m204.422 229.314h-10.615c-1.368 0-2.477 1.109-2.477 2.477s1.109 2.477 2.477 2.477h10.615c1.368 0 2.477-1.109 2.477-2.477s-1.109-2.477-2.477-2.477z"/><path id="XMLID_490_" d="m136.465 42.91c-.16-.07-.28-.26-.29-.48-.938-17.098-19.324-27.269-34.24-19.43-.272.144-.57.009-.65-.21-8.632-21.263-30.34-20.478-30.44-20.51-21.826 0-39.629 23.176-30.36 45.38.475 1.092-2.818.794-7.57 6.08-13.479 15.132-3.016 40.05 17.94 40.05 11.38 0 16.168-7.077 16.79-6.61 12.033 8.203 28.894 5.966 38.11-6.38.04-.05.12-.1.19-.08.339 0 7.326 11.908 22.82 10.72 12.61-.98 22.6-11.24 23.24-23.89.54-10.65-5.71-20.55-15.54-24.64zm11.54 24.44c-.997 20.019-26.954 27.675-38.62 11.15-1.635-2.336-5.131-2.369-6.83-.09-7.927 10.598-22.365 12.473-32.65 5.47-1.67-1.15-3.85-.98-5.3.4-8.809 8.43-22.959 6.939-29.95-2.8-7.008-9.768-3.889-24.345 7.32-29.6 2.17-1.01 3.13-3.54 2.2-5.77-1.17-2.8-2.49-7.34-2.11-13 1-14.55 14.17-26.83 28.78-26.83h.04c11.79.02 22.26 7.09 26.69 18.01.987 2.436 3.888 3.478 6.22 2.25 12.342-6.48 27.603 1.909 28.39 16.11.09 1.75 1.17 3.3 2.74 3.95 8.28 3.44 13.54 11.78 13.08 20.75z"/><path id="XMLID_493_" d="m89.465 25.42c-12.293.025-19.997 8.786-20.37 9.04l.06.06c-9.259 10.287-9.27 26.02 0 36.32l-.06.06c.789.539 7.442 9.05 20.39 9.05 12.83 0 19.645-8.544 20.39-9.05l-.06-.06c14.978-16.679 4.544-44.862-20.35-45.42zm-5.45 4.65s0-.01.01-.01h.001c-1.609 1.806-3.472 4.132-5.204 6.863-.483-.279-1.799-.867-3.807-2.453.437-.874 7.344-4.4 9-4.4zm-11.92 7.17c1.469 1.239 3.058 2.289 4.727 3.169-1.592 3.1-2.871 6.568-3.432 10.272h-7.086c.178-.71.182-7.183 5.791-13.441zm-5.79 17.441h6.781c.004 3.772.81 7.379 2.547 10.941-1.239.73-2.418 1.559-3.538 2.498-3.37-3.76-5.37-8.419-5.79-13.439zm8.75 16.249c-.01 0-.02 0-.02-.01-.01-.01-.02-.02-.02-.03 1.36-1.069 2.291-1.592 2.631-1.81 1.362 2.018 3.029 3.967 4.996 5.845-.292-.122-4.156-1.18-7.587-3.995zm12.426 2.962c-2.514-2.098-4.568-4.289-6.174-6.563 1.968-.739 4.046-1.209 6.174-1.399zm0-11.962c-2.858.2-5.637.85-8.256 1.91 0 0-.001 0-.001.001-1.47-3.021-2.138-6.034-2.138-9.16h10.395zm0-11.249h-10.034c.555-3.092 1.69-6.024 3.081-8.673.614.168 3.128 1.15 6.952 1.422v7.251zm0-11.252c-1.658-.14-3.285-.46-4.863-.949 1.651-2.509 3.404-4.64 4.863-6.246zm16.464-4.959c-1.918 1.515-3.307 2.173-3.801 2.46-1.733-2.734-3.598-5.063-5.208-6.87 2.223.372 6.381 2.22 9.009 4.41zm-12.464-2.244c1.462 1.606 3.22 3.739 4.874 6.254-1.58.49-3.21.81-4.87.95-.001 0-.003 0-.004 0zm0 11.204h.004c2.39-.17 4.72-.65 6.95-1.42.003-.001.005-.002.008-.003 1.388 2.648 2.52 5.579 3.073 8.674h-10.035zm0 11.251h10.395c-.001 3.118-.662 6.126-2.136 9.157-2.618-1.059-5.396-1.708-8.254-1.908-.001 0-.003 0-.004 0v-7.249zm0 19.211v-7.962h.004c2.13.19 4.199.65 6.169 1.4-1.606 2.274-3.66 4.465-6.173 6.562zm9.644-1.062c-2.12 1.23-3.467 1.631-4.808 2.098 1.968-1.878 3.634-3.827 4.997-5.844.519.332 1.23.698 2.632 1.816-.807.654-2.714 1.93-2.821 1.93zm5.74-4.7c-1.659-1.405-2.893-2.096-3.534-2.512 1.728-3.545 2.542-7.153 2.545-10.937h6.779c-.42 5.02-2.42 9.689-5.79 13.449zm5.79-17.449h-7.084c-.561-3.704-1.84-7.173-3.432-10.273 1.669-.88 3.257-1.929 4.726-3.168 3.37 3.76 5.37 8.42 5.79 13.441z"/><path id="XMLID_547_" d="m245.705 12.61c-25.137 0-35.866 0-47.67 0-3.86 0-7 3.14-7 7v91.58c0 3.86 3.14 7 7 7h47.67c3.86 0 7-3.14 7-7v-91.58c0-3.86-3.14-7-7-7zm-13.99 4-1.06 2.02c-.11.2-.31.33-.53.33h-16.34c-.22 0-.42-.12-.53-.31l-1.13-2.04zm16.99 94.58c0 1.66-1.34 3-3 3h-47.67c-1.65 0-3-1.34-3-3v-91.58c0-1.66 1.35-3 3-3h9.52l2.2 3.98c.81 1.46 2.36 2.37 4.03 2.37h16.34c1.71 0 3.28-.95 4.07-2.47l2.03-3.88h9.48c1.66 0 3 1.34 3 3z"/><path id="XMLID_569_" d="m239.625 24.04h-35.51c-3.86 0-7 3.14-7 7v64.02c0 3.86 3.14 7 7 7h35.51c3.86 0 7-3.14 7-7v-64.02c0-3.86-3.14-7-7-7zm3 71.02c0 1.65-1.34 3-3 3h-35.51c-1.65 0-3-1.35-3-3v-64.02c0-1.66 1.35-3 3-3h35.51c1.66 0 3 1.34 3 3z"/><path id="XMLID_572_" d="m231.635 141.92h-65.04c-3.86 0-7 3.14-7 7v85.85c0 3.86 3.14 7 7 7h65.04c3.86 0 7-3.14 7-7v-85.85c0-3.86-3.14-7-7-7zm3 92.85c0 1.65-1.35 3-3 3h-65.04c-1.65 0-3-1.35-3-3v-85.85c0-1.65 1.35-3 3-3h65.04c1.65 0 3 1.35 3 3z"/><path id="XMLID_609_" d="m225.895 148.76h-53.56c-3.86 0-7 3.14-7 7v63.79c0 3.86 3.14 7 7 7h53.56c3.86 0 7-3.14 7-7v-63.79c0-3.86-3.14-7-7-7zm3 70.79c0 1.65-1.34 3-3 3h-53.56c-1.66 0-3-1.35-3-3v-63.79c0-1.65 1.34-3 3-3h53.56c1.66 0 3 1.35 3 3z"/><path id="XMLID_623_" d="m136.795 121.59h-126.5c-3.86 0-7 3.14-7 7v70.99c0 3.86 3.14 7 7 7h44.81v27.77h-12.22c-3.86 0-7 3.14-7 7v5.37c0 3.86 3.14 7 7 7h61.31c3.86 0 7-3.14 7-7v-5.37c0-3.86-3.14-7-7-7h-12.22v-27.77h44.82c3.85 0 7-3.14 7-7v-70.99c0-3.86-3.15-7-7-7zm-32.6 116.76c1.66 0 3 1.35 3 3v5.37c0 1.66-1.34 3-3 3h-61.31c-1.66 0-3-1.34-3-3v-5.37c0-1.65 1.34-3 3-3zm-45.09-4v-27.77h28.87v27.77zm80.69-34.77c0 1.65-1.35 3-3 3-23.989 0-98.334 0-126.5 0-1.66 0-3-1.35-3-3v-70.99c0-1.66 1.34-3 3-3h126.5c1.65 0 3 1.34 3 3z"/><path id="XMLID_776_" d="m125.955 132.17h-104.83c-3.86 0-7 3.14-7 7v49.83c0 3.86 3.14 7 7 7h104.83c3.86 0 7-3.14 7-7v-49.83c0-3.86-3.14-7-7-7zm3 56.83c0 1.65-1.35 3-3 3h-104.83c-1.65 0-3-1.35-3-3v-49.83c0-1.66 1.35-3 3-3h104.83c1.65 0 3 1.34 3 3z"/><path id="XMLID_777_" d="m144.295 36.464h37c2.644 0 2.648-4 0-4h-37c-2.644 0-2.648 4 0 4z"/><path id="XMLID_778_" d="m194.663 138.133c.512 0 1.023-.195 1.414-.586.781-.781.781-2.047 0-2.828l-47.343-47.342c-1.873-1.873-4.698.96-2.828 2.828l47.343 47.342c.391.391.902.586 1.414.586z"/><path id="XMLID_779_" d="m75.54 114.947v-18.5c0-2.644-4-2.648-4 0v18.5c0 1.104.896 2 2 2s2-.896 2-2z"/><path id="XMLID_780_" d="m224.212 105.705h-4.684c-1.368 0-2.477 1.109-2.477 2.477s1.109 2.477 2.477 2.477h4.684c1.368 0 2.477-1.109 2.477-2.477 0-1.369-1.109-2.477-2.477-2.477z"/></g></g></svg>