<svg height="512" viewBox="0 0 64 64" width="512" xmlns="http://www.w3.org/2000/svg"><g id="Layer_62" data-name="Layer 62"><path d="m50 3.4h-36a10.62 10.62 0 0 0 -10.6 10.6v36a10.62 10.62 0 0 0 10.6 10.6h36a10.62 10.62 0 0 0 10.6-10.6v-36a10.62 10.62 0 0 0 -10.6-10.6zm-14.59 30-3.85 3.85 2.25 2.25a.74.74 0 0 1 0 1.06l-5 5a7.79 7.79 0 0 1 -10.46.5l-3.22 3.23a.76.76 0 0 1 -1.07 0 .75.75 0 0 1 0-1.06l3.26-3.23a7.79 7.79 0 0 1 .51-10.45l5-5a.77.77 0 0 1 1.06 0l2.26 2.26 3.85-3.81a.74.74 0 0 1 1 0 .75.75 0 0 1 0 1l-3.85 3.85 3.35 3.35 3.85-3.85a.74.74 0 0 1 1.06 0 .75.75 0 0 1 0 1.06zm14.5-18.88-3.23 3.23a7.79 7.79 0 0 1 -.51 10.45l-5 5a.75.75 0 0 1 -1.06 0l-9.95-9.95a.74.74 0 0 1 0-1.06l5-5a7.79 7.79 0 0 1 10.46-.5l3.22-3.23a.77.77 0 0 1 1.07 0 .75.75 0 0 1 0 1.07z" fill="#0fbcf9"/></g></svg>