<svg height="512" viewBox="0 0 446.5039 364.3081" width="512" xmlns="http://www.w3.org/2000/svg"><g id="Layer_2" data-name="Layer 2"><g id="Layer_1-2" data-name="Layer 1"><rect fill="#414042" height="364.308" rx="6.006" width="212.626" x="116.939"/><path d="m131.695 31.636h183.114v285.836h-183.114z" fill="#edf3f3"/><path d="m204.087 331.934h40.31v19.481h-40.31z" fill="#058789"/><path d="m193.612 13.079h61.258v8.01h-61.258z" fill="#344951"/><g fill="#f77c5b"><rect height="77.474" rx="12.638" width="77.474" x="184.515" y="97.487"/><path d="m433.8656 107.8668a2.2606 2.2606 0 0 1 2.2583 2.2576v52.1982a2.2606 2.2606 0 0 1 -2.2583 2.2576h-52.1983a2.26 2.26 0 0 1 -2.2575-2.2576v-52.1982a2.26 2.26 0 0 1 2.2575-2.2576zm0-10.38h-52.1983a12.6375 12.6375 0 0 0 -12.6373 12.6376v52.1982a12.6379 12.6379 0 0 0 12.6373 12.6374h52.1983a12.6381 12.6381 0 0 0 12.6383-12.6376v-52.198a12.6376 12.6376 0 0 0 -12.6383-12.6376z"/><path d="m375.0877 141.4131h-2.38v-10.3792h2.38zm-16.2192 0h-13.8395v-10.3792h13.8395zm-27.6806 0h-13.8394v-10.3792h13.8394zm-27.6789 0h-13.839v-10.3792h13.839zm-27.68 0h-13.84v-10.3792h13.84z"/></g><rect fill="#058789" height="77.474" rx="12.638" transform="matrix(-1 0 0 -1 446.504 451.272)" width="77.474" x="184.515" y="186.899"/><path d="m64.8366 197.2791a2.26 2.26 0 0 1 2.2575 2.2575v52.1983a2.2606 2.2606 0 0 1 -2.2575 2.2583h-52.1991a2.2606 2.2606 0 0 1 -2.2575-2.2583v-52.1983a2.26 2.26 0 0 1 2.2575-2.2575zm0-10.38h-52.1991a12.6379 12.6379 0 0 0 -12.6375 12.6375v52.1983a12.6381 12.6381 0 0 0 12.6375 12.6383h52.1991a12.6381 12.6381 0 0 0 12.6375-12.6383v-52.1983a12.6379 12.6379 0 0 0 -12.6375-12.6375z" fill="#088789"/><path d="m184.5157 230.8253h-13.84v-10.3792h13.84zm-27.6805 0h-13.8395v-10.3792h13.8395zm-27.679 0h-13.8394v-10.3792h13.8394zm-27.6805 0h-13.8394v-10.3792h13.8394zm-27.6789 0h-2.3814v-10.3792h2.3814z" fill="#088789"/></g></g></svg>