<svg id="Capa_1" enable-background="new 0 0 512 512" height="512" viewBox="0 0 512 512" width="512" xmlns="http://www.w3.org/2000/svg" xmlns:xlink="http://www.w3.org/1999/xlink"><linearGradient id="SVGID_1_" gradientUnits="userSpaceOnUse" x1="0" x2="512" y1="256" y2="256"><stop offset="0" stop-color="#d2deff" stop-opacity="0"/><stop offset=".459" stop-color="#cee2fd" stop-opacity=".67"/><stop offset=".6852" stop-color="#c9e7fa"/></linearGradient><g><g><path d="m20.337 133.512c-23.967 39.398-26.493 107.613-8.937 150.256 15.377 37.351 45.966 72.409 86.12 76.801 14.766 1.615 29.858-1.024 44.472 1.638 50.257 9.152 68.952 71.09 108.01 104.014 27.182 22.913 64.898 31.021 100.174 26.607s68.302-20.363 97.376-40.824c22.957-16.157 44.436-36.022 55.764-61.707 23.744-53.839-4.19-118.501-47.587-158.239-13.516-12.377-28.581-23.294-39.875-37.727s-18.48-33.695-13.099-51.214c4.293-13.977 15.849-24.812 20.227-38.763 5.958-18.984-3.035-40.281-17.802-53.616s-34.308-20.039-53.666-24.64c-81.103-19.28-258.823-11.524-331.177 107.414z" fill="url(#SVGID_1_)"/></g><path d="m303.005 418.994c0-4.518-1.818-8.615-4.755-11.613 2.936-2.998 4.755-7.095 4.755-11.613 0-9.161-7.453-16.613-16.613-16.613s-16.613 7.453-16.613 16.613c0 4.518 1.818 8.615 4.755 11.613-2.936 2.998-4.755 7.095-4.755 11.613 0 2.761 2.238 5 5 5s5-2.239 5-5c0-3.646 2.967-6.613 6.613-6.613s6.613 2.967 6.613 6.613c0 2.761 2.238 5 5 5s5-2.239 5-5zm-10-23.227c0 3.646-2.967 6.613-6.613 6.613s-6.613-2.967-6.613-6.613 2.967-6.613 6.613-6.613 6.613 2.967 6.613 6.613z" fill="#bae1f8"/><path d="m274.514 387.303c-2.936 2.998-4.755 7.095-4.755 11.613 0 2.761 2.238 5 5 5s5-2.239 5-5c0-3.646 2.967-6.613 6.613-6.613s6.613 2.967 6.613 6.613c0 2.761 2.238 5 5 5s5-2.239 5-5c0-4.518-1.818-8.615-4.755-11.613 2.936-2.998 4.755-7.095 4.755-11.613 0-9.161-7.453-16.613-16.613-16.613s-16.613 7.453-16.613 16.613c.001 4.518 1.819 8.615 4.755 11.613zm18.472-11.613c0 3.646-2.967 6.613-6.613 6.613s-6.613-2.967-6.613-6.613 2.967-6.613 6.613-6.613 6.613 2.966 6.613 6.613z" fill="#014073"/><path d="m272.932 459.593h78.053c2.762 0 5 2.239 5 5s-2.238 5-5 5h-78.053c-2.762 0-5-2.239-5-5s2.239-5 5-5z" fill="#bae1f8"/><g><g><g><path d="m230.435 463.182h-181.87c-8.284 0-15-6.716-15-15v-353.671c0-8.284 6.716-15 15-15h181.87c8.284 0 15 6.716 15 15v353.671c0 8.284-6.716 15-15 15z" fill="#bae1f8"/><path d="m463.435 355.203h-181.87c-8.284 0-15-6.716-15-15v-245.692c0-8.284 6.716-15 15-15h181.87c8.284 0 15 6.716 15 15v245.692c0 8.284-6.716 15-15 15z" fill="#bae1f8"/><g><g><g><path d="m230.435 443.182h-181.87c-8.284 0-15-6.716-15-15v-353.671c0-8.284 6.716-15 15-15h181.87c8.284 0 15 6.716 15 15v353.671c0 8.284-6.716 15-15 15z" fill="#fff"/><path d="m33.565 171.528h211.87v76.461h-211.87z" fill="#73aacf"/><path d="m245.435 110.857v-36.346c0-8.284-6.716-15-15-15h-181.87c-8.284 0-15 6.716-15 15v36.346z" fill="#226191"/><path d="m230.435 448.182h-36.435c-2.761 0-5-2.238-5-5s2.239-5 5-5h36.435c5.514 0 10-4.486 10-10v-353.671c0-5.514-4.486-10-10-10h-181.87c-5.514 0-10 4.486-10 10v353.671c0 5.514 4.486 10 10 10h111.435c2.761 0 5 2.238 5 5s-2.239 5-5 5h-111.435c-11.028 0-20-8.972-20-20v-353.671c0-11.028 8.972-20 20-20h181.87c11.028 0 20 8.972 20 20v353.671c0 11.028-8.972 20-20 20z" fill="#014073"/><g fill="#fff"><path d="m72.779 90.241c-2.761 0-5-2.238-5-5v-.115c0-2.762 2.239-5 5-5s5 2.238 5 5v.115c0 2.762-2.238 5-5 5z"/><path d="m92.893 90.241c-2.761 0-5-2.238-5-5v-.115c0-2.762 2.239-5 5-5s5 2.238 5 5v.115c0 2.762-2.239 5-5 5z"/><path d="m113.006 90.241c-2.761 0-5-2.238-5-5v-.115c0-2.762 2.239-5 5-5s5 2.238 5 5v.115c0 2.762-2.239 5-5 5z"/><path d="m206.221 90.184h-26.52c-2.762 0-5-2.239-5-5s2.238-5 5-5h26.52c2.762 0 5 2.239 5 5s-2.239 5-5 5z"/><path d="m162.471 90.184h-6.52c-2.762 0-5-2.239-5-5s2.238-5 5-5h6.52c2.762 0 5 2.239 5 5s-2.239 5-5 5z"/></g></g><g><path d="m478.43 74.512v245.69c0 8.29-6.71 15-15 15h-181.86c-8.29 0-15-6.71-15-15v-245.69c0-8.29 6.71-15 15-15h181.86c8.29 0 15 6.71 15 15z" fill="#fff"/><path d="m478.43 261.346v58.855c0 8.29-6.71 15-15 15h-181.86c-8.29 0-15-6.71-15-15v-58.855z" fill="#3e85a9"/><path d="m478.435 110.857v-36.346c0-8.284-6.716-15-15-15h-181.87c-8.284 0-15 6.716-15 15v36.346z" fill="#226191"/><path d="m463.435 340.203h-181.87c-11.028 0-20-8.972-20-20v-54.87c0-2.762 2.239-5 5-5s5 2.238 5 5v54.87c0 5.514 4.486 10 10 10h181.87c5.514 0 10-4.486 10-10v-245.692c0-5.514-4.486-10-10-10h-181.87c-5.514 0-10 4.486-10 10v156.822c0 2.762-2.239 5-5 5s-5-2.238-5-5v-156.822c0-11.028 8.972-20 20-20h181.87c11.028 0 20 8.972 20 20v245.692c0 11.028-8.972 20-20 20z" fill="#014073"/><g fill="#fff"><path d="m305.779 90.241c-2.761 0-5-2.238-5-5v-.115c0-2.762 2.239-5 5-5s5 2.238 5 5v.115c0 2.762-2.238 5-5 5z"/><path d="m325.893 90.241c-2.761 0-5-2.238-5-5v-.115c0-2.762 2.239-5 5-5s5 2.238 5 5v.115c0 2.762-2.239 5-5 5z"/><path d="m346.006 90.241c-2.761 0-5-2.238-5-5v-.115c0-2.762 2.239-5 5-5s5 2.238 5 5v.115c0 2.762-2.239 5-5 5z"/><path d="m439.221 90.184h-26.52c-2.762 0-5-2.239-5-5s2.238-5 5-5h26.52c2.762 0 5 2.239 5 5s-2.239 5-5 5z"/><path d="m395.471 90.184h-6.52c-2.762 0-5-2.239-5-5s2.238-5 5-5h6.52c2.762 0 5 2.239 5 5s-2.239 5-5 5z"/></g></g></g><g fill="#014073"><path d="m272.913 428.182h11.52c2.762 0 5-2.239 5-5s-2.238-5-5-5h-11.52c-2.762 0-5 2.239-5 5s2.238 5 5 5z"/><path d="m304.446 428.182h46.52c2.762 0 5-2.239 5-5s-2.238-5-5-5h-46.52c-2.762 0-5 2.239-5 5s2.239 5 5 5z"/><path d="m272.913 449.515h78.053c2.762 0 5-2.239 5-5s-2.238-5-5-5h-78.053c-2.762 0-5 2.239-5 5s2.238 5 5 5z"/></g></g></g><g><path d="m157.508 303.009h-86.52c-2.762 0-5-2.239-5-5s2.238-5 5-5h86.52c2.762 0 5 2.239 5 5s-2.238 5-5 5z" fill="#a9d2ea"/><path d="m207.508 331.509h-136.52c-2.762 0-5-2.239-5-5s2.238-5 5-5h136.52c2.762 0 5 2.239 5 5s-2.238 5-5 5z" fill="#a9d2ea"/><circle cx="208.013" cy="298.009" fill="#ff7eb8" r="5"/><g><g><path d="m207.508 350.009h-136.52c-2.762 0-5-2.239-5-5s2.238-5 5-5h136.52c2.762 0 5 2.239 5 5s-2.238 5-5 5z" fill="#a9d2ea"/></g></g><g><g><path d="m207.508 368.509h-136.52c-2.762 0-5-2.239-5-5s2.238-5 5-5h136.52c2.762 0 5 2.239 5 5s-2.238 5-5 5z" fill="#a9d2ea"/></g></g><g><g><path d="m207.508 387.009h-136.52c-2.762 0-5-2.239-5-5s2.238-5 5-5h136.52c2.762 0 5 2.239 5 5s-2.238 5-5 5z" fill="#a9d2ea"/></g></g><g><g><path d="m207.508 405.509h-136.52c-2.762 0-5-2.239-5-5s2.238-5 5-5h136.52c2.762 0 5 2.239 5 5s-2.238 5-5 5z" fill="#a9d2ea"/></g></g></g><g><path d="m183.641 253.784c-.365-1.302-1.892-1.898-3.026-1.161-2.092 1.36-3.944 2.039-5.556 2.039-1.878 0-3.14-.721-3.79-2.165-.65-1.441-.974-3.898-.974-7.362v-54.859c0-7.938-.542-14.218-1.624-18.839-1.083-4.619-3.215-8.516-6.388-11.693-3.465-3.465-7.796-5.918-12.993-7.362-11.286-3.137-23.338-3.068-34.767-.735-9.49 1.937-19.993 5.509-25.757 13.836-7.358 10.631-.595 26.96 12.883 26.96 16.749.001 23.329-21.575 8.875-30.528 3.932-1.577 11.417-3.756 18.84-1.432 5.773 1.808 9.735 7.196 9.749 13.246v.09 16.89c0 3.898-1.84 6.967-5.522 9.203-15.226 9.25-36.561 9.96-48.289 24.686-5.831 7.321-6.727 18.066-3.384 26.72 4.272 11.06 14.476 15.398 25.796 15.398 14 0 24.611-5.847 31.832-17.54.142 5.343 1.803 9.602 4.98 12.776 3.174 3.177 8.733 4.764 16.674 4.764 8.862 0 16.437-2.381 22.724-7.147.664-.504.956-1.362.731-2.165zm-44.528-17.887c-4.189 5.921-7.91 9.336-14.075 10.649-4.409.939-14.075-.606-14.075-11.013 0-9.997 11.477-14.727 17.106-18.337 5.63-3.465 9.312-6.638 11.044-9.528z" fill="#2a719b"/><circle cx="188.973" cy="154.953" fill="#ff7eb8" r="10.045"/></g><g><path d="m390.507 216.259h-86.52c-2.762 0-5-2.239-5-5s2.238-5 5-5h86.52c2.762 0 5 2.239 5 5s-2.238 5-5 5z" fill="#73aacf"/><circle cx="441.012" cy="211.259" fill="#3e85a9" r="5"/><g><g><g><path d="m440.507 248.259h-136.52c-2.762 0-5-2.239-5-5s2.238-5 5-5h136.52c2.762 0 5 2.239 5 5s-2.238 5-5 5z" fill="#73aacf"/></g></g></g><g><g><g><path d="m440.507 266.759h-136.52c-2.762 0-5-2.239-5-5s2.238-5 5-5h136.52c2.762 0 5 2.239 5 5s-2.238 5-5 5z" fill="#73aacf"/></g></g></g><g><g><g><path d="m440.507 285.259h-136.52c-2.762 0-5-2.239-5-5s2.238-5 5-5h136.52c2.762 0 5 2.239 5 5s-2.238 5-5 5z" fill="#73aacf"/></g></g></g><g><g><g><path d="m440.507 303.759h-136.52c-2.762 0-5-2.239-5-5s2.238-5 5-5h136.52c2.762 0 5 2.239 5 5s-2.238 5-5 5z" fill="#73aacf"/></g></g></g></g><g><path d="m345.683 170.033-19.886-35.168c-1.914-3.385-6.791-3.385-8.705 0l-19.886 35.168c-1.885 3.333.523 7.461 4.352 7.461h39.772c3.829 0 6.237-4.128 4.353-7.461z" fill="#73aacf"/><circle cx="371.113" cy="155.335" fill="#73aacf" r="22.246"/><path d="m440.507 177.243h-34.667c-2.761 0-5-2.239-5-5v-34.667c0-2.761 2.239-5 5-5h34.667c2.761 0 5 2.239 5 5v34.667c0 2.761-2.238 5-5 5z" fill="#ff7eb8"/></g></g><path d="m390.471 413.009c-2.761 0-5-2.238-5-5 0-3.309-2.691-6-6-6-2.761 0-5-2.238-5-5s2.239-5 5-5c3.309 0 6-2.691 6-6 0-2.762 2.239-5 5-5s5 2.238 5 5c0 3.309 2.691 6 6 6 2.761 0 5 2.238 5 5s-2.239 5-5 5c-3.309 0-6 2.691-6 6 0 2.762-2.239 5-5 5z" fill="#ff7eb8"/><path d="m455.397 491.593c-2.761 0-5-2.238-5-5 0-3.309-2.691-6-6-6-2.761 0-5-2.238-5-5s2.239-5 5-5c3.309 0 6-2.691 6-6 0-2.762 2.239-5 5-5s5 2.238 5 5c0 3.309 2.691 6 6 6 2.761 0 5 2.238 5 5s-2.239 5-5 5c-3.309 0-6 2.691-6 6 0 2.761-2.239 5-5 5z" fill="#ff7eb8"/><path d="m450.397 389.154c-1.28 0-2.559-.488-3.536-1.465-1.953-1.952-1.953-5.118 0-7.07l10-10c1.953-1.953 5.118-1.953 7.071 0 1.953 1.952 1.953 5.118 0 7.07l-10 10c-.976.977-2.255 1.465-3.535 1.465z" fill="#2a719b"/><path d="m223.993 492.534c-1.28 0-2.559-.488-3.536-1.465-1.953-1.952-1.953-5.118 0-7.07l10-10c1.953-1.953 5.118-1.953 7.071 0 1.953 1.952 1.953 5.118 0 7.07l-10 10c-.976.977-2.256 1.465-3.535 1.465z" fill="#2a719b"/><path d="m109.248 39.466c-1.28 0-2.559-.488-3.536-1.465-1.953-1.952-1.953-5.118 0-7.07l10-10c1.953-1.953 5.118-1.953 7.071 0 1.953 1.952 1.953 5.118 0 7.07l-10 10c-.976.977-2.255 1.465-3.535 1.465z" fill="#ff7eb8"/></g></g></svg>