<svg height="512" viewBox="0 0 64 64" width="512" xmlns="http://www.w3.org/2000/svg"><g id="Layer_5" data-name="Layer 5"><path d="m18.028 30.321 11.59-20.826 1.057 7.142 8.589 10.203 11.316 4.823-22.724 13.273-8.348 8.431-6.957-4.638-5.565-6.956z" fill="#97dfae"/><path d="m26.8905 41.7223 16.7955-10.3282s-6.7568-3.668-7.9151-8.1082l7.4324 5.502 7.377 2.4058-3.5159 2.6135-17.8661 8.88z" fill="#1f2a4c" opacity=".1"/><path d="m30.997 8.291-1.448 3.584 2.102 6.299 5.821 7.519 8.416 5.478h7.698l1.335-5.478-5.905-11.606-9.799-6.523-6.98-.411z" fill="#7fcc95"/><path d="m30.8863 7.3127s19.5918 2.8506 22.483 22.2741l1.5514-3.2832-4.9362-11.0755-5.3107-4.65-9.78-4.7952z" fill="#1f2a4c" opacity=".1"/><path d="m22.893 15.672h-6.929l-2.425 1.603-3.057-1.603h-6.548v-11.203h18.959z" fill="#ffcf6b"/><path d="m20.76 4.469v9.433h-5.903l-2.569 2.569.724 1.595 3.268-2.319h6.167l.369-10.384z" fill="#1f2a4c" opacity=".1"/><path d="m23.131 50.874 7.896 7.609 4.734-5.212-7.603-7.89-5.793 4.632z" fill="#ffcf6b"/><path d="m30.9212 47.7661c.1783-.0653 2.1473-2.5993 2.5994-2.0719a26.4228 26.4228 0 0 1 1.4694 2.2226l-1.6864 1.9878-2.0317-.7194z" fill="#ffcf6b"/><path d="m29 46.57-5.363 5.3634-.8442-1.6884s4.37-4.7674 4.519-4.7178 1.6882 1.0428 1.6882 1.0428z" fill="#1f2a4c" opacity=".1"/><path d="m40.056 45.704h19.553v13.616h-19.553z" fill="#5dc3db"/><path d="m39.947 57.655h17.764v-12.355l2.187.921-.153 13.506-18.647.383z" fill="#1f2a4c" opacity=".1"/></g><g id="Icon" fill="#5f6975"><path d="m23.8213 21.1045a1 1 0 0 1 -.8809-1.4727l6.1573-11.49a1 1 0 1 1 1.7636.9453l-6.1572 11.49a1.0019 1.0019 0 0 1 -.8828.5274z"/><path d="m18.1592 31.6719a1 1 0 0 1 -.8809-1.4727l3.3721-6.293a1.0006 1.0006 0 0 1 1.7637.9454l-3.3721 6.2929a1.0019 1.0019 0 0 1 -.8828.5274z"/><path d="m30.2285 43.74a1 1 0 0 1 -.4756-1.88l21.4471-11.5651a1 1 0 0 1 .9492 1.76l-21.4471 11.5651a.9893.9893 0 0 1 -.4736.12z"/><path d="m49.89 32.4248c-3.916 0-9.2431-2.6982-13.9794-7.4346-6.7227-6.7216-9.3418-14.6347-5.9629-18.0127 1.7109-1.71 4.5918-1.955 8.1093-.69a28.1764 28.1764 0 0 1 9.903 6.6525c6.7216 6.7217 9.3408 14.6338 5.9629 18.0127a5.5161 5.5161 0 0 1 -4.0329 1.4721zm-12.5658-8.8486c6.3233 6.3242 12.957 8.1914 15.1846 5.9629s.3613-8.86-5.9629-15.1846a26.1655 26.1655 0 0 0 -9.1659-6.1856c-2.708-.9726-4.9043-.8916-6.0186.2227-2.2265 2.2266-.3623 8.8594 5.9629 15.1846z"/><path d="m42.3682 25.3037a1 1 0 0 1 -.7071-1.707 2.71 2.71 0 1 0 -3.833-3.833 1 1 0 0 1 -1.414-1.4141 4.71 4.71 0 1 1 6.6611 6.6611.9964.9964 0 0 1 -.707.293z"/><path d="m18.6045 54.5557a2.286 2.286 0 0 1 -1.64-.6514l-9.9684-9.9688a2.7067 2.7067 0 0 1 .28-3.7929l4.3-4.3a1 1 0 1 1 1.414 1.414l-4.3 4.3c-.374.3741-.416.8282-.28.9649l9.9688 9.9685c.1377.1348.5908.0928.9649-.28l9.9707-9.9707a1 1 0 0 1 1.414 1.414l-9.9707 9.9707a3.0813 3.0813 0 0 1 -2.1533.9317z"/><path d="m28.6309 44.1133c-2.2745 0-5.1827-1.4668-7.78-4.0645-3.3467-3.3467-4.7813-7.2812-3.5694-9.789a1 1 0 1 1 1.8008.8691c-.7 1.4492.169 4.4922 3.1826 7.5059 3.02 3.02 6.1416 4.0127 7.417 3.2314a1 1 0 0 1 1.0489 1.7031 3.9585 3.9585 0 0 1 -2.0999.544z"/><path d="m30.44 60.3174a.9969.9969 0 0 1 -.7071-.293l-8.395-8.3944a1 1 0 0 1 0-1.4141l5.3174-5.3174a1 1 0 0 1 1.414 0l8.3955 8.3946a.9995.9995 0 0 1 0 1.414l-5.3183 5.3174a.9969.9969 0 0 1 -.7065.2929zm-6.98-9.3945 6.98 6.98 3.9038-3.9029-6.9815-6.98z"/><path d="m32.6094 51.8516a1 1 0 0 1 -.7071-1.7071l2.2877-2.2871-1.209-1.209-2.2871 2.2871a1 1 0 0 1 -1.4141-1.414l2.9941-2.9942a1 1 0 0 1 1.4141 0l2.623 2.6231a1 1 0 0 1 0 1.4141l-2.9941 2.9941a.9969.9969 0 0 1 -.7075.293z"/><path d="m13.8516 19.1621a.9971.9971 0 0 1 -.6875-.2744l-1.9922-1.8877h-5.793a2.3819 2.3819 0 0 1 -2.3789-2.3789v-9.2422a2.3819 2.3819 0 0 1 2.3789-2.3789h16.2422a2.3819 2.3819 0 0 1 2.3789 2.3789v9.2422a2.3819 2.3819 0 0 1 -2.3789 2.3789h-5.0889l-1.9931 1.8877a.9975.9975 0 0 1 -.6875.2744zm-8.4727-14.1621a.3792.3792 0 0 0 -.3789.3789v9.2422a.3792.3792 0 0 0 .3789.3789h6.1911a.9959.9959 0 0 1 .6875.2744l1.5938 1.51 1.5947-1.51a.9959.9959 0 0 1 .6878-.2744h5.4873a.3792.3792 0 0 0 .3789-.3789v-9.2422a.3792.3792 0 0 0 -.3789-.3789z"/><path d="m12 9h-4a1 1 0 0 1 0-2h4a1 1 0 0 1 0 2z"/><path d="m16 13h-8a1 1 0 0 1 0-2h8a1 1 0 0 1 0 2z"/><path d="m58.0928 61h-16.1856a2.91 2.91 0 0 1 -2.9072-2.9072v-11.1856a2.91 2.91 0 0 1 2.9072-2.9072h16.1856a2.91 2.91 0 0 1 2.9072 2.9072v11.1856a2.91 2.91 0 0 1 -2.9072 2.9072zm-16.1856-15a.9085.9085 0 0 0 -.9072.9072v11.1856a.9085.9085 0 0 0 .9072.9072h16.1856a.9085.9085 0 0 0 .9072-.9072v-11.1856a.9085.9085 0 0 0 -.9072-.9072z"/><path d="m49 56.4043a.9862.9862 0 0 1 -.36-.0674.999.999 0 0 1 -.64-.9326v-5.8086a1 1 0 0 1 1.74-.6728l2.6387 2.9042a1.0007 1.0007 0 0 1 0 1.3458l-2.6387 2.9042a1.0022 1.0022 0 0 1 -.74.3272zm1-4.2207v.6328l.2871-.3164z"/></g></svg>