<svg id="Layer_2" enable-background="new 0 0 512 512" height="512" viewBox="0 0 512 512" width="512" xmlns="http://www.w3.org/2000/svg"><g><g><path d="m378 10h-278l-90 90v402h368z" fill="#edeff1"/><path d="m100 100h-90l90-90z" fill="#d3d3d3"/></g><g><g><circle cx="410" cy="196" fill="#ffe352" r="60"/><circle cx="410" cy="196" fill="#ffb236" r="54"/><circle cx="410" cy="196" fill="#ffe352" r="48"/><path d="m410 190c-4.411 0-8-3.589-8-8s3.589-8 8-8 8 3.589 8 8h12c0-8.938-5.895-16.523-14-19.078v-7.722h-12v7.722c-8.105 2.555-14 10.139-14 19.078 0 11.028 8.972 20 20 20 4.411 0 8 3.589 8 8s-3.589 8-8 8-8-3.589-8-8h-12c0 8.938 5.895 16.523 14 19.078v7.722h12v-7.722c8.105-2.555 14-10.139 14-19.078 0-11.028-8.972-20-20-20z" fill="#6e83b7"/></g><g><g><path d="m494.5 502h-169c-4.142 0-7.5-3.358-7.5-7.5v-231c0-4.142 3.358-7.5 7.5-7.5h169c4.142 0 7.5 3.358 7.5 7.5v231c0 4.142-3.358 7.5-7.5 7.5z" fill="#6e83b7"/><path d="m318 315.5h184v5h-184z" fill="#466089"/><path d="m394 212h32v150h-32z" fill="#80d6fb" transform="matrix(0 1 -1 0 697 -123)"/><path d="m407.5 225.5h5v150h-5z" fill="#46bee8" transform="matrix(0 1 -1 0 710.5 -109.5)"/></g><g fill="#edeff1"><path d="m402 405h-64c-1.657 0-3-1.343-3-3v-64c0-1.657 1.343-3 3-3h64c1.657 0 3 1.343 3 3v64c0 1.657-1.343 3-3 3z"/><path d="m482 405h-64c-1.657 0-3-1.343-3-3v-64c0-1.657 1.343-3 3-3h64c1.657 0 3 1.343 3 3v64c0 1.657-1.343 3-3 3z"/><path d="m402 485h-64c-1.657 0-3-1.343-3-3v-64c0-1.657 1.343-3 3-3h64c1.657 0 3 1.343 3 3v64c0 1.657-1.343 3-3 3z"/><path d="m482 485h-64c-1.657 0-3-1.343-3-3v-64c0-1.657 1.343-3 3-3h64c1.657 0 3 1.343 3 3v64c0 1.657-1.343 3-3 3z"/></g><g fill="#6e83b7"><path d="m391.5 365h-16.5v-16.5h-10v16.5h-16.5v10h16.5v16.5h10v-16.5h16.5z"/><path d="m389.285 437.785-7.07-7.07-12.215 12.215-12.215-12.215-7.07 7.07 12.215 12.215-12.215 12.215 7.07 7.07 12.215-12.215 12.215 12.215 7.07-7.07-12.215-12.215z"/><path d="m428.5 365h43v10h-43z"/><g><circle cx="450" cy="433.191" r="5.864"/><circle cx="450" cy="466.809" r="5.864"/><path d="m428.5 445h43v10h-43z"/></g></g></g></g><g><g><path d="m291.421 170.561 27.079-7.52v-30.081l-27.079-7.52h-.017c-.916-2.656-1.978-5.243-3.197-7.741l.005-.005 13.83-24.465-21.271-21.271-24.465 13.83-.005.005c-2.498-1.219-5.085-2.281-7.74-3.197v-.017l-7.52-27.079h-30.081l-7.52 27.079v.017c-2.656.916-5.242 1.977-7.74 3.197l-.005-.005-24.465-13.83-21.271 21.271 13.83 24.465.005.005c-1.219 2.498-2.281 5.085-3.197 7.741h-.017l-27.079 7.52v30.081l27.079 7.52h.017c.916 2.656 1.978 5.243 3.197 7.741l-.005.005-13.83 24.465 21.271 21.271 24.465-13.83.005-.005c2.498 1.219 5.085 2.281 7.74 3.197v.017l7.52 27.079h30.081l7.52-27.079v-.017c2.656-.916 5.242-1.978 7.74-3.197l.005.005 24.465 13.83 21.271-21.271-13.83-24.465-.005-.005c1.219-2.498 2.281-5.085 3.197-7.741zm-65.421 5.439c-15.464 0-28-12.536-28-28s12.536-28 28-28 28 12.536 28 28-12.536 28-28 28z" fill="#6e83b7"/><path d="m226 91.5c-31.204 0-56.5 25.296-56.5 56.5s25.296 56.5 56.5 56.5 56.5-25.296 56.5-56.5-25.296-56.5-56.5-56.5zm0 84.5c-15.464 0-28-12.536-28-28s12.536-28 28-28 28 12.536 28 28-12.536 28-28 28z" fill="#466089"/><path d="m226 110c-20.987 0-38 17.013-38 38s17.013 38 38 38 38-17.013 38-38-17.013-38-38-38zm0 66c-15.464 0-28-12.536-28-28s12.536-28 28-28 28 12.536 28 28-12.536 28-28 28z" fill="#6e83b7"/></g><g><path d="m197.421 414.561 27.079-7.52v-30.081l-27.079-7.52h-.017c-.916-2.656-1.978-5.243-3.197-7.741l.005-.005 13.83-24.465-21.271-21.271-24.465 13.83-.005.005c-2.498-1.219-5.085-2.281-7.74-3.197v-.017l-7.52-27.079h-30.081l-7.52 27.079v.017c-2.656.916-5.242 1.977-7.74 3.197l-.005-.005-24.465-13.83-21.271 21.271 13.83 24.465.005.005c-1.219 2.498-2.281 5.085-3.197 7.741h-.017l-27.079 7.52v30.081l27.079 7.52h.017c.916 2.656 1.978 5.243 3.197 7.741l-.005.005-13.83 24.465 21.271 21.271 24.465-13.83.005-.005c2.498 1.219 5.085 2.281 7.74 3.197v.017l7.52 27.079h30.081l7.52-27.079v-.017c2.656-.916 5.242-1.978 7.74-3.197l.005.005 24.465 13.83 21.271-21.271-13.83-24.465-.005-.005c1.219-2.498 2.281-5.085 3.197-7.741zm-65.421 5.439c-15.464 0-28-12.536-28-28s12.536-28 28-28 28 12.536 28 28-12.536 28-28 28z" fill="#6e83b7"/><path d="m132 335.5c-31.204 0-56.5 25.296-56.5 56.5s25.296 56.5 56.5 56.5 56.5-25.296 56.5-56.5-25.296-56.5-56.5-56.5zm0 84.5c-15.464 0-28-12.536-28-28s12.536-28 28-28 28 12.536 28 28-12.536 28-28 28z" fill="#466089"/><path d="m132 354c-20.987 0-38 17.013-38 38s17.013 38 38 38 38-17.013 38-38-17.013-38-38-38zm0 66c-15.464 0-28-12.536-28-28s12.536-28 28-28 28 12.536 28 28-12.536 28-28 28z" fill="#6e83b7"/></g><g fill="#d3d3d3"><path d="m306.2 262.05-29.95-29.949-29.95 29.949 9.9 9.9 13.05-13.05v126.1h-35v14h49v-140.1l13.05 13.05z"/><path d="m123.75 155v-14h-49v140.1l-13.05-13.05-9.9 9.9 29.95 29.949 29.95-29.949-9.9-9.9-13.05 13.05v-126.1z"/></g></g></g></svg>