<svg id="Layer_1" enable-background="new 0 0 468 468" height="512" viewBox="0 0 468 468" width="512" xmlns="http://www.w3.org/2000/svg"><g><g><g><path d="m67.776 0h400.134v66.624h-400.134z" fill="#fcc927"/><path d="m67.776 0h12.103v66.624h-12.103z" fill="#fcaa1a"/></g><g><g><path d="m67.777 66.624h99.022v70.767h-99.022z" fill="#7676ff"/><path d="m79.88 66.624h-12.103v70.767h99.022v-12.11h-46.574c-22.282 0-40.345-18.072-40.345-40.365z" fill="#5a5aff"/><g fill="#fff"><path d="m148.097 91.375h-61.618c-1.104 0-2-.896-2-2.001s.896-2.001 2-2.001h61.619c1.104 0 2 .896 2 2.001-.001 1.105-.896 2.001-2.001 2.001z"/><path d="m132.945 116.642h-46.466c-1.104 0-2-.896-2-2.001s.896-2.001 2-2.001h46.466c1.104 0 2 .896 2 2.001s-.896 2.001-2 2.001z"/></g></g><g><g><path d="m67.777 137.263h99.022v70.767h-99.022z" fill="#f5f5f5"/><path d="m79.88 137.263h-12.103v70.767h99.022v-12.11h-46.574c-22.282 0-40.345-18.072-40.345-40.365z" fill="#e5e5e5"/><g fill="#7676ff"><path d="m148.097 162.014h-61.618c-1.104 0-2-.896-2-2.001s.896-2.001 2-2.001h61.619c1.104 0 2 .896 2 2.001s-.896 2.001-2.001 2.001z"/><path d="m132.945 187.28h-46.466c-1.104 0-2-.896-2-2.001s.896-2.001 2-2.001h46.466c1.104 0 2 .896 2 2.001s-.896 2.001-2 2.001z"/></g></g></g><g><path d="m166.829 137.52 101.044-.129v-70.767l-101.044.129z" fill="#f5f5f5"/><path d="m178.877 66.624h-12.103v70.767l101.013.07v-12.11l-48.565-.07c-22.282 0-40.345-18.072-40.345-40.365z" fill="#e5e5e5"/><g fill="#7676ff"><path d="m248.674 91.375h-62.788c-1.104 0-2-.896-2-2.001s.896-2.001 2-2.001h62.788c1.104 0 2 .896 2 2.001s-.896 2.001-2 2.001z"/><path d="m232.116 116.642h-37.246c-1.104 0-2-.896-2-2.001s.896-2.001 2-2.001h37.247c1.104 0 2 .896 2 2.001s-.896 2.001-2.001 2.001z"/></g></g><g><path d="m267.844 66.624h101.044v70.767h-101.044z" fill="#7676ff"/><path d="m279.89 66.624h-12.103v70.767l101.101-.258v-12.11l-48.653.258c-22.282 0-40.345-18.072-40.345-40.365z" fill="#5a5aff"/><g fill="#fff"><path d="m349.688 91.375h-62.788c-1.104 0-2-.896-2-2.001s.896-2.001 2-2.001h62.788c1.104 0 2 .896 2 2.001s-.896 2.001-2 2.001z"/><path d="m331.917 116.642h-37.247c-1.104 0-2-.896-2-2.001s.896-2.001 2-2.001h37.247c1.104 0 2 .896 2 2.001s-.895 2.001-2 2.001z"/></g></g><g><path d="m368.887 66.624h99.022v70.767h-99.022z" fill="#f5f5f5"/></g><path d="m380.991 66.624h-12.103v70.767l99.084-.258v-12.11l-46.636.258c-22.282 0-40.345-18.072-40.345-40.365z" fill="#e5e5e5"/><g><ellipse cx="399.374" cy="94.127" fill="#333" rx="5.698" ry="6.248"/><ellipse cx="437.422" cy="94.127" fill="#333" rx="5.698" ry="6.248"/><g fill="#ff5a96"><ellipse cx="397.812" cy="108.527" rx="5.486" ry="3.765"/><ellipse cx="437.996" cy="108.527" rx="5.486" ry="3.765"/></g><path d="m418.398 118.136c-5.425 0-9.839-4.403-9.839-9.816v-1.874c0-1.105.896-2.001 2-2.001s2 .896 2 2.001v1.874c0 3.206 2.62 5.813 5.839 5.813s5.839-2.608 5.839-5.813v-1.874c0-1.105.896-2.001 2-2.001s2 .896 2 2.001v1.874c0 5.413-4.413 9.816-9.839 9.816z" fill="#333"/></g><g><path d="m166.829 137.371h101.044v70.767h-101.044z" fill="#7676ff"/></g><path d="m178.933 137.371h-12.103v70.767l100.957.172v-12.11l-48.509-.172c-22.282 0-40.345-18.072-40.345-40.365z" fill="#5a5aff"/><g><ellipse cx="194.964" cy="164.766" fill="#333" rx="5.698" ry="6.248"/><ellipse cx="233.012" cy="164.766" fill="#333" rx="5.698" ry="6.248"/><g fill="#fff" opacity=".6"><ellipse cx="193.401" cy="179.166" rx="5.486" ry="3.765"/><ellipse cx="233.585" cy="179.166" rx="5.486" ry="3.765"/></g><path d="m213.988 188.775c-5.425 0-9.839-4.403-9.839-9.816v-1.874c0-1.105.896-2.001 2-2.001s2 .896 2 2.001v1.874c0 3.206 2.62 5.814 5.839 5.814s5.839-2.608 5.839-5.814v-1.874c0-1.105.896-2.001 2-2.001s2 .896 2 2.001v1.874c0 5.413-4.414 9.816-9.839 9.816z" fill="#333"/></g><g><path d="m267.844 137.371h101.044v70.767h-101.044z" fill="#f5f5f5"/><path d="m279.918 137.456h-12.103v70.767l101.101-.258v-12.11l-48.653.258c-22.282 0-40.345-18.072-40.345-40.365z" fill="#e5e5e5"/><g fill="#7676ff"><path d="m349.688 162.122h-62.788c-1.104 0-2-.896-2-2.001s.896-2.001 2-2.001h62.788c1.104 0 2 .896 2 2.001s-.896 2.001-2 2.001z"/><path d="m336.782 187.388h-37.247c-1.104 0-2-.896-2-2.001s.896-2.001 2-2.001h37.247c1.104 0 2 .896 2 2.001s-.895 2.001-2 2.001z"/></g></g><g><path d="m368.887 137.371h99.022v70.767h-99.022z" fill="#7676ff"/><path d="m380.991 137.456h-12.103v70.767l99.084-.258v-12.11l-46.636.258c-22.282 0-40.345-18.072-40.345-40.365z" fill="#5a5aff"/><g fill="#fff"><path d="m449.208 162.122h-61.619c-1.104 0-2-.896-2-2.001s.896-2.001 2-2.001h61.619c1.104 0 2 .896 2 2.001s-.896 2.001-2 2.001z"/><path d="m432.551 187.388h-29.294c-1.104 0-2-.896-2-2.001s.896-2.001 2-2.001h29.294c1.104 0 2 .896 2 2.001s-.896 2.001-2 2.001z"/></g></g><g><path d="m67.777 208.117h99.022v70.767h-99.022z" fill="#7676ff"/></g><path d="m79.921 208.032h-12.103v70.767l98.94.172v-12.109l-46.492-.172c-22.282 0-40.345-18.072-40.345-40.365z" fill="#5a5aff"/><g><g><path d="m166.829 208.117h101.044v70.767h-101.044z" fill="#f5f5f5"/></g><path d="m178.904 208.117h-12.103v70.767l101.101-.258v-12.109l-48.653.258c-22.282 0-40.345-18.072-40.345-40.365z" fill="#e5e5e5"/><g fill="#7676ff"><path d="m248.674 232.869h-62.788c-1.104 0-2-.896-2-2.001s.896-2.001 2-2.001h62.788c1.104 0 2 .896 2 2.001s-.896 2.001-2 2.001z"/><path d="m202.93 258.135h-17.044c-1.104 0-2-.896-2-2.001s.896-2.001 2-2.001h17.044c1.104 0 2 .896 2 2.001s-.895 2.001-2 2.001z"/></g></g><g><g><path d="m267.844 208.117h101.044v70.767h-101.044z" fill="#7676ff"/></g><path d="m279.977 208.117h-12.103v70.767l99.084-.258v-12.109l-46.636.258c-22.282 0-40.345-18.072-40.345-40.365z" fill="#5a5aff"/><g fill="#fff"><path d="m349.688 232.869h-62.788c-1.104 0-2-.896-2-2.001s.896-2.001 2-2.001h62.788c1.104 0 2 .896 2 2.001s-.896 2.001-2 2.001z"/><path d="m332.254 258.135h-32.196c-1.104 0-2-.896-2-2.001s.896-2.001 2-2.001h32.196c1.104 0 2 .896 2 2.001s-.895 2.001-2 2.001z"/></g></g><g><g><path d="m368.887 208.117h99.022v70.767h-99.022z" fill="#f5f5f5"/></g><path d="m381.019 208.117h-12.103v70.767l99.084-.257v-12.109l-46.636.258c-22.282 0-40.345-18.072-40.345-40.365z" fill="#e5e5e5"/><g fill="#7676ff"><path d="m449.208 232.869h-61.619c-1.104 0-2-.896-2-2.001s.896-2.001 2-2.001h61.619c1.104 0 2 .896 2 2.001s-.896 2.001-2 2.001z"/><path d="m435.119 258.135h-36.365c-1.104 0-2-.896-2-2.001s.896-2.001 2-2.001h36.365c1.104 0 2 .896 2 2.001s-.895 2.001-2 2.001z"/></g></g></g><path d="m402.192 35.273h-268.697c-1.104 0-2-.896-2-2.001s.896-2.001 2-2.001h268.698c1.104 0 2 .896 2 2.001-.001 1.105-.896 2.001-2.001 2.001z" fill="#fff" opacity=".7"/></g><g><path d="m215.576 264.538c.358-1.884.421-14.578.292-20.445-.037-1.667.929-3.202 2.468-3.931 2.381-1.128 5.221.055 6.022 2.508l1.647 5.044c2.201-11.061 26.259-15.068 24.21 2.858-1.212 10.603-7.332 16.101-11.344 19.804l-5.29 4.513-.022-.012-5.294 16.29c-10.835-1.155-18.252-7.047-21.339-10.829z" fill="#ffc5b7"/><path d="m234.223 239.361c3.403 1.629 5.683 5.17 4.992 11.211-1.212 10.603-7.332 16.101-11.344 19.804l-5.29 4.513-.022-.012-4.42 13.6c2.928 1.283 6.31 2.283 10.126 2.69l5.294-16.29.022.012 5.29-4.513c4.012-3.702 10.133-9.2 11.344-19.804 1.336-11.688-8.426-14.047-15.992-11.211z" fill="#ffa099"/><path d="m110.84 150.875-30.972 2.984-19.263 17.686 6.261 35.533 2.709 1.072-17.638.474 12.521 46.306 38.527-10.612s-.909-12.023-2.044-24.689c40.261 4.69 9.899-68.754 9.899-68.754z" fill="#ffc5b7"/><path d="m114.837 299.728s30.819 79.677 73.055 46.712c37.831-29.527 45.765-67.41 45.765-67.41l-22.845-8.826s-19.769 26.019-38.527 36.9c0 0-13.699-58.86-68.218-70.502h-1.084s-15.09 9.325-40.132 9.325l-39.69.322s-26.419 41.553-17.953 106.63c1.57 12.067 10.59 21.907 22.522 24.197 9.308 1.786 20.966 1.324 32.874-6.059" fill="#ff5a96"/><path d="m37.817 371.021c-11.932-2.29-20.952-12.131-22.522-24.197-6.579-50.571 7.906-86.931 14.692-100.63l-6.825.055s-26.419 41.553-17.953 106.63c1.57 12.067 10.59 21.907 22.522 24.197 9.308 1.786 20.966 1.324 32.874-6.059l1.364-1.792c-8.787 3.207-17.137 3.142-24.152 1.796z" fill="#ff2488"/><g><g><g><path d="m141.753 388.059h-101.766c-2.877 3.741-4.944 9.287-6.425 15.09-3.242 12.701-4.946 38.468-2.797 51.402l1.781 13.449h109.207z" fill="#0dccff"/></g><path d="m45.666 403.149c1.481-5.803 3.549-11.349 6.425-15.09h-12.104c-2.877 3.741-4.944 9.287-6.425 15.09-3.242 12.7-4.946 38.468-2.797 51.402l1.781 13.449h12.104l-1.781-13.449c-2.149-12.934-.445-38.701 2.797-51.402z" fill="#0db9d6"/></g></g><path d="m34.844 316.913 4.716 71.147h102.112l-.116-22.794c-.026-5.201 1.098-10.321 3.091-15.124.561-1.352 1.061-2.703 1.507-4.048l14.603-58.739" fill="#ff5a96"/><path d="m222.561 274.742c-3.082 10.303-14.106 39.703-44.755 63.624-9.09 7.095-17.65 8.965-25.488 7.541-21.378-12.783-35.436-48.456-35.616-48.92-.399-1.03-1.558-1.542-2.587-1.143-1.03.399-1.542 1.557-1.143 2.588.916 2.367 21.125 53.632 52.108 55.905 8.47.421 16.074-2.212 22.812-7.897 37.831-29.526 45.765-67.41 45.765-67.41z" fill="#ff2488"/><path d="m38.731 377.59c-1.044 0-1.923-.811-1.994-1.869l-3.889-58.676c-.073-1.103.761-2.056 1.863-2.129 1.106-.064 2.055.762 2.128 1.864l3.889 58.676c.073 1.103-.761 2.056-1.863 2.129-.045.003-.09.005-.134.005z" fill="#ff2488"/><path d="m118.141 142.915c-.548-6.618-6.353-11.566-12.983-11.566h-37.338c-25.042-.965-41.797 9.374-40.773 50.165.705 28.107-9.265 41.664-13.424 47.872-36.065 53.848 10.889 51.918 10.889 51.918s11.006 25.082 34.433 3.376c0 0 18.275 18.067 28.828-2.171 1.866-3.578 2.961-7.508 3.373-11.524 3.141-30.57-12.025-74.42-12.025-74.42l.001-.006c-4.197-1.107-7.295-4.923-7.295-9.474 0-5.417 4.384-9.808 9.792-9.808.585 0 1.155.061 1.712.159l1.059-4.812c1.784-8.107 8.446-14.226 16.663-15.307l6.162-.811c6.635-.872 11.488-6.805 10.926-13.591z" fill="#333"/><path d="m74.098 131.35h-6.278c-25.042-.965-41.797 9.374-40.773 50.165.705 28.107-9.265 41.664-13.424 47.872-36.065 53.848 10.889 51.918 10.889 51.918.327-.911-.137-1.904-1.035-2.261-10.556-4.196-20.337-16.088 2.147-49.657 4.158-6.208 14.128-19.765 13.424-47.872-.945-37.596 13.22-49.314 35.05-50.165z" fill="#1e1e1e"/></g><g><g><g><path d="m226.793 429.774 26.588 14.245-5.078-30.171 21.511-21.367-29.727-4.402-13.294-27.45-13.295 27.45-29.726 4.402 21.51 21.367-5.078 30.171z" fill="#fcc927"/><path d="m205.803 399.753 14.565-2.156 12.164-25.118-5.739-11.851-13.295 27.451-29.727 4.402 21.511 21.367-5.078 30.171 11.493-6.157 4.652-27.633z" fill="#fcaa1a"/></g><g><path d="m409.939 429.774 26.588 14.245-5.078-30.171 21.511-21.367-29.727-4.402-13.294-27.45-13.294 27.45-29.727 4.402 21.51 21.367-5.078 30.171z" fill="#fcc927"/><path d="m388.949 399.753 14.565-2.156 12.164-25.118-5.739-11.851-13.295 27.451-29.726 4.402 21.51 21.367-5.078 30.171 11.493-6.157 4.652-27.633z" fill="#fcaa1a"/></g><g><g><path d="m318.366 401.246 26.588 14.245-5.078-30.171 21.511-21.367-29.727-4.402-13.294-27.451-13.294 27.451-29.727 4.402 21.51 21.367-5.078 30.171z" fill="#99d100"/></g><g><path d="m297.376 371.225 14.565-2.157 12.164-25.117-5.739-11.851-13.295 27.451-29.726 4.401 21.51 21.368-5.078 30.171 11.493-6.158 4.652-27.633z" fill="#6ca42e"/></g></g></g></g><g><path d="m0 57.93v20.133l21.478-15.1 21.478 15.1v-20.133l-21.478-15.101z" fill="#0dccff"/><path d="m21.478.544-21.478 15.1v20.134l21.478-15.101 21.478 15.101v-20.134z" fill="#7676ff"/><path d="m21.478 85.165-21.478 15.1v20.134l21.478-15.1 21.478 15.1v-20.134z" fill="#fcc927"/></g></g></svg>