<svg id="Flat" height="512" viewBox="0 0 32 32" width="512" xmlns="http://www.w3.org/2000/svg"><path d="m25.5 6c0-.28.22-.5.5-.5s.5.22.5.5v20.23c0 .28-.98.27-1 .27h-23.5c-.28 0-.5-.22-.5-.5v-20c0-.28.22-.5.5-.5s.5.22.5.5z" fill="#f2f3f3" fill-rule="evenodd"/><path d="m23 20c1.66 0 3 1.34 3 3s-1.34 3-3 3-3-1.34-3-3 1.34-3 3-3zm2.76 7.17c-.79.52-1.74.83-2.76.83-2.76 0-5-2.24-5-5s2.24-5 5-5 5 2.24 5 5c0 1.02-.31 1.97-.83 2.76l2.83 2.83-1.41 1.41z" fill="#65cef6" fill-rule="evenodd"/><rect fill="#f15f60" height="5" rx=".5" width="25" x="1.5" y="1.5"/><path d="m22 3.5c.28 0 .5.22.5.5s-.22.5-.5.5-.5-.22-.5-.5.22-.5.5-.5zm2 0c.28 0 .5.22.5.5s-.22.5-.5.5-.5-.22-.5-.5.22-.5.5-.5zm-18 1h-2c-.28 0-.5-.22-.5-.5s.22-.5.5-.5h2c.28 0 .5.22.5.5s-.22.5-.5.5z" fill="#f2f3f3"/><path d="m28.59 30.5c-.13 0-.26-.05-.35-.15l-2.55-2.55c-.82.46-1.74.7-2.68.7-3.03 0-5.5-2.47-5.5-5.5s2.47-5.5 5.5-5.5 5.5 2.47 5.5 5.5c0 .94-.24 1.86-.7 2.68l2.55 2.55c.19.2.19.51 0 .71l-1.42 1.41c-.1.1-.22.15-.35.15m-2.83-3.83c.13 0 .26.05.35.15l2.48 2.48.71-.71-2.48-2.48c-.17-.17-.19-.43-.06-.63.49-.74.75-1.59.75-2.48 0-2.48-2.02-4.5-4.5-4.5s-4.5 2.02-4.5 4.5 2.02 4.5 4.5 4.5c.89 0 1.74-.26 2.48-.75.09-.06.18-.08.28-.08m-2.76-.17c-1.93 0-3.5-1.57-3.5-3.5s1.57-3.5 3.5-3.5 3.5 1.57 3.5 3.5-1.57 3.5-3.5 3.5m0-6c-1.38 0-2.5 1.12-2.5 2.5s1.12 2.5 2.5 2.5 2.5-1.12 2.5-2.5-1.12-2.5-2.5-2.5" fill="#3cc0f0"/><path d="m12.5 11.5h2c.27 0 .52-.1.7-.29.19-.19.29-.44.29-.71s-.1-.52-.29-.71-.44-.29-.71-.29h-2v2zm-5.92 1h1.83l-.92-2.2-.92 2.2zm5.92 2h3c.27 0 .52-.1.71-.29s.29-.44.29-.71-.1-.52-.29-.71-.44-.29-.71-.29h-3zm3 1h-3.5c-.28 0-.5-.22-.5-.5v-6c0-.28.22-.5.5-.5h2.5c.53 0 1.04.21 1.41.58.38.38.59.88.59 1.41 0 .4-.12.79-.34 1.11.28.1.54.26.75.47.38.38.59.88.59 1.42s-.21 1.04-.59 1.41c-.38.38-.88.59-1.41.59zm7.5 0h-1c-.94 0-1.81-.36-2.48-1.03-.66-.66-1.02-1.54-1.02-2.47s.36-1.81 1.02-2.47 1.54-1.03 2.48-1.03h1c.28 0 .5.22.5.5s-.22.5-.5.5h-1c-.67 0-1.3.26-1.77.73s-.73 1.1-.73 1.77.26 1.29.73 1.77c.47.47 1.1.73 1.77.73h1c.28 0 .5.22.5.5s-.22.5-.5.5zm-17.5-3 1.54-3.69c.15-.37.77-.37.92 0l1.54 3.69h.5c.28 0 .5.22.5.5s-.22.5-.5.5h-.08l.55 1.31c.11.26-.01.55-.27.65-.06.03-.13.04-.19.04-.2 0-.38-.11-.46-.31l-.71-1.69h-2.67l-.71 1.69c-.11.26-.4.37-.65.27-.26-.11-.38-.4-.27-.65l.55-1.31h-.08c-.28 0-.5-.22-.5-.5s.22-.5.5-.5h.5z" fill="#fbca28"/><path d="m16 18.5h-11c-.28 0-.5-.22-.5-.5s.22-.5.5-.5h11c.28 0 .5.22.5.5s-.22.5-.5.5zm0 3h-11c-.28 0-.5-.22-.5-.5s.22-.5.5-.5h11c.28 0 .5.22.5.5s-.22.5-.5.5z" fill="#f15f60"/></svg>