<svg id="Layer_1" enable-background="new 0 0 500 500" height="512" viewBox="0 0 500 500" width="512" xmlns="http://www.w3.org/2000/svg"><g id="XMLID_1545_"><g id="XMLID_1826_"><path id="XMLID_1828_" d="m148.242 393.864v-21.794h-16.564c-1.684-7.861-4.924-15.139-9.379-21.507l11.192-11.2-15.4-15.41-11.321 11.328c-6.587-4.44-14.118-7.577-22.221-9.082v-14.937h-21.78v14.938c-8.4 1.56-16.176 4.884-22.933 9.583l-9.753-9.759-15.4 15.41 9.832 9.838c-4.738 6.988-8.019 15.042-9.425 23.726h-13.09v21.793h13.574c1.8 8.609 5.459 16.535 10.544 23.333l-9.368 9.373 15.4 15.41 10.008-10.014c6.999 4.396 14.976 7.365 23.535 8.515v14.19h21.78v-15.277c8.051-1.922 15.468-5.472 21.872-10.304l10.813 10.82 15.4-15.41-11.501-11.509c4.109-6.6 6.963-14.06 8.219-22.055h15.966z" fill="#fccd47"/><ellipse id="XMLID_1827_" cx="75.121" cy="384.431" fill="#fff" rx="37.783" ry="37.697"/></g><g id="XMLID_1808_"><g id="XMLID_1819_"><path id="XMLID_1825_" d="m62.846 89.833h320.439v62.26h-320.439z" fill="#57d4ff"/><g id="XMLID_1809_"><path id="XMLID_1824_" d="m62.846 152.093h320.439v241.924h-320.439z" fill="#f5f5f5"/><path id="XMLID_3139_" d="m363.166 152.093h20.118v241.924h-20.118z" fill="#eee"/></g><g fill="#fff"><path d="m355.481 125.913h-159.306c-2.739 0-4.96-2.216-4.96-4.951s2.221-4.951 4.96-4.951h159.305c2.739 0 4.96 2.216 4.96 4.951s-2.22 4.951-4.959 4.951z"/><g id="XMLID_1820_"><ellipse id="XMLID_1822_" cx="100.226" cy="120.963" rx="8.822" ry="8.811"/><ellipse id="XMLID_1821_" cx="139.437" cy="120.963" rx="8.822" ry="8.811"/></g></g></g><g id="XMLID_340_"><g id="XMLID_1814_"><path id="XMLID_1815_" d="m154.576 306.522-34.281-48.858-34.282 48.858h17.349v54.77h33.865v-54.77z" fill="#57d4ff"/><path id="XMLID_3143_" d="m86.013 306.521h17.349v54.771h16.933v-103.628z" fill="#4dbddb"/></g><g id="XMLID_1817_"><path id="XMLID_1816_" d="m360.117 306.522-34.282-48.858-34.281 48.858h17.349v54.77h33.865v-54.77z" fill="#57d4ff"/><path id="XMLID_3111_" d="m325.835 257.664v103.628h16.933v-54.771h17.349z" fill="#4dbddb"/></g><g id="XMLID_3102_"><path id="XMLID_1818_" d="m273.066 277.961-50.001-74.214-50.001 74.214h25.304v143.525h49.394v-143.525z" fill="#24d38c"/><path id="XMLID_3108_" d="m223.065 203.747v217.739h24.697v-143.525h25.304z" fill="#20b273"/></g><g id="XMLID_1810_" fill="#bdbdbd"><path d="m223.065 483.638c-2.739 0-4.96-2.216-4.96-4.951v-33.923c0-2.734 2.221-4.951 4.96-4.951s4.96 2.216 4.96 4.951v33.923c0 2.735-2.221 4.951-4.96 4.951z"/><path d="m255.864 500c-2.739 0-4.96-2.216-4.96-4.951v-33.922c0-2.734 2.221-4.951 4.96-4.951s4.96 2.216 4.96 4.951v33.922c0 2.735-2.221 4.951-4.96 4.951z"/><path d="m190.266 500c-2.739 0-4.96-2.216-4.96-4.951v-33.922c0-2.734 2.221-4.951 4.96-4.951s4.96 2.216 4.96 4.951v33.922c0 2.735-2.221 4.951-4.96 4.951z"/></g></g></g><g id="XMLID_1776_"><g id="XMLID_1789_"><path id="XMLID_1807_" d="m371.609 212.958c-47.274 0-85.733-38.434-85.733-85.674s38.459-85.674 85.733-85.674 85.733 38.434 85.733 85.674-38.459 85.674-85.733 85.674z" fill="#ff5477"/><path id="XMLID_1791_" d="m371.609 183.861c-31.14 0-56.474-25.381-56.474-56.577s25.334-56.577 56.474-56.577 56.474 25.381 56.474 56.577-25.334 56.577-56.474 56.577z" fill="#fff"/><ellipse id="XMLID_1790_" cx="371.609" cy="127.284" fill="#fccd47" rx="27.214" ry="27.48"/></g><path d="m369.118 132.122c-4.335 0-6.564-5.404-3.505-8.453l89.252-88.993c1.938-1.934 5.078-1.931 7.014.003 1.936 1.935 1.935 5.069-.003 7.001l-89.252 88.993c-.969.966-2.237 1.449-3.506 1.449z" fill="#f5f5f5"/><g id="XMLID_782_"><path id="XMLID_1777_" d="m480.844 17.512c9.705-25.03-44.708-29.565-30.588 29.323 61.082 17.614 54.317-40.232 30.588-29.323z" fill="#24d38c"/><path id="XMLID_3105_" d="m484.164 16.399c-.819 10.5-10.91 21.949-35.988 18.148.341 3.748 1.011 7.834 2.079 12.288 58.126 16.761 54.812-34.803 33.909-30.436z" fill="#20b273"/></g></g><g id="XMLID_1546_"><g id="XMLID_485_"><path id="XMLID_1775_" d="m403.157 463.623c-27.718 0-50.267-22.519-50.267-50.198s22.55-50.198 50.267-50.198 50.267 22.519 50.267 50.198-22.549 50.198-50.267 50.198z" fill="#fccd47"/><path id="XMLID_501_" d="m453.425 413.424c0-27.68-22.55-50.198-50.267-50.198-17.447 0-32.84 8.926-41.857 22.44 7.963-5.292 17.512-8.385 27.774-8.385 27.718 0 50.267 22.519 50.267 50.198 0 10.257-3.102 19.801-8.411 27.758 13.546-9.002 22.494-24.381 22.494-41.813z" fill="#e5b642"/></g><g id="XMLID_1773_"><path id="XMLID_1774_" d="m398.764 403.028c0-1.924 1.395-3.98 5.308-3.98 3.42 0 6.158 1.279 9.038 2.916l2.771-7.269c-2.586-1.705-5.487-2.721-8.573-3.067v-6.392h-7.404v6.843c-5.758 1.472-9.887 5.957-9.887 11.726 0 7.117 5.628 10.302 11.72 12.677 5.594 2.255 6.353 4.329 6.353 6.236 0 2.846-2.479 4.758-6.158 4.758-3.88 0-7.063-1.565-10.203-3.647l-2.664 7.387c2.805 2.3 6.434 3.415 10.018 3.759v6.943h7.404v-7.349c6.581-1.537 10.372-6.342 10.372-12.306 0-7.824-5.845-11.231-11.002-13.322-6.069-2.493-7.093-3.839-7.093-5.913z" fill="#fff"/></g></g></g></svg>