<svg id="Layer_1" enable-background="new 0 0 68 68" height="512" viewBox="0 0 68 68" width="512" xmlns="http://www.w3.org/2000/svg"><g id="_x36_9"><g><path d="m66 16.8v41.9c0 3.5-2.8 6.3-6.3 6.3h-51.4c-3.5 0-6.3-2.9-6.3-6.3v-41.9z" fill="#e9e7fc"/></g><g><path d="m66 16.8v-7.5c0-3.4-2.8-6.3-6.3-6.3h-51.4c-3.5 0-6.3 2.9-6.3 6.3v7.4h64z" fill="#423d9b"/></g><g><path d="m60.3 9.9c0 .9-.7 1.6-1.6 1.6h-23c-.9 0-1.6-.7-1.6-1.6s.7-1.6 1.6-1.6h23c.9 0 1.6.7 1.6 1.6z" fill="#e9e7fc"/></g><g><path d="m11.1 9.9c0 1.3-1.1 2.4-2.4 2.4s-2.4-1.1-2.4-2.4 1.1-2.4 2.4-2.4 2.4 1.1 2.4 2.4z" fill="#ffd06c"/></g><g><path d="m18.5 9.9c0 1.3-1.1 2.4-2.4 2.4s-2.4-1.1-2.4-2.4 1.1-2.4 2.4-2.4 2.4 1.1 2.4 2.4z" fill="#78e75a"/></g><g><circle cx="23.5" cy="9.9" fill="#f34b58" r="2.4"/></g><g><g><g><path d="m22.9 21.4c0 .6-.5 1.1-1.1 1.1h-1.4c-.6 0-1.1-.5-1.1-1.1s.5-1.1 1.1-1.1h1.4c.6 0 1.1.5 1.1 1.1z" fill="#57b3fe"/></g><g><path d="m17.9 21.4c0 .6-.5 1.1-1.1 1.1h-9.1c-.6 0-1.1-.5-1.1-1.1s.5-1.1 1.1-1.1h9.1c.6 0 1.1.5 1.1 1.1z" fill="#57b3fe"/></g><g><path d="m14.5 26.1c0 .6-.5 1.1-1.1 1.1h-5.7c-.6 0-1.1-.5-1.1-1.1-.1-.6.4-1.1 1.1-1.1h5.7c.6 0 1.1.5 1.1 1.1z" fill="#f34b58"/></g></g></g><g><g><path d="m16.5 54.2c-.4.4-.9.4-1.3 0l-6.5-6.5c-.4-.4-.4-.9 0-1.3.3-.4.9-.4 1.3 0l6.5 6.5c.3.3.3.9 0 1.3z" fill="#e11226"/></g><g><path d="m32.9 40.2-11.8 11.9c-.8.8-2.2.8-3 0l-7.4-7.4c-.8-.8-.8-2.2 0-3l11.8-11.8c1.6-1.6 3.6-2.9 5.8-3.6 3.9 1.5 6.7 4.2 8.2 8.2-.1.2-.1.4-.2.5-.7 1.9-1.9 3.7-3.4 5.2z" fill="#ffd06c"/></g><g><path d="m36.5 34.4c.6-1.8.9-3.7.7-5.7-.1-1.7-1.5-3.1-3.2-3.2-1.9-.1-3.9.1-5.7.7 4 1.6 6.7 4.3 8.2 8.2z" fill="#f34b58"/></g><g><path d="m28.4 54.3-1.4 1.4c-.6.6-1.7.6-2.3 0l-3.7-3.6 6.7-6.7.4 1.2 1.2 4.1c.4 1.3 0 2.7-.9 3.6z" fill="#f34b58"/></g><g><path d="m28.1 46.6-6.2 6.2s0 0-.1.1l-.8-.8 6.7-6.7z" fill="#e11226"/></g><g><path d="m27.3 55.4-.3.3c-.6.6-1.7.6-2.3 0l-3.7-3.6 1.5-1.5z" fill="#ffd06c"/></g><g><path d="m17.4 35-5.4-1.6c-1.3-.4-2.6 0-3.5.9l-1.5 1.5c-.6.6-.6 1.7 0 2.3l3.6 3.6z" fill="#f34b58"/></g><g><path d="m16.1 34.7-6.2 6.2s0 0-.1.1l.8.8 6.7-6.7z" fill="#e11226"/></g><g><path d="m17.4 51.3-.9 1.6-6.5-6.5 1.5-.9z" fill="#f34b58"/></g><g><g><ellipse cx="27.7" cy="35.2" fill="#1d2943" rx="4.2" ry="4.2" transform="matrix(.875 -.484 .484 .875 -13.546 17.776)"/></g><g><ellipse cx="27.7" cy="35.2" fill="#5094ff" rx="2.9" ry="2.9" transform="matrix(.875 -.484 .484 .875 -13.546 17.776)"/></g><g><path d="m31 34.1c.3.6.4 1.3.2 1.9s-.5 1.2-1.1 1.6c.4-.5.6-1.1.8-1.7.2-.5.2-1.1.1-1.8z" fill="#fff"/></g><g opacity=".2"><g><path d="m27.6 38.1c-.7 0-1.4-.3-1.9-.8-.3-.3-.5-.6-.6-.9l.9-3.5c.9-.7 2.1-.8 3-.3z" fill="#fff"/></g><g><path d="m29.5 37.5c-.3.2-.6.4-1 .5l1.2-4.8c.3.3.5.6.6.9z" fill="#fff"/></g></g></g><g><path d="m20.8 43.4-5.7 5.7c-.4.4-1 .4-1.3 0-.4-.4-.4-1 0-1.3l5.7-5.7c.4-.4 1-.4 1.3 0s.3 1 0 1.3z" fill="#fff"/></g><g><path d="m12.1 40.3-1.5 1.5-3.6-3.7c-.6-.6-.6-1.7 0-2.3l.3-.3z" fill="#ffd06c"/></g><g><g><path d="m23.3 51.5-1.4 1.4s0 0-.1.1l-.8-.9 1.5-1.5z" fill="#f3a250"/></g></g><g><g><path d="m11.3 39.5-1.4 1.4s0 0-.1.1l.8.8 1.5-1.5z" fill="#f3a250"/></g></g></g><g><path d="m31.9 61.7c-3.6.5-7.1.7-10.7.7-3.3 0-7.3-.1-10.7-.7 3.4-.5 7.4-.7 10.7-.7 3.5.1 7.1.2 10.7.7z" fill="#fff"/></g><g><g><g><g><g><path d="m60.2 26.4h-4.2c-.5 0-1-.4-1-1 0-.5.4-1 1-1h4.1c.5 0 1 .4 1 1s-.4 1-.9 1z" fill="#cccff2"/></g></g><g><g><path d="m51.7 26.4h-9.7c-.5 0-1-.4-1-1 0-.5.4-1 1-1h9.7c.5 0 1 .4 1 1s-.4 1-1 1z" fill="#cccff2"/></g></g></g><g><g><g><path d="m60.4 32.6h-18.4c-.5 0-1-.4-1-1 0-.5.4-1 1-1h18.4c.5 0 1 .4 1 1s-.5 1-1 1z" fill="#cccff2"/></g></g></g><g><g><g><path d="m60.4 45.1h-18.4c-.5 0-1-.4-1-1 0-.5.4-1 1-1h18.4c.5 0 1 .4 1 1s-.5 1-1 1z" fill="#cccff2"/></g></g></g></g><g><g><g><g><path d="m42 36.9h4.1c.5 0 1 .4 1 1 0 .5-.4 1-1 1h-4.1c-.5 0-1-.4-1-1 .1-.6.5-1 1-1z" fill="#cccff2"/></g></g><g><g><path d="m50.5 36.9h9.7c.5 0 1 .4 1 1 0 .5-.4 1-1 1h-9.7c-.5 0-1-.4-1-1s.4-1 1-1z" fill="#cccff2"/></g></g></g></g></g><g><g><path d="m57.6 50.8v3.6c0 .6-.5 1.1-1.1 1.1h-11.3c-.6 0-1.1-.5-1.1-1.1v-3.6c0-.6.5-1.1 1.1-1.1h11.2c.6 0 1.2.5 1.2 1.1z" fill="#57b3fe"/></g><g><path d="m54.7 52.6c0 .4-.3.7-.7.7h-6.2c-.4 0-.7-.3-.7-.7s.3-.7.7-.7h6.2c.3 0 .7.3.7.7z" fill="#497bfe"/></g><g><path d="m61.2 56.1-.6.6 1.8 1.8c.7.7.7 1.7 0 2.4-.6.6-1.7.6-2.4 0l-1.7-1.9-.6.6c-.4.4-1.1.2-1.2-.4l-.9-4.4c-.1-.5.3-1 .9-.9l4.4.9c.6.2.8.9.3 1.3z" fill="#423d9b"/></g></g></g></svg>