<svg height="512" viewBox="0 0 64 64" width="512" xmlns="http://www.w3.org/2000/svg"><g id="a`"><g><g><path d="m28 33.228h8v15.772h-8z" fill="#c12b35"/><path d="m31.772 33.228h4.228v12.772h-2c-2.208 0-4-1.792-4-4v-7c0-.978.794-1.772 1.772-1.772z" fill="#e63a45"/></g><g><path d="m40 23h8v26h-8z" fill="#1cb15f"/><path d="m43.772 23h4.228v23h-2c-2.208 0-4-1.792-4-4v-17.228c0-.978.794-1.772 1.772-1.772z" fill="#27d674"/></g><g><g fill="#edf4fa"><circle cx="20" cy="16" r="3"/><circle cx="8" cy="31" r="3"/><circle cx="32" cy="22" r="3"/><circle cx="44" cy="8" r="3"/><circle cx="56" cy="11" r="3"/></g><path d="m48.999 6.314h2v6.372h-2z" fill="#355485" transform="matrix(.243 -.97 .97 .243 28.657 55.702)"/><path d="m31.778 14h12.446v2h-12.446z" fill="#355485" transform="matrix(.651 -.759 .759 .651 1.88 34.088)"/><path d="m25 15.29h2v7.419h-2z" fill="#355485" transform="matrix(.447 -.894 .894 .447 -2.622 33.757)"/><path d="m7.391 22.494h13.228v2h-13.228z" fill="#355485" transform="matrix(.625 -.781 .781 .625 -13.09 19.755)"/><path d="m20 20c-2.206 0-4-1.794-4-4s1.794-4 4-4 4 1.794 4 4-1.794 4-4 4zm0-6c-1.103 0-2 .897-2 2s.897 2 2 2 2-.897 2-2-.897-2-2-2z" fill="#27d674"/><path d="m8 35c-2.206 0-4-1.794-4-4s1.794-4 4-4 4 1.794 4 4-1.794 4-4 4zm0-6c-1.103 0-2 .897-2 2s.897 2 2 2 2-.897 2-2-.897-2-2-2z" fill="#e63a45"/><path d="m32 26c-2.206 0-4-1.794-4-4s1.794-4 4-4 4 1.794 4 4-1.794 4-4 4zm0-6c-1.103 0-2 .897-2 2s.897 2 2 2 2-.897 2-2-.897-2-2-2z" fill="#e63a45"/><path d="m44 12c-2.206 0-4-1.794-4-4s1.794-4 4-4 4 1.794 4 4-1.794 4-4 4zm0-6c-1.103 0-2 .897-2 2s.897 2 2 2 2-.897 2-2-.897-2-2-2z" fill="#27d674"/><path d="m56 15c-2.206 0-4-1.794-4-4s1.794-4 4-4 4 1.794 4 4-1.794 4-4 4zm0-6c-1.103 0-2 .897-2 2s.897 2 2 2 2-.897 2-2-.897-2-2-2z" fill="#27d674"/></g><path d="m52 18h8v31h-8z" fill="#1cb15f"/><path d="m24 48h38v2h-38z" fill="#27d674"/><path d="m55.772 18h4.228v28h-2c-2.208 0-4-1.792-4-4v-22.228c0-.978.794-1.772 1.772-1.772z" fill="#27d674"/><g><path d="m17 29c-8.284 0-15 6.716-15 15s6.716 15 15 15 15-6.716 15-15-6.716-15-15-15zm0 27c-6.627 0-12-5.373-12-12s5.373-12 12-12 12 5.373 12 12-5.373 12-12 12z" fill="#355485"/><circle cx="17" cy="44" fill="#355485" r="15"/><path d="m30.5 45.5c-.828 0-1.5-.671-1.5-1.5 0-6.617-5.383-12-12-12s-12 5.383-12 12c0 .829-.672 1.5-1.5 1.5s-1.5-.671-1.5-1.5c0-8.271 6.729-15 15-15s15 6.729 15 15c0 .829-.672 1.5-1.5 1.5z" fill="#446aa9"/><circle cx="17" cy="44" fill="#eef1fa" r="12"/><path d="m8 44c0-6.118 4.582-11.157 10.5-11.896-.492-.062-.991-.104-1.5-.104-6.627 0-12 5.373-12 12s5.373 12 12 12c.509 0 1.008-.042 1.5-.104-5.918-.74-10.5-5.778-10.5-11.896z" fill="#c2cfe8"/><g fill="#36393f"><path d="m16 32h2v4h-2z"/><path d="m16 52h2v4h-2z"/><path d="m25 43h4v2h-4z"/><path d="m5 43h4v2h-4z"/><path d="m23.743 50.692h2v2.101h-2z" transform="matrix(.707 -.707 .707 .707 -29.341 32.651)"/><path d="m8.257 35.207h2v2.101h-2z" transform="matrix(.707 -.707 .707 .707 -22.926 17.165)"/><path d="m8.207 50.743h2.101v2h-2.101z" transform="matrix(.707 -.707 .707 .707 -33.876 21.701)"/><path d="m23.692 35.257h2.101v2h-2.101z" transform="matrix(.707 -.707 .707 .707 -18.391 28.115)"/><path d="m20 45h-3c-.553 0-1-.448-1-1v-5h2v4h2z"/></g></g></g></g></svg>