<svg id="Layer_1" enable-background="new 0 0 512 512" height="512" viewBox="0 0 512 512" width="512" xmlns="http://www.w3.org/2000/svg"><g><path d="m256 22.002c-135.309 0-244.999 109.69-244.999 244.999 0 62.917 23.726 120.286 62.707 163.673l300.879 50.746c75.378-41.778 126.411-122.133 126.411-214.419.001-135.309-109.688-244.999-244.998-244.999z" fill="#746bf9"/><path d="m404.6 0c-15.817 0-34.473 12.822-34.473 28.638v85.917h54.817c4.581 0 8.294-3.713 8.294-8.294v-77.622c.001-15.817-12.821-28.639-28.638-28.639z" fill="#bec8f7"/><path d="m404.6 0c-15.817 0-34.473 12.822-34.473 28.638v52.692c0-15.817 18.656-28.638 34.473-28.638 15.816 0 28.638 12.822 28.638 28.638v-52.692c.001-15.816-12.821-28.638-28.638-28.638z" fill="#a2b6f4"/><path d="m72.665 28.639v400.859c6.034 6.803 12.434 13.274 19.182 19.368h215.039c4.583 0 8.299 3.716 8.299 8.299v42.604c0 1.661.188 3.294.525 4.888 21.332-5.342 41.551-13.482 60.253-24.006v-172.09l-36.545 63.297c-2.958-2.176-4.833-5.551-5.091-9.273-.07-.996-.598-1.896-1.371-2.411l-.267-.185c-.512-.297-1.083-.445-1.652-.445-.485 0-.97.108-1.417.326-3.826 1.865-8.132 1.72-11.814-.406-3.686-2.127-5.968-5.784-6.264-10.032-.075-1.079-.688-2.05-1.639-2.599-.085-.049-.171-.089-.261-.125-.907-.425-1.926-.423-2.806.007-3.344 1.632-7.196 1.701-10.572.223l79.7-138.044v-180.255c-.002-15.817 12.819-28.639 28.636-28.639-30.377 0-272.998 0-303.297 0-15.817 0-28.638 12.822-28.638 28.639z" fill="#e9efff"/><path d="m143.013 416.989v-150.466c-5.159-5.94-8.29-13.69-8.29-22.176s3.13-16.236 8.29-22.176v-193.533c0-15.816 12.822-28.638 28.638-28.638-34.514 0-61.496 0-70.348 0-15.817 0-28.639 12.822-28.639 28.639v400.859c6.035 6.803 12.434 13.274 19.182 19.368h83.042c-17.564 0-31.875-14.399-31.875-31.877z" fill="#d3dcfb"/><path d="m310.385 445.366h-222.326c43.857 41.309 102.938 66.634 167.941 66.634 21.745 0 42.822-2.847 62.895-8.164-.134-1.123-.211-2.263-.211-3.422v-46.749c0-4.583-3.715-8.299-8.299-8.299z" fill="#d3dcfb"/><path d="m208.309 268.882c-7.159 8.351-17.778 13.65-29.641 13.65-21.559 0-39.036-17.477-39.036-39.036s17.477-39.036 39.036-39.036c.214 0 .424.013.636.016v-27.593c-.213-.002-.424-.008-.636-.008-36.794 0-66.621 29.826-66.621 66.62s29.827 66.621 66.621 66.621c20.017 0 37.97-8.831 50.183-22.806z" fill="#42c3fc"/><path d="m178.668 176.875v27.584c21.559 0 39.036 17.477 39.036 39.036 0 .213-.013.424-.016.636h27.593c.002-.212.008-.423.008-.636-.001-36.793-29.828-66.62-66.621-66.62z" fill="#89e56a"/><path d="m217.704 243.496c0 10.02-3.779 19.154-9.983 26.065l20.533 18.422c10.589-11.795 17.034-27.388 17.034-44.487z" fill="#ffdd40"/><path d="m294.202 347.722c4.098 2.366 9.087 2.536 13.347.456.456-.222.97-.208 1.432.019l124.832-216.214-11.494-6.636-128.317 222.249c.068.04.131.086.2.126z" fill="#ffb332"/><path d="m340.76 289.455c-5.517 1.386-7.683-1.873-8.529-4.434-.218-.661-.69-1.154-1.267-1.445l-36.962 64.02c.068.04.131.086.199.126 4.098 2.366 9.087 2.536 13.347.456.456-.222.97-.208 1.432.019l33.749-58.454c-.571-.34-1.273-.463-1.969-.288z" fill="#ff9100"/><path d="m309.09 348.244c.488.282.79.757.828 1.302.328 4.729 2.97 8.964 7.068 11.331 4.098 2.366 9.087 2.536 13.346.456.491-.24 1.053-.216 1.541.066.035.02.062.048.095.071l124.832-216.215-22.988-13.272-124.831 216.214c.036.017.074.027.109.047z" fill="#ffdd40"/><path d="m363.806 302.735c-14.329 3.495-18.625-6.295-19.875-11.375-.174-.707-.622-1.273-1.201-1.617l-33.749 58.454c.036.017.074.027.109.047.488.282.79.757.828 1.302.328 4.729 2.97 8.964 7.068 11.331 4.098 2.366 9.087 2.536 13.347.456.491-.24 1.053-.216 1.541.066.035.021.062.049.095.071l33.742-58.444c-.558-.33-1.231-.455-1.905-.291z" fill="#ffb332"/><path d="m332.701 362.7c.328 4.729 2.97 8.964 7.068 11.33.069.04.14.071.209.109l128.315-222.249-11.494-6.636-124.83 216.215c.428.287.697.725.732 1.231z" fill="#ffb332"/><path d="m376.493 308.654c-6.24 1.551-8.685-1.786-9.628-4.264-.225-.593-.642-1.063-1.153-1.364l-33.742 58.444c.428.287.697.725.733 1.231.328 4.729 2.97 8.964 7.068 11.33.069.04.14.071.209.109l37.803-65.477c-.418-.1-.858-.117-1.29-.009z" fill="#ff9100"/><path d="m289.473 382.096c4.287.902 8.505 2.476 12.5 4.782 3.995 2.307 7.467 5.173 10.392 8.434l22.648-16.292c2.043-1.107 3.74-2.759 4.902-4.772l.538-.932c-.069-.039-.141-.068-.21-.108-3.969-2.292-6.301-6.323-6.596-10.575-.06-.864-.544-1.565-1.204-1.986-.727-.464-1.67-.586-2.527-.168-8.457 4.131-18.401-1.599-19.053-11-.066-.951-.643-1.706-1.409-2.104-.695-.361-1.544-.43-2.323-.05-3.829 1.871-8.487 1.867-12.456-.425-.069-.04-.13-.087-.198-.128l-.538.932c-1.162 2.013-1.744 4.308-1.681 6.631z" fill="#fcf9eb"/><path d="m316.401 359.367c-3.07-2.18-5.244-5.66-5.537-9.887-.066-.951-.643-1.706-1.409-2.104-.695-.361-1.545-.43-2.323-.05-3.829 1.871-8.487 1.867-12.456-.425-.069-.04-.13-.087-.198-.128l-.538.932c-1.162 2.013-1.744 4.308-1.681 6.631l-2.785 27.759c3.718.783 7.384 2.072 10.899 3.905 1.441-5.564 3.321-12.733 4.934-18.607 1.873-6.819 7.159-8.096 11.094-8.026z" fill="#fceca9"/><g><path d="m326.466 228.861h-51.551c-4.495 0-8.14-3.644-8.14-8.14s3.644-8.139 8.14-8.139h51.551c4.495 0 8.14 3.644 8.14 8.139s-3.645 8.14-8.14 8.14z" fill="#bec8f7"/></g><g><path d="m326.466 259.655h-51.551c-4.495 0-8.14-3.644-8.14-8.14 0-4.495 3.644-8.139 8.14-8.139h51.551c4.495 0 8.14 3.644 8.14 8.139 0 4.496-3.645 8.14-8.14 8.14z" fill="#bec8f7"/></g><g><path d="m326.466 198.067h-51.551c-4.495 0-8.14-3.644-8.14-8.139s3.644-8.139 8.14-8.139h51.551c4.495 0 8.14 3.644 8.14 8.139s-3.645 8.139-8.14 8.139z" fill="#bec8f7"/></g><g><path d="m263.701 382.832h-149.681c-4.495 0-8.14-3.644-8.14-8.14s3.644-8.139 8.14-8.139h149.681c4.495 0 8.139 3.644 8.139 8.139s-3.644 8.14-8.139 8.14z" fill="#bec8f7"/></g><g><path d="m265.872 352.038h-151.852c-4.495 0-8.14-3.644-8.14-8.139s3.644-8.14 8.14-8.14h151.852c4.495 0 8.139 3.644 8.139 8.14s-3.644 8.139-8.139 8.139z" fill="#bec8f7"/></g><g><path d="m262.616 413.627h-148.596c-4.495 0-8.14-3.644-8.14-8.139s3.644-8.14 8.14-8.14h148.596c4.495 0 8.139 3.644 8.139 8.14s-3.644 8.139-8.139 8.139z" fill="#bec8f7"/></g><g><path d="m143.326 145.927c-5.994 0-10.853-4.859-10.853-10.853v-9.299c0-5.994 4.859-10.853 10.853-10.853s10.853 4.859 10.853 10.853v9.299c0 5.994-4.859 10.853-10.853 10.853z" fill="#e80054"/></g><g><path d="m182.667 145.927c-5.994 0-10.853-4.859-10.853-10.853v-22.025c0-5.994 4.859-10.853 10.853-10.853s10.853 4.859 10.853 10.853v22.025c0 5.994-4.859 10.853-10.853 10.853z" fill="#ff7186"/></g><g><path d="m222.008 145.927c-5.994 0-10.853-4.859-10.853-10.853v-34.75c0-5.994 4.859-10.853 10.853-10.853s10.853 4.859 10.853 10.853v34.75c0 5.994-4.859 10.853-10.853 10.853z" fill="#ff9100"/></g><g><path d="m261.349 145.927c-5.994 0-10.853-4.859-10.853-10.853v-47.475c0-5.994 4.859-10.853 10.853-10.853s10.853 4.859 10.853 10.853v47.475c0 5.994-4.859 10.853-10.853 10.853z" fill="#ffb332"/></g><g><path d="m300.69 145.927c-5.994 0-10.853-4.859-10.853-10.853v-60.201c0-5.994 4.859-10.853 10.853-10.853s10.853 4.859 10.853 10.853v60.201c0 5.994-4.859 10.853-10.853 10.853z" fill="#ffdd40"/></g><path d="m182.667 122.284c-5.721 0-10.397-4.429-10.812-10.044-.02.268-.041.536-.041.809v22.025c0 5.994 4.859 10.852 10.853 10.852s10.853-4.859 10.853-10.852v-22.025c0-.273-.021-.541-.041-.809-.415 5.615-5.091 10.044-10.812 10.044z" fill="#ff4155"/><path d="m222.008 122.284c-5.994 0-10.853-4.859-10.853-10.853v23.643c0 5.994 4.859 10.852 10.853 10.852s10.853-4.859 10.853-10.852v-23.643c0 5.994-4.859 10.853-10.853 10.853z" fill="#ff7f00"/><path d="m261.349 122.284c-5.994 0-10.853-4.859-10.853-10.853v23.643c0 5.994 4.859 10.852 10.853 10.852s10.853-4.859 10.853-10.852v-23.643c0 5.994-4.859 10.853-10.853 10.853z" fill="#ff9100"/><path d="m300.69 122.284c-5.994 0-10.853-4.859-10.853-10.853v23.643c0 5.994 4.859 10.852 10.853 10.852s10.853-4.859 10.853-10.852v-23.643c0 5.994-4.859 10.853-10.853 10.853z" fill="#ffb332"/><g><path d="m441.183 171.751c-1.381 0-2.781-.352-4.063-1.092l-15.469-8.931c-3.893-2.247-5.227-7.225-2.979-11.119 2.247-3.893 7.225-5.228 11.119-2.979l15.469 8.931c3.893 2.247 5.227 7.225 2.979 11.119-1.507 2.61-4.243 4.071-7.056 4.071z" fill="#fceca9"/></g><g><path d="m285.526 321.244h-10.611c-4.495 0-8.14-3.644-8.14-8.14s3.644-8.139 8.14-8.139h10.611c4.495 0 8.14 3.644 8.14 8.139s-3.645 8.14-8.14 8.14z" fill="#bec8f7"/></g><g><path d="m303.305 290.45h-28.39c-4.495 0-8.14-3.644-8.14-8.14s3.644-8.14 8.14-8.14h28.39c4.495 0 8.139 3.644 8.139 8.14s-3.644 8.14-8.139 8.14z" fill="#bec8f7"/></g><g><path d="m467.978 152.438-45.976-26.544c-4.081-2.356-5.479-7.574-3.123-11.656 2.356-4.081 7.574-5.479 11.655-3.123l45.976 26.544c4.081 2.356 5.479 7.574 3.123 11.656-2.355 4.081-7.573 5.479-11.655 3.123z" fill="#d3dcfb"/></g><path d="m441.002 129.089c1.58-3.035 4.557-4.815 7.698-5.017.873-.056 1.467-.872 1.36-1.684l-19.526-11.273c-4.081-2.356-9.299-.958-11.655 3.123s-.958 9.299 3.123 11.656l18.642 10.763c-.929-2.405-.905-5.141.358-7.568z" fill="#bec8f7"/><g><path d="m438.435 97.431 45.976 26.544c.092.053.175.115.264.171l8.335-14.436c7.417-12.846 3.015-29.272-9.831-36.689-12.846-7.417-29.272-3.015-36.689 9.831l-8.335 14.436c.093.049.188.09.28.143z" fill="#ff4155"/></g><g><path d="m476.195 138.207-45.976-26.544c-4.081-2.356-5.479-7.574-3.123-11.656 2.356-4.081 7.574-5.479 11.656-3.123l45.976 26.544c4.081 2.356 5.479 7.575 3.123 11.656-2.357 4.081-7.575 5.479-11.656 3.123z" fill="#e9efff"/></g><path d="m449.932 121.939c-1.395-2.821-1.343-6.289.495-9.175 1.886-2.96 5.228-4.42 8.562-4.196l-20.238-11.685c-4.082-2.356-9.3-.958-11.656 3.123-2.357 4.081-.958 9.299 3.123 11.656l19.768 11.413c.13-.357.131-.762-.054-1.136z" fill="#d3dcfb"/><path d="m198.002 483.361v-37.995h-109.942c33.761 31.8 76.55 54.112 124.111 62.706-8.475-4.973-14.169-14.174-14.169-24.711z" fill="#bec8f7"/><path d="m241.465 265.745c-20.567 10.081-26.086-8.984-26.086-8.984-1.724 4.765-4.34 9.103-7.659 12.8l20.533 18.422c5.757-6.412 10.275-13.951 13.212-22.238z" fill="#ffb332"/><path d="m228.851 287.31-20.541-18.428c-7.159 8.351-17.778 13.65-29.641 13.65-21.559 0-39.036-17.477-39.036-39.036 0-13.887 7.258-26.072 18.181-32.991v-.001c-21.158-2.032-14.956-22.776-14.806-23.268-18.603 11.817-30.959 32.589-30.959 56.26 0 36.794 29.827 66.621 66.621 66.621 20.015-.001 37.968-8.831 50.181-22.807z" fill="#1aa9e8"/><ellipse cx="477.256" cy="91.202" fill="#ff7186" rx="9.871" ry="9.871" transform="matrix(.122 -.993 .993 .122 328.424 553.738)"/><path d="m302.448 386.057c-4.118-2.378-8.464-3.995-12.878-4.917l-2.256 22.492c-.474 4.095 4.173 6.778 7.482 4.32l18.35-13.2c-3.007-3.362-6.58-6.317-10.698-8.695z" fill="#5f5f9b"/><path d="m298.057 395.016s1.083-4.266 2.559-9.953c-3.567-1.839-7.281-3.136-11.047-3.923l-2.256 22.492c-.474 4.095 4.172 6.778 7.482 4.32l7.115-5.118c-4.811-2.112-3.853-7.818-3.853-7.818z" fill="#47477f"/></g></svg>