<svg id="Capa_1" enable-background="new 0 0 512 512" height="512" viewBox="0 0 512 512" width="512" xmlns="http://www.w3.org/2000/svg" xmlns:xlink="http://www.w3.org/1999/xlink"><linearGradient id="SVGID_1_" gradientUnits="userSpaceOnUse" x1="256" x2="256" y1="512" y2="0"><stop offset="0" stop-color="#addcff"/><stop offset=".5028" stop-color="#eaf6ff"/><stop offset="1" stop-color="#eaf6ff"/></linearGradient><linearGradient id="SVGID_2_" gradientUnits="userSpaceOnUse" x1="256" x2="256" y1="332" y2="0"><stop offset="0" stop-color="#5558ff"/><stop offset="1" stop-color="#00c0ff"/></linearGradient><g><g><g><path d="m497 392h-136v-45c0-8.401-6.599-15-15-15h-15l-75-30-75 30h-15c-8.401 0-15 6.599-15 15v75h-136c-8.401 0-15 6.599-15 15v60c0 8.399 6.599 15 15 15h482c8.401 0 15-6.601 15-15v-90c0-8.401-6.599-15-15-15zm-391-120h15v15c0 8.291 6.709 15 15 15s15-6.709 15-15v-15h15c8.291 0 15-6.709 15-15s-6.709-15-15-15h-15v-15c0-8.291-6.709-15-15-15s-15 6.709-15 15v15h-15c-8.291 0-15 6.709-15 15s6.709 15 15 15zm331-212h15v15c0 8.291 6.709 15 15 15s15-6.709 15-15v-15h15c8.291 0 15-6.709 15-15s-6.709-15-15-15h-15v-15c0-8.291-6.709-15-15-15s-15 6.709-15 15v15h-15c-8.291 0-15 6.709-15 15s6.709 15 15 15z" fill="url(#SVGID_1_)"/></g></g><g><g><path d="m406 60h-45v-30h15c8.401 0 15-6.601 15-15 0-8.401-6.599-15-15-15h-240c-8.401 0-15 6.599-15 15 0 8.399 6.599 15 15 15h15v30h-45c-8.291 0-15 6.709-15 15v30c0 41.353 33.647 75 75 75h16.985c16.031 15.842 36.25 25.426 58.015 28.541v63.459h-15c-24.9 0-45 20.1-45 45v15h150v-15c0-24.9-20.1-45-45-45h-15v-63.516c22.482-3.257 42.733-13.317 58.259-28.484h16.741c41.353 0 75-33.647 75-75v-30c0-8.291-6.709-15-15-15zm-285 45v-15h30v15c0 15.668 3.75 30.703 10.298 44.524-22.581-2.388-40.298-21.319-40.298-44.524zm270 0c0 23.194-17.701 42.12-40.269 44.522 6.407-13.566 10.269-28.55 10.269-44.522v-15h30z" fill="url(#SVGID_2_)"/></g></g></g></svg>