<svg height="511pt" viewBox="0 -7 511.9996 511" width="511pt" xmlns="http://www.w3.org/2000/svg"><path d="m256 288.5c-57.347656 0-104 46.652344-104 104s46.652344 104 104 104 104-46.652344 104-104-46.652344-104-104-104zm0 0" fill="#f2bd52"/><path d="m256 304.5c-48.523438 0-88 39.476562-88 88s39.476562 88 88 88 88-39.476562 88-88-39.476562-88-88-88zm0 0" fill="#fde161"/><path d="m264 384.5h-16c-8.820312 0-16-7.179688-16-16s7.179688-16 16-16h40c4.417969 0 8-3.582031 8-8s-3.582031-8-8-8h-24v-16c0-4.417969-3.582031-8-8-8s-8 3.582031-8 8v16c-17.644531 0-32 14.355469-32 32s14.355469 32 32 32h16c8.820312 0 16 7.179688 16 16s-7.179688 16-16 16h-40c-4.417969 0-8 3.582031-8 8s3.582031 8 8 8h24v16c0 4.417969 3.582031 8 8 8s8-3.582031 8-8v-16c17.644531 0 32-14.355469 32-32s-14.355469-32-32-32zm0 0" fill="#fef7d8"/><g fill="#bba8d7"><path d="m328 136.5h-24v-128c0-4.417969-3.582031-8-8-8h-80c-4.417969 0-8 3.582031-8 8v128h-24c-6.324219 0-10.183594 7.34375-6.578125 12.554688l72 104c3.128906 4.515624 10.027344 4.515624 13.15625 0l72-104c3.605469-5.210938-.253906-12.554688-6.578125-12.554688zm0 0"/><path d="m511.085938 236.785156c-1.382813-2.632812-4.109376-4.285156-7.085938-4.285156h-24v-167.25c0-4.417969-3.582031-8-8-8h-80c-4.417969 0-8 3.582031-8 8v167.25h-24c-6.324219 0-10.183594 7.34375-6.578125 12.554688l72 104c3.128906 4.515624 10.027344 4.515624 13.15625 0l72-104c1.691406-2.449219 1.890625-5.632813.507813-8.269532zm0 0"/><path d="m152 288.5h-24v-167.25c0-4.417969-3.582031-8-8-8h-80c-4.417969 0-8 3.582031-8 8v167.25h-24c-6.324219 0-10.183594 7.34375-6.578125 12.554688l72 104c3.128906 4.515624 10.027344 4.515624 13.15625 0l72-104c3.605469-5.210938-.253906-12.554688-6.578125-12.554688zm0 0"/></g><path d="m407.964844 272.5v-207.25c0-4.417969 3.582031-8 8-8h-23.964844c-4.417969 0-8 3.582031-8 8v167.25h-24c-6.324219 0-10.183594 7.34375-6.578125 12.554688l72 104c3.128906 4.515624 10.027344 4.515624 13.15625 0l6.066406-8.765626zm0 0" fill="#8d6dbd"/><path d="m231.929688 176.558594v-168.058594c0-4.417969 3.582031-8 8-8h-23.964844c-4.417969 0-8 3.582031-8 8v128.058594h-24c-6.324219 0-10.183594 7.34375-6.578125 12.554687l72 104c3.128906 4.515625 10.027343 4.515625 13.15625 0l6.066406-8.765625zm0 0" fill="#8d6dbd"/><path d="m55.929688 328.558594v-207.25c0-4.417969 3.582031-8 8-8h-23.964844c-4.417969 0-8 3.582031-8 8v167.25h-24c-6.324219 0-10.183594 7.34375-6.578125 12.554687l72 104c3.128906 4.515625 10.027343 4.515625 13.15625 0l6.066406-8.765625zm0 0" fill="#8d6dbd"/></svg>