<svg height="512pt" viewBox="-40 0 512 512" width="512pt" xmlns="http://www.w3.org/2000/svg"><path d="m214.421875 467.863281h-196.765625c-9.738281-.03125-17.6289062-7.917969-17.65625-17.65625v-397.242187c.0273438-9.738282 7.917969-17.625 17.65625-17.65625h317.792969c9.738281.03125 17.625 7.917968 17.652343 17.65625v220.074218zm0 0" fill="#7f5b53"/><path d="m317.792969 262.257812v-182.808593c0-4.875-3.953125-8.828125-8.828125-8.828125h-264.828125c-4.875 0-8.828125 3.953125-8.828125 8.828125v344.273437c0 4.875 3.953125 8.828125 8.828125 8.828125h145.011719c2.777343 0 5.394531-1.308593 7.0625-3.53125l119.816406-161.5c1.140625-1.519531 1.757812-3.363281 1.765625-5.261719zm0 0" fill="#f9eab0"/><path d="m141.242188 35.308594c0-19.5 15.808593-35.308594 35.308593-35.308594 19.503907 0 35.3125 15.808594 35.3125 35.308594" fill="#ecf0f1"/><path d="m97.101562 35.308594h158.898438v35.3125c0 9.75-7.90625 17.65625-17.65625 17.65625h-123.585938c-9.75 0-17.65625-7.90625-17.65625-17.65625zm0 0" fill="#bdc3c7"/><path d="m157.023438 303.667969-54.226563-54.226563c-3.445313-3.449218-3.445313-9.035156 0-12.484375l12.484375-12.480469c3.445312-3.445312 9.035156-3.445312 12.480469 0l24.214843 24.214844c1.855469 1.851563 4.4375 2.785156 7.046876 2.546875 2.613281-.242187 4.980468-1.632812 6.46875-3.792969l74.070312-107.695312c1.328125-1.929688 3.363281-3.257812 5.667969-3.683594 2.304687-.425781 4.683593.078125 6.613281 1.40625l14.539062 9.949219c1.929688 1.324219 3.253907 3.363281 3.679688 5.667969.429688 2.300781-.078125 4.679687-1.402344 6.609375l-98.121094 142.699219c-1.480468 2.164062-3.847656 3.558593-6.457031 3.804687-2.613281.246094-5.199219-.683594-7.058593-2.535156zm0 0" fill="#24ae5f"/><path d="m432.550781 388.414062c0 68.253907-55.332031 123.585938-123.585937 123.585938s-123.585938-55.332031-123.585938-123.585938h123.585938v-123.585937c32.777344 0 64.210937 13.019531 87.390625 36.195313 23.175781 23.179687 36.195312 54.613281 36.195312 87.390624zm0 0" fill="#35495e"/><path d="m397.242188 388.414062c0 3-.175782 5.914063-.441407 8.828126-4.296875 41.726562-37.28125 74.710937-79.007812 79.007812-2.914063.261719-5.824219.441406-8.828125.441406-3 0-5.914063-.179687-8.828125-.441406-45.066407-4.617188-79.363281-42.535156-79.445313-87.835938l88.273438-88.277343c45.304687.085937 83.21875 34.382812 87.835937 79.449219.265625 2.914062.441407 5.828124.441407 8.828124zm0 0" fill="#b0d3f0"/><path d="m308.964844 264.828125v123.585937h-123.585938c0-68.253906 55.332032-123.585937 123.585938-123.585937zm0 0" fill="#955ba5"/><g fill="#7f8c8d"><path d="m397.242188 388.414062c0 3-.175782 5.914063-.441407 8.828126h-26.042969c-4.875 0-8.828124-3.953126-8.828124-8.828126s3.953124-8.828124 8.828124-8.828124h26.042969c.265625 2.914062.441407 5.828124.441407 8.828124zm0 0"/><path d="m317.792969 450.207031v26.042969c-2.914063.261719-5.824219.441406-8.828125.441406-3 0-5.914063-.179687-8.828125-.441406v-26.042969c0-4.875 3.953125-8.828125 8.828125-8.828125s8.828125 3.953125 8.828125 8.828125zm0 0"/></g></svg>