<svg id="Layer_1" enable-background="new 0 0 512 512" viewBox="0 0 512 512" xmlns="http://www.w3.org/2000/svg"><g><path clip-rule="evenodd" d="m46.1 370.2h46.9v103.5h-46.9zm86 16.6c7.1-4.1 13.4-7.9 19-11.3-28.4-20.9-50.1-51.2-60-87.8-23-85.7 27.9-173.9 113.6-196.8 85.7-23 173.9 27.9 196.9 113.6 24.5 91.3-34.7 183.9-128 200l10.2 2.7c10.9-1.7 61.3-23.2 95-37 28.6-11.7 49.7 16.7 28.3 29.5-26.8 15.9-102.8 64.9-125.8 70l-149.3-7.4v-75.5zm68.9-39.2c11.7-2.6 23.7 1.2 53.5 9.4 6.9-.5 13.8-1.6 20.8-3.5 59.4-15.9 94.6-77 78.7-136.3-15.9-59.4-76.9-94.6-136.3-78.7s-94.6 76.9-78.7 136.3c9 33.7 32.5 59.6 62 72.8zm29.7-160.6c32.6-8.7 66.1 10.6 74.8 43.2s-10.6 66.1-43.2 74.8-66.1-10.6-74.8-43.2c-8.8-32.5 10.6-66 43.2-74.8z" fill="#d2e5f6" fill-rule="evenodd"/><path d="m86.8 481h-40.7c-4.4 0-8-3.6-8-8v-103.6c0-4.4 3.6-8 8-8h40.7c2.6-4.8 7.7-8 13.4-8h16.7c-45.5-54.4-51.8-131.4-16.5-192.4 46.5-80.6 149.8-108.4 230.5-61.7 11.3 6.5 22.1 14.6 31.7 23.6l19.3-18.6 35.1-76.6c3.1-6.7 13-5.9 14.9 1.2l7.9 28.3 28.2 7.8c7.1 2 8.1 11.9 1 15.1l-75.9 35.6-19.5 18.7c47.7 54.5 54.9 133.3 19 195.4-8 13.8-18 26.6-29.6 37.7 5.7-2.4 10.5-4.4 12.9-5.3 17.9-7.3 36.7-1.9 44.7 11.6 6.6 11.1 3.5 24.5-9.4 32.1-2.9 1.8-11.1 6.7-20.5 12.6-34.3 21.1-87.8 54-107.6 58.4-.7.1-1.4.2-2.1.2l-140.9-7c0 5.6.1 9.9-4.5 14.6-2.7 2.7-6.6 4.5-10.8 4.5h-24.7c-5.6-.2-10.6-3.4-13.3-8.2zm-1.8-103.6h-30.9v87.6h30.9zm39.2-8h-23.2v103.6h23.2zm27.5-4.3c10-6.2 22.4-14.3 30.9-19-53.9-34.2-71.5-104.8-39.4-160.4 38.2-66.1 127.4-79.7 183.7-28.6l24.2-23.2c-37.9-35.4-92.1-50-144.1-36.1-81.5 21.8-129.9 105.6-108 187.1 8.6 32.1 27.1 60 52.7 80.2zm50.3-26.5c11.8-1.8 23.7 1.4 48.5 8.4l4.8 1.3c2.8-.3 5.6-.6 8.4-1.1 60.1-10.2 98.4-69.8 82.6-128.7-3.9-14.7-10.9-27.8-19.9-38.9l-29.3 28.1c6.3 8.5 10.5 18.7 11.9 29.5h18.9c4.4 0 8 3.6 8 8s-3.6 8-8 8h-18.9c-3.6 28.1-25.7 50.7-54.5 54.5v18.9c0 4.4-3.6 8-8 8s-8-3.6-8-8v-18.9c-28.1-3.6-50.7-25.7-54.5-54.5h-18.9c-4.4 0-8-3.6-8-8s3.6-8 8-8h18.9c1-8.2 3.8-16.4 7.9-23.5 9.6-16.6 26.5-28.4 46.5-31v-18.7c0-4.4 3.6-8 8-8s8 3.6 8 8v18.8c11.6 1.5 22.5 6.2 31.5 13.5l29.3-28.1c-48.8-43.5-125.5-31.4-158.3 25.4-30.1 52.3-9.2 119.1 45.1 145zm78.4 21.1c7.7 9.4 8.4 23.4 2.6 33.9 83-20.3 133.1-105.2 111-187.9-6.2-23.1-17.3-43.5-31.9-60.4l-24.2 23.2c32.4 38.6 36.9 93.1 11.9 136.3-14.8 25.8-39 45.9-69.4 54.9zm-106.7 10.5c-10.5 6.6-22.2 13.9-33.6 20.5v63.3l140.5 7c18-4.7 68.8-36 101.7-56.2 7.1-4.4 13.2-8.1 20.7-12.6 7.6-4.5 5.2-10.7-.1-14.3-4.8-3.3-12.4-4.5-21.1-.9-30.4 12.4-80.9 34.1-96.1 37.4-1.2.3-2.6.3-3.9-.1-21.8-5.8-41.8-11.5-64.1-17.5-14.7-4-9.5-19 2.7-15.8l39.5 10.5c4.6-.2 7.7-2.7 9.4-6.1 3.4-7.1 1.2-18.1-8.7-19.1l-14.4-3.9c-42.5-11.6-40.1-12.7-72.5 7.8zm78.3-119.1c-3.2 3.1-8.2 2.9-11.3-.2s-2.9-8.2.2-11.3l33.4-32.1c-22.5-16.6-54.6-9.9-68.6 14.3-13 22.4-5.2 51.3 17.2 64.2 22.5 13 51.3 5.2 64.2-17.2 8.9-15.4 8.4-34.8-1.8-49.9zm170.4-197-17.6 38.4 38.2-18-11.8-3.3c-2.6-.7-4.8-2.7-5.6-5.6z" fill="#4861ad"/></g></svg>