<svg id="Layer_3" height="512" viewBox="0 0 64 64" width="512" xmlns="http://www.w3.org/2000/svg" data-name="Layer 3"><circle cx="32" cy="32" fill="#686868" r="30"/><circle cx="32" cy="32" fill="#f2f2f2" r="23"/><path d="m50 30a23 23 0 0 0 -12.005-20.206 23 23 0 0 0 -16.99 42.412 23 23 0 0 0 28.995-22.206z" fill="#fff"/><path d="m31 12h2v4h-2z" fill="#686868"/><path d="m12 31h4v2h-4z" fill="#686868"/><path d="m30 29v-6h-2l4-4 4 4h-2v6" fill="#3b5892"/><path d="m32 35-8 8 2 2h-7v-7l2 2 8-8" fill="#4c6cb5"/><circle cx="32" cy="32" fill="#f4a93c" r="4"/><path d="m28 32a3.979 3.979 0 0 0 1.293 2.929 3.985 3.985 0 0 0 3.414-6.858 3.96 3.96 0 0 0 -4.707 3.929z" fill="#f6b940"/><path d="m30 23v3.405h2v-7.405l-4 4z" fill="#4c6cb5"/><path d="m31 48h2v4h-2z" fill="#686868"/><circle cx="51" cy="38" fill="#f2b9a1" r="7"/><path d="m62 62v-6a11 11 0 0 0 -11-11 11 11 0 0 0 -11 11v6z" fill="#b5b5b5"/><path d="m50 58a1 1 0 0 0 1-1v-12a11 11 0 0 0 -11 11v2z" fill="#ccc"/><path d="m44 38a7 7 0 0 0 7 7v-14a7 7 0 0 0 -7 7z" fill="#fbe1ca"/></svg>