<svg height="512" viewBox="0 0 128 128" width="512" xmlns="http://www.w3.org/2000/svg" xmlns:xlink="http://www.w3.org/1999/xlink"><radialGradient id="radial-gradient" cx="87.13" cy="30.87" gradientUnits="userSpaceOnUse" r="10.829"><stop offset="0" stop-color="#c49a6c"/><stop offset=".3547" stop-color="#a97c50"/><stop offset=".9777" stop-color="#754c29"/></radialGradient><radialGradient id="radial-gradient-2" cx="39.913" cy="31.783" r="15.788" xlink:href="#radial-gradient"/><radialGradient id="radial-gradient-3" cx="65.348" cy="118.587" gradientUnits="userSpaceOnUse" r="65.544"><stop offset=".176" stop-color="#f0f0ff"/><stop offset=".3964" stop-color="#dcdcf9"/><stop offset=".4777" stop-color="#d9d9f4"/><stop offset=".6044" stop-color="#cacadb"/><stop offset=".6955" stop-color="#adb3bc"/></radialGradient><radialGradient id="radial-gradient-4" cx="65.152" cy="68.109" gradientUnits="userSpaceOnUse" r="49.916"><stop offset=".2323" stop-color="#fed18c"/><stop offset=".773" stop-color="#ffbd5a"/><stop offset="1" stop-color="#e4ad5d"/></radialGradient><radialGradient id="radial-gradient-5" cx="103.5" cy="92.174" gradientUnits="userSpaceOnUse" r="48.61"><stop offset="0" stop-color="#ed7381"/><stop offset=".5957" stop-color="#ea5a6b"/><stop offset=".8512" stop-color="#c8556b"/></radialGradient><radialGradient id="radial-gradient-6" cx="22.696" cy="91.978" gradientUnits="userSpaceOnUse" r="49.82"><stop offset="0" stop-color="#b1f1a8"/><stop offset=".5957" stop-color="#99db6e"/><stop offset=".8512" stop-color="#99db6e"/></radialGradient><radialGradient id="radial-gradient-7" cx="70.533" cy="112.717" r="29.498" xlink:href="#radial-gradient"/><radialGradient id="radial-gradient-8" cx="66.13" cy="19.141" gradientUnits="userSpaceOnUse" r="28.933"><stop offset="0" stop-color="#fed18c"/><stop offset=".5726" stop-color="#ffbd5a"/><stop offset=".9661" stop-color="#e4ad5d"/></radialGradient><radialGradient id="radial-gradient-9" cx="63.783" cy="22.467" gradientUnits="userSpaceOnUse" r="15.168"><stop offset="0" stop-color="#fed18c"/><stop offset=".5957" stop-color="#ffbd5a"/><stop offset=".8512" stop-color="#e4ad5d"/></radialGradient><radialGradient id="radial-gradient-10" cx="21.13" cy="39.141" r="28.933" xlink:href="#radial-gradient-8"/><radialGradient id="radial-gradient-11" cx="18.783" cy="42.467" r="15.168" xlink:href="#radial-gradient-9"/><radialGradient id="radial-gradient-12" cx="111.13" cy="39.141" r="28.933" xlink:href="#radial-gradient-8"/><radialGradient id="radial-gradient-13" cx="108.783" cy="42.467" r="15.168" xlink:href="#radial-gradient-9"/><g id="Layer_2" data-name="Layer 2"><path d="m95.2275 31.8135a.9981.9981 0 0 1 -.43-.0977 67.3559 67.3559 0 0 0 -12.1885-4.3994 1 1 0 1 1 .498-1.9375 69.3686 69.3686 0 0 1 12.5518 4.5322 1 1 0 0 1 -.4317 1.9024z" fill="url(#radial-gradient)"/><path d="m33.1392 31.7461a67.3318 67.3318 0 0 1 12.2519-4.43 1 1 0 0 0 -.498-1.9375 69.3378 69.3378 0 0 0 -12.6162 4.5625 1 1 0 0 0 .8623 1.8047z" fill="url(#radial-gradient-2)"/><path d="m64 79a40 40 0 0 0 -40 40h80a40 40 0 0 0 -40-40z" fill="url(#radial-gradient-3)"/><path d="m64 78.9988a40 40 0 0 1 40 39.9993h15.8564a4.02 4.02 0 0 0 3.9892-4.3379 60.0029 60.0029 0 0 0 -119.6912 0 4.02 4.02 0 0 0 3.9892 4.3379h15.8564a40 40 0 0 1 40-39.9993z" fill="url(#radial-gradient-4)"/><path d="m97.53 69.24a60.1612 60.1612 0 0 1 20.63 23.91 59.5173 59.5173 0 0 1 5.69 21.51 4.0254 4.0254 0 0 1 -3.99 4.34h-15.86a39.9922 39.9922 0 0 0 -17.63-33.16z" fill="url(#radial-gradient-5)"/><path d="m41.63 85.84a39.9922 39.9922 0 0 0 -17.63 33.16h-15.86a4.0254 4.0254 0 0 1 -3.99-4.34 59.5191 59.5191 0 0 1 5.69-21.5 60.1837 60.1837 0 0 1 20.68-23.95z" fill="url(#radial-gradient-6)"/><path d="m65.9509 118.0992a3 3 0 1 1 -4.0806-4.3987c1.2146-1.1268 24.7668-18.8835 24.7668-18.8835s-19.4715 22.1554-20.6862 23.2822z" fill="url(#radial-gradient-7)"/><circle cx="64" cy="24" fill="url(#radial-gradient-8)" r="15"/><circle cx="64" cy="24" fill="url(#radial-gradient-9)" r="11.842"/><path d="m66.3687 23h-1.3987v-2.7373h2.583a1 1 0 0 0 0-2h-2.583v-1.96a1 1 0 0 0 -2 0v1.96h-1.3387a3.3687 3.3687 0 0 0 0 6.7373h1.3387v2.7373h-3.1145a1 1 0 0 0 0 2h3.1145v1.96a1 1 0 0 0 2 0v-1.96h1.399a3.3687 3.3687 0 0 0 0-6.7373zm-4.7374 0a1.3687 1.3687 0 0 1 0-2.7373h1.3387v2.7373zm4.7374 4.7373h-1.3987v-2.7373h1.399a1.3687 1.3687 0 0 1 0 2.7373z" fill="#f0f0ff"/><circle cx="19" cy="44" fill="url(#radial-gradient-10)" r="15"/><circle cx="19" cy="44" fill="url(#radial-gradient-11)" r="11.842"/><path d="m21.3687 43h-1.3987v-2.7373h2.583a1 1 0 0 0 0-2h-2.583v-1.96a1 1 0 0 0 -2 0v1.96h-1.3387a3.3687 3.3687 0 0 0 0 6.7373h1.3387v2.7373h-3.1145a1 1 0 0 0 0 2h3.1145v1.96a1 1 0 0 0 2 0v-1.96h1.399a3.3687 3.3687 0 0 0 0-6.7373zm-4.7374 0a1.3687 1.3687 0 0 1 0-2.7373h1.3387v2.7373zm4.7374 4.7373h-1.3987v-2.7373h1.399a1.3687 1.3687 0 0 1 0 2.7373z" fill="#f0f0ff"/><circle cx="109" cy="44" fill="url(#radial-gradient-12)" r="15"/><circle cx="109" cy="44" fill="url(#radial-gradient-13)" r="11.842"/><path d="m111.3687 43h-1.3987v-2.7373h2.583a1 1 0 0 0 0-2h-2.583v-1.96a1 1 0 0 0 -2 0v1.96h-1.3384a3.3687 3.3687 0 0 0 0 6.7373h1.3384v2.7373h-3.1142a1 1 0 0 0 0 2h3.1142v1.96a1 1 0 0 0 2 0v-1.96h1.399a3.3687 3.3687 0 0 0 0-6.7373zm-4.7374 0a1.3687 1.3687 0 0 1 0-2.7373h1.3387v2.7373zm4.7374 4.7373h-1.3987v-2.7373h1.399a1.3687 1.3687 0 0 1 0 2.7373z" fill="#f0f0ff"/></g></svg>