<svg id="Layer_3" height="512" viewBox="0 0 64 64" width="512" xmlns="http://www.w3.org/2000/svg" data-name="Layer 3"><path d="m26 28-4 6-4-6h-12a4 4 0 0 1 -4-4v-18a4 4 0 0 1 4-4h32a4 4 0 0 1 4 4v18a4 4 0 0 1 -4 4z" fill="#5e87ca"/><path d="m6 56h52a4 4 0 0 1 4 4v2a0 0 0 0 1 0 0h-60a0 0 0 0 1 0 0v-2a4 4 0 0 1 4-4z" fill="#3b5892"/><path d="m11 56v-8h-2l5-6 5 6h-2v8" fill="#f4c758"/><path d="m23 56v-13h-2l5-6 5 6h-2v13" fill="#f0ae42"/><path d="m35 56v-18h-2l5-6 5 6h-2v18" fill="#f3a748"/><path d="m47 56v-32h-2l5-6 5 6h-2v32" fill="#d5883e"/><path d="m38 17-3.475 2.7a20.4 20.4 0 0 1 -12.525 4.3 20.4 20.4 0 0 1 -12.525-4.3l-3.475-2.7 3.475-2.7a20.4 20.4 0 0 1 12.525-4.3 20.4 20.4 0 0 1 12.525 4.3z" fill="#e2e7f6"/><circle cx="22" cy="17" fill="#ccc" r="4"/><path d="m22 19a2 2 0 1 1 2-2 2 2 0 0 1 -2 2z" fill="#686868"/><path d="m32.789 9.751a22.532 22.532 0 0 0 -21.578 0l-.958-1.751a24.535 24.535 0 0 1 23.494 0z" fill="#fbe1ca"/></svg>