<svg id="Layer_1" enable-background="new 0 0 512 512" height="512" viewBox="0 0 512 512" width="512" xmlns="http://www.w3.org/2000/svg"><g><path clip-rule="evenodd" d="m126.038 244.411c.083-1.764-1.287-3.266-3.051-3.348-1.763-.082-3.258 1.292-3.341 3.053-.083 1.757 1.295 3.262 3.051 3.343 1.763.082 3.259-1.287 3.341-3.048zm268.203 11.105c1.792 0 3.19-1.417 3.19-3.204 0-1.785-1.401-3.2-3.19-3.2-1.764 0-3.19 1.438-3.19 3.2 0 1.764 1.423 3.204 3.19 3.204zm-231.202-108.082c-11.66 0-21.144-9.489-21.144-21.149 0-11.658 9.487-21.144 21.144-21.144 11.658 0 21.144 9.486 21.144 21.144 0 11.661-9.484 21.149-21.144 21.149zm-50.337 71.317c1.053-.414 2.184-.621 3.316-.621 1.242 0 2.485.268 3.62.77l24.146 10.666c2.205.974 3.855 2.751 4.742 4.977.883 2.216.844 4.719-.096 6.913l-55.47 125.462c-2.001 4.527-7.432 6.623-11.959 4.622l-24.146-10.67c-2.203-.974-3.851-2.744-4.739-4.967-.887-2.217-.847-4.728.094-6.924l55.458-125.435c.948-2.214 2.769-3.926 5.034-4.793zm346.986 148.48c-1.04 2.128-2.719 3.757-4.947 4.619l-24.617 9.536c-4.593 1.78-9.91-.565-11.692-5.161l-49.564-127.843c-1.788-4.613.553-9.931 5.161-11.717l24.617-9.541c1.031-.4 2.113-.606 3.219-.606 1.244 0 2.502.264 3.648.75l.05.021.05.022c2.169.977 3.865 2.761 4.727 4.983l49.564 127.834c.854 2.203.808 4.596-.071 6.779l-.066.165zm-110.68-219.797c-11.685 0-21.144-9.467-21.144-21.149 0-11.68 9.462-21.144 21.144-21.144 11.658 0 21.144 9.486 21.144 21.144 0 11.661-9.484 21.149-21.144 21.149zm-93.008 3.771c-14.149 0-25.616-11.497-25.616-25.639s11.467-25.639 25.616-25.639c14.143 0 25.663 11.491 25.663 25.639 0 14.147-11.52 25.639-25.663 25.639z" fill="#9bc9ff" fill-rule="evenodd"/><g><path clip-rule="evenodd" d="m53.133 226.848c4.425 0 8.002-3.582 8.002-8.002 0-42.758 13.885-82.333 37.326-114.5l.565 15.989c.141 4.316 3.718 7.71 8.002 7.71.094 0 .188 0 .283-.005 4.424-.16 7.861-3.864 7.719-8.279l-1.224-33.965c35.583-38.007 86.182-61.8 142.194-61.8 41.232 0 81.476 13.165 114.613 37.293l-16.098.579c-4.424.155-7.861 3.865-7.719 8.279.189 4.321 3.719 7.715 8.002 7.715.094 0 .188 0 .282-.004l37.419-1.346c2.448-.085 4.754-1.299 6.166-3.29 1.459-1.986 1.93-4.533 1.224-6.896l-10.261-35.989c-1.224-4.25-5.648-6.712-9.884-5.497-4.236 1.21-6.731 5.639-5.507 9.889l3.389 11.908c-35.396-25.019-77.993-38.64-121.626-38.64-60.954 0-115.977 26.02-154.48 67.52l-34.031 9.706c-4.236 1.214-6.684 5.639-5.507 9.889 1.224 4.245 5.648 6.707 9.884 5.498l12.05-3.427c-24.429 34.398-38.738 76.388-38.738 121.664.001 4.419 3.578 8.001 7.955 8.001zm397.732-8.002c0 4.42 3.577 8.002 8.002 8.002s8.002-3.582 8.002-8.002c0-37.288-9.884-73.936-28.571-105.985-2.212-3.813-7.107-5.107-10.92-2.881-3.813 2.227-5.13 7.122-2.871 10.939 17.227 29.607 26.358 63.468 26.358 97.927zm-64.343-33.795h-71.215c-.612-1.464-1.318-2.904-2.024-4.307 6.59-13.48 20.522-22.31 35.725-22.31 17.227-.001 32.101 10.962 37.514 26.617zm-83.924 11.706h-93.196c6.072-20.206 24.758-34.553 46.598-34.553s40.526 14.346 46.598 34.553zm-105.905-11.706h-71.215c5.46-15.655 20.287-26.617 37.561-26.617 15.156 0 29.089 8.83 35.725 22.31-.753 1.403-1.412 2.843-2.071 4.307zm-33.654-42.616c-8.896 0-16.145-7.244-16.145-16.149 0-8.901 7.249-16.145 16.145-16.145s16.145 7.244 16.145 16.145c0 8.905-7.249 16.149-16.145 16.149zm92.961 3.77c-11.39 0-20.616-9.258-20.616-20.64 0-11.381 9.226-20.64 20.616-20.64 11.391 0 20.663 9.259 20.663 20.64 0 11.382-9.272 20.64-20.663 20.64zm93.008-3.77c-8.943 0-16.145-7.244-16.145-16.149 0-8.901 7.201-16.145 16.145-16.145 8.896 0 16.145 7.244 16.145 16.145-.001 8.905-7.249 16.149-16.145 16.149zm55.4 49.766c.236 2.259-.471 4.514-1.977 6.199-1.506 1.69-3.671 2.655-5.978 2.655h-76.534c.141.941.235 1.892.376 2.853.235 2.255-.518 4.509-2.024 6.199-1.506 1.685-3.672 2.655-5.931 2.655h-112.634c-2.307 0-4.472-.97-5.978-2.655-1.506-1.69-2.259-3.944-1.977-6.199.094-.956.236-1.911.377-2.853h-76.581c-2.259 0-4.424-.965-5.931-2.655-1.553-1.685-2.259-3.94-2.024-6.199 2.118-19.906 14.497-36.361 31.536-44.419-5.13-5.7-8.237-13.241-8.237-21.496 0-17.726 14.403-32.143 32.148-32.143 17.698 0 32.148 14.417 32.148 32.143 0 8.289-3.154 15.853-8.331 21.562 8.802 4.18 16.427 10.609 22.028 18.672 5.978-6.35 13.227-11.461 21.322-14.973-6.684-6.642-10.826-15.839-10.826-25.982 0-20.202 16.427-36.643 36.619-36.643 20.193 0 36.667 16.441 36.667 36.643 0 10.143-4.142 19.34-10.873 25.982 8.096 3.511 15.344 8.623 21.322 14.973 5.601-8.063 13.273-14.493 22.028-18.672-5.13-5.709-8.284-13.273-8.284-21.562 0-17.726 14.403-32.143 32.148-32.143 17.698 0 32.148 14.417 32.148 32.143 0 8.256-3.154 15.796-8.284 21.496 17.04 8.058 29.419 24.513 31.537 44.419zm-10.167 51.912c-4.519 0-8.19 3.671-8.19 8.199 0 4.533 3.671 8.204 8.19 8.204 4.566 0 8.19-3.671 8.19-8.204 0-4.528-3.624-8.199-8.19-8.199zm61.001 117.822c.518 1.351.188 2.518-.047 3.102-.283.579-.894 1.628-2.259 2.151l-24.617 9.536c-2.024.791-4.425-.268-5.225-2.307l-49.564-127.843c-.8-2.052.282-4.453 2.306-5.248l24.617-9.541c.518-.198.988-.268 1.412-.268.706 0 1.318.193 1.695.353.565.254 1.6.885 2.118 2.231zm-54.6-1.167-32.807-84.549-11.203 5.996c-14.073 7.333-27.253 1.939-40.056-3.276-16.662-6.825-33.936-13.885-58.742 3.13-5.319 3.643-10.779 8.251-16.192 13.716-11.861 11.984-26.453 23.332-43.492 33.791 17.18 17.481 35.772 9.969 57 1.379 18.027-7.3 36.667-14.845 54.035-4.928l65.473 37.302c2.542 1.469 4.848 3.3 6.778 5.446zm-129.627 49.46c-3.86-2.17-5.225-7.051-3.059-10.901 2.165-3.85 7.06-5.22 10.92-3.05l59.212 33.32c5.272 2.909 11.909.969 14.827-4.302 2.871-5.229.894-11.899-4.378-14.879-13.885-7.78-29.606-16.592-45.092-25.45-3.86-2.198-5.178-7.079-2.965-10.92 2.165-3.831 7.06-5.158 10.92-2.97 15.392 8.83 31.112 17.632 44.951 25.389h.047c2.448 1.384 5.366 1.709 8.143.913 2.824-.824 5.177-2.683 6.636-5.253 1.695-3.088 1.742-6.731.189-9.979-1.036-2.071-2.589-3.77-4.613-4.919l-65.473-37.302c-10.638-6.081-24.335-.551-40.103 5.86-24.146 9.753-54.129 21.901-79.923-11.32-1.836-2.358-2.542-5.29-1.977-8.228.565-2.951 2.306-5.413 4.895-6.933 18.357-10.727 33.889-22.428 46.127-34.774 2.777-2.806 5.554-5.403 8.331-7.818-13.179-5.187-24.664-2.509-36.667.306-12.708 2.984-25.888 6.072-39.491-1.426l-14.215-6.571-36.573 82.672c8.52 3.794 11.673 5.121 12.708 5.531 8.99 3.493 12.003 11.513 13.65 18.743 8.331-7.122 20.522-8.83 30.783-3.361 7.719 4.109 12.661 11.419 14.12 19.468 5.648-.805 11.532.141 16.804 2.951 6.401 3.422 11.014 9.07 13.132 15.589 6.637-1.817 13.838-1.148 20.24 2.264 6.401 3.417 11.014 9.065 13.132 15.58 6.637-1.812 13.838-1.139 20.24 2.278 3.201 1.68 5.931 3.912 8.143 6.632l34.313 19.397c2.495 1.388 5.413 1.723 8.19.913 2.871-.824 5.177-2.683 6.59-5.229 2.871-5.234.894-11.904-4.378-14.883zm17.133 53.277c-.423-.217-7.484-4.34-7.484-4.34-.424 3.031-1.365 6.001-2.871 8.774l-6.072 11.376 6.025 3.483c2.4 1.37 5.224 1.699 8.002.927 2.871-.8 5.319-2.739 6.731-5.309 2.871-5.257.941-11.95-4.331-14.911zm-35.961 18.432c-3.012 5.587-9.979 7.701-15.58 4.712-4.001-2.142-6.354-6.604-6.025-11.113l15.015-28.849c3.577-3.361 9.037-4.161 13.367-1.84 1.506.81 2.777 1.911 3.813 3.271 2.636 3.577 2.965 8.397.894 12.28zm-36.101-13.16c-3.389 4.392-9.555 5.738-14.497 3.097-3.907-2.099-6.26-6.316-6.025-10.727l16.662-32.322c3.577-3.351 9.037-4.146 13.368-1.826 4.378 2.325 6.731 7.366 5.884 12.219zm-35.396-13.721c-3.012 5.63-10.026 7.781-15.58 4.792-2.683-1.44-4.66-3.85-5.554-6.801-.894-2.961-.612-6.062.847-8.75l19.439-34.139c3.53-2.702 8.425-3.14 12.379-1.012 4.377 2.33 6.731 7.38 5.884 12.228zm-29.936-26.57c-3.53 2.659-8.378 3.078-12.332.969-2.683-1.44-4.66-3.859-5.554-6.811-.894-2.946-.565-6.058.847-8.736l12.049-22.475c2.965-5.587 9.931-7.696 15.533-4.707 5.272 2.801 7.484 9.197 5.13 14.662zm-62.366-63.59c-.894 2.01-3.342 2.951-5.366 2.071l-24.146-10.671c-1.318-.593-1.883-1.662-2.118-2.25-.235-.589-.518-1.779.047-3.097l55.447-125.41c.565-1.318 1.647-1.897 2.259-2.128.33-.132.847-.282 1.506-.282.471 0 1.035.089 1.6.344l24.146 10.666c1.318.584 1.883 1.661 2.118 2.254.236.589.518 1.774-.047 3.093zm381.398 6.599c-2.165 4.909-6.072 8.679-11.061 10.609l-24.617 9.541c-2.354.922-4.801 1.351-7.202 1.351-8.049 0-15.674-4.872-18.734-12.798l-1.741-4.5-18.216 7.597c.753 5.653-.235 11.461-3.059 16.54-3.436 6.26-9.085 10.821-16.004 12.859 1.883 6.594 1.318 13.89-2.212 20.31-5.272 9.602-15.627 14.709-25.888 13.852.094 4.509-.988 9.089-3.295 13.297-3.483 6.312-9.225 10.892-16.192 12.892-3.907 1.13-7.907 1.36-11.767.72-.094 4.208-1.177 8.44-3.295 12.361-3.483 6.312-9.508 11.052-16.474 13.01-2.4.668-4.848 1.012-7.249 1.012-4.519 0-8.99-1.181-12.991-3.483l-5.978-3.408c-3.436 4.519-8.237 7.86-13.838 9.55-2.636.8-5.319 1.196-8.002 1.196-4.472 0-8.896-1.087-12.897-3.248-5.648-3.008-9.884-7.771-12.285-13.349-7.249 2.739-15.533 2.438-22.734-1.422-4.989-2.678-8.943-6.778-11.438-11.616-7.672 3.756-16.992 3.907-25.088-.414-6.448-3.45-11.155-9.226-13.273-16.267-1.13-3.601-1.459-7.291-1.083-10.901-4.189-.099-8.425-1.158-12.285-3.229-6.449-3.45-11.202-9.23-13.321-16.272-2.118-7.037-1.412-14.478 2.024-20.932l6.401-11.937c-1.365-3.483-2.071-7.211-2.777-10.859-1.177-6.274-2.118-10.454-4.613-11.414-1.13-.447-3.813-1.558-13.367-5.808l-2.212 5.031c-3.342 7.479-10.685 11.941-18.357 11.941-2.73 0-5.46-.551-8.096-1.713l-24.146-10.671c-4.896-2.16-8.661-6.1-10.591-11.108-1.93-5.004-1.789-10.449.377-15.34l55.4-125.405c2.165-4.886 6.119-8.642 11.108-10.581 5.036-1.935 10.449-1.817 15.344.348l24.146 10.67c10.12 4.467 14.686 16.333 10.214 26.448l-3.719 8.43 14.78 6.801c.188.094.376.188.565.292 8.237 4.655 17.086 2.584 28.288-.038 14.968-3.511 33.325-7.818 54.882 4.585 29.701-18.107 52.576-8.797 69.427-1.902 12.191 4.989 19.439 7.63 26.547 3.94l12.85-6.877-3.436-8.835c-4.001-10.308 1.13-21.948 11.438-25.944l24.617-9.541c4.99-1.934 10.449-1.803 15.345.362 4.895 2.165 8.661 6.105 10.591 11.085l49.563 127.839c1.933 4.983 1.792 10.434-.374 15.343zm-338.754-126.85c.235-4.528-3.295-8.364-7.813-8.576-4.519-.207-8.378 3.29-8.567 7.813-.235 4.523 3.295 8.364 7.813 8.571 4.519.212 8.379-3.285 8.567-7.808z" fill="#57a4ff" fill-rule="evenodd"/></g></g></svg>