<svg id="Layer_1" enable-background="new 0 0 512 512" height="512" viewBox="0 0 512 512" width="512" xmlns="http://www.w3.org/2000/svg"><g clip-rule="evenodd" fill-rule="evenodd"><g><path d="m424.085 445.721h-291.647c-11.357 0-20.621-9.263-20.621-20.62v-301.144c0-5.679 2.024-10.566 6.04-14.581l94.835-94.836c4.016-4.015 8.902-6.04 14.581-6.04h196.812c11.357 0 20.62 9.263 20.62 20.62v395.981c0 11.357-9.263 20.62-20.62 20.62z" fill="#eff4f7"/><path d="m212.691 14.54-94.835 94.836c-1.834 1.834-3.253 3.85-4.253 6.04h86.509c10.253 0 18.618-8.363 18.618-18.618v-86.51c-2.189.999-4.205 2.418-6.039 4.252z" fill="#e2e3e3"/><path d="m160.725 389.387c-4.418 0-8-3.582-8-8s3.582-8 8-8h234.839c4.418 0 8 3.582 8 8s-3.582 8-8 8zm0-220.176c-4.418 0-8-3.582-8-8s3.582-8 8-8h62.347c4.418 0 8 3.582 8 8s-3.582 8-8 8zm0 44.036c-4.418 0-8-3.582-8-8s3.582-8 8-8h234.839c4.418 0 8 3.582 8 8s-3.582 8-8 8zm0 44.035c-4.418 0-8-3.582-8-8s3.582-8 8-8h234.839c4.418 0 8 3.582 8 8s-3.582 8-8 8zm0 44.035c-4.418 0-8-3.582-8-8s3.582-8 8-8h234.839c4.418 0 8 3.582 8 8s-3.582 8-8 8zm0 44.035c-4.418 0-8-3.582-8-8s3.582-8 8-8h234.839c4.418 0 8 3.582 8 8s-3.582 8-8 8z" fill="#a7a7a7"/></g><path d="m381.206 52.235h-118.977c-7.036 0-12.793 5.757-12.793 12.793v93.391c0 7.036 5.756 12.793 12.793 12.793h118.978c7.036 0 12.793-5.757 12.793-12.793v-93.391c-.001-7.037-5.757-12.793-12.794-12.793z" fill="#e2e3e3"/><g><path d="m391.206 42.235h-118.977c-7.036 0-12.793 5.757-12.793 12.793v93.391c0 7.036 5.756 12.793 12.793 12.793h118.978c7.036 0 12.793-5.757 12.793-12.793v-93.391c-.001-7.037-5.757-12.793-12.794-12.793z" fill="#eb3b48"/><path d="m369.337 106.149-57.33 33.098c-3.418 1.974-7.665-.478-7.665-4.425v-66.198c0-3.947 4.247-6.4 7.665-4.425l57.33 33.098c3.4 1.961 3.399 6.89 0 8.852z" fill="#eff4f7"/></g><g><path d="m424.085 445.721h-148.835c-4.586-8.41-7.961-17.575-9.892-27.261h-19.102v-38.073h19.102c2.513-12.606 7.473-24.328 14.363-34.653l-13.514-13.514 26.922-26.922 13.514 13.514c10.324-6.891 22.048-11.848 34.653-14.362v-19.103h38.073v19.103c12.606 2.513 24.327 7.473 34.652 14.363l13.515-13.515 17.169 17.169v19.506l-3.762 3.762c1.327 1.988 2.582 4.028 3.762 6.116v73.25c0 11.357-9.263 20.62-20.62 20.62z" fill="#e2e3e3"/><path d="m267.028 373.388h128.536c4.418 0 8 3.582 8 8s-3.582 8-8 8h-149.308v-9h19.102c.472-2.366 1.03-4.701 1.67-7zm74.268-88.041h38.073v15.97h-38.073zm-61.957 60.005-13.133-13.133 2.867-2.867h126.49c4.418 0 8 3.582 8 8s-3.582 8-8 8z" fill="#979798"/></g><g><path d="m351.296 275.347h38.073v19.103c12.606 2.513 24.328 7.473 34.652 14.363l13.515-13.515 26.921 26.922-13.514 13.515c6.891 10.324 11.848 22.047 14.362 34.652h19.104v38.073h-19.104c-2.513 12.606-7.472 24.328-14.362 34.653l13.514 13.514-26.922 26.922-13.513-13.514c-10.324 6.891-22.048 11.849-34.653 14.363v19.102h-38.073v-19.102c-12.606-2.513-24.328-7.472-34.654-14.362l-13.514 13.514-26.922-26.922 13.513-13.513c-6.891-10.325-11.849-22.048-14.363-34.654h-19.102v-38.073h19.102c2.513-12.606 7.473-24.328 14.363-34.653l-13.514-13.514 26.922-26.922 13.514 13.514c10.324-6.891 22.048-11.848 34.653-14.362v-19.104z" fill="#ffe600"/><ellipse cx="370.332" cy="389.424" fill="#eff4f7" rx="59.32" ry="59.32" transform="matrix(.033 -.999 .999 .033 -31.2 746.591)"/></g><g><path d="m27.59 375.252.001-208.762c0-6.616 5.396-12.013 12.013-12.013h28.845c6.616 0 12.013 5.397 12.013 12.013l-.001 208.762-26.436 46.25z" fill="#da8c36"/><g fill="#b06328"><path d="m27.604 375.276 26.422 46.226 26.422-46.225c-17.615 0-35.229-.001-52.844-.001z"/><path d="m27.591 193.673h52.871v-27.182c0-6.616-5.397-12.013-12.013-12.013h-28.845c-6.616 0-12.013 5.397-12.013 12.013z"/></g></g></g></svg>