<svg id="Layer_1" enable-background="new 0 0 512 512" height="512" viewBox="0 0 512 512" width="512" xmlns="http://www.w3.org/2000/svg"><g><g clip-rule="evenodd" fill="#d2e5f6" fill-rule="evenodd"><path d="m246.7 272.6h15.2c4.4 0 8.1 3.6 8.1 8.1v5.9c0 3.7 2.4 6.8 6 7.8 7.1 1.9 13.9 4.7 20.1 8.3 3.2 1.8 7.1 1.3 9.7-1.3l4.2-4.2c3.1-3.1 8.2-3.1 11.4 0l10.6 10.8c3.1 3.1 3.1 8.3 0 11.4l-4.2 4.2c-2.6 2.6-3.1 6.5-1.3 9.7 3.6 6.2 6.4 13 8.3 20.1 1 3.6 4.1 6 7.8 6h5.9c4.5 0 8.1 3.6 8.1 8.1v15.2c0 4.5-3.6 8.1-8.1 8.1h-5.9c-3.7 0-6.8 2.4-7.8 6-1.9 7.1-4.7 13.9-8.3 20.1-1.8 3.2-1.3 7.1 1.3 9.7l4.2 4.2c3.1 3.1 3.1 8.2 0 11.4l-10.7 10.7c-3.1 3.1-8.3 3.1-11.4 0l-4.2-4.2c-2.6-2.6-6.5-3.1-9.7-1.3-6.2 3.6-13 6.4-20.1 8.3-3.6 1-6 4.1-6 7.8v5.9c0 4.5-3.6 8.1-8.1 8.1h-15.2c-4.5 0-8.1-3.6-8.1-8.1v-5.9c0-3.7-2.4-6.8-6-7.8-7.1-1.9-13.9-4.7-20.1-8.3-3.2-1.8-7.1-1.3-9.8 1.3l-4.2 4.2c-3.1 3.1-8.3 3.1-11.4 0l-10.7-10.7c-3.1-3.1-3.1-8.3 0-11.4l4.2-4.2c2.6-2.6 3.1-6.5 1.3-9.7-3.6-6.2-6.4-13-8.3-20.1-.9-3.6-4.1-6-7.8-6h-5.9c-4.4 0-8.1-3.6-8.1-8.1v-15.2c0-4.5 3.6-8.1 8.1-8.1h5.9c3.7 0 6.8-2.4 7.8-6 1.9-7.1 4.7-13.9 8.3-20.1 1.9-3.2 1.3-7.1-1.3-9.7l-4.2-4.2c-3.1-3.1-3.1-8.3 0-11.4l10.7-10.7c3.1-3.1 8.2-3.1 11.4 0l4.2 4.2c2.6 2.6 6.5 3.1 9.8 1.3 6.2-3.6 13-6.4 20.1-8.3 3.6-.9 6-4.1 6-7.8v-5.9c.1-4.5 3.7-8.2 8.2-8.2zm7.6 41.4c33.7 0 61.1 27.4 61.1 61.1s-27.3 61.1-61.1 61.1c-33.7 0-61.1-27.3-61.1-61.1s27.3-61.1 61.1-61.1z"/><path d="m154.3 34.5c-59.8 0-108.3 48.5-108.3 108.3s48.5 108.2 108.3 108.2 108.2-48.4 108.2-108.2-48.5-108.3-108.2-108.3zm56.6 108.3-94.7 54.7v-109.4z"/><path d="m357.8 34.5c-59.8 0-108.2 48.5-108.2 108.3s48.5 108.2 108.2 108.2 108.3-48.4 108.3-108.2-48.5-108.3-108.3-108.3zm-41.2 56h82.5c6 0 11 5 11 11v82.5c0 6-5 11-11 11h-82.5c-6 0-11-5-11-11v-82.5c0-6 5-11 11-11z"/><path d="m245.8 343.4c17.5-4.7 35.4 5.7 40.1 23.2s-5.7 35.5-23.2 40.1c-17.5 4.7-35.5-5.7-40.1-23.2-4.7-17.5 5.7-35.4 23.2-40.1z"/></g><path d="m246.6 264.6h15.2c8.9 0 16.1 7.2 16.1 16v6c6.8 1.8 16.1 5.4 22.1 9.1h.1c4.7-4.7 8-8.9 15.5-8.9 4.1 0 8.2 1.6 11.3 4.7l10.7 10.7c3.1 3.1 4.7 7.3 4.7 11.4 0 9.9-8.2 13.8-8.9 15.6 2 3.4 3.7 7 5.3 10.7 1.5 3.7 2.8 7.5 3.9 11.3h6c8.8 0 16 7.2 16 16.1v15.2c0 8.9-7.2 16.1-16 16.1h-5.9l-.1.1c-1.9 7-5.4 15.9-9.1 22 4.7 4.8 8.9 8.1 8.9 15.6 0 4.1-1.6 8.2-4.7 11.3l-10.7 10.7c-6.3 6.3-16.4 6.3-22.7 0l-4.3-4.2c-6.1 3.7-15.1 7.3-22.1 9.1v6c0 8.8-7.2 16.1-16.1 16.1h-15.2c-8.9 0-16.1-7.2-16.1-16.1v-6c-6.9-1.8-16-5.4-22.1-9.1h-.1c-4.7 4.7-8 8.9-15.5 8.9-4.1 0-8.2-1.6-11.3-4.7l-10.7-10.7c-6.3-6.3-6.3-16.4 0-22.7l4.2-4.2c-3.7-6-7.3-15.2-9.2-22.1l-6-.1c-8.8 0-16-7.2-16-16.1v-15.2c0-8.9 7.2-16.1 16-16.1h6c.9-3.5 2.4-7.9 3.9-11.3 1.5-3.7 3.3-7.3 5.3-10.7v-.1c-4.7-4.7-8.9-8-8.9-15.5 0-4 1.6-8.4 4.7-11.3l11.3-11.3c6.7-5.8 16.1-5.5 22.1.5l4.2 4.2c5.8-3.7 15.4-7.4 22.1-9.2v-.1-5.9c.1-8.6 7.3-15.8 16.1-15.8zm84.8-92.2c-4.4 0-8-3.6-8-8s3.6-8 8-8h52.7c4.4 0 8 3.6 8 8s-3.6 8-8 8zm0-23c-4.4 0-8-3.6-8-8s3.6-8 8-8h52.7c4.4 0 8 3.6 8 8s-3.6 8-8 8zm0-22.9c-4.4 0-8-3.6-8-8s3.6-8 8-8h21c4.4 0 8 3.6 8 8s-3.6 8-8 8zm-14.8-44h82.5c10.5 0 19 8.5 19 19v82.5c0 10.5-8.5 19-19 19h-82.5c-10.5 0-19-8.5-19-19v-82.5c0-10.4 8.5-19 19-19zm82.5 16h-82.5c-1.6 0-3 1.4-3 3v82.5c0 1.6 1.4 3 3 3h82.5c1.6 0 3-1.4 3-3v-82.5c0-1.6-1.4-3-3-3zm-155.4 237.2c21.7-5.8 44.1 7.1 49.9 28.8 2.9 10.8 1.2 22-4.1 30.9-11.3 19.5-36.4 26.2-55.6 14.9-19.5-11.3-26.2-36.4-14.9-55.6 5.2-9.1 13.8-16.1 24.7-19zm22.9 17.9c-11.8-6.8-27-2.8-33.8 9.1-6.8 11.8-2.8 27 9.1 33.9 11.8 6.8 27 2.8 33.9-9.1 6.7-11.9 2.7-27.1-9.2-33.9zm-12.4-47.6c38.2 0 69.1 30.9 69.1 69.1 0 38.1-30.9 69.1-69.1 69.1-38.1 0-69.1-30.9-69.1-69.1s31-69.1 69.1-69.1zm37.5 31.5c-20.7-20.7-54.3-20.7-75 0s-20.7 54.3 0 75.1c20.7 20.7 54.3 20.7 75 0 20.8-20.8 20.8-54.4 0-75.1zm-195.2-31c-2.7 2.3-6.6 2.6-9.6.5-3.7-2.5-4.6-7.4-2.1-11.1l13-19.2c3.1-4.6 10.1-4.7 13.3.1l13 19.1c2.5 3.7 1.5 8.6-2.1 11.1-2.9 2-6.8 1.8-9.4-.3v18.2h25.8c4.4 0 8 3.6 8 8s-3.6 8-8 8h-33.8c-4.4 0-8-3.6-8-8v-26.4zm306.3.2c-2.6 2.1-6.5 2.4-9.4.3-3.6-2.5-4.6-7.4-2.1-11.1l13.1-19.2c3.1-4.6 10-4.7 13.3.1l13 19.1c2.5 3.7 1.5 8.6-2.1 11.1-3 2.1-6.9 1.8-9.6-.5v27.6c0 4.4-3.6 8-8 8h-34c-4.4 0-8-3.6-8-8s3.6-8 8-8h25.8zm-45-264.2c-55.4 0-100.2 44.9-100.2 100.2 0 55.4 44.9 100.2 100.2 100.2 55.4 0 100.2-44.9 100.2-100.2s-44.8-100.2-100.2-100.2zm-82.2 18.1c45.4-45.4 119-45.4 164.4 0s45.4 119 0 164.4c-54.9 54.9-146.7 41.4-184-26.1-37.3 67.4-129.1 81-184 26.1-45.4-45.4-45.4-119 0-164.4 54.9-54.9 146.7-41.4 184 26.1 5.3-9.7 11.9-18.4 19.6-26.1zm-28.1 118.9c-3.9-11.5-6-23.9-6-36.8s2.1-25.2 6-36.8c-7.3-18.4-19.8-34.2-35.8-45.4-39.8-27.9-94-23.1-128.4 11.3-39.1 39.1-39.1 102.6 0 141.8 34.4 34.4 88.6 39.2 128.4 11.3 16-11.2 28.5-26.9 35.8-45.4zm-32.8-29.8-94.6 54.7c-5.4 3.1-12-.9-12-6.9v-109.4c0-6 6.5-10.4 12.5-6.6l94.3 54.4c5.3 3.1 5.2 10.8-.2 13.8zm-90.6 33.9 70.8-40.8-70.8-40.8zm137.7 97-15.3.1v5.9c0 7.3-4.8 13.6-11.9 15.5-6.4 1.7-12.4 4.2-18.2 7.5-6.3 3.6-14.3 2.6-19.4-2.5l-4.3-4.2-10.7 10.7v.1l4.2 4.2c5.2 5.2 6.2 13 2.6 19.4-1.6 2.8-3.1 5.8-4.4 8.8-1.2 2.9-2.3 6.1-3.1 9.3-1.9 7.1-8.2 11.9-15.5 11.9l-6 .1.1 15.3c6 0 10.6-.6 15.7 3.3 2.7 2.1 4.8 5.1 5.7 8.6 1.7 6.4 4.3 12.5 7.5 18.2 3.6 6.3 2.6 14.3-2.6 19.4l-4.2 4.3 10.8 10.7 4.2-4.2c5-5.1 13.1-6.2 19.4-2.5 5.8 3.3 11.8 5.8 18.2 7.5 7.1 1.9 11.9 8.2 11.9 15.5l.1 6 15.3-.1c0-6-.6-10.6 3.3-15.7 4.7-6.2 10.4-5.6 17.5-8.7 3.7-1.6 5.8-2.5 9.2-4.5 6.3-3.7 14.2-2.6 19.4 2.5l4.3 4.2 10.8-10.8-4.2-4.2c-5.2-5.2-6.2-13.1-2.6-19.4 3.3-5.7 5.8-11.8 7.5-18.2 1.9-7 8.2-11.9 15.5-11.9h5.9v-15.3c-6 0-10.6.6-15.7-3.3-2.7-2.1-4.8-5.1-5.7-8.6-.9-3.2-1.9-6.3-3.2-9.3l-4.4-8.8c-3.7-6.3-2.6-14.3 2.6-19.4l4.2-4.2-10.9-10.8-4.2 4.2c-5 5.1-13.1 6.2-19.4 2.6-5.8-3.3-11.8-5.8-18.2-7.5-7.1-1.9-11.9-8.2-11.9-15.5z" fill="#4861ad"/></g></svg>