<svg id="Layer_1" height="512" viewBox="0 0 512 512" width="512" xmlns="http://www.w3.org/2000/svg" data-name="Layer 1"><path d="m339.03 475.17a29.384 29.384 0 0 0 -20.84-8.63 19.649 19.649 0 0 1 -19.64-19.64v-31.47h-108.03v31.47a19.649 19.649 0 0 1 -19.64 19.64 29.46 29.46 0 0 0 -29.46 29.46h206.24a29.36 29.36 0 0 0 -8.63-20.83z" fill="#b0b5ca"/><path d="m200.88 466.54a19.649 19.649 0 0 0 19.64-19.64v-31.47h-30v31.47a19.649 19.649 0 0 1 -19.64 19.64 29.46 29.46 0 0 0 -29.46 29.46h30a29.46 29.46 0 0 1 29.46-29.46z" fill="#898d9b"/><path d="m319.42 77.56h-274.74a19.642 19.642 0 0 0 -19.64 19.64v251.41h444.84v-194.3z" fill="#a5e2fb"/><path d="m317.42 77.56a87.231 87.231 0 0 1 33.76-46.08l.37.54 48.42 71.69.45.66h87.5a87.153 87.153 0 0 1 -153.37 55.5 84.954 84.954 0 0 1 -6.16-8.09 87.331 87.331 0 0 1 -10.97-74.22z" fill="#f3ce7d"/><path d="m462.41 41.53-.08.08-61.56 61.56-.8.54-48.42-71.69-.37-.54a87.174 87.174 0 0 1 111.23 10.05z" fill="#72bcef"/><path d="m400.77 103.17 61.56-61.56.08-.08a86.931 86.931 0 0 1 25.53 61.64c0 .4 0 .8-.02 1.2h-87.5l-.45-.66z" fill="#e87187"/><path d="m25.04 348.61v49.11a19.64 19.64 0 0 0 19.64 19.64h405.56a19.64 19.64 0 0 0 19.64-19.64v-49.11z" fill="#ccd3df"/><circle cx="244.54" cy="382.99" fill="#6d7486" r="9.82"/><path d="m74.68 77.56h-30a19.642 19.642 0 0 0 -19.64 19.64v251.41h30v-251.41a19.642 19.642 0 0 1 19.64-19.64z" fill="#87bccc"/><path d="m55.04 397.72v-49.11h-30v49.11a19.64 19.64 0 0 0 19.64 19.64h30a19.64 19.64 0 0 1 -19.64-19.64z" fill="#aab1ba"/><g fill="#284268"><path d="m244.538 398.808a15.821 15.821 0 1 0 -15.821-15.821 15.84 15.84 0 0 0 15.821 15.821zm0-19.642a3.821 3.821 0 1 1 -3.821 3.821 3.825 3.825 0 0 1 3.821-3.821z"/><path d="m397.125 10.07c-38.654 1.48-71.355 26.8-83.963 61.489h-268.478a25.641 25.641 0 0 0 -25.642 25.641v52.008a6 6 0 0 0 12 0v-52.008a13.641 13.641 0 0 1 13.642-13.641h265.005a92.915 92.915 0 0 0 10.794 66.848l-50.453 40.206a6.478 6.478 0 0 1 -4.022 1.406h-74.732a17.87 17.87 0 0 0 -14.913 7.993l-52.235 78.671v-133.354a6.166 6.166 0 0 0 -5.816-6.249 6 6 0 0 0 -6.184 6v160.233a6 6 0 0 0 6 6h257.432a6.167 6.167 0 0 0 6.249-5.814 6 6 0 0 0 -6-6.186h-13.87v-111.452a92.375 92.375 0 0 0 26.335 7.645 6.01 6.01 0 0 0 1.6-11.912 81.114 81.114 0 0 1 -40.113-143.5l45.686 67.643a6 6 0 0 0 4.972 2.642h81.181a81.326 81.326 0 0 1 -45.181 65.691 6.006 6.006 0 0 0 -3.37 5.389v.008a6 6 0 0 0 8.591 5.428 93.57 93.57 0 0 0 22.236-15.253v170.972h-432.834v-143.406a6 6 0 0 0 -12 0v198.51a25.642 25.642 0 0 0 25.642 25.642h139.839v23.54a13.625 13.625 0 0 1 -13.438 13.642 35.5 35.5 0 0 0 -35.666 35.408 6.023 6.023 0 0 0 6 6.054h206.238a6.023 6.023 0 0 0 6-6.054 35.5 35.5 0 0 0 -35.667-35.408 13.626 13.626 0 0 1 -13.438-13.642v-23.54h145.685a25.642 25.642 0 0 0 25.642-25.642v-239.479a93.127 93.127 0 0 0 -78.754-148.169zm-261.125 289.243h-11.166l11.166-16.821zm21.393 0h-9.393v-34.894l9.393-14.148zm21.4 0h-9.4v-67.113l9.474-14.268zm21.388 0h-9.381l.088-95.27c.132-.009.263-.024.4-.024h8.9zm21.394 0h-9.394v-95.294h9.394zm21.393 0h-9.393v-95.294h9.393zm21.394 0h-9.392v-95.294h9.394zm21.394 0h-9.394v-98.481c.39-.264.773-.539 1.142-.833l8.252-6.575zm21.393 0h-9.393v-115.452l9.393-7.486zm33.394-125.1a93.806 93.806 0 0 0 9.394 7.016v118.084h-9.394zm-12-12.237v137.337h-9.394v-132.5l8.1-6.457q.641.815 1.296 1.615zm-10.349 310.562a23.5 23.5 0 0 1 22.685 17.462h-192.679a23.5 23.5 0 0 1 22.686-17.462 25.67 25.67 0 0 0 25.637-25.638v-23.54h96.029v23.54a25.671 25.671 0 0 0 25.642 25.638zm145.685-74.82a13.658 13.658 0 0 1 -13.642 13.642h-405.553a13.658 13.658 0 0 1 -13.642-13.642v-43.1h432.837zm-104.262-364.474a80.924 80.924 0 0 1 94.106 8.488l-52.747 52.747zm54.435 65.13 48.157-48.157a80.8 80.8 0 0 1 19.577 48.157z"/></g></svg>