<svg id="Layer_1" enable-background="new 0 0 470 470" height="512" viewBox="0 0 470 470" width="512" xmlns="http://www.w3.org/2000/svg"><g><g><g><path d="m98.511 20.311h241.642v411.827h-241.642z" fill="#fff"/></g><g><g><path d="m170.178 1.348h98.308l-3.768 24.123c-1.063 6.805-6.924 11.821-13.811 11.821h-63.149c-6.887 0-12.748-5.016-13.811-11.821z" fill="#fff"/></g></g><g fill="#212121"><path d="m304.896 333.736h-171.142c-.552 0-1 .448-1 1s.448 1 1 1h171.142c.552 0 1-.448 1-1s-.448-1-1-1z"/><path d="m274.896 363.736h-141.142c-.552 0-1 .448-1 1s.448 1 1 1h141.142c.552 0 1-.448 1-1s-.448-1-1-1z"/></g></g><g><g><path d="m169.38 468.656-14.309-16.218h-154.071v-66.427h168.38z" fill="#fff"/></g><g><g><path d="m157.943 411.28h-65.574c-.552 0-1-.448-1-1s.448-1 1-1h65.574c.552 0 1 .448 1 1s-.448 1-1 1z" fill="#212121"/></g><g><path d="m130.22 434.616h-37.851c-.552 0-1-.448-1-1s.448-1 1-1h37.851c.552 0 1 .448 1 1s-.448 1-1 1z" fill="#212121"/></g></g><g><path d="m50.04 410.502h-8.191c-13.177 0-23.898 10.731-23.898 23.921v18.015c0 .552.448 1 1 1h53.987c.552 0 1-.448 1-1v-18.015c0-13.19-10.721-23.921-23.898-23.921z" fill="#a56cff"/><ellipse cx="45.932" cy="398.131" fill="#fff" rx="19.272" ry="19.292"/></g></g><g><path d="m300.62 468.656 14.309-16.218h154.071v-66.427h-168.38z" fill="#fff"/></g><g><g><path d="m377.631 411.28h-65.574c-.552 0-1-.448-1-1s.448-1 1-1h65.574c.552 0 1 .448 1 1s-.448 1-1 1z" fill="#212121"/></g><g><path d="m377.631 434.616h-37.851c-.552 0-1-.448-1-1s.448-1 1-1h37.851c.552 0 1 .448 1 1s-.448 1-1 1z" fill="#212121"/></g></g><path d="m428.151 410.502h-8.191c-13.177 0-23.898 10.731-23.898 23.921v18.015c0 .552.448 1 1 1h53.987c.552 0 1-.448 1-1v-18.015c0-13.19-10.72-23.921-23.898-23.921z" fill="#a56cff"/><g><ellipse cx="424.068" cy="398.131" fill="#fff" rx="19.272" ry="19.292"/></g><g><path d="m98.511 123.54h241.642v181.488h-241.642z" fill="#e0e0e0"/></g><g><g><path d="m342.128 172.12c-11.504 108.556-60.569 63.752-60.569 63.752l-13.355-12.381 17.546-30.086 14.786 14.713 26.421-44.761" fill="#fff"/></g><g><g><g><g><path d="m451.403 77.256c-3.259.109-4.147-4.852-.977-5.837l10.997-3.787c1.565-.54 3.274.293 3.813 1.86.54 1.566-.293 3.274-1.86 3.813l-10.997 3.787c-.323.111-.652.164-.976.164z" fill="#f9a262"/></g><g><path d="m435.717 59.529c-2.151.047-3.694-2.389-2.694-4.315l5.099-10.454c.725-1.489 2.521-2.108 4.011-1.381 1.489.726 2.108 2.522 1.381 4.011l-5.099 10.454c-.519 1.065-1.587 1.685-2.698 1.685z" fill="#f9a262"/></g><g><path d="m460.409 105.979c-.441 0-.889-.098-1.313-.304l-10.454-5.099c-1.489-.726-2.108-2.522-1.381-4.011.726-1.489 2.521-2.108 4.011-1.381l10.454 5.099c2.851 1.274 1.739 5.81-1.317 5.696z" fill="#f9a262"/></g></g><path d="m431.167 76.955c-3.504-10.911-16.325-17.195-27.083-13.24-11.104 3.824-17.021 15.986-13.191 27.111 3.497 10.911 16.342 17.197 27.083 13.24 11.103-3.824 17.021-15.986 13.191-27.111z" fill="#a56cff"/><g><path d="m381.631 44.588c-10.908 23.672-30.992 41.849-55.608 50.327l-10.386 3.577c-6.145 2.116-9.407 8.823-7.288 14.98l3.646 10.591c2.119 6.157 8.819 9.433 14.963 7.316l10.386-3.577c24.616-8.478 51.631-6.523 74.797 5.414z" fill="#fff"/></g><g><path d="m326.023 94.915-10.386 3.577c-6.145 2.116-9.407 8.823-7.288 14.98l3.646 10.591c2.119 6.157 8.819 9.433 14.963 7.316l10.386-3.577c5.31-1.829 10.732-3.17 16.203-4.032l-12.274-35.656c-4.843 2.689-9.94 4.972-15.25 6.801z" fill="#fff"/></g><path d="m469 385.01h-29.495c-3.721-4.38-9.256-7.171-15.437-7.171s-11.715 2.791-15.437 7.171h-48.515v-261.01c16.623-1.439 33.532 1.516 48.758 8.724 1.694 4.477 7.109 6.924 11.592 5.237 4.764-1.679 7.296-6.929 5.645-11.702l-29.346-84.907c-.808-2.335-2.479-4.212-4.704-5.285-2.225-1.072-4.733-1.212-7.064-.391-4.684 1.651-7.201 6.754-5.714 11.462-4.885 9.683-11.407 18.399-19.166 25.808v-57.62c0-8.259-6.719-14.978-14.979-14.978h-251.611c-8.259 0-14.979 6.719-14.979 14.978v369.684h-17.18c-3.721-4.38-9.256-7.171-15.437-7.171s-11.715 2.791-15.437 7.171h-29.494c-.552 0-1 .448-1 1v66.428c0 .552.448 1 1 1h153.62l14.01 15.879c.573.691 1.779.231 1.75-.662v-16.555h129.24v16.555c-.029.893 1.177 1.353 1.75.662l14.01-15.879h153.62c.552 0 1-.448 1-1v-66.428c0-.552-.448-1-1-1zm-36.377-3.031c5.775 3.077 9.718 9.16 9.718 16.153 0 10.086-8.197 18.292-18.272 18.292-9.77 0-17.75-7.721-18.227-17.385 4.188-.47 20.591-3.18 26.781-17.06zm-92.206-292.307c.111-.033.215-.069.295-.112l11.503 33.415c-.034.006-.071.025-.107.039-5.104.867-10.154 2.142-15.091 3.842l-10.387 3.577c-5.439 2-11.92-1.18-13.692-6.697l-3.646-10.59c-1.937-5.625 1.055-11.775 6.668-13.709l10.386-3.577c4.876-1.678 9.57-3.768 14.071-6.188zm39.75-39.937 27.77 80.348c-12.5-5.603-26.042-8.442-39.612-8.442-4.709 0-9.42.362-14.093 1.049l-11.753-34.142c15.891-9.051 29.064-22.543 37.688-38.813zm-112.85-47.387-3.587 22.969c-.994 6.36-6.387 10.976-12.823 10.976h-63.149c-6.437 0-11.829-4.616-12.823-10.976l-3.588-22.969zm-229.938 379.63c6.184 13.867 22.571 16.588 26.779 17.061-.477 9.663-8.457 17.385-18.227 17.385-10.076 0-18.272-8.206-18.272-18.292 0-6.994 3.945-13.077 9.72-16.154zm131.001 84.033-12.559-14.234c-.19-.215-.463-.338-.75-.338h-93.557v-11.105c0-.552-.448-1-1-1s-1 .448-1 1v11.105h-27.14v-11.105c0-.552-.448-1-1-1s-1 .448-1 1v11.105h-28.374v-64.429h26.995c-2.102 3.197-3.335 7.016-3.335 11.121 0 11.189 9.094 20.292 20.272 20.292s20.272-9.103 20.272-20.292c0-4.105-1.233-7.924-3.335-11.121h105.511zm132.24-81.001c-.552 0-1 .448-1 1v46.127h-129.24v-46.127c0-.552-.448-1-1-1h-70.869v-364.699h73.617l.83 5.314c1.146 7.34 7.37 12.667 14.798 12.667h63.149c7.429 0 13.652-5.327 14.799-12.667l.83-5.314h73.618c.552-1 1-.552 0 0v67.229c-4.614 2.528-9.438 4.701-14.457 6.429l-10.386 3.577c-6.656 2.292-10.204 9.583-7.908 16.251l3.646 10.59c2.101 6.541 9.784 10.308 16.234 7.937l10.387-3.577c.823-.283 1.655-.528 2.484-.787v257.05zm167.38 66.428h-28.374v-11.105c0-.552-.448-1-1-1s-1 .448-1 1v11.105h-27.14v-11.105c0-.552-.448-1-1-1s-1 .448-1 1v11.105h-93.557c-.287 0-.56.123-.75.338l-12.559 14.234v-79h105.511c-2.102 3.197-3.335 7.016-3.335 11.121 0 11.189 9.094 20.292 20.272 20.292s20.272-9.103 20.272-20.292c0-4.105-1.233-7.924-3.335-11.121h26.995z" fill="#212121"/><g><path d="m346.302 126.239c-2.908.696-5.789 1.529-8.633 2.508l-10.347 3.564 16.851 47.618c1.691 5.125 7.798 7.993 12.818 6.029 5.1-1.869 7.774-7.555 5.962-12.676z" fill="#a56cff"/></g><g><g><path d="m363.475 158.976c-.919-2.275-3.508-3.374-5.783-2.455l-4.458 1.801c-2.274.919-3.373 3.508-2.454 5.782.919 2.275 3.508 3.374 5.783 2.455l4.458-1.801c2.273-.918 3.372-3.507 2.454-5.782z" fill="#fff"/></g><g><path d="m366.802 167.214c-.919-2.275-3.508-3.374-5.783-2.455l-4.458 1.801c-2.274.919-3.373 3.508-2.454 5.782.919 2.275 3.508 3.374 5.783 2.455l4.458-1.801c2.274-.919 3.373-3.508 2.454-5.782z" fill="#fff"/></g><g><path d="m360.147 150.739c-.919-2.275-3.508-3.374-5.783-2.455l-4.458 1.801c-2.274.919-3.373 3.508-2.454 5.782.919 2.275 3.508 3.374 5.783 2.455l4.458-1.801c2.274-.919 3.373-3.508 2.454-5.782z" fill="#fff"/></g><path d="m367.729 166.839c-.544-1.348-1.582-2.403-2.919-2.971-.29-.123-.588-.208-.888-.278.926-1.438 1.167-3.286.48-4.988-.651-1.63-2.09-2.876-3.807-3.25.926-1.438 1.167-3.286.48-4.988-1.124-2.782-4.302-4.132-7.085-3.008l-4.458 1.802c-2.782 1.124-4.131 4.302-3.007 7.084.651 1.629 2.089 2.878 3.808 3.248-.927 1.438-1.169 3.287-.481 4.989.687 1.701 2.146 2.853 3.81 3.245-.928 1.438-1.171 3.289-.482 4.992 1.123 2.81 4.371 4.124 7.085 3.007l4.458-1.802c2.781-1.122 4.131-4.3 3.006-7.082zm-19.351-11.346c-.729-1.701.172-3.823 1.902-4.48l4.458-1.802c1.717-.706 3.772.125 4.481 1.902.729 1.701-.172 3.823-1.902 4.48l-4.458 1.801c-1.701.73-3.823-.17-4.481-1.901zm3.328 8.238c-.729-1.701.172-3.823 1.902-4.48l4.458-1.801c1.701-.729 3.824.172 4.481 1.902.914 2.123-.649 4.319-2.757 4.826l-3.604 1.456c-.001 0-.001.001-.002.001-1.759.709-3.768-.145-4.478-1.904zm14.169 3.857c.773 1.778-.266 3.939-2.101 4.561l-4.168 1.684c-1.523.615-3.324.146-4.232-1.222-1.249-1.881-.417-4.323 1.561-5.123.001 0 .001 0 .002-.001l4.457-1.801c1.7-.729 3.824.172 4.481 1.902z" fill="#212121"/></g></g><g><g><path d="m324.867 232.547c13.633-18.476 17.261-60.428 17.261-60.428l-6.737-18.557 4.13-2.452c2.135-1.268 3.027-3.902 2.102-6.206-1.162-2.894-4.647-4.047-7.305-2.417l-5.799 3.556c-1.407.863-2.139 2.5-1.845 4.124l1.451 7.998c.153.844.047 1.71-.307 2.491-1.047 2.311-3.761 7.616-3.761 7.616l-23.519 39.845" fill="#fff"/></g><path d="m335.902 210.832h-.068c5.446-18.06 7.188-37.448 7.29-38.626.013-.145-.006-.291-.056-.427l-6.455-17.779 3.418-2.029c2.576-1.53 3.636-4.658 2.52-7.438-1.27-3.4-5.709-4.868-8.756-2.897l-5.8 3.556c-1.771 1.087-2.677 3.11-2.306 5.155l1.451 7.998c.117.647.036 1.304-.234 1.9-1.026 2.263-3.713 7.521-3.711 7.521l-17.434 29.534-.686 1.162-4.745 8.039-13.873-13.805c-.438-.458-1.264-.352-1.569.205l-17.546 30.085c-.236.405-.16.919.184 1.237l13.36 12.386c24.852 20.547 46.268 5.753 55.016-25.777zm-24.655 31.822c-14.48 5.502-28.87-7.391-29.008-7.516l-12.767-11.836 16.491-28.275 13.868 13.8c.448.42 1.241.353 1.567-.201l6.685-11.326h-.001l16.863-28.572c.111-.218 2.736-5.353 3.781-7.659.439-.968.57-2.034.38-3.082l-1.451-7.998c-.223-1.227.321-2.441 1.383-3.093l5.8-3.556c2.037-1.318 5.006-.337 5.854 1.937.747 1.859.038 3.951-1.685 4.974l-4.13 2.452c-.413.245-.594.75-.43 1.201l6.661 18.347c-.229 2.424-2.44 24.387-8.746 42.694-5.289 14.98-12.393 24.395-21.115 27.709z" fill="#212121"/></g></g><g><g><path d="m232.658 137.459v9.171l14.826 7.499.021-.042.684 9.016-8.307 15.579-36.248 6.704-41.504-14.488c1.088-8.439 6.945-15.495 15.04-18.117l13.299-4.309c5.582-.539 10-5.155 10.035-10.764 0-.037 0-.075 0-.112v-22.246l15.457-9.119" fill="#fff"/></g></g><g><g><path d="m207.336 114.385s-5.766 9.307-11.912-1.218c-1.452-2.486-2.081-5.409-1.582-8.245.564-3.2 2.558-6.256 8.731-3.507 0 0 20.444-6.766 21.954-22.25 0 0 11.894 8.875 20.956 7.365 4.924 11.314 9.839 60.893-19.156 51.744" fill="#fff"/></g></g><path d="m271.691 148.422c-1.235-3.033-1.417-6.319-.515-9.253 3.34-10.847-1.286-19.38-4.341-23.502-1.812-2.444-2.779-5.282-2.795-8.207l-.075-13.109c.679-14.684-3.045-25.229-11.068-31.342-13.787-10.506-35.272-4.321-37.938-3.495-1.848-.31-12.661-1.772-21.729 4.678-6.387 4.543-10.345 11.92-11.765 21.926-.492 3.469-2.329 6.686-5.171 9.059-2.578 2.151-5.677 5.988-5.802 12.047-.084 4.126-2.137 8.116-5.491 10.672-4.192 3.193-6.86 7.297-7.932 12.197-.586 2.683-2.057 5.157-4.253 7.156-5.587 5.086-16.789 19.185-.171 40.214.078.098.173.181.282.244l30.176 17.554c.154.089.328.136.503.136.065 0 .13-.006.195-.019l78.112-15.558c.123-.025.24-.072.345-.14 15.282-9.819 12.47-23.799 9.433-31.258zm-45.665-9.195c1.993.629 3.864.982 5.631 1.103v6.3c0 .377.212.722.549.893l14.348 7.256.615 8.109-7.943 14.897-35.514 6.567-40.472-14.127c1.294-7.665 6.807-14.087 14.237-16.495l13.198-4.276c6.143-.648 10.791-5.677 10.829-11.742 0-.002 0-.117 0-.119v-18.42c.036.001.071.008.107.008 3.841.077 6.465-4.094 6.574-4.271.291-.469.146-1.083-.322-1.375-.469-.292-1.085-.147-1.377.32-.021.034-2.109 3.326-4.806 3.326-5.137-.185-9.943-11.959-4.913-15.473 1.213-.644 3.028-.436 5.398.619.227.102.484.115.721.036.829-.274 19.674-6.678 22.401-21.447 3.328 2.229 12.09 7.489 19.562 6.706 3.643 9.411 6.348 36.604-2.822 46.79-3.612 4.014-8.793 4.991-15.401 2.906-.524-.167-1.088.125-1.254.653-.164.528.128 1.09.654 1.256z" fill="#212121"/><path d="m159.091 243.784-12.327-21.602 8.84-8.666-20.929-28.645c-17.331 16.925-26.375 31.7-9.775 54.594 5.747 7.926 11.672 15.098 17.052 21.168" fill="#fff"/><path d="m292.621 195.591-19.434-24.758c-3.256-4.149-7.462-7.605-12.164-9.996l-12.914-6.566c-.784-.586-1.933.289-1.529 1.195.567 13.397-12.519 24.259-28.685 24.285-18.161.007-32.608-14.172-27.34-29.886.283-.732-.466-1.528-1.213-1.293l-15.917 4.45c-8.43 1.92-15.903 9.064-22.194 14.628-22.659 19.699-22.659 19.699-22.69 19.731-.351.351-.392.905-.096 1.303l23.56 31.719c.324.458 1.03.538 1.449.167l16.648-14.091c2.847 8.574 5.444 12.835 7.95 24.731 4.622 21.899-3.773 33.833-3.858 33.952-.485.626.018 1.612.809 1.587h77.531c.552 0 1-.448 1-1v-39.011c.52-.928 2.311-4.334 3.647-9.245l10.602 11.463c.405.459 1.195.412 1.543-.091l23.317-32.069c.263-.361.254-.853-.022-1.205z" fill="#a56cff"/><g><path d="m252.534 227.472c-.753.02-1.269-.88-.854-1.52.13-.213 12.787-21.588-2.459-41.679-.334-.44-.248-1.067.192-1.401s1.068-.248 1.401.192c16.084 21.195 2.712 43.703 2.575 43.927-.188.31-.517.481-.855.481z" fill="#212121"/></g><g><path d="m179.03 232.004c-.463 0-.878-.323-.978-.793-1.819-8.619-3.991-14.169-5.737-18.629-2.891-7.387-4.8-12.267-2.573-23.566.106-.542.629-.896 1.174-.788.542.106.895.632.788 1.174-2.114 10.727-.388 15.14 2.474 22.45 1.772 4.529 3.978 10.165 5.831 18.945.138.613-.353 1.214-.979 1.207z" fill="#212121"/></g><g><g><path d="m141.953 260.633c11.171 12.605 19.993 20.462 19.993 20.462v-.001l.042.048c3.077 3.261 7.647 8.235 16.486 9.195 14.945 1.624 11.664-17.973 2.446-19.738l4.211-1.355c2.048-.659 3.042-2.976 2.107-4.914-.604-1.253-1.882-2.036-3.272-2.002-3.472.085-10.116.231-14.254.209l.034-.082-10.655-18.673" fill="#fff"/></g><path d="m266.452 304.714-12.917-39.125v.161c0 .552-.448 1-1 1h-64.032c.609-2.744-1.722-5.567-4.56-5.42-3.373.083-9.487.204-13.567.21l-10.415-18.251-11.945-20.932 3.149-3.087-1.204-1.621-3.896 3.82c-.324.318-.394.815-.168 1.209l12.327 21.602 10.5 18.401c.061.478.501.863.984.857 4.113.022 10.715-.122 14.284-.209 2.867-.14 3.565 4.166.834 4.963l-4.211 1.355c-.968.278-.876 1.776.118 1.934 4.765.913 7.633 7.145 6.921 11.897-.642 4.283-3.949 6.418-9.071 5.865-8.339-.906-12.609-5.433-15.726-8.738-3.36-2.135-30.921-31.678-37.146-41.727-14.052-19.38-9.859-32.485 4.421-47.925l-1.21-1.629c-14.874 16.031-19.675 30.255-4.83 50.728 9.571 13.441 26.024 31.849 37.107 41.692l-.006.005c.982 1.055 1.997 2.125 3.288 3.296-2.545 5.867-4.734 12.651-5.573 19.867-.08.575.413 1.128.993 1.115h105.602c.66.019 1.173-.691.949-1.313z" fill="#212121"/></g></g><g fill="#f9a262"><path d="m435.046 319.132c1.146-3.593.797-7.352-.984-10.583-3.521-6.677-12.644-8.859-19.137-5.093l-3.176 1.751c-3.699 2.151-8.959 1.076-10.986-2.735-2.141-3.749-.242-8.772 3.552-10.75l10.754-5.929c1.451-.8 1.979-2.625 1.179-4.076-.799-1.45-2.624-1.979-4.076-1.179l-6.54 3.605-3.009-5.459c-.799-1.45-2.623-1.979-4.076-1.179-1.451.8-1.979 2.625-1.179 4.076l3.036 5.508c-5.971 3.749-8.444 12.132-4.897 18.279 3.52 6.677 12.647 8.86 19.137 5.093l3.176-1.75c3.697-2.153 8.96-1.077 10.986 2.735 2.141 3.747.242 8.772-3.552 10.749l-10.754 5.929c-3.427 2.01-.598 7.077 2.896 5.255l6.539-3.605 3.01 5.459c2.013 3.425 7.075.603 5.255-2.896l-3.036-5.508c2.801-1.845 4.873-4.535 5.882-7.697z"/><path d="m36.413 191.009c3.49-1.431 6.144-4.115 7.475-7.557 2.851-6.989-1.341-15.38-8.4-17.934l-3.383-1.307c-4.026-1.451-6.584-6.171-4.966-10.174 1.496-4.049 6.564-5.824 10.518-4.188l11.454 4.427c1.546.597 3.283-.171 3.88-1.716.597-1.544-.171-3.282-1.716-3.88l-6.965-2.692 2.248-5.814c.597-1.544-.17-3.281-1.716-3.88-1.545-.598-3.283.171-3.88 1.716l-2.268 5.866c-6.71-2.164-14.721 1.33-17.15 7.998-2.852 6.988 1.342 15.384 8.399 17.933l3.382 1.308c4.026 1.448 6.584 6.172 4.967 10.174-1.494 4.049-6.564 5.824-10.517 4.189l-11.454-4.427c-3.742-1.333-5.805 4.091-2.164 5.597l6.965 2.692-2.248 5.815c-1.33 3.744 4.086 5.807 5.597 2.164l2.267-5.866c3.211.958 6.604.816 9.675-.444z"/></g></g></svg>