<svg id="social_media" height="512" viewBox="0 0 64 64" width="512" xmlns="http://www.w3.org/2000/svg" data-name="social media"><rect fill="#eee" height="26" rx="1" width="30" x="17" y="6"/><path d="m46 6h-28a1 1 0 0 0 -1 1v7h30v-7a1 1 0 0 0 -1-1z" fill="#bdbdbd"/><circle cx="32" cy="50" fill="#ffeb3b" r="8"/><circle cx="50" cy="50" fill="#ffeb3b" r="8"/><path d="m36.4683 48.6309a.9987.9987 0 0 0 -.7969-.6709l-1.8914-.29-.8545-1.82a1 1 0 0 0 -1.8105 0l-.855 1.82-1.8916.29a1 1 0 0 0 -.564 1.6865l1.3975 1.4316-.3319 2.0352a1 1 0 0 0 1.47 1.0361l1.68-.9287 1.6792.9287a1 1 0 0 0 1.4708-1.0361l-.3325-2.0352 1.3975-1.4316a.9982.9982 0 0 0 .2333-1.0156z" fill="#fff"/><circle cx="14" cy="50" fill="#f44336" r="8"/><path d="m17.627 46.7822a3.0712 3.0712 0 0 0 -2.1924-.9648 2.9041 2.9041 0 0 0 -1.4487.3975 2.8948 2.8948 0 0 0 -1.4316-.377l-.02.001a2.9428 2.9428 0 0 0 -2.1816.9951 3.3657 3.3657 0 0 0 .0278 4.5166l2.918 3.1465a1.0008 1.0008 0 0 0 .7334.32h.0063a1.0016 1.0016 0 0 0 .7358-.3291l2.88-3.1875a3.3682 3.3682 0 0 0 -.027-4.5183z" fill="#fff"/><path d="m54 51a4 4 0 0 1 -8 0 1 1 0 0 1 2 0 2 2 0 0 0 4 0 1 1 0 0 1 2 0zm-6-2a1 1 0 1 0 -1-1 1 1 0 0 0 1 1zm4 0a1 1 0 1 0 -1-1 1 1 0 0 0 1 1z" fill="#fff"/><path d="m29 19a3 3 0 1 1 3 3 3.0033 3.0033 0 0 1 -3-3zm3 4a6.0066 6.0066 0 0 0 -6 6 1 1 0 0 0 1 1h10a1 1 0 0 0 1-1 6.0066 6.0066 0 0 0 -6-6z" fill="#42a5f5"/><circle cx="21" cy="10" fill="#f44336" r="1"/><circle cx="24" cy="10" fill="#ffeb3b" r="1"/><circle cx="27" cy="10" fill="#4caf50" r="1"/><path d="m50 36h-17v-1a1 1 0 0 0 -2 0v1h-17a1 1 0 0 0 -1 1v2a1 1 0 0 0 2 0v-1h16v1a1 1 0 0 0 2 0v-1h16v1a1 1 0 0 0 2 0v-2a1 1 0 0 0 -1-1z" fill="#bdbdbd"/></svg>