<svg height="511pt" viewBox="0 1 511 511.99998" width="511pt" xmlns="http://www.w3.org/2000/svg"><path d="m256.402344 463.289062c-114.351563 0-207.386719-93.03125-207.386719-207.386718 0-114.351563 93.035156-207.382813 207.386719-207.382813 114.351562 0 207.382812 93.03125 207.382812 207.382813 0 114.355468-93.03125 207.386718-207.382812 207.386718zm0-397.882812c-105.042969 0-190.496094 85.457031-190.496094 190.496094 0 105.042968 85.453125 190.496094 190.496094 190.496094 105.039062 0 190.496094-85.453126 190.496094-190.496094 0-105.039063-85.457032-190.496094-190.496094-190.496094zm0 0" fill="#ffd151"/><path d="m191.757812 95.628906c0 52.8125-42.816406 95.628906-95.628906 95.628906-52.816406 0-95.628906-42.816406-95.628906-95.628906s42.8125-95.628906 95.628906-95.628906c52.8125 0 95.628906 42.816406 95.628906 95.628906zm0 0" fill="#64e8ff"/><path d="m96.128906 0c-5.558594 0-11.003906.480469-16.304687 1.390625 45.046875 7.738281 79.328125 46.980469 79.328125 94.238281 0 47.257813-34.28125 86.5-79.328125 94.238282 5.300781.910156 10.746093 1.390624 16.304687 1.390624 52.8125 0 95.628906-42.816406 95.628906-95.628906s-42.816406-95.628906-95.628906-95.628906zm0 0" fill="#0fd9ff"/><path d="m512.308594 95.628906c0 52.8125-42.8125 95.628906-95.628906 95.628906-52.8125 0-95.625-42.816406-95.625-95.628906s42.8125-95.628906 95.625-95.628906c52.816406 0 95.628906 42.816406 95.628906 95.628906zm0 0" fill="#6193ff"/><path d="m512.269531 92.890625c-1.511719-52.792969-45.535156-94.363281-98.324219-92.8515625-5.03125.1445315-9.957031.6757815-14.757812 1.5624995 43.367188 8.03125 76.773438 45.421876 78.085938 91.289063 1.371093 47.761719-32.527344 88.34375-78.09375 96.761719 6.546874 1.214844 13.316406 1.761718 20.238281 1.566406 52.792969-1.515625 94.363281-45.535156 92.851562-98.328125zm0 0" fill="#407bff"/><path d="m191.757812 416.371094c0 52.816406-42.816406 95.628906-95.628906 95.628906-52.816406 0-95.628906-42.8125-95.628906-95.628906 0-52.8125 42.8125-95.628906 95.628906-95.628906 52.8125 0 95.628906 42.816406 95.628906 95.628906zm0 0" fill="#ff6969"/><path d="m96.128906 320.742188c-7.40625 0-14.617187.84375-21.539062 2.4375 42.441406 9.769531 74.089844 47.785156 74.089844 93.191406 0 45.410156-31.648438 83.421875-74.089844 93.191406 6.921875 1.59375 14.132812 2.4375 21.539062 2.4375 52.8125 0 95.628906-42.8125 95.628906-95.628906 0-52.8125-42.816406-95.628906-95.628906-95.628906zm0 0" fill="#ff4848"/><path d="m512.308594 416.371094c0 52.816406-42.8125 95.628906-95.628906 95.628906-52.8125 0-95.625-42.8125-95.625-95.628906 0-52.8125 42.8125-95.628906 95.625-95.628906 52.816406 0 95.628906 42.816406 95.628906 95.628906zm0 0" fill="#ff95c2"/><path d="m416.683594 320.742188c-6.605469 0-13.050782.671874-19.277344 1.945312 43.574219 8.917969 76.351562 47.472656 76.351562 93.683594 0 46.210937-32.777343 84.765625-76.351562 93.683594 6.226562 1.273437 12.671875 1.945312 19.277344 1.945312 52.8125 0 95.625-42.8125 95.625-95.628906 0-52.8125-42.8125-95.628906-95.625-95.628906zm0 0" fill="#ff758e"/><g fill="#fff"><path d="m141.320312 58.410156c-3.648437 2.199219-7.558593 3.9375-11.648437 5.167969-7.609375-8.75-20.867187-9.671875-29.617187-2.0625-4.65625 4.050781-7.296876 9.945313-7.214844 16.121094v4.683593c-15.90625.414063-31.007813-6.773437-40.71875-19.261718-.660156-.847656-2-.632813-2.351563.378906-3.183593 9.113281-11.882812 42.480469 24.328125 58.574219-8.125 5.511719-17.554687 8.714843-27.289062 9.3125-1.421875.085937-1.800782 2.003906-.507813 2.601562 41.136719 19 88.714844-4.660156 88.714844-56.433593-.003906-1.304688-.132813-2.605469-.375-3.886719 3.875-3.824219 6.828125-8.464844 8.65625-13.5625.425781-1.191407-.890625-2.285157-1.976563-1.632813zm0 0"/><path d="m409.941406 156.238281c-4.664062 0-8.445312-3.78125-8.445312-8.445312v-83.140625c0-16.339844 13.292968-29.632813 29.632812-29.632813h10c4.664063 0 8.445313 3.78125 8.445313 8.445313 0 4.664062-3.78125 8.441406-8.445313 8.441406h-10c-7.027344 0-12.746094 5.71875-12.746094 12.746094v83.140625c0 4.664062-3.78125 8.445312-8.441406 8.445312zm0 0"/><path d="m429.59375 102.441406h-38.332031c-4.664063 0-8.445313-3.78125-8.445313-8.445312 0-4.664063 3.78125-8.445313 8.445313-8.445313h38.332031c4.664062 0 8.445312 3.78125 8.445312 8.445313 0 4.664062-3.78125 8.445312-8.445312 8.445312zm0 0"/><path d="m75.695312 415.324219v-30.375c0-2.238281 2.417969-3.632813 4.355469-2.515625l26.292969 15.1875 26.296875 15.1875c1.933594 1.121094 1.933594 3.914062 0 5.035156l-26.296875 15.1875-26.292969 15.1875c-1.9375 1.117188-4.355469-.28125-4.355469-2.515625zm0 0"/><path d="m450.25 471.8125h-67.136719c-12.058593 0-21.871093-9.8125-21.871093-21.871094v-67.136718c0-12.0625 9.8125-21.871094 21.871093-21.871094h67.136719c12.058594 0 21.871094 9.808594 21.871094 21.871094v67.136718c0 12.058594-9.8125 21.871094-21.871094 21.871094zm-67.136719-93.992188c-2.75 0-4.984375 2.234376-4.984375 4.984376v67.136718c0 2.746094 2.234375 4.980469 4.984375 4.980469h67.136719c2.746094 0 4.984375-2.234375 4.984375-4.980469v-67.136718c0-2.75-2.238281-4.984376-4.984375-4.984376zm0 0"/><path d="m416.679688 440.445312c-13.273438 0-24.070313-10.800781-24.070313-24.074218 0-13.273438 10.796875-24.070313 24.070313-24.070313 13.273437 0 24.074218 10.796875 24.074218 24.070313 0 13.273437-10.800781 24.074218-24.074218 24.074218zm0-31.257812c-3.960938 0-7.183594 3.222656-7.183594 7.183594 0 3.960937 3.222656 7.183594 7.183594 7.183594 3.964843 0 7.183593-3.222657 7.183593-7.183594.003907-3.960938-3.21875-7.183594-7.183593-7.183594zm0 0"/></g><path d="m226.554688 332.816406-3.058594-58.839844c-.242188-4.65625-4.207032-8.222656-8.871094-7.992187-4.65625.242187-8.234375 4.214844-7.992188 8.871094l3.058594 58.839843c.234375 4.507813 3.960938 8.003907 8.425782 8.003907.148437 0 .292968-.003907.445312-.011719 4.65625-.242188 8.234375-4.210938 7.992188-8.871094zm0 0" fill="#83a7c5"/><path d="m236.03125 274.417969h-35.375c-4.292969 0-7.769531-3.480469-7.769531-7.773438v-40.578125c0-4.289062 3.476562-7.769531 7.769531-7.769531h35.375c.667969 0 1.210938.542969 1.210938 1.210937v53.699219c0 .667969-.542969 1.210938-1.210938 1.210938zm0 0" fill="#ff95c2"/><path d="m312.3125 301.402344c-10.511719-6.441406-23.617188-13.355469-39.234375-19.359375-13.101563-5.039063-25.253906-8.390625-35.835937-10.65625 0-16.6875 0-33.371094 0-50.054688 10.613281-2.257812 22.832031-5.613281 36.019531-10.691406 15.5625-5.996094 28.605469-12.90625 39.050781-19.328125zm0 0" fill="#e5f4ff"/><path d="m312.3125 317.691406c-4.664062 0-8.445312-3.78125-8.445312-8.445312v-125.777344c0-4.664062 3.78125-8.445312 8.445312-8.445312s8.445312 3.78125 8.445312 8.445312v125.777344c0 4.664062-3.78125 8.445312-8.445312 8.445312zm0 0" fill="#6464ff"/></svg>