<svg id="Layer_1" enable-background="new 0 0 66 66" height="512" viewBox="0 0 66 66" width="512" xmlns="http://www.w3.org/2000/svg"><g><path d="m26.27 34.52h27.92v-23.38h-52.19v39.05c0 2.21 1.79 4 4 4h20.27z" fill="#e1d9e1"/><path d="m54.19 6c0-2.21-1.79-4-4-4h-44.19c-2.21 0-4 1.79-4 4v5.14h52.19z" fill="#1c8fc7"/><path d="m6 15.14h44.19v15.66h-44.19z" fill="#ffc040"/><path d="m6 34.52h15.66v15.66h-15.66z" fill="#ff7146"/><g fill="#fff"><circle cx="7.5" cy="6.57" r="1.5"/><circle cx="13.07" cy="6.57" r="1.5"/><circle cx="18.64" cy="6.57" r="1.5"/></g><path d="m17.15 41.61-5.64-3.74c-.59-.39-1.39.03-1.39.74v7.48c0 .71.79 1.14 1.39.74l5.64-3.74c.53-.34.53-1.13 0-1.48z" fill="#fff"/><path d="m26.27 34.52h37.73v29.48h-37.73z" fill="#0e4b5c"/><path d="m34.39 34.39h21.48v29.73h-21.48z" fill="#1c8fc7" transform="matrix(0 1 -1 0 94.394 4.128)"/><path d="m40.9 43.6-10.63 16.4h21.27z" fill="#ffc040"/><path d="m51.54 46.96-4.23 6.52 4.23 6.52h8.46z" fill="#e5ac39"/><g fill="#0e4b5c"><path d="m17.08 22.52c.28-.42.44-.92.44-1.46 0-1.47-1.2-2.67-2.67-2.67h-2.47c-.41 0-.75.34-.75.75v7.67c0 .41.34.75.75.75h3.49c1.47 0 2.67-1.2 2.67-2.67 0-1.04-.6-1.93-1.46-2.37zm-3.95-2.63h1.72c.64 0 1.17.52 1.17 1.17s-.52 1.17-1.17 1.17h-1.72zm2.75 6.16h-2.74v-2.33h1.72 1.02c.64 0 1.17.52 1.17 1.17s-.53 1.16-1.17 1.16z"/><path d="m25.28 26.05h-3.53v-6.92c0-.41-.34-.75-.75-.75s-.75.34-.75.75v7.67c0 .41.34.75.75.75h4.28c.41 0 .75-.34.75-.75s-.34-.75-.75-.75z"/><path d="m30.18 18.39c-2.53 0-4.58 2.06-4.58 4.58s2.06 4.58 4.58 4.58 4.58-2.06 4.58-4.58-2.05-4.58-4.58-4.58zm0 7.66c-1.7 0-3.08-1.38-3.08-3.08s1.38-3.08 3.08-3.08 3.08 1.38 3.08 3.08-1.38 3.08-3.08 3.08z"/><path d="m43.81 22.47h-2.58c-.41 0-.75.34-.75.75s.34.75.75.75h1.73c-.33 1.2-1.43 2.08-2.73 2.08-1.56 0-2.83-1.27-2.83-2.83v-.51c0-1.56 1.27-2.83 2.83-2.83h.58c.41 0 .75-.34.75-.75s-.34-.75-.75-.75h-.58c-2.39 0-4.33 1.94-4.33 4.33v.51c0 2.39 1.94 4.33 4.33 4.33s4.33-1.94 4.33-4.33c0-.41-.34-.75-.75-.75z"/></g><path d="m24.27 32.52v21.67h2v-19.67h27.92v-2z" opacity=".08"/></g></svg>