<svg id="Layer_1" enable-background="new 0 0 52 52" height="512" viewBox="0 0 52 52" width="512" xmlns="http://www.w3.org/2000/svg"><g id="Data_Processing"><g><g><g><g><path d="m30.6535759 42.1635437-.0100098 2.6300049c-.0099487 1.3300171-.8799438 2.6600342-2.6299438 3.6699829-3.5200195 2.0500488-9.2400513 2.0500488-12.7800303 0-1.7800293-1.0199585-2.6699829-2.3699951-2.6599731-3.7199707l.0099487-2.6199951c0-1.3300171.8800049-2.6600342 2.6300049-3.6799927 3.5200205-2.0499878 9.2399912-2.0499878 12.7700205-.0100098 1.7800293 1.0299683 2.6699829 2.3800049 2.6699829 3.7299805z" fill="#1d2943"/></g></g><g><g><path d="m30.6534081 42.1637306-.0135212 2.6266212c-.0038185 1.3307571-.8788795 2.6595497-2.6272221 3.675499-3.5191479 2.0451088-9.2377701 2.0452118-12.7799358.000103-1.7785845-1.0268898-2.6672688-2.3752937-2.6634712-3.7222519l.0135212-2.6266251c-.0037155 1.3469582.8848648 2.6953659 2.6634712 3.7221527 3.5421429 2.045105 9.260788 2.045105 12.7800179 0 1.7482833-1.0159492 2.6234244-2.3447456 2.62714-3.6754989z" fill="#1d2943"/></g></g><g><g><path d="m27.9845695 38.4365234c3.5421429 2.045105 3.5608253 5.3575974.0416985 7.4027061-3.5192299 2.045105-9.237875 2.045105-12.7800179 0-3.5359507-2.0413933-3.5546322-5.3538857-.0353813-7.3989906 3.5191059-2.0451087 9.237772-2.0451087 12.7737007-.0037155z" fill="#4c5c75"/></g></g><g><g><path d="m26.9035759 41.4035339-7.5599976 4.3600464-2.5100097-1.460022 1.1600342-7.9000244 2.5200195 1.460022 5.1799927-3z" fill="#dedffb"/></g></g><g><g><path d="m19.3470974 45.7592354-2.5109177-1.4592591 1.1623078-7.8969001 2.5110225 1.459259z" fill="#dedffb"/></g></g><g><g><path d="m25.6957703 34.8680573 1.2032013 6.5310554-7.5518742 4.3601227 1.1624126-7.8969002z" fill="#f3f1fc"/></g></g><g><path d="m7.6236067 45.9035339c.0199585.0300293.0499878.0500488.0799561.0599976-.0199585-.0099487-.039978-.0299683-.0699463-.039978-.0000001-.0100098-.0100098-.0100098-.0100098-.0200196z" fill="#1d2943"/></g><g fill="#1d2943"><path d="m37.443615 27.2535686c0 1.2199707-.8600464 2.7099609-1.9200439 3.3200073l-26.4099742 15.28998c-.5599976.3200073-1.0599976.3400269-1.4100342.0999756-.0299683-.0099487-.0599976-.0299683-.0799561-.0599976 0 .0100098.0100098.0100098.0100098.0200195l-2.7700195-1.5999756c-.3400269-.2000122-.5499878-.6199951-.5499878-1.2300415l-.0499878-22.2199725c-.0100098-1.2200317.8599854-2.710022 1.9199829-3.3300171l26.4099741-15.279968c.5300293-.3099974 1.0200195-.3400267 1.3699951-.1300049l2.7900391 1.6300049c.3899536.1799927.6399536.6300051.6399536 1.2799685z"/><path d="m7.6236067 45.9035339c.0199585.0300293.0499878.0500488.0799561.0599976-.0199585-.0099487-.039978-.0299683-.0699463-.039978-.0000001-.0100098-.0100098-.0100098-.0100098-.0200196z"/></g><g><path d="m4.2631083 20.8781509c-.0068126-1.2232056.8562741-2.7113647 1.91642-3.3297272l26.4107351-15.2821638c.5369072-.3126394 1.0193329-.339785 1.3727646-.1360378l2.8745461 1.6717784c-.3534279-.203747-.8358574-.1766014-1.3727608.1292257l-26.4107381 15.2888723c-1.0601463.6115513-1.9231296 2.1066246-1.9164205 3.3298302l.0407701 22.2094593c.0068121.6116562.2174745 1.0329819.5640717 1.2368317l-2.8745465-1.6716767c-.3465972-.1971397-.5572596-.6252785-.5572596-1.2301216z" fill="#4c5c75"/></g><g><path d="m35.4652023 3.9345291c1.063015-.6137183 1.9293022-.1201427 1.9327087 1.106365l.045723 22.2099762c.0035095 1.2214508-.8571014 2.7120876-1.9201164 3.3258057l-26.4094963 15.2859835c-1.063014.6137161-1.9293003.1201401-1.9327064-1.1013107l-.0457243-22.2100774c-.0035095-1.2264061.8571-2.717041 1.9201145-3.330759z" fill="#1d2943"/></g><g><path d="m22.306694 34.3319588c.5454941-.3149109.9862232-.0637894.987999.5630379.0017338.6267242-.4361057 1.3850479-.9815769 1.6999588-.5454121.3149071-.9860382.0637856-.987896-.5629387-.0017548-.6268273.4360848-1.3850441.9814739-1.700058z" fill="#1d2943"/></g><g><path d="m36.4938698 24.3318386-28.3882618 16.4293003-.0280743-18.2107982c-.0093927-.8903351.6748219-2.0712204 1.4432592-2.5211372l26.4107371-15.2858792c.2155342-.1218972.3466988-.13129.3935585-.13129.0562744.0187855.1312904.1406827.1312904.4312339z" fill="#fff"/></g><g><path d="m37.443615 24.8035564v2.4500122c0 1.2199707-.8600464 2.7099609-1.9200439 3.3200073l-26.4099742 15.28998c-.5800171.3300171-1.0999756.3400269-1.4500122.0800171.0200195.0199585.0499878.039978.0700073.0499878l-2.8499756-1.6600342c-.3500366-.1999512-.5900269-.6499634-.5700073-1.2599487l-.0100098-2.4400024 2.8699951 1.6699829z" fill="#9ea9c9"/></g><g><path d="m37.443737 24.800436-.000103 2.4504337c.0035095 1.2214508-.8571014 2.7120876-1.9201164 3.3258057l-26.4094963 15.2859841c-1.063014.6137161-1.9293003.1201401-1.9327064-1.1013107l-.0050578-2.4592056z" fill="#c9cee2"/></g><g><path d="m7.1745238 44.7356491.0027657-2.4314423-2.8718634-1.6710548.0052643 2.4453773c-.0157919.6096917.2274866 1.0586777.5717096 1.2543755l2.852252 1.6587715c-.344223-.202507-.5534405-.6486053-.5601282-1.2560272z" fill="#9ea9c9"/></g><g><g><g><g><path d="m19.8603153 19.5934486c.7726841 2.7988186-.8448162 6.4458351-2.8274555 8.6223888l-.5514011-1.0470791c1.5101891-1.6448879 2.692812-4.3896084 2.1298504-6.4235611z" fill="#78e75a"/></g></g><g><g><path d="m19.8603153 19.5934486-1.2490063 1.1517487c-.5978985-2.1902065-3.102706-2.2938538-5.3648462.2562466l-.5513868-1.041832c3.1347608-3.5176354 6.3763122-3.1469936 7.1652393-.3661633z" fill="#f45170"/></g></g><g><g><path d="m12.695076 19.9596119.5513868 1.041832c-1.4901638 1.6829529-2.6822014 4.4993248-1.987855 6.5306377l-1.2490072 1.1517563c-.8954525-2.6604309.6345349-6.4199162 2.6854754-8.724226z" fill="#5094ff"/></g></g><g><g><path d="m17.0846691 22.3093319.529501-.2321854.0022583.7969494-.5290833.3789883c-.058321.3855343-.1760063.7843342-.3486061 1.1675739l.3344574.2900391-.4911842.8507786-.4208679-.1403828c-.2458448.3362503-.5283413.6411438-.8384371.8831978l-.0575781.6476879-.6981182.403059-.0656195-.5765591c-.3058901.1135845-.5937386.1379795-.8406963.0862503l-.4186974.6251049-.4943953-.2817535.3317223-.6746578c-.1696291-.1856556-.2937632-.4448414-.3495131-.7645149l-.5340633.2348194-.0022593-.7969494.5336475-.3816242c.0537577-.3828983.1760187-.7843399.3440418-1.164938l-.3344564-.2900543.4911842-.8507633.4208679.1403828c.2458572-.3362713.5329037-.6437778.8384371-.8831978l.0621414-.650322.6981173-.403059.0610561.5791931c.3104534-.1162186.5937519-.1380024.8406973-.0862503l.4186974-.6251049.4943943.2817402-.3317204.6746712c.174204.1830138.2937623.4448413.3540746.7618808zm-2.1755333 3.2044105c.7072563-.4083347 1.2802906-1.4008865 1.2779865-2.2135639-.0023022-.8126774-.5790834-1.1413803-1.2863398-.7330456-.7072439.4083271-1.2802916 1.4008846-1.2779875 2.213562s.5790969 1.1413746 1.2863408.7330475" fill="#e3e7f0"/></g></g><g><g><path d="m11.2586079 27.5320816c.6480827 1.8617077 2.9379673 2.1347065 5.2228508-.3633232l.5514011 1.0470791c-3.1258173 3.4031792-6.1714411 2.9739666-7.0232592.4680004z" fill="#dba660"/></g></g></g><g><g><g><path d="m35.206955 15.4782095-13.3033772 7.680665.003273 1.1451702 13.3001042-7.678833z" fill="#dedffb"/></g></g><g enable-background="new"><g><g><path d="m29.9031925 15.8548813-8.0071754 4.6229744.0032997 1.1542167 8.0038757-4.6209945z" fill="#ffd06c"/></g><g><path d="m35.206955 12.7927685-3.3890915 1.9567137v1.156104l3.3890915-1.9567146z" fill="#dedffb"/></g></g><g><g><path d="m35.206955 10.1165581-13.3185654 7.6894359.003273 1.1451054 13.3152924-7.687604z" fill="#dedffb"/></g></g></g><g><g><path d="m29.5791588 10.6803169-7.6983013 4.444602.003252 1.1542292 7.6950493-4.4427519z" fill="#dedffb"/></g><g><path d="m30.6236706 10.0772867v1.1560793l4.5832615-2.6461553v-1.1560793z" fill="#f45170"/></g></g></g></g><path d="m47.7235832 36.4535828-1.6400146-.1100464c-.0499878-.1399536-.1099854-.2799683-.1799927-.4099731l.1199951-.0900269.0100098-1.75-1.5299683-.8800049-1.2900391.5900269c-.7999878-.3099976-1.6900024-.5200195-2.5999756-.6199951l-.1900024-.9500122h-2.1500244l-.1799927.9500122c-.9099731.0999756-1.789978.3099976-2.5899658.6199951l-1.2900391-.5900269-1.5100098.8800049-.0099487 1.75.1300049.1000366c-.0599976.1300049-.1200562.2600098-.1600342.3999634l-1.6400146.1000366-.0099487 1.7600098.0099487 1.2399902 1.6400146.1099854c.0499878.1400146.1099854.2799683.1799927.4099731l-.1199951.0900269v1.75l1.5300293.8800049 1.289978-.5900269c.7999878.3200073 1.6799927.5200195 2.5900269.6199951l.1900024.9500122h2.1499634l.1799927-.9500122c.9200439-.0999756 1.7999878-.3099976 2.5900269-.6199951l1.2999878.5900269 1.5100098-.8800049v-1.75l-.1300049-.0999756c.0700073-.1300049.1199951-.2600098.1599731-.4000244l1.6500244-.1099854v-1.75zm-5.5499878 2.2299804c-1.539978.8999634-4.039978.8999634-5.5800171 0-.3800049-.2200317-.6699829-.4700317-.8599854-.7399902.1900024-.2700195.4699707-.5200195.8400269-.7300415 1.539978-.8999634 4.0299683-.8999634 5.5799561-.0099487.3800049.2199707.6700439.4799805.8600464.75-.1900025.2699585-.4700318.5199585-.8400269.7299804z" fill="#57b3fe"/><g><g enable-background="new"><g><g><path d="m46.0289764 34.0913315-.0049743 1.7539596-1.0227471.7495423.0049706-1.7539635z" fill="#497bfe"/></g></g><g><g><path d="m33.7265739 34.8389397-.0049743 1.7539596-1.0277634-.7475395.0049744-1.7539597z" fill="#497bfe"/></g></g><g><g><path d="m43.3221359 37.0816383-.0049782 1.7539635c.0016747-.5892754-.3876038-1.1797752-1.1674652-1.6300316-1.5454903-.8922882-4.0376015-.8883095-5.5730438.003994-.7666283.4455147-1.1510201 1.0273438-1.152668 1.6094208l.0049706-1.7539558c.0016518-.5820847.3860397-1.1639137 1.152668-1.6094284 1.5354462-.8923035 4.0275574-.8962784 5.5730438-.0039902.7798653.4502525 1.1691437 1.0407562 1.1674728 1.6300277z" fill="#5094ff"/></g></g><g><g><path d="m31.0314121 37.694294-.0049724 1.7539596-.0104332-1.2472267.0049724-1.7539596z" fill="#5094ff"/></g></g><g><g><path d="m47.7369308 37.6942215-.0049705 1.7539635-1.6459847.1090583.0049744-1.7539596z" fill="#497bfe"/></g></g><g><g><path d="m32.6683426 37.8013687-.0049706 1.7539597-1.6369323-.1070748.0049724-1.7539596z" fill="#497bfe"/></g></g><g><g><path d="m46.09095 37.8032837-.004982 1.7539635c-.1647339.5294266-.5213089 1.0390282-1.063015 1.5010452l.0049667-1.7539558c.5417138-.4620209.8982888-.9716263 1.0630303-1.5010529z" fill="#5094ff"/></g></g><g><g><path d="m33.7482719 39.3024025-.0049782 1.7539673c-.5468826-.4620209-.9057922-.9735947-1.0799217-1.5010414l.0049667-1.7539558c.1741372.527439.533043 1.0390167 1.0799332 1.5010299z" fill="#5094ff"/></g></g><g><g><path d="m44.5441284 40.9302979-.0049743 1.7539596-1.2939034-.5928764.0049706-1.7539597z" fill="#497bfe"/></g></g><g><g><path d="m46.055687 40.0518723-.0049706 1.7539634-1.5115623.8784218.0049743-1.7539596z" fill="#5094ff"/></g></g><g><g><path d="m34.25383 40.9342995-.0049706 1.7539596-1.5283012-.8823623.0049743-1.7539597z" fill="#5094ff"/></g></g><g><g><path d="m35.5444756 40.3394394-.0049744 1.7539596-1.2906418.5948601.0049706-1.7539596z" fill="#497bfe"/></g></g><g><g><path d="m43.2502213 40.3374214-.0049744 1.7539635c-.7958412.3152809-1.6744499.5234871-2.5913353.6226273l.0049706-1.7539558c.9168891-.0991479 1.795494-.3073541 2.5913391-.622635z" fill="#5094ff"/></g></g><g><g><path d="m38.1393776 40.9600677-.004982 1.7539673c-.9111366-.099144-1.7954903-.3053665-2.5948944-.620636l.0049667-1.7539558c.7994118.3152657 1.6837616.5214844 2.5949097.6206245z" fill="#5094ff"/></g></g><g><g><path d="m40.658886 40.9600525-.0049744 1.7539596-.176075.9498063.0049706-1.7539597z" fill="#497bfe"/></g></g><g><g><path d="m40.4828072 41.9098587-.0049706 1.7539597-2.1532516-.0019761.0049705-1.7539634z" fill="#5094ff"/></g></g><g><g><path d="m45.0279274 39.3043327 1.0277596.7475395-1.5115585.8784256-1.2939072-.5928764c-.795845.3152809-1.6744499.5234871-2.5913353.6226311l-.1760788.9498062-2.1532516-.0019798-.1901779-.9478111c-.9111481-.0991402-1.7954979-.3053589-2.594902-.6206284l-1.2906457.5948601-1.5282974-.8823624 1.0227394-.7495346c-.5468903-.4620132-.9057961-.9735909-1.0799294-1.5010338l-1.6369305-.1070747-.0104332-1.2472267 1.6391392-.1051064c.1716156-.5294228.5247574-1.041008 1.0664558-1.5030212l-1.0277634-.7475395 1.5115585-.8784256 1.2939072.5928764c.7958565-.3152885 1.6778946-.5215111 2.5879059-.6206589l.1829185-.9537621 2.1498299.0039482.186779.9498062c.9145584.0971603 1.7989197.3033752 2.5983162.6186485l1.2906532-.5948639 1.5282974.8823624-1.0227509.7495384c.5468979.4620094.9057999.9735909 1.076519 1.5030174l1.6403313.1050758.013855 1.2452583-1.6459807.1090624c-.1647415.5294266-.5213165 1.039032-1.0630226 1.501049zm-8.4383888-.6186256c1.5489159.894268 4.0478973.894268 5.5867538-.0000191 1.5354424-.8923035 1.5272865-2.3398094-.0216293-3.2340775-1.5454865-.8922882-4.0375977-.8883133-5.5730438.0039902-1.5388565.8942871-1.5375672 2.3378182.0079193 3.2301064z" fill="#57b3fe"/></g></g><g><g><path d="m38.3295555 41.9078789-.0049705 1.7539634-.1901818-.9478111.0049744-1.7539635z" fill="#497bfe"/></g></g></g></g><g><g><g><path d="m34.312355 20.1355343.0103989 3.66823-24.0637913 13.8932381-.0103988-3.668232z" fill="#e9e7fc"/></g></g><g><g><path d="m19.5252857 28.6728191-9.2767343 5.355959.010437 3.6682129 9.2662973-5.3499146z" fill="#f45170"/></g></g></g></g></g></g></svg>