<svg height="490.66667pt" viewBox="0 0 490.66667 490.66667" width="490.66667pt" xmlns="http://www.w3.org/2000/svg"><path d="m85.332031 0v85.332031h-85.332031zm0 0" fill="#f6b445"/><path d="m341.332031 160v330.667969h-320c-11.765625-.035157-21.2968748-9.566407-21.332031-21.335938v-384h85.332031v-85.332031h234.667969c11.765625.0351562 21.296875 9.566406 21.332031 21.332031zm0 0" fill="#fed049"/><path d="m480 330.667969c0 82.472656-66.859375 149.332031-149.332031 149.332031-82.476563 0-149.335938-66.859375-149.335938-149.332031 0-82.476563 66.859375-149.335938 149.335938-149.335938 82.472656 0 149.332031 66.859375 149.332031 149.335938zm0 0" fill="#49aaee"/><path d="m330.667969 170.667969c-88.367188 0-160 71.632812-160 160 0 88.363281 71.632812 160 160 160 88.363281 0 160-71.636719 160-160-.101563-88.324219-71.675781-159.902344-160-160zm0 298.664062c-14.933594 0-30.839844-20.074219-41.367188-53.332031h82.730469c-10.527344 33.257812-26.429688 53.332031-41.363281 53.332031zm-46.933594-74.664062c-3.621094-17.5625-5.683594-35.410157-6.167969-53.335938h106.21875c-.480468 17.925781-2.542968 35.773438-6.164062 53.335938zm-91.179687-53.335938h63.691406c.417968 17.898438 2.277344 35.734375 5.554687 53.335938h-54.023437c-8.648438-16.558594-13.832032-34.707031-15.234375-53.335938zm138.113281-149.332031c14.933593 0 30.835937 20.074219 41.363281 53.332031h-82.730469c10.527344-33.257812 26.433594-53.332031 41.367188-53.332031zm46.933593 74.667969c3.617188 17.558593 5.683594 35.40625 6.164063 53.332031h-106.207031c.480468-17.925781 2.542968-35.773438 6.164062-53.332031zm-121.367187 53.332031h-63.691406c1.402343-18.628906 6.585937-36.773438 15.234375-53.332031h54.015625c-3.28125 17.597656-5.140625 35.433593-5.558594 53.332031zm148.863281 21.332031h63.691406c-1.402343 18.628907-6.585937 36.777344-15.230468 53.335938h-54.015625c3.277343-17.601563 5.136719-35.4375 5.554687-53.335938zm0-21.332031c-.417968-17.898438-2.277344-35.734375-5.554687-53.332031h54.015625c8.644531 16.558593 13.828125 34.703125 15.230468 53.332031zm34.644532-74.667969h-45.320313c-4.308594-16.375-11.144531-31.972656-20.265625-46.238281 25.929688 8.632812 48.746094 24.714844 65.585938 46.238281zm-152.53125-46.238281c-9.132813 14.261719-15.980469 29.863281-20.300782 46.238281h-45.320312c16.839844-21.519531 39.648437-37.605469 65.578125-46.238281zm-65.621094 216.90625h45.320312c4.308594 16.375 11.148438 31.976562 20.269532 46.238281-25.933594-8.628906-48.746094-24.714843-65.589844-46.238281zm152.53125 46.238281c9.132812-14.261719 15.984375-29.863281 20.300781-46.238281h45.320313c-16.839844 21.523438-39.648438 37.605469-65.578126 46.238281zm0 0" fill="#3398d6"/><path d="m461.792969 131.125-13.792969 13.792969v-38.25c0-17.675781-14.328125-32-32-32h-53.332031v21.332031h53.332031c5.890625 0 10.667969 4.777344 10.667969 10.667969v38.25l-13.792969-13.792969-15.082031 15.082031 32 32c4.164062 4.164063 10.917969 4.164063 15.082031 0l32-32zm0 0" fill="#768ba0"/><path d="m96 330.667969c-5.890625 0-10.667969-4.777344-10.667969-10.667969v-38.25l13.792969 13.792969 15.082031-15.085938-32-32c-4.164062-4.164062-10.917969-4.164062-15.082031 0l-32 32 15.082031 15.085938 13.792969-13.792969v38.25c0 17.671875 14.328125 32 32 32h53.332031v-21.332031zm0 0" fill="#768ba0"/><g fill="#f6b445"><path d="m245.332031 32h64v21.332031h-64zm0 0"/><path d="m202.667969 74.667969h106.664062v21.332031h-106.664062zm0 0"/></g></svg>