<svg id="Layer_1" enable-background="new 0 0 512 512" viewBox="0 0 512 512" xmlns="http://www.w3.org/2000/svg"><g clip-rule="evenodd" fill-rule="evenodd"><path d="m276.017 376.024c-9.659 1.583-19.585 1.746-29.291.513-8.429-1.072-14.723-8.087-14.872-16.593-.259-14.734-16.434-23.817-29.191-16.106-7.282 4.402-16.608 2.788-21.991-3.796-6.22-7.608-11.261-16.001-15.089-25.074-3.317-7.864-.388-16.816 6.925-21.208 12.718-7.637 12.337-26.184-.619-33.327-7.447-4.106-10.721-12.935-7.72-20.912 3.472-9.229 8.16-17.738 14.161-25.654 5.149-6.791 14.365-8.737 21.82-4.599 13.001 7.216 28.872-2.451 28.571-17.221-.173-8.499 5.881-15.77 14.267-17.144 9.662-1.583 19.583-1.746 29.291-.512 8.428 1.072 14.722 8.086 14.872 16.593.26 14.734 16.433 23.817 29.191 16.106 7.283-4.402 16.609-2.788 21.991 3.796 6.22 7.609 11.26 15.999 15.089 25.074 3.317 7.864.387 16.817-6.925 21.208-12.718 7.638-12.336 26.184.619 33.327 7.447 4.106 10.721 12.933 7.72 20.911-3.469 9.224-8.157 17.735-14.154 25.646l.012.009c-5.144 6.785-14.385 8.737-21.84 4.599-13.001-7.217-28.874 2.453-28.572 17.221.176 8.498-5.879 15.769-14.265 17.143zm-23.263-73.393c24.123 5.984 43.567-20.29 30.722-41.61-7.988-13.259-25.176-17.507-38.415-9.531-13.24 7.977-17.508 25.176-9.532 38.415 3.992 6.626 10.283 11.004 17.225 12.726z" fill="#e6bd5c"/><path d="m276.017 376.024c-9.659 1.583-19.585 1.746-29.291.513-8.429-1.072-14.723-8.087-14.872-16.593-.259-14.734-16.434-23.817-29.191-16.106-7.282 4.402-16.608 2.788-21.991-3.796-6.22-7.608-11.261-16.001-15.089-25.074-3.317-7.864-.388-16.816 6.925-21.208 12.718-7.637 12.337-26.184-.619-33.327-7.447-4.106-10.721-12.935-7.72-20.912 3.472-9.229 8.16-17.738 14.161-25.654.467-.617.969-1.192 1.499-1.728 4.765-2.182 10.423-2.09 15.321.628 7.958 4.417 16.99 2.507 22.732-3.026 6.362-3.111 11.003-9.644 10.839-17.695-.097-4.764 1.763-9.143 4.894-12.313 1.363-.624 2.828-1.078 4.374-1.331 9.662-1.583 19.583-1.746 29.291-.512 8.428 1.072 14.722 8.086 14.872 16.593.26 14.734 16.433 23.817 29.191 16.106 7.283-4.402 16.609-2.788 21.991 3.796 6.22 7.609 11.26 15.999 15.089 25.074 3.317 7.864.387 16.817-6.925 21.208-12.718 7.638-12.335 26.184.619 33.327 7.447 4.106 10.721 12.933 7.72 20.911-3.469 9.224-8.157 17.735-14.154 25.646l.013.009c-.465.613-.964 1.187-1.492 1.72-4.774 2.187-10.447 2.099-15.348-.621-7.958-4.417-16.991-2.507-22.733 3.026-6.362 3.111-11.004 9.645-10.839 17.695.098 4.764-1.763 9.142-4.893 12.312-1.362.625-2.829 1.079-4.374 1.332zm-28.263-69.893c9.687 2.403 18.617-.398 25.007-5.989 12.98-7.12 19.636-24.313 10.715-39.121-7.988-13.259-25.176-17.507-38.415-9.531-1.455.876-2.801 1.865-4.035 2.947-.324.178-.646.361-.965.553-13.24 7.977-17.508 25.177-9.531 38.415 3.991 6.626 10.282 11.004 17.224 12.726z" fill="#ffd266"/><path d="m124.128 116.951c-2.664-.712-4.247-3.449-3.535-6.113s3.449-4.247 6.113-3.535l21.874 5.887c2.384.637 3.902 2.896 3.684 5.273l-.415 22.001c-.043 2.751-2.308 4.945-5.059 4.902-2.75-.043-4.945-2.308-4.902-5.059l.229-12.151c-41.917 33.398-67.884 83.478-70.698 137.146-.14 2.75-2.484 4.867-5.234 4.727s-4.867-2.484-4.726-5.234c2.971-56.661 30.367-109.423 74.668-144.614z" fill="#00e499"/><path d="m464.485 237.474c4.652-4.626 11.684 2.435 7.031 7.07l-16.035 16c-1.655 1.646-4.177 1.89-6.09.736l-.004.007-19.164-11.551c-2.362-1.424-3.123-4.493-1.699-6.855s4.493-3.123 6.855-1.699l10.389 6.263c-7.976-53.076-38.308-100.438-83.428-129.791-2.308-1.499-2.964-4.586-1.465-6.894s4.586-2.964 6.895-1.465c47.578 30.952 79.569 80.988 87.899 136.978z" fill="#fd4755"/><path d="m189.917 471.985c1.67 6.345-7.964 8.895-9.648 2.539l-5.839-21.887c-.595-2.261.461-4.568 2.422-5.643l19.585-10.822c2.416-1.327 5.451-.443 6.777 1.973 1.327 2.416.443 5.451-1.973 6.777l-10.61 5.862c50.054 19.667 106.024 16.979 154.137-7.367 2.459-1.241 5.459-.252 6.699 2.207s.252 5.459-2.207 6.699c-50.705 25.657-109.808 28.441-162.557 7.622z" fill="#60b7ff"/><path d="m216.18 33.796h86.645c2.761 0 5 2.239 5 5v86.646c0 2.761-2.239 5-5 5h-86.645c-2.761 0-5-2.239-5-5v-86.646c0-2.761 2.239-5 5-5z" fill="#e4404d"/><path d="m299.326 130.442h-83.146c-2.761 0-5-2.239-5-5v-82.146h83.145c2.761 0 5 2.239 5 5v82.146z" fill="#fd4755"/><path d="m101.374 292.319 32.981 57.124.008-.005 33.015 57.184c1.941 3.357-.525 7.492-4.316 7.488v.012h-132.061c-3.712 0-6.473-4.077-4.144-7.799l32.843-56.884 33.015-57.165c1.947-3.381 6.797-3.281 8.659.045z" fill="#00cd8a"/><path d="m28.345 403.747 31.355-54.308 29.979-51.909 23.982 41.538.008-.005 33.015 57.184c1.941 3.357-.525 7.492-4.316 7.488v.012z" fill="#00e499"/><ellipse cx="424.395" cy="371.498" fill="#56a5e6" rx="61.606" ry="61.606" transform="matrix(.526 -.851 .851 .526 -114.738 537.202)"/><path d="m456.128 424.31c-9.269 5.581-20.125 8.794-31.732 8.794-34.023 0-61.605-27.583-61.605-61.606 0-17.922 7.656-34.054 19.873-45.311 9.269-5.581 20.125-8.794 31.733-8.794 34.022 0 61.606 27.583 61.606 61.605-.002 17.922-7.659 34.054-19.875 45.312z" fill="#60b7ff"/></g></svg>