<svg id="Layer_1" enable-background="new 0 0 133 133" height="512" viewBox="0 0 133 133" width="512" xmlns="http://www.w3.org/2000/svg"><g><g><g><g><path d="m120.493103 46.9553642v69.479599h-107.966774v-69.479599c0-4.4275856 3.574234-8.0014954 7.9747963-8.0014954h91.9904785c4.4279137.0000001 8.0014992 3.5739098 8.0014992 8.0014954z" fill="#2c2c39"/></g><g><path d="m21.5774193 104.7264023v-54.0584183c0-1.4699898 1.1916637-2.6616554 2.6616573-2.6616554h84.5349121c1.4699936 0 2.6616592 1.1916656 2.6616592 2.6616554v54.0584183c0 1.4699936-1.1916656 2.6616516-2.6616592 2.6616516h-84.5349121c-1.4699936 0-2.6616573-1.191658-2.6616573-2.6616516z" fill="#fff"/></g><g><path d="m130.2145691 119.9828644-1.8779144 4.1032791c-1.7038879 3.7556305-5.4247055 6.1896286-9.5627975 6.1896286h-104.5825244c-4.1034927 0-7.8589082-2.4339981-9.5627899-6.1896286l-1.8431122-4.1032791c-1.0083632-2.2255707.6259027-4.7987976 3.0949175-4.7987976h121.2393036c2.469017 0 4.1032791 2.5732269 3.0949173 4.7987976z" fill="#606076"/></g><g><path d="m85.0028992 115.1840668-2.7283173 2.5566711c-.694931.651207-1.6116104 1.013588-2.5639725 1.013588h-26.4212188c-.9523621 0-1.8690414-.362381-2.5639687-1.013588l-2.7283211-2.5566711z" fill="#fff"/></g></g></g><g><g><path d="m107.2060852 122.4933853c0 1.8099976-1.4699707 3.2800293-3.289978 3.2800293s-3.289978-1.4700317-3.289978-3.2800293c0-1.8200073 1.4699707-3.289978 3.289978-3.289978s3.289978 1.4699707 3.289978 3.289978z" fill="#ffd67e"/></g><g><path d="m116.1006775 122.4933853c0 1.8099976-1.4699707 3.2800293-3.289978 3.2800293s-3.289978-1.4700317-3.289978-3.2800293c0-1.8200073 1.4699707-3.289978 3.289978-3.289978s3.289978 1.4699707 3.289978 3.289978z" fill="#ffd67e"/></g></g><g><g><g><g><g><path d="m43.9295654 52.8310127v22.8795433c0 1.0923996-.8855667 1.9779739-1.9779701 1.9779739h-8.3036613c-1.0924034 0-1.977972-.8855743-1.977972-1.9779739v-22.8795433c0-1.0924072.8855686-1.9779739 1.977972-1.9779739h8.3036613c1.0924034 0 1.9779701.8855667 1.9779701 1.9779739z" fill="#a9d075"/></g><g><g><path d="m58.6290245 40.8795853v34.8309707c0 1.0923996-.8855667 1.9779739-1.9779701 1.9779739h-8.3036614c-1.0924034 0-1.9779739-.8855743-1.9779739-1.9779739v-34.8309707c0-1.0924034.8855705-1.9779701 1.9779739-1.9779701h8.3036613c1.0924035-.0000001 1.9779702.8855667 1.9779702 1.9779701z" fill="#e4686a"/></g><g><path d="m73.3284836 25.8611126v49.8494434c0 1.0923996-.8855667 1.9779739-1.9779739 1.9779739h-8.3036575c-1.0924034 0-1.9779739-.8855743-1.9779739-1.9779739v-49.8494434c0-1.0924053.8855705-1.9779739 1.9779739-1.9779739h8.3036575c1.0924072 0 1.9779739.8855686 1.9779739 1.9779739z" fill="#ffc863"/></g><g><path d="m88.0279465 36.2976799v39.4128761c0 1.0923996-.8855743 1.9779739-1.9779739 1.9779739h-8.3036652c-1.0923996 0-1.9779663-.8855743-1.9779663-1.9779739v-39.4128761c0-1.0924034.8855667-1.9779739 1.9779663-1.9779739h8.3036652c1.0923995 0 1.9779739.8855705 1.9779739 1.9779739z" fill="#6dbcf7"/></g><g><path d="m102.7274017 30.4430199v45.2675361c0 1.0923996-.8855667 1.9779739-1.9779739 1.9779739h-8.3036575c-1.0924072 0-1.9779739-.8855743-1.9779739-1.9779739v-45.2675361c0-1.0924053.8855667-1.9779739 1.9779739-1.9779739h8.3036575c1.0924072-.0000001 1.9779739.8855685 1.9779739 1.9779739z" fill="#995d91"/></g></g></g></g></g><g><path d="m113.4893875 5.0777612-6.3463287 14.0273514c-.5311127 1.1711903-2.144928 1.3209763-2.8803482.2654934l-3.2752991-4.6915779-17.2344971 11.9571966c-.6605301.4562569-1.5525513.4085445-2.1585922-.1294212l-15.5934143-13.7003498-30.8055496 32.4056854c-.3404655.3609161-.8034973.5447426-1.266571.5447426-.4357681 0-.8715782-.156601-1.2120438-.4834366-.7013855-.667347-.7286072-1.7772751-.0613022-2.4786186l31.9699631-33.6246319c.6468964-.6809368 1.7159729-.7354641 2.4241257-.1088905l15.8317719 13.9046631 16.0973358-11.1673689-3.717926-5.3317003c-.7421951-1.0554843-.0476685-2.5194309 1.2393112-2.6080389l15.3551025-1.1302943c1.2597579-.0886081 2.1585998 1.1984543 1.634262 2.3491964z" fill="#606076"/></g></g><g><g><path d="m101.9662552 90.3487549c-.1567078.4506149-.338974.8892822-.5451736 1.314064-.1297913.2673874-.1024246.5845642.0650711.8300934l2.0930023 3.0681534c.226799.3324661.1849594.7792587-.0996246 1.0638351l-2.7930145 2.7930222c-.284584.284584-.7313766.3264236-1.0638351.0996246l-3.0682449-2.0930634c-.2455215-.1674805-.5626678-.1948853-.8300629-.065155-.4251709.2062683-.8640137.3885803-1.3147583.5453262-.2845306.0989456-.4920425.3459778-.5479889.641983l-.6884766 3.6424942c-.0747452.3954315-.4202423.6817474-.8226776.6817474h-3.950058c-.4024353 0-.7479324-.2863159-.8226776-.6817474l-.6884918-3.6424942c-.0559464-.2960052-.2634506-.5430374-.5479736-.641983-.4506073-.1567001-.8892746-.3389664-1.3140564-.5451736-.2673874-.1297989-.5845642-.1024323-.830101.0650635l-3.0681534 2.0930023c-.3324661.226799-.7792587.1849594-1.0638351-.0996246l-2.7930222-2.7930222c-.2845764-.2845764-.326416-.731369-.099617-1.0638351l2.0929947-3.0681458c.1674957-.2455292.1948624-.562706.0650711-.8300934-.2062073-.4247894-.3884659-.8634567-.5451736-1.3140717-.0989456-.284523-.3459778-.4920273-.6419754-.5479736l-3.6425171-.6884842c-.3954315-.0747375-.6817474-.4202423-.6817474-.8226776v-3.9508057c0-.4024353.2863159-.7479401.6817474-.8226776l3.6425171-.6884842c.2959976-.0559464.5430298-.2634506.6419754-.5479736.1567078-.4506149.3389664-.8892899.5451736-1.3140793.1297913-.2673798.1024246-.5845566-.0650711-.8300934l-2.0929947-3.0681458c-.226799-.3324661-.1849594-.7792587.099617-1.0638351l2.7930222-2.7930222c.2845764-.2845764.731369-.326416 1.0638351-.099617l3.0681534 2.0929947c.2455368.1674957.5627136.1948624.830101.0650635.4247818-.2062073.8634491-.3884659 1.3140564-.5451736.284523-.0989456.4920273-.3459778.5479813-.6419754l.6884842-3.6424942c.0747452-.3954315.4202423-.6817474.8226776-.6817474h3.950058c.4024353 0 .7479324.2863159.8226776.6817474l.6884766 3.6424942c.0559464.2960052.2634583.5430374.5479889.6419754.4507446.1567459.8895874.3390656 1.3147583.5453339.267395.1297226.5845413.1023254.8300629-.0651627l3.0682449-2.0930557c.3324585-.226799.7792511-.1849594 1.0638351.099617l2.7930145 2.7930222c.284584.2845764.3264236.731369.0996246 1.0638351l-2.0930023 3.0681534c-.1674957.2455292-.1948624.562706-.0650711.8300934.2061996.4247894.3884659.8634567.5451736 1.3140717.0989456.284523.3459854.4920273.641983.5479736l3.6424942.6884842c.3954315.0747375.6817474.4202423.6817474.82267v3.9508133c0 .4024353-.2863159.7479401-.6817474.8226776l-3.6424942.6884842c-.2959977.0559463-.5430375.2634429-.6419831.5479736z" fill="#ffc863"/></g><g><ellipse cx="90.376" cy="86.314" fill="#fff" rx="6.987" ry="6.987" transform="matrix(.16 -.987 .987 .16 -9.3 161.697)"/></g></g><g><g><path d="m47.8705711 94.9793396c-.0987587.2839813-.213623.5604324-.3435745.8281326-.0817947.1685104-.0645485.3684006.041008.5231323l1.3190269 1.9335709c.1429291.2095261.1165619.4910965-.0627823.6704407l-1.7601814 1.7601852c-.1793442.1793442-.4609184.2057114-.6704407.0627823l-1.9336281-1.3190613c-.1547279-.1055527-.3545952-.122818-.5231094-.041069-.2679482.1299973-.5445099.2448959-.8285751.3436737-.1793137.062355-.3100891.2180405-.3453445.4045792l-.4338837 2.2955322c-.0471039.2491989-.264843.4296417-.5184593.4296417h-2.4893532c-.2536163 0-.4713554-.1804352-.5184593-.4296417l-.4338913-2.2955322c-.0352592-.1865387-.1660271-.3422241-.3453407-.4045792-.2839775-.0987549-.5604286-.2136154-.828125-.3435669-.1685104-.0818024-.3684006-.0645599-.52314.0410004l-1.9335747 1.3190231c-.2095222.1429291-.4910927.1165619-.6704369-.0627823l-1.7601814-1.7601852c-.1793442-.1793442-.2057114-.4609146-.0627823-.6704407l1.3190231-1.9335632c.1055565-.1547394.1228065-.3546295.041008-.5231323-.1299515-.2677078-.244812-.5441589-.3435707-.8281403-.0623589-.1793137-.2180405-.3100815-.4045792-.3453369l-2.2955399-.4338837c-.2492046-.0471039-.4296436-.2648468-.4296436-.5184631v-2.48983c0-.2536163.180439-.4713516.4296436-.5184555l2.2955399-.4338837c.1865387-.0352631.3422203-.1660309.4045792-.3453445.0987587-.2839813.2136192-.5604324.3435707-.8281403.0817986-.1685028.0645485-.3683929-.041008-.5231323l-1.3190231-1.9335632c-.1429291-.2095261-.1165619-.4910965.0627823-.6704407l1.7601814-1.7601852c.1793442-.1793442.4609146-.2057114.6704369-.0627823l1.9335747 1.3190231c.1547394.1055603.3546295.1228027.52314.041008.2676964-.1299515.5441475-.2448196.828125-.3435745.1793137-.062355.3100815-.2180405.3453407-.4045792l.4338913-2.2955322c.0471039-.2491989.264843-.4296417.5184593-.4296417h2.4893532c.2536163 0 .4713554.1804428.5184593.4296494l.4338799 2.2955246c.0352592.1865463.1660347.3422241.3453484.4045792.2840652.0987854.560627.2136765.8285751.3436737.1685143.081749.3683815.0644836.5231094-.041069l1.9336319-1.3190613c.2095222-.1429291.4910927-.1165619.6704369.0627823l1.7601814 1.7601852c.1793442.1793442.2057114.4609146.0627823.6704407l-1.3190269 1.9335709c-.1055565.1547318-.1228027.3546219-.041008.5231323.1299515.2677002.2448158.5441513.3435745.8281326.0623589.1793137.2180405.3100815.404583.3453445l2.2955246.4338837c.2492027.0471039.4296417.2648392.4296417.5184555v2.48983c0 .2536163-.180439.4713593-.4296417.5184631l-2.2955284.4338837c-.1865388.0352553-.3422204.1660231-.4045793.3453368z" fill="#606076"/></g><g><ellipse cx="40.566" cy="92.437" fill="#fff" rx="4.403" ry="4.403" transform="matrix(.16 -.987 .987 .16 -57.175 117.672)"/></g></g></g></svg>