<svg id="Layer_1" enable-background="new 0 0 512 512" height="512" viewBox="0 0 512 512" width="512" xmlns="http://www.w3.org/2000/svg"><g clip-rule="evenodd" fill-rule="evenodd"><path d="m326.563 314.158c0-38.899-31.662-70.555-70.56-70.555-38.902 0-70.564 31.651-70.564 70.555 0 38.907 31.656 70.569 70.564 70.569 38.904 0 70.56-31.666 70.56-70.569zm71.502-185.017c-.01 0-.021 0-.058 0-25.809-.016-46.798-21.009-46.798-46.82 0-25.821 21.004-46.82 46.825-46.82 25.819 0 46.816 21.002 46.816 46.82-.001 25.809-20.975 46.804-46.785 46.82zm-95.246-16.819c0 25.813-20.991 46.81-46.832 46.82-25.812-.01-46.809-21.006-46.809-46.82 0-25.819 21.002-46.82 46.82-46.82s46.821 21.002 46.821 46.82zm-188.824 16.819c-.009 0-.018 0-.027 0-.01 0-.021 0-.031 0-25.808-.016-46.789-21.013-46.789-46.82 0-25.819 21.002-46.82 46.82-46.82s46.82 21.002 46.82 46.82c.001 25.81-20.983 46.804-46.793 46.82zm311.291 318.575c2.224 2.102 2.291 5.678.153 7.882l-18.649 19.223c-2.12 2.185-5.666 2.237-7.852.116l-51.622-50.089c-1.113-1.045-1.723-2.487-1.723-4.018 0-1.314.447-2.575 1.284-3.587l.127-.153 18.83-19.395.029-.029c1.043-1.04 2.447-1.619 3.921-1.619h.009c1.447 0 2.824.554 3.863 1.562zm-169.283-42.469c-50.23 0-91.093-40.857-91.093-91.089 0-50.229 40.866-91.084 91.093-91.084 50.225 0 91.089 40.858 91.089 91.084 0 50.228-40.861 91.089-91.089 91.089z" fill="#9bc9ff"/><path d="m256.003 373.728c-32.845 0-59.566-26.721-59.566-59.57 0-32.835 26.721-59.556 59.566-59.556 32.84 0 59.561 26.721 59.561 59.556 0 32.85-26.721 59.57-59.561 59.57zm0-135.125c-41.665 0-75.564 33.894-75.564 75.555 0 41.67 33.899 75.569 75.564 75.569 41.656 0 75.56-33.899 75.56-75.569 0-41.661-33.904-75.555-75.56-75.555zm94.886-26.528c-6.627-12.977-15.81-24.353-26.881-33.508 16.865-23.854 44.593-38.417 74.002-38.427.009 0 .023.005.023.005.009 0 .019-.005.019-.005 43.36.009 79.989 30.359 88.607 71.935zm-22.668 30.002c-18.488-18.526-44.042-30.002-72.217-30.002-28.18 0-53.729 11.475-72.218 30.002h-16.408c8.614-41.581 45.252-71.931 88.612-71.935h.009.014c43.36.005 79.998 30.355 88.616 71.935zm-72.218 158.17c47.469 0 86.089-38.62 86.089-86.089 0-47.464-38.62-86.084-86.089-86.084-47.474 0-86.094 38.62-86.094 86.084.001 47.469 38.62 86.089 86.094 86.089zm95.267-3.347-5.38 5.559-17.199-16.691c1.807-1.84 3.549-3.751 5.22-5.719zm18.513 4.147c-.16 0-.292.061-.391.16l-18.663 19.223c-.09.108-.137.24-.137.4s.047.287.16.386l51.667 50.133c.202.198.584.198.781-.009l18.649-19.223c.202-.207.202-.588-.01-.777l-51.667-50.142c-.103-.099-.23-.151-.381-.151zm-344.441-188.972h135.77c6.627-12.977 15.815-24.353 26.876-33.508-16.855-23.854-44.584-38.417-73.997-38.427-.009 0-.014.005-.024.005-.005 0-.014-.005-.019-.005-43.358.01-79.992 30.36-88.606 71.935zm46.806-129.754c0-23.059 18.762-41.821 41.821-41.821s41.821 18.762 41.821 41.821c0 23.054-18.747 41.807-41.797 41.821-.009 0-.014 0-.024 0-.009 0-.019 0-.028 0-23.046-.015-41.793-18.767-41.793-41.821zm142.03 30.001c0-23.059 18.762-41.821 41.821-41.821s41.821 18.762 41.821 41.821c0 23.054-18.752 41.811-41.806 41.821-.005 0-.009 0-.009 0-.01 0-.01 0-.014 0-23.056-.009-41.813-18.766-41.813-41.821zm142.03-30.001c0-23.059 18.762-41.821 41.825-41.821 23.059 0 41.816 18.762 41.816 41.821 0 23.054-18.738 41.807-41.788 41.821-.009 0-.019 0-.028 0 0 0-.014 0-.023 0-23.05-.015-41.802-18.767-41.802-41.821zm147.744 136.899c-4.561-42.635-33.711-77.019-72.5-89.755 14.751-10.487 24.4-27.705 24.4-47.144 0-31.88-25.93-57.819-57.819-57.819-31.88 0-57.824 25.939-57.824 57.819 0 19.491 9.71 36.747 24.523 47.224-21.501 7.126-40.503 21.002-53.781 39.778-6.731-4.048-13.951-7.366-21.539-9.856 14.761-10.487 24.41-27.705 24.41-47.144 0-31.88-25.939-57.819-57.824-57.819-31.88 0-57.819 25.94-57.819 57.819 0 19.439 9.654 36.657 24.405 47.144-7.583 2.49-14.798 5.813-21.538 9.856-13.274-18.776-32.28-32.652-53.776-39.778 14.817-10.477 24.518-27.733 24.518-47.224 0-31.88-25.935-57.819-57.819-57.819-31.88 0-57.819 25.939-57.819 57.819 0 19.439 9.654 36.657 24.405 47.144-38.794 12.737-67.944 47.121-72.51 89.76-.24 2.255.49 4.509 2.005 6.194 1.52 1.69 3.681 2.655 5.954 2.655h138.528c-2.156 6.764-3.671 13.834-4.453 21.148-.24 2.259.49 4.514 2.005 6.199 1.516 1.69 3.681 2.655 5.95 2.655h12.708c-10.633 16.107-16.832 35.382-16.832 56.083 0 56.299 45.798 102.092 102.092 102.092 22.654 0 43.609-7.422 60.559-19.952l19.129 18.559c-.748 1.953-1.13 4.053-1.097 6.213.066 4.429 1.845 8.557 5.008 11.626l51.667 50.142c3.22 3.111 7.371 4.66 11.532 4.66 4.321 0 8.637-1.671 11.88-5.008l18.658-19.232c6.35-6.547 6.189-17.048-.358-23.407l-51.672-50.133c-3.158-3.078-7.328-4.749-11.767-4.669-2.16.042-4.25.48-6.18 1.29l-20-19.411c9.348-15.405 14.728-33.471 14.728-52.769 0-20.696-6.199-39.976-16.832-56.083h12.713c2.269 0 4.429-.965 5.95-2.65 1.511-1.69 2.241-3.944 2-6.204-.781-7.314-2.292-14.384-4.453-21.148h138.533c2.269 0 4.429-.965 5.95-2.655 1.522-1.686 2.252-3.94 2.002-6.2z" fill="#57a4ff"/></g></svg>