<svg enable-background="new 0 0 492 492" height="512" viewBox="0 0 492 492" width="512" xmlns="http://www.w3.org/2000/svg"><g id="Layer_1"><g><path clip-rule="evenodd" d="m409 431.1h-248.3c-5 0-9.1-4.1-9.1-9.1v-221.9c26-3.9 48.5-22.7 55.7-49.7 4.3-15.9 2.5-32-3.8-45.9h131.5l83 83v234.5c.1 5-4 9.1-9 9.1z" fill="#edf3f4" fill-rule="evenodd"/><path clip-rule="evenodd" d="m335.1 104.5v73.9c0 5 4.1 9.1 9.1 9.1h73.9z" fill="#b5c4cf" fill-rule="evenodd"/><path d="m217.5 250.1c-2.6-2-6.3-1.5-8.3 1.1s-1.5 6.3 1.1 8.3l58.3 45.3c2.6 2 6.3 1.5 8.3-1.1s1.5-6.3-1.1-8.3zm76.6 46.5c-2.8 1.6-3.8 5.2-2.1 8.1 1.6 2.8 5.2 3.8 8.1 2.1l61.7-35.6c2.8-1.6 3.8-5.2 2.1-8.1-1.6-2.8-5.2-3.8-8.1-2.1z" fill="#b5c4cf"/><path d="m298.8 324c-3.8 3.8-9 6.1-14.8 6.1s-11-2.3-14.8-6.1-6.1-9-6.1-14.8 2.3-11 6.1-14.8 9-6.1 14.8-6.1 11 2.3 14.8 6.1 6.1 9 6.1 14.8c.1 5.8-2.3 11-6.1 14.8z" fill="#fedd46"/><path d="m216.8 260.4c-3.8 3.8-9 6.1-14.8 6.1s-11-2.3-14.8-6.1-6.1-9-6.1-14.8 2.3-11 6.1-14.8 9-6.1 14.8-6.1 11 2.3 14.8 6.1 6.1 9 6.1 14.8c.1 5.8-2.3 11-6.1 14.8z" fill="#e40048"/><path d="m386.5 273.4c-3.8 3.8-9 6.1-14.8 6.1s-11-2.3-14.8-6.1-6.1-9-6.1-14.8 2.3-11 6.1-14.8 9-6.1 14.8-6.1 11 2.3 14.8 6.1 6.1 9 6.1 14.8-2.3 11-6.1 14.8z" fill="#00da26"/><g clip-rule="evenodd" fill-rule="evenodd"><path d="m264.2 366h42.9v65h-42.9z" fill="#fedd46"/><path d="m185.3 301h36.4v130h-36.4z" fill="#e40048"/><path d="m349.6 312.7h36.4v118.4h-36.4z" fill="#00da26"/></g><g><path d="m164.1 64.9c-19-5.1-38.3-2-54.1 7.1-15.7 9.1-28 24.2-33.1 43.2s-2 38.3 7.1 54.1 24.3 28.1 43.3 33.2c19 5.1 38.3 2 54.1-7.1s28.1-24.3 33.2-43.3c5.1-19 2-38.3-7.1-54.1-9.3-15.7-24.4-28-43.4-33.1z" fill="#194d80"/><path d="m116.2 82.5c13.1-7.6 29-10.1 44.8-5.9 15.7 4.2 28.3 14.4 35.8 27.5 7.6 13.1 10.1 29 5.9 44.8-4.2 15.7-14.4 28.3-27.5 35.8-13.1 7.6-29 10.1-44.8 5.9-15.7-4.2-28.3-14.4-35.8-27.5-7.6-13.1-10.1-29.1-5.9-44.8s14.4-28.2 27.5-35.8z" fill="#98edfe"/><g fill="#bbf3fe"><path d="m116.2 82.5c.5-.3 1.1-.6 1.7-.9l83.3 72.4c-2.3 6.3-5.6 12-9.7 17l-89.1-77.4c4-4.4 8.6-8.1 13.8-11.1z"/><path d="m181.3 180.7c-2 1.5-4 2.8-6.1 4.1-3.9 2.2-8 4-12.3 5.4l-75.5-65.6c.3-2 .8-4.1 1.3-6.1 1.3-4.8 3.1-9.3 5.4-13.4z"/></g><path d="m122.9 195-4 15.2 4 3.5 7.7-.4 4.1-15.1z" fill="#194d80"/><g clip-rule="evenodd" fill-rule="evenodd"><path d="m135.8 214.7-22.1-5.9c-3.5-.9-7.2 1.2-8.1 4.7l-14 52.1c-2.6 9.6 3.2 19.6 12.8 22.2 9.6 2.6 19.6-3.2 22.2-12.8l14-52.1c.9-3.6-1.3-7.3-4.8-8.2z" fill="#630"/><path d="m104.9 245.1h12.2v36.2h-12.2z" fill="#4b2500" transform="matrix(.259 -.966 .966 .259 -171.97 302.253)"/></g></g></g></g></svg>