<svg id="Layer_1" enable-background="new 0 0 53 53" height="512" viewBox="0 0 53 53" width="512" xmlns="http://www.w3.org/2000/svg"><g id="_x35_1"><g><g><g><path d="m46.2901764 5.6695976v31.954689c0 1.2038803-.9775352 2.1814117-2.1814117 2.1814117h-23.7519894c-1.2038784 0-2.1814117-.9775314-2.1814117-2.1814117v-27.2522878l6.8735123-6.8838129h19.0598888c1.2038764.0000002 2.1814117.9775343 2.1814117 2.1814117z" fill="#deddff"/></g></g><g><g><path d="m26.0778465 3.4881861v5.6901722c0 1.2244768-.9980717 2.2226105-2.2225475 2.2226105h-5.6799355v-1.0289698l6.8735123-6.8838129z" fill="#c6c6f7"/></g></g><g><g><path d="m25.0488758 3.4881861v5.694066c0 .6570787-.5326672 1.1897469-1.1897469 1.1897469h-5.6837654z" fill="#b5b5ea"/></g></g><g><g><g><g><g><g><path d="m36.8375053 30.6795387c-.147438 0-.2965202-.0383015-.4315987-.1194305l-9.8045502-5.3757401c-.5469742-.3255386-.5478077-1.1219578 0-1.4479923l9.8045502-5.3757401c.3978271-.2396832.9167328-.1091347 1.1564178.2915764.2388611.3998852.1087227.9175549-.2915764 1.1564159l-8.5921268 4.6517429 8.5921268 4.6517448c.4002991.2388611.5304375.7565308.2915764 1.1564159-.158142.264395-.4373625.4110071-.7248191.4110071z" fill="#312e4b"/></g></g></g><g><g><circle cx="27.034" cy="24.46" fill="#e83d62" r="3"/></g></g><g><g><path d="m27.6866226 27.3860588c-1.7153549.4512939-3.649334-.9169979-3.649334-2.9259644 0-1.651947 1.3387966-3.0015507 3.0015507-3.0015507.2266903 0 .4426403.0216141.6477833.0755863-1.3387966.2915344-2.3428936 1.5007744-2.3428936 2.9259644s1.004097 2.63443 2.3428936 2.9259644z" fill="#ce2955"/></g></g><g><g><circle cx="36.839" cy="19.246" fill="#46cc6b" r="3"/></g></g><g><g><path d="m37.4931984 22.1702003c-1.7814407.4452229-3.649334-.9485188-3.649334-2.9259663 0-1.651947 1.3387985-3.0015507 2.9907455-3.0015507.2266884 0 .4426384.0216141.6585884.0755863-1.3387947.2915344-2.3537025 1.5007744-2.3537025 2.9259644 0 1.4359971 1.0149079 2.63443 2.3537026 2.9259663z" fill="#34ba5d"/></g></g><g><g><circle cx="36.839" cy="29.836" fill="#65b9ff" r="2.997"/></g></g><g><g><path d="m38.5499077 32.285675c-1.8682365 1.3698196-4.7136993.0435524-4.7136993-2.4485626 0-1.6071796 1.2512054-2.9015751 2.8260612-2.9878845-.7658653.5393257-1.2728004 1.4346237-1.2728004 2.4485588 0 1.6503696 1.3483124 2.9986839 2.9986153 2.9986839.0539855 0 .1079063 0 .1618232-.0107956z" fill="#3e7fff"/></g></g></g></g></g><g><g><g><path d="m43.9899635 6.4016919c0 .3597436-.2966194.6565294-.6654739.6565294h-14.5262127c-.3686352 0-.6654758-.2967858-.6654758-.6565294 0-.3686905.2968407-.6654763.6654758-.6654763h14.5262127c.3688545 0 .6654739.2967858.6654739.6654763z" fill="#b5b5ea"/></g></g><g><g><path d="m39.6268768 9.4491081c0 .3644772-.2951393.6595659-.659565.6595659h-10.170496c-.3646355 0-.6597767-.2950888-.6597767-.6508789 0-.3731642.2951412-.6682529.6597767-.6682529h10.170496c.3644257 0 .659565.2950888.659565.6595659z" fill="#b5b5ea"/></g></g><g><g><path d="m34.2117424 12.5009985c0 .3644772-.2951431.659565-.6595688.659565h-4.7553577c-.3646355 0-.6597767-.2950878-.6597767-.6508789 0-.3731642.2951412-.668252.6597767-.668252h4.7553577c.3644257 0 .6595688.2950878.6595688.6595659z" fill="#b5b5ea"/></g></g></g></g><g><g><path d="m48.4522171 40.196228-19.6075287 8.5918732c-2.9500046 1.221714-6.1284447.7449608-9.1381035-.3079109-.1009407-.0353241-9.1369152-3.1974564-8.5718679-2.9997177l.0099421-4.0724144v-2.0660324h23.2823658l.307972-.1390762 11.2238426-4.7776604c1.5893402-.6754227 3.417057.0496521 4.1123009 1.6289902.708393 1.6140632-.0417329 3.4527778-1.6189233 4.1419486z" fill="#ffaf93"/></g></g><g><g><path d="m48.4493332 40.1970482-19.5999775 8.5900268c-2.9500122 1.2199707-6.1300049.75-9.1400146-.3099976-.100935-.0353317-9.1350346-3.1977921-8.5700073-3v-1.7400513c.1009464.035305 9.1151371 3.1876717 8.5500488 2.9900513 3.0099487 1.0599976 6.1900024 1.5299683 9.1399536.3099976l19.6099873-8.5900269c.9000244-.3900146 1.5200195-1.1500244 1.7700195-2.0200195.4430465 1.4273682-.2438965 3.1018754-1.7600098 3.7700196z" fill="#ee8778"/></g></g><g><g><path d="m31.2530708 42.2828865h-7.1637249v-3.2083244h10.3720531v-.0000076c.0000001 1.7719116-1.4364165 3.208332-3.2083282 3.208332z" fill="#ee8778"/></g></g><g><g><g><path d="m34.84412 37.5938454c0 .6257706-.1488914 1.2217751-.4170952 1.7481804h-.0099449c-.5905991 1.1815987-1.8890724 2.0660324-3.3969307 2.0660324h-19.8754902v-12.0484581h3.3671036c5.8836079.0178452 9.5803738 3.7476501 9.8432922 3.9035721.4173412.3277969.9239216.5165253 1.450388.5165253h5.2246494c2.1056233-.0000001 3.8140278 1.7084045 3.8140278 3.8141479z" fill="#ffaf93"/></g></g></g><g><g><path d="m30.9224014 35.7659988-1.9198971-.0012398c-.2269382-.0001488-.4109859.1837807-.4109859.4107208v2.8372726c0 .226799.1838303.4106712.4106293.4107246l2.0230942.0004501c1.1090622 0 1.9914169-.9937592 1.8029518-2.1378212-.1481057-.8990667-.994608-1.5195196-1.9057923-1.5201071z" fill="#deddff"/></g></g><g><g><g><path d="m11.900712 29.6580982v15.8724918c0 1.4478531-1.1737165 2.6215706-2.6215696 2.6215706h-6.6210373c-.000035-.0000381-.0000546-.0000572-.0000894-.0000916v-21.115448c.000036-.0000362.0000565-.0000572.0000925-.0000935h6.6210341c1.4478532.0000001 2.6215697 1.1737176 2.6215697 2.6215707z" fill="#46cc6b"/></g></g></g><g><g><g><path d="m11.8993435 43.3170433v2.210022c0 1.4500122-1.1699829 2.6300049-2.6199951 2.6300049h-6.6199949v-2.2200317h6.6199951c1.450012-.0000001 2.6199949-1.169983 2.6199949-2.6199952z" fill="#179c5f"/></g></g></g></g></svg>