<svg id="Layer_1" enable-background="new 0 0 256 256" height="512" viewBox="0 0 256 256" width="512" xmlns="http://www.w3.org/2000/svg"><g><g><path d="m128 210.004c-48.243 0-87.491-39.249-87.491-87.491s39.248-87.49 87.491-87.49c18.859 0 36.834 5.932 51.981 17.155 22.235 16.473 35.51 42.767 35.51 70.336 0 48.242-39.248 87.49-87.491 87.49zm0-165.988c-43.284 0-78.498 35.214-78.498 78.497s35.214 78.498 78.498 78.498 78.498-35.214 78.498-78.497c0-24.732-11.914-48.325-31.87-63.11-13.588-10.067-29.711-15.388-46.628-15.388z" fill="#63bce7"/></g><circle cx="128" cy="122.514" fill="#cecece" r="38.345"/><circle cx="128" cy="39.937" fill="#cecece" r="32.394"/><g><path d="m110.273 39.937c0-15.367 10.704-28.226 25.06-31.55-2.358-.546-4.81-.844-7.333-.844-17.891 0-32.394 14.503-32.394 32.394s14.503 32.394 32.394 32.394c2.523 0 4.976-.298 7.333-.844-14.356-3.324-25.06-16.183-25.06-31.55z" fill="#afafaf"/></g><circle cx="128" cy="205.09" fill="#cecece" r="32.394"/><g><path d="m110.273 205.09c0-15.367 10.704-28.226 25.06-31.55-2.358-.546-4.81-.844-7.333-.844-17.891 0-32.394 14.503-32.394 32.394s14.503 32.394 32.394 32.394c2.523 0 4.976-.298 7.333-.844-14.356-3.325-25.06-16.183-25.06-31.55z" fill="#afafaf"/></g><circle cx="210.839" cy="122.514" fill="#cecece" r="32.394"/><g><path d="m210.839 90.12c-2.523 0-4.976.298-7.333.844 14.357 3.324 25.061 16.183 25.061 31.55s-10.704 28.226-25.061 31.55c2.358.546 4.81.844 7.333.844 17.891 0 32.394-14.503 32.394-32.394s-14.503-32.394-32.394-32.394z" fill="#e2e2e2"/></g><circle cx="45.161" cy="122.514" fill="#cecece" r="32.394"/><g><path d="m27.434 122.513c0-15.367 10.704-28.226 25.06-31.55-2.358-.546-4.81-.844-7.333-.844-17.891 0-32.394 14.503-32.394 32.394s14.503 32.394 32.394 32.394c2.523 0 4.976-.298 7.333-.844-14.356-3.324-25.06-16.182-25.06-31.55z" fill="#afafaf"/></g><g><circle cx="45.161" cy="111.999" fill="#707070" r="10.807"/><path d="m60.13 143.835h-29.938v-8.977c0-6.656 5.396-12.052 12.052-12.052h5.833c6.656 0 12.052 5.396 12.052 12.052v8.977z" fill="#f46275"/></g><g><circle cx="128" cy="111.999" fill="#707070" r="10.807"/><path d="m142.969 143.835h-29.938v-8.977c0-6.656 5.396-12.053 12.052-12.053h5.833c6.656 0 12.053 5.396 12.053 12.053z" fill="#63bce7"/></g><g><circle cx="128" cy="27.606" fill="#707070" r="10.807"/><path d="m142.969 59.442h-29.938v-8.977c0-6.656 5.396-12.052 12.052-12.052h5.833c6.656 0 12.053 5.396 12.053 12.052z" fill="#f8af23"/></g><g><circle cx="128" cy="194.575" fill="#707070" r="10.807"/><path d="m142.969 226.412h-29.938v-8.977c0-6.656 5.396-12.052 12.052-12.052h5.833c6.656 0 12.053 5.396 12.053 12.052z" fill="#f8af23"/></g><g><circle cx="210.839" cy="111.999" fill="#707070" r="10.807"/><path d="m225.808 143.835h-29.938v-8.977c0-6.656 5.396-12.053 12.052-12.053h5.833c6.656 0 12.053 5.396 12.053 12.053z" fill="#f46275"/><g fill="#3f3679"><path d="m27.323 246.957h-18.003c-.828 0-1.5.671-1.5 1.5s.672 1.5 1.5 1.5h18.003c.828 0 1.5-.671 1.5-1.5s-.672-1.5-1.5-1.5z"/><path d="m246.68 246.957h-18.003c-.828 0-1.5.671-1.5 1.5s.672 1.5 1.5 1.5h18.003c.828 0 1.5-.671 1.5-1.5s-.672-1.5-1.5-1.5z"/><path d="m218.479 246.957h-180.958c-.828 0-1.5.671-1.5 1.5s.672 1.5 1.5 1.5h180.959c.828 0 1.5-.671 1.5-1.5s-.672-1.5-1.501-1.5z"/><path d="m9.32 238.984h237.36c.828 0 1.5-.671 1.5-1.5s-.672-1.5-1.5-1.5h-104.766c11.767-5.321 19.98-17.162 19.98-30.894 0-.099-.007-.196-.007-.295 21.781-9.003 39.395-26.622 48.397-48.402.186.003.369.014.556.014 18.689 0 33.895-15.205 33.895-33.894s-15.205-33.894-33.895-33.894c-.208 0-.414.012-.622.016-6.218-15.023-16.354-28.041-29.343-37.663-5.902-4.373-12.29-7.988-18.988-10.758.001-.093.007-.184.007-.277 0-18.689-15.205-33.894-33.894-33.894s-33.894 15.205-33.894 33.894c0 .098.007.195.007.294-21.783 9.004-39.39 26.623-48.393 48.403-.187-.003-.371-.014-.558-.014-18.689 0-33.895 15.205-33.895 33.894s15.205 33.894 33.895 33.894c.187 0 .371-.011.557-.014 9.003 21.781 26.612 39.398 48.395 48.402-.001.099-.007.196-.007.294 0 13.732 8.213 25.573 19.98 30.894h-104.767c-.828 0-1.5.671-1.5 1.5s.672 1.5 1.5 1.5zm87.129-46.252c-17.262-7.783-30.948-21.494-38.704-38.757 12.474-5.008 21.31-17.218 21.31-31.461 0-14.244-8.836-26.454-21.31-31.462 7.761-17.274 21.446-30.972 38.706-38.753 4.951 12.592 17.222 21.532 31.549 21.532 14.335 0 26.612-8.951 31.558-21.554 4.97 2.247 9.737 5.043 14.178 8.332 10.596 7.851 19.034 18.369 24.471 30.462-12.448 5.02-21.261 17.218-21.261 31.443 0 14.243 8.835 26.453 21.309 31.461-7.761 17.276-21.439 30.971-38.705 38.753-4.951-12.592-17.222-21.532-31.549-21.532-14.33 0-26.601 8.942-31.552 21.536zm65.265 8.862c-.213-2.066-.62-4.074-1.188-6.014 18.135-8.099 32.488-22.464 40.57-40.607 1.933.581 3.937.995 5.997 1.222-8.674 20.282-25.1 36.716-45.379 45.399zm80.019-79.08c0 17.035-13.859 30.894-30.895 30.894s-30.894-13.859-30.894-30.894 13.858-30.894 30.894-30.894 30.895 13.859 30.895 30.894zm-62.644-69.132c12.277 9.096 21.91 21.336 27.951 35.456-2.059.231-4.063.646-5.995 1.23-5.644-12.656-14.449-23.665-25.525-31.869-4.689-3.474-9.729-6.419-14.988-8.773.568-1.943.974-3.954 1.185-6.023 6.115 2.62 11.955 5.967 17.372 9.979zm-51.089-44.339c17.035 0 30.894 13.859 30.894 30.894s-13.858 30.894-30.894 30.894-30.894-13.859-30.894-30.894 13.859-30.894 30.894-30.894zm-33.714 34.389c.213 2.066.62 4.075 1.188 6.015-18.129 8.096-32.49 22.466-40.573 40.606-1.932-.581-3.936-.994-5.995-1.222 8.677-20.281 25.099-36.714 45.38-45.399zm-80.019 79.082c0-17.035 13.859-30.894 30.895-30.894s30.894 13.859 30.894 30.894-13.858 30.894-30.894 30.894-30.895-13.86-30.895-30.894zm34.64 33.682c2.06-.228 4.063-.641 5.996-1.222 8.078 18.129 22.438 32.512 40.57 40.612-.567 1.938-.974 3.945-1.186 6.009-20.281-8.686-36.704-25.117-45.38-45.399zm48.199 48.894c0-17.035 13.858-30.894 30.894-30.894s30.894 13.859 30.894 30.894-13.859 30.894-30.894 30.894-30.894-13.859-30.894-30.894z"/><path d="m167.846 122.514c0-21.971-17.875-39.846-39.846-39.846s-39.846 17.875-39.846 39.846 17.875 39.845 39.846 39.845 39.846-17.875 39.846-39.845zm-76.692 0c0-20.317 16.529-36.846 36.846-36.846s36.846 16.529 36.846 36.846c0 20.316-16.529 36.845-36.846 36.845s-36.846-16.529-36.846-36.845z"/><path d="m52.314 121.994c3.114-2.235 5.153-5.878 5.153-9.995 0-6.786-5.521-12.307-12.307-12.307s-12.308 5.521-12.308 12.307c0 4.117 2.04 7.759 5.154 9.995-5.402 1.784-9.316 6.872-9.316 12.865v8.978c0 .829.672 1.5 1.5 1.5h29.94c.828 0 1.5-.671 1.5-1.5v-8.978c0-5.993-3.914-11.081-9.316-12.865zm-16.46-9.995c0-5.132 4.176-9.307 9.308-9.307s9.307 4.175 9.307 9.307-4.175 9.307-9.307 9.307-9.308-4.176-9.308-9.307zm22.776 30.336h-26.939v-7.478c0-5.818 4.734-10.552 10.553-10.552h5.833c5.818 0 10.553 4.734 10.553 10.552z"/><path d="m144.469 143.835v-8.978c0-5.992-3.913-11.081-9.315-12.865 3.114-2.235 5.153-5.878 5.153-9.995 0-6.786-5.521-12.307-12.307-12.307s-12.307 5.521-12.307 12.307c0 4.117 2.039 7.759 5.153 9.995-5.402 1.784-9.315 6.872-9.315 12.865v8.978c0 .829.672 1.5 1.5 1.5h29.938c.828 0 1.5-.671 1.5-1.5zm-25.776-31.836c0-5.132 4.175-9.307 9.307-9.307s9.307 4.175 9.307 9.307-4.175 9.307-9.307 9.307-9.307-4.176-9.307-9.307zm22.776 30.336h-26.938v-7.478c0-5.818 4.733-10.552 10.552-10.552h5.834c5.818 0 10.552 4.734 10.552 10.552z"/><path d="m113.031 60.942h29.938c.828 0 1.5-.671 1.5-1.5v-8.977c0-5.993-3.913-11.081-9.315-12.865 3.114-2.235 5.153-5.877 5.153-9.994 0-6.786-5.521-12.307-12.307-12.307s-12.307 5.521-12.307 12.307c0 4.117 2.039 7.759 5.153 9.994-5.402 1.784-9.315 6.872-9.315 12.865v8.977c0 .829.672 1.5 1.5 1.5zm5.662-33.336c0-5.132 4.175-9.307 9.307-9.307s9.307 4.175 9.307 9.307-4.175 9.307-9.307 9.307-9.307-4.175-9.307-9.307zm-4.162 22.859c0-5.819 4.733-10.553 10.552-10.553h5.834c5.818 0 10.552 4.734 10.552 10.553v7.477h-26.938z"/><path d="m135.154 204.57c3.114-2.235 5.153-5.878 5.153-9.995 0-6.786-5.521-12.307-12.307-12.307s-12.307 5.521-12.307 12.307c0 4.117 2.039 7.759 5.153 9.995-5.402 1.784-9.315 6.872-9.315 12.865v8.978c0 .829.672 1.5 1.5 1.5h29.938c.828 0 1.5-.671 1.5-1.5v-8.978c0-5.993-3.913-11.081-9.315-12.865zm-16.461-9.995c0-5.132 4.175-9.307 9.307-9.307s9.307 4.175 9.307 9.307-4.175 9.307-9.307 9.307-9.307-4.175-9.307-9.307zm22.776 30.337h-26.938v-7.478c0-5.818 4.733-10.552 10.552-10.552h5.834c5.818 0 10.552 4.734 10.552 10.552z"/><path d="m195.87 145.335h29.938c.828 0 1.5-.671 1.5-1.5v-8.978c0-5.992-3.914-11.08-9.316-12.865 3.114-2.235 5.154-5.878 5.154-9.995 0-6.786-5.521-12.307-12.308-12.307s-12.307 5.521-12.307 12.307c0 4.117 2.039 7.76 5.153 9.995-5.402 1.784-9.316 6.872-9.316 12.864v8.978c.002.83.674 1.501 1.502 1.501zm5.662-33.336c0-5.132 4.175-9.307 9.307-9.307s9.308 4.175 9.308 9.307-4.176 9.307-9.308 9.307-9.307-4.176-9.307-9.307zm-4.162 22.859c0-5.818 4.734-10.552 10.553-10.552h5.833c5.818 0 10.553 4.734 10.553 10.552v7.478h-26.939z"/></g></g></g></svg>