<svg id="Layer_1" enable-background="new 0 0 128 128" height="512" viewBox="0 0 128 128" width="512" xmlns="http://www.w3.org/2000/svg"><g><path d="m119.5 9.943h-107c-2.757 0-5 2.243-5 5v102.113c0 2.757 2.243 5 5 5h107c2.757 0 5-2.243 5-5v-102.113c0-2.757-2.243-5-5-5z" fill="#e6e7e8"/><g><path d="m119.5 26.384h-115v86.672c0 2.209 1.791 4 4 4h107c2.209 0 4-1.791 4-4z" fill="#d4fbff"/><g><circle cx="87.327" cy="72.537" fill="#fa759e" r="22.045"/><circle cx="87.327" cy="72.537" fill="#ffd7e5" r="16.835"/></g><g><g><path d="m18.905 46.944h36.191c3.08 0 5.577 2.497 5.577 5.577v20.52c0 3.08-2.497 5.577-5.577 5.577h-36.191c-3.08 0-5.577-2.497-5.577-5.577v-20.52c0-3.08 2.497-5.577 5.577-5.577z" fill="#d4fbff"/></g><path d="m55.095 46.944h-36.19c-3.08 0-5.577 2.497-5.577 5.576v3c0-3.08 2.497-5.576 5.577-5.576h36.191c3.08 0 5.577 2.497 5.577 5.576v-3c-.001-3.079-2.498-5.576-5.578-5.576z" fill="#fff"/><path d="m32.451 78.613h9.098v14.967c0 2.512-2.037 4.549-4.549 4.549-2.512 0-4.549-2.037-4.549-4.549z" fill="#fa759e"/></g><path d="m115.5 6.944h-107c-2.209 0-4 1.791-4 4v15.441h115v-15.441c0-2.21-1.791-4-4-4z" fill="#6dc9f7"/><g fill="#3a2c60"><path d="m64.282 72.536c0 12.708 10.338 23.046 23.045 23.046 12.708 0 23.046-10.338 23.046-23.046 0-12.707-10.338-23.045-23.046-23.045-12.707 0-23.045 10.338-23.045 23.045zm44.091 0c0 11.604-9.441 21.046-21.046 21.046s-21.045-9.441-21.045-21.046 9.44-21.045 21.045-21.045 21.046 9.441 21.046 21.045z"/><path d="m85.797 60.506v1.662c-1.809.311-3.271 1.031-4.39 2.158-1.117 1.128-1.677 2.479-1.677 4.053 0 1.342.335 2.411 1.006 3.209.67.798 1.472 1.38 2.406 1.75.933.369 2.119.739 3.558 1.108.992.272 1.75.495 2.275.671.525.175.967.418 1.327.729.36.312.539.71.539 1.195 0 .797-.31 1.415-.933 1.852-.622.438-1.516.656-2.683.656-.874 0-1.716-.122-2.522-.365-.807-.243-1.658-.626-2.552-1.151-.545-.312-1.002-.467-1.371-.467-.389 0-.734.185-1.036.554-.301.369-.452.798-.452 1.283 0 .369.064.675.19.918.126.244.345.462.656.656.758.545 1.638.992 2.639 1.342 1.002.349 2.036.573 3.106.67v1.575c0 .525.165.948.496 1.268.33.321.748.481 1.254.481.525 0 .948-.16 1.269-.481.32-.321.48-.743.48-1.268v-1.662c1.827-.311 3.281-1.006 4.36-2.086 1.079-1.078 1.619-2.406 1.619-3.98 0-1.322-.326-2.377-.977-3.164-.652-.787-1.429-1.361-2.333-1.72-.904-.36-2.066-.715-3.485-1.065-1.011-.253-1.798-.476-2.362-.67-.564-.195-1.031-.462-1.4-.802s-.553-.782-.553-1.327c0-.778.315-1.399.947-1.866.631-.466 1.472-.7 2.522-.7.914 0 1.687.126 2.319.379.631.254 1.346.632 2.144 1.137.33.195.588.321.773.38.184.058.384.087.597.087.389 0 .734-.185 1.036-.554.301-.369.452-.796.452-1.283 0-.349-.064-.651-.19-.904-.126-.252-.335-.477-.627-.67-1.536-1.089-3.179-1.751-4.929-1.983v-1.604c0-.525-.16-.948-.481-1.268s-.743-.481-1.268-.481c-.506 0-.924.16-1.254.481s-.495.743-.495 1.267z"/><path d="m32.639 67.203 1.188 2.646c.135.314.329.55.584.706.254.157.522.235.807.235.434 0 .819-.146 1.155-.437s.504-.646.504-1.065c0-.209-.06-.448-.179-.717l-6.054-12.714c-.179-.344-.434-.613-.763-.807s-.687-.292-1.076-.292c-.374 0-.725.094-1.054.28-.329.187-.576.46-.74.818l-6.054 12.714c-.119.269-.179.508-.179.717 0 .418.171.774.515 1.065.344.292.733.437 1.167.437.299 0 .571-.078.818-.235s.438-.393.572-.706l1.188-2.646h7.601zm-3.79-8.476 2.602 5.83h-5.225z"/><path d="m40.442 70.701h4.507c1.733 0 3.221-.314 4.462-.941 1.241-.628 2.186-1.536 2.836-2.725.651-1.188.976-2.605.976-4.249 0-1.645-.33-3.057-.987-4.238-.659-1.181-1.608-2.085-2.848-2.713-1.241-.628-2.721-.942-4.439-.942h-4.507c-.524 0-.927.143-1.211.426-.284.284-.426.688-.426 1.211v12.534c0 .523.142.927.426 1.211s.686.426 1.211.426zm1.86-12.983h2.399c3.364 0 5.045 1.689 5.045 5.068 0 3.393-1.682 5.09-5.045 5.09h-2.399z"/><path d="m37 99.129c3.06 0 5.549-2.489 5.549-5.549v-13.963h12.546c3.626 0 6.577-2.95 6.577-6.577v-20.52c0-3.626-2.95-6.576-6.577-6.576h-36.19c-3.626 0-6.577 2.95-6.577 6.576v20.52c0 3.627 2.95 6.577 6.577 6.577h12.546v13.963c0 3.06 2.489 5.549 5.549 5.549zm3.549-5.549c0 1.957-1.592 3.549-3.549 3.549s-3.549-1.592-3.549-3.549v-13.963h7.098zm-26.221-20.54v-20.52c0-2.523 2.053-4.576 4.577-4.576h36.19c2.523 0 4.577 2.053 4.577 4.576v20.52c0 2.523-2.053 4.577-4.577 4.577h-36.19c-2.524 0-4.577-2.053-4.577-4.577z"/><path d="m119.5 37.17c-.553 0-1 .447-1 1v9.916c0 .553.447 1 1 1s1-.447 1-1v-9.916c0-.553-.447-1-1-1z"/><path d="m115.5 5.943h-107c-2.757 0-5 2.243-5 5v102.112c0 2.757 2.243 5 5 5h107c2.757 0 5-2.243 5-5v-60.47c0-.553-.447-1-1-1s-1 .447-1 1v60.47c0 1.654-1.346 3-3 3h-107c-1.654 0-3-1.346-3-3v-85.671h113v6.036c0 .553.447 1 1 1s1-.447 1-1v-22.477c0-2.756-2.243-5-5-5zm-110 19.441v-14.44c0-1.654 1.346-3 3-3h107c1.654 0 3 1.346 3 3v14.44z"/></g><circle cx="41.943" cy="17.108" fill="#fff" r="3.424"/><circle cx="29.505" cy="17.108" fill="#d4fbff" r="3.424"/><circle cx="17.068" cy="17.108" fill="#fa759e" r="3.424"/></g></g></svg>