<svg id="Layer_1" enable-background="new 0 0 66 66" height="512" viewBox="0 0 66 66" width="512" xmlns="http://www.w3.org/2000/svg"><g><g><g><path d="m2 9.63v42c0 2.21 1.79 4 4 4h16 36 2c2.21 0 4-1.79 4-4v-42z" fill="#7cb5e8"/></g><g opacity=".25"><path d="m29.11 32.39c0 3.57 2.9 6.47 6.47 6.47h28.42v-29.23h-34.89z" fill="#fff"/></g><g opacity=".25"><path d="m41.35 9.63c0 2.66 2.16 4.82 4.82 4.82h8.2c2.66 0 4.82 2.16 4.82 4.82v.44c0 2.66 2.16 4.82 4.82 4.82v-14.9z" fill="#fff"/></g><g><path d="m60 1.63h-54c-2.21 0-4 1.79-4 4v4h62v-4c0-2.21-1.79-4-4-4z" fill="#4e6575"/></g><g opacity=".2"><path d="m60 1.63h-29.1v.83c0 2.04 1.65 3.69 3.69 3.69h29.41v-.52c0-2.21-1.79-4-4-4z" fill="#e2e2e2"/></g><g><path d="m22 47.63h6v16h-6z" fill="#ffab03" transform="matrix(-1 0 0 -1 50 111.25)"/></g><g><path d="m42 30.63h6v33h-6z" fill="#4e6575"/></g><g><path d="m52 35.63h6v28h-6z" fill="#e2e2e2"/></g><g opacity=".4"><path d="m55 58.19c0 1.58 1.28 2.87 2.87 2.87h.13v-25.43h-3z" fill="#fff"/></g><g opacity=".2"><path d="m45 58.19c0 1.58 1.28 2.87 2.87 2.87h.13v-30.43h-3z" fill="#e2e2e2"/></g><g opacity=".25"><path d="m25 58.19c0 1.58 1.28 2.87 2.87 2.87h.13v-13.43h-3z" fill="#fff"/></g><g><path d="m32 41.63h6v22h-6z" fill="#ef4a51" transform="matrix(-1 0 0 -1 70 105.25)"/></g><g><path d="m28 24.63c0-6.08-4.92-11-11-11v11z" fill="#e2e2e2"/></g><g><path d="m17 13.63c-6.08 0-11 4.92-11 11s4.92 11 11 11c3.04 0 5.79-1.23 7.78-3.22l-7.78-7.78z" fill="#ffab03"/></g><g><path d="m17 24.63 7.78 7.78c1.99-1.99 3.22-4.74 3.22-7.78z" fill="#ef4a51"/></g><g><path d="m6 39.63h4v4h-4z" fill="#e2e2e2"/></g><g><path d="m14 39.63h4v4h-4z" fill="#e2e2e2"/></g><g opacity=".25"><path d="m35 58.19c0 1.58 1.28 2.87 2.87 2.87h.13v-19.43h-3z" fill="#fff"/></g></g><g><g><path d="m61 64.37h-42c-.41 0-.75-.34-.75-.75s.34-.75.75-.75h42c.41 0 .75.34.75.75s-.34.75-.75.75z" fill="#4e6575"/></g><g><circle cx="7" cy="5.63" fill="#fff" r="1"/></g><g><circle cx="11" cy="5.63" fill="#fff" r="1"/></g><g><circle cx="15" cy="5.63" fill="#fff" r="1"/></g><g><path d="m59 17.37h-24c-.41 0-.75-.34-.75-.75s.34-.75.75-.75h24c.41 0 .75.34.75.75s-.34.75-.75.75z" fill="#fff"/></g><g><path d="m59 21.37h-24c-.41 0-.75-.34-.75-.75s.34-.75.75-.75h24c.41 0 .75.34.75.75s-.34.75-.75.75z" fill="#fff"/></g><g><path d="m59 25.37h-16c-.41 0-.75-.34-.75-.75s.34-.75.75-.75h16c.41 0 .75.34.75.75s-.34.75-.75.75z" fill="#fff"/></g><g><path d="m18 48.37h-12c-.41 0-.75-.34-.75-.75s.34-.75.75-.75h12c.41 0 .75.34.75.75s-.34.75-.75.75z" fill="#fff"/></g><g><path d="m14 52.37h-8c-.41 0-.75-.34-.75-.75s.34-.75.75-.75h8c.41 0 .75.34.75.75s-.34.75-.75.75z" fill="#fff"/></g></g></g></svg>