<svg id="Layer_1" height="512" viewBox="0 0 50 50" width="512" xmlns="http://www.w3.org/2000/svg"><g><g><path d="m45.1602 4.447v41.1059c0 1.9283-1.5632 3.4915-3.4915 3.4915h-30.1782c-1.9283 0-3.4915-1.5632-3.4915-3.4915v-41.0967l-.0092-.0092c-.0092-1.9111-1.5344-3.4639-3.4363-3.4914h37.1152c1.9283 0 3.4915 1.5632 3.4915 3.4914z" fill="#efefed"/><g><g><path d="m12.575 7.521h28v1.5h-28z" fill="#c7c7c7"/></g><g><path d="m30.575 12.613h10v1.5h-10z" fill="#c7c7c7"/></g><g><path d="m30.575 17.704h10v1.5h-10z" fill="#c7c7c7"/></g><g><path d="m12.575 32.796h7.573v1.5h-7.573z" fill="#c7c7c7"/></g><g><path d="m12.575 37.887h7.573v1.5h-7.573z" fill="#c7c7c7"/></g><g><path d="m12.575 42.979h28v1.5h-28z" fill="#c7c7c7"/></g></g><g><path d="m27.5999 15.5882v10.4773c0 .9341-.7572 1.6913-1.6913 1.6913h-17.0901l-3.275 2.4294c-.5327.5327-1.4436.1554-1.4436-.598v-14c0-.9341.7572-1.6913 1.6913-1.6913h20.1175c.934.0001 1.6912.7573 1.6912 1.6913z" fill="#59b1e3"/><g fill="#fff"><circle cx="8.031" cy="20.796" r="1.691"/><circle cx="13.244" cy="20.796" r="1.691"/><circle cx="18.456" cy="20.796" r="1.691"/><circle cx="23.669" cy="20.796" r="1.691"/></g><path d="m23.4662 26.9635v11.3841c0 1.0149.8227 1.8376 1.8376 1.8376h18.5692l3.5585 2.6396c.5788.5788 1.5685.1689 1.5685-.6497v-15.2116c0-1.0149-.8227-1.8376-1.8376-1.8376h-21.8586c-1.0149 0-1.8376.8227-1.8376 1.8376z" fill="#e9715f"/><g fill="#fff"><circle cx="44.729" cy="32.622" r="1.838"/><circle cx="39.065" cy="32.622" r="1.838"/><circle cx="33.401" cy="32.622" r="1.838"/><circle cx="27.738" cy="32.622" r="1.838"/></g></g><path d="m1 4.4533v2.5762c0 .5075.4114.9188.9188.9188h6.0712v-3.495c0-1.9302-1.5648-3.495-3.495-3.495-1.9302 0-3.495 1.5648-3.495 3.495z" fill="#c7c7c7"/></g></g></svg>