<svg id="Layer_1" enable-background="new 0 0 512 512" height="512" viewBox="0 0 512 512" width="512" xmlns="http://www.w3.org/2000/svg"><g clip-rule="evenodd" fill-rule="evenodd"><g><path d="m100.838 249.97c6.247 1.486 12.213 3.963 17.681 7.33l11.489-5.103 13.541 13.541-5.101 11.485c3.368 5.469 5.844 11.437 7.331 17.686l11.721 4.512v19.15l-11.724 4.513c-1.487 6.247-3.963 12.213-7.33 17.68l5.103 11.489-13.541 13.541-11.486-5.101c-5.469 3.368-11.437 5.844-17.685 7.331l-4.512 11.722h-19.15l-4.513-11.724c-6.247-1.487-12.213-3.963-17.681-7.33l-11.489 5.103-13.541-13.541 5.101-11.485c-3.368-5.469-5.844-11.438-7.331-17.685l-11.722-4.512v-19.15l11.723-4.513c1.487-6.247 3.963-12.214 7.33-17.682l-5.102-11.488 13.541-13.541 11.489 5.103c5.468-3.367 11.434-5.843 17.681-7.33l4.513-11.724h19.149z" fill="#a79ba7"/><path d="m54.983 360.691-11.489 5.103-1.769-1.769 10.772-4.784c.817.503 1.646.987 2.486 1.45zm45.855-110.721c6.247 1.486 12.213 3.963 17.681 7.33l-3.266 1.45c-5.468-3.367-13.92-7.294-20.167-8.78l-4.513-11.724h5.752zm17.685 110.723c-5.469 3.368-11.437 5.844-17.685 7.331l-4.512 11.722h-5.752l4.512-11.722c6.248-1.487 14.703-5.414 20.172-8.782zm-76.799-106.727 1.769-1.769 11.489 5.103c-.839.463-1.668.947-2.486 1.45zm84.301 0 3.983-1.769 13.541 13.541-5.101 11.485c3.368 5.469 5.844 11.437 7.331 17.686l11.721 4.512v19.15l-11.724 4.513c-1.487 6.247-3.963 12.213-7.33 17.68l5.103 11.489-13.541 13.541-3.983-1.769 11.772-11.772-5.103-11.489c3.366-5.468 5.843-11.434 7.33-17.68l11.724-4.513v-19.15l-11.722-4.512c-1.487-6.248-3.963-12.217-7.331-17.686l5.101-11.485z" fill="#837683"/><ellipse cx="86.751" cy="308.995" fill="#eceff1" rx="33.395" ry="33.395" transform="matrix(.854 -.521 .521 .854 -148.25 90.412)"/><path d="m86.75 275.6c-18.445 0-33.395 14.95-33.395 33.395s14.95 33.395 33.395 33.395c.894 0 1.78-.036 2.656-.105-17.203-1.354-30.739-15.739-30.739-33.289 0-17.551 13.536-31.937 30.739-33.29-.876-.069-1.761-.106-2.656-.106z" fill="#d1d1d6"/></g><g><path d="m180.69 255.702h36.451v18.538c0 6.08-4.974 11.053-11.053 11.053h-14.345c-6.079 0-11.053-4.973-11.053-11.053z" fill="#a0a0a3"/><path d="m169.354 229.009h59.122v23.124c0 6.08-4.973 11.053-11.052 11.053h-37.016c-6.081 0-11.054-4.973-11.054-11.053z" fill="#b1b1b5"/><path d="m215.601 225.653v26.479c0 6.046-4.939 11.053-11.052 11.053h12.875c6.079 0 11.052-4.973 11.052-11.053v-26.485c-4.205.139-8.643.006-12.875.006z" fill="#a0a0a3"/><path d="m158.301 207.932h81.229v22.094c0 6.08-4.973 11.053-11.052 11.053h-59.124c-6.079 0-11.053-4.973-11.053-11.053z" fill="#d1d1d6"/><path d="m226.655 218.971v10.038 1.017c0 6.08-4.973 11.053-11.052 11.053h12.875c.123 0 .246-.002.368-.006 5.91-.196 10.684-5.091 10.684-11.047v-11.055z" fill="#b1b1b5"/><path d="m198.915 59.748c37.566 0 68.02 30.453 68.02 68.02 0 37.777-24.132 35.519-27.405 91.203h-81.23c-3.273-55.684-27.405-53.426-27.405-91.203.001-37.566 30.454-68.02 68.02-68.02z" fill="#ffe177"/><path d="m192.478 60.049c34.547 3.243 61.582 32.324 61.582 67.719 0 35.09-20.821 35.638-26.406 80.163-.428 3.41-.766 7.078-.999 11.04h12.875c3.273-55.684 27.405-53.426 27.405-91.203 0-37.566-30.454-68.02-68.02-68.02-2.171 0-4.318.102-6.437.301z" fill="#ffd064"/><path d="m179.17 218.975v-66.898h-7.807c-6.555 0-12.509-2.676-16.82-6.987s-6.987-10.265-6.987-16.82 2.676-12.509 6.987-16.82 10.265-6.987 16.82-6.987 12.509 2.676 16.82 6.987 6.987 10.264 6.987 16.82v7.807h7.493v-7.807c0-6.555 2.676-12.509 6.987-16.82s10.264-6.987 16.82-6.987c6.555 0 12.509 2.676 16.82 6.987s6.987 10.265 6.987 16.82-2.676 12.509-6.987 16.82-10.265 6.987-16.82 6.987h-7.807v66.898h-16v-66.898h-7.493v66.898zm0-82.898v-7.807c0-2.138-.881-4.088-2.3-5.507s-3.369-2.3-5.507-2.3-4.088.881-5.507 2.3-2.3 3.369-2.3 5.507.881 4.089 2.3 5.507c1.419 1.419 3.369 2.299 5.507 2.299h7.807zm39.492 0h7.807c2.138 0 4.089-.881 5.507-2.299 1.419-1.418 2.299-3.369 2.299-5.507 0-2.139-.881-4.089-2.299-5.508-1.418-1.418-3.369-2.299-5.507-2.299s-4.088.881-5.507 2.3-2.3 3.369-2.3 5.507z" fill="#ffc338"/><path d="m206.916 36.755c0 4.418-3.582 8-8 8s-8-3.582-8-8v-16.023c0-4.418 3.582-8 8-8s8 3.582 8 8zm84.86 58.21c-3.814 2.209-8.697.908-10.906-2.906s-.908-8.697 2.906-10.906l13.876-8.011c3.814-2.209 8.697-.908 10.906 2.906s.908 8.697-2.906 10.906zm-34.651-40.464c-2.209 3.814-7.092 5.115-10.906 2.906s-5.115-7.092-2.906-10.906l8.011-13.876c2.209-3.814 7.092-5.115 10.906-2.906s5.115 7.092 2.906 10.906zm-143.07 26.651c3.814 2.209 5.115 7.092 2.906 10.906s-7.092 5.116-10.906 2.906l-13.875-8.011c-3.814-2.209-5.115-7.092-2.906-10.906s7.092-5.115 10.906-2.906zm40.464-34.651c2.209 3.814.908 8.697-2.906 10.906s-8.697.908-10.906-2.906l-8.011-13.876c-2.209-3.814-.908-8.697 2.906-10.906s8.697-.908 10.906 2.906z" fill="#ffe177"/></g><g><path d="m122.136 400.94h35.218c4.416 0 8.018 3.601 8.018 8.018v82.291c0 4.416-3.601 8.017-8.018 8.017h-35.218c-4.416 0-8.017-3.602-8.017-8.017v-82.291c-.001-4.416 3.601-8.018 8.017-8.018z" fill="#fe646f"/><path d="m143.99 400.94h13.364c4.416 0 8.018 3.602 8.018 8.018v82.291c0 4.416-3.602 8.018-8.018 8.018h-13.364c4.416 0 8.018-3.602 8.018-8.018v-82.291c-.001-4.416-3.602-8.018-8.018-8.018z" fill="#fd4755"/><path d="m252.523 349.424c-11.739 0-23.479 0-35.218 0-4.416 0-8.018 3.602-8.018 8.018v133.808c-.001 4.416 3.601 8.018 8.018 8.018h35.218c4.416 0 8.018-3.602 8.018-8.018 0-47.345 0-86.464 0-133.808 0-4.416-3.602-8.018-8.018-8.018z" fill="#ffe177"/><path d="m252.523 349.424h-13.364c4.416 0 8.018 3.602 8.018 8.018v133.808c.001 4.416-3.601 8.018-8.018 8.018h13.364c4.416 0 8.018-3.602 8.018-8.018 0-47.345 0-86.464 0-133.808 0-4.416-3.602-8.018-8.018-8.018z" fill="#ffd064"/><path d="m347.692 295.63h-35.217c-4.416 0-8.018 3.602-8.018 8.018v187.601c0 4.416 3.601 8.018 8.018 8.018h35.217c4.416 0 8.018-3.602 8.018-8.018v-187.601c-.001-4.416-3.602-8.018-8.018-8.018z" fill="#6cf5c2"/><path d="m347.692 295.63h-13.364c4.416 0 8.018 3.602 8.018 8.017v187.602c0 4.416-3.602 8.017-8.018 8.017h13.364c4.416 0 8.018-3.601 8.018-8.017v-187.602c-.001-4.415-3.602-8.017-8.018-8.017z" fill="#00e499"/><path d="m407.641 247.238h35.218c4.416 0 8.018 3.602 8.018 8.018v235.993c0 4.416-3.602 8.018-8.018 8.018h-35.218c-4.416 0-8.017-3.601-8.017-8.018v-235.993c-.001-4.417 3.6-8.018 8.017-8.018z" fill="#8ac9fe"/><path d="m429.495 247.238h13.364c4.416 0 8.017 3.602 8.017 8.018v235.993c0 4.416-3.601 8.018-8.017 8.018h-13.364c4.416 0 8.018-3.602 8.018-8.018v-235.993c-.001-4.417-3.602-8.018-8.018-8.018z" fill="#60b7ff"/><path d="m199.73 324.802c-4.021 1.812-8.75.021-10.562-4s-.021-8.75 4-10.562c27.248-12.268 54.56-25.997 81.672-41.389 22.079-12.534 44.073-26.192 65.849-41.085l-18.467-1.278c-4.401-.293-7.731-4.099-7.438-8.5s4.099-7.731 8.5-7.438l40.952 2.834c4.401.293 7.731 4.099 7.438 8.5-.05.745-.201 1.46-.437 2.131l-10.711 39.017c-1.156 4.245-5.536 6.75-9.781 5.594s-6.75-5.536-5.594-9.781l5.002-18.223c-22.296 15.267-44.821 29.263-67.438 42.104-27.675 15.711-55.417 29.664-82.985 42.076z" fill="#a79ba7"/></g><g><path d="m439.337 85.667c6.247 1.486 12.213 3.963 17.681 7.33l11.489-5.103 13.541 13.541-5.101 11.485c3.368 5.469 5.845 11.437 7.331 17.686l11.722 4.512v19.15l-11.724 4.513c-1.486 6.247-3.963 12.213-7.33 17.681l5.103 11.489-13.541 13.541-11.485-5.101c-5.469 3.368-11.437 5.844-17.685 7.331l-4.512 11.721h-19.15l-4.513-11.724c-6.247-1.486-12.213-3.963-17.681-7.33l-11.489 5.103-13.541-13.541 5.101-11.485c-3.368-5.469-5.844-11.438-7.331-17.685l-11.721-4.512v-19.15l11.723-4.513c1.487-6.247 3.963-12.214 7.33-17.682l-5.102-11.488 13.541-13.541 11.489 5.103c5.468-3.367 11.434-5.843 17.681-7.33l4.513-11.724h19.149z" fill="#ffe177"/><path d="m393.481 196.388-11.489 5.103-1.769-1.769 10.772-4.784c.817.503 1.647.987 2.486 1.45zm45.856-110.721c6.247 1.486 12.213 3.963 17.681 7.33l-3.266 1.451c-5.468-3.367-13.92-7.294-20.167-8.78l-4.513-11.724h5.752zm17.684 110.723c-5.469 3.368-11.437 5.844-17.685 7.331l-4.512 11.721h-5.752l4.512-11.721c6.248-1.487 14.703-5.414 20.172-8.782zm-76.798-106.727 1.769-1.769 11.489 5.103c-.839.463-1.668.947-2.486 1.451zm84.3 0 3.983-1.769 13.541 13.541-5.101 11.485c3.368 5.469 5.845 11.437 7.331 17.686l11.722 4.512v19.15l-11.724 4.513c-1.486 6.247-3.963 12.213-7.33 17.681l5.103 11.489-13.541 13.541-3.983-1.769 11.772-11.772-5.103-11.489c3.366-5.468 5.843-11.434 7.33-17.681l11.724-4.513v-19.15l-11.721-4.512c-1.487-6.248-3.963-12.217-7.331-17.686l5.101-11.485z" fill="#ffd064"/><ellipse cx="425.249" cy="144.693" fill="#eceff1" rx="33.395" ry="33.395" transform="matrix(.383 -.924 .924 .383 128.835 482.2)"/><path d="m425.249 111.298c-18.445 0-33.395 14.95-33.395 33.395s14.95 33.395 33.395 33.395c.894 0 1.78-.036 2.656-.105-17.203-1.354-30.739-15.739-30.739-33.29s13.536-31.937 30.739-33.29c-.876-.069-1.762-.105-2.656-.105z" fill="#d1d1d6"/></g></g></svg>