<svg height="512" viewBox="0 0 64 64" width="512" xmlns="http://www.w3.org/2000/svg"><g id="Flat"><g id="Color_copy" data-name="Color copy"><path d="m18 44h8a6 6 0 0 1 6 6v11a0 0 0 0 1 0 0h-20a0 0 0 0 1 0 0v-11a6 6 0 0 1 6-6z" fill="#00b4d8"/><g fill="#0096c7"><path d="m23 46v-2h-4v2a2 2 0 0 0 .924 1.682l-.924 8.318 2 2 2-2-.924-8.318a2 2 0 0 0 .924-1.682z"/><path d="m32 57v4h-20v-11a5.981 5.981 0 0 1 4-5.65v.65a12 12 0 0 0 12 12z"/><path d="m28 49a0 0 0 0 1 0 0v11a0 0 0 0 1 0 0h-2a0 0 0 0 1 0 0v-9a2 2 0 0 1 2-2z"/></g><path d="m19 42h6v2h-6z" fill="#efad1b"/><path d="m24 56-2 2-2-2 1-9h2z" fill="#ef5350"/><path d="m14 31h10a3 3 0 0 1 3 3v1a0 0 0 0 1 0 0h-10a3 3 0 0 1 -3-3v-1a0 0 0 0 1 0 0z" fill="#00b4d8"/><path d="m17 35h10a0 0 0 0 1 0 0v4a5 5 0 0 1 -5 5 5 5 0 0 1 -5-5v-4a0 0 0 0 1 0 0z" fill="#fcea42"/><path d="m27 34v1h-10a3 3 0 0 1 -3-3v-1h1.18a2.968 2.968 0 0 0 2.82 2h8.82a2.772 2.772 0 0 1 .18 1z" fill="#0096c7"/><path d="m19 37a5 5 0 0 0 5 5 4.935 4.935 0 0 0 2.39-.61 5 5 0 0 1 -9.39-2.39v-4h10v1h-7a1 1 0 0 0 -1 1z" fill="#fdc741"/><path d="m24 56-2 2-2-2 1-9h2l.18 1.61a1.944 1.944 0 0 1 -1.18.39c-.11 0-.22-.02-.33-.03l-.57 5.12a1.93 1.93 0 0 0 .55 1.56 1.883 1.883 0 0 0 2.34.27z" fill="#e53935"/><path d="m20 44h4a0 0 0 0 1 0 0v2a2 2 0 0 1 -2 2 2 2 0 0 1 -2-2v-2a0 0 0 0 1 0 0z" fill="#ff7373"/><path d="m23.82 46.82a2 2 0 0 1 -3.82-.82v-2h1v1a2.006 2.006 0 0 0 2 2 1.891 1.891 0 0 0 .82-.18z" fill="#ef5350"/><path d="m44 45h4v3h-4z" fill="#e59730"/><path d="m42 38h8a0 0 0 0 1 0 0v5a4 4 0 0 1 -4 4 4 4 0 0 1 -4-4v-5a0 0 0 0 1 0 0z" fill="#fcea42"/><path d="m42 47h8a5 5 0 0 1 5 5v9a0 0 0 0 1 0 0h-18a0 0 0 0 1 0 0v-9a5 5 0 0 1 5-5z" fill="#00b4d8"/><path d="m50 38v5a3.866 3.866 0 0 1 -.03.48 3.994 3.994 0 0 1 -1.97.52h-2.82a3.981 3.981 0 0 0 3.21 1.64 3.522 3.522 0 0 0 .66-.06 4 4 0 0 1 -7.05-2.58v-5z" fill="#fdc741"/><path d="m40 35h8a4 4 0 0 1 4 4 4 4 0 0 1 -4 4h-4a4 4 0 0 1 -4-4v-4a0 0 0 0 1 0 0z" fill="#00b4d8"/><path d="m52 39a3.995 3.995 0 0 1 -4 4h-4a4 4 0 0 1 -4-4v-4h2a4 4 0 0 0 4 4h4a3.956 3.956 0 0 0 1.96-.52 2.961 2.961 0 0 1 .04.52z" fill="#0096c7"/><path d="m51 58v-3a2 2 0 0 0 -2 2v1a8 8 0 0 1 -8-8v-2.9a5 5 0 0 0 -4 4.9v9h18v-3z" fill="#0096c7"/><path d="m33 3h-18a4 4 0 0 0 -4 4v11a4 4 0 0 0 4 4h2l3 5 3-5h10a4 4 0 0 0 4-4v-11a4 4 0 0 0 -4-4z" fill="#ade8f4"/><path d="m31.09 15h-4.09a12 12 0 0 1 -12-12 4 4 0 0 0 -4 4v11a4 4 0 0 0 4 4h2l3 5 3-5h10a4 4 0 0 0 4-4v-8a6 6 0 0 0 -5.91 5z" fill="#48cae4"/><path d="m33 10h-5a1 1 0 0 1 0-2h5a1 1 0 0 1 0 2z" fill="#fcea42"/><path d="m30 14h-4a1 1 0 0 1 0-2h4a1 1 0 0 1 0 2z" fill="#fcea42"/><path d="m29 18h-4a1 1 0 0 1 0-2h4a1 1 0 0 1 0 2z" fill="#fdc741"/><path d="m17 15.893a2.075 2.075 0 0 0 1.664 2.08 2 2 0 0 0 2.336-1.973v-2h-4z" fill="#00b4d8"/><path d="m21.53 11.6a2.946 2.946 0 0 0 .47-1.6 3 3 0 0 0 -5.953-.533 2.961 2.961 0 0 0 .471 2.2 2.506 2.506 0 0 1 .482 1.411v.922h4v-.8a2.99 2.99 0 0 1 .53-1.6z" fill="#fffa48"/><path d="m21.31 11.98a2.725 2.725 0 0 0 -.31 1.22v.8h-4v-.92a2.493 2.493 0 0 0 -.48-1.41 2.916 2.916 0 0 1 -.47-2.2 2.976 2.976 0 0 1 .96-1.7 1.77 1.77 0 0 0 -.01.23 4 4 0 0 0 4 4 1.615 1.615 0 0 0 .31-.02z" fill="#fcea42"/><path d="m21 14v2h-1a2 2 0 0 0 -1.98 1.73 2.12 2.12 0 0 1 -1.02-1.84v-1.89z" fill="#0096c7"/><path d="m21 13.4v.6h-4v-.92a2.493 2.493 0 0 0 -.48-1.41 2.916 2.916 0 0 1 -.47-2.2 2.79 2.79 0 0 1 .32-.89 12.13 12.13 0 0 0 4.63 4.82z" fill="#fdc741"/><path d="m21 15h-4a1 1 0 0 1 0-2h4a1 1 0 0 1 0 2z" fill="#48cae4"/><path d="m22 14a1 1 0 0 1 -1 1h-4a1 1 0 0 1 0-2h3.37a10.691 10.691 0 0 0 1.62.91.277.277 0 0 1 .01.09z" fill="#00b4d8"/><path d="m56 17a12 12 0 1 0 -12 12c.329 0 .653-.023.975-.049l3.025 5.049 1.647-6.413a12 12 0 0 0 6.353-10.587z" fill="#ff7373"/><path d="m55.06 21.66a12.019 12.019 0 0 1 -5.41 5.93l-1.65 6.41-3.02-5.05c-.33.03-.65.05-.98.05a12 12 0 0 1 -5.93-22.44 13.617 13.617 0 0 0 -.07 1.44 13.994 13.994 0 0 0 17.06 13.66z" fill="#e53935"/><circle cx="44" cy="17" fill="#48cae4" r="8"/><path d="m50.32 21.9a8 8 0 1 1 -11.93-10.61 14.017 14.017 0 0 0 11.93 10.61z" fill="#00b4d8"/><circle cx="44" cy="17" fill="#ff7373" r="4"/><path d="m45.81 20.56a3.989 3.989 0 0 1 -5.81-3.56 3.775 3.775 0 0 1 .26-1.39 13.963 13.963 0 0 0 5.55 4.95z" fill="#e53935"/><path d="m56 6h-1v-1a1 1 0 0 0 -2 0v1.655a.97.97 0 0 0 -.207.138l-9.5 9.5a1 1 0 1 0 1.414 1.414l9.5-9.5a.97.97 0 0 0 .138-.207h1.655a1 1 0 0 0 0-2z" fill="#fcea42"/></g></g></svg>