<svg height="512" viewBox="0 0 64 64" width="512" xmlns="http://www.w3.org/2000/svg"><g id="g"><g><path d="m32 60 25-11v-34l-25-11-25 11v34z" fill="#1b498f"/><path d="m11 46.913v-28.958l21-9.087 21 9.087v28.958l-21 9.087z" fill="#32addb"/><path d="m60 1-3 4 3 4 3-4z" fill="#9e4da1"/><path d="m4 55-3 4 3 4 3-4z" fill="#9e4da1"/><path d="m46 22h-28v2h7.078c-4.869 3.223-6.575 9.445-7.058 11.799l1.959.402c.587-2.862 3.19-12.201 12.021-12.201s11.433 9.339 12.021 12.201l1.959-.402c-.483-2.353-2.189-8.576-7.058-11.799h7.078z" fill="#2564c4"/><g><path d="m35 42.565 3-6-6-10-6 10 3 6z" fill="#f8ead3"/><path d="m29 54.702 3 1.298 3-1.298v-12.137h-6z" fill="#407ad6"/><path d="m29 42.565h6v4h-6z" fill="#71d6fc"/><g fill="#c7bda9"><path d="m32 26.565-1 1.667v8.333h2v-8.333z"/><path d="m31 37.565h2v2h-2z"/></g></g><g fill="#32addb"><path d="m3 3h2v2h-2z"/><path d="m9 3h2v2h-2z"/><path d="m6 7h2v2h-2z"/></g><g fill="#32addb"><path d="m53 55h2v2h-2z"/><path d="m59 55h2v2h-2z"/><path d="m56 59h2v2h-2z"/></g><g fill="#f8ead3"><path d="m17 35h4v4h-4z"/><path d="m43 35h4v4h-4z"/><path d="m45 21h4v4h-4z"/><path d="m15 21h4v4h-4z"/></g></g></g></svg>