<svg id="Icon_Set" enable-background="new 0 0 64 64" height="512" viewBox="0 0 64 64" width="512" xmlns="http://www.w3.org/2000/svg"><path d="m33 32.5h-2c-.276 0-.5-.224-.5-.5s.224-.5.5-.5h2c.276 0 .5.224.5.5s-.224.5-.5.5z" fill="#212a41"/><path d="m33 33.5c-.128 0-.256-.049-.354-.146l-2-2c-.195-.195-.195-.512 0-.707s.512-.195.707 0l2 2c.195.195.195.512 0 .707-.097.097-.225.146-.353.146z" fill="#212a41"/><path d="m31 33.5c-.128 0-.256-.049-.354-.146-.195-.195-.195-.512 0-.707l2-2c.195-.195.512-.195.707 0s.195.512 0 .707l-2 2c-.097.097-.225.146-.353.146z" fill="#212a41"/><path d="m4 54v-40h53v40c0 1.105-.895 2-2 2h-49c-1.105 0-2-.895-2-2z" fill="#99a2b9"/><path d="m55 56.5h-49c-1.379 0-2.5-1.122-2.5-2.5v-40c0-.276.224-.5.5-.5h53c.276 0 .5.224.5.5v40c0 1.378-1.121 2.5-2.5 2.5zm-50.5-42v39.5c0 .827.673 1.5 1.5 1.5h49c.827 0 1.5-.673 1.5-1.5v-39.5z" fill="#212a41"/><path d="m7 54v-40h53v40c0 1.105-.895 2-2 2h-49c-1.105 0-2-.895-2-2z" fill="#b7c0d7"/><path d="m58 56.5h-49c-1.379 0-2.5-1.122-2.5-2.5v-40c0-.276.224-.5.5-.5h53c.276 0 .5.224.5.5v40c0 1.378-1.121 2.5-2.5 2.5zm-50.5-42v39.5c0 .827.673 1.5 1.5 1.5h49c.827 0 1.5-.673 1.5-1.5v-39.5z" fill="#212a41"/><circle cx="33.5" cy="35" fill="#f9ac2f" r="15"/><g fill="#212a41"><path d="m33.5 50.5c-8.547 0-15.5-6.953-15.5-15.5s6.953-15.5 15.5-15.5 15.5 6.953 15.5 15.5-6.953 15.5-15.5 15.5zm0-30c-7.995 0-14.5 6.505-14.5 14.5s6.505 14.5 14.5 14.5 14.5-6.505 14.5-14.5-6.505-14.5-14.5-14.5z"/><path d="m50 22h-3c-.276 0-.5-.224-.5-.5v-3c0-.276.224-.5.5-.5h3c.276 0 .5.224.5.5v3c0 .276-.224.5-.5.5zm-2.5-1h2v-2h-2z"/><path d="m20 22h-3c-.276 0-.5-.224-.5-.5v-3c0-.276.224-.5.5-.5h3c.276 0 .5.224.5.5v3c0 .276-.224.5-.5.5zm-2.5-1h2v-2h-2z"/><path d="m50 52h-3c-.276 0-.5-.224-.5-.5v-3c0-.276.224-.5.5-.5h3c.276 0 .5.224.5.5v3c0 .276-.224.5-.5.5zm-2.5-1h2v-2h-2z"/><path d="m20 52h-3c-.276 0-.5-.224-.5-.5v-3c0-.276.224-.5.5-.5h3c.276 0 .5.224.5.5v3c0 .276-.224.5-.5.5zm-2.5-1h2v-2h-2z"/><path d="m47 50.5h-27c-.276 0-.5-.224-.5-.5v-1h-1c-.276 0-.5-.224-.5-.5v-27c0-.276.224-.5.5-.5h1v-1c0-.276.224-.5.5-.5h27c.276 0 .5.224.5.5v1h1c.276 0 .5.224.5.5v27c0 .276-.224.5-.5.5h-1v1c0 .276-.224.5-.5.5zm-26.5-1h26v-1c0-.276.224-.5.5-.5h1v-26h-1c-.276 0-.5-.224-.5-.5v-1h-26v1c0 .276-.224.5-.5.5h-1v26h1c.276 0 .5.224.5.5z"/></g><path d="m55 8h-49c-1.105 0-2 .895-2 2v4h53v-4c0-1.105-.895-2-2-2z" fill="#c2c2c2"/><path d="m57 14.5h-53c-.276 0-.5-.224-.5-.5v-4c0-1.378 1.121-2.5 2.5-2.5h49c1.379 0 2.5 1.122 2.5 2.5v4c0 .276-.224.5-.5.5zm-52.5-1h52v-3.5c0-.827-.673-1.5-1.5-1.5h-49c-.827 0-1.5.673-1.5 1.5z" fill="#212a41"/><path d="m58 54.5c-.276 0-.5-.224-.5-.5v-38c0-.276.224-.5.5-.5s.5.224.5.5v38c0 .276-.224.5-.5.5z" fill="#99a2b9"/><path d="m9 54.5c-.276 0-.5-.224-.5-.5v-38c0-.276.224-.5.5-.5s.5.224.5.5v38c0 .276-.224.5-.5.5z" fill="#d5def5"/><path d="m58 8h-49c-1.105 0-2 .895-2 2v4h53v-4c0-1.105-.895-2-2-2z" fill="#e0e0e0"/><path d="m60 14.5h-53c-.276 0-.5-.224-.5-.5v-4c0-1.378 1.121-2.5 2.5-2.5h49c1.379 0 2.5 1.122 2.5 2.5v4c0 .276-.224.5-.5.5zm-52.5-1h52v-3.5c0-.827-.673-1.5-1.5-1.5h-49c-.827 0-1.5.673-1.5 1.5z" fill="#212a41"/><path d="m36.682 31.111.707 3.535-4.243 4.243-3.535-.707-2.829-9.9z" fill="#e0e0e0"/><path d="m33.146 39.389c-.032 0-.065-.003-.098-.01l-3.535-.707c-.184-.037-.332-.173-.383-.353l-2.829-9.899c-.05-.174-.002-.362.127-.491.128-.128.314-.177.491-.127l9.899 2.828c.18.052.315.199.353.383l.707 3.536c.033.164-.019.333-.137.452l-4.241 4.242c-.095.094-.223.146-.354.146zm-3.137-1.638 2.974.595 3.863-3.864-.595-2.974-8.74-2.497z" fill="#212a41"/><path d="m33.682 36.182h6v4h-6z" fill="#6c696f" transform="matrix(.707 -.707 .707 .707 -16.255 37.121)"/><path d="m35.975 42.217c-.128 0-.256-.049-.354-.146l-2.828-2.828c-.195-.195-.195-.512 0-.707l4.242-4.243c.195-.195.512-.195.707 0l2.829 2.829c.094.094.146.221.146.354s-.053.26-.146.354l-4.243 4.242c-.098.096-.225.145-.353.145zm-2.121-3.328 2.121 2.121 3.536-3.535-2.122-2.122z" fill="#212a41"/><path d="m32.439 34.439c-.128 0-.256-.049-.354-.146l-5.657-5.657c-.195-.195-.195-.512 0-.707s.512-.195.707 0l5.657 5.657c.195.195.195.512 0 .707-.097.098-.225.146-.353.146z" fill="#212a41"/><path d="m52 11.5h-2c-.276 0-.5-.224-.5-.5s.224-.5.5-.5h2c.276 0 .5.224.5.5s-.224.5-.5.5z" fill="#212a41"/><path d="m57 12.5c-.128 0-.256-.049-.354-.146l-2-2c-.195-.195-.195-.512 0-.707s.512-.195.707 0l2 2c.195.195.195.512 0 .707-.097.097-.225.146-.353.146z" fill="#212a41"/><path d="m55 12.5c-.128 0-.256-.049-.354-.146-.195-.195-.195-.512 0-.707l2-2c.195-.195.512-.195.707 0s.195.512 0 .707l-2 2c-.097.097-.225.146-.353.146z" fill="#212a41"/></svg>