<?xml version="1.0" encoding="iso-8859-1"?>
<!-- Generator: Adobe Illustrator 21.0.0, SVG Export Plug-In . SVG Version: 6.00 Build 0)  -->
<svg xmlns="http://www.w3.org/2000/svg" xmlns:xlink="http://www.w3.org/1999/xlink" version="1.1" id="Capa_1" x="0px" y="0px" viewBox="0 0 511.922 511.922" style="enable-background:new 0 0 511.922 511.922;" xml:space="preserve" width="512" height="512">
<g>
	<g>
		<path style="fill:#66CBC4;" d="M447.917,460.245l-97.608-210.468c-0.893-1.925-2.514-3.417-4.506-4.146    c-1.993-0.729-4.192-0.639-6.118,0.254l-87.089,40.39c-4.008,1.859-5.75,6.615-3.892,10.623l97.608,210.468    c2.637,5.686,10.814,6.158,14.084,0.806l27.301-44.674l51.737,8.018C445.623,472.472,450.556,465.936,447.917,460.245z"/>
		<path style="fill:#66CBC4;" d="M259.327,286.275l-87.09-40.39c-1.926-0.894-4.126-0.985-6.118-0.254    c-1.992,0.729-3.613,2.221-4.505,4.146L64.005,460.245c-2.638,5.688,2.292,12.232,8.482,11.271l51.738-8.018l27.301,44.673    c3.27,5.351,11.446,4.882,14.083-0.806l97.609-210.468C265.077,292.89,263.335,288.134,259.327,286.275z"/>
		<g>
			<path style="fill:#00A99D;" d="M350.308,249.777c-0.893-1.925-2.514-3.417-4.506-4.146c-1.993-0.729-4.192-0.639-6.118,0.254     l-83.723,38.829l-83.724-38.829c-1.926-0.894-4.126-0.985-6.118-0.254c-1.992,0.729-3.613,2.221-4.505,4.146l-39.82,85.862     l3.326,5.762c4.528,7.841,12.205,13.418,21.059,15.299l29.825,6.339l24.665,17.92c5.503,4,12.009,6.115,18.813,6.115     c0.649,0,1.298-0.026,1.946-0.065l34.533-74.461l34.532,74.461c0.648,0.04,1.297,0.065,1.946,0.065     c6.804,0,13.31-2.114,18.809-6.111l24.669-17.923l29.824-6.339c8.86-1.883,16.538-7.462,21.061-15.301l3.327-5.761     L350.308,249.777z"/>
		</g>
		<path style="fill:#99DDD8;" d="M438.061,199.321l-10.999-33.851l3.721-35.398c0.237-2.255-0.494-4.504-2.011-6.189l-23.816-26.451    L393.957,63.58c-0.7-2.156-2.283-3.914-4.354-4.836l-32.516-14.478l-23.817-26.451c-1.518-1.685-3.678-2.647-5.945-2.647H291.73    L259.214,0.692c-2.071-0.922-4.436-0.923-6.508,0L220.19,15.169h-35.593c-2.267,0-4.428,0.962-5.945,2.647l-23.816,26.451    l-32.517,14.477c-2.071,0.922-3.654,2.68-4.354,4.836l-10.999,33.852l-23.816,26.451c-1.517,1.685-2.248,3.935-2.011,6.189    l3.72,35.399l-10.999,33.851c-0.701,2.156-0.454,4.509,0.68,6.472l17.797,30.825l3.721,35.399    c0.237,2.255,1.419,4.303,3.254,5.636l28.795,20.921l17.797,30.825c1.134,1.963,3.047,3.354,5.265,3.825l34.815,7.4l28.796,20.921    c1.834,1.333,4.15,1.825,6.365,1.353l34.816-7.4l34.815,7.4c0.551,0.117,1.108,0.175,1.663,0.175c1.675,0,3.324-0.526,4.702-1.528    l28.796-20.921l34.815-7.4c2.218-0.471,4.132-1.862,5.265-3.825l17.798-30.825l28.795-20.921c1.834-1.333,3.017-3.381,3.254-5.636    l3.721-35.399l17.797-30.825C438.514,203.83,438.761,201.478,438.061,199.321z"/>
		<path style="fill:#66CBC4;" d="M255.961,39.073c-78.299,0-142,63.701-142,142s63.701,142,142,142s142-63.701,142-142    S334.259,39.073,255.961,39.073z"/>
		<path style="fill:#33BAB1;" d="M281.961,308c-78.299,0-142-63.701-142-142c0-47.07,23.027-88.857,58.402-114.708    c-49.68,22.135-84.402,71.976-84.402,129.781c0,78.299,63.701,142,142,142c31.229,0,60.129-10.141,83.598-27.292    C321.945,303.629,302.455,308,281.961,308z"/>
	</g>
	<g>
		<g>
			<path style="fill:#876470;" d="M182.562,222.859l22.377-8.676c4.12-1.597,8.754,0.447,10.351,4.567l17.352,44.754     c1.597,4.12-0.447,8.754-4.567,10.351l-22.377,8.676c-4.12,1.597-8.754-0.447-10.351-4.567l-17.352-44.754     C176.398,229.09,178.442,224.456,182.562,222.859z"/>
			<path style="fill:#F0ECED;" d="M194.206,167.556l87.073-85.242c4.036-3.953,11.017-2.433,13.055,2.824l52.057,134.261     c2.037,5.254-2.087,11.085-7.739,10.887l-121.778-4.265c-3.198-0.112-6.022-2.119-7.179-5.103l-17.352-44.754     C191.186,173.181,191.919,169.794,194.206,167.556z"/>
			<path style="fill:#D2C5C9;" d="M208.204,203.658l121.778,4.265c5.652,0.198,9.776-5.633,7.739-10.887l8.671,22.363     c2.037,5.254-2.087,11.085-7.739,10.887l-121.778-4.265c-3.198-0.112-6.022-2.119-7.179-5.103l-8.671-22.363     C202.182,201.539,205.006,203.547,208.204,203.658z"/>
			<path style="fill:#FEE26A;" d="M167.074,177.382l27.971-10.845l23.136,59.672l-27.971,10.845     c-12.339,4.784-26.269-1.362-31.053-13.701l-5.784-14.918C148.59,196.096,154.736,182.166,167.074,177.382z"/>
			<path style="fill:#FDC942;" d="M181.535,214.677l27.971-10.845l8.676,22.377l-27.971,10.845     c-12.339,4.784-26.269-1.362-31.053-13.701l-5.784-14.918c-0.493-1.271-0.863-2.559-1.129-3.852     C158.124,214.461,170.467,218.968,181.535,214.677z"/>
		</g>
	</g>
</g>















</svg>
