<svg id="Layer_1" enable-background="new 0 0 512 512" height="512" viewBox="0 0 512 512" width="512" xmlns="http://www.w3.org/2000/svg"><g clip-rule="evenodd" fill-rule="evenodd"><g><path d="m163.344 239.948 86.98-85.915v-22.949h-222.491v22.95l86.98 85.915v55.845c0 1.853 1.874 3.097 3.582 2.378l43.37-18.278c.977-.412 1.578-1.317 1.578-2.378v-37.568z" fill="#ffe177"/><path d="m163.344 239.949 86.98-85.916v-22.949h-13.39v22.949l-86.98 85.916v37.567c0 1.06-.601 1.966-1.578 2.378l-33.562 14.145v1.755c0 1.854 1.874 3.098 3.582 2.378l43.369-18.278c.977-.412 1.578-1.317 1.578-2.378v-37.567z" fill="#ffd064"/><path d="m163.344 277.515v-37.567h-48.53v55.845c0 1.854 1.874 3.098 3.582 2.378l43.369-18.278c.978-.412 1.579-1.317 1.579-2.378z" fill="#ffd064"/><path d="m163.344 277.515v-37.567h-13.39v37.567c0 1.06-.601 1.966-1.578 2.378l-33.562 14.145v1.755c0 1.854 1.874 3.098 3.582 2.378l43.369-18.278c.978-.412 1.579-1.317 1.579-2.378z" fill="#ffc338"/><path d="m21.376 127.273h235.405c2.958 0 5.377 2.419 5.377 5.377v16.005c0 2.958-2.42 5.378-5.377 5.378h-235.405c-2.958 0-5.377-2.42-5.377-5.378v-16.005c0-2.957 2.42-5.377 5.377-5.377z" fill="#ffd064"/><path d="m253.558 127.273h3.224c2.957 0 5.377 2.42 5.377 5.377v16.005c0 2.958-2.42 5.377-5.377 5.377h-235.406c-2.958 0-5.377-2.42-5.377-5.377v-3.224h232.182c2.957 0 5.378-2.42 5.378-5.377v-12.781z" fill="#ffc338"/></g><g><path d="m19.733 107.272h74.587c2.037 0 3.544-1.845 3.138-3.841-3.836-18.821-20.479-32.984-40.432-32.984s-36.596 14.162-40.431 32.983c-.407 1.996 1.101 3.842 3.138 3.842z" fill="#8ac9fe"/><path d="m87.027 107.271h7.293c2.037 0 3.544-1.845 3.138-3.841-3.836-18.82-20.479-32.983-40.432-32.983-1.229 0-2.445.054-3.646.16 18.308 1.603 33.186 15.162 36.785 32.823.406 1.996-1.101 3.841-3.138 3.841z" fill="#60b7ff"/><path d="m57.026 18.721c11.522 0 20.863 9.341 20.863 20.863s-9.341 20.863-20.863 20.863-20.863-9.341-20.863-20.863 9.341-20.863 20.863-20.863z" fill="#f6dccd"/><path d="m57.026 18.721c11.522 0 20.863 9.341 20.863 20.863s-9.341 20.863-20.863 20.863c-.987 0-1.957-.07-2.907-.203 10.146-1.414 17.956-10.125 17.956-20.66 0-10.536-7.81-19.246-17.956-20.66.951-.133 1.921-.203 2.907-.203z" fill="#f1cbbc"/></g><g><path d="m101.785 107.272h74.587c2.037 0 3.544-1.845 3.138-3.841-3.835-18.821-20.478-32.983-40.431-32.983s-36.596 14.162-40.431 32.983c-.407 1.995 1.101 3.841 3.137 3.841z" fill="#8ac9fe"/><path d="m169.08 107.271h7.292c2.037 0 3.544-1.845 3.138-3.841-3.835-18.821-20.478-32.983-40.431-32.983-1.229 0-2.445.054-3.646.16 18.307 1.603 33.186 15.162 36.785 32.823.406 1.996-1.102 3.841-3.138 3.841z" fill="#60b7ff"/><path d="m139.079 18.721c11.522 0 20.863 9.341 20.863 20.863s-9.341 20.863-20.863 20.863-20.863-9.341-20.863-20.863 9.341-20.863 20.863-20.863z" fill="#f6dccd"/><path d="m139.079 18.721c11.522 0 20.863 9.341 20.863 20.863s-9.341 20.863-20.863 20.863c-.987 0-1.957-.07-2.907-.203 10.146-1.414 17.956-10.125 17.956-20.66 0-10.536-7.81-19.246-17.956-20.66.95-.133 1.92-.203 2.907-.203z" fill="#f1cbbc"/></g><g><path d="m183.839 107.272h74.587c2.037 0 3.544-1.845 3.138-3.841-3.835-18.821-20.478-32.983-40.431-32.983s-36.596 14.162-40.431 32.983c-.407 1.995 1.101 3.841 3.137 3.841z" fill="#8ac9fe"/><path d="m251.134 107.271h7.292c2.037 0 3.544-1.845 3.138-3.841-3.835-18.821-20.478-32.983-40.431-32.983-1.229 0-2.445.054-3.646.16 18.308 1.603 33.186 15.162 36.785 32.823.406 1.996-1.102 3.841-3.138 3.841z" fill="#60b7ff"/><path d="m221.133 18.721c11.522 0 20.863 9.341 20.863 20.863s-9.341 20.863-20.863 20.863-20.863-9.341-20.863-20.863 9.341-20.863 20.863-20.863z" fill="#f6dccd"/><path d="m221.133 18.721c11.522 0 20.863 9.341 20.863 20.863s-9.341 20.863-20.863 20.863c-.987 0-1.957-.07-2.907-.203 10.146-1.414 17.956-10.125 17.956-20.66 0-10.536-7.81-19.246-17.956-20.66.95-.133 1.92-.203 2.907-.203z" fill="#f1cbbc"/></g><g><path d="m145.216 407.308h24.066c5.713 0 10.373 4.66 10.373 10.373v65.224c0 5.713-4.66 10.373-10.373 10.373h-24.066c-5.713 0-10.373-4.66-10.373-10.373v-65.224c0-5.714 4.66-10.373 10.373-10.373z" fill="#fe646f"/><path d="m156.315 407.308h12.967c5.713 0 10.373 4.66 10.373 10.373v65.224c0 5.713-4.66 10.373-10.373 10.373h-12.967c5.714 0 10.373-4.66 10.373-10.373v-65.224c.001-5.714-4.659-10.373-10.373-10.373z" fill="#fd4755"/><path d="m240.663 331.703h24.066c5.714 0 10.373 4.66 10.373 10.373v140.83c0 5.713-4.659 10.373-10.373 10.373h-24.066c-5.713 0-10.373-4.66-10.373-10.373v-140.83c0-5.714 4.66-10.373 10.373-10.373z" fill="#ffe177"/><path d="m251.763 331.703h12.967c5.713 0 10.373 4.66 10.373 10.373v140.83c0 5.713-4.66 10.373-10.373 10.373h-12.967c5.713 0 10.373-4.66 10.373-10.373v-140.83c0-5.714-4.66-10.373-10.373-10.373z" fill="#ffd064"/><path d="m336.111 362.264h24.067c5.713 0 10.374 4.66 10.373 10.373v110.268c0 5.713-4.66 10.373-10.373 10.373-8.022 0-16.044 0-24.067 0-5.713 0-10.373-4.66-10.373-10.373 0-38.783 0-71.485 0-110.268-.001-5.712 4.659-10.373 10.373-10.373z" fill="#6cf5c2"/><path d="m347.21 362.264h12.967c5.713 0 10.374 4.661 10.373 10.374v110.268c.001 5.713-4.66 10.373-10.373 10.373h-12.967c5.713 0 10.373-4.66 10.373-10.373 0-38.783 0-71.485 0-110.268.001-5.713-4.659-10.374-10.373-10.374z" fill="#00e499"/><path d="m431.558 272.919h24.066c5.713 0 10.373 4.66 10.373 10.373v199.613c0 5.713-4.66 10.373-10.373 10.373h-24.066c-5.713 0-10.373-4.66-10.373-10.373v-199.613c0-5.713 4.66-10.373 10.373-10.373z" fill="#8ac9fe"/><path d="m442.658 272.919h12.967c5.714 0 10.373 4.66 10.373 10.373v199.613c0 5.713-4.66 10.373-10.373 10.373h-12.967c5.713 0 10.373-4.66 10.373-10.373v-199.613c0-5.713-4.66-10.373-10.373-10.373z" fill="#60b7ff"/><path d="m162.055 326.913c-3.503 2.658-8.498 1.972-11.156-1.531s-1.972-8.498 1.531-11.156l95.449-72.475c2.365-1.794 5.41-2.065 7.957-.973l.012-.027 90.731 39.015 67.43-61.345-14.952.055c-4.401 0-7.969-3.568-7.969-7.969s3.568-7.969 7.969-7.969l35.661-.13c4.401 0 7.969 3.568 7.969 7.969 0 .522-.051 1.033-.147 1.527l.022.004-6.916 34.985c-.846 4.332-5.043 7.158-9.375 6.312s-7.158-5.043-6.312-9.375l2.225-11.253-68.385 62.214c-2.245 2.246-5.716 3.023-8.812 1.693l-91.205-39.218z" fill="#9facba"/></g><g><ellipse cx="438.716" cy="122.923" fill="#ffc338" rx="57.285" ry="57.285" transform="matrix(.987 -.16 .16 .987 -14.025 71.862)"/><path d="m438.716 65.638c31.638 0 57.285 25.647 57.285 57.285s-25.647 57.285-57.285 57.285c-1.763 0-3.507-.084-5.229-.24 29.187-2.642 52.056-27.17 52.056-57.045s-22.87-54.404-52.056-57.045c1.722-.156 3.466-.24 5.229-.24z" fill="#f5b829"/><path d="m462.956 102.428c1.708 4.073-.208 8.76-4.281 10.469-4.073 1.708-8.76-.208-10.469-4.281-1.282-3.054-3.712-4.816-6.38-5.492-1.804-.457-3.679-.488-5.413-.139-1.639.33-3.131.983-4.276 1.914-1.225.996-2.002 2.421-1.917 4.175.07 1.455.867 2.477 1.98 3.204 2.04 1.332 5 2.096 7.851 2.564 4.784.785 10.029 2.11 14.493 4.805 5.396 3.258 9.468 8.173 10.387 15.748.066.541.108 1.234.128 2.066.167 7.029-3.022 12.254-7.817 15.892-3.067 2.327-6.766 3.901-10.525 4.797v1.023c0 4.418-3.582 8-8 8s-8-3.582-8-8v-1.189c-2.906-.781-5.668-1.992-8.131-3.632-4.78-3.183-8.444-7.887-9.996-14.113-1.053-4.28 1.564-8.603 5.844-9.656s8.604 1.564 9.656 5.844c.501 2.012 1.716 3.552 3.309 4.613 2.168 1.444 4.99 2.131 7.879 2.062.438-.01 1.044-.062 1.817-.156 2.476-.3 4.894-1.045 6.522-2.28.919-.698 1.532-1.639 1.504-2.83l-.065-.566c-.22-1.813-1.308-3.058-2.762-3.936-2.387-1.441-5.684-2.23-8.805-2.743-4.658-.765-9.743-2.176-13.976-4.939-5.16-3.368-8.868-8.364-9.23-15.829-.357-7.353 2.805-13.246 7.793-17.3 2.498-2.031 5.462-3.556 8.642-4.518v-1.331c0-4.418 3.582-8 8-8s8 3.582 8 8v1.227c6.823 2.009 12.948 6.692 16.238 14.527z" fill="#ffe177"/></g></g></svg>