<svg id="Layer_1" enable-background="new 0 0 66 66" height="512" viewBox="0 0 66 66" width="512" xmlns="http://www.w3.org/2000/svg"><g><g><g><path d="m30 38h8v4h-8z" fill="#e2e2e2"/></g><g><path d="m30 42h8v14h-8z" fill="#7cb5e8"/></g><g><path d="m42 28h8v4h-8z" fill="#e2e2e2"/></g><g><path d="m42 32h8v24h-8z" fill="#ffab03"/></g><g><path d="m54 18h8v4h-8z" fill="#e2e2e2"/></g><g><path d="m54 22h8v34h-8z" fill="#ef4a51"/></g><g opacity=".25"><path d="m58 47.46c0 1.64 1.33 2.98 2.98 2.98h1.02v-28.44h-4z" fill="#e2e2e2"/></g><g opacity=".25"><path d="m46 47.46c0 1.64 1.33 2.98 2.98 2.98h1.02v-18.44h-4z" fill="#fff"/></g><g opacity=".25"><path d="m34 47.46c0 1.64 1.33 2.98 2.98 2.98h1.02v-8.44h-4z" fill="#fff"/></g><g><path d="m34 18.18v-4.36l-3.18-.53c-.17-.56-.4-1.1-.67-1.61l1.87-2.62-3.09-3.09-2.62 1.87c-.51-.27-1.05-.5-1.61-.67l-.52-3.17h-4.36l-.53 3.18c-.56.17-1.1.4-1.61.67l-2.62-1.87-3.09 3.09 1.87 2.62c-.27.51-.5 1.05-.67 1.61l-3.17.52v4.36l3.18.53c.17.56.4 1.1.67 1.61l-1.87 2.62 3.09 3.09 2.62-1.87c.51.27 1.05.5 1.61.67l.52 3.17h4.36l.53-3.18c.56-.17 1.1-.4 1.61-.67l2.62 1.87 3.09-3.09-1.87-2.62c.27-.51.5-1.05.67-1.61zm-12 3.36c-3.06 0-5.54-2.48-5.54-5.54s2.48-5.54 5.54-5.54 5.54 2.48 5.54 5.54-2.48 5.54-5.54 5.54z" fill="#8aba55"/></g><g opacity=".2"><path d="m30.15 11.68 1.87-2.62-3.09-3.09-2.62 1.87c-.51-.27-1.05-.5-1.61-.67l-.52-3.17h-4.36l-.53 3.18c-.37.11-.72.26-1.07.41.03 1.34.27 2.62.69 3.81.88-.59 1.95-.94 3.09-.94 3.06 0 5.54 2.48 5.54 5.54 0 1.13-.34 2.18-.92 3.06 1.2.41 2.49.64 3.82.66.15-.33.28-.66.38-1.01l3.18-.53v-4.36l-3.18-.53c-.17-.56-.39-1.1-.67-1.61z" fill="#e2e2e2"/></g></g><g fill="#4e6575"><g><path d="m64 59.25h-57.25v-57.25c0-.41-.34-.75-.75-.75s-.75.34-.75.75v3.25h-3.25c-.41 0-.75.34-.75.75s.34.75.75.75h3.25v6.5h-3.25c-.41 0-.75.34-.75.75s.34.75.75.75h3.25v6.5h-3.25c-.41 0-.75.34-.75.75s.34.75.75.75h3.25v6.5h-3.25c-.41 0-.75.34-.75.75s.34.75.75.75h3.25v6.5h-3.25c-.41 0-.75.34-.75.75s.34.75.75.75h3.25v6.5h-3.25c-.41 0-.75.34-.75.75s.34.75.75.75h3.25v6.5h-3.25c-.41 0-.75.34-.75.75s.34.75.75.75h3.25v5.25c0 .41.34.75.75.75h4.25v3.25c0 .41.34.75.75.75s.75-.34.75-.75v-3.25h6.5v3.25c0 .41.34.75.75.75s.75-.34.75-.75v-3.25h6.5v3.25c0 .41.34.75.75.75s.75-.34.75-.75v-3.25h6.5v3.25c0 .41.34.75.75.75s.75-.34.75-.75v-3.25h6.5v3.25c0 .41.34.75.75.75s.75-.34.75-.75v-3.25h6.5v3.25c0 .41.34.75.75.75s.75-.34.75-.75v-3.25h6.5v3.25c0 .41.34.75.75.75s.75-.34.75-.75v-3.25h4.25c.41 0 .75-.34.75-.75s-.34-.75-.75-.75z"/><path d="m10 44.75h16c.41 0 .75-.34.75-.75s-.34-.75-.75-.75h-16c-.41 0-.75.34-.75.75s.34.75.75.75z"/><path d="m10 48.75h16c.41 0 .75-.34.75-.75s-.34-.75-.75-.75h-16c-.41 0-.75.34-.75.75s.34.75.75.75z"/><path d="m10 52.75h8c.41 0 .75-.34.75-.75s-.34-.75-.75-.75h-8c-.41 0-.75.34-.75.75s.34.75.75.75z"/></g><path d="m59 5.25h-6c-.41 0-.75.34-.75.75s.34.75.75.75h4.19l-15.72 15.72c-.29.29-.29.77 0 1.06.15.15.34.22.53.22s.38-.07.53-.22l15.72-15.72v4.19c0 .41.34.75.75.75s.75-.34.75-.75v-6c0-.41-.34-.75-.75-.75z"/></g></g></svg>