<svg height="512" viewBox="0 0 64 64" width="512" xmlns="http://www.w3.org/2000/svg"><g id="_19-Chevron" data-name="19-Chevron"><g fill="#ff636e"><path d="m20.85 50.15 2.79 2.21-10.64 10.64v-5z"/><path d="m16.4 46.6-7.4 7.4h-5l9.61-9.61z"/><path d="m51 58v5l-10.64-10.64 2.79-2.21z"/><path d="m60 54h-5l-7.4-7.4 2.79-2.21z"/></g><path d="m16.4 46.6 4.45 3.55-7.85 7.85v-4h-4z" fill="#ffb0b0"/><path d="m55 54h-4v4l-7.85-7.85 4.45-3.55z" fill="#ffb0b0"/><path d="m32 54 15.68-12.2a5.973 5.973 0 0 0 2.32-4.73v-24.07l-18-8-18 8v24.07a5.973 5.973 0 0 0 2.32 4.73zm18.39-9.61-2.79 2.21-4.45 3.55-2.79 2.21-8.36 6.64-8.36-6.64-2.79-2.21-4.45-3.55-2.79-2.21-.78-.62a6.894 6.894 0 0 1 -2.83-5.53v-28.07l22-9.17 22 9.17v28.07a6.894 6.894 0 0 1 -2.83 5.53z" fill="#dce1eb"/><path d="m50 13v24.07a5.973 5.973 0 0 1 -2.32 4.73l-15.68 12.2-15.68-12.2a5.973 5.973 0 0 1 -2.32-4.73v-24.07l18-8z" fill="#80dbff"/><path d="m16.32 41.8a5.973 5.973 0 0 1 -2.32-4.73v-24.07l18-8v-4l-22 9.17v28.07a6.894 6.894 0 0 0 2.83 5.53l.78.62 2.79 2.21 4.45 3.55 2.79 2.21 8.36 6.64v-5z" fill="#cdd2e1"/><path d="m20.85 50.15-2.717 2.717 2.889 2.111 2.618-2.618z" fill="#ff475a"/><path d="m16.4 46.6-2.79-2.21-2.988 2.988 2.889 2.111z" fill="#ff475a"/><path d="m43.15 50.15-2.79 2.21 2.618 2.618 2.889-2.111z" fill="#ff475a"/><path d="m53.378 47.378-2.988-2.988-2.79 2.21 2.889 2.889z" fill="#ff475a"/><path d="m18.133 52.867 2.717-2.717-4.45-3.55-2.889 2.889z" fill="#ff9696"/><path d="m50.489 49.489-2.889-2.889-4.45 3.55 2.717 2.717z" fill="#ff9696"/><path d="m32 5-18 8v1.111l16-7.111 18 8v24.07a5.973 5.973 0 0 1 -.932 3.206l.612-.476a5.973 5.973 0 0 0 2.32-4.73v-24.07z" fill="#96e8ff"/><path d="m32 54v-49l-18 8v24.07a5.973 5.973 0 0 0 2.32 4.73z" fill="#19cffc"/><path d="m32 8-18 8v-3l18-8z" fill="#4ab8f7"/><rect fill="#1ea1e3" height="2" rx="1" width="2" x="21" y="35"/><rect fill="#1ea1e3" height="2" rx="1" width="18" x="25" y="35"/><rect fill="#1ea1e3" height="2" rx="1" width="26" x="19" y="39"/><path d="m30.455 14.292-3.455.528 2.5 2.562-.59 3.618 3.09-1.708v-8.292z" fill="#fc9942"/><path d="m37 14.82-3.455-.528-1.545-3.292v8.292l3.09 1.708-.59-3.618z" fill="#ffac5a"/><path d="m39.455 25.292-3.455.528 2.5 2.562-.59 3.618 3.09-1.708v-8.292z" fill="#fc9942"/><path d="m46 25.82-3.455-.528-1.545-3.292v8.292l3.09 1.708-.59-3.618z" fill="#ffac5a"/><path d="m21.455 25.292-3.455.528 2.5 2.562-.59 3.618 3.09-1.708v-8.292z" fill="#fc9942"/><path d="m28 25.82-3.455-.528-1.545-3.292v8.292l3.09 1.708-.59-3.618z" fill="#ffac5a"/></g></svg>