<?xml version="1.0" encoding="iso-8859-1"?>
<!-- Generator: Adobe Illustrator 19.0.0, SVG Export Plug-In . SVG Version: 6.00 Build 0)  -->
<svg version="1.1" id="Layer_1" xmlns="http://www.w3.org/2000/svg" xmlns:xlink="http://www.w3.org/1999/xlink" x="0px" y="0px"
	 viewBox="0 0 512 512" style="enable-background:new 0 0 512 512;" xml:space="preserve">
<rect x="59.52" y="27.821" style="fill:#E6E5E5;" width="279.296" height="395.008"/>
<circle style="fill:#16C6CC;" cx="140.57" cy="306.636" r="16.128"/>
<circle style="fill:#F15424;" cx="199.168" cy="306.636" r="16.125"/>
<circle style="fill:#242D3C;" cx="257.766" cy="306.636" r="16.131"/>
<rect x="69.478" y="37.8" style="fill:#F15424;" width="259.354" height="18.616"/>
<polygon style="fill:#16C6CC;" points="199.165,198.895 144.212,253.856 254.121,253.856 "/>
<polygon style="fill:#F15424;" points="199.165,198.895 144.212,143.942 144.212,253.856 "/>
<g>
	<polygon style="fill:#242D3C;" points="144.212,143.942 199.165,198.895 254.121,253.856 254.121,143.942 	"/>
	<rect x="71.485" y="362.725" style="fill:#242D3C;" width="255.36" height="5.85"/>
	<rect x="71.485" y="375.807" style="fill:#242D3C;" width="255.36" height="5.852"/>
	<rect x="71.485" y="388.888" style="fill:#242D3C;" width="127.68" height="5.852"/>
	<rect x="135.132" y="65.238" style="fill:#242D3C;" width="128.179" height="5.852"/>
	<rect x="135.132" y="78.319" style="fill:#242D3C;" width="64.077" height="5.852"/>
</g>
<rect x="281.728" y="346.06" style="fill:#16C6CC;" width="230.195" height="138.115"/>
<polygon style="fill:#242D3C;" points="281.641,346.062 396.823,431.226 512,346.062 "/>
<polygon style="fill:#E6E5E5;" points="25.674,204.307 12.841,178.628 0,204.307 "/>
<g>
	<rect y="204.312" style="fill:#242D3C;" width="25.677" height="249.267"/>
	<polygon style="fill:#242D3C;" points="17.859,188.673 12.841,178.628 7.793,188.673 	"/>
</g>
<rect y="453.554" style="fill:#E6E5E5;" width="25.677" height="9.075"/>
<rect y="462.642" style="fill:#F15424;" width="25.677" height="21.537"/>
<rect x="375.117" y="216.728" style="fill:#E6E5E5;" width="136.883" height="91.254"/>
<polygon style="fill:#16C6CC;" points="443.561,262.342 425.308,280.593 461.814,280.593 "/>
<polygon style="fill:#F15424;" points="443.561,262.342 425.308,244.097 425.308,280.593 "/>
<polygon style="fill:#242D3C;" points="425.308,244.097 443.561,262.342 461.814,280.593 461.814,244.097 "/>
<path style="fill:#CCCBCA;" d="M512,103.22c0-35.069-28.426-63.521-63.516-63.521c-35.072,0-63.514,28.447-63.514,63.521
	c0,35.08,28.439,63.516,63.514,63.516C483.574,166.737,512,138.3,512,103.22z M438.635,103.22c0-5.455,4.411-9.856,9.851-9.856
	c5.453,0,9.869,4.406,9.874,9.856c-0.005,5.45-4.424,9.859-9.874,9.859C443.044,113.079,438.635,108.673,438.635,103.22z"/>
<path style="fill:#16C6CC;" d="M473.897,103.22c0-14.029-11.382-25.411-25.413-25.416c-14.039,0.005-25.393,11.387-25.4,25.416
	c0,14.034,11.372,25.405,25.4,25.4C462.52,128.628,473.897,117.262,473.897,103.22z M438.052,103.22
	c-0.008-5.77,4.672-10.44,10.432-10.435c5.778,0,10.452,4.662,10.452,10.435c0,5.778-4.68,10.447-10.452,10.44
	C442.724,113.66,438.044,108.998,438.052,103.22z"/>
<path style="fill:#242D3C;" d="M464.44,103.22c0.005-8.801-7.137-15.944-15.954-15.944c-8.801,0-15.944,7.142-15.944,15.944
	c-0.005,8.801,7.142,15.944,15.944,15.944C457.298,119.164,464.445,112.022,464.44,103.22z M438.635,103.22
	c0-5.455,4.411-9.856,9.851-9.856c5.453,0,9.869,4.406,9.874,9.856c-0.005,5.45-4.424,9.859-9.874,9.859
	C443.044,113.079,438.635,108.673,438.635,103.22z"/>
<rect x="297.677" y="27.821" style="fill:#F2F2F2;" width="150.804" height="150.807"/>
<circle style="fill:#16C6CC;" cx="313.421" cy="113.484" r="5.727"/>
<circle style="fill:#F15424;" cx="313.421" cy="134.271" r="5.727"/>
<path style="fill:#242D3C;" d="M313.423,160.782c-3.159,0-5.719-2.555-5.719-5.719c0-3.164,2.56-5.719,5.719-5.719
	c3.164,0,5.724,2.555,5.724,5.719C319.148,158.227,316.588,160.782,313.423,160.782z"/>
<g>
</g>
<g>
</g>
<g>
</g>
<g>
</g>
<g>
</g>
<g>
</g>
<g>
</g>
<g>
</g>
<g>
</g>
<g>
</g>
<g>
</g>
<g>
</g>
<g>
</g>
<g>
</g>
<g>
</g>
</svg>
