<svg xmlns="http://www.w3.org/2000/svg" width="256" height="256" xml:space="preserve"><g style="stroke:none;stroke-width:0;stroke-dasharray:none;stroke-linecap:butt;stroke-linejoin:miter;stroke-miterlimit:10;fill:none;fill-rule:nonzero;opacity:1"><path d="M69.098 89H8.442A7.442 7.442 0 0 1 1 81.558V8.442A7.442 7.442 0 0 1 8.442 1h73.115A7.442 7.442 0 0 1 89 8.442v60.656C89 80.09 80.09 89 69.098 89z" style="stroke:none;stroke-width:1;stroke-dasharray:none;stroke-linecap:butt;stroke-linejoin:miter;stroke-miterlimit:10;fill:#dcebf4;fill-rule:nonzero;opacity:1" transform="matrix(2.81 0 0 2.81 1.407 1.407)"/><path d="m61.381 51.08-11.384-3.479c-1.47-.449-2.845.926-2.396 2.396l3.479 11.384a10.46 10.46 0 0 0 2.61 4.344l21.708 21.708a5.35 5.35 0 0 0 7.565 0l4.47-4.47a5.35 5.35 0 0 0 0-7.565L65.725 53.69a10.46 10.46 0 0 0-4.344-2.61z" style="stroke:none;stroke-width:1;stroke-dasharray:none;stroke-linecap:butt;stroke-linejoin:miter;stroke-miterlimit:10;fill:#fff6a4;fill-rule:nonzero;opacity:1" transform="matrix(2.81 0 0 2.81 1.407 1.407)"/><path d="M63.409 90H8.08C3.625 90 0 86.375 0 81.92V8.08C0 3.625 3.625 0 8.08 0h73.84C86.375 0 90 3.625 90 8.08v57.44a1 1 0 1 1-2 0V8.08A6.088 6.088 0 0 0 81.92 2H8.08A6.088 6.088 0 0 0 2 8.08v73.84A6.088 6.088 0 0 0 8.08 88h55.329a1 1 0 1 1 0 2z" style="stroke:none;stroke-width:1;stroke-dasharray:none;stroke-linecap:butt;stroke-linejoin:miter;stroke-miterlimit:10;fill:#000;fill-rule:nonzero;opacity:1" transform="matrix(2.81 0 0 2.81 1.407 1.407)"/><path d="M79.181 89.997a6.33 6.33 0 0 1-4.489-1.856l-21.71-21.708a11.517 11.517 0 0 1-2.858-4.76l-3.479-11.384a2.91 2.91 0 0 1 .728-2.916 2.908 2.908 0 0 1 2.916-.728l11.384 3.479a11.528 11.528 0 0 1 4.76 2.858l21.708 21.709a6.355 6.355 0 0 1 0 8.979l-4.471 4.471a6.33 6.33 0 0 1-4.489 1.856zM49.425 48.515a.917.917 0 0 0-.638.272.898.898 0 0 0-.229.918l3.479 11.384a9.525 9.525 0 0 0 2.36 3.93l21.709 21.708a4.355 4.355 0 0 0 6.15 0l4.471-4.471a4.355 4.355 0 0 0 0-6.15l-21.708-21.71a9.515 9.515 0 0 0-3.93-2.36l-11.384-3.479a.976.976 0 0 0-.28-.042z" style="stroke:none;stroke-width:1;stroke-dasharray:none;stroke-linecap:butt;stroke-linejoin:miter;stroke-miterlimit:10;fill:#000;fill-rule:nonzero;opacity:1" transform="matrix(2.81 0 0 2.81 1.407 1.407)"/><path d="M70.886 83.922a.999.999 0 0 1-.707-1.707l12.036-12.036a.999.999 0 1 1 1.414 1.414L71.593 83.629a.999.999 0 0 1-.707.293zM72.719 22H17.281a1 1 0 0 1 0-2h55.438a1 1 0 1 1 0 2zM72.719 38H17.281a1 1 0 0 1 0-2h55.438a1 1 0 1 1 0 2zM32.719 54H17.281a1 1 0 1 1 0-2h15.438a1 1 0 1 1 0 2zM42.719 70H17.281a1 1 0 1 1 0-2h25.438a1 1 0 1 1 0 2z" style="stroke:none;stroke-width:1;stroke-dasharray:none;stroke-linecap:butt;stroke-linejoin:miter;stroke-miterlimit:10;fill:#000;fill-rule:nonzero;opacity:1" transform="matrix(2.81 0 0 2.81 1.407 1.407)"/></g></svg>