<svg id="Layer_1" enable-background="new 0 0 500 500" height="512" viewBox="0 0 500 500" width="512" xmlns="http://www.w3.org/2000/svg"><g><g><g id="XMLID_6_"><g id="XMLID_11_"><g><path id="XMLID_15_" d="m68.212 78.112h367.153v250.742h-367.153z" fill="#fccd47"/><path d="m414.947 78.112h20.418v250.742h-20.418z" fill="#e5b642"/></g><path id="XMLID_12_" d="m99.319 118.757h305.961v169.453h-305.961z" fill="#fff"/></g><ellipse cx="251.788" cy="308.714" fill="#fff" rx="8.057" ry="8.049"/><g><path d="m283.121 385.326v-56.471h-62.665v56.471h-.001l-71.034 40.319h204.735z" fill="#eee"/><path d="m283.121 328.855h-20.418v57.171c0 5.875 3.158 11.296 8.268 14.197l44.79 25.422h38.396l-71.036-40.32z" fill="#e0e0e0"/></g></g><g><g><g><path d="m129.184 0h245.209v44.372h-245.209z" fill="#00b0ff"/><path d="m352.953 0h21.439v44.372h-21.439z" fill="#00a4dd"/></g><g><path d="m129.184 44.372h245.209v243.833h-245.209z" fill="#f5f5f5"/><path d="m353.974 44.372h20.418v243.833h-20.418z" fill="#eee"/></g></g><g><g><path d="m159.835 213.598h40.868v74.608h-40.868z" fill="#ff5477"/><path d="m180.285 213.598h20.418v74.608h-20.418z" fill="#ea5075"/></g><g><path d="m231.354 193.151h40.868v95.055h-40.868z" fill="#00b0ff"/><path d="m251.804 193.151h20.418v95.055h-20.418z" fill="#00a4dd"/></g><g><path d="m302.874 172.704h40.868v115.501h-40.868z" fill="#24d38c"/><path d="m323.323 172.704h20.418v115.501h-20.418z" fill="#20b273"/></g></g><g fill="#fff"><ellipse cx="338.432" cy="22.35" rx="7.152" ry="7.156"/><ellipse cx="307.78" cy="22.35" rx="7.152" ry="7.156"/><ellipse cx="277.129" cy="22.35" rx="7.152" ry="7.156"/></g></g><path d="m333.036 74.034-22.512 2.972c-2.738.361-4.664 2.874-4.303 5.612s2.875 4.666 5.611 4.303l8.198-1.083-43.312 44.427-48.623-29.935c-1.931-1.19-4.421-.929-6.065.633l-55.836 53.049c-3.199 3.04-.99 8.626 3.445 8.626 1.236 0 2.476-.456 3.443-1.375l53.047-50.399 48.754 30.016c1.992 1.227 4.567.908 6.201-.767l45.686-46.86-1.002 7.611c-.349 2.652 1.529 5.168 4.169 5.588 2.743.437 5.382-1.526 5.745-4.284l2.965-22.525c.423-3.206-2.407-6.027-5.611-5.609z" fill="#e0e0e0"/></g><g><g><g><path d="m166.057 273.31c0-11.271-9.142-20.408-20.418-20.408h-119.221c-11.276 0-20.418 9.137-20.418 20.408v182.56h160.057z" fill="#f5f5f5"/><path d="m145.638 252.902h-1.021v202.968h21.439v-182.56c.001-11.271-9.141-20.408-20.418-20.408z" fill="#eee"/></g><g><path d="m6 455.87v20.629c0 11.271 9.142 20.408 20.418 20.408h119.22c11.277 0 20.418-9.137 20.418-20.408v-20.629z" fill="#00b0ff"/><path d="m143.597 455.87v20.629c0 11.271-9.142 20.408-20.418 20.408h22.46c11.277 0 20.418-9.137 20.418-20.408v-20.629z" fill="#00a4dd"/></g><g><path d="m118.095 286.805h-64.133c-4.593 0-8.651-2.992-10.006-7.379l-8.192-26.523h100.529l-8.192 26.523c-1.356 4.386-5.413 7.379-10.006 7.379z" fill="#00b0ff"/><path d="m115.874 252.902-8.192 26.523c-1.355 4.387-5.412 7.379-10.006 7.379h20.418c4.593 0 8.651-2.992 10.006-7.379l8.192-26.523z" fill="#00a4dd"/></g><path d="m93.12 482.218h-14.182c-2.761 0-5-2.239-5-5s2.239-5 5-5h14.182c2.761 0 5 2.239 5 5s-2.239 5-5 5z" fill="#e0e0e0"/></g><g><ellipse cx="86.028" cy="371.837" fill="#ff5477" rx="51.085" ry="51.117"/><g><path d="m71.98 397.396v-51.117l38.314 25.558z" fill="#fff"/><path d="m71.98 397.396v-51.117l38.314 25.558z" fill="none"/></g></g></g><g><g><path d="m353.31 446.283v53.717l41.847-53.703h75.268c13.02 0 23.576-10.568 23.576-23.605v-46.925c0-13.037-10.555-23.605-23.576-23.605h-135.395c-13.02 0-23.576 10.568-23.576 23.605v46.938c0 13.05 10.576 23.623 23.609 23.605z" fill="#24d38c"/><path d="m470.424 352.162h-.729v94.135h.729c13.02 0 23.576-10.568 23.576-23.605v-46.925c0-13.037-10.555-23.605-23.576-23.605z" fill="#20b273"/></g><g fill="#fff"><path d="m427.117 420.477h-67.413c-2.762 0-5-2.239-5-5s2.238-5 5-5h67.413c2.762 0 5 2.239 5 5s-2.238 5-5 5z"/><path d="m449.833 389.162h-90.129c-2.762 0-5-2.239-5-5s2.238-5 5-5h90.129c2.762 0 5 2.239 5 5s-2.238 5-5 5z"/></g></g></g></svg>