<svg height="512" viewBox="0 0 500 500" width="512" xmlns="http://www.w3.org/2000/svg"><path d="M68.212 78.112h367.153v250.742H68.212z" fill="#fccd47"/><path d="M414.947 78.112h20.418v250.742h-20.418z" fill="#e5b642"/><path d="M99.319 118.757H405.28V288.21H99.319z" fill="#fff"/><ellipse cx="251.788" cy="308.714" fill="#fff" rx="8.057" ry="8.049"/><path d="M283.121 385.326v-56.471h-62.665v56.471h-.001l-71.034 40.319h204.735z" fill="#eee"/><path d="M283.121 328.855h-20.418v57.171a16.326 16.326 0 0 0 8.268 14.197l44.79 25.422h38.396l-71.036-40.32z" fill="#e0e0e0"/><path d="M129.184 0h245.209v44.372H129.184z" fill="#00b0ff"/><path d="M352.953 0h21.439v44.372h-21.439z" fill="#00a4dd"/><path d="M129.184 44.372h245.209v243.833H129.184z" fill="#f5f5f5"/><path d="M353.974 44.372h20.418v243.833h-20.418z" fill="#eee"/><path d="M159.835 213.598h40.868v74.608h-40.868z" fill="#ff5477"/><path d="M180.285 213.598h20.418v74.608h-20.418z" fill="#ea5075"/><path d="M231.354 193.151h40.868v95.055h-40.868z" fill="#00b0ff"/><path d="M251.804 193.151h20.418v95.055h-20.418z" fill="#00a4dd"/><path d="M302.874 172.704h40.868v115.501h-40.868z" fill="#24d38c"/><path d="M323.323 172.704h20.418v115.501h-20.418z" fill="#20b273"/><g fill="#fff"><ellipse cx="338.432" cy="22.35" rx="7.152" ry="7.156"/><ellipse cx="307.78" cy="22.35" rx="7.152" ry="7.156"/><ellipse cx="277.129" cy="22.35" rx="7.152" ry="7.156"/></g><path d="m333.036 74.034-22.512 2.972a5 5 0 0 0 1.308 9.915l8.198-1.083-43.312 44.427-48.623-29.935a4.998 4.998 0 0 0-6.065.633l-55.836 53.049c-3.199 3.04-.99 8.626 3.445 8.626a4.984 4.984 0 0 0 3.443-1.375l53.047-50.399 48.754 30.016a4.999 4.999 0 0 0 6.201-.767l45.686-46.86-1.002 7.611c-.349 2.652 1.529 5.168 4.169 5.588 2.743.437 5.382-1.526 5.745-4.284l2.965-22.525c.423-3.206-2.407-6.027-5.611-5.609z" fill="#e0e0e0"/><path d="M166.057 273.31c0-11.271-9.142-20.408-20.418-20.408H26.418C15.142 252.902 6 262.039 6 273.31v182.56h160.057z" fill="#f5f5f5"/><path d="M145.638 252.902h-1.021V455.87h21.439V273.31c.001-11.271-9.141-20.408-20.418-20.408z" fill="#eee"/><path d="M6 455.87v20.629c0 11.271 9.142 20.408 20.418 20.408h119.22c11.277 0 20.418-9.137 20.418-20.408V455.87z" fill="#00b0ff"/><path d="M143.597 455.87v20.629c0 11.271-9.142 20.408-20.418 20.408h22.46c11.277 0 20.418-9.137 20.418-20.408V455.87z" fill="#00a4dd"/><path d="M118.095 286.805H53.962a10.472 10.472 0 0 1-10.006-7.379l-8.192-26.523h100.529l-8.192 26.523a10.474 10.474 0 0 1-10.006 7.379z" fill="#00b0ff"/><path d="m115.874 252.902-8.192 26.523a10.47 10.47 0 0 1-10.006 7.379h20.418c4.593 0 8.651-2.992 10.006-7.379l8.192-26.523z" fill="#00a4dd"/><path d="M93.12 482.218H78.938a5 5 0 0 1 0-10H93.12a5 5 0 0 1 0 10z" fill="#e0e0e0"/><ellipse cx="86.028" cy="371.837" fill="#ff5477" rx="51.085" ry="51.117"/><path d="M71.98 397.396v-51.117l38.314 25.558z" fill="#fff"/><path d="M71.98 397.396v-51.117l38.314 25.558z" fill="none"/><path d="M353.31 446.283V500l41.847-53.703h75.268c13.02 0 23.576-10.568 23.576-23.605v-46.925c0-13.037-10.555-23.605-23.576-23.605H335.03c-13.02 0-23.576 10.568-23.576 23.605v46.938c0 13.05 10.576 23.623 23.609 23.605z" fill="#24d38c"/><path d="M470.424 352.162h-.729v94.135h.729c13.02 0 23.576-10.568 23.576-23.605v-46.925c0-13.037-10.555-23.605-23.576-23.605z" fill="#20b273"/><g fill="#fff"><path d="M427.117 420.477h-67.413a5 5 0 1 1 0-10h67.413a5 5 0 1 1 0 10zM449.833 389.162h-90.129a5 5 0 1 1 0-10h90.129a5 5 0 1 1 0 10z"/></g></svg>