<svg height="512" width="512" xmlns="http://www.w3.org/2000/svg"><g fill="#3a4b56"><path d="M72.104 96.425a7.5 7.5 0 0 1-7.5-7.5V37.43a7.5 7.5 0 0 1 15 0v51.496a7.5 7.5 0 0 1-7.5 7.499zM440.041 96.425a7.5 7.5 0 0 1-7.5-7.5V37.43a7.5 7.5 0 0 1 15 0v51.496a7.5 7.5 0 0 1-7.5 7.499z"/></g><g fill="#f76ba0"><path d="M440.041 44.929c-12.407 0-22.5-10.077-22.5-22.463S427.634.003 440.041.003s22.5 10.077 22.5 22.463-10.093 22.463-22.5 22.463zM72.104 44.929c-12.407 0-22.5-10.077-22.5-22.463S59.697.003 72.104.003s22.5 10.077 22.5 22.463-10.094 22.463-22.5 22.463z"/></g><path d="M318.15 497.021h-124.3l10.8-33.999 12.71-39.988h77.28z" fill="#c8d9e2"/><path d="M318.15 497.021h-124.3l10.8-33.998h52.92c13.7 0 23.57-13.139 19.74-26.299l-3.98-13.689h21.31z" fill="#a1adb4"/><g fill="#3a4b56"><path d="M72.031 415.537a7.5 7.5 0 0 0-7.5 7.5v51.496a7.5 7.5 0 0 0 15 0v-51.496a7.5 7.5 0 0 0-7.5-7.5zM439.969 415.537a7.5 7.5 0 0 0-7.5 7.5v51.496a7.5 7.5 0 0 0 15 0v-51.496a7.5 7.5 0 0 0-7.5-7.5z"/></g><g fill="#f76ba0"><path d="M439.969 467.034c-12.407 0-22.5 10.077-22.5 22.463s10.093 22.463 22.5 22.463 22.5-10.077 22.5-22.463-10.094-22.463-22.5-22.463zM72.031 467.034c-12.407 0-22.5 10.077-22.5 22.463s10.093 22.463 22.5 22.463 22.5-10.077 22.5-22.463-10.093-22.463-22.5-22.463z"/></g><path d="M512 97.433v281.628l-21.53 2.52L256 409.051 0 379.061V97.433c0-11.86 9.66-21.51 21.53-21.51h468.94c11.87 0 21.53 9.65 21.53 21.51z" fill="#d0edf5"/><path d="M512 97.433v281.628l-21.53 2.52L256 409.051 0 379.061v-24.88h470.34c11.12 0 20.13-9.01 20.13-20.13V99.103c0-12.8-10.38-23.18-23.18-23.18h23.18c11.87 0 21.53 9.65 21.53 21.51z" fill="#a6dff5"/><path d="M512 379.056v29.969c0 11.86-9.66 21.509-21.53 21.509H21.53c-11.87 0-21.53-9.65-21.53-21.509v-29.969z" fill="#3a4b56"/><path d="M512 379.056v29.969c0 11.86-9.66 21.509-21.53 21.509H21.53c-11.87 0-21.53-9.65-21.53-21.509v-4.23h469.55c11.55 0 20.92-9.37 20.92-20.919v-4.82z" fill="#22323a"/><path d="M351 497.021c0 8.27-6.71 14.979-14.98 14.979H175.98c-4.14 0-7.88-1.68-10.59-4.39s-4.39-6.46-4.39-10.59c0-8.28 6.71-14.989 14.98-14.989h160.04c4.14 0 7.88 1.68 10.59 4.39s4.39 6.46 4.39 10.6z" fill="#3a4b56"/><path d="M351 497.021c0 8.27-6.71 14.979-14.98 14.979H175.98c-4.14 0-7.88-1.68-10.59-4.39s-4.39-6.46-4.39-10.59h160.03c8.28 0 14.99-6.71 14.99-14.989 4.14 0 7.88 1.68 10.59 4.39s4.39 6.46 4.39 10.6z" fill="#22323a"/><path d="M337.56 227.392v110.479c0 3.64-3.41 6.32-6.95 5.45l-14.46-3.55-28.63-7.02-30.11-27.38c-.88-.22-1.8-.22-2.68 0l-30.21 27.41-42.99 10.54c-3.53.87-6.95-1.81-6.95-5.45V227.392c0-3.11 2.52-5.62 5.62-5.62h151.75c3.1 0 5.61 2.51 5.61 5.62z" fill="#f76ba0"/><path d="M337.56 227.392v110.479c0 3.64-3.41 6.32-6.95 5.45l-14.46-3.55V221.772h15.8c3.1 0 5.61 2.51 5.61 5.62z" fill="#ce547e"/><path d="M287.52 221.772v110.979l-30.11-7.38c-.88-.22-1.8-.22-2.68 0l-30.21 7.41V221.772z" fill="#fff"/><path d="M390.42 152.412c3.29 7.44 7.02 15.86 4.71 24.51-2.27 8.53-9.65 13.93-16.16 18.7-4.09 2.99-8.31 6.09-10.09 9.16-1.64 2.84-2.18 7.87-2.7 12.74-.87 8.17-1.86 17.43-8.33 23.89-6.47 6.47-15.73 7.45-23.9 8.32-4.87.52-9.91 1.06-12.75 2.7-3.08 1.78-6.17 6-9.17 10.08-4.77 6.51-10.18 13.88-18.71 16.16-1.87.5-3.73.71-5.57.71-6.67 0-13.11-2.85-18.94-5.43-.8-.35-1.61-.71-2.41-1.06-3.78-1.63-7.49-3.05-10.33-3.05-3.43 0-8.16 2.09-12.73 4.11-7.44 3.29-15.87 7.02-24.52 4.72-8.53-2.28-13.93-9.65-18.71-16.16-2.99-4.08-6.09-8.3-9.16-10.08-2.85-1.64-7.88-2.18-12.75-2.7-8.18-.87-17.44-1.85-23.91-8.32-6.47-6.46-7.46-15.72-8.33-23.89-.52-4.87-1.05-9.9-2.7-12.74-1.77-3.07-6-6.17-10.08-9.16-6.51-4.77-13.89-10.18-16.17-18.7-2.31-8.65 1.42-17.07 4.72-24.51 2.02-4.57 4.11-9.29 4.11-12.72s-2.09-8.15-4.11-12.72c-3.3-7.44-7.03-15.86-4.72-24.51 2.28-8.52 9.66-13.93 16.17-18.7 4.08-2.99 8.31-6.09 10.08-9.16 1.65-2.84 2.18-7.87 2.7-12.74.87-8.17 1.86-17.43 8.33-23.89 6.47-6.47 15.73-7.45 23.91-8.32 4.87-.52 9.9-1.06 12.75-2.7 3.07-1.78 6.17-6 9.16-10.08 4.78-6.51 10.18-13.88 18.71-16.16 8.65-2.3 17.08 1.43 24.52 4.72 4.57 2.02 9.3 4.11 12.73 4.11 3.44 0 8.16-2.09 12.74-4.11 1.28-.56 2.58-1.14 3.91-1.7 6.42-2.69 13.43-4.93 20.6-3.02 8.53 2.28 13.94 9.65 18.71 16.16 3 4.08 6.09 8.3 9.17 10.08 2.84 1.64 7.88 2.18 12.75 2.7 8.17.87 17.43 1.85 23.9 8.32 6.47 6.46 7.46 15.72 8.33 23.89.52 4.87 1.06 9.9 2.7 12.74 1.78 3.07 6 6.17 10.09 9.16 3.25 2.38 6.73 4.93 9.67 7.94 2.94 3.02 5.36 6.5 6.49 10.76 2.31 8.65-1.42 17.08-4.71 24.51-2.03 4.57-4.12 9.29-4.12 12.72s2.09 8.15 4.12 12.72z" fill="#ffd469"/><path d="M390.42 152.412c3.29 7.44 7.02 15.86 4.71 24.51-2.27 8.53-9.65 13.93-16.16 18.7-4.09 2.99-8.31 6.09-10.09 9.16-1.64 2.84-2.18 7.87-2.7 12.74-.87 8.17-1.86 17.43-8.33 23.89-6.47 6.47-15.73 7.45-23.9 8.32-4.87.52-9.91 1.06-12.75 2.7-3.08 1.78-6.17 6-9.17 10.08-4.77 6.51-10.18 13.88-18.71 16.16-1.87.5-3.73.71-5.57.71-6.67 0-13.11-2.85-18.94-5.43-.8-.35-1.61-.71-2.41-1.06-.11-.18-.1-.28.05-.28 1.77 0 3.57-.21 5.37-.69 8.24-2.2 13.47-9.32 18.08-15.6 2.89-3.95 5.88-8.02 8.85-9.74 2.74-1.59 7.61-2.1 12.31-2.6 7.9-.85 16.84-1.8 23.09-8.04 6.25-6.25 7.2-15.19 8.05-23.08.5-4.7 1.01-9.56 2.6-12.3 1.72-2.97 5.8-5.96 9.74-8.85 6.29-4.61 13.42-9.83 15.62-18.06 2.23-8.35-1.38-16.49-4.56-23.67-1.95-4.42-3.97-8.98-3.97-12.29s2.02-7.87 3.97-12.28c3.18-7.19 6.79-15.33 4.56-23.68-1.1-4.11-3.43-7.48-6.28-10.39-2.84-2.91-6.2-5.36-9.34-7.67-3.94-2.89-8.02-5.88-9.74-8.85-1.59-2.74-2.1-7.6-2.6-12.3-.85-7.89-1.8-16.83-8.05-23.08-6.25-6.24-15.19-7.19-23.09-8.03-4.7-.51-9.57-1.02-12.31-2.61-2.97-1.72-5.96-5.79-8.85-9.74-4.44-6.05-9.45-12.87-17.18-15.33 6.42-2.69 13.43-4.93 20.6-3.02 8.53 2.28 13.94 9.65 18.71 16.16 3 4.08 6.09 8.3 9.17 10.08 2.84 1.64 7.88 2.18 12.75 2.7 8.17.87 17.43 1.85 23.9 8.32 6.47 6.46 7.46 15.72 8.33 23.89.52 4.87 1.06 9.9 2.7 12.74 1.78 3.07 6 6.17 10.09 9.16 3.25 2.38 6.73 4.93 9.67 7.94 2.94 3.02 5.36 6.5 6.49 10.76 2.31 8.65-1.42 17.08-4.71 24.51-2.03 4.57-4.12 9.29-4.12 12.72s2.09 8.15 4.12 12.72z" fill="#ffba4c"/><path d="M340.64 139.692c0 46.71-37.86 84.569-84.57 84.569-3.9 0-7.74-.26-11.5-.78-41.27-5.61-73.07-40.98-73.07-83.789s31.8-78.179 73.07-83.79c3.76-.52 7.6-.78 11.5-.78 46.71.001 84.57 37.861 84.57 84.57z" fill="#fff"/><path d="M340.64 139.692c0 46.71-37.86 84.569-84.57 84.569-3.9 0-7.74-.26-11.5-.78 41.27-5.61 73.07-40.98 73.07-83.789s-31.8-78.179-73.07-83.79c3.76-.52 7.6-.78 11.5-.78 46.71.001 84.57 37.861 84.57 84.57z" fill="#e4ebef"/><path d="M295.642 132.192h-7.608a32.675 32.675 0 0 0-4.085-9.828l5.383-5.38a7.5 7.5 0 0 0-10.603-10.61l-5.389 5.386a32.699 32.699 0 0 0-9.84-4.086v-7.598c0-4.142-3.357-7.5-7.5-7.5s-7.5 3.358-7.5 7.5v7.598a32.704 32.704 0 0 0-9.839 4.086l-5.389-5.386a7.5 7.5 0 0 0-10.606.003 7.5 7.5 0 0 0 .003 10.607l5.384 5.38a32.678 32.678 0 0 0-4.084 9.827h-7.609c-4.143 0-7.5 3.358-7.5 7.5s3.357 7.5 7.5 7.5h7.609a32.659 32.659 0 0 0 4.085 9.827l-5.384 5.38a7.498 7.498 0 0 0-.003 10.606 7.475 7.475 0 0 0 5.305 2.199 7.475 7.475 0 0 0 5.302-2.195l5.389-5.385a32.704 32.704 0 0 0 9.839 4.086v7.598c0 4.142 3.357 7.5 7.5 7.5s7.5-3.358 7.5-7.5v-7.598a32.72 32.72 0 0 0 9.84-4.086l5.389 5.385a7.48 7.48 0 0 0 5.302 2.195c1.92 0 3.841-.733 5.305-2.199a7.498 7.498 0 0 0-.003-10.606l-5.383-5.38a32.675 32.675 0 0 0 4.085-9.828h7.608a7.5 7.5 0 0 0 7.5-7.5 7.504 7.504 0 0 0-7.503-7.498zM256 157.573c-9.868 0-17.896-8.021-17.896-17.881s8.028-17.88 17.896-17.88c9.869 0 17.897 8.021 17.897 17.88s-8.028 17.881-17.897 17.881z" fill="#8c94cb"/></svg>