<svg viewBox="0 0 24 24" xmlns="http://www.w3.org/2000/svg" xmlns:xlink="http://www.w3.org/1999/xlink" width="25" height="25"><linearGradient id="c" gradientTransform="rotate(-45 32051.159 -83912.245) scale(31.584)" gradientUnits="userSpaceOnUse" x1="-1582" x2="-1581" y1="-1495.328" y2="-1495.328"><stop offset="0" stop-color="#c757bc"/><stop offset=".108" stop-color="#c757bc"/><stop offset=".173" stop-color="#cd5ca9"/><stop offset=".492" stop-color="#e8744f"/><stop offset=".716" stop-color="#f88316"/><stop offset=".823" stop-color="#ff8900"/><stop offset="1" stop-color="#ff8900"/></linearGradient><linearGradient id="a"><stop offset="0" stop-color="#00afff"/><stop offset=".296" stop-color="#00afff"/><stop offset=".694" stop-color="#5282ff"/><stop offset="1" stop-color="#945dff"/></linearGradient><linearGradient id="d" gradientTransform="rotate(-45 15635.387 -40897.94) scale(15.3946)" gradientUnits="userSpaceOnUse" x1="-1582" x2="-1581" xlink:href="#a" y1="-1494.622" y2="-1494.622"/><linearGradient id="e" gradientTransform="matrix(7.6364 -7.6366 7.6366 7.6364 23489.887 -665.412)" gradientUnits="userSpaceOnUse" x1="-1582" x2="-1581" xlink:href="#a" y1="-1494.036" y2="-1494.036"/><linearGradient id="f" gradientTransform="rotate(-45 32051.159 -83912.245) scale(31.584)" gradientUnits="userSpaceOnUse" x1="-1582" x2="-1581" y1="-1495.322" y2="-1495.322"><stop offset="0" stop-color="#ad4ca4"/><stop offset=".108" stop-color="#ad4ca4"/><stop offset=".173" stop-color="#b25093"/><stop offset=".492" stop-color="#ca6545"/><stop offset=".716" stop-color="#d87213"/><stop offset=".823" stop-color="#de7700"/><stop offset="1" stop-color="#de7700"/></linearGradient><linearGradient id="b"><stop offset="0" stop-color="#0098de"/><stop offset=".296" stop-color="#0098de"/><stop offset=".694" stop-color="#4771de"/><stop offset="1" stop-color="#8151de"/></linearGradient><linearGradient id="g" gradientTransform="rotate(-45 15635.387 -40897.94) scale(15.3946)" gradientUnits="userSpaceOnUse" x1="-1582" x2="-1581" xlink:href="#b" y1="-1494.622" y2="-1494.622"/><linearGradient id="h" gradientTransform="matrix(7.6364 -7.6366 7.6366 7.6364 23489.887 -665.412)" gradientUnits="userSpaceOnUse" x1="-1582" x2="-1581" xlink:href="#b" y1="-1493.643" y2="-1493.643"/><path d="M24 0H12.1L.6 12h11.3l.1-.1z" fill="url(#c)"/><path d="M24 24H0zM12 11.9l-.1.1h.1z" fill="url(#d)"/><path d="M12.1 0H0v12.7-.7h.6z" fill="url(#e)"/><path d="M12 12H.6l-.6.7V24z" fill="url(#f)"/><path d="M12.1 12H12L0 24h24z" fill="url(#g)"/><path d="M.6 12H0v.7z" fill="url(#h)"/></svg>