<svg height="512" viewBox="0 0 58 58" width="512" xmlns="http://www.w3.org/2000/svg"><g fill-rule="nonzero" fill="none"><path d="M40.51 24.1c6.073 9.45 4.046 21.957-4.7 29.005-8.747 7.049-21.4 6.37-29.343-1.572-7.942-7.943-8.62-20.596-1.572-29.342C11.943 13.444 24.45 11.417 33.9 17.49z" fill="#e64c3c"/><path d="M35.34 25.48c2.38 2.989 3.67 6.7 3.66 10.52a17.008 17.008 0 1 1-6.48-13.35z" fill="#f5efca"/><path d="M31.78 29.04a11.991 11.991 0 1 1-2.82-2.82z" fill="#e64c3c"/><path d="M28.16 32.66a6.98 6.98 0 1 1-2.82-2.82z" fill="#2c3e50"/><path d="m33.664 21.507.685-11.641a1 1 0 0 1 .291-.648L43.562.3a1 1 0 0 1 1.706.766l-1 9.84 2.832 2.823 9.84-1a1 1 0 0 1 .766 1.706l-8.924 8.925a1 1 0 0 1-.648.291l-11.641.685z" fill="#cf976a"/><path d="m20.586 34.586 25.5-25.5a2.088 2.088 0 0 1 2.653-.308A2.006 2.006 0 0 1 49 11.824l-25.59 25.59a2 2 0 0 1-2.828 0 2 2 0 0 1 .004-2.828z" fill="#805333"/></g></svg>