<svg id="Layer_1" enable-background="new 0 0 512 512" height="512" viewBox="0 0 512 512" width="512" xmlns="http://www.w3.org/2000/svg"><g><g><g><path d="m263.157 502h-190.414c-27.415 0-49.718-22.304-49.718-49.718v-392.564c0-27.414 22.304-49.718 49.718-49.718h190.414c27.415 0 49.718 22.304 49.718 49.718v20.182h-12v-20.182c0-20.798-16.92-37.718-37.718-37.718h-190.414c-20.798 0-37.718 16.92-37.718 37.718v392.564c0 20.798 16.92 37.718 37.718 37.718h190.414c20.798 0 37.718-16.92 37.718-37.718v-20.182h12v20.183c.001 27.413-22.303 49.717-49.718 49.717z" fill="#1a3b70"/></g><g><path d="m192.169 464.916h-41.439c-3.313 0-6-2.687-6-6s2.687-6 6-6h41.438c3.313 0 6 2.687 6 6s-2.686 6-5.999 6z" fill="#1a3b70"/></g><g><path d="m306.876 438.1c-6.305 0-12.675-.329-18.933-.979-12.08-1.256-21.301-10.577-22.425-22.669l-2.366-25.452c-.396-4.253-2.978-7.753-6.909-9.363-3.932-1.61-8.227-.928-11.491 1.827l-19.53 16.474c-9.282 7.831-22.392 8.008-31.881.431-10.254-8.186-19.647-17.502-27.918-27.688-7.656-9.43-7.585-22.542.172-31.888l16.319-19.664c2.728-3.287 3.376-7.589 1.735-11.507-1.641-3.917-5.162-6.472-9.418-6.833l-25.477-2.161c-12.109-1.028-21.505-10.181-22.85-22.258-.749-6.719-1.128-13.572-1.128-20.368 0-6.307.33-12.677.98-18.933 1.255-12.079 10.576-21.3 22.668-22.425l25.452-2.366c4.253-.395 7.753-2.978 9.363-6.908s.927-8.227-1.827-11.491l-16.474-19.529c-7.83-9.282-8.007-22.393-.431-31.882 8.185-10.253 17.5-19.646 27.689-27.918 9.429-7.656 22.542-7.585 31.888.171l19.664 16.32c3.288 2.729 7.588 3.376 11.506 1.735 3.917-1.642 6.472-5.162 6.833-9.418l2.162-25.479c1.027-12.108 10.18-21.504 22.257-22.849 12.961-1.444 26.3-1.501 39.301-.149 12.08 1.256 21.301 10.577 22.425 22.669l2.366 25.452c.396 4.253 2.978 7.753 6.909 9.363 3.932 1.61 8.227.927 11.491-1.827l19.53-16.474c9.283-7.83 22.393-8.007 31.881-.431 10.255 8.187 19.648 17.503 27.918 27.689 7.656 9.429 7.585 22.541-.172 31.887l-16.319 19.664c-2.728 3.287-3.376 7.589-1.735 11.507 1.641 3.917 5.162 6.471 9.417 6.832l25.479 2.162c12.108 1.028 21.504 10.181 22.85 22.258.749 6.721 1.128 13.573 1.128 20.368 0 6.305-.33 12.674-.979 18.933-1.255 12.079-10.577 21.3-22.668 22.425l-25.453 2.366c-4.253.395-7.753 2.978-9.363 6.908-1.61 3.932-.927 8.227 1.827 11.491l16.474 19.53c7.829 9.281 8.006 22.391.431 31.881-8.186 10.255-17.502 19.647-27.689 27.918-9.428 7.657-22.542 7.586-31.887-.171l-19.665-16.32c-3.286-2.728-7.587-3.374-11.506-1.735-3.917 1.642-6.472 5.162-6.833 9.418l-2.162 25.479c-1.027 12.108-10.179 21.504-22.258 22.849-6.721.748-13.574 1.128-20.368 1.128zm-54.883-71.306c2.964 0 5.949.57 8.798 1.737 8.022 3.285 13.505 10.702 14.31 19.356l2.366 25.452c.587 6.318 5.405 11.188 11.716 11.845 12.149 1.262 24.622 1.209 36.732-.14 6.311-.702 11.092-5.611 11.629-11.938l2.162-25.479c.735-8.66 6.158-16.121 14.153-19.47 7.997-3.35 17.118-1.983 23.806 3.568l19.665 16.32c4.882 4.053 11.734 4.09 16.66.089 9.52-7.729 18.226-16.505 25.875-26.088 3.958-4.958 3.865-11.809-.225-16.657l-16.474-19.53c-5.604-6.643-7.045-15.754-3.76-23.775 3.285-8.022 10.703-13.506 19.357-14.311l25.452-2.366c6.317-.587 11.188-5.405 11.844-11.716.607-5.848.915-11.8.915-17.692 0-6.353-.354-12.759-1.054-19.04-.703-6.31-5.612-11.092-11.939-11.629l-25.478-2.162c-8.66-.735-16.121-6.157-19.47-14.152-3.35-7.995-1.983-17.117 3.568-23.807l16.32-19.665c4.053-4.883 4.089-11.733.09-16.659-7.728-9.52-16.505-18.225-26.089-25.875-4.958-3.959-11.807-3.866-16.657.225l-19.53 16.474c-6.644 5.604-15.753 7.046-23.776 3.76-8.022-3.285-13.505-10.702-14.31-19.356l-2.366-25.452c-.587-6.318-5.405-11.188-11.716-11.845-12.15-1.262-24.622-1.211-36.732.14-6.311.702-11.092 5.611-11.629 11.938l-2.162 25.479c-.735 8.66-6.158 16.121-14.153 19.47-7.997 3.348-17.118 1.981-23.806-3.568l-19.665-16.32c-4.883-4.054-11.734-4.091-16.66-.089-9.521 7.729-18.227 16.507-25.875 26.088-3.959 4.958-3.866 11.809.225 16.657l16.474 19.529c5.604 6.645 7.045 15.755 3.76 23.777-3.285 8.021-10.703 13.505-19.357 14.31l-25.452 2.366c-6.318.587-11.188 5.404-11.844 11.716-.607 5.846-.916 11.799-.916 17.692 0 6.354.355 12.76 1.054 19.04.703 6.31 5.612 11.092 11.938 11.629l25.478 2.161c8.661.735 16.122 6.159 19.471 14.153 3.35 7.995 1.982 17.118-3.569 23.807l-16.32 19.665c-4.053 4.883-4.089 11.733-.09 16.659 7.729 9.521 16.506 18.226 26.089 25.875 4.958 3.959 11.808 3.866 16.657-.225l19.53-16.474c4.287-3.614 9.597-5.497 14.98-5.497z" fill="#1a3b70"/></g></g><g><g><path d="m306.876 341.05c-46.897 0-85.051-38.153-85.051-85.05s38.154-85.05 85.051-85.05c46.896 0 85.05 38.153 85.05 85.05s-38.154 85.05-85.05 85.05zm0-158.1c-40.28 0-73.051 32.77-73.051 73.05s32.771 73.05 73.051 73.05 73.05-32.77 73.05-73.05-32.77-73.05-73.05-73.05z" fill="#f88125"/></g><g><path d="m293.116 313.364c-.514 0-1.037-.066-1.557-.205-3.201-.858-5.101-4.148-4.243-7.349l27.526-102.727c.858-3.201 4.15-5.094 7.348-4.243 3.201.858 5.101 4.148 4.243 7.349l-27.526 102.727c-.717 2.681-3.142 4.448-5.791 4.448zm-17.959-30.853c-1.536 0-3.071-.586-4.243-1.758l-20.511-20.511c-2.343-2.343-2.343-6.142 0-8.484l20.511-20.511c2.343-2.344 6.142-2.344 8.485 0 2.343 2.343 2.343 6.142 0 8.484l-16.267 16.269 16.268 16.269c2.343 2.343 2.343 6.142 0 8.484-1.172 1.172-2.707 1.758-4.243 1.758zm63.437 0c-1.536 0-3.071-.586-4.243-1.758-2.343-2.343-2.343-6.142 0-8.484l16.268-16.269-16.268-16.269c-2.343-2.343-2.343-6.142 0-8.484 2.343-2.345 6.142-2.343 8.485 0l20.51 20.511c2.343 2.343 2.343 6.142 0 8.484l-20.51 20.511c-1.171 1.172-2.706 1.758-4.242 1.758z" fill="#f88125"/></g></g></g></svg>