<svg clip-rule="evenodd" fill-rule="evenodd" height="512" image-rendering="optimizeQuality" shape-rendering="geometricPrecision" text-rendering="geometricPrecision" viewBox="0 0 1.70666 1.70666" width="512" xmlns="http://www.w3.org/2000/svg"><g id="Layer_x0020_1"><path d="m.778547 1.41164.00083465-.00000394c-.00027559-.00001181-.00055512-.00001968-.00083465.00000394zm.891795-.217862h-1.63402-.0181693c-.0100276 0-.0181496.00812598-.0181496.0181535v.11015c0 .0694213.0564764.125882.125882.125882h.518315.0395354.0731772.036874.119075.0368465.0731772.0395551.518315c.0694331 0 .125886-.0564882.125894-.125882v-.109453-.00069685c0-.0100276-.00812598-.0181535-.0181535-.0181535h-.0181496zm-.742291.217854h.00004724c-.00001575 0-.0000315 0-.00004724 0z" fill="#666"/><g id="_291289416"><g><path id="_288092608" d="m.989972.703575c-.00374409 0-.00747244-.00117717-.0106772-.00348425l-.125984-.0915394-.126.0915394c-.00637008.00462992-.0149724.00462992-.0213465 0-.00637402-.00461417-.00902756-.0128031-.00659055-.0203031l.048122-.148114-.125984-.0915354c-.00637008-.00461417-.00902362-.0127992-.00658661-.0203031.00243701-.00747244.00940551-.0125354.0172677-.0125354l.155732-.00001181.0481181-.148094c.00243701-.00747638.00940551-.0125394.0172677-.0125394.00785433 0 .0148307.00506299.0172677.0125394l.048122.148094h.155752c.00787795 0 .0148543.00506693.0172677.0125394.00240945.00747244-.00023622.0156693-.00659055.0202992l-.12598.0915394.0481181.148114c.00243701.00747244-.00023622.0156693-.00659055.0202992-.00320472.0023189-.00694882.00349606-.0107047.00349606zm-.13665-.135606c.00374409 0 .00747244.00114567.0106772.00346457l.0914724.0664646-.0349409-.107524c-.00243701-.00747244.00023622-.015689.00659055-.0203268l.0914449-.0664449-.113035.00000787c-.00785433 0-.0148307-.00506299-.0172677-.0125354l-.0349409-.107524-.0349409.107524c-.00243701.00747244-.00940551.0125354-.0172677.0125354h-.113039l.0914724.0664449c.00635433.00461417.00902756.0128268.00659055.0203268l-.0349134.107524.0914724-.0664606c.00312205-.00233071.00687008-.00347638.010626-.00347638z" fill="#2b1330"/></g><g><path id="_288096856" d="m.853323.885122c-.220248 0-.399441-.179193-.399441-.399457 0-.220244.179193-.399437.399441-.399437.220244 0 .399437.179193.399437.399437-.00000787.220272-.179193.399457-.399437.399457zm0-.762563c-.200236 0-.363134.162882-.363134.363106s.162898.363134.363134.363134c.200232 0 .363106-.162902.363106-.363134s-.162882-.363106-.363106-.363106z" fill="#2b1330"/></g><g><g><path id="_288097864" d="m.733693 1.70212h-.170878c-.00609449 0-.0117992-.00305906-.0151654-.00814173-.00336614-.0051063-.00394488-.0115354-.00152362-.0171654l.108929-.254185c.00287008-.00666142.00943307-.0110118.016689-.0110118h.106803c.00537008 0 .0104606.00238976.0139291.0064685.00343701.00413386.00488976.00953543.00396063.0148307l-.0448504.254185c-.00153543.00869291-.00908268.0150197-.0178937.0150197zm-.143339-.0362756h.128102l.0384528-.217882h-.0731772l-.093378.217882z" fill="#2b1330"/></g><g><path id="_288106912" d="m1.14383 1.70212h-.170878c-.00881102 0-.0163543-.00632677-.0178898-.015l-.0448543-.254185c-.00092913-.00529921.00052362-.0106969.00399213-.0148307.00343701-.0041063.00852756-.00647244.0139016-.00647244h.106799c.00725591 0 .0138268.00435039.016689.0110118l.108949.254185c.00240945.00561417.00181496.0120591-.00152362.0171693-.00341339.00506299-.00909843.00812205-.015185.00812205zm-.155669-.0362756h.128106l-.0933819-.217882h-.0731772l.0384528.217882z" fill="#2b1330"/></g><g><path id="_288091816" d="m.972921 1.70212h-.239228c-.00537008 0-.0104606-.0023622-.0138976-.00647244-.0034685-.0041063-.00492126-.0095315-.00399213-.0148031l.0448543-.254201c.00152362-.00866535.00905118-.0150039.0178898-.0150039l.149504-.00000787c.00881102 0 .0163583.00632677.0178898.0150039l.0448543.254201c.00092913.00527953-.00050787.0106969-.00396457.0148031-.00344882.00411811-.00853937.00648031-.0139094.00648031zm-.217591-.0362756h.195957l-.0384528-.217882h-.119051l-.0384528.217882z" fill="#2b1330"/></g><g><path id="_288098680" d="m1.68849 1.23006h-1.67034c-.0100276 0-.0181496-.00812598-.0181496-.0181535v-.83639c0-.0694055.0564764-.125882.125882-.125882h.409583c.0100276 0 .0181535.00814173.0181535.0181693 0 .0100276-.00812598.0181535-.0181535.0181535l-.409583.00000787c-.0493937 0-.089563.0401929-.089563.0895866v.564035l.49022-.00000787c.0100276 0 .0181496.00814173.0181496.0181535 0 .0100276-.00812205.0181693-.0181496.0181693h-.49022v.217878h1.63402v-.290504h-.108933c-.0100276 0-.0181535-.00812598-.0181535-.0181535 0-.0100276.00812598-.0181693.0181535-.0181693h.108933v-.0544567h-.308634c-.0100276 0-.0181535-.00814173-.0181535-.0181693 0-.0100315.00812598-.0181535.0181535-.0181535h.308634v-.40063c0-.0493937-.0401693-.0895866-.089563-.0895866l-.409626.00000787c-.0100315 0-.0181535-.00812205-.0181535-.0181535 0-.0100276.00812205-.0181693.0181535-.0181693l.409626-.00000787c.0694252 0 .125882.0564764.125882.125882v.83639c-.00002362.0100551-.00814173.0181535-.0181693.0181535z" fill="#2b1330"/></g><g><path id="_288104608" d="m1.34353 1.08483h-1.10753c-.0100276 0-.0181535-.00814173-.0181535-.0181693 0-.0100276.00812598-.0181535.0181535-.0181535h1.10753c.0100276 0 .0181496.00812598.0181496.0181535 0 .0100276-.00812205.0181693-.0181496.0181693z" fill="#2b1330"/></g><g><path id="_288099760" d="m1.58075 1.44796h-1.45487c-.0694055 0-.125882-.0564606-.125882-.125882v-.11015c0-.0100276.00812205-.0181535.0181496-.0181535h1.67034c.0100276 0 .0181535.00812598.0181535.0181535v.11015c-.00000787.0693937-.0564606.125882-.125894.125882zm-1.54445-.217906v.0920157c0 .0493661.0401929.0895591.0895591.0895591l1.45487.00000787c.0493937 0 .0895591-.0401929.0895591-.0895591v-.0920157l-1.63399-.00000787z" fill="#2b1330"/></g><g><path id="_291294984" d="m.290476 1.66585c-.0500591 0-.0907756-.0407441-.0907756-.0907992 0-.0500512.0407441-.0907756.0907756-.0907756.0500354 0 .0907795.0407165.0907795.0907756 0 .050063-.0407165.0907992-.0907795.0907992zm0-.145252c-.0300394 0-.0544724.0244055-.0544724.0544528 0 .0300512.0244331.0544764.0544724.0544764.0300433 0 .0544764-.0244331.0544764-.0544764 0-.0300394-.0244252-.0544528-.0544764-.0544528z" fill="#2b1330"/></g><g><path id="_291298944" d="m.341307.200657c-.0380472 0-.069-.0309528-.069-.0690197 0-.0380433.0309528-.0689961.069-.0689961.0380433 0 .0689961.0309528.0689961.0689961.00001968.0380669-.0309331.0690197-.0689961.0690197zm0-.101693c-.0180079 0-.0326772.0146654-.0326772.0326732 0 .0180354.0146693.0326969.0326772.0326969.0180354 0 .0326929-.0146693.0326929-.0326969 0-.0180157-.0146693-.0326732-.0326929-.0326732z" fill="#2b1330"/></g><g><path id="_291296904" d="m1.44338.204256c-.0550709 0-.0998504-.0447795-.0998504-.0998504s.0447795-.099878.0998504-.099878c.0550512 0 .0998504.0448071.0998504.099878s-.0447992.0998504-.0998504.0998504zm0-.163378c-.0350315 0-.0635551.0284882-.0635551.0635551 0 .0350315.0284843.0635276.0635551.0635276.0350669 0 .0635551-.0284882.0635551-.0635276 0-.0350591-.0285157-.0635551-.0635551-.0635551z" fill="#2b1330"/></g></g></g><path d="m1.37983.104433c0 .0350315.0284843.0635276.0635551.0635276.0350669 0 .0635551-.0284882.0635551-.0635276 0-.0350591-.0285157-.0635551-.0635551-.0635551-.0350315 0-.0635551.0284882-.0635551.0635551z" fill="#efd9dc"/><path d="m1.21643.485665c0-.200232-.162882-.363106-.363106-.363106-.200236 0-.363134.162882-.363134.363106s.162898.363134.363134.363134c.200232 0 .363106-.162902.363106-.363134zm-.297728-.078378h.155752c.00787795 0 .0148543.00506693.0172677.0125394.00240945.00747244-.00023622.0156693-.00659055.0202992l-.12598.0915394.0481181.148114c.00243701.00747244-.00023622.0156693-.00659055.0202992-.00320472.0023189-.00694882.00349606-.0107047.00349606-.00374409 0-.00747244-.00117717-.0106772-.00348425l-.125984-.0915394-.126.0915394c-.00637008.00462992-.0149724.00462992-.0213465 0-.00637402-.00461417-.00902756-.0128031-.00659055-.0203031l.048122-.148114-.125984-.0915354c-.00637008-.00461417-.00902362-.0127992-.00658661-.0203031.00243701-.00747244.00940551-.0125354.0172677-.0125354l.155732-.00001181.0481181-.148094c.00243701-.00747638.00940551-.0125394.0172677-.0125394.00785433 0 .0148307.00506299.0172677.0125394l.048122.148094z" fill="#4cbadc"/><path d="m1.01857.443602-.113035.00000787c-.00785433 0-.0148307-.00506299-.0172677-.0125354l-.0349409-.107524-.0349409.107524c-.00243701.00747244-.00940551.0125354-.0172677.0125354h-.113039l.0914724.0664449c.00635433.00461417.00902756.0128268.00659055.0203268l-.0349134.107524.0914724-.0664606c.00312205-.00233071.00687008-.00347638.010626-.00347638.00374409 0 .00747244.00114567.0106772.00346457l.0914724.0664646-.0349409-.107524c-.00243701-.00747244.00023622-.015689.00659055-.0203268l.0914449-.0664449z" fill="#ffb300"/><path d="m.341307.164335c.0180354 0 .0326929-.0146693.0326929-.0326969 0-.0180157-.0146693-.0326732-.0326929-.0326732-.0180079 0-.0326772.0146654-.0326772.0326732 0 .0180354.0146693.0326969.0326772.0326969z" fill="#efd9dc"/><path d="m.507484.285957-.381602.00000787c-.0493937 0-.089563.0401929-.089563.0895866v.564035l.49022-.00000787c.0100276 0 .0181496.00814173.0181496.0181535 0 .0100276-.00812205.0181693-.0181496.0181693h-.49022v.217878h1.63402v-.290504h-.108933c-.0100276 0-.0181535-.00812598-.0181535-.0181535 0-.0100276.00812598-.0181693.0181535-.0181693h.108933v-.0544567h-.308634c-.0100276 0-.0181535-.00814173-.0181535-.0181693 0-.0100315.00812598-.0181535.0181535-.0181535h.308634v-.40063c0-.0493937-.0401693-.0895866-.089563-.0895866l-.381618.00000787c.0340748.0587835.0535984.127004.0535984.199701-.00000787.220272-.179193.399457-.399437.399457-.220248 0-.399441-.179193-.399441-.399457 0-.0726969.0195236-.140925.0536024-.199709zm-.27148.762551h1.10753c.0100276 0 .0181496.00812598.0181496.0181535 0 .0100276-.00812205.0181693-.0181496.0181693h-1.10753c-.0100276 0-.0181535-.00814173-.0181535-.0181693 0-.0100276.00812598-.0181535.0181535-.0181535z" fill="#fafafb"/><path d="m.344953 1.57505c0-.0300394-.0244252-.0544528-.0544764-.0544528-.0300394 0-.0544724.0244055-.0544724.0544528 0 .0300512.0244331.0544764.0544724.0544764.0300433 0 .0544764-.0244331.0544764-.0544764z" fill="#efd9dc"/><g fill="#666"><path d="m.683732 1.44796-.093378.21789h.128103l.038452-.21789z"/><path d="m.793783 1.44796-.038452.21789h.195956l-.038429-.21789z"/><path d="m.949705 1.44796.038452.21789h.128103l-.09338-.21789z"/></g></g></svg>