<?xml version="1.0" encoding="iso-8859-1"?>
<!-- Generator: Adobe Illustrator 19.0.0, SVG Export Plug-In . SVG Version: 6.00 Build 0)  -->
<svg version="1.1" id="Capa_1" xmlns="http://www.w3.org/2000/svg" xmlns:xlink="http://www.w3.org/1999/xlink" x="0px" y="0px"
	 viewBox="0 0 469.342 469.342" style="enable-background:new 0 0 469.342 469.342;" xml:space="preserve">
<circle style="fill:#303C42;" cx="170.671" cy="170.671" r="170.667"/>
<circle style="fill:#FBC02D;" cx="170.671" cy="170.671" r="149.333"/>
<circle style="fill:#303C42;" cx="170.671" cy="170.671" r="128"/>
<circle style="fill:#FDD835;" cx="170.671" cy="170.671" r="106.667"/>
<g>
	<path style="fill:#303C42;" d="M165.337,128h37.333c5.896,0,10.667-4.771,10.667-10.667s-4.771-10.667-10.667-10.667h-21.333V96
		c0-5.896-4.771-10.667-10.667-10.667S160.004,90.104,160.004,96v11.206c-18.046,2.615-32,18.036-32,36.794
		c0,20.583,16.75,37.333,37.333,37.333h10.667c8.813,0,16,7.177,16,16s-7.188,16-16,16h-37.333c-5.896,0-10.667,4.771-10.667,10.667
		c0,5.896,4.771,10.667,10.667,10.667h10.667v10.667c0,5.896,4.771,10.667,10.667,10.667c5.896,0,10.667-4.771,10.667-10.667
		v-10.667h5.333c20.583,0,37.333-16.75,37.333-37.333S196.587,160,176.004,160h-10.667c-8.813,0-16-7.177-16-16
		S156.525,128,165.337,128z"/>
	<path style="fill:#303C42;" d="M345.483,469.333c-3.792,0-7.479-2.042-9.396-5.615l-28.271-52.594L252.9,466.198
		c-3.063,3.073-7.625,3.99-11.646,2.323c-3.979-1.646-6.583-5.542-6.583-9.854V181.333c0-4.208,2.479-8.031,6.333-9.74
		c3.833-1.708,8.333-1.01,11.479,1.813l213.333,192c3.271,2.958,4.396,7.625,2.813,11.75c-1.583,4.125-5.542,6.844-9.958,6.844
		h-78.25l24.479,44.427c1.396,2.542,1.688,5.542,0.833,8.313c-0.854,2.771-2.813,5.073-5.417,6.365l-50.063,25.094
		C348.733,468.969,347.108,469.333,345.483,469.333z"/>
</g>
<path style="fill:#F2F2F2;" d="M310.421,382.75c0.521,0,1.021,0.042,1.542,0.115c3.354,0.49,6.25,2.531,7.854,5.5l30.146,56.125
	l30.896-15.479l-27.833-50.531c-1.813-3.302-1.75-7.323,0.167-10.573c1.917-3.25,5.417-5.24,9.188-5.24h68.5L256.004,205.281
	v227.583l46.875-46.979C304.879,383.865,307.608,382.75,310.421,382.75z"/>
<path style="opacity:0.1;enable-background:new    ;" d="M364.65,413.182c-8.178,4.098-18.133,0.945-22.461-7.113l-22.372-41.652
	c-1.604-2.969-4.5-5.01-7.854-5.5c-0.521-0.073-1.021-0.115-1.542-0.115c-2.813,0-5.542,1.115-7.542,3.135l-46.875,46.979v23.948
	l46.875-46.979c2-2.021,4.729-3.135,7.542-3.135c0.521,0,1.021,0.042,1.542,0.115c3.354,0.49,6.25,2.531,7.854,5.5l30.146,56.125
	l30.896-15.479l-10.339-18.768L364.65,413.182z"/>
<linearGradient id="SVGID_1_" gradientUnits="userSpaceOnUse" x1="-66.9703" y1="618.0604" x2="-44.5393" y2="607.6014" gradientTransform="matrix(21.3333 0 0 -21.3333 1430.0206 13315.3223)">
	<stop  offset="0" style="stop-color:#FFFFFF;stop-opacity:0.2"/>
	<stop  offset="1" style="stop-color:#FFFFFF;stop-opacity:0"/>
</linearGradient>
<path style="fill:url(#SVGID_1_);" d="M465.817,365.406L326.474,239.997c9.478-21.212,14.863-44.635,14.863-69.331
	C341.337,76.563,264.775,0,170.671,0S0.004,76.563,0.004,170.667s76.563,170.667,170.667,170.667c22.638,0,44.215-4.526,64-12.565
	v129.898c0,4.313,2.604,8.208,6.583,9.854c4.021,1.667,8.583,0.75,11.646-2.323l54.917-55.073l28.271,52.594
	c1.917,3.573,5.604,5.615,9.396,5.615c1.625,0,3.25-0.365,4.771-1.135l50.063-25.094c2.604-1.292,4.563-3.594,5.417-6.365
	c0.854-2.771,0.563-5.771-0.833-8.313L380.421,384h78.25c4.417,0,8.375-2.719,9.958-6.844
	C470.212,373.031,469.087,368.365,465.817,365.406z"/>
<g>
</g>
<g>
</g>
<g>
</g>
<g>
</g>
<g>
</g>
<g>
</g>
<g>
</g>
<g>
</g>
<g>
</g>
<g>
</g>
<g>
</g>
<g>
</g>
<g>
</g>
<g>
</g>
<g>
</g>
</svg>
