<svg xmlns="http://www.w3.org/2000/svg" viewBox="0 0 469.342 469.342" style="enable-background:new 0 0 469.342 469.342" xml:space="preserve"><circle style="fill:#303c42" cx="170.671" cy="170.671" r="170.667"/><circle style="fill:#fbc02d" cx="170.671" cy="170.671" r="149.333"/><circle style="fill:#303c42" cx="170.671" cy="170.671" r="128"/><circle style="fill:#fdd835" cx="170.671" cy="170.671" r="106.667"/><path style="fill:#303c42" d="M165.337 128h37.333c5.896 0 10.667-4.771 10.667-10.667s-4.771-10.667-10.667-10.667h-21.333V96c0-5.896-4.771-10.667-10.667-10.667S160.004 90.104 160.004 96v11.206c-18.046 2.615-32 18.036-32 36.794 0 20.583 16.75 37.333 37.333 37.333h10.667c8.813 0 16 7.177 16 16s-7.188 16-16 16h-37.333A10.66 10.66 0 0 0 128.004 224a10.66 10.66 0 0 0 10.667 10.667h10.667v10.667a10.66 10.66 0 0 0 10.667 10.667 10.66 10.66 0 0 0 10.667-10.667v-10.667h5.333c20.583 0 37.333-16.75 37.333-37.333S196.587 160 176.004 160h-10.667c-8.813 0-16-7.177-16-16s7.188-16 16-16zM345.483 469.333c-3.792 0-7.479-2.042-9.396-5.615l-28.271-52.594-54.916 55.074a10.628 10.628 0 0 1-11.646 2.323 10.672 10.672 0 0 1-6.583-9.854V181.333c0-4.208 2.479-8.031 6.333-9.74a10.683 10.683 0 0 1 11.479 1.813l213.333 192a10.683 10.683 0 0 1 2.813 11.75 10.664 10.664 0 0 1-9.958 6.844h-78.25l24.479 44.427a10.707 10.707 0 0 1 .833 8.313 10.592 10.592 0 0 1-5.417 6.365l-50.063 25.094a10.504 10.504 0 0 1-4.77 1.134z"/><path style="fill:#f2f2f2" d="M310.421 382.75c.521 0 1.021.042 1.542.115 3.354.49 6.25 2.531 7.854 5.5l30.146 56.125 30.896-15.479-27.833-50.531a10.691 10.691 0 0 1 .167-10.573 10.668 10.668 0 0 1 9.188-5.24h68.5L256.004 205.281v227.583l46.875-46.979c2-2.02 4.729-3.135 7.542-3.135z"/><path style="opacity:.1;enable-background:new" d="M364.65 413.182c-8.178 4.098-18.133.945-22.461-7.113l-22.372-41.652a10.668 10.668 0 0 0-7.854-5.5 10.621 10.621 0 0 0-9.084 3.02l-46.875 46.979v23.948l46.875-46.979a10.617 10.617 0 0 1 9.084-3.02c3.354.49 6.25 2.531 7.854 5.5l30.146 56.125 30.896-15.479-10.339-18.768-5.87 2.939z"/><linearGradient id="a" gradientUnits="userSpaceOnUse" x1="-66.97" y1="618.06" x2="-44.539" y2="607.601" gradientTransform="matrix(21.3333 0 0 -21.3333 1430.02 13315.322)"><stop offset="0" style="stop-color:#fff;stop-opacity:.2"/><stop offset="1" style="stop-color:#fff;stop-opacity:0"/></linearGradient><path style="fill:url(#a)" d="M465.817 365.406 326.474 239.997c9.478-21.212 14.863-44.635 14.863-69.331C341.337 76.563 264.775 0 170.671 0S.004 76.563.004 170.667s76.563 170.667 170.667 170.667c22.638 0 44.215-4.526 64-12.565v129.898a10.67 10.67 0 0 0 6.583 9.854 10.628 10.628 0 0 0 11.646-2.323l54.917-55.073 28.271 52.594c1.917 3.573 5.604 5.615 9.396 5.615 1.625 0 3.25-.365 4.771-1.135l50.063-25.094a10.592 10.592 0 0 0 5.417-6.365 10.712 10.712 0 0 0-.833-8.313L380.421 384h78.25c4.417 0 8.375-2.719 9.958-6.844a10.684 10.684 0 0 0-2.812-11.75z"/></svg>