<svg clip-rule="evenodd" fill-rule="evenodd" height="512" image-rendering="optimizeQuality" shape-rendering="geometricPrecision" text-rendering="geometricPrecision" viewBox="0 0 1706.66 1706.66" width="512" xmlns="http://www.w3.org/2000/svg"><path d="M515.84 1369.07H391.6c-11.04 0-20-8.97-20-20v-578.1c0-11.04 8.96-20 20-20h146.69c11.04 0 20 8.96 20 20v456.89c0 13.5-10.51 20.07-20.75 19.73l-13.21 83.14c17.44 7.55 14.61 38.34-8.49 38.34z" fill="#fa3c48"/><path d="M650.45 1099.42c-11.04 0-20-8.97-20-20V559.58c0-11.04 8.96-20 20-20h146.68c11.04 0 20 8.96 20 20v456.78c0 22.08-28.13 25.63-37.2 10.68-52 8.44-89.4 30.79-109.48 45.67v6.7c0 11.04-8.96 20.01-20 20.01z" fill="#ff6833"/><path d="M1055.98 1099.42c-11.04 0-20-8.97-20-20v-8.23c-36.93-27.34-82.61-40.86-108.19-46.72-7.27 17.85-38.49 15.15-38.49-8.11V669.6c0-11.04 8.97-20 20-20h146.69c11.04 0 20 8.96 20 20v409.81c-.01 11.04-8.97 20.01-20.01 20.01z" fill="#fc0"/><path d="M1314.81 1369.07h-124.22c-25.41 0-26.28-37.24-2.66-39.85l-20.24-81.59c-9.85-.2-19.54-6.78-19.54-19.74V348.2c0-11.04 8.97-20 20-20h146.69c11.04 0 20 8.96 20 20v1000.87c0 11.04-8.98 20-20.02 20z" fill="#25a753"/><path d="M1517.77 1369.07h-327.18c-26.33 0-26.32-40 0-40h327.18c26.33 0 26.31 40 0 40zm-1001.93 0H188.65c-26.32 0-26.32-40 0-40h327.19c26.32 0 26.32 40 0 40z" fill="#a0a0a0"/><path d="M1517.77 1369.07c-11.04 0-20-8.97-20-20V19.95c0-26.32 40-26.32 40 0v1329.14c0 11.03-8.97 19.98-20 19.98z" fill="#a0a0a0"/><path d="M367.86 548.11c-18.15 0-27-22.52-13.43-34.81l323.56-293.36c6.58-5.97 16.3-6.87 23.9-2.24l176.37 108.24 175-175.02-34.72 3.86c-26.01 2.94-30.72-36.82-4.43-39.75l88.24-9.81c3.95-1.15 7.95-.85 11.57.5l.07.02a20.174 20.174 0 0 1 12.71 12.67c1.4 3.66 1.72 7.7.55 11.7l-9.8 88.24c-1.15 10.22-9.81 17.78-19.85 17.78-11.88 0-21.21-10.41-19.91-22.21l3.86-34.74-186.17 186.18c-6.57 6.54-16.75 7.74-24.6 2.91L693.74 259.63 381.29 542.92a19.96 19.96 0 0 1-13.43 5.18z" fill="#25a753"/><path d="M853.2 1706.46c-197.05 0-357.37-160.33-357.37-357.38S656.14 991.7 853.2 991.7s357.39 160.33 357.39 357.38-160.33 357.38-357.39 357.38z" fill="#d7d7d7"/><g fill="#25a753"><path d="M681.39 1454.51c-41.56 0-74.86-43.9-47.07-59.43 23.71-13.25 25.11 19.43 47.07 19.43 12.53 0 22.72-10.18 22.72-22.72 0-41.39-85.44-4.75-85.44-85.43 0-69.6 97.16-86.65 121.44-22.09 9.26 24.63-28.16 38.75-37.44 14.07-8.78-23.37-43.98-17.2-43.98 8.02 0 41.4 85.48 4.78 85.45 85.44-.02 34.58-28.16 62.73-62.74 62.73zM1024.76 1454.51c-34.73 0-63-28.26-63-63v-84.88c0-82.91 125.99-82.92 125.99 0v84.88c0 34.74-28.26 63-63 63zm0-170.87c-12.68 0-22.98 10.3-22.98 22.98v84.88c0 30.26 45.97 30.26 45.97 0v-84.88c0-12.68-10.3-22.98-22.98-22.98zM901.02 1454.52h-85.99c-11.04 0-20-8.97-20-20v-170.89c0-11.04 8.96-20 20-20h85.99c26.33 0 26.32 40 0 40h-66v130.87c41.96 0 85.99-8.45 85.99 20 0 11.03-8.96 20.02-20 20.02z"/><path d="M891.45 1369.07h-76.41c-26.32 0-26.32-40 0-40h76.41c26.32 0 26.32 40 0 40z"/></g></svg>