<svg height="512" viewBox="0 0 517.558 517.558" width="512" xmlns="http://www.w3.org/2000/svg"><path d="M378.998 514.779H144.117c-22.758 0-41.207-18.449-41.207-41.207V43.986c0-22.758 18.449-41.207 41.207-41.207h234.881c22.758 0 41.207 18.449 41.207 41.207v429.586c.001 22.758-18.449 41.207-41.207 41.207z" fill="#3d6d93"/><path d="M378.998 2.779h-30.905c22.758 0 41.207 18.449 41.207 41.207v429.586c0 22.758-18.449 41.207-41.207 41.207h30.905c22.758 0 41.207-18.449 41.207-41.207V43.986c.001-22.758-18.449-41.207-41.207-41.207z" fill="#335e80"/><path d="M337.227 41.926c0 7.692-6.235 13.927-13.927 13.927H199.815c-7.692 0-13.927-6.235-13.927-13.927a8.24 8.24 0 0 0-8.241-8.241h-28.379c-8.534 0-15.453 6.918-15.453 15.453v419.284c0 8.534 6.918 15.453 15.453 15.453h224.579c8.534 0 15.453-6.918 15.453-15.453V49.137c0-8.534-6.918-15.453-15.453-15.453h-28.379a8.242 8.242 0 0 0-8.241 8.242z" fill="#f9f7f8"/><circle cx="261.558" cy="29.316" fill="#335e80" r="7.726"/><circle cx="94.635" cy="148.11" fill="#ffe179" r="89.078"/><path d="M94.635 59.032c-5.274 0-10.431.485-15.453 1.363 41.826 7.32 73.625 43.791 73.625 87.714s-31.799 80.394-73.625 87.714a89.517 89.517 0 0 0 15.453 1.363c49.196 0 89.077-39.881 89.077-89.078s-39.88-89.076-89.077-89.076z" fill="#fbd268"/><path d="M125.541 194.468H63.73c-8.534 0-15.453-6.918-15.453-15.453v-61.811c0-8.534 6.918-15.453 15.453-15.453h61.811c8.534 0 15.453 6.918 15.453 15.453v61.811c-.001 8.534-6.919 15.453-15.453 15.453z" fill="#f58a97"/><path d="M125.541 101.751H94.635c8.534 0 15.453 6.918 15.453 15.453v61.811c0 8.534-6.919 15.453-15.453 15.453h30.905c8.534 0 15.453-6.919 15.453-15.453v-61.811c0-8.534-6.918-15.453-15.452-15.453z" fill="#f07281"/><circle cx="94.635" cy="148.11" fill="#fff" r="15.453"/><circle cx="89.077" cy="358.333" fill="#8fd8fa" r="89.077"/><path d="M89.077 269.255c-5.634 0-11.137.547-16.481 1.547 41.318 7.733 72.597 43.968 72.597 87.531 0 43.562-31.278 79.797-72.597 87.531a89.494 89.494 0 0 0 16.481 1.547c49.196 0 89.077-39.881 89.077-89.077s-39.88-89.079-89.077-89.079z" fill="#6bcdfe"/><path d="M117.446 324.174c-7.134-8.203-19.567-9.069-27.769-1.935a19.686 19.686 0 0 0-6.765 15.116v4.394a46.837 46.837 0 0 1-36.645-16.188c-1.368-1.583-3.939-1.069-4.529.939-3.229 10.972-7.647 38.576 23.599 52.464a51.13 51.13 0 0 1-20.565 8.173c-1.904.308-.964 3.822-.482 5.08 3.316 8.654 40.717 12.243 63.623-6.596 14.043-11.55 18.339-27.994 19.802-36.854a40.747 40.747 0 0 0 8.543-13.122 40.373 40.373 0 0 0 2.349-8.291c.652-3.806-3.261-6.676-6.736-4.993a22.602 22.602 0 0 1-4.937 1.722 23.034 23.034 0 0 1-9.488.091z" fill="#fff"/><circle cx="428.48" cy="358.333" fill="#f58a97" r="89.078"/><path d="M428.48 269.255c-5.273 0-10.431.485-15.453 1.363 41.826 7.32 73.625 43.792 73.625 87.714 0 43.923-31.799 80.394-73.625 87.714a89.517 89.517 0 0 0 15.453 1.363c49.196 0 89.078-39.881 89.078-89.078 0-49.195-39.882-89.076-89.078-89.076z" fill="#f07281"/><path d="M406.609 328.036c0-2.304 2.493-3.744 4.487-2.592l54.176 31.294c1.994 1.152 1.994 4.032 0 5.184l-54.176 31.294c-1.994 1.152-4.487-.288-4.487-2.592z" fill="#fff"/><circle cx="428.48" cy="148.109" fill="#8fd8fa" r="89.078"/><path d="M428.48 59.032c-5.273 0-10.431.485-15.453 1.363 41.826 7.32 73.625 43.791 73.625 87.714s-31.799 80.394-73.625 87.714a89.517 89.517 0 0 0 15.453 1.363c49.196 0 89.078-39.881 89.078-89.078 0-49.195-39.882-89.076-89.078-89.076z" fill="#6bcdfe"/><path d="M455.494 92.226h-18.309c-12.834 0-23.276 10.442-23.276 23.276v22.448h-12.444a7.725 7.725 0 0 0-7.726 7.726 7.725 7.725 0 0 0 7.726 7.726h12.444v49.112a7.726 7.726 0 1 0 15.452 0v-49.112h12.443a7.725 7.725 0 0 0 7.726-7.726 7.725 7.725 0 0 0-7.726-7.726h-12.443v-22.448c0-4.314 3.509-7.823 7.823-7.823h18.309a7.725 7.725 0 0 0 7.726-7.726 7.723 7.723 0 0 0-7.725-7.727z" fill="#fff"/><path d="M259.885 196.538c-32.031.84-58.495 26.351-60.469 58.333a62.196 62.196 0 0 0 3.202 23.98 7.103 7.103 0 0 1-.041 4.649l-8.29 23.581c-1.147 3.262 1.992 6.401 5.254 5.254l16.589-5.832c2.36-.83 4.96-.349 6.925 1.2 11.014 8.682 25.025 13.728 40.231 13.316 33.426-.906 60.423-28.589 60.534-62.027.117-35.041-28.713-63.378-63.935-62.454z" fill="#aee69c"/><path d="M259.885 196.538a61.493 61.493 0 0 0-13.75 1.938c26.959 6.902 46.877 31.383 46.78 60.516-.096 28.728-20.044 53.19-46.857 60.091a62.39 62.39 0 0 0 17.228 1.935c33.426-.906 60.423-28.589 60.534-62.027.117-35.04-28.713-63.377-63.935-62.453z" fill="#89daa4"/><path d="M269.695 281.247a22.414 22.414 0 0 1-11.637-3.236l-11.563-7.02c-7.306-4.439-11.5-12.802-10.684-21.309l.014-.156a33.716 33.716 0 0 1 4.715-14.218 7.726 7.726 0 1 1 13.208 8.022 18.132 18.132 0 0 0-2.537 7.64l-.014.157c-.257 2.675 1.047 5.276 3.32 6.656l11.563 7.02a7.011 7.011 0 0 0 7.41-.107l.159-.104a18.127 18.127 0 0 0 5.608-5.774 7.73 7.73 0 0 1 10.615-2.595 7.728 7.728 0 0 1 2.595 10.615 33.67 33.67 0 0 1-10.418 10.724l-.158.103a22.436 22.436 0 0 1-12.196 3.582z" fill="#fff"/></svg>