<svg id="Capa_1" enable-background="new 0 0 517.558 517.558" height="512" viewBox="0 0 517.558 517.558" width="512" xmlns="http://www.w3.org/2000/svg"><g><g><g><g><g><g><path d="m378.998 514.779h-234.881c-22.758 0-41.207-18.449-41.207-41.207v-429.586c0-22.758 18.449-41.207 41.207-41.207h234.881c22.758 0 41.207 18.449 41.207 41.207v429.586c.001 22.758-18.449 41.207-41.207 41.207z" fill="#3d6d93"/><path d="m378.998 2.779h-30.905c22.758 0 41.207 18.449 41.207 41.207v429.586c0 22.758-18.449 41.207-41.207 41.207h30.905c22.758 0 41.207-18.449 41.207-41.207v-429.586c.001-22.758-18.449-41.207-41.207-41.207z" fill="#335e80"/><path d="m337.227 41.926c0 7.692-6.235 13.927-13.927 13.927h-123.485c-7.692 0-13.927-6.235-13.927-13.927 0-4.552-3.69-8.241-8.241-8.241h-28.379c-8.534 0-15.453 6.918-15.453 15.453v419.284c0 8.534 6.918 15.453 15.453 15.453h224.579c8.534 0 15.453-6.918 15.453-15.453v-419.285c0-8.534-6.918-15.453-15.453-15.453h-28.379c-4.551 0-8.241 3.69-8.241 8.242z" fill="#f9f7f8"/></g><circle cx="261.558" cy="29.316" fill="#335e80" r="7.726"/></g></g></g></g><g><g><circle cx="94.635" cy="148.11" fill="#ffe179" r="89.078"/><path d="m94.635 59.032c-5.274 0-10.431.485-15.453 1.363 41.826 7.32 73.625 43.791 73.625 87.714s-31.799 80.394-73.625 87.714c5.022.879 10.179 1.363 15.453 1.363 49.196 0 89.077-39.881 89.077-89.078s-39.88-89.076-89.077-89.076z" fill="#fbd268"/></g><g><path d="m125.541 194.468h-61.811c-8.534 0-15.453-6.918-15.453-15.453v-61.811c0-8.534 6.918-15.453 15.453-15.453h61.811c8.534 0 15.453 6.918 15.453 15.453v61.811c-.001 8.534-6.919 15.453-15.453 15.453z" fill="#f58a97"/><path d="m125.541 101.751h-30.906c8.534 0 15.453 6.918 15.453 15.453v61.811c0 8.534-6.919 15.453-15.453 15.453h30.905c8.534 0 15.453-6.919 15.453-15.453v-61.811c0-8.534-6.918-15.453-15.452-15.453z" fill="#f07281"/><circle cx="94.635" cy="148.11" fill="#fff" r="15.453"/></g></g><g><g><circle cx="89.077" cy="358.333" fill="#8fd8fa" r="89.077"/><path d="m89.077 269.255c-5.634 0-11.137.547-16.481 1.547 41.318 7.733 72.597 43.968 72.597 87.531 0 43.562-31.278 79.797-72.597 87.531 5.344 1 10.847 1.547 16.481 1.547 49.196 0 89.077-39.881 89.077-89.077s-39.88-89.079-89.077-89.079z" fill="#6bcdfe"/></g><g id="Shape_2_"><path d="m117.446 324.174c-7.134-8.203-19.567-9.069-27.769-1.935-4.368 3.799-6.842 9.328-6.765 15.116v4.394c-14.102.366-27.527-5.639-36.645-16.188-1.368-1.583-3.939-1.069-4.529.939-3.229 10.972-7.647 38.576 23.599 52.464-6.21 4.216-13.236 6.989-20.565 8.173-1.904.308-.964 3.822-.482 5.08 3.316 8.654 40.717 12.243 63.623-6.596 14.043-11.55 18.339-27.994 19.802-36.854 2.429-2.505 6.011-6.836 8.543-13.122 1.179-2.926 1.911-5.73 2.349-8.291.652-3.806-3.261-6.676-6.736-4.993-1.448.701-3.094 1.311-4.937 1.722-4.003.891-7.406.505-9.488.091z" fill="#fff"/></g></g><g><g><circle cx="428.48" cy="358.333" fill="#f58a97" r="89.078"/><path d="m428.48 269.255c-5.273 0-10.431.485-15.453 1.363 41.826 7.32 73.625 43.792 73.625 87.714 0 43.923-31.799 80.394-73.625 87.714 5.022.879 10.179 1.363 15.453 1.363 49.196 0 89.078-39.881 89.078-89.078 0-49.195-39.882-89.076-89.078-89.076z" fill="#f07281"/></g><g><path d="m406.609 328.036c0-2.304 2.493-3.744 4.487-2.592l54.176 31.294c1.994 1.152 1.994 4.032 0 5.184l-54.176 31.294c-1.994 1.152-4.487-.288-4.487-2.592z" fill="#fff"/></g></g><g><g><circle cx="428.48" cy="148.109" fill="#8fd8fa" r="89.078"/><path d="m428.48 59.032c-5.273 0-10.431.485-15.453 1.363 41.826 7.32 73.625 43.791 73.625 87.714s-31.799 80.394-73.625 87.714c5.022.879 10.179 1.363 15.453 1.363 49.196 0 89.078-39.881 89.078-89.078 0-49.195-39.882-89.076-89.078-89.076z" fill="#6bcdfe"/></g><path d="m455.494 92.226h-18.309c-12.834 0-23.276 10.442-23.276 23.276v22.448h-12.444c-4.268 0-7.726 3.459-7.726 7.726 0 4.268 3.459 7.726 7.726 7.726h12.444v49.112c0 4.268 3.459 7.726 7.726 7.726s7.726-3.459 7.726-7.726v-49.112h12.443c4.268 0 7.726-3.459 7.726-7.726 0-4.268-3.459-7.726-7.726-7.726h-12.443v-22.448c0-4.314 3.509-7.823 7.823-7.823h18.309c4.268 0 7.726-3.459 7.726-7.726.002-4.268-3.457-7.727-7.725-7.727z" fill="#fff"/></g><path d="m259.885 196.538c-32.031.84-58.495 26.351-60.469 58.333-.521 8.433.659 16.522 3.202 23.98.514 1.508.488 3.146-.041 4.649l-8.29 23.581c-1.147 3.262 1.992 6.401 5.254 5.254l16.589-5.832c2.36-.83 4.96-.349 6.925 1.2 11.014 8.682 25.025 13.728 40.231 13.316 33.426-.906 60.423-28.589 60.534-62.027.117-35.041-28.713-63.378-63.935-62.454z" fill="#aee69c"/><g><path d="m259.885 196.538c-4.727.124-9.327.798-13.75 1.938 26.959 6.902 46.877 31.383 46.78 60.516-.096 28.728-20.044 53.19-46.857 60.091 5.488 1.408 11.264 2.097 17.228 1.935 33.426-.906 60.423-28.589 60.534-62.027.117-35.04-28.713-63.377-63.935-62.453z" fill="#89daa4"/></g><g><path d="m269.695 281.247c-4.039 0-8.081-1.076-11.637-3.236l-11.563-7.02c-7.306-4.439-11.5-12.802-10.684-21.309l.014-.156c.481-5.023 2.111-9.93 4.715-14.218 2.215-3.648 6.969-4.808 10.615-2.593 3.647 2.215 4.808 6.967 2.593 10.615-1.402 2.309-2.28 4.951-2.537 7.64l-.014.157c-.257 2.675 1.047 5.276 3.32 6.656l11.563 7.02c2.271 1.379 5.178 1.338 7.41-.107l.159-.104c2.267-1.468 4.206-3.465 5.608-5.774 2.215-3.647 6.967-4.807 10.615-2.595 3.647 2.215 4.809 6.967 2.595 10.615-2.604 4.288-6.206 7.997-10.418 10.724l-.158.103c-3.68 2.384-7.937 3.582-12.196 3.582z" fill="#fff"/></g></g></svg>