<svg id="Layer_57" height="512" viewBox="0 0 522.3 544" width="512" xmlns="http://www.w3.org/2000/svg"><g><g><path d="m309.6 427.2v-105.1h-47.9v33h-107.5c-11.5.1-20.8 9.4-20.8 20.9v51.3c0 27.9 22.6 50.5 50.5 50.5h.1 75.2c27.9-.1 50.5-22.7 50.4-50.6z" fill="#1f315f"/><path d="m261.8 481c-.8-19.1-16.4-34.1-35.5-34.1h-9.5c-19.1 0-34.7 15.1-35.4 34.2z" fill="#efcdb1"/><path d="m221.5 446.4c-3.3-.1-5.9-2.7-6-6v-41.5c0-3.3 2.7-6 6-6 3.3 0 6 2.7 6 6v41.5c.1 3.3-2.5 5.9-5.8 6h-.1z" fill="#414042"/><path d="m261.9 508.4v-27.4h-80.5v27.4c-.1 19.6 15.8 35.5 35.4 35.6h.1 9.5c19.6-.1 35.5-16 35.5-35.6z" fill="#8a5d3b"/><g><path d="m261.7 360.2.1 44.1" fill="none"/><path d="m261.8 410.3c-3.3 0-6-2.7-6-6v-44.1c0-3.3 2.7-6 6-6 3.3 0 6 2.7 6 6v44.1c0 3.3-2.7 6-6 6z" fill="#192a4f"/></g><path d="m309.5 322.1v-26.2c0-6.5-5.2-11.7-11.7-11.7h-24.4c-6.5 0-11.7 5.2-11.7 11.7v26.2z" fill="#efcdb1"/></g><g><path d="m438.6 288.1-99-35.5-16.2 45.1 31.1 11.1-36.3 101.3c-3.9 10.8 1.7 22.7 12.5 26.6l48.3 17.3c26.3 9.4 55.2-4.2 64.6-30.5l25.4-70.8c9.4-26.2-4.2-55.1-30.4-64.6z" fill="#89c45e"/><path d="m472.9 351.4c-18.2-5.8-37.7 3.8-44.1 21.8l-3.2 8.9c-6.4 18 2.5 37.8 20.2 45z" fill="#efcdb1"/><path d="m421.1 381.5c-.7 0-1.4-.1-2-.4l-39.1-14c-3.1-1.1-4.7-4.6-3.6-7.7 1.1-3.1 4.4-4.7 7.5-3.6h.1l39.1 14c3.1 1 4.9 4.4 3.8 7.6-.8 2.5-3.2 4.2-5.8 4.1z" fill="#414042"/><path d="m498.8 360.6-24.5-8.8-1.4-.4-27.1 75.7 1.3.5 24.5 8.8c18.5 6.6 38.8-3 45.4-21.5l3.2-8.9c6.6-18.4-3-38.7-21.4-45.4z" fill="#8a5d3b"/><g><path d="m359.2 310.5 41.5 14.9" fill="none"/><path d="m400.7 331.4-2-.3-41.5-14.9c-3.1-1.1-4.7-4.6-3.6-7.7s4.6-4.7 7.7-3.6l41.5 14.9c3.1 1.1 4.7 4.4 3.6 7.5v.1c-.9 2.4-3.1 4-5.7 4z" fill="#75aa4d"/></g><path d="m339.6 252.6-24.7-8.8c-6.1-2.2-12.8 1-15 7v.1l-8.2 22.9c-2.2 6.1 1 12.8 7 15h.1l24.6 8.9z" fill="#efcdb1"/></g><g><path d="m351.7 127.3-62.2 84.8 38.6 28.3 19.5-26.6 86.7 63.6c9.3 6.8 22.3 4.8 29.1-4.5l30.4-41.4c16.5-22.5 11.6-54.1-10.9-70.6l-60.7-44.5c-22.5-16.4-54-11.5-70.5 10.9z" fill="#fdc00f"/><path d="m422.1 112.3c-10.7 15.8-7 37.2 8.4 48.5l7.6 5.6c15.4 11.2 36.9 8.4 48.8-6.5z" fill="#efcdb1"/><path d="m405.9 208.3c-1.3 0-2.5-.4-3.5-1.1-2.7-2-3.3-5.7-1.3-8.4l24.5-33.5c2-2.7 5.7-3.3 8.4-1.3s3.3 5.7 1.3 8.4l-24.6 33.5c-1.1 1.5-2.9 2.4-4.8 2.4z" fill="#414042"/><path d="m438.2 90.2-15.4 21-.7 1.1 64.8 47.6.9-1.1 15.4-21.1c11.6-15.8 8.1-38-7.7-49.6l-7.6-5.6c-15.8-11.6-38-8.2-49.6 7.6-.1 0-.1.1-.1.1z" fill="#8a5d3b"/><g><path d="m350.6 209.7 26.1-35.5" fill="none"/><path d="m350.6 215.7c-1.3 0-2.5-.4-3.6-1.1-2.7-2-3.2-5.7-1.2-8.4l26-35.6c2-2.7 5.7-3.3 8.4-1.3 2.7 2 3.3 5.7 1.3 8.4l-26.1 35.6c-1.1 1.5-2.9 2.4-4.8 2.4z" fill="#e5a60a"/></g><path d="m289.5 212.1-15.5 21.1c-3.8 5.2-2.7 12.5 2.5 16.4l19.7 14.4c5.2 3.8 12.5 2.7 16.4-2.5l15.5-21.1z" fill="#efcdb1"/></g><g><path d="m145.4 342.9 97.6-39.2-17.8-44.4-30.7 12.3-40.1-99.8c-4.2-10.6-16.2-15.9-26.9-11.7 0 0-.1 0-.1.1l-47.7 19.2c-25.8 10.4-38.3 39.8-28 65.6l28.1 69.8c10.3 25.9 39.6 38.5 65.5 28.1z" fill="#02648e"/><path d="m77.7 318.5c17.4-7.8 25.6-28 18.5-45.7l-3.6-8.8c-7.1-17.7-26.9-26.6-44.8-20.2z" fill="#efcdb1"/><path d="m100.4 272c-2.4 0-4.6-1.5-5.5-3.8-1.2-3.1.2-6.6 3.3-7.8l38.5-15.5c3.1-1.2 6.6.3 7.9 3.4 1.2 3.1-.3 6.6-3.4 7.8l-38.5 15.5c-.7.3-1.5.4-2.3.4z" fill="#414042"/><path d="m52.3 328.7 24.2-9.7 1.2-.5-29.9-74.7-1.4.5-24.1 9.7c-18.2 7.3-27 28-19.7 46.2l3.5 8.8c7.3 18.2 28 27 46.2 19.7z" fill="#8a5d3b"/><g><path d="m189.9 273.5-41 16.4" fill="none"/><path d="m149 295.9c-3.3.1-6.1-2.5-6.1-5.8-.1-2.5 1.5-4.8 3.8-5.8l40.9-16.4c3.1-1.2 6.6.2 7.8 3.3 1.3 3-.1 6.5-3.1 7.7-.1 0-.1 0-.2.1l-40.9 16.5c-.7.3-1.4.4-2.2.4z" fill="#345493"/></g><path d="m243 303.7 24.3-9.8c6-2.4 8.9-9.2 6.5-15.2l-9.1-22.7c-2.4-6-9.2-8.9-15.2-6.5l-24.3 9.8z" fill="#efcdb1"/></g><g><path d="m162.7 154.5 58.3 87.5 39.8-26.5-18.3-27.4 89.6-59.6c9.5-6.4 12.1-19.3 5.7-28.9l-28.4-42.7c-15.5-23.2-46.8-29.5-70-14.1l-62.6 41.7c-23.2 15.4-29.5 46.8-14.1 70z" fill="#be1e2d"/><path d="m172.8 83.3c11.2 15.4 32.5 19.3 48.4 8.7l7.9-5.2c15.9-10.5 20.7-31.8 10.7-48.1z" fill="#efcdb1"/><path d="m251.8 135.4c-2 0-3.9-1-5-2.7l-23-34.6c-2-2.7-1.4-6.4 1.2-8.4 2.7-2 6.4-1.4 8.4 1.2.1.2.3.4.4.6l23 34.5c1.8 2.8 1.1 6.5-1.7 8.4-1 .6-2.1 1-3.3 1z" fill="#414042"/><path d="m157.6 60.4 14.4 21.7.8 1.2 67-44.6-.8-1.2-14.4-21.7c-10.9-16.3-33-20.7-49.3-9.8l-7.8 5.2c-16.3 10.8-20.8 32.7-10 49.1 0 0 .1.1.1.1z" fill="#8a5d3b"/><g><path d="m239.7 183.9-24.4-36.7" fill="none"/><path d="m239.7 189.9c-2 0-3.9-1-5-2.7l-24.4-36.7c-1.9-2.8-1.1-6.5 1.7-8.3 2.8-1.9 6.5-1.1 8.3 1.6l24.4 36.7c1.8 2.7 1.1 6.4-1.5 8.2-.1 0-.1.1-.2.1-1 .7-2.1 1.1-3.3 1.1z" fill="#aa1729"/></g><path d="m221 242 14.5 21.8c3.5 5.4 10.7 6.9 16 3.4.1 0 .1-.1.2-.1l20.4-13.5c5.4-3.6 6.8-10.9 3.2-16.3l-14.5-21.8z" fill="#efcdb1"/></g></g></svg>