<svg height="512" width="512" xmlns="http://www.w3.org/2000/svg"><path d="m49.567 471.788 36.778 9 36.777-9v-18.036l-36.777-9-36.778 9z" fill="#f9cf58"/><path d="m162.67 471.788 36.778 9 36.778-9v-18.036l-36.778-9-36.778 9z" fill="#ffac3e"/><path d="m275.774 471.788 36.778 9 36.778-9v-18.036l-36.778-9-36.778 9z" fill="#82d361"/><path d="m388.877 471.788 36.778 9 36.778-9v-18.036l-36.778-9-36.778 9z" fill="#6cc4ff"/><path d="M123.122 453.752H49.567v-72.767c0-5.534 4.486-10.02 10.02-10.02h53.517c5.534 0 10.02 4.486 10.02 10.02v72.767z" fill="#ffe27a"/><path d="M236.226 453.752H162.67V326.297c0-5.534 4.486-10.02 10.02-10.02h53.516c5.534 0 10.02 4.486 10.02 10.02z" fill="#ffba57"/><path d="M349.33 453.752h-73.556V271.608c0-5.534 4.486-10.02 10.02-10.02h53.517c5.534 0 10.02 4.486 10.02 10.02v182.144z" fill="#98db7c"/><path d="M462.433 453.752h-73.556V216.919c0-5.534 4.486-10.02 10.02-10.02h53.517c5.534 0 10.02 4.486 10.02 10.02v236.833z" fill="#8bcaff"/><path d="m421.956 117.62-8.827-87.925a5.01 5.01 0 0 0-6.247-4.348l-85.577 22.288c-4.142 1.079-5.111 6.518-1.597 8.961l22.355 15.543S284.73 183.948 77.58 247.876v5.588c56.837.311 205.414-15.944 298.599-141.163l15.567-5.618 22.365 15.55c3.512 2.442 8.272-.357 7.845-4.613z" fill="#ff4755"/><path d="M382.772 100.345c-2.23-1.575-5.297-1.065-6.926 1.125C282.661 226.689 163.112 242.458 80.97 248.164a10.089 10.089 0 0 1-3.327-.307l-.073.023c-10.595 3.342-7.627 19.087 3.456 18.316 83.006-5.775 220.024-35.418 310.719-159.512z" fill="#fc2b3a"/><path d="M504.485 486.817H7.515a7.516 7.516 0 0 1 0-15.03h496.971a7.516 7.516 0 0 1-.001 15.03z" fill="#407093"/></svg>