<svg id="Layer_1" enable-background="new 0 0 512 512" height="512" viewBox="0 0 512 512" width="512" xmlns="http://www.w3.org/2000/svg"><g><g><path d="m49.567 471.788 36.778 9 36.777-9v-18.036l-36.777-9-36.778 9z" fill="#f9cf58"/><path d="m162.67 471.788 36.778 9 36.778-9v-18.036l-36.778-9-36.778 9z" fill="#ffac3e"/><path d="m275.774 471.788 36.778 9 36.778-9v-18.036l-36.778-9-36.778 9z" fill="#82d361"/><path d="m388.877 471.788 36.778 9 36.778-9v-18.036l-36.778-9-36.778 9z" fill="#6cc4ff"/><path d="m123.122 453.752h-73.555v-72.767c0-5.534 4.486-10.02 10.02-10.02h53.517c5.534 0 10.02 4.486 10.02 10.02v72.767z" fill="#ffe27a"/><path d="m236.226 453.752h-73.556v-127.455c0-5.534 4.486-10.02 10.02-10.02h53.516c5.534 0 10.02 4.486 10.02 10.02z" fill="#ffba57"/><path d="m349.33 453.752h-73.556v-182.144c0-5.534 4.486-10.02 10.02-10.02h53.517c5.534 0 10.02 4.486 10.02 10.02v182.144z" fill="#98db7c"/><path d="m462.433 453.752h-73.556v-236.833c0-5.534 4.486-10.02 10.02-10.02h53.517c5.534 0 10.02 4.486 10.02 10.02v236.833z" fill="#8bcaff"/><path d="m421.956 117.62-8.827-87.925c-.307-3.059-3.272-5.123-6.247-4.348l-85.577 22.288c-4.142 1.079-5.111 6.518-1.597 8.961l22.355 15.543s-57.333 111.809-264.483 175.737v5.588c56.837.311 205.414-15.944 298.599-141.163l15.567-5.618 22.365 15.55c3.512 2.442 8.272-.357 7.845-4.613z" fill="#ff4755"/><g><g><g><path d="m382.772 100.345c-2.23-1.575-5.297-1.065-6.926 1.125-93.185 125.219-212.734 140.988-294.876 146.694-1.21.084-2.317-.037-3.327-.307l-.073.023c-10.595 3.342-7.627 19.087 3.456 18.316 83.006-5.775 220.024-35.418 310.719-159.512z" fill="#fc2b3a"/></g></g></g></g><path d="m504.485 486.817h-496.97c-4.15 0-7.515-3.365-7.515-7.515s3.364-7.515 7.515-7.515h496.971c4.15 0 7.515 3.365 7.515 7.515-.001 4.15-3.366 7.515-7.516 7.515z" fill="#407093"/></g></svg>