<svg xmlns="http://www.w3.org/2000/svg" viewBox="0 0 512 512" style="enable-background:new 0 0 512 512" xml:space="preserve"><path style="fill:#e6e5e5" d="M59.52 27.821h279.296v395.008H59.52z"/><circle style="fill:#16c6cc" cx="140.57" cy="306.636" r="16.128"/><circle style="fill:#f15424" cx="199.168" cy="306.636" r="16.125"/><circle style="fill:#242d3c" cx="257.766" cy="306.636" r="16.131"/><path style="fill:#f15424" d="M69.478 37.8h259.354v18.616H69.478z"/><path style="fill:#16c6cc" d="m199.165 198.895-54.953 54.961h109.909z"/><path style="fill:#f15424" d="m199.165 198.895-54.953-54.953v109.914z"/><path style="fill:#242d3c" d="m144.212 143.942 54.953 54.953 54.956 54.961V143.942zM71.485 362.725h255.36v5.85H71.485zM71.485 375.807h255.36v5.852H71.485zM71.485 388.888h127.68v5.852H71.485zM135.132 65.238h128.179v5.852H135.132zM135.132 78.319h64.077v5.852h-64.077z"/><path style="fill:#16c6cc" d="M281.728 346.06h230.195v138.115H281.728z"/><path style="fill:#242d3c" d="m281.641 346.062 115.182 85.164L512 346.062z"/><path style="fill:#e6e5e5" d="m25.674 204.307-12.833-25.679L0 204.307z"/><path style="fill:#242d3c" d="M0 204.312h25.677v249.267H0zM17.859 188.673l-5.018-10.045-5.048 10.045z"/><path style="fill:#e6e5e5" d="M0 453.554h25.677v9.075H0z"/><path style="fill:#f15424" d="M0 462.642h25.677v21.537H0z"/><path style="fill:#e6e5e5" d="M375.117 216.728H512v91.254H375.117z"/><path style="fill:#16c6cc" d="m443.561 262.342-18.253 18.251h36.506z"/><path style="fill:#f15424" d="m443.561 262.342-18.253-18.245v36.496z"/><path style="fill:#242d3c" d="m425.308 244.097 18.253 18.245 18.253 18.251v-36.496z"/><path style="fill:#cccbca" d="M512 103.22c0-35.069-28.426-63.521-63.516-63.521-35.072 0-63.514 28.447-63.514 63.521 0 35.08 28.439 63.516 63.514 63.516C483.574 166.737 512 138.3 512 103.22zm-73.365 0a9.846 9.846 0 0 1 9.851-9.856c5.453 0 9.869 4.406 9.874 9.856-.005 5.45-4.424 9.859-9.874 9.859-5.442 0-9.851-4.406-9.851-9.859z"/><path style="fill:#16c6cc" d="M473.897 103.22c0-14.029-11.382-25.411-25.413-25.416-14.039.005-25.393 11.387-25.4 25.416 0 14.034 11.372 25.405 25.4 25.4 14.036.008 25.413-11.358 25.413-25.4zm-35.845 0c-.008-5.77 4.672-10.44 10.432-10.435 5.778 0 10.452 4.662 10.452 10.435 0 5.778-4.68 10.447-10.452 10.44-5.76 0-10.44-4.662-10.432-10.44z"/><path style="fill:#242d3c" d="M464.44 103.22c.005-8.801-7.137-15.944-15.954-15.944-8.801 0-15.944 7.142-15.944 15.944-.005 8.801 7.142 15.944 15.944 15.944 8.812 0 15.959-7.142 15.954-15.944zm-25.805 0a9.846 9.846 0 0 1 9.851-9.856c5.453 0 9.869 4.406 9.874 9.856-.005 5.45-4.424 9.859-9.874 9.859-5.442 0-9.851-4.406-9.851-9.859z"/><path style="fill:#f2f2f2" d="M297.677 27.821h150.804v150.807H297.677z"/><circle style="fill:#16c6cc" cx="313.421" cy="113.484" r="5.727"/><circle style="fill:#f15424" cx="313.421" cy="134.271" r="5.727"/><path style="fill:#242d3c" d="M313.423 160.782a5.715 5.715 0 0 1-5.719-5.719 5.715 5.715 0 0 1 5.719-5.719 5.716 5.716 0 0 1 5.724 5.719 5.715 5.715 0 0 1-5.724 5.719z"/></svg>